<svg xmlns="http://www.w3.org/2000/svg" viewBox="0 0 107.72 153.07"><defs><style>.cls-10,.cls-2,.cls-3,.cls-4,.cls-5{fill:none}.cls-2,.cls-3,.cls-4,.cls-5{stroke:#222221}.cls-10,.cls-5{stroke-miterlimit:1.41}.cls-3{stroke-width:.3px}.cls-2{stroke-miterlimit:10;stroke-width:.5px}.cls-3,.cls-4{stroke-miterlimit:1.4}.cls-10,.cls-4,.cls-5{stroke-width:.25px}.cls-14{fill:#222221}.cls-10{stroke:#20201f}.cls-11,.cls-12{fill:#20201f}.cls-12{font-size:7px;font-family:Fakt-Normal,Fakt}</style></defs><g id="Ranges"><path d="M24.94 56.9h2.88v3.44h-2.88zm71.97 0h2.88v3.44h-2.88z" stroke-width=".3" stroke-miterlimit="1.41" stroke="#222221" fill="none"/><path class="cls-2" d="M53.61 39a3.06 3.06 0 113 3 3.06 3.06 0 01-3-3zm9.65 0a3.06 3.06 0 113.06 3 3.06 3.06 0 01-3.06-3zM44 39a3.06 3.06 0 113 3 3.06 3.06 0 01-3-3zm28.92 0A3.06 3.06 0 1176 42a3.06 3.06 0 01-3.08-3zm9.66 0a3.06 3.06 0 113.06 3 3.06 3.06 0 01-3.06-3zm9.66 0a3.06 3.06 0 113.05 3 3.06 3.06 0 01-3.05-3zm1.88 107.28h6.1v1.12h-6.1zm-.41-13.05h6.91v13.05h-6.91zm-69.35 13.05h6.1v1.12h-6.1zm-.41-13.05h6.91v13.05h-6.91z"/><path class="cls-2" d="M19.84 17.01h85.12v116.22H19.84zm0 8.5h85.12m-85.02 5.67h85.02"/><path class="cls-3" d="M19.94 46.64h85.02"/><path class="cls-2" d="M19.84 111.97h85.12m-85.12 4.25h85.12m-85.12 2.14h85.12"/><path class="cls-3" d="M19.94 48.76h85.02"/><path class="cls-2" d="M19.94 50.17h85.02"/><rect class="cls-2" x="26.39" y="35.24" width="10.94" height="7.3" rx="1.82"/><path class="cls-4" d="M27.87 40.84a.49.49 0 01.49-.49.49.49 0 010 1 .49.49 0 01-.49-.51zm1.79 0a.49.49 0 01.49-.49.49.49 0 010 1 .49.49 0 01-.49-.51zm1.79 0a.48.48 0 01.48-.49.49.49 0 010 1 .48.48 0 01-.48-.51z"/><path class="cls-5" d="M33.24 40.84a.48.48 0 01.48-.49.49.49 0 110 1 .48.48 0 01-.48-.51zm1.76 0a.49.49 0 11.49.49.49.49 0 01-.49-.49z"/><rect class="cls-4" x="28.79" y="36.89" width="5.96" height="1.84" rx=".61"/><path fill="#fff" stroke-width=".3" stroke-miterlimit="1.41" stroke="#222221" d="M21.91 55.65h81.08v3.55H21.91z"/><path d="M62.4 25.27v-2.96h15.22l-4.68 1.13h-7.13v1.83H62.4zm39.32.04v-2.96H86.16l4.68 1.12h7.13v1.84h3.75zm-20.13-3h.92v2.96h-.92zm-19.19 3v-3H46.95l4.65 1.14h7.08v1.86h3.72zm-39.31.04v-3h15.1l-4.65 1.14h-7.07v1.86h-3.38zm19.32-3.04h.91v2.99h-.91z" stroke-width=".2" fill="#222221" stroke-miterlimit="1.41" stroke="#222221"/><rect x="35.58" y="67.54" width="53.86" height="28.91" rx="1.27" stroke-width=".5" stroke-miterlimit="1.41" stroke="#222221" fill="none"/><rect class="cls-2" x="19.84" y="52.16" width="85.08" height="57.81" rx=".29"/></g><g id="Dimensions"><path d="M24.36 147.4H11.34m8.5-14.17h-8.5m8.5-116.22h-8.5m8.5 8.5h-8.5" stroke="#20201f" fill="#fff" stroke-width=".25" stroke-miterlimit="1.41"/><path class="cls-10" d="M14.17 25.78v107.18"/><path class="cls-11" d="M13.15 26.61l.18.17.84-.9.84.9.19-.17-1.03-1.1-1.02 1.1zm0 105.52l.18-.17.84.9.84-.9.19.17-1.03 1.1-1.02-1.1z"/><text class="cls-12" transform="rotate(-90 47.625 37.705)">760</text><text class="cls-12" transform="rotate(-90 11.2 1.28)">60</text><path class="cls-10" d="M14.17 8.5v8.24"/><path class="cls-11" d="M13.15 15.91l.18-.17.84.9.84-.9.19.17-1.03 1.1-1.02-1.1z"/><path class="cls-10" d="M14.17 25.51v-8.5"/><path d="M19.88 16.98v-8.5m85.04 8.5v-8.5" fill="#fff" stroke-width=".25" stroke-miterlimit="1.41" stroke="#222221"/><path class="cls-5" d="M104.65 11.31h-84.5"/><path class="cls-14" d="M103.82 10.29l-.17.18.91.84-.91.84.17.18 1.1-1.02-1.1-1.02zm-82.84 0l.17.18-.9.84.9.84-.17.18-1.1-1.02 1.1-1.02z"/><text transform="translate(56.44 7.06)" font-size="7" font-family="Fakt-Normal,Fakt" fill="#222221">600</text><path class="cls-10" d="M14.17 133.23v14.17"/><text class="cls-12" transform="rotate(-90 81.495 71.575)">100รท160</text><path class="cls-5" d="M14.17 147.67v5.4"/><path class="cls-14" d="M13.15 148.5l.18.17.84-.9.84.9.19-.17-1.03-1.1-1.02 1.1z"/></g></svg>