<svg xmlns="http://www.w3.org/2000/svg" viewBox="0 0 150.24 153.07"><defs><style>.cls-1,.cls-2,.cls-3,.cls-4,.cls-7,.cls-9{fill:none}.cls-1,.cls-2,.cls-3,.cls-4,.cls-6,.cls-7{stroke:#222221}.cls-1{stroke-miterlimit:10}.cls-1,.cls-7{stroke-width:.5px}.cls-2,.cls-4{stroke-miterlimit:1.4}.cls-2,.cls-3,.cls-9{stroke-width:.25px}.cls-3,.cls-6,.cls-7,.cls-9{stroke-miterlimit:1.41}.cls-4{stroke-width:.3px}.cls-13,.cls-6{fill:#222221}.cls-6{stroke-width:.2px}.cls-9{stroke:#20201f}.cls-10,.cls-11{fill:#20201f}.cls-11{font-size:7px;font-family:Fakt-Normal,Fakt}</style></defs><g id="Ranges"><path class="cls-1" d="M136.79 146.28h6.1v1.12h-6.1zm-.41-13.05h6.91v13.05h-6.91zM24.36 146.28h6.1v1.12h-6.1zm-.41-13.05h6.91v13.05h-6.91zM19.84 17.01H147.4v116.22H19.84zm0 8.5H147.4M19.84 31.18H147.4"/><path class="cls-1" d="M40.94 38.89A3.06 3.06 0 1144 42a3.05 3.05 0 01-3.06-3.11zm10.65 0A3.06 3.06 0 1154.65 42a3.05 3.05 0 01-3.06-3.11zm10.65 0A3.06 3.06 0 1165.3 42a3.05 3.05 0 01-3.06-3.11zm10.66 0A3.06 3.06 0 1176 42a3 3 0 01-3.1-3.11zm10.65 0a3.06 3.06 0 113 3.06 3 3 0 01-3-3.06zm10.65 0A3.06 3.06 0 1197.26 42a3.05 3.05 0 01-3.06-3.11zm10.65 0a3.06 3.06 0 113.06 3.11 3.05 3.05 0 01-3.06-3.11zm10.65 0a3.06 3.06 0 113.06 3.11 3.05 3.05 0 01-3.06-3.11zm10.65 0a3.06 3.06 0 113.06 3.11 3.05 3.05 0 01-3.06-3.11zm10.65 0a3.06 3.06 0 113.06 3.11 3.05 3.05 0 01-3.06-3.11z"/><rect class="cls-1" x="25.51" y="35.24" width="10.94" height="7.3" rx="1.82"/><path class="cls-2" d="M27 40.84a.49.49 0 01.49-.49.49.49 0 010 1 .49.49 0 01-.49-.51zm1.78 0a.49.49 0 11.48.49.49.49 0 01-.48-.49zm1.78 0a.49.49 0 11.49.49.49.49 0 01-.49-.49z"/><path class="cls-3" d="M32.35 40.84a.49.49 0 11.49.49.49.49 0 01-.49-.49zm1.79 0a.49.49 0 11.49.49.49.49 0 01-.49-.49z"/><rect class="cls-2" x="27.91" y="36.89" width="5.96" height="1.84" rx=".61"/><path class="cls-1" d="M104.88 111.97v-61.8"/><path class="cls-4" d="M25.68 55.21h2.88v3.44h-2.88zm70.48 0h2.88v3.44h-2.88zm15.61 0h2.88v3.44h-2.88zm25.86 0h2.88v3.44h-2.88z"/><path d="M22.68 53.97h79.37v3.54H22.68zm86.09 0h34.75v3.54h-34.75z" fill="#fff" stroke-width=".3" stroke-miterlimit="1.4" stroke="#222221"/><path class="cls-6" d="M65.39 25.57v-2.79h14.33l-4.41 1.06h-6.72v1.73h-3.2zm73.57.04v-2.79H124.3l4.41 1.06h6.72v1.73h3.53zM120 22.78h.86v2.79H120z"/><path class="cls-6" d="M65.39 25.61v-2.83H50.84l4.38 1.08h6.66v1.75h3.51zm-37.04.03v-2.82h14.23l-4.38 1.07h-6.66v1.75h-3.19zm18.2-2.86h.86v2.82h-.86zm55.5 2.79v-2.79h14.33l-4.41 1.06h-6.71v1.73h-3.21zm0 .04v-2.83H87.5l4.38 1.08h6.66v1.75h3.51zm-18.84-2.83h.86v2.82h-.86z"/><rect class="cls-7" x="35.43" y="65.85" width="53.86" height="28.9" rx="1.24"/><rect class="cls-7" x="115.8" y="65.85" width="20.69" height="28.91" rx="1.26"/><path class="cls-1" d="M19.84 111.97H147.4m-127.56 4.25H147.4m-127.56 2.14H147.4"/><path class="cls-4" d="M19.92 46.64h127.41M19.92 48.76h127.41"/><path class="cls-1" d="M19.92 50.17h127.41"/></g><g id="Dimensions"><path d="M24.29 147.4H11.34m8.5-14.17h-8.5m8.5-116.22h-8.5m8.5 8.5h-8.5" stroke="#20201f" fill="#fff" stroke-miterlimit="1.41" stroke-width=".25"/><path class="cls-9" d="M14.17 25.78v107.18"/><path class="cls-10" d="M13.15 26.61l.18.17.84-.9.84.9.19-.17-1.03-1.1-1.02 1.1zm0 105.52l.18-.17.84.9.84-.9.19.17-1.03 1.1-1.02-1.1z"/><text class="cls-11" transform="rotate(-90 47.625 37.705)">760</text><text class="cls-11" transform="rotate(-90 11.2 1.28)">60</text><path class="cls-9" d="M14.17 8.5v8.24"/><path class="cls-10" d="M13.15 15.91l.18-.17.84.9.84-.9.19.17-1.03 1.1-1.02-1.1z"/><path class="cls-9" d="M14.17 25.51v-8.5"/><path d="M19.84 17.01V8.5m127.56 8.51V8.5" fill="#fff" stroke-miterlimit="1.41" stroke-width=".25" stroke="#222221"/><path class="cls-3" d="M147.13 11.34H20.11"/><path class="cls-13" d="M146.3 10.32l-.17.18.91.84-.91.84.17.18 1.1-1.02-1.1-1.02zm-125.36 0l.17.18-.9.84.9.84-.17.18-1.1-1.02 1.1-1.02z"/><text transform="translate(77.66 7.06)" font-size="7" font-family="Fakt-Normal,Fakt" fill="#222221">900</text><path class="cls-9" d="M14.17 133.23v14.17"/><text class="cls-11" transform="rotate(-90 81.495 71.575)">100รท160</text><path class="cls-3" d="M14.17 147.67v5.4"/><path class="cls-13" d="M13.15 148.5l.18.17.84-.9.84.9.19-.17-1.03-1.1-1.02 1.1z"/></g></svg>