<svg id="Black" xmlns="http://www.w3.org/2000/svg" viewBox="0 0 184.25 184.25"><defs><style>.cls-1,.cls-2,.cls-3{fill:none;stroke:#222221;stroke-miterlimit:10}.cls-1{stroke-width:2px}.cls-2{stroke-width:1.2px}.cls-3{stroke-width:1.5px}</style></defs><circle class="cls-1" cx="92.13" cy="92.13" r="89.29"/><circle class="cls-1" cx="91.68" cy="92.13" r="47.53"/><circle class="cls-1" cx="92.13" cy="92.13" r="76.49"/><ellipse class="cls-2" cx="22.78" cy="92.13" rx="3.58" ry="5.96"/><ellipse class="cls-2" cx="161.47" cy="92.13" rx="3.58" ry="5.96"/><ellipse class="cls-3" cx="22.78" cy="92.13" rx="3.58" ry="5.96"/><ellipse class="cls-3" cx="161.47" cy="92.13" rx="3.58" ry="5.96"/><ellipse class="cls-1" cx="36.02" cy="51.37" rx="5.96" ry="3.58" transform="rotate(-54 36.024 51.37)"/><ellipse class="cls-1" cx="148.23" cy="132.89" rx="5.96" ry="3.58" transform="rotate(-54 148.229 132.892)"/><ellipse class="cls-1" cx="70.7" cy="26.17" rx="5.96" ry="3.58" transform="rotate(-18 70.704 26.181)"/><ellipse class="cls-1" cx="113.56" cy="158.08" rx="5.96" ry="3.58" transform="rotate(-18 113.564 158.076)"/><ellipse class="cls-1" cx="113.56" cy="26.17" rx="3.58" ry="5.96" transform="rotate(-72 113.552 26.174)"/><ellipse class="cls-1" cx="70.7" cy="158.08" rx="3.58" ry="5.96" transform="rotate(-72 70.7 158.08)"/><ellipse class="cls-1" cx="148.23" cy="51.37" rx="3.58" ry="5.96" transform="rotate(-36 148.235 51.363)"/><ellipse class="cls-1" cx="36.02" cy="132.89" rx="3.58" ry="5.96" transform="rotate(-36 36.018 132.887)"/><ellipse class="cls-2" cx="158.08" cy="70.7" rx="3.58" ry="5.96" transform="rotate(-18 158.081 70.699)"/><ellipse class="cls-2" cx="26.17" cy="113.56" rx="3.58" ry="5.96" transform="rotate(-18 26.186 113.559)"/><ellipse class="cls-3" cx="158.08" cy="70.7" rx="3.58" ry="5.96" transform="rotate(-18 158.081 70.699)"/><ellipse class="cls-3" cx="26.17" cy="113.56" rx="3.58" ry="5.96" transform="rotate(-18 26.186 113.559)"/><ellipse class="cls-2" cx="158.08" cy="113.56" rx="5.96" ry="3.58" transform="rotate(-72 158.08 113.559)"/><ellipse class="cls-2" cx="26.17" cy="70.7" rx="5.96" ry="3.58" transform="rotate(-72 26.172 70.695)"/><ellipse class="cls-3" cx="158.08" cy="113.56" rx="5.96" ry="3.58" transform="rotate(-72 158.08 113.559)"/><ellipse class="cls-3" cx="26.17" cy="70.7" rx="5.96" ry="3.58" transform="rotate(-72 26.172 70.695)"/><ellipse class="cls-1" cx="132.89" cy="148.23" rx="5.96" ry="3.58" transform="rotate(-36 132.889 148.233)"/><ellipse class="cls-1" cx="51.37" cy="36.02" rx="5.96" ry="3.58" transform="rotate(-36 51.365 36.016)"/><ellipse class="cls-1" cx="92.13" cy="161.47" rx="5.96" ry="3.58"/><ellipse class="cls-1" cx="92.13" cy="22.78" rx="5.96" ry="3.58"/><ellipse class="cls-1" cx="51.37" cy="148.23" rx="3.58" ry="5.96" transform="rotate(-54 51.366 148.234)"/><ellipse class="cls-1" cx="132.89" cy="36.02" rx="3.58" ry="5.96" transform="rotate(-54 132.888 36.03)"/><circle class="cls-1" cx="91.68" cy="92.13" r="33.61"/><path class="cls-1" d="M105.67 67.9H77.69L63.71 92.13l13.98 24.22h27.98l13.98-24.22-13.98-24.23z"/><path class="cls-1" d="M103.59 71.49H79.77L67.85 92.13l11.92 20.63h23.82l11.92-20.63-11.92-20.64z"/><path class="cls-1" d="M87.49 86.54h8.37v22.41h-8.37zm0-11.24h8.37v8.37h-8.37z"/><path d="M87.49 86.54h8.37v22.41h-8.37zm0-11.24h8.37v8.37h-8.37z" stroke-width=".5" fill="none" stroke="#222221" stroke-miterlimit="10"/></svg>