<svg id="Black" xmlns="http://www.w3.org/2000/svg" viewBox="0 0 184.25 184.25"><defs><style>.cls-1{fill:none;stroke:#000;stroke-miterlimit:10;stroke-width:2px}</style></defs><circle class="cls-1" cx="92.13" cy="92.13" r="89.29"/><path class="cls-1" d="M18.58 117.59h147.25l-.16-22.67H18.43l.15 22.67zM103.89 52c7 5.24 7 13.47 0 18.71-5.63 4.22-5.63 11.09 0 15.3M91.61 52c7 5.24 7 13.47 0 18.71C86 74.92 86 81.79 91.61 86M79.34 52c7 5.24 7 13.47 0 18.71-5.63 4.22-5.63 11.09 0 15.3m79.78 8.91l-13.4-23.22h-34.81m-39.69 0H38.53l-13.4 23.22"/><path class="cls-1" d="M80.79 60.1H35.43v17.01m113.39 0V60.1H114.8"/></svg>