<svg id="Black" xmlns="http://www.w3.org/2000/svg" viewBox="0 0 184.25 184.25"><defs><style>.cls-1{fill:none;stroke:#222221;stroke-miterlimit:10;stroke-width:2px}</style></defs><circle class="cls-1" cx="92.13" cy="92.13" r="89.29"/><path class="cls-1" d="M47.08 126.14l29.79-59.96m-21.76 67.11l59.24-28.06m9.1 3.83a21.64 21.64 0 0013.15 5.48 17.3 17.3 0 002.73 3.1 17.56 17.56 0 1023.39-26.21 17.94 17.94 0 00-3.39-2.36 21.72 21.72 0 00-15.9-17.26 33.1 33.1 0 00-37.75-36.21 21.69 21.69 0 00-17.37-9A17.56 17.56 0 1061 47.72 17.43 17.43 0 0066.51 51m43.26 23l-42.85 41.4"/><ellipse class="cls-1" cx="36.77" cy="141.71" rx="2.97" ry="8.54" transform="rotate(-45 36.777 141.707)"/><ellipse class="cls-1" cx="36.77" cy="141.71" rx="4.97" ry="14.28" transform="rotate(-45 36.777 141.707)"/></svg>