<svg xmlns="http://www.w3.org/2000/svg" viewBox="0 0 184.25 113.39"><defs><style>.cls-1{fill:#222221}.cls-3{fill:#fff}</style></defs><g id="Piano"><path class="cls-1" d="M177.8 7.59v95.35c0 1-1.34 2.86-3.8 2.86H10.25c-2.45 0-3.79-1.89-3.79-2.86V7.59H177.8m.5-.5H6v95.85c0 1.29 1.59 3.36 4.29 3.36H174c2.7 0 4.3-2.07 4.3-3.36V7.09z"/><path fill="none" stroke="#222221" stroke-linejoin="round" stroke-width=".25" d="M5.95 9.21H178.3"/></g><g id="Bruciatori_e_griglie" data-name="Bruciatori e griglie"><circle class="cls-1" cx="33.45" cy="38.13" r="6.38"/><path class="cls-1" d="M9.28 58V18.21h48.34V58zm43.31-3.68V21.89H14.3v32.47z"/><path class="cls-3" d="M57.54 18.28V58H9.35V18.28h48.19M14.23 54.44h38.44V21.81H14.23v32.63m43.46-36.31H9.2v40h48.49v-40zM14.38 22h38.14v32.29H14.38V22z"/><path class="cls-1" d="M46.62 38.66l-.07-.07v-.93l.07-.07h10.92l.08.07v.93l-.08.07H46.62z"/><path class="cls-3" d="M57.54 37.66v.93H46.62v-.93h10.92m0-.15H46.62l-.15.15v.93l.15.15h10.92l.15-.15v-.93l-.15-.15z"/><path class="cls-1" d="M9.36 38.66l-.08-.07v-.93l.08-.07h10.92l.07.07v.93l-.07.07H9.36z"/><path class="cls-3" d="M20.28 37.66v.93H9.35v-.93h10.93m0-.15H9.35l-.15.15v.93l.15.15h10.93l.15-.15v-.93l-.15-.15z"/><path class="cls-1" d="M27.14 32.86c-.07-.07-7.14-6.86-7.59-7.27a3.46 3.46 0 01-.79-2v-5.31l.08-.07h.92l.08.07v5.34A2.09 2.09 0 0020.4 25l7.47 7.13v.1l-.63.67z"/><path class="cls-3" d="M19.76 18.28v5.34a2.09 2.09 0 00.59 1.38l7.47 7.13-.63.67s-7.14-6.8-7.59-7.27a3.31 3.31 0 01-.76-1.91v-5.34h.92m0-.15h-.92l-.15.15v5.34a3.45 3.45 0 00.81 2c.44.41 7.51 7.2 7.58 7.27h.22l.63-.68V32l-7.47-7.13a2 2 0 01-.54-1.28v-5.31l-.15-.15z"/><path class="cls-1" d="M39.65 32.85l-.65-.67v-.1L46.5 25a2.1 2.1 0 00.56-1.34v-5.38l.08-.07h.92l.08.07v5.34a3.53 3.53 0 01-.79 2c-.45.41-7.52 7.2-7.59 7.27z"/><path class="cls-3" d="M48.06 18.28v5.34a3.25 3.25 0 01-.77 1.91c-.45.42-7.58 7.27-7.58 7.27l-.63-.67L46.55 25a2.09 2.09 0 00.59-1.38v-5.34h.92m0-.15h-.92l-.15.15v5.34a2 2 0 01-.54 1.27L39 32v.21l.63.68h.21c.07-.07 7.14-6.86 7.59-7.27a3.44 3.44 0 00.81-2v-5.34l-.15-.15z"/><path class="cls-1" d="M47.14 58h-.08v-5.37a2.09 2.09 0 00-.56-1.33L39 44.17v-.1l.63-.67h.11c.07.07 7.14 6.86 7.59 7.28a3.48 3.48 0 01.79 2V58l-.08.07z"/><path class="cls-3" d="M39.71 43.45s7.13 6.85 7.58 7.27a3.28 3.28 0 01.77 1.91V58h-.92v-5.37a2.12 2.12 0 00-.59-1.38l-7.47-7.13.63-.67m.1-.11h-.21L39 44v.21l7.47 7.13a2 2 0 01.53 1.3V58l.15.15h.92l.15-.15v-5.37a3.45 3.45 0 00-.81-2c-.45-.41-7.52-7.2-7.59-7.27z"/><path class="cls-1" d="M18.84 58h-.08v-5.37a3.43 3.43 0 01.79-2c.45-.42 7.52-7.21 7.59-7.28h.1l.63.67v.1L20.4 51.3a2.1 2.1 0 00-.56 1.34V58l-.08.07z"/><path class="cls-3" d="M27.19 43.45l.63.67-7.47 7.13a2.12 2.12 0 00-.59 1.38V58h-.92v-5.37a3.33 3.33 0 01.76-1.91c.45-.42 7.59-7.27 7.59-7.27m-.11-.11c-.07.07-7.14 6.86-7.58 7.27a3.44 3.44 0 00-.81 2V58l.15.15h.92l.15-.15v-5.37a2 2 0 01.54-1.27l7.47-7.13V44l-.63-.67z"/><path class="cls-1" d="M32.99 24.7l-.08-.07v-6.35l.08-.07h.92l.08.07v6.35l-.08.07h-.92z"/><path class="cls-3" d="M33.91 18.28v6.35H33v-6.35h.92m0-.15H33l-.15.15v6.35l.15.15h.92l.15-.15v-6.35l-.15-.15z"/><path class="cls-1" d="M32.99 58.04l-.08-.07v-6.34l.08-.08h.92l.08.08v6.34l-.08.07h-.92z"/><path class="cls-3" d="M33.91 51.63V58H33v-6.37h.92m0-.15H33l-.15.15V58l.15.15h.92l.15-.15v-6.37l-.15-.15z"/><circle class="cls-1" cx="109.7" cy="38.13" r="6.38"/><path class="cls-1" d="M85.53 58V18.21h48.34V58zm43.31-3.68V21.89H90.56v32.47z"/><path class="cls-3" d="M133.8 18.28V58H85.61V18.28h48.19M90.48 54.44h38.44V21.81H90.48v32.63M134 18.13H85.46v40H134v-40zM90.63 22h38.14v32.29H90.63V22z"/><path class="cls-1" d="M122.87 38.66l-.07-.07v-.93l.07-.07h10.92l.08.07v.93l-.08.07h-10.92z"/><path class="cls-3" d="M133.8 37.66v.93h-10.93v-.93h10.93m0-.15h-10.93l-.15.15v.93l.15.15h10.93l.15-.15v-.93l-.15-.15z"/><path class="cls-1" d="M85.61 38.66l-.08-.07v-.93l.08-.07h10.92l.07.07v.93l-.07.07H85.61z"/><path class="cls-3" d="M96.53 37.66v.93H85.61v-.93h10.92m0-.15H85.61l-.15.15v.93l.15.15h10.92l.15-.15v-.93l-.15-.15z"/><path class="cls-1" d="M103.39 32.86c-.07-.07-7.14-6.86-7.59-7.27a3.53 3.53 0 01-.79-2v-5.31l.08-.07H96l.08.07v5.34a2.09 2.09 0 00.57 1.38l7.47 7.13v.1l-.63.67z"/><path class="cls-3" d="M96 18.28v5.34a2.09 2.09 0 00.6 1.38l7.47 7.13-.63.67-7.58-7.27a3.25 3.25 0 01-.77-1.91v-5.34H96m0-.15h-.92l-.15.15v5.34a3.45 3.45 0 00.81 2c.45.41 7.52 7.2 7.59 7.27h.21l.63-.68V32l-7.47-7.11a2 2 0 01-.54-1.28v-5.33l-.16-.15z"/><path class="cls-1" d="M115.91 32.85l-.63-.67v-.1l7.47-7.08a2.1 2.1 0 00.56-1.34v-5.38l.08-.07h.92l.08.07v5.34a3.46 3.46 0 01-.79 2c-.45.41-7.52 7.2-7.59 7.27z"/><path class="cls-3" d="M124.31 18.28v5.34a3.31 3.31 0 01-.76 1.91C123.1 26 116 32.8 116 32.8l-.63-.67L122.8 25a2.09 2.09 0 00.59-1.38v-5.34h.92m0-.15h-.92l-.15.15v5.34a2 2 0 01-.54 1.28c-.26.23-7.4 7.05-7.47 7.12v.21l.63.68h.22c.07-.07 7.14-6.86 7.58-7.27a3.44 3.44 0 00.81-2v-5.36l-.15-.15z"/><path class="cls-1" d="M123.39 58l-.08-.07v-5.3a2.09 2.09 0 00-.56-1.33l-7.47-7.13v-.1l.63-.67h.1c.07.07 7.14 6.86 7.59 7.28a3.41 3.41 0 01.79 2V58l-.08.07z"/><path class="cls-3" d="M116 43.45s7.14 6.85 7.59 7.27a3.33 3.33 0 01.76 1.91V58h-.92v-5.37a2.12 2.12 0 00-.59-1.38l-7.47-7.13.63-.67m.11-.11h-.22l-.63.67v.21l7.47 7.13a2 2 0 01.54 1.28V58l.15.15h.92l.15-.15v-5.37a3.45 3.45 0 00-.81-2c-.44-.41-7.51-7.2-7.58-7.27z"/><path class="cls-1" d="M95.09 58H95v-5.37a3.51 3.51 0 01.79-2c.45-.42 7.52-7.21 7.59-7.28h.11l.63.67v.1l-7.47 7.18a2.1 2.1 0 00-.56 1.34V58H96z"/><path class="cls-3" d="M103.44 43.45l.63.67-7.47 7.13a2.12 2.12 0 00-.6 1.38V58h-.92v-5.37a3.28 3.28 0 01.77-1.91l7.58-7.27m-.1-.11c-.07.07-7.14 6.86-7.59 7.27a3.44 3.44 0 00-.81 2V58l.15.15H96l.15-.15v-5.37a2 2 0 01.54-1.27l7.47-7.13V44l-.63-.67z"/><path class="cls-1" d="M109.24 24.7l-.08-.07v-6.35l.08-.07h.92l.08.07v6.35l-.08.07h-.92z"/><path class="cls-3" d="M110.16 18.28v6.35h-.92v-6.35h.92m0-.15h-.92l-.15.15v6.35l.15.15h.92l.15-.15v-6.35l-.15-.15z"/><path class="cls-1" d="M109.24 58.04l-.08-.07v-6.34l.08-.08h.92l.08.08v6.34l-.08.07h-.92z"/><path class="cls-3" d="M110.16 51.63V58h-.92v-6.37h.92m0-.15h-.92l-.15.15V58l.15.15h.92l.15-.15v-6.37l-.15-.15z"/><circle class="cls-1" cx="109.7" cy="78.52" r="4.25"/><path class="cls-1" d="M85.53 98.44V58.6h48.34v39.84zm43.31-3.68V62.28H90.56v32.48z"/><path class="cls-3" d="M133.8 58.68v39.68H85.61V58.68h48.19M90.48 94.83h38.44V62.21H90.48v32.62M134 58.53H85.46v40H134v-40zm-43.37 3.83h38.14v32.32H90.63V62.36z"/><path class="cls-1" d="M122.87 79.06l-.07-.08v-.92l.07-.08h10.92l.08.08v.92l-.08.08h-10.92z"/><path class="cls-3" d="M133.8 78.06V79h-10.93v-.92h10.93m0-.15h-10.93l-.15.15V79l.15.15h10.93l.2-.15v-.92l-.15-.15z"/><path class="cls-1" d="M85.61 79.06l-.08-.08v-.92l.08-.08h10.92l.07.08v.92l-.07.08H85.61z"/><path class="cls-3" d="M96.53 78.06V79H85.61v-.92h10.92m0-.15H85.61l-.15.15V79l.15.15h10.92l.15-.15v-.92l-.15-.15z"/><path class="cls-1" d="M103.39 73.25c-.07-.07-7.14-6.86-7.59-7.27A3.51 3.51 0 0195 64v-5.32l.08-.08H96l.08.08V64a2.09 2.09 0 00.56 1.33l7.47 7.13v.11l-.63.67z"/><path class="cls-3" d="M96 58.68V64a2.12 2.12 0 00.59 1.39l7.47 7.13-.63.67-7.58-7.28a3.25 3.25 0 01-.76-1.91v-5.32H96m0-.15h-.92l-.15.15V64a3.45 3.45 0 00.81 2c.45.42 7.52 7.21 7.59 7.28h.21l.63-.67v-.21l-7.47-7.11a2 2 0 01-.54-1.29v-5.32l-.16-.15z"/><path class="cls-1" d="M115.91 73.25l-.63-.67v-.11l7.47-7.13a2.07 2.07 0 00.56-1.33v-5.33l.08-.08h.92l.08.08V64a3.44 3.44 0 01-.79 2c-.45.41-7.52 7.2-7.59 7.27z"/><path class="cls-3" d="M124.31 58.68V64a3.31 3.31 0 01-.76 1.91c-.45.42-7.59 7.28-7.59 7.28l-.63-.67 7.47-7.13a2.12 2.12 0 00.59-1.39v-5.32h.92m0-.15h-.92l-.15.15V64a2 2 0 01-.54 1.28l-7.47 7.13v.21l.63.67h.22l7.57-7.29a3.44 3.44 0 00.81-2v-5.32l-.15-.15z"/><path class="cls-1" d="M123.39 98.44l-.08-.08V93a2.07 2.07 0 00-.56-1.33l-7.47-7.13v-.11l.63-.67h.1c.07.07 7.14 6.86 7.59 7.27a3.43 3.43 0 01.79 2v5.34l-.08.08z"/><path class="cls-3" d="M116 83.84s7.14 6.86 7.59 7.28a3.31 3.31 0 01.76 1.91v5.33h-.92V93a2.12 2.12 0 00-.59-1.39l-7.47-7.13.63-.67m.11-.11h-.22l-.63.67v.21l7.47 7.13a2 2 0 01.54 1.29v5.32l.15.15h.92l.15-.15V93a3.45 3.45 0 00-.81-2l-7.58-7.28z"/><path class="cls-1" d="M95.09 98.44l-.09-.08V93a3.51 3.51 0 01.79-2c.45-.41 7.52-7.2 7.59-7.27h.11l.63.67v.11l-7.47 7.19a2.07 2.07 0 00-.56 1.3v5.33l-.08.08z"/><path class="cls-3" d="M103.44 83.84l.63.67-7.47 7.13A2.12 2.12 0 0096 93v5.33h-.92V93a3.25 3.25 0 01.77-1.91l7.58-7.28m-.1-.11c-.07.07-7.14 6.86-7.59 7.28a3.44 3.44 0 00-.81 2v5.34l.15.15H96l.15-.15V93a2 2 0 01.54-1.28l7.47-7.13v-.21l-.63-.67z"/><path class="cls-1" d="M109.24 65.1l-.08-.08v-6.34l.08-.08h.92l.08.08v6.34l-.08.08h-.92z"/><path class="cls-3" d="M110.16 58.68V65h-.92v-6.32h.92m0-.15h-.92l-.15.15V65l.15.15h.92l.15-.15v-6.32l-.15-.15z"/><path class="cls-1" d="M109.24 98.44l-.08-.08v-6.34l.08-.08h.92l.08.08v6.34l-.08.08h-.92z"/><path class="cls-3" d="M110.16 92v6.34h-.92V92h.92m0-.15h-.92l-.15.15v6.34l.15.15h.92l.15-.15V92l-.15-.15z"/><path class="cls-1" d="M33.45 70a8.5 8.5 0 108.5 8.5 8.5 8.5 0 00-8.5-8.5zm0 13.18a4.68 4.68 0 114.68-4.68 4.69 4.69 0 01-4.68 4.7zm0-1.49a3.19 3.19 0 113.19-3.19 3.19 3.19 0 01-3.19 3.21z"/><path class="cls-1" d="M9.28 98.44V58.6h48.34v39.84zm43.31-3.68V62.28H14.3v32.48z"/><path class="cls-3" d="M57.54 58.68v39.68H9.35V58.68h48.19M14.23 94.83h38.44V62.21H14.23v32.62m43.46-36.3H9.2v40h48.49v-40zm-43.31 3.83h38.14v32.32H14.38V62.36z"/><path class="cls-1" d="M46.62 79.06l-.07-.08v-.92l.07-.08h10.92l.08.08v.92l-.08.08H46.62z"/><path class="cls-3" d="M57.54 78.06V79H46.62v-.92h10.92m0-.15H46.62l-.15.15V79l.15.15h10.92l.15-.15v-.92l-.15-.15z"/><path class="cls-1" d="M9.36 79.06l-.08-.08v-.92l.08-.08h10.92l.07.08v.92l-.07.08H9.36z"/><path class="cls-3" d="M20.28 78.06V79H9.35v-.92h10.93m0-.15H9.35l-.15.15V79l.15.15h10.93l.15-.15v-.92l-.15-.15z"/><path class="cls-1" d="M27.14 73.25c-.07-.07-7.14-6.86-7.59-7.27a3.43 3.43 0 01-.79-2v-5.3l.08-.08h.92l.08.08V64a2.09 2.09 0 00.56 1.33l7.47 7.13v.11l-.63.67z"/><path class="cls-3" d="M19.76 58.68V64a2.12 2.12 0 00.59 1.39l7.47 7.13-.63.67s-7.14-6.86-7.59-7.28a3.31 3.31 0 01-.76-1.91v-5.32h.92m0-.15h-.92l-.15.15V64a3.45 3.45 0 00.81 2l7.58 7.28h.22l.63-.67v-.21l-7.47-7.13a2 2 0 01-.55-1.27v-5.32l-.15-.15z"/><path class="cls-1" d="M39.65 73.25l-.65-.67v-.11l7.47-7.13a2.07 2.07 0 00.59-1.34v-5.32l.08-.08h.92l.08.08V64a3.51 3.51 0 01-.79 2c-.45.41-7.52 7.2-7.59 7.27z"/><path class="cls-3" d="M48.06 58.68V64a3.25 3.25 0 01-.77 1.91c-.45.42-7.58 7.28-7.58 7.28l-.63-.67 7.47-7.13a2.12 2.12 0 00.59-1.39v-5.32h.92m0-.15h-.92l-.15.15V64a2 2 0 01-.54 1.28L39 72.42v.21l.63.67h.21c.07-.07 7.14-6.86 7.59-7.28a3.44 3.44 0 00.81-2v-5.34l-.15-.15z"/><path class="cls-1" d="M47.14 98.44l-.08-.08V93a2.07 2.07 0 00-.56-1.33l-7.5-7.1v-.11l.63-.67h.11c.07.07 7.14 6.86 7.59 7.27a3.51 3.51 0 01.79 2v5.34l-.08.08z"/><path class="cls-3" d="M39.71 83.84s7.13 6.86 7.58 7.28a3.25 3.25 0 01.77 1.88v5.33h-.92V93a2.12 2.12 0 00-.59-1.39l-7.47-7.13.63-.67m.1-.11h-.21l-.63.67v.21l7.47 7.13A2 2 0 0147 93v5.32l.15.15h.92l.15-.15V93a3.45 3.45 0 00-.81-2c-.45-.42-7.52-7.21-7.59-7.28z"/><path class="cls-1" d="M18.84 98.44l-.08-.08V93a3.44 3.44 0 01.79-2c.45-.41 7.52-7.2 7.59-7.27h.1l.63.67v.11L20.4 91.7a2.07 2.07 0 00-.56 1.3v5.33l-.08.08z"/><path class="cls-3" d="M27.19 83.84l.63.67-7.47 7.13a2.12 2.12 0 00-.59 1.36v5.33h-.92V93a3.31 3.31 0 01.76-1.91c.45-.42 7.59-7.28 7.59-7.28m-.11-.11L19.5 91a3.44 3.44 0 00-.81 2v5.34l.15.15h.92l.15-.15V93a2 2 0 01.54-1.28l7.47-7.13v-.21l-.63-.67z"/><path class="cls-1" d="M32.99 65.1l-.08-.08v-6.34l.08-.08h.92l.08.08v6.34l-.08.08h-.92z"/><path class="cls-3" d="M33.91 58.68V65H33v-6.32h.92m0-.15H33l-.15.15V65l.15.15h.92l.15-.15v-6.32l-.15-.15z"/><path class="cls-1" d="M32.99 98.44l-.08-.08v-6.34l.08-.08h.92l.08.08v6.34l-.08.08h-.92z"/><path class="cls-3" d="M33.91 92v6.34H33V92h.92m0-.15H33l-.15.15v6.34l.15.15h.92l.15-.15V92l-.15-.15z"/><circle class="cls-1" cx="154.63" cy="38.13" r="6.38"/><path class="cls-1" d="M134.43 58V18.21h40.4V58zm36.72-3.68V21.89h-33v32.47z"/><path class="cls-3" d="M174.76 18.28V58H134.5V18.28h40.26M138 54.44h33.2V21.81H138v32.63m36.88-36.31h-40.53v40h40.56v-40zM138.18 22h32.9v32.29h-32.9V22z"/><path class="cls-1" d="M148.32 32.86c-.07-.07-7.14-6.86-7.59-7.27a3.46 3.46 0 01-.79-2v-5.31l.08-.07h.92l.08.07v5.34a2.09 2.09 0 00.56 1.33l7.47 7.13v.1l-.63.67z"/><path class="cls-3" d="M140.94 18.28v5.34a2.09 2.09 0 00.59 1.38l7.47 7.13-.63.67s-7.14-6.85-7.59-7.27a3.31 3.31 0 01-.76-1.91v-5.34h.92m0-.15H140l-.15.15v5.34a3.45 3.45 0 00.81 2c.45.41 7.51 7.2 7.59 7.27h.21l.63-.68V32l-7.47-7.13a2 2 0 01-.54-1.28v-5.31l-.15-.15z"/><path class="cls-1" d="M160.84 32.85l-.63-.67v-.1l7.47-7.08a2.1 2.1 0 00.56-1.34v-5.38l.08-.07h.92l.08.07v5.34a3.46 3.46 0 01-.79 2c-.45.41-7.52 7.2-7.59 7.27z"/><path class="cls-3" d="M169.24 18.28v5.34a3.31 3.31 0 01-.76 1.91c-.45.42-7.59 7.27-7.59 7.27l-.63-.67 7.47-7.13a2.09 2.09 0 00.59-1.38v-5.34h.92m0-.15h-.92l-.15.15v5.34a2 2 0 01-.54 1.27L160.16 32v.21l.63.68h.21c.08-.07 7.14-6.86 7.59-7.27a3.44 3.44 0 00.81-2v-5.34l-.15-.15z"/><path class="cls-1" d="M168.32 58l-.08-.07v-5.3a2.09 2.09 0 00-.56-1.33l-7.47-7.13v-.1l.63-.67h.1c.07.07 7.14 6.86 7.59 7.28a3.43 3.43 0 01.79 2V58l-.08.07z"/><path class="cls-3" d="M160.89 43.45s7.14 6.85 7.59 7.27a3.33 3.33 0 01.76 1.91V58h-.92v-5.37a2.12 2.12 0 00-.59-1.38l-7.47-7.13.63-.67m.1-.11h-.21l-.63.67v.21l7.47 7.13a2 2 0 01.54 1.28V58l.15.15h.92l.15-.15v-5.37a3.45 3.45 0 00-.81-2c-.45-.41-7.51-7.2-7.59-7.27z"/><path class="cls-1" d="M140 58l-.08-.07v-5.3a3.41 3.41 0 01.79-2c.45-.42 7.52-7.21 7.59-7.28h.1l.63.67v.1l-7.47 7.13a2.1 2.1 0 00-.56 1.34V58l-.08.07z"/><path class="cls-3" d="M148.37 43.45l.63.67-7.47 7.13a2.12 2.12 0 00-.59 1.38V58H140v-5.37a3.33 3.33 0 01.76-1.91c.45-.42 7.59-7.27 7.59-7.27m-.1-.11c-.08.07-7.14 6.86-7.59 7.27a3.44 3.44 0 00-.81 2V58l.15.15h.92l.15-.15v-5.37a2 2 0 01.54-1.27l7.47-7.13V44l-.63-.67z"/><path class="cls-1" d="M154.17 24.7l-.08-.07v-6.35l.08-.07h.92l.08.07v6.35l-.08.07h-.92z"/><path class="cls-3" d="M155.09 18.28v6.35h-.92v-6.35h.92m0-.15h-.92l-.15.15v6.35l.15.15h.92l.15-.15v-6.35l-.15-.15z"/><path class="cls-1" d="M154.17 58.04l-.08-.07v-6.34l.08-.08h.92l.08.08v6.34l-.08.07h-.92z"/><path class="cls-3" d="M155.09 51.63V58h-.92v-6.37h.92m0-.15h-.92l-.15.15V58l.15.15h.92l.15-.15v-6.37l-.15-.15z"/><path class="cls-1" d="M165.05 38.66l-.07-.07v-.93l.07-.07h9.71l.07.07v.93l-.07.07h-9.71z"/><path class="cls-3" d="M174.76 37.66v.93h-9.71v-.93h9.71m0-.15h-9.71l-.15.15v.93l.15.15h9.71l.15-.15v-.93l-.15-.15z"/><path class="cls-1" d="M134.5 38.66l-.07-.07v-.93l.07-.07h9.71l.07.07v.93l-.07.07h-9.71z"/><path class="cls-3" d="M144.21 37.66v.93h-9.71v-.93h9.71m0-.15h-9.71l-.15.15v.93l.15.15h9.71l.15-.15v-.93l-.15-.15z"/><path class="cls-1" d="M154.63 70a8.5 8.5 0 108.5 8.5 8.49 8.49 0 00-8.5-8.5zm0 13.18a4.68 4.68 0 114.68-4.68 4.69 4.69 0 01-4.68 4.7zm0-1.49a3.19 3.19 0 113.19-3.19 3.19 3.19 0 01-3.19 3.21z"/><path class="cls-1" d="M134.43 98.44V58.6h40.4v39.84zm36.72-3.68V62.28h-33v32.48z"/><path class="cls-3" d="M174.76 58.68v39.68H134.5V58.68h40.26M138 94.83h33.2V62.21H138v32.62m36.88-36.3h-40.53v40h40.56v-40zm-36.73 3.83h32.9v32.32h-32.9V62.36z"/><path class="cls-1" d="M148.32 73.25c-.07-.07-7.14-6.86-7.59-7.27a3.43 3.43 0 01-.79-2v-5.3l.08-.08h.92l.08.08V64a2.09 2.09 0 00.56 1.33l7.47 7.13v.11l-.63.67z"/><path class="cls-3" d="M140.94 58.68V64a2.12 2.12 0 00.59 1.39l7.47 7.14-.63.67s-7.14-6.86-7.59-7.28A3.31 3.31 0 01140 64v-5.32h.92m0-.15H140l-.15.15V64a3.45 3.45 0 00.81 2c.45.42 7.51 7.21 7.59 7.28h.21l.63-.67v-.21l-7.47-7.13a2 2 0 01-.54-1.29v-5.3l-.15-.15z"/><path class="cls-1" d="M160.84 73.25l-.63-.67v-.11l7.47-7.13a2.09 2.09 0 00.56-1.33v-5.33l.08-.08h.92l.08.08V64a3.44 3.44 0 01-.79 2c-.45.41-7.52 7.2-7.59 7.27z"/><path class="cls-3" d="M169.24 58.68V64a3.31 3.31 0 01-.76 1.91c-.45.42-7.59 7.28-7.59 7.28l-.63-.67 7.47-7.13a2.12 2.12 0 00.59-1.39v-5.32h.92m0-.15h-.92l-.15.15V64a2 2 0 01-.54 1.28l-7.47 7.13v.21l.63.67h.21c.08-.07 7.14-6.86 7.59-7.28a3.44 3.44 0 00.81-2v-5.33l-.15-.15z"/><path class="cls-1" d="M168.32 98.44l-.08-.08V93a2.07 2.07 0 00-.56-1.33l-7.47-7.13v-.11l.63-.67h.1c.07.07 7.14 6.86 7.59 7.27a3.43 3.43 0 01.79 2v5.34l-.08.08z"/><path class="cls-3" d="M160.89 83.84s7.14 6.86 7.59 7.28a3.31 3.31 0 01.76 1.91v5.33h-.92V93a2.12 2.12 0 00-.59-1.39l-7.47-7.13.63-.67m.1-.11h-.21l-.63.67v.21l7.47 7.13a2 2 0 01.54 1.29v5.32l.15.15h.92l.15-.15V93a3.45 3.45 0 00-.81-2c-.45-.42-7.51-7.21-7.59-7.28z"/><path class="cls-1" d="M140 98.44l-.08-.08V93a3.44 3.44 0 01.79-2c.45-.41 7.52-7.2 7.59-7.27h.1l.63.67v.11l-7.47 7.13A2.09 2.09 0 00141 93v5.33l-.08.08z"/><path class="cls-3" d="M148.37 83.84l.63.67-7.47 7.13a2.12 2.12 0 00-.59 1.39v5.33H140V93a3.31 3.31 0 01.76-1.91c.45-.42 7.59-7.28 7.59-7.28m-.1-.11c-.08.07-7.14 6.86-7.59 7.28a3.44 3.44 0 00-.81 2v5.34l.15.15h.92l.15-.15V93a2 2 0 01.54-1.28l7.47-7.13v-.21l-.63-.67z"/><path class="cls-1" d="M154.17 65.1l-.08-.08v-6.34l.08-.08h.92l.08.08v6.34l-.08.08h-.92z"/><path class="cls-3" d="M155.09 58.68V65h-.92v-6.32h.92m0-.15h-.92l-.15.15V65l.15.15h.92l.15-.15v-6.32l-.15-.15z"/><path class="cls-1" d="M154.17 98.44l-.08-.08v-6.34l.08-.08h.92l.08.08v6.34l-.08.08h-.92z"/><path class="cls-3" d="M155.09 92v6.34h-.92V92h.92m0-.15h-.92L154 92v6.34l.15.15h.92l.15-.15V92l-.15-.15z"/><path class="cls-1" d="M165.05 79.06l-.07-.08v-.92l.07-.08h9.71l.07.08v.92l-.07.08h-9.71z"/><path class="cls-3" d="M174.76 78.06V79h-9.71v-.92h9.71m0-.15h-9.71l-.15.15V79l.15.15h9.71l.15-.15v-.92l-.15-.15z"/><path class="cls-1" d="M134.5 79.06l-.07-.08v-.92l.07-.08h9.71l.07.08v.92l-.07.08h-9.71z"/><path class="cls-3" d="M144.21 78.06V79h-9.71v-.92h9.71m0-.15h-9.71l-.15.15V79l.15.15h9.71l.15-.15v-.92l-.15-.15z"/><rect class="cls-1" x="67.79" y="42.02" width="7.57" height="32.6" rx="3.78"/><path class="cls-1" d="M58.39 98.44V18.21h26.37v80.23zm22.82-3.68V21.89H61.94v72.87z"/><path class="cls-3" d="M84.69 18.28v80.08H58.46V18.28h26.23M61.87 94.83h19.41v-73H61.87v73m23-76.7H58.31v80.38h26.53V18.13zM62 22h19.13v72.68H62V22z"/><path class="cls-1" d="M58.46 58.86l-.07-.08v-.92l.07-.08h7.66l.07.08v.92l-.07.08h-7.66z"/><path class="cls-3" d="M66.12 57.86v.92h-7.66v-.92h7.66m0-.15h-7.66l-.15.15v.92l.15.15h7.66l.15-.15v-.92l-.15-.15z"/><path class="cls-1" d="M58.46 78.69l-.07-.07v-.93l.07-.07h7.66l.07.07v.93l-.07.07h-7.66z"/><path class="cls-3" d="M66.12 77.69v.93h-7.66v-.93h7.66m0-.15h-7.66l-.15.15v.93l.15.15h7.66l.15-.15v-.93l-.15-.15z"/><path class="cls-1" d="M77.03 58.86l-.07-.08v-.92l.07-.08h7.66l.07.08v.92l-.07.08h-7.66z"/><path class="cls-3" d="M84.69 57.86v.92H77v-.92h7.66m0-.15H77l-.15.15v.92l.15.15h7.66l.15-.15v-.92l-.15-.15z"/><path class="cls-1" d="M77.03 78.69l-.07-.07v-.93l.07-.07h7.66l.07.07v.93l-.07.07h-7.66z"/><path class="cls-3" d="M84.69 77.69v.93H77v-.93h7.66m0-.15H77l-.15.15v.93l.15.15h7.66l.15-.15v-.93l-.15-.15z"/><path class="cls-1" d="M58.46 39.03l-.07-.08v-.92l.07-.08h7.66l.07.08v.92l-.07.08h-7.66z"/><path class="cls-3" d="M66.12 38v1h-7.66v-1h7.66m0-.15h-7.66l-.15.15v1l.15.15h7.66l.15-.15v-1l-.15-.15z"/><path class="cls-1" d="M58.46 29.06l-.07-.07v-.93l.07-.07h26.23l.07.07v.93l-.07.07H58.46z"/><path class="cls-3" d="M84.69 28.06V29H58.46v-.93h26.23m0-.15H58.46l-.15.15V29l.15.15h26.23l.15-.15v-.93l-.15-.15z"/><path class="cls-1" d="M58.46 88.66l-.07-.08v-.92l.07-.08h26.23l.07.08v.92l-.07.08H58.46z"/><path class="cls-3" d="M84.69 87.66v.92H58.46v-.92h26.23m0-.15H58.46l-.15.15v.92l.15.15h26.23l.15-.15v-.92l-.15-.15z"/><path class="cls-1" d="M77.03 39.03l-.07-.08v-.92l.07-.08h7.66l.07.08v.92l-.07.08h-7.66z"/><path class="cls-3" d="M84.69 38v1H77v-1h7.66m0-.15H77l-.15.15v1l.15.15h7.66l.15-.15v-1l-.15-.15z"/></g></svg>