<svg xmlns="http://www.w3.org/2000/svg" viewBox="0 0 184.25 113.39"><defs><style>.cls-1{fill:#222221}.cls-3{fill:#fff}</style></defs><g id="Piano"><path class="cls-1" d="M177.8 7.59v95.35c0 1-1.34 2.86-3.8 2.86H10.25c-2.45 0-3.79-1.89-3.79-2.86V7.59H177.8m.5-.5H6v95.85c0 1.29 1.59 3.36 4.29 3.36H174c2.7 0 4.3-2.07 4.3-3.36V7.09z"/><path fill="none" stroke="#222221" stroke-linejoin="round" stroke-width=".25" d="M5.95 9.21H178.3"/></g><g id="Bruciatori_e_griglie" data-name="Bruciatori e griglie"><circle class="cls-1" cx="153.92" cy="38.13" r="6.38"/><path class="cls-1" d="M133.72 58V18.21h40.4V58zm36.72-3.68V21.89h-33v32.47z"/><path class="cls-3" d="M174.05 18.28V58H133.8V18.28h40.25m-36.73 36.16h33.2V21.81h-33.2v32.63m36.88-36.31h-40.55v40h40.55v-40zM137.47 22h32.9v32.29h-32.9V22z"/><path class="cls-1" d="M147.61 32.86c-.07-.07-7.14-6.86-7.59-7.28a3.48 3.48 0 01-.79-2v-5.3l.08-.07h.92l.08.07v5.34a2.09 2.09 0 00.56 1.33l7.47 7.13v.1l-.63.67z"/><path class="cls-3" d="M140.23 18.28v5.34a2.09 2.09 0 00.59 1.38l7.47 7.13-.63.67s-7.13-6.85-7.58-7.27a3.25 3.25 0 01-.77-1.91v-5.34h.92m0-.15h-.92l-.15.15v5.34a3.45 3.45 0 00.81 2c.45.41 7.52 7.2 7.59 7.27h.21l.63-.68V32l-7.47-7.13a2 2 0 01-.54-1.28v-5.31l-.15-.15z"/><path class="cls-1" d="M160.13 32.85l-.63-.67v-.1L167 25a2 2 0 00.56-1.34v-5.38l.08-.07h.92l.08.07v5.34a3.41 3.41 0 01-.79 2c-.45.42-7.52 7.21-7.59 7.28z"/><path class="cls-3" d="M168.53 18.28v5.34a3.31 3.31 0 01-.76 1.91c-.45.42-7.59 7.27-7.59 7.27l-.63-.67L167 25a2.09 2.09 0 00.59-1.38v-5.34h.92m0-.15h-.92l-.15.15v5.34a2 2 0 01-.54 1.27L159.45 32v.21l.63.68h.22c.07-.07 7.14-6.86 7.58-7.27a3.44 3.44 0 00.81-2v-5.34l-.15-.15z"/><path class="cls-1" d="M167.61 58l-.08-.07v-5.3a2 2 0 00-.53-1.33l-7.47-7.13v-.1l.63-.67h.1c.07.07 7.14 6.86 7.59 7.28a3.43 3.43 0 01.79 2V58l-.08.07z"/><path class="cls-3" d="M160.18 43.45s7.14 6.85 7.59 7.27a3.33 3.33 0 01.76 1.91V58h-.92v-5.37a2.12 2.12 0 00-.59-1.38l-7.47-7.13.63-.67m.11-.11h-.22l-.63.67v.21l7.47 7.13a2 2 0 01.54 1.28V58l.15.15h.92l.15-.15v-5.37a3.45 3.45 0 00-.81-2c-.44-.41-7.51-7.2-7.58-7.27z"/><path class="cls-1" d="M139.31 58l-.08-.07v-5.3a3.51 3.51 0 01.79-2c.45-.42 7.52-7.21 7.59-7.28h.11l.63.67v.1l-7.47 7.13a2.1 2.1 0 00-.56 1.34V58l-.08.07z"/><path class="cls-3" d="M147.66 43.45l.63.67-7.47 7.13a2.12 2.12 0 00-.59 1.38V58h-.92v-5.37a3.28 3.28 0 01.77-1.91c.45-.42 7.58-7.27 7.58-7.27m-.1-.11c-.07.07-7.14 6.86-7.59 7.27a3.44 3.44 0 00-.81 2V58l.15.15h.92l.15-.15v-5.37a2 2 0 01.54-1.27l7.47-7.13V44l-.63-.67z"/><path class="cls-1" d="M153.46 24.7l-.08-.07v-6.35l.08-.07h.92l.08.07v6.35l-.08.07h-.92z"/><path class="cls-3" d="M154.38 18.28v6.35h-.92v-6.35h.92m0-.15h-.92l-.15.15v6.35l.15.15h.92l.15-.15v-6.35l-.15-.15z"/><path class="cls-1" d="M153.46 58.04l-.08-.07v-6.34l.08-.08h.92l.08.08v6.34l-.08.07h-.92z"/><path class="cls-3" d="M154.38 51.63V58h-.92v-6.37h.92m0-.15h-.92l-.15.15V58l.15.15h.92l.15-.15v-6.37l-.15-.15z"/><path class="cls-1" d="M164.34 38.66l-.07-.07v-.93l.07-.07h9.71l.07.07v.93l-.07.07h-9.71z"/><path class="cls-3" d="M174.05 37.66v.93h-9.71v-.93h9.71m0-.15h-9.71l-.15.15v.93l.15.15h9.71l.15-.15v-.93l-.15-.15z"/><path class="cls-1" d="M133.79 38.66l-.07-.07v-.93l.07-.07h9.71l.07.07v.93l-.07.07h-9.71z"/><path class="cls-3" d="M143.5 37.66v.93h-9.7v-.93h9.7m0-.15h-9.7l-.15.15v.93l.15.15h9.7l.15-.15v-.93l-.15-.15z"/><path class="cls-1" d="M153.92 70a8.5 8.5 0 108.51 8.5 8.49 8.49 0 00-8.51-8.5zm0 13.18a4.68 4.68 0 114.68-4.68 4.69 4.69 0 01-4.68 4.7zm0-1.49a3.19 3.19 0 113.19-3.19 3.19 3.19 0 01-3.19 3.21z"/><path class="cls-1" d="M133.72 98.44V58.6h40.4v39.84zm36.72-3.68V62.28h-33v32.48z"/><path class="cls-3" d="M174.05 58.68v39.68H133.8V58.68h40.25m-36.73 36.15h33.2V62.21h-33.2v32.62m36.88-36.3h-40.55v40h40.55v-40zm-36.73 3.83h32.9v32.32h-32.9V62.36z"/><path class="cls-1" d="M147.61 73.25c-.07-.07-7.14-6.86-7.59-7.27a3.51 3.51 0 01-.79-2v-5.3l.08-.08h.92l.08.08V64a2.09 2.09 0 00.56 1.33l7.47 7.13v.11l-.63.67z"/><path class="cls-3" d="M140.23 58.68V64a2.12 2.12 0 00.59 1.39l7.47 7.13-.63.67s-7.13-6.86-7.58-7.28a3.25 3.25 0 01-.77-1.91v-5.32h.92m0-.15h-.92l-.15.15V64a3.45 3.45 0 00.81 2c.45.42 7.52 7.21 7.59 7.28h.21l.63-.67v-.21l-7.47-7.13a2 2 0 01-.54-1.29v-5.3l-.15-.15z"/><path class="cls-1" d="M160.13 73.25l-.63-.67v-.11l7.5-7.13a2 2 0 00.56-1.33v-5.33l.08-.08h.92l.08.08V64a3.44 3.44 0 01-.79 2c-.45.41-7.52 7.2-7.59 7.27z"/><path class="cls-3" d="M168.53 58.68V64a3.31 3.31 0 01-.76 1.91c-.45.42-7.59 7.28-7.59 7.28l-.63-.67L167 65.4a2.12 2.12 0 00.59-1.39v-5.33h.92m0-.15h-.92l-.15.15V64a2 2 0 01-.54 1.28l-7.47 7.13v.21l.63.67h.22l7.59-7.29a3.44 3.44 0 00.81-2v-5.32l-.15-.15z"/><path class="cls-1" d="M167.61 98.44l-.08-.08V93a2 2 0 00-.53-1.3l-7.47-7.13v-.11l.63-.67h.1c.07.07 7.14 6.86 7.59 7.27a3.43 3.43 0 01.79 2v5.34l-.08.08z"/><path class="cls-3" d="M160.18 83.84s7.14 6.86 7.59 7.28a3.31 3.31 0 01.76 1.91v5.33h-.92V93a2.12 2.12 0 00-.59-1.39l-7.47-7.13.63-.67m.11-.11h-.22l-.63.67v.21l7.47 7.13a2 2 0 01.54 1.29v5.32l.15.15h.92l.15-.15V93a3.45 3.45 0 00-.81-2l-7.58-7.28z"/><path class="cls-1" d="M139.31 98.44l-.08-.08V93a3.51 3.51 0 01.79-2c.45-.41 7.52-7.2 7.59-7.27h.11l.63.67v.11l-7.47 7.13a2.09 2.09 0 00-.56 1.33v5.33l-.08.08z"/><path class="cls-3" d="M147.66 83.84l.63.67-7.47 7.13a2.12 2.12 0 00-.59 1.39v5.33h-.92V93a3.25 3.25 0 01.77-1.91c.45-.42 7.58-7.28 7.58-7.28m-.1-.11c-.07.07-7.14 6.86-7.59 7.28a3.44 3.44 0 00-.81 2v5.34l.15.15h.92l.15-.15V93a2 2 0 01.54-1.28l7.47-7.13v-.21l-.63-.67z"/><path class="cls-1" d="M153.46 65.09l-.08-.07v-6.34l.08-.08h.92l.08.08v6.34l-.08.07h-.92z"/><path class="cls-3" d="M154.38 58.68V65h-.92v-6.32h.92m0-.15h-.92l-.15.15V65l.15.15h.92l.15-.15v-6.32l-.15-.15z"/><path class="cls-1" d="M153.46 98.44l-.08-.08v-6.34l.08-.08h.92l.08.08v6.34l-.08.08h-.92z"/><path class="cls-3" d="M154.38 92v6.34h-.92V92h.92m0-.15h-.92l-.15.15v6.34l.15.15h.92l.15-.15V92l-.15-.15z"/><path class="cls-1" d="M164.34 79.06l-.07-.08v-.92l.07-.08h9.71l.07.08v.92l-.07.08h-9.71z"/><path class="cls-3" d="M174.05 78.06V79h-9.71v-.92h9.71m0-.15h-9.71l-.15.15V79l.15.15h9.71l.15-.15v-.92l-.15-.15z"/><path class="cls-1" d="M133.79 79.06l-.07-.08v-.92l.07-.08h9.71l.07.08v.92l-.07.08h-9.71z"/><path class="cls-3" d="M143.5 78.06V79h-9.7v-.92h9.7m0-.15h-9.7l-.15.15V79l.15.15h9.7l.15-.15v-.92l-.15-.15z"/><circle class="cls-1" cx="30.33" cy="38.13" r="6.38"/><path class="cls-1" d="M10.13 58V18.21h40.4V58zm36.72-3.68V21.89h-33v32.47z"/><path class="cls-3" d="M50.46 18.28V58H10.21V18.28h40.25M13.74 54.44h33.19V21.81H13.74v32.63m36.87-36.31H10.06v40h40.55v-40zM13.89 22h32.89v32.29H13.89V22z"/><path class="cls-1" d="M24 32.86l-7.58-7.28a3.34 3.34 0 01-.79-2v-5.3l.07-.07h.92l.08.07v5.34a2.09 2.09 0 00.58 1.38l7.48 7.13v.1l-.63.67z"/><path class="cls-3" d="M16.65 18.28v5.34a2.14 2.14 0 00.58 1.38l7.47 7.13-.63.67s-7.13-6.8-7.58-7.27a3.25 3.25 0 01-.77-1.91v-5.34h.93m0-.15h-.93l-.15.15v5.34a3.46 3.46 0 00.82 2c.44.41 7.51 7.2 7.58 7.27h.21l.63-.68V32l-7.47-7.13a1.94 1.94 0 01-.55-1.28v-5.31l-.15-.15z"/><path class="cls-1" d="M36.54 32.85l-.63-.67v-.1L43.38 25a2 2 0 00.62-1.39v-5.33l.07-.07H45l.07.07v5.34a3.41 3.41 0 01-.79 2L36.7 32.9z"/><path class="cls-3" d="M45 18.28v5.34a3.39 3.39 0 01-.77 1.91c-.45.42-7.59 7.27-7.59 7.27l-.64-.67L43.43 25a2.09 2.09 0 00.57-1.38v-5.34h1m0-.15h-1l-.15.15v5.34a1.93 1.93 0 01-.54 1.27L35.86 32v.21l.63.68h.22c.07-.07 7.14-6.86 7.58-7.27a3.46 3.46 0 00.82-2v-5.34l-.11-.15z"/><path class="cls-1" d="M44 58v-5.37a2 2 0 00-.57-1.33l-7.47-7.13v-.1l.63-.67h.11l7.58 7.28a3.43 3.43 0 01.79 2V58H45z"/><path class="cls-3" d="M36.59 43.45s7.14 6.85 7.59 7.27a3.42 3.42 0 01.82 1.91V58h-1v-5.37a2.12 2.12 0 00-.59-1.38L36 44.12l.63-.67m.11-.11h-.22l-.63.67v.21l7.47 7.13a2 2 0 01.54 1.28V58l.15.15H45l.1-.15v-5.37a3.46 3.46 0 00-.82-2c-.44-.41-7.51-7.2-7.58-7.27z"/><path class="cls-1" d="M15.72 58h-.07v-5.37a3.37 3.37 0 01.79-2L24 43.39h.11l.63.67v.1l-7.46 7.14a2.1 2.1 0 00-.56 1.34V58l-.08.07z"/><path class="cls-3" d="M24.07 43.45l.63.67-7.47 7.13a2.17 2.17 0 00-.58 1.38V58h-.93v-5.37a3.28 3.28 0 01.77-1.91c.45-.42 7.58-7.27 7.58-7.27m-.1-.11c-.07.07-7.14 6.86-7.58 7.27a3.46 3.46 0 00-.82 2V58l.15.15h.93l.15-.15v-5.37a1.91 1.91 0 01.54-1.27l7.47-7.13V44l-.63-.67z"/><path class="cls-1" d="M29.87 24.7l-.07-.07v-6.35l.07-.07h.93l.07.07v6.35l-.07.07h-.93z"/><path class="cls-3" d="M30.8 18.28v6.35h-.93v-6.35h.93m0-.15h-.93l-.15.15v6.35l.15.15h.93l.15-.15v-6.35l-.15-.15z"/><path class="cls-1" d="M29.87 58.04l-.07-.07v-6.34l.07-.08h.93l.07.08v6.34l-.07.07h-.93z"/><path class="cls-3" d="M30.8 51.63V58h-.93v-6.37h.93m0-.15h-.93l-.15.15V58l.15.15h.93L31 58v-6.37l-.15-.15z"/><path class="cls-1" d="M40.76 38.66l-.08-.07v-.93l.08-.07h9.7l.07.07v.93l-.07.07h-9.7z"/><path class="cls-3" d="M50.46 37.66v.93h-9.7v-.93h9.7m0-.15h-9.7l-.15.15v.93l.15.15h9.7l.15-.15v-.93l-.15-.15z"/><path class="cls-1" d="M10.21 38.66l-.08-.07v-.93l.08-.07h9.7l.08.07v.93l-.08.07h-9.7z"/><path class="cls-3" d="M19.91 37.66v.93h-9.7v-.93h9.7m0-.15h-9.7l-.15.15v.93l.15.15h9.7l.15-.15v-.93l-.15-.15z"/><circle class="cls-1" cx="71.53" cy="38.13" r="6.38"/><path class="cls-1" d="M51.33 58V18.21h40.4V58zm36.72-3.68V21.89H55v32.47z"/><path class="cls-3" d="M91.66 18.28V58H51.4V18.28h40.26M54.93 54.44h33.2V21.81h-33.2v32.63m36.88-36.31H51.25v40h40.56v-40zM55.08 22H88v32.29H55.08V22z"/><path class="cls-1" d="M65.22 32.86c-.07-.07-7.14-6.86-7.59-7.28a3.41 3.41 0 01-.79-2v-5.3l.08-.07h.92l.08.07v5.34a2.09 2.09 0 00.56 1.38L66 32.08v.1l-.63.67z"/><path class="cls-3" d="M57.84 18.28v5.34a2.09 2.09 0 00.59 1.38l7.47 7.13-.63.67s-7.14-6.8-7.59-7.27a3.31 3.31 0 01-.76-1.91v-5.34h.92m0-.15h-.92l-.15.15v5.34a3.45 3.45 0 00.81 2c.45.41 7.51 7.2 7.59 7.27h.21l.63-.68V32l-7.47-7.13a2 2 0 01-.54-1.26v-5.33l-.15-.15z"/><path class="cls-1" d="M77.74 32.85l-.64-.67v-.1L84.58 25a2.1 2.1 0 00.56-1.34v-5.38l.08-.07h.92l.08.07v5.34a3.48 3.48 0 01-.79 2c-.45.42-7.52 7.21-7.59 7.28z"/><path class="cls-3" d="M86.14 18.28v5.34a3.25 3.25 0 01-.77 1.91l-7.58 7.27-.63-.67L84.63 25a2.09 2.09 0 00.59-1.38v-5.34h.92m0-.15h-.92l-.15.15v5.34a2 2 0 01-.54 1.27L77.06 32v.21l.63.68h.21c.08-.07 7.14-6.86 7.59-7.27a3.44 3.44 0 00.81-2v-5.34l-.15-.15z"/><path class="cls-1" d="M85.22 58h-.08v-5.37a2.09 2.09 0 00-.56-1.33l-7.47-7.13v-.1l.64-.67h.1c.07.07 7.14 6.86 7.59 7.28a3.51 3.51 0 01.79 2V58l-.08.07z"/><path class="cls-3" d="M77.79 43.45l7.58 7.27a3.28 3.28 0 01.77 1.91V58h-.92v-5.37a2.12 2.12 0 00-.59-1.38l-7.47-7.13.63-.67m.1-.11h-.21l-.63.67v.21l7.47 7.13a2 2 0 01.54 1.28V58l.15.15h.92l.15-.15v-5.37a3.45 3.45 0 00-.81-2c-.45-.41-7.51-7.2-7.59-7.27z"/><path class="cls-1" d="M56.92 58h-.08v-5.37a3.43 3.43 0 01.79-2c.45-.42 7.52-7.21 7.59-7.28h.1l.63.67v.1l-7.47 7.18a2.1 2.1 0 00-.56 1.34V58l-.08.07z"/><path class="cls-3" d="M65.27 43.45l.63.67-7.47 7.13a2.12 2.12 0 00-.59 1.38V58h-.92v-5.37a3.33 3.33 0 01.76-1.91c.45-.42 7.59-7.27 7.59-7.27m-.1-.11c-.08.07-7.14 6.86-7.59 7.27a3.44 3.44 0 00-.81 2V58l.15.15h.92L58 58v-5.37a2 2 0 01.54-1.27L66 44.23V44l-.63-.67z"/><path class="cls-1" d="M71.07 24.7l-.08-.07v-6.35l.08-.07h.92l.08.07v6.35l-.08.07h-.92z"/><path class="cls-3" d="M72 18.28v6.35h-.92v-6.35H72m0-.15h-.92l-.15.15v6.35l.15.15H72l.15-.15v-6.35l-.15-.15z"/><path class="cls-1" d="M71.07 58.04l-.08-.07v-6.34l.08-.08h.92l.08.08v6.34l-.08.07h-.92z"/><path class="cls-3" d="M72 51.63V58h-.92v-6.37H72m0-.15h-.92l-.15.15V58l.15.15H72l.15-.15v-6.37l-.15-.15z"/><path class="cls-1" d="M81.95 38.66l-.07-.07v-.93l.07-.07h9.71l.07.07v.93l-.07.07h-9.71z"/><path class="cls-3" d="M91.66 37.66v.93H82v-.93h9.71m0-.15H82l-.15.15v.93l.15.15h9.71l.15-.15v-.93l-.15-.15z"/><path class="cls-1" d="M51.4 38.66l-.07-.07v-.93l.07-.07h9.71l.07.07v.93l-.07.07H51.4z"/><path class="cls-3" d="M61.11 37.66v.93H51.4v-.93h9.71m0-.15H51.4l-.15.15v.93l.15.15h9.71l.15-.15v-.93l-.15-.15z"/><circle class="cls-1" cx="112.73" cy="38.13" r="6.38"/><path class="cls-1" d="M92.52 58V18.21h40.41V58zm36.73-3.68V21.89h-33v32.47z"/><path class="cls-3" d="M132.85 18.28V58H92.6V18.28h40.25M96.13 54.44h33.19V21.81H96.13v32.63M133 18.13H92.45v40H133v-40zM96.28 22h32.89v32.29H96.28V22z"/><path class="cls-1" d="M106.41 32.86l-7.58-7.28a3.34 3.34 0 01-.79-2v-5.3l.07-.07H99l.07.07v5.34a2 2 0 00.61 1.38l7.47 7.13v.1l-.63.67z"/><path class="cls-3" d="M99 18.28v5.34a2.14 2.14 0 00.62 1.38l7.48 7.13-.64.67s-7.13-6.8-7.58-7.27a3.39 3.39 0 01-.77-1.91v-5.34H99m0-.15h-.93l-.15.15v5.34a3.46 3.46 0 00.82 2c.44.41 7.51 7.2 7.58 7.27h.21l.63-.68V32l-7.47-7.13a1.94 1.94 0 01-.54-1.28v-5.31l-.15-.15z"/><path class="cls-1" d="M118.93 32.85l-.63-.67v-.1l7.47-7.08a2 2 0 00.57-1.34v-5.38l.07-.07h.93l.07.07v5.34a3.34 3.34 0 01-.79 2L119 32.86z"/><path class="cls-3" d="M127.34 18.28v5.34a3.32 3.32 0 01-.77 1.91c-.45.47-7.57 7.27-7.57 7.27l-.63-.67 7.46-7.13a2.14 2.14 0 00.58-1.38v-5.34h.93m0-.15h-.93l-.15.15v5.34a1.93 1.93 0 01-.54 1.27L118.25 32v.21l.63.68h.21c.07-.07 7.14-6.86 7.58-7.27a3.46 3.46 0 00.82-2v-5.34l-.15-.15z"/><path class="cls-1" d="M126.41 58l-.07-.07v-5.3a2 2 0 00-.57-1.33l-7.47-7.13v-.1l.63-.67h.07l7.58 7.28a3.37 3.37 0 01.79 2V58l-.07.07z"/><path class="cls-3" d="M119 43.45s7.13 6.85 7.58 7.27a3.35 3.35 0 01.77 1.91V58h-.93v-5.37a2.17 2.17 0 00-.58-1.38l-7.47-7.13.63-.67m.1-.11h-.21l-.63.67v.21l7.47 7.13a2 2 0 01.54 1.28V58l.15.15h.93l.15-.15v-5.37a3.46 3.46 0 00-.82-2c-.44-.41-7.51-7.2-7.58-7.27z"/><path class="cls-1" d="M98.11 58H98v-5.37a3.37 3.37 0 01.79-2l7.58-7.28h.11l.63.67v.1l-7.43 7.18a2 2 0 00-.57 1.34V58H99z"/><path class="cls-3" d="M106.46 43.45l.64.67-7.48 7.13a2.17 2.17 0 00-.62 1.38V58h-.93v-5.37a3.42 3.42 0 01.77-1.91c.45-.42 7.58-7.27 7.58-7.27m-.1-.11c-.07.07-7.14 6.86-7.58 7.27a3.46 3.46 0 00-.82 2V58l.15.15H99l.15-.15v-5.37a2 2 0 01.54-1.27l7.47-7.13V44l-.63-.67z"/><path class="cls-1" d="M112.26 24.7l-.07-.07v-6.35l.07-.07h.93l.07.07v6.35l-.07.07h-.93z"/><path class="cls-3" d="M113.19 18.28v6.35h-.93v-6.35h.93m0-.15h-.93l-.15.15v6.35l.15.15h.93l.15-.15v-6.35l-.15-.15z"/><path class="cls-1" d="M112.26 58.04l-.07-.07v-6.34l.07-.08h.93l.07.08v6.34l-.07.07h-.93z"/><path class="cls-3" d="M113.19 51.63V58h-.93v-6.37h.93m0-.15h-.93l-.15.15V58l.15.15h.93l.15-.15v-6.37l-.15-.15z"/><path class="cls-1" d="M123.15 38.66l-.08-.07v-.93l.08-.07h9.7l.08.07v.93l-.08.07h-9.7z"/><path class="cls-3" d="M132.85 37.66v.93h-9.7v-.93h9.7m0-.15h-9.7l-.15.15v.93l.15.15h9.7l.15-.15v-.93l-.15-.15z"/><path class="cls-1" d="M92.6 38.66l-.08-.07v-.93l.08-.07h9.7l.08.07v.93l-.08.07h-9.7z"/><path class="cls-3" d="M102.3 37.66v.93h-9.7v-.93h9.7m0-.15h-9.7l-.15.15v.93l.15.15h9.7l.15-.15v-.93l-.15-.15z"/><path class="cls-1" d="M30.33 70a8.5 8.5 0 108.51 8.5 8.5 8.5 0 00-8.51-8.5zm0 13.18A4.68 4.68 0 1135 78.52a4.68 4.68 0 01-4.67 4.68zm0-1.49a3.19 3.19 0 113.19-3.19 3.19 3.19 0 01-3.19 3.21z"/><path class="cls-1" d="M10.13 98.44V58.6h40.4v39.84zm36.72-3.68V62.28h-33v32.48z"/><path class="cls-3" d="M50.46 58.68v39.68H10.21V58.68h40.25M13.74 94.83h33.19V62.21H13.74v32.62m36.87-36.3H10.06v40h40.55v-40zm-36.72 3.83h32.89v32.32H13.89V62.36z"/><path class="cls-1" d="M24 73.25c-.07-.07-7.14-6.86-7.58-7.27a3.37 3.37 0 01-.79-2v-5.3l.07-.08h.92l.08.08V64a2.09 2.09 0 00.56 1.33l7.48 7.13v.11l-.63.67z"/><path class="cls-3" d="M16.65 58.68V64a2.17 2.17 0 00.58 1.39l7.47 7.13-.63.67s-7.13-6.86-7.58-7.28a3.25 3.25 0 01-.77-1.91v-5.32h.93m0-.15h-.93l-.15.15V64a3.46 3.46 0 00.82 2L24 73.31h.21l.63-.67v-.21l-7.47-7.13a2 2 0 01-.58-1.3v-5.32l-.15-.15z"/><path class="cls-1" d="M36.54 73.25l-.63-.67v-.11l7.47-7.13A2 2 0 0044 64v-5.4h1l.07.08V64a3.44 3.44 0 01-.79 2c-.44.41-7.51 7.2-7.58 7.27z"/><path class="cls-3" d="M45 58.68V64a3.39 3.39 0 01-.77 1.91c-.45.42-7.59 7.28-7.59 7.28l-.64-.66 7.47-7.13A2.12 2.12 0 0044 64v-5.32h1m0-.15h-1l-.15.15V64a2 2 0 01-.54 1.28l-7.47 7.13v.21l.63.67h.22L44.28 66a3.46 3.46 0 00.82-2v-5.32l-.1-.15z"/><path class="cls-1" d="M44 98.44V93a2 2 0 00-.57-1.33l-7.47-7.13v-.11l.63-.67h.11c.07.07 7.14 6.86 7.58 7.27A3.43 3.43 0 0145 93v5.34l-.07.08z"/><path class="cls-3" d="M36.59 83.84s7.14 6.86 7.59 7.28A3.39 3.39 0 0145 93v5.33h-1V93a2.12 2.12 0 00-.59-1.39L36 84.51l.63-.67m.11-.11h-.22l-.63.67v.21l7.47 7.13a2 2 0 01.51 1.26v5.32l.15.15H45l.15-.15V93a3.46 3.46 0 00-.82-2l-7.63-7.27z"/><path class="cls-1" d="M15.72 98.44l-.07-.08V93a3.37 3.37 0 01.79-2c.44-.41 7.51-7.2 7.58-7.27h.11l.63.67v.11l-7.48 7.19a2.09 2.09 0 00-.56 1.3v5.33l-.08.08z"/><path class="cls-3" d="M24.07 83.84l.63.67-7.47 7.13a2.17 2.17 0 00-.58 1.36v5.33h-.93V93a3.25 3.25 0 01.77-1.91c.45-.42 7.58-7.28 7.58-7.28m-.1-.11L16.39 91a3.46 3.46 0 00-.82 2v5.34l.15.15h.93l.15-.15V93a1.91 1.91 0 01.54-1.28l7.47-7.13v-.21l-.63-.67z"/><path class="cls-1" d="M29.87 65.09l-.07-.07v-6.34l.07-.08h.93l.07.08v6.34l-.07.07h-.93z"/><path class="cls-3" d="M30.8 58.68V65h-.93v-6.32h.93m0-.15h-.93l-.15.15V65l.15.15h.93L31 65v-6.32l-.15-.15z"/><path class="cls-1" d="M29.87 98.44l-.07-.08v-6.34l.07-.08h.93l.07.08v6.34l-.07.08h-.93z"/><path class="cls-3" d="M30.8 92v6.34h-.93V92h.93m0-.15h-.93l-.15.15v6.34l.15.15h.93l.15-.15V92l-.15-.15z"/><path class="cls-1" d="M40.76 79.06l-.08-.08v-.92l.08-.08h9.7l.07.08v.92l-.07.08h-9.7z"/><path class="cls-3" d="M50.46 78.06V79h-9.7v-.92h9.7m0-.15h-9.7l-.15.15V79l.15.15h9.7l.15-.15v-.92l-.15-.15z"/><path class="cls-1" d="M10.21 79.06l-.08-.08v-.92l.08-.08h9.7l.08.08v.92l-.08.08h-9.7z"/><path class="cls-3" d="M19.91 78.06V79h-9.7v-.92h9.7m0-.15h-9.7l-.15.15V79l.15.15h9.7l.15-.15v-.92l-.15-.15z"/><circle class="cls-1" cx="71.53" cy="78.52" r="4.25"/><path class="cls-1" d="M51.33 98.44V58.6h40.4v39.84zm36.72-3.68V62.28H55v32.48z"/><path class="cls-3" d="M91.66 58.68v39.68H51.4V58.68h40.26M54.93 94.83h33.2V62.21h-33.2v32.62m36.88-36.3H51.25v40h40.56v-40zm-36.73 3.83H88v32.32H55.08V62.36z"/><path class="cls-1" d="M65.22 73.25c-.07-.07-7.14-6.86-7.59-7.27a3.43 3.43 0 01-.79-2v-5.3l.08-.08h.92l.08.08V64a2.09 2.09 0 00.56 1.33L66 72.47v.11l-.63.67z"/><path class="cls-3" d="M57.84 58.68V64a2.12 2.12 0 00.59 1.39l7.47 7.13-.63.67s-7.14-6.86-7.59-7.28a3.31 3.31 0 01-.76-1.91v-5.32h.92m0-.15h-.92l-.15.15V64a3.45 3.45 0 00.81 2c.45.42 7.51 7.21 7.59 7.28h.21l.63-.67v-.21l-7.47-7.13A2 2 0 0158 64v-5.32l-.15-.15z"/><path class="cls-1" d="M77.74 73.25l-.64-.67v-.11l7.47-7.13a2.09 2.09 0 00.57-1.34v-5.32l.08-.08h.92l.08.08V64a3.51 3.51 0 01-.79 2c-.45.41-7.52 7.2-7.59 7.27z"/><path class="cls-3" d="M86.14 58.68V64a3.25 3.25 0 01-.77 1.91l-7.58 7.29-.63-.67 7.47-7.13a2.12 2.12 0 00.59-1.4v-5.32h.92m0-.15h-.92l-.15.15V64a2 2 0 01-.54 1.28l-7.47 7.13v.21l.63.67h.21c.1-.05 7.1-6.84 7.58-7.29a3.44 3.44 0 00.81-2v-5.32l-.15-.15z"/><path class="cls-1" d="M85.22 98.44l-.08-.08V93a2.09 2.09 0 00-.56-1.33l-7.47-7.13v-.11l.64-.67h.1c.07.07 7.14 6.86 7.59 7.27a3.51 3.51 0 01.79 2v5.34l-.08.08z"/><path class="cls-3" d="M77.79 83.84l7.58 7.28a3.25 3.25 0 01.77 1.88v5.33h-.92V93a2.12 2.12 0 00-.59-1.39l-7.47-7.13.63-.67m.1-.11h-.21l-.63.67v.21l7.47 7.13a2 2 0 01.55 1.29v5.32l.15.15h.92l.15-.15V93a3.45 3.45 0 00-.81-2c-.48-.41-7.48-7.2-7.59-7.27z"/><path class="cls-1" d="M56.92 98.44l-.08-.08V93a3.44 3.44 0 01.79-2c.45-.41 7.52-7.2 7.59-7.27h.1l.63.67v.11l-7.47 7.19a2.09 2.09 0 00-.56 1.3v5.33l-.08.08z"/><path class="cls-3" d="M65.27 83.84l.63.67-7.47 7.13a2.12 2.12 0 00-.59 1.36v5.33h-.92V93a3.31 3.31 0 01.76-1.91c.45-.42 7.59-7.28 7.59-7.28m-.1-.11c-.08.07-7.14 6.86-7.59 7.28a3.44 3.44 0 00-.81 2v5.34l.15.15h.92l.15-.15V93a2 2 0 01.54-1.28l7.47-7.1v-.21l-.63-.67z"/><path class="cls-1" d="M71.07 65.09l-.08-.07v-6.34l.08-.08h.92l.08.08v6.34l-.08.07h-.92z"/><path class="cls-3" d="M72 58.68V65h-.92v-6.32H72m0-.15h-.92l-.15.15V65l.15.15H72l.15-.15v-6.32l-.15-.15z"/><path class="cls-1" d="M71.07 98.44l-.08-.08v-6.34l.08-.08h.92l.08.08v6.34l-.08.08h-.92z"/><path class="cls-3" d="M72 92v6.34h-.92V92H72m0-.15h-.92l-.15.15v6.34l.15.15H72l.15-.15V92l-.15-.13z"/><path class="cls-1" d="M81.95 79.06l-.07-.08v-.92l.07-.08h9.71l.07.08v.92l-.07.08h-9.71z"/><path class="cls-3" d="M91.66 78.06V79H82v-.92h9.71m0-.15H82l-.15.15V79l.15.15h9.71l.15-.15v-.92l-.15-.15z"/><path class="cls-1" d="M51.4 79.06l-.07-.08v-.92l.07-.08h9.71l.07.08v.92l-.07.08H51.4z"/><path class="cls-3" d="M61.11 78.06V79H51.4v-.92h9.71m0-.15H51.4l-.15.15V79l.15.15h9.71l.15-.15v-.92l-.15-.15z"/><circle class="cls-1" cx="112.73" cy="78.52" r="4.25"/><path class="cls-1" d="M92.52 98.44V58.6h40.41v39.84zm36.73-3.68V62.28h-33v32.48z"/><path class="cls-3" d="M132.85 58.68v39.68H92.6V58.68h40.25M96.13 94.83h33.19V62.21H96.13v32.62M133 58.53H92.45v40H133v-40zm-36.72 3.83h32.89v32.32H96.28V62.36z"/><path class="cls-1" d="M106.41 73.25c-.07-.07-7.14-6.86-7.58-7.27A3.39 3.39 0 0198 64v-5.32l.07-.08H99l.07.08V64a2 2 0 00.57 1.33l7.47 7.13v.11l-.63.67z"/><path class="cls-3" d="M99 58.68V64a2.17 2.17 0 00.58 1.39l7.48 7.13-.64.67s-7.13-6.86-7.58-7.28a3.39 3.39 0 01-.73-1.91v-5.32H99m0-.15h-.93l-.15.15V64a3.46 3.46 0 00.82 2l7.58 7.28h.21l.63-.67v-.21l-7.47-7.13a2 2 0 01-.5-1.27v-5.32l-.19-.15z"/><path class="cls-1" d="M118.93 73.25l-.63-.67v-.11l7.47-7.13a2 2 0 00.57-1.33v-5.33l.07-.08h.93l.07.08V64a3.37 3.37 0 01-.79 2c-.44.41-7.51 7.2-7.58 7.27z"/><path class="cls-3" d="M127.34 58.68V64a3.32 3.32 0 01-.77 1.91c-.45.42-7.58 7.28-7.58 7.28l-.63-.67 7.47-7.13a2.17 2.17 0 00.58-1.39v-5.32h.93m0-.15h-.93l-.15.15V64a2 2 0 01-.54 1.28l-7.47 7.13v.21l.63.67h.21l7.58-7.29a3.46 3.46 0 00.82-2v-5.32l-.15-.15z"/><path class="cls-1" d="M126.41 98.44l-.07-.08V93a2 2 0 00-.57-1.33l-7.47-7.13v-.11l.63-.67h.07c.07.07 7.14 6.86 7.58 7.27a3.37 3.37 0 01.79 2v5.34l-.07.08z"/><path class="cls-3" d="M119 83.84s7.13 6.86 7.58 7.28a3.32 3.32 0 01.77 1.91v5.33h-.93V93a2.17 2.17 0 00-.58-1.39l-7.47-7.13.63-.67m.1-.11h-.21l-.63.67v.21l7.47 7.13a2 2 0 01.54 1.29v5.32l.15.15h.93l.15-.15V93a3.46 3.46 0 00-.82-2l-7.58-7.28z"/><path class="cls-1" d="M98.11 98.44l-.11-.08V93a3.37 3.37 0 01.79-2c.44-.41 7.51-7.2 7.58-7.27h.11l.63.67v.11l-7.43 7.19a2 2 0 00-.57 1.3v5.33l-.07.08z"/><path class="cls-3" d="M106.46 83.84l.64.67-7.48 7.13A2.17 2.17 0 0099 93v5.33h-.93V93a3.39 3.39 0 01.77-1.91c.45-.42 7.58-7.28 7.58-7.28m-.1-.11L98.78 91a3.46 3.46 0 00-.78 2v5.34l.15.15H99l.15-.15V93a2 2 0 01.54-1.28l7.47-7.13v-.21l-.63-.67z"/><path class="cls-1" d="M112.26 65.09l-.07-.07v-6.34l.07-.08h.93l.07.08v6.34l-.07.07h-.93z"/><path class="cls-3" d="M113.19 58.68V65h-.93v-6.32h.93m0-.15h-.93l-.15.15V65l.15.15h.93l.15-.15v-6.32l-.15-.15z"/><path class="cls-1" d="M112.26 98.44l-.07-.08v-6.34l.07-.08h.93l.07.08v6.34l-.07.08h-.93z"/><path class="cls-3" d="M113.19 92v6.34h-.93V92h.93m0-.15h-.93l-.15.15v6.34l.15.15h.93l.15-.15V92l-.15-.15z"/><path class="cls-1" d="M123.15 79.06l-.08-.08v-.92l.08-.08h9.7l.08.08v.92l-.08.08h-9.7z"/><path class="cls-3" d="M132.85 78.06V79h-9.7v-.92h9.7m0-.15h-9.7l-.15.15V79l.15.15h9.7L133 79v-.92l-.15-.15z"/><path class="cls-1" d="M92.6 79.06l-.08-.08v-.92l.08-.08h9.7l.08.08v.92l-.08.08h-9.7z"/><path class="cls-3" d="M102.3 78.06V79h-9.7v-.92h9.7m0-.15h-9.7l-.15.15V79l.15.15h9.7l.15-.15v-.92l-.15-.15z"/></g></svg>