<svg xmlns="http://www.w3.org/2000/svg" viewBox="0 0 184.25 113.39"><defs><style>.cls-1{fill:#222221}.cls-4,.cls-5,.cls-6{fill:none;stroke:#222221}.cls-5{stroke-linejoin:round}.cls-5,.cls-6{stroke-width:.25px}.cls-3{fill:#fff}.cls-4,.cls-6{stroke-miterlimit:3.86}.cls-4{stroke-width:.5px}.cls-5{stroke-linecap:round}</style></defs><g id="Piano"><path class="cls-1" d="M177.8 7.59v95.35c0 1-1.34 2.86-3.8 2.86H10.25c-2.45 0-3.79-1.89-3.79-2.86V7.59H177.8m.5-.5H6v95.85c0 1.29 1.59 3.36 4.29 3.36H174c2.7 0 4.3-2.07 4.3-3.36V7.09z"/><path stroke-width=".25" stroke-linejoin="round" fill="none" stroke="#222221" d="M5.95 9.21H178.3"/></g><g id="Bruciatori_e_griglie" data-name="Bruciatori e griglie"><circle class="cls-1" cx="29.8" cy="38.13" r="6.38"/><path class="cls-1" d="M9.6 58V18.21H50V58zm36.73-3.68V21.89h-33v32.47z"/><path class="cls-3" d="M49.93 18.28V58H9.68V18.28h40.25M13.21 54.44H46.4V21.81H13.21v32.63m36.87-36.31H9.53v40h40.55v-40zM13.36 22h32.89v32.29H13.36V22z"/><path class="cls-1" d="M23.49 32.86c-.07-.07-7.14-6.86-7.58-7.27a3.4 3.4 0 01-.79-2v-5.31l.07-.07h.92l.08.07v5.34a2.09 2.09 0 00.56 1.38l7.47 7.13v.1l-.63.67z"/><path class="cls-3" d="M16.11 18.28v5.34A2.2 2.2 0 0016.7 25l7.47 7.13-.63.67S16.41 26 16 25.53a3.25 3.25 0 01-.77-1.91v-5.34h.92m0-.15h-.92l-.15.15v5.34a3.46 3.46 0 00.82 2c.44.41 7.51 7.2 7.58 7.27h.21l.63-.68V32l-7.47-7.13a1.94 1.94 0 01-.55-1.28v-5.31l-.15-.15z"/><path class="cls-1" d="M36 32.85l-.63-.67v-.1L42.85 25a2 2 0 00.57-1.34v-5.38l.07-.07h.93l.07.07v5.34a3.46 3.46 0 01-.79 2c-.44.41-7.51 7.2-7.58 7.27z"/><path class="cls-3" d="M44.42 18.28v5.34a3.39 3.39 0 01-.77 1.91c-.45.42-7.59 7.27-7.59 7.27l-.63-.67L42.9 25a2.09 2.09 0 00.59-1.38v-5.34h.93m0-.15h-.93l-.15.15v5.34a1.93 1.93 0 01-.54 1.27L35.33 32v.21l.63.68h.22c.07-.07 7.14-6.86 7.58-7.27a3.46 3.46 0 00.82-2v-5.34l-.15-.15z"/><path class="cls-1" d="M43.49 58h-.07v-5.37a2 2 0 00-.57-1.33l-7.47-7.12v-.11l.62-.67h.11l7.58 7.28a3.41 3.41 0 01.79 2V58l-.07.07z"/><path class="cls-3" d="M36.06 43.45s7.14 6.85 7.59 7.27a3.42 3.42 0 01.77 1.91V58h-.93v-5.37a2.12 2.12 0 00-.59-1.38l-7.47-7.13.63-.67m.11-.11H36l-.63.67v.21l7.47 7.13a2 2 0 01.54 1.28V58l.15.15h.93l.15-.15v-5.37a3.46 3.46 0 00-.82-2c-.44-.41-7.51-7.2-7.58-7.27z"/><path class="cls-1" d="M15.19 58h-.07v-5.37a3.37 3.37 0 01.79-2l7.58-7.28h.11l.63.67v.11l-7.48 7.17a2.1 2.1 0 00-.56 1.34V58l-.08.07z"/><path class="cls-3" d="M23.54 43.45l.63.67-7.47 7.13a2.22 2.22 0 00-.59 1.38V58h-.92v-5.37a3.28 3.28 0 01.81-1.91c.45-.42 7.58-7.27 7.58-7.27m-.1-.11c-.07.07-7.14 6.86-7.58 7.27a3.46 3.46 0 00-.82 2V58l.15.15h.92l.15-.15v-5.37a2 2 0 01.55-1.27l7.47-7.13V44l-.63-.67z"/><path class="cls-1" d="M29.34 24.7l-.07-.07v-6.35l.07-.07h.93l.07.07v6.35l-.07.07h-.93z"/><path class="cls-3" d="M30.27 18.28v6.35h-.93v-6.35h.93m0-.15h-.93l-.15.15v6.35l.15.15h.93l.15-.15v-6.35l-.15-.15z"/><path class="cls-1" d="M29.34 58.04l-.07-.07v-6.34l.07-.08h.93l.07.08v6.34l-.07.07h-.93z"/><path class="cls-3" d="M30.27 51.63V58h-.93v-6.37h.93m0-.15h-.93l-.15.15V58l.15.15h.93l.15-.15v-6.37l-.15-.15z"/><path class="cls-1" d="M40.23 38.66l-.08-.07v-.93l.08-.07h9.7l.07.07v.93l-.07.07h-9.7z"/><path class="cls-3" d="M49.93 37.66v.93h-9.7v-.93h9.7m0-.15h-9.7l-.15.15v.93l.15.15h9.7l.15-.15v-.93l-.15-.15z"/><path class="cls-1" d="M9.68 38.66l-.08-.07v-.93l.08-.07h9.7l.08.07v.93l-.08.07h-9.7z"/><path class="cls-3" d="M19.38 37.66v.93h-9.7v-.93h9.7m0-.15h-9.7l-.15.15v.93l.15.15h9.7l.15-.15v-.93l-.15-.15z"/><circle class="cls-1" cx="111.97" cy="38.13" r="6.38"/><path class="cls-1" d="M91.77 58V18.21h40.4V58zm36.72-3.68V21.89h-33v32.47z"/><path class="cls-3" d="M132.1 18.28V58H91.85V18.28h40.25M95.37 54.44h33.2V21.81h-33.2v32.63m36.88-36.31H91.7v40h40.55v-40zM95.52 22h32.9v32.29h-32.9V22z"/><path class="cls-1" d="M105.66 32.86c-.07-.07-7.14-6.86-7.58-7.27a3.48 3.48 0 01-.8-2v-5.31l.08-.07h.92l.08.07v5.34a2.09 2.09 0 00.56 1.38l7.47 7.13v.1l-.63.67z"/><path class="cls-3" d="M98.28 18.28v5.34a2.09 2.09 0 00.59 1.38l7.47 7.13-.63.67s-7.13-6.8-7.58-7.27a3.25 3.25 0 01-.77-1.91v-5.34h.92m0-.15h-.92l-.15.15v5.34a3.45 3.45 0 00.81 2c.45.41 7.52 7.2 7.59 7.27h.21l.63-.68V32L99 24.89a2 2 0 01-.54-1.28v-5.33l-.15-.15z"/><path class="cls-1" d="M118.18 32.85l-.63-.67v-.1L125 25a2 2 0 00.56-1.34v-5.38l.08-.07h.92l.08.07v5.34a3.46 3.46 0 01-.79 2c-.45.41-7.52 7.2-7.59 7.27z"/><path class="cls-3" d="M126.58 18.28v5.34a3.31 3.31 0 01-.76 1.91c-.45.42-7.59 7.27-7.59 7.27l-.63-.67 7.47-7.13a2.09 2.09 0 00.59-1.38v-5.34h.92m0-.15h-.92l-.15.15v5.34a2 2 0 01-.54 1.27L117.5 32v.21l.63.68h.22c.07-.07 7.14-6.86 7.58-7.27a3.44 3.44 0 00.81-2v-5.34l-.15-.15z"/><path class="cls-1" d="M125.66 58l-.08-.07v-5.3a2 2 0 00-.58-1.33l-7.47-7.12v-.11l.63-.67h.1c.07.07 7.14 6.86 7.59 7.28a3.41 3.41 0 01.79 2V58l-.08.07z"/><path class="cls-3" d="M118.23 43.45s7.14 6.85 7.59 7.27a3.33 3.33 0 01.76 1.91V58h-.92v-5.37a2.12 2.12 0 00-.59-1.38l-7.47-7.13.63-.67m.11-.11h-.22l-.63.67v.21l7.51 7.14a2 2 0 01.54 1.28V58l.15.15h.92l.15-.15v-5.37a3.45 3.45 0 00-.81-2c-.44-.41-7.51-7.2-7.58-7.27z"/><path class="cls-1" d="M97.36 58h-.08v-5.37a3.45 3.45 0 01.8-2l7.58-7.28h.11l.63.67v.11l-7.48 7.17a2.1 2.1 0 00-.56 1.34V58l-.08.07z"/><path class="cls-3" d="M105.71 43.45l.63.67-7.47 7.13a2.12 2.12 0 00-.59 1.38V58h-.92v-5.37a3.28 3.28 0 01.77-1.91c.45-.42 7.58-7.27 7.58-7.27m-.1-.11c-.07.07-7.14 6.86-7.59 7.27a3.44 3.44 0 00-.81 2V58l.15.15h.92l.15-.15v-5.37a2 2 0 01.57-1.27l7.47-7.13V44l-.63-.67z"/><path class="cls-1" d="M111.51 24.7l-.08-.07v-6.35l.08-.07h.92l.08.07v6.35l-.08.07h-.92z"/><path class="cls-3" d="M112.43 18.28v6.35h-.92v-6.35h.92m0-.15h-.92l-.15.15v6.35l.15.15h.92l.15-.15v-6.35l-.15-.15z"/><path class="cls-1" d="M111.51 58.04l-.08-.07v-6.34l.08-.08h.92l.08.08v6.34l-.08.07h-.92z"/><path class="cls-3" d="M112.43 51.63V58h-.92v-6.37h.92m0-.15h-.92l-.15.15V58l.15.15h.92l.15-.15v-6.37l-.15-.15z"/><path class="cls-1" d="M122.39 38.66l-.07-.07v-.93l.07-.07h9.71l.07.07v.93l-.07.07h-9.71z"/><path class="cls-3" d="M132.1 37.66v.93h-9.71v-.93h9.71m0-.15h-9.71l-.15.15v.93l.15.15h9.71l.15-.15v-.93l-.15-.15z"/><path class="cls-1" d="M91.84 38.66l-.07-.07v-.93l.07-.07h9.71l.07.07v.93l-.07.07h-9.71z"/><path class="cls-3" d="M101.55 37.66v.93h-9.7v-.93h9.7m0-.15h-9.7l-.15.15v.93l.15.15h9.7l.15-.15v-.93l-.15-.15z"/><path class="cls-1" d="M29.8 70a8.5 8.5 0 108.51 8.5A8.5 8.5 0 0029.8 70zm0 13.18a4.68 4.68 0 114.68-4.68 4.68 4.68 0 01-4.68 4.7zm0-1.49a3.19 3.19 0 113.2-3.17 3.19 3.19 0 01-3.2 3.19z"/><path class="cls-1" d="M9.6 98.44V58.6H50v39.84zm36.73-3.68V62.28h-33v32.48z"/><path class="cls-3" d="M49.93 58.68v39.68H9.68V58.68h40.25M13.21 94.83H46.4V62.21H13.21v32.62m36.87-36.3H9.53v40h40.55v-40zm-36.72 3.83h32.89v32.32H13.36V62.36z"/><path class="cls-1" d="M23.49 73.25c-.07-.07-7.14-6.86-7.58-7.27a3.39 3.39 0 01-.79-2v-5.3l.07-.08h.92l.08.08V64a2.09 2.09 0 00.56 1.33l7.47 7.13v.11l-.63.67z"/><path class="cls-3" d="M16.11 58.68V64a2.23 2.23 0 00.59 1.39l7.47 7.13-.63.67s-7.13-6.85-7.54-7.27a3.25 3.25 0 01-.81-1.92v-5.32h.92m0-.15h-.92l-.15.15V64a3.46 3.46 0 00.82 2l7.58 7.28h.21l.63-.67v-.21l-7.47-7.13a2 2 0 01-.55-1.27v-5.32l-.15-.15z"/><path class="cls-1" d="M36 73.25l-.63-.67v-.11l7.47-7.13a2 2 0 00.58-1.34v-5.32l.07-.08h.93l.07.08V64a3.44 3.44 0 01-.79 2c-.44.41-7.51 7.2-7.58 7.27z"/><path class="cls-3" d="M44.42 58.68V64a3.39 3.39 0 01-.77 1.91c-.45.42-7.59 7.28-7.59 7.28l-.63-.67 7.47-7.12a2.12 2.12 0 00.59-1.4v-5.32h.93m0-.15h-.93l-.15.15V64a2 2 0 01-.54 1.28l-7.47 7.13v.21l.63.67h.22L43.75 66a3.46 3.46 0 00.82-2v-5.32l-.15-.15z"/><path class="cls-1" d="M43.49 98.44l-.07-.08V93a2 2 0 00-.57-1.33l-7.47-7.13v-.11l.63-.67h.11c.07.07 7.14 6.86 7.58 7.27a3.43 3.43 0 01.79 2v5.34l-.07.08z"/><path class="cls-3" d="M36.06 83.84s7.14 6.86 7.59 7.28a3.39 3.39 0 01.77 1.88v5.33h-.93V93a2.12 2.12 0 00-.59-1.39l-7.47-7.13.63-.67m.11-.11H36l-.63.67v.21l7.47 7.13a2 2 0 01.5 1.29v5.32l.15.15h.93l.15-.15V93a3.46 3.46 0 00-.82-2l-7.58-7.28z"/><path class="cls-1" d="M15.19 98.44l-.07-.08V93a3.37 3.37 0 01.79-2c.44-.41 7.51-7.2 7.58-7.27h.11l.63.67v.11l-7.48 7.19a2.07 2.07 0 00-.56 1.3v5.33l-.08.08z"/><path class="cls-3" d="M23.54 83.84l.63.67-7.47 7.13a2.23 2.23 0 00-.59 1.36v5.33h-.92V93a3.25 3.25 0 01.81-1.88c.45-.42 7.58-7.28 7.58-7.28m-.1-.11L15.86 91a3.46 3.46 0 00-.86 2v5.34l.15.15h.92l.15-.15V93a2 2 0 01.55-1.28l7.47-7.13v-.21l-.63-.67z"/><path class="cls-1" d="M29.34 65.09l-.07-.07v-6.34l.07-.08h.93l.07.08v6.34l-.07.07h-.93z"/><path class="cls-3" d="M30.27 58.68V65h-.93v-6.32h.93m0-.15h-.93l-.15.15V65l.15.15h.93l.15-.15v-6.32l-.15-.15z"/><path class="cls-1" d="M29.34 98.44l-.07-.08v-6.34l.07-.08h.93l.07.08v6.34l-.07.08h-.93z"/><path class="cls-3" d="M30.27 92v6.34h-.93V92h.93m0-.15h-.93l-.15.15v6.34l.15.15h.93l.15-.15V92l-.15-.15z"/><path class="cls-1" d="M40.23 79.06l-.08-.08v-.92l.08-.08h9.7l.07.08v.92l-.07.08h-9.7z"/><path class="cls-3" d="M49.93 78.06V79h-9.7v-.92h9.7m0-.15h-9.7l-.15.15V79l.15.15h9.7l.15-.15v-.92l-.15-.15z"/><path class="cls-1" d="M9.68 79.06l-.08-.08v-.92l.08-.08h9.7l.08.08v.92l-.08.08h-9.7z"/><path class="cls-3" d="M19.38 78.06V79h-9.7v-.92h9.7m0-.15h-9.7l-.15.15V79l.15.15h9.7l.15-.15v-.92l-.15-.15z"/><circle class="cls-1" cx="111.97" cy="78.52" r="4.25"/><path class="cls-1" d="M91.77 98.44V58.6h40.4v39.84zm36.72-3.68V62.28h-33v32.48z"/><path class="cls-3" d="M132.1 58.68v39.68H91.85V58.68h40.25M95.37 94.83h33.2V62.21h-33.2v32.62m36.88-36.3H91.7v40h40.55v-40zm-36.73 3.83h32.9v32.32h-32.9V62.36z"/><path class="cls-1" d="M105.66 73.25c-.07-.07-7.14-6.86-7.58-7.27a3.48 3.48 0 01-.8-2v-5.3l.08-.08h.92l.08.08V64a2.09 2.09 0 00.56 1.33l7.47 7.13v.11l-.63.67z"/><path class="cls-3" d="M98.28 58.68V64a2.12 2.12 0 00.59 1.39l7.47 7.13-.63.67s-7.13-6.86-7.58-7.28a3.25 3.25 0 01-.77-1.91v-5.32h.92m0-.15h-.92l-.15.15V64a3.45 3.45 0 00.79 2c.45.42 7.52 7.21 7.59 7.28h.21l.63-.67v-.21L99 65.29a2 2 0 01-.57-1.29v-5.32l-.15-.15z"/><path class="cls-1" d="M118.18 73.25l-.63-.67v-.11l7.45-7.13a2 2 0 00.56-1.33v-5.33l.08-.08h.92l.08.08V64a3.44 3.44 0 01-.79 2c-.45.41-7.52 7.2-7.59 7.27z"/><path class="cls-3" d="M126.58 58.68V64a3.31 3.31 0 01-.76 1.91c-.45.42-7.59 7.28-7.59 7.28l-.63-.67 7.47-7.13a2.12 2.12 0 00.59-1.39v-5.32h.92m0-.15h-.92l-.15.15V64a2 2 0 01-.54 1.28l-7.47 7.13v.21l.63.67h.22l7.57-7.29a3.44 3.44 0 00.81-2v-5.32l-.15-.15z"/><path class="cls-1" d="M125.66 98.44l-.08-.08V93a2 2 0 00-.58-1.3l-7.47-7.13v-.11l.63-.67h.1c.07.07 7.14 6.86 7.59 7.27a3.43 3.43 0 01.79 2v5.34l-.08.08z"/><path class="cls-3" d="M118.23 83.84s7.14 6.86 7.59 7.28a3.31 3.31 0 01.76 1.91v5.33h-.92V93a2.12 2.12 0 00-.59-1.39l-7.47-7.13.63-.67m.11-.11h-.22l-.63.67v.21l7.51 7.17a2 2 0 01.54 1.29v5.32l.15.15h.92l.15-.15V93a3.45 3.45 0 00-.81-2l-7.58-7.28z"/><path class="cls-1" d="M97.36 98.44l-.08-.08V93a3.45 3.45 0 01.8-2c.44-.41 7.51-7.2 7.58-7.27h.11l.63.67v.11l-7.48 7.19a2.07 2.07 0 00-.56 1.3v5.33l-.08.08z"/><path class="cls-3" d="M105.71 83.84l.63.67-7.47 7.13a2.12 2.12 0 00-.59 1.36v5.33h-.92V93a3.25 3.25 0 01.77-1.91c.45-.42 7.58-7.28 7.58-7.28m-.1-.11c-.07.07-7.14 6.86-7.59 7.28a3.44 3.44 0 00-.81 2v5.34l.15.15h.92l.15-.15V93a2 2 0 01.57-1.25l7.47-7.13v-.21l-.63-.67z"/><path class="cls-1" d="M111.51 65.09l-.08-.07v-6.34l.08-.08h.92l.08.08v6.34l-.08.07h-.92z"/><path class="cls-3" d="M112.43 58.68V65h-.92v-6.32h.92m0-.15h-.92l-.15.15V65l.15.15h.92l.15-.15v-6.32l-.15-.15z"/><path class="cls-1" d="M111.51 98.44l-.08-.08v-6.34l.08-.08h.92l.08.08v6.34l-.08.08h-.92z"/><path class="cls-3" d="M112.43 92v6.34h-.92V92h.92m0-.15h-.92l-.15.15v6.34l.15.15h.92l.15-.15V92l-.15-.15z"/><path class="cls-1" d="M122.39 79.06l-.07-.08v-.92l.07-.08h9.71l.07.08v.92l-.07.08h-9.71z"/><path class="cls-3" d="M132.1 78.06V79h-9.71v-.92h9.71m0-.15h-9.71l-.15.15V79l.15.15h9.71l.15-.15v-.92l-.15-.15z"/><path class="cls-1" d="M91.84 79.06l-.07-.08v-.92l.07-.08h9.71l.07.08v.92l-.07.08h-9.71z"/><path class="cls-3" d="M101.55 78.06V79h-9.7v-.92h9.7m0-.15h-9.7l-.15.15V79l.15.15h9.7l.15-.15v-.92l-.15-.15z"/><path class="cls-4" d="M49.7 88.36h42.38M49.7 97.58h42.38"/><path class="cls-1" d="M91.58 18.78v79.08H50.2V18.78h41.38m.5-.5H49.7v80.08h42.38V18.28z"/><path class="cls-4" d="M49.7 19.13h42.38"/><path class="cls-1" d="M174.26 18.78v79.08H133V18.78h41.24m.5-.5h-42.22v80.08h42.24V18.28z"/><circle class="cls-5" cx="153.64" cy="36.43" r="15.59"/><circle class="cls-5" cx="153.64" cy="66.76" r="12.76"/><path class="cls-6" d="M132.45 90h42.38m-42.38-7.93h42.38"/><rect class="cls-6" x="150.09" y="92.84" width="7.1" height="2.69" rx=".44"/><path class="cls-1" d="M173.44 19.67v61h-39.61v-61h39.61m.25-.25h-40.11v61.51h40.11V19.42z"/></g></svg>