<svg id="Black" xmlns="http://www.w3.org/2000/svg" viewBox="0 0 184.25 184.25">
  <defs>
    <style>
      .cls-1 {
        fill: none;
        stroke: #222221;
        stroke-miterlimit: 10;
        stroke-width: 2px;
      }
    </style>
  </defs>
  <circle class="cls-1" cx="92.13" cy="92.13" r="89.29"/>
  <path class="cls-1" d="M72.23,62.43c0,8.35-14.34,8.35-14.34,16.7s14.34,8.35,14.34,16.7-14.34,8.35-14.34,16.7,14.34,8.36,14.34,16.71"/>
  <path class="cls-1" d="M97.36,62.43c0,8.35-14.34,8.35-14.34,16.7s14.34,8.35,14.34,16.7S83,104.18,83,112.53s14.34,8.36,14.34,16.71"/>
  <polyline class="cls-1" points="126.36 70.56 122.94 62.08 114.46 65.51"/>
  <polyline class="cls-1" points="101.18 120.76 97.75 129.24 89.28 125.82"/>
  <polyline class="cls-1" points="75.81 70.56 72.39 62.08 63.91 65.51"/>
  <path class="cls-1" d="M122.49,62.43c0,8.35-14.34,8.35-14.34,16.7s14.34,8.35,14.34,16.7-14.34,8.35-14.34,16.7,14.34,8.36,14.34,16.71"/>
  <line class="cls-1" x1="15.84" y1="45.69" x2="168.41" y2="45.69"/>
  <line class="cls-1" x1="15.84" y1="140.26" x2="168.41" y2="140.26"/>
</svg>
