<?xml version="1.0" encoding="utf-8"?>
<!-- Generator: Adobe Illustrator 24.1.0, SVG Export Plug-In . SVG Version: 6.00 Build 0)  -->
<svg version="1.1" id="Livello_1" xmlns="http://www.w3.org/2000/svg" xmlns:xlink="http://www.w3.org/1999/xlink" x="0px" y="0px"
	 viewBox="0 0 197.1 66.3" style="enable-background:new 0 0 197.1 66.3;" xml:space="preserve">
<style type="text/css">
	.st0{fill:#1D1D1B;}
	.st1{font-family:'Fakt-Normal';}
	.st2{font-size:8px;}
	.st3{clip-path:url(#SVGID_2_);fill:#1D1D1B;}
	.st4{clip-path:url(#SVGID_2_);}
	.st5{clip-path:url(#SVGID_2_);fill:none;stroke:#13A538;stroke-linecap:round;stroke-linejoin:round;stroke-miterlimit:10;}
	
		.st6{clip-path:url(#SVGID_2_);fill:none;stroke:#000000;stroke-width:0.5;stroke-linecap:round;stroke-linejoin:round;stroke-miterlimit:10;}
	.st7{fill:none;stroke:#E62A32;stroke-linecap:round;stroke-linejoin:round;stroke-miterlimit:10;stroke-dasharray:0.32,3.32;}
	.st8{clip-path:url(#SVGID_4_);fill:none;stroke:#E62A32;stroke-linecap:round;stroke-linejoin:round;stroke-miterlimit:10;}
	
		.st9{clip-path:url(#SVGID_6_);fill:none;stroke:#E62A32;stroke-linecap:round;stroke-linejoin:round;stroke-miterlimit:10;stroke-dasharray:8.000000e-02,3.08;}
	
		.st10{clip-path:url(#SVGID_6_);fill:none;stroke:#E62A32;stroke-linecap:round;stroke-linejoin:round;stroke-miterlimit:10;stroke-dasharray:9.000000e-02,3.09;}
	
		.st11{clip-path:url(#SVGID_6_);fill:none;stroke:#E62A32;stroke-linecap:round;stroke-linejoin:round;stroke-miterlimit:10;stroke-dasharray:8.900000e-02,3.089;}
	
		.st12{clip-path:url(#SVGID_6_);fill:none;stroke:#E62A32;stroke-linecap:round;stroke-linejoin:round;stroke-miterlimit:10;stroke-dasharray:9.800000e-02,3.098;}
	
		.st13{clip-path:url(#SVGID_6_);fill:none;stroke:#E62A32;stroke-linecap:round;stroke-linejoin:round;stroke-miterlimit:10;stroke-dasharray:4.000000e-03,3.004;}
	.st14{clip-path:url(#SVGID_6_);fill:none;stroke:#E62A32;stroke-linecap:round;stroke-linejoin:round;stroke-miterlimit:10;}
	
		.st15{clip-path:url(#SVGID_6_);fill:none;stroke:#000000;stroke-width:0.5;stroke-linecap:round;stroke-linejoin:round;stroke-miterlimit:10;}
	.st16{clip-path:url(#SVGID_6_);fill:none;stroke:#13A538;stroke-linecap:round;stroke-linejoin:round;stroke-miterlimit:10;}
</style>
<text transform="matrix(1 0 0 1 19.8418 44.1275)"><tspan x="0" y="0" class="st0 st1 st2">S</tspan><tspan x="5.2" y="0" class="st0 st1 st2">e</tspan><tspan x="9.4" y="0" class="st0 st1 st2">t tem</tspan><tspan x="27.5" y="0" class="st0 st1 st2">p</tspan><tspan x="32.3" y="0" class="st0 st1 st2">e</tspan><tspan x="36.4" y="0" class="st0 st1 st2">r</tspan><tspan x="39.2" y="0" class="st0 st1 st2">a</tspan><tspan x="43.4" y="0" class="st0 st1 st2">t</tspan><tspan x="46" y="0" class="st0 st1 st2">u</tspan><tspan x="50.5" y="0" class="st0 st1 st2">r</tspan><tspan x="53.3" y="0" class="st0 st1 st2">e</tspan></text>
<text transform="matrix(1 0 0 1 19.8418 55.1275)"><tspan x="0" y="0" class="st0 st1 st2">C</tspan><tspan x="5.8" y="0" class="st0 st1 st2">o</tspan><tspan x="10.3" y="0" class="st0 st1 st2">n</tspan><tspan x="14.7" y="0" class="st0 st1 st2">v</tspan><tspan x="18.4" y="0" class="st0 st1 st2">e</tspan><tspan x="22.6" y="0" class="st0 st1 st2">n</tspan><tspan x="27.1" y="0" class="st0 st1 st2">t</tspan><tspan x="29.7" y="0" class="st0 st1 st2">io</tspan><tspan x="36.1" y="0" class="st0 st1 st2">n</tspan><tspan x="40.5" y="0" class="st0 st1 st2">al </tspan><tspan x="48.4" y="0" class="st0 st1 st2">o</tspan><tspan x="52.8" y="0" class="st0 st1 st2">v</tspan><tspan x="56.5" y="0" class="st0 st1 st2">en tem</tspan><tspan x="80.7" y="0" class="st0 st1 st2">p</tspan><tspan x="85.4" y="0" class="st0 st1 st2">e</tspan><tspan x="89.6" y="0" class="st0 st1 st2">r</tspan><tspan x="92.4" y="0" class="st0 st1 st2">a</tspan><tspan x="96.6" y="0" class="st0 st1 st2">t</tspan><tspan x="99.2" y="0" class="st0 st1 st2">u</tspan><tspan x="103.7" y="0" class="st0 st1 st2">r</tspan><tspan x="106.4" y="0" class="st0 st1 st2">e</tspan></text>
<g>
	<defs>
		<rect id="SVGID_1_" x="0" y="0.1" width="197.1" height="66"/>
	</defs>
	<clipPath id="SVGID_2_">
		<use xlink:href="#SVGID_1_"  style="overflow:visible;"/>
	</clipPath>
	<path class="st3" d="M20.5,62h0.7v4.2h-0.7V62z M22.7,62h0.7v3.5h2.1v0.6h-2.8V62z M25.3,62H26l1.3,3.5h0l1.3-3.5h0.7l-1.6,4.2
		h-0.9L25.3,62z M30,62h3v0.6h-2.3v1.1h1.9v0.6h-1.9v1.2h2.4v0.6H30V62z"/>
	<g class="st4">
		<text transform="matrix(1 0 0 1 35.3618 66.1275)"><tspan x="0" y="0" class="st0 st1 st2">el</tspan><tspan x="6.1" y="0" class="st0 st1 st2">e</tspan><tspan x="10.4" y="0" class="st0 st1 st2">c</tspan><tspan x="14.6" y="0" class="st0 st1 st2">t</tspan><tspan x="17.2" y="0" class="st0 st1 st2">r</tspan><tspan x="19.9" y="0" class="st0 st1 st2">onic </tspan><tspan x="36.7" y="0" class="st0 st1 st2">c</tspan><tspan x="41" y="0" class="st0 st1 st2">o</tspan><tspan x="45.4" y="0" class="st0 st1 st2">n</tspan><tspan x="49.9" y="0" class="st0 st1 st2">t</tspan><tspan x="52.5" y="0" class="st0 st1 st2">r</tspan><tspan x="55.3" y="0" class="st0 st1 st2">ol </tspan><tspan x="63.4" y="0" class="st0 st1 st2">o</tspan><tspan x="67.8" y="0" class="st0 st1 st2">v</tspan><tspan x="71.5" y="0" class="st0 st1 st2">en tem</tspan><tspan x="95.7" y="0" class="st0 st1 st2">p</tspan><tspan x="100.4" y="0" class="st0 st1 st2">e</tspan><tspan x="104.6" y="0" class="st0 st1 st2">r</tspan><tspan x="107.4" y="0" class="st0 st1 st2">a</tspan><tspan x="111.6" y="0" class="st0 st1 st2">t</tspan><tspan x="114.2" y="0" class="st0 st1 st2">u</tspan><tspan x="118.7" y="0" class="st0 st1 st2">r</tspan><tspan x="121.5" y="0" class="st0 st1 st2">e</tspan></text>
	</g>
	<line class="st5" x1="0.5" y1="63.1" x2="15.1" y2="63.1"/>
	<line class="st6" x1="0.7" y1="41.6" x2="15.3" y2="41.6"/>
</g>
<line class="st7" x1="4.2" y1="51.5" x2="13.5" y2="51.5"/>
<g>
	<defs>
		<rect id="SVGID_3_" x="0" y="0.1" width="197.1" height="66"/>
	</defs>
	<clipPath id="SVGID_4_">
		<use xlink:href="#SVGID_3_"  style="overflow:visible;"/>
	</clipPath>
	<path class="st8" d="M15.1,51.5h0.2 M0.7,51.5h0.2"/>
</g>
<g>
	<defs>
		<rect id="SVGID_5_" x="0" y="0.1" width="169.1" height="22.7"/>
	</defs>
	<clipPath id="SVGID_6_">
		<use xlink:href="#SVGID_5_"  style="overflow:visible;"/>
	</clipPath>
	<line class="st9" x1="-20.1" y1="13.1" x2="3.8" y2="0.8"/>
	<line class="st10" x1="7.8" y1="1.9" x2="38.4" y2="22"/>
	<line class="st11" x1="42.4" y1="21.1" x2="72.9" y2="1"/>
	<line class="st11" x1="76.9" y1="1.8" x2="107.5" y2="21.9"/>
	<line class="st12" x1="111.4" y1="21.1" x2="142.3" y2="1"/>
	<line class="st13" x1="146.1" y1="1.7" x2="177.8" y2="22"/>
	<path class="st14" d="M232.3,14.4L232.3,14.4 M213.8,0.2L213.8,0.2l0.1,0 M179.1,22.8L179.1,22.8L179.1,22.8 M143.6,0.2L143.6,0.2
		L143.6,0.2 M108.7,22.8L108.7,22.8L108.7,22.8 M74.2,0.2L74.2,0.2L74.2,0.2 M39.7,22.8L39.7,22.8L39.7,22.8 M5.2,0.1L5.2,0.1
		L5.2,0.1 M-22.9,14.5L-22.9,14.5"/>
	<polyline class="st15" points="242.6,14.5 -7.1,14.5 -23,14.5 	"/>
	<path class="st16" d="M-7.6,14.2c0,0,8.9-4.3,37.4-4.3c45.8,0,43.1,7.7,69.1,7.7c29.9,0,54.8-7.3,79.6-7.5
		c24.8-0.2,45.2,7.5,52.5,7.5"/>
</g>
</svg>
