<svg id="Black" xmlns="http://www.w3.org/2000/svg" viewBox="0 0 184.25 184.25">
  <defs>
    <style>
      .cls-1, .cls-2 {
        fill: none;
      }

      .cls-1, .cls-2, .cls-3 {
        stroke: #222221;
        stroke-miterlimit: 10;
        stroke-width: 2px;
      }

      .cls-2 {
        stroke-linecap: round;
      }

      .cls-3 {
        fill: #222221;
      }
    </style>
  </defs>
  <g>
    <circle class="cls-1" cx="92.13" cy="92.13" r="89.29"/>
    <g>
      <path class="cls-1" d="M69.37,110.81v-64a7.22,7.22,0,0,0-7.22-7.22h0a7.22,7.22,0,0,0-7.22,7.22v64a17.68,17.68,0,1,0,14.44,0Z"/>
      <path class="cls-1" d="M129.32,110.81v-64a7.22,7.22,0,0,0-7.22-7.22h0a7.21,7.21,0,0,0-7.21,7.22v64a17.68,17.68,0,1,0,14.43,0Z"/>
      <g>
        <line class="cls-2" x1="62.15" y1="96.63" x2="62.15" y2="126.46"/>
        <circle class="cls-3" cx="62.15" cy="127.71" r="3.3"/>
      </g>
      <g>
        <line class="cls-2" x1="122.1" y1="48.78" x2="122.1" y2="126.46"/>
        <circle class="cls-3" cx="122.1" cy="127.71" r="3.3"/>
      </g>
    </g>
  </g>
</svg>
