<svg id="Black" xmlns="http://www.w3.org/2000/svg" viewBox="0 0 184.25 184.25"><defs><style>.cls-1{fill:none;stroke:#000;stroke-miterlimit:10;stroke-width:2px}</style></defs><circle class="cls-1" cx="92.13" cy="92.13" r="89.29"/><circle class="cls-1" cx="92.22" cy="92.13" r="52.15"/><ellipse class="cls-1" cx="92.22" cy="92.13" rx="44.45" ry="45.06"/><circle class="cls-1" cx="92.22" cy="92.13" r="33.95"/><path class="cls-1" d="M86.81 47.54l2.97 4.44h5.93l2.96-4.44"/><path d="M92.22 33.12V21.46M76.95 35.13l-3.02-11.26M62.72 41.02l-5.83-10.09M50.5 50.4l-8.25-8.24m-1.13 20.46l-10.1-5.83m4.2 20.06l-11.26-3.01m9.25 18.29H21.56m13.66 15.27l-11.26 3.02m17.16 11.21l-10.1 5.83m19.48 6.39l-8.25 8.24m20.47 1.14l-5.83 10.09m20.06-4.2l-3.02 11.26m18.29-9.25v11.66m15.27-13.67l3.02 11.26m11.21-17.15l5.83 10.09m6.4-19.47l8.24 8.24m1.13-20.46l10.1 5.83m-4.2-20.06l11.26 3.02m-9.25-18.29h11.65m-13.66-15.28l11.26-3.01m-17.16-11.22l10.1-5.83m-19.47-6.39l8.24-8.24m-20.47-1.14l5.83-10.09m-20.06 4.2l3.02-11.26" fill="none" stroke="#000" stroke-miterlimit="10"/></svg>