<svg id="Black" xmlns="http://www.w3.org/2000/svg" viewBox="0 0 184.25 184.25"><defs><style>.cls-1{fill:none;stroke:#222221;stroke-miterlimit:10;stroke-width:2px}</style></defs><circle class="cls-1" cx="91.76" cy="92.13" r="39.45"/><circle class="cls-1" cx="92.13" cy="92.13" r="89.29"/><circle class="cls-1" cx="92.13" cy="92.13" r="63.48"/><ellipse class="cls-1" cx="34.21" cy="92.13" rx="2.97" ry="4.95"/><ellipse class="cls-1" cx="149.31" cy="92.13" rx="2.97" ry="4.95"/><ellipse class="cls-1" cx="45.2" cy="58.3" rx="4.95" ry="2.97" transform="rotate(-54 45.202 58.297)"/><ellipse class="cls-1" cx="138.32" cy="125.95" rx="4.95" ry="2.97" transform="rotate(-54 138.317 125.951)"/><ellipse class="cls-1" cx="73.97" cy="37.39" rx="4.95" ry="2.97" transform="rotate(-18 73.978 37.379)"/><ellipse class="cls-1" cx="109.54" cy="146.86" rx="4.95" ry="2.97" transform="rotate(-18 109.548 146.858)"/><ellipse class="cls-1" cx="109.54" cy="37.39" rx="2.97" ry="4.95" transform="rotate(-72 109.544 37.393)"/><ellipse class="cls-1" cx="73.97" cy="146.86" rx="2.97" ry="4.95" transform="rotate(-72 73.972 146.861)"/><ellipse class="cls-1" cx="138.32" cy="58.3" rx="2.97" ry="4.95" transform="rotate(-36 138.31 58.295)"/><ellipse class="cls-1" cx="45.2" cy="125.95" rx="2.97" ry="4.95" transform="rotate(-36 45.196 125.95)"/><ellipse class="cls-1" cx="146.49" cy="74.34" rx="2.97" ry="4.95" transform="rotate(-18 146.503 74.334)"/><ellipse class="cls-1" cx="37.02" cy="109.91" rx="2.97" ry="4.95" transform="rotate(-18 37.024 109.904)"/><ellipse class="cls-1" cx="146.49" cy="109.91" rx="4.95" ry="2.97" transform="rotate(-72 146.492 109.913)"/><ellipse class="cls-1" cx="37.02" cy="74.34" rx="4.95" ry="2.97" transform="rotate(-72 37.024 74.341)"/><ellipse class="cls-1" cx="125.58" cy="138.69" rx="4.95" ry="2.97" transform="rotate(-36 125.58 138.68)"/><ellipse class="cls-1" cx="57.93" cy="45.57" rx="4.95" ry="2.97" transform="rotate(-36 57.925 45.566)"/><ellipse class="cls-1" cx="91.76" cy="149.68" rx="4.95" ry="2.97"/><ellipse class="cls-1" cx="91.76" cy="34.58" rx="4.95" ry="2.97"/><ellipse class="cls-1" cx="57.93" cy="138.69" rx="2.97" ry="4.95" transform="rotate(-54 57.925 138.684)"/><ellipse class="cls-1" cx="125.58" cy="45.57" rx="2.97" ry="4.95" transform="rotate(-54 125.58 45.569)"/></svg>