<svg xmlns="http://www.w3.org/2000/svg" viewBox="0 0 113.39 113.39"><defs><style>.cls-1{fill:#222221}.cls-3{fill:#fff}</style></defs><g id="Piano"><path class="cls-1" d="M110.12 7.59v95.35c0 1-1.45 2.86-4.11 2.86H7.37c-2.65 0-4.1-1.89-4.1-2.86V7.59h106.85m.5-.5H2.77v95.85c0 1.29 1.7 3.36 4.6 3.36H106c2.9 0 4.61-2.07 4.61-3.36V7.09z"/><path stroke="#222221" stroke-linejoin="round" stroke-width=".25" fill="none" d="M2.76 9.21h107.86"/><circle class="cls-1" cx="88.41" cy="38.48" r="6.38"/></g><g id="Bruciatori_e_griglie" data-name="Bruciatori e griglie"><path class="cls-1" d="M56.67 50.24a8.51 8.51 0 108.5 8.5 8.51 8.51 0 00-8.5-8.5zm0 13.18a4.68 4.68 0 114.67-4.68 4.67 4.67 0 01-4.67 4.68zm0-1.49a3.19 3.19 0 113.18-3.19 3.19 3.19 0 01-3.18 3.19z"/><circle class="cls-1" cx="88.41" cy="78.31" r="4.25"/><circle class="cls-1" cx="24.81" cy="78.31" r="6.38"/><circle class="cls-1" cx="24.81" cy="38.48" r="4.25"/><path class="cls-1" d="M24.81 33.16a.63.63 0 01-.63-.62v-14h1.25v14a.62.62 0 01-.62.62z"/><path class="cls-3" d="M25.35 18.6v13.94a.55.55 0 01-1.09 0V18.6h1.09m.15-.15h-1.39v14.09a.7.7 0 001.39 0V18.45z"/><path class="cls-1" d="M88.41 33.16a.62.62 0 01-.62-.62v-14H89v14a.62.62 0 01-.59.62z"/><path class="cls-3" d="M89 18.6v13.94a.55.55 0 01-1.09 0V18.6H89m.15-.15h-1.43v14.09a.7.7 0 001.39 0V18.45z"/><path class="cls-1" d="M87.79 98.61v-14a.62.62 0 01.62-.62.61.61 0 01.62.62v14z"/><path class="cls-3" d="M88.41 84.05a.55.55 0 01.55.55v13.94h-1.09V84.6a.55.55 0 01.54-.55m0-.15a.69.69 0 00-.69.7v14.09h1.39V84.6a.7.7 0 00-.7-.7z"/><path class="cls-1" d="M24.18 98.61v-14a.63.63 0 011.25 0v14z"/><path class="cls-3" d="M24.81 84.05a.55.55 0 01.54.55v13.94h-1.09V84.6a.55.55 0 01.55-.55m0-.15a.7.7 0 00-.7.7v14.09h1.39V84.6a.69.69 0 00-.69-.7z"/><path class="cls-1" d="M24.81 72.64a.63.63 0 01-.63-.62V45.14a.63.63 0 011.25 0V72a.62.62 0 01-.62.64z"/><path class="cls-3" d="M24.81 44.59a.55.55 0 01.54.55V72a.55.55 0 01-1.09 0V45.14a.55.55 0 01.55-.55m0-.15a.7.7 0 00-.7.7V72a.7.7 0 001.39 0V45.14a.69.69 0 00-.69-.7z"/><path class="cls-1" d="M73 39.1a.62.62 0 010-1.24h9.11a.62.62 0 010 1.24z"/><path class="cls-3" d="M82.13 37.93a.55.55 0 010 1.1H73a.55.55 0 010-1.1h9.11m0-.15H73a.7.7 0 000 1.4h9.11a.7.7 0 000-1.4z"/><path class="cls-1" d="M94.56 39.1a.62.62 0 110-1.24h13.56a.62.62 0 010 1.24z"/><path class="cls-3" d="M108.12 37.93a.55.55 0 010 1.1H94.56a.55.55 0 110-1.1h13.56m0-.15H94.56a.7.7 0 000 1.4h13.56a.7.7 0 000-1.4z"/><path class="cls-1" d="M31.2 39.1a.62.62 0 110-1.24h9.11a.62.62 0 110 1.24z"/><path class="cls-3" d="M40.31 37.93a.55.55 0 010 1.1H31.2a.55.55 0 010-1.1h9.11m0-.15H31.2a.7.7 0 000 1.4h9.11a.7.7 0 000-1.4z"/><path class="cls-1" d="M5.21 39.1a.62.62 0 110-1.24h13.57a.62.62 0 010 1.24z"/><path class="cls-3" d="M18.78 37.93a.55.55 0 010 1.1H5.21a.55.55 0 010-1.1h13.57m0-.15H5.21a.7.7 0 000 1.4h13.57a.7.7 0 000-1.4z"/><path class="cls-1" d="M73 78.93a.62.62 0 01-.62-.62.61.61 0 01.62-.62h9.11a.62.62 0 01.62.62.62.62 0 01-.62.62z"/><path class="cls-3" d="M82.13 77.76a.55.55 0 01.54.55.54.54 0 01-.54.54H73a.55.55 0 01-.55-.54.55.55 0 01.55-.55h9.11m0-.15H73A.7.7 0 1073 79h9.11a.7.7 0 000-1.39z"/><path class="cls-1" d="M94.56 78.93a.63.63 0 01-.63-.62.62.62 0 01.63-.62h13.56a.62.62 0 01.62.62.62.62 0 01-.62.62z"/><path class="cls-3" d="M108.12 77.76a.55.55 0 01.54.55.54.54 0 01-.54.54H94.56a.54.54 0 01-.55-.54.55.55 0 01.55-.55h13.56m0-.15H94.56a.7.7 0 100 1.39h13.56a.7.7 0 000-1.39z"/><path class="cls-1" d="M31.2 78.93a.62.62 0 01-.62-.62.62.62 0 01.62-.62h9.11a.61.61 0 01.62.62.62.62 0 01-.62.62z"/><path class="cls-3" d="M40.31 77.76a.55.55 0 01.55.55.54.54 0 01-.55.54H31.2a.54.54 0 01-.54-.54.55.55 0 01.54-.55h9.11m0-.15H31.2a.7.7 0 000 1.39h9.11a.7.7 0 100-1.39z"/><path class="cls-1" d="M5.21 78.93a.62.62 0 01-.62-.62.62.62 0 01.62-.62h13.57a.62.62 0 01.62.62.62.62 0 01-.62.62z"/><path class="cls-3" d="M18.78 77.76a.55.55 0 01.54.55.54.54 0 01-.54.54H5.21a.54.54 0 01-.54-.54.55.55 0 01.54-.55h13.57m0-.15H5.21a.7.7 0 000 1.39h13.57a.7.7 0 000-1.39z"/><path class="cls-1" d="M88.41 72.64a.62.62 0 01-.62-.62V45.14a.62.62 0 01.62-.62.61.61 0 01.62.62V72a.62.62 0 01-.62.64z"/><path class="cls-3" d="M88.41 44.59a.55.55 0 01.55.55V72a.55.55 0 01-1.09 0V45.14a.55.55 0 01.54-.55m0-.15a.69.69 0 00-.69.7V72a.7.7 0 001.39 0V45.14a.7.7 0 00-.7-.7z"/><path class="cls-1" d="M5.8 98.61a1.21 1.21 0 01-1.21-1.21V19.73a1.21 1.21 0 011.21-1.21h101.73a1.21 1.21 0 011.21 1.21V97.4a1.21 1.21 0 01-1.21 1.21zM83 60.09a.57.57 0 00-.53.64 24.52 24.52 0 01-2.24 8.59 27.25 27.25 0 01-4.54 6.87c-.43.47-.58.74-.58.83v17.4a.49.49 0 00.49.49h29a.49.49 0 00.49-.49V60.09zM8.27 94.42a.49.49 0 00.49.49h29a.49.49 0 00.49-.49V77c0-.09-.15-.36-.58-.83a27.66 27.66 0 01-4.54-6.87 24.52 24.52 0 01-2.24-8.59c0-.44-.27-.64-.53-.64H8.27zm34.25-72.16a.49.49 0 00-.49.49V42l-.41.41-.12.12v32.13l.1.06.38.36L42 94.4a.49.49 0 00.49.49h28.32a.49.49 0 00.5-.49V75.18a5.55 5.55 0 01.41-.42l.11-.1V42.42h-.08l-.4-.37V22.79a.49.49 0 00-.5-.49zM73.39 73a22.07 22.07 0 000-28.95zM39.94 44.16a22.08 22.08 0 000 28.82zm35.62-21.92a.49.49 0 00-.49.5v17.4c0 .09.15.35.58.82a27.58 27.58 0 014.54 6.88 24.42 24.42 0 012.24 8.59.56.56 0 00.53.63h22.1V22.74a.49.49 0 00-.49-.5zM30.37 57.06a.56.56 0 00.53-.63 24.42 24.42 0 012.24-8.59A27.79 27.79 0 0137.68 41c.43-.47.58-.73.58-.82V22.74a.49.49 0 00-.49-.5h-29a.49.49 0 00-.49.5v34.32z"/><path class="cls-3" d="M107.53 18.6a1.12 1.12 0 011.13 1.13V97.4a1.13 1.13 0 01-1.13 1.14H5.8a1.14 1.14 0 01-1.13-1.14V19.73A1.13 1.13 0 015.8 18.6h101.73M83 57.14h22.18v-34.4a.57.57 0 00-.57-.57h-29a.57.57 0 00-.57.57v17.4a2.32 2.32 0 00.61.87 27.73 27.73 0 014.52 6.86 24.24 24.24 0 012.23 8.56.64.64 0 00.61.71m-74.77 0h22.13a.64.64 0 00.61-.71 24.24 24.24 0 012.23-8.56A27.42 27.42 0 0137.74 41a2.26 2.26 0 00.6-.87V22.74a.57.57 0 00-.57-.57h-29a.57.57 0 00-.57.57v34.4M42.52 95h28.29a.57.57 0 00.57-.57V75.18l.51-.47V42.42l-.51-.42V22.75a.56.56 0 00-.57-.56H42.52a.56.56 0 00-.57.56V42l-.5.47v32.19l.5.47V94.4a.57.57 0 00.57.57m30.79-21.73a22.15 22.15 0 000-29.35v29.35M40 73.18V44a22.14 22.14 0 000 29.23M75.56 95h29a.58.58 0 00.57-.57V60H83a.64.64 0 00-.61.71 24.3 24.3 0 01-2.23 8.56 27.62 27.62 0 01-4.52 6.85A2.33 2.33 0 0075 77v17.4a.58.58 0 00.57.57M8.76 95h29a.58.58 0 00.57-.57V77a2.28 2.28 0 00-.6-.88 27.32 27.32 0 01-4.53-6.85 24.3 24.3 0 01-2.2-8.54.64.64 0 00-.61-.71H8.19v34.4a.58.58 0 00.57.57m98.77-76.54H5.8a1.28 1.28 0 00-1.28 1.28V97.4a1.28 1.28 0 001.28 1.29h101.73a1.28 1.28 0 001.28-1.29V19.73a1.28 1.28 0 00-1.28-1.28zM83 57a.5.5 0 01-.46-.56 24.56 24.56 0 00-2.24-8.62 27.86 27.86 0 00-4.55-6.9c-.45-.48-.57-.72-.57-.77V22.74a.42.42 0 01.42-.42h29a.42.42 0 01.42.42V57zM8.34 57V22.74a.42.42 0 01.42-.42h29a.42.42 0 01.42.42v17.4s-.12.29-.57.77a27.86 27.86 0 00-4.55 6.9 24.56 24.56 0 00-2.24 8.62.5.5 0 01-.46.56zM41.6 42.54l.07-.08.38-.35h.05V22.75a.41.41 0 01.42-.41h28.29a.41.41 0 01.42.41V42l.38.35.08.08v32.22l-.08.07-.38.35V94.4a.42.42 0 01-.42.42H42.52a.42.42 0 01-.42-.42V75.07h-.05l-.38-.35-.07-.07V42.54zm31.86 30.3V44.3a22 22 0 010 28.54zm-33.59-.07a22 22 0 010-28.41v28.41zm35.69 22.07a.42.42 0 01-.42-.42V77c0-.06.12-.29.57-.78a27.94 27.94 0 004.55-6.89 24.61 24.61 0 002.24-8.62c0-.39.24-.56.46-.56h22v34.27a.42.42 0 01-.42.42zM8.34 60.17h22c.22 0 .46.17.46.56a24.61 24.61 0 002.24 8.62 27.94 27.94 0 004.55 6.89c.45.49.57.72.57.78v17.4a.42.42 0 01-.42.42h-29a.42.42 0 01-.42-.42V60.17z"/><path class="cls-1" d="M50.22 52.82a.62.62 0 01-.44-.18l-9.1-9.19v-5.38l.91-1L50 28.66a.61.61 0 01.44-.19.61.61 0 01.62.62.6.6 0 01-.18.44L42 38.44v4.63l8.63 8.69a.62.62 0 01.18.44.59.59 0 01-.18.44.6.6 0 01-.44.18z"/><path class="cls-3" d="M50.39 28.55a.51.51 0 01.38.16.54.54 0 010 .77L42 38.39v4.68l8.66 8.75a.54.54 0 11-.77.77l-7.89-8-1.27-1.19v-5.33l.89-.9L50 28.71a.54.54 0 01.39-.16m0-.15a.72.72 0 00-.5.2l-8.37 8.46-.89.9h-.05v5.45h.05l1.21 1.23 7.89 8a.71.71 0 00.49.21.68.68 0 00.49-.2.7.7 0 000-1L42.1 43v-4.55l8.78-8.87a.69.69 0 00-.49-1.18z"/><path class="cls-1" d="M63.11 52.82a.6.6 0 01-.44-.18.58.58 0 01-.18-.43.63.63 0 01.18-.45L71.33 43v-4.63l-8.83-8.84a.6.6 0 01-.18-.44.61.61 0 01.19-.44.62.62 0 01.43-.18.6.6 0 01.44.19L72.65 38v5.4l-1.24 1.28-7.88 8a.6.6 0 01-.42.14z"/><path class="cls-3" d="M62.94 28.55a.54.54 0 01.39.16l8.38 8.46.89.9v5.33l-1.22 1.23-7.88 8a.59.59 0 01-.39.16.55.55 0 01-.39-.93l8.66-8.75v-4.72l-8.83-8.91a.54.54 0 010-.77.51.51 0 01.38-.16m0-.15a.69.69 0 00-.49 1.18l8.78 8.87V43l-8.62 8.7a.7.7 0 000 1 .68.68 0 00.49.2.69.69 0 00.49-.21l7.89-8 1.22-1.23V38l-.89-.9-8.36-8.5a.7.7 0 00-.5-.2z"/><path class="cls-1" d="M50.39 89a.6.6 0 01-.44-.18l-9.27-9.36v-5.37l1.24-1.28 7.88-8a.63.63 0 01.44-.19.65.65 0 01.44.18.62.62 0 01.18.44.6.6 0 01-.18.44L42 74.47v4.63l8.83 8.9a.59.59 0 01.18.44.61.61 0 01-.62.61z"/><path class="cls-3" d="M50.22 64.74a.55.55 0 01.39.93L42 74.41v4.69l8.78 8.9a.54.54 0 010 .77.51.51 0 01-.38.16.54.54 0 01-.39-.16l-8.38-8.46-.89-.9v-5.32L42 72.86l7.89-8a.51.51 0 01.38-.16m0-.15a.67.67 0 00-.49.21l-7.89 8L40.63 74h-.05v5.45h.05l.89.89 8.37 8.46a.69.69 0 00.5.21.7.7 0 00.49-.2.71.71 0 000-1L42.1 79v-4.52l8.62-8.7a.72.72 0 00.2-.5.71.71 0 00-.21-.49.68.68 0 00-.49-.2z"/><path class="cls-1" d="M62.94 89a.58.58 0 01-.43-.18.59.59 0 01-.19-.43.6.6 0 01.18-.39l8.83-8.91v-4.64l-8.64-8.69a.6.6 0 01-.18-.44.62.62 0 01.18-.44.65.65 0 01.44-.18.61.61 0 01.44.19L72.65 74v5.38l-.91 1-8.38 8.46a.59.59 0 01-.44.18z"/><path class="cls-3" d="M63.11 64.74a.54.54 0 01.39.16l7.88 8 1.22 1.23v5.33l-.89.9-8.38 8.46a.54.54 0 01-.39.16.51.51 0 01-.38-.16.54.54 0 010-.77l8.83-8.91v-4.73l-8.66-8.74a.55.55 0 01.39-.93m0-.15a.68.68 0 00-.49.2.71.71 0 00-.21.49.72.72 0 00.2.5l8.62 8.7V79l-8.79 8.9a.71.71 0 000 1 .7.7 0 00.49.2.67.67 0 00.5-.21l8.38-8.46.89-.89V74l-1.22-1.23-7.89-8a.65.65 0 00-.49-.21z"/><path d="M40.73 38.07V18.6M72.6 38.07V18.6M40.73 98.54V79.42M72.6 98.54V79.42" stroke="#fff" stroke-linejoin="bevel" stroke-width=".15" fill="none"/></g></svg>