<svg xmlns="http://www.w3.org/2000/svg" viewBox="0 0 130.39 164.41"><defs><style>.cls-10,.cls-11,.cls-3{fill:#20201e}.cls-2,.cls-4,.cls-5,.cls-6,.cls-8,.cls-9{stroke:#20201e}.cls-2,.cls-8,.cls-9{stroke-miterlimit:1.41}.cls-2,.cls-5,.cls-6,.cls-8{fill:#fff}.cls-2,.cls-6{stroke-width:.3px}.cls-4,.cls-9{fill:none}.cls-4,.cls-5,.cls-6{stroke-miterlimit:10}.cls-4{stroke-width:.5px}.cls-5{stroke-width:.4px}.cls-8,.cls-9{stroke-width:.25px}.cls-10,.cls-11{font-size:7px;font-family:Fakt-Normal,Fakt}.cls-11{letter-spacing:-.02em}</style></defs><g id="Ranges"><path d="M73.67 25.36v-3.51h18.02l-5.55 1.33H77.7v2.18h-4.03zm46.56.04v-3.51H101.8l5.54 1.33h8.45v2.18h4.44zm-23.84-3.55h1.08v3.5h-1.08zM73.67 25.4v-3.55H55.38l5.51 1.35h8.38v2.2h4.4zm-46.55.04v-3.55h17.89l-5.51 1.35h-8.38v2.2h-4zM50 21.85h1.08v3.55H50z" stroke-width=".2" stroke-miterlimit="1.41" stroke="#20201e" fill="#20201e"/><path class="cls-2" d="M40.41 58.75h68.66v3.48H40.41zm-5.82 1.07h4.13v1.23h-4.13z"/><ellipse class="cls-2" cx="33.98" cy="60.38" rx="1.85" ry="1.9"/><path class="cls-2" d="M39.64 60.85h1.2v4h-1.2z"/><rect class="cls-2" x="37.03" y="58.26" width="5.01" height="4.47" rx=".24"/><path class="cls-2" d="M109.07 59.82h4.13v1.23h-4.13z"/><ellipse class="cls-2" cx="113.65" cy="60.38" rx="1.85" ry="1.9"/><ellipse class="cls-2" cx="113.65" cy="60.38" rx="1.85" ry="1.9"/><path class="cls-2" d="M107.01 60.85h1.2v4h-1.2z"/><rect class="cls-2" x="105.6" y="58.26" width="5.01" height="4.47" rx=".24"/><ellipse class="cls-3" cx="108.57" cy="37.24" rx="1.2" ry="1.24"/><ellipse class="cls-3" cx="66.98" cy="37.24" rx="1.2" ry="1.24"/><rect class="cls-4" x="39.81" y="71.75" width="68.03" height="41.68" rx="1.64"/><path class="cls-4" d="M121.48 53.86H25.87m-6.03-22.68h107.72M19.84 25.51h107.72M19.84 136.06V17.01h107.72v119.05"/><circle class="cls-5" cx="51.17" cy="42.67" r="3.62"/><rect class="cls-6" x="52.43" y="41.97" width="4.31" height="1.39" rx=".56"/><circle class="cls-6" cx="51.17" cy="42.67" r="2.09"/><circle class="cls-5" cx="61.41" cy="42.67" r="3.62"/><rect class="cls-6" x="62.67" y="41.97" width="4.31" height="1.39" rx=".56"/><circle class="cls-6" cx="61.41" cy="42.67" r="2.09"/><circle class="cls-5" cx="71.78" cy="42.67" r="3.62"/><rect class="cls-6" x="73.04" y="41.97" width="4.31" height="1.39" rx=".56"/><circle class="cls-6" cx="71.78" cy="42.67" r="2.09"/><circle class="cls-5" cx="82.33" cy="42.67" r="3.62"/><rect class="cls-6" x="83.59" y="41.97" width="4.31" height="1.39" rx=".56"/><circle class="cls-6" cx="82.33" cy="42.67" r="2.09"/><circle class="cls-5" cx="92.73" cy="42.67" r="3.62"/><rect class="cls-6" x="93.99" y="41.97" width="4.31" height="1.39" rx=".56"/><circle class="cls-6" cx="92.73" cy="42.67" r="2.09"/><circle class="cls-5" cx="102.9" cy="42.67" r="3.62"/><rect class="cls-6" x="104.17" y="41.97" width="4.31" height="1.39" rx=".56"/><circle class="cls-6" cx="102.9" cy="42.67" r="2.09"/><circle class="cls-5" cx="113.21" cy="42.67" r="3.62"/><rect class="cls-6" x="114.48" y="41.97" width="4.31" height="1.39" rx=".56"/><circle class="cls-6" cx="113.21" cy="42.67" r="2.09"/><path class="cls-4" d="M30.98 38.14h13.24v8.07H30.98zm90.46 95.09h-95.6"/><path stroke-width=".48" stroke-miterlimit="10" fill="none" stroke="#20201e" d="M121.5 155.91H25.84"/><path class="cls-3" d="M119.53 135.15V154H27.76v-18.85h91.77m.5-.5H27.26v19.84H120v-19.84zm-.47-78.87v75.53H27.79V55.78h91.77m.5-.5H27.29v76.53h92.77V55.28zm-.5-22.18v18.84H27.79V33.1h91.77m.5-.5H27.29v19.84h92.77V32.6z"/><path class="cls-4" d="M19.84 31.18h6.03V155.9h-6.03zm101.69 0h6.03V155.9h-6.03z"/><path class="cls-3" d="M25.88 156.16h5.17v2.33h-5.17z"/><path class="cls-3" d="M30.8 156.41v1.83h-4.67v-1.83h4.67m.5-.5h-5.67v2.83h5.67v-2.83zm85.06.25h5.17v2.33h-5.17z"/><path class="cls-3" d="M121.28 156.41v1.83h-4.67v-1.83h4.67m.5-.5h-5.67v2.83h5.67v-2.83z"/></g><g id="Dimensions"><path class="cls-8" d="M25.63 158.61H11.34m14.29-2.7H11.34m8.5-138.9h-8.5m8.5 8.5h-8.5"/><path class="cls-9" d="M14.17 25.78V155.5"/><path class="cls-3" d="M13.15 26.61l.18.17.84-.9.84.9.19-.17-1.03-1.1-1.02 1.1zm0 128.06l.18-.17.84.9.84-.9.19.17-1.03 1.1-1.02-1.1z"/><text class="cls-10" transform="rotate(-90 48.335 38.415)">890</text><text class="cls-11" transform="rotate(-90 11.165 1.245)">60</text><text class="cls-11" transform="rotate(-90 85.575 75.655)">20</text><path class="cls-9" d="M14.17 8.5v8.24"/><path class="cls-3" d="M13.15 15.91l.18-.17.84.9.84-.9.19.17-1.03 1.1-1.02-1.1z"/><path class="cls-9" d="M14.17 162.99v-3.98"/><path class="cls-3" d="M15.2 159.84l-.19.17-.84-.9-.84.9-.18-.17 1.02-1.1 1.03 1.1z"/><path class="cls-9" d="M14.17 25.51v-8.5"/><path class="cls-8" d="M19.84 16.98v-8.5m107.72 8.5v-8.5"/><path class="cls-9" d="M127.29 11.31H20.11"/><path class="cls-3" d="M126.46 10.29l-.17.18.9.84-.9.84.17.18 1.1-1.02-1.1-1.02zm-105.52 0l.17.18-.9.84.9.84-.17.18-1.1-1.02 1.1-1.02z"/><text class="cls-10" transform="translate(67.74 7.06)">760</text></g></svg>