<svg id="Black" xmlns="http://www.w3.org/2000/svg" viewBox="0 0 184.25 184.25">
  <defs>
    <style>
      .cls-1 {
        fill: none;
        stroke: #222221;
        stroke-miterlimit: 10;
        stroke-width: 2px;
      }
    </style>
  </defs>
  <circle class="cls-1" cx="92.13" cy="92.13" r="89.29" transform="translate(-38.16 92.13) rotate(-45)"/>
  <g>
    <ellipse class="cls-1" cx="92.13" cy="84.26" rx="62.43" ry="25.85"/>
    <path class="cls-1" d="M150.26,74.82c5.55,5.34,8.09,18.92,8.09,23.6,0,15.13-29.67,27.42-66.22,27.42S25.9,113.55,25.9,98.42c0-4.68,2.75-18.5,8.09-23.6"/>
    <path class="cls-1" d="M32.75,97.28a3,3,0,1,1-3.05,3A3.06,3.06,0,0,1,32.75,97.28Z"/>
    <path class="cls-1" d="M152.08,97.28a3,3,0,1,1-3.05,3A3.06,3.06,0,0,1,152.08,97.28Z"/>
    <path class="cls-1" d="M44.92,107.05a3,3,0,1,1-3.05,3A3.06,3.06,0,0,1,44.92,107.05Z"/>
    <path class="cls-1" d="M139.33,107.05a3,3,0,1,1-3.05,3A3,3,0,0,1,139.33,107.05Z"/>
    <path class="cls-1" d="M65.82,113.15a3,3,0,1,1-3,3A3.06,3.06,0,0,1,65.82,113.15Z"/>
    <path class="cls-1" d="M92.13,116.2a3,3,0,1,1-3,3A3.06,3.06,0,0,1,92.13,116.2Z"/>
    <path class="cls-1" d="M118.43,113.15a3,3,0,1,1-3.05,3A3.06,3.06,0,0,1,118.43,113.15Z"/>
  </g>
</svg>
