<svg id="Black" xmlns="http://www.w3.org/2000/svg" viewBox="0 0 184.25 184.25">
  <defs>
    <style>
      .cls-1 {
        fill: none;
        stroke: #222221;
        stroke-miterlimit: 10;
        stroke-width: 2px;
      }
    </style>
  </defs>
  <circle class="cls-1" cx="92.13" cy="92.13" r="89.29"/>
  <g>
    <g>
      <path class="cls-1" d="M92.13,92.13c8.35,8.49,23.33,7.29,33.44-2.66s11.54-24.91,3.18-33.4Z"/>
      <path class="cls-1" d="M92.13,92.13c-8.36-8.49-23.34-7.3-33.45,2.65S47.14,119.7,55.5,128.19Z"/>
      <path class="cls-1" d="M92.13,92.13c-8.49,8.35-7.3,23.33,2.65,33.44s24.92,11.54,33.41,3.18Z"/>
      <path class="cls-1" d="M92.13,92.13c8.49-8.36,7.29-23.34-2.66-33.45S64.56,47.14,56.07,55.5Z"/>
    </g>
    <path class="cls-1" d="M47.33,45.18a73.39,73.39,0,0,0-.73,93.18"/>
    <path class="cls-1" d="M136.92,139.07a73.39,73.39,0,0,0,.73-93.18"/>
  </g>
</svg>
