<svg id="Black" xmlns="http://www.w3.org/2000/svg" viewBox="0 0 184.25 184.25">
  <defs>
    <style>
      .cls-1 {
        fill: none;
        stroke: #222221;
        stroke-miterlimit: 10;
        stroke-width: 2px;
      }
    </style>
  </defs>
  <circle class="cls-1" cx="92.13" cy="92.13" r="89.29" transform="translate(-38.16 92.13) rotate(-45)"/>
  <g>
    <polygon class="cls-1" points="153.11 96.66 30.5 96.66 14.42 114.44 169.84 114.44 153.11 96.66"/>
    <rect class="cls-1" x="30.5" y="81.29" width="123.24" height="15.37"/>
    <path class="cls-1" d="M163.86,73.91a4.28,4.28,0,0,0-1.11-2.9,3.65,3.65,0,0,0-2.67-1.2H24.17A3.67,3.67,0,0,0,21.5,71a4.28,4.28,0,0,0-1.11,2.9V77.2a4.27,4.27,0,0,0,1.11,2.89,3.63,3.63,0,0,0,2.67,1.2H160.08a3.62,3.62,0,0,0,2.67-1.2,4.27,4.27,0,0,0,1.11-2.89Z"/>
    <path class="cls-1" d="M37.6,85.54A3.46,3.46,0,1,1,34.14,89,3.46,3.46,0,0,1,37.6,85.54Z"/>
    <path class="cls-1" d="M81.22,85.54A3.46,3.46,0,1,1,77.76,89,3.46,3.46,0,0,1,81.22,85.54Z"/>
    <path class="cls-1" d="M48.51,85.54A3.46,3.46,0,1,1,45,89,3.46,3.46,0,0,1,48.51,85.54Z"/>
    <path class="cls-1" d="M92.13,85.54A3.46,3.46,0,1,1,88.66,89,3.46,3.46,0,0,1,92.13,85.54Z"/>
    <path class="cls-1" d="M59.41,85.54A3.46,3.46,0,1,1,56,89,3.46,3.46,0,0,1,59.41,85.54Z"/>
    <path class="cls-1" d="M103,85.54A3.46,3.46,0,1,1,99.57,89,3.46,3.46,0,0,1,103,85.54Z"/>
    <path class="cls-1" d="M124.84,85.54A3.46,3.46,0,1,1,121.38,89,3.46,3.46,0,0,1,124.84,85.54Z"/>
    <path class="cls-1" d="M70.32,85.54A3.46,3.46,0,1,1,66.85,89,3.46,3.46,0,0,1,70.32,85.54Z"/>
    <path class="cls-1" d="M113.94,85.54A3.46,3.46,0,1,1,110.47,89,3.46,3.46,0,0,1,113.94,85.54Z"/>
    <path class="cls-1" d="M135.75,85.54A3.46,3.46,0,1,1,132.28,89,3.46,3.46,0,0,1,135.75,85.54Z"/>
    <path class="cls-1" d="M146.65,85.54A3.46,3.46,0,1,1,143.19,89,3.46,3.46,0,0,1,146.65,85.54Z"/>
  </g>
</svg>
