<svg xmlns="http://www.w3.org/2000/svg" viewBox="0 0 226.77 113.39"><defs><style>.cls-1{fill:#222221}.cls-4,.cls-6{fill:none;stroke:#222221}.cls-6{stroke-linejoin:round;stroke-width:.25px}.cls-3{fill:#fff}.cls-4{stroke-miterlimit:3.86;stroke-width:.5px}.cls-6{stroke-linecap:round}</style></defs><g id="Piano"><path class="cls-1" d="M220 7.59v95.35c0 1-1.33 2.86-3.77 2.86H10.58c-2.44 0-3.77-1.89-3.77-2.86V7.59H220m.5-.5H6.31v95.85c0 1.29 1.58 3.36 4.27 3.36h205.61c2.69 0 4.27-2.07 4.27-3.36V7.09z"/><path stroke-linejoin="round" stroke-width=".25" fill="none" stroke="#222221" d="M6.31 9.21h214.15"/></g><g id="Bruciatori_e_griglie" data-name="Bruciatori e griglie"><circle class="cls-1" cx="29.83" cy="38.13" r="6.38"/><path class="cls-1" d="M9.63 58V18.21H50V58zm36.73-3.68V21.89h-33v32.47z"/><path class="cls-3" d="M50 18.28V58H9.71V18.28H50M13.24 54.44h33.19V21.81H13.24v32.63m36.87-36.31H9.56v40h40.55v-40zM13.39 22h32.89v32.29H13.39V22z"/><path class="cls-1" d="M23.52 32.86c-.07-.07-7.14-6.86-7.58-7.27a3.4 3.4 0 01-.79-2v-5.31l.07-.07h.93l.07.07v5.34a2 2 0 00.57 1.38l7.47 7.13v.1l-.63.67z"/><path class="cls-3" d="M16.15 18.28v5.34a2.14 2.14 0 00.58 1.38l7.47 7.13-.63.67S16.44 26 16 25.53a3.32 3.32 0 01-.77-1.91v-5.34h.93m0-.15h-.93l-.15.15v5.34a3.46 3.46 0 00.82 2c.44.41 7.51 7.2 7.58 7.27h.21l.63-.68V32l-7.47-7.13a1.94 1.94 0 01-.54-1.28v-5.31l-.15-.15z"/><path class="cls-1" d="M36 32.85l-.63-.67v-.1L42.88 25a2 2 0 00.57-1.34v-5.38l.07-.07h.93l.07.07v5.34a3.4 3.4 0 01-.79 2c-.44.41-7.51 7.2-7.58 7.27z"/><path class="cls-3" d="M44.45 18.28v5.34a3.39 3.39 0 01-.77 1.91c-.45.42-7.58 7.27-7.58 7.27l-.64-.67L42.94 25a2.14 2.14 0 00.58-1.38v-5.34h.93m0-.15h-.93l-.15.15v5.34a1.93 1.93 0 01-.54 1.27L35.36 32v.21l.63.68h.21c.07-.07 7.14-6.86 7.58-7.27a3.46 3.46 0 00.82-2v-5.34l-.15-.15z"/><path class="cls-1" d="M43.52 58h-.07v-5.37a2 2 0 00-.57-1.33l-7.47-7.12v-.11l.59-.67h.11l7.58 7.28a3.37 3.37 0 01.79 2V58l-.07.07z"/><path class="cls-3" d="M36.1 43.45s7.13 6.85 7.58 7.27a3.42 3.42 0 01.77 1.91V58h-.93v-5.37a2.17 2.17 0 00-.58-1.38l-7.48-7.13.64-.67m.1-.11H36l-.63.67v.21l7.47 7.13a2 2 0 01.54 1.28V58l.15.15h.93l.14-.15v-5.37a3.46 3.46 0 00-.82-2c-.44-.41-7.51-7.2-7.58-7.27z"/><path class="cls-1" d="M15.22 58h-.07v-5.37a3.37 3.37 0 01.79-2l7.58-7.28h.11l.63.67v.11l-7.47 7.17a2 2 0 00-.57 1.34V58l-.07.07z"/><path class="cls-3" d="M23.57 43.45l.63.67-7.47 7.13a2.17 2.17 0 00-.58 1.38V58h-.93v-5.37a3.35 3.35 0 01.78-1.91c.45-.42 7.58-7.27 7.58-7.27m-.1-.11c-.07.07-7.14 6.86-7.58 7.27a3.46 3.46 0 00-.82 2V58l.15.15h.93l.14-.15v-5.37a2 2 0 01.54-1.27l7.47-7.13V44l-.63-.67z"/><path class="cls-1" d="M29.37 24.7l-.07-.07v-6.35l.07-.07h.93l.07.07v6.35l-.07.07h-.93z"/><path class="cls-3" d="M30.3 18.28v6.35h-.93v-6.35h.93m0-.15h-.93l-.15.15v6.35l.15.15h.93l.15-.15v-6.35l-.15-.15z"/><path class="cls-1" d="M29.37 58.04l-.07-.07v-6.34l.07-.08h.93l.07.08v6.34l-.07.07h-.93z"/><path class="cls-3" d="M30.3 51.63V58h-.93v-6.37h.93m0-.15h-.93l-.15.15V58l.15.15h.93l.15-.15v-6.37l-.15-.15z"/><path class="cls-1" d="M40.26 38.66l-.08-.07v-.93l.08-.07h9.7l.08.07v.93l-.08.07h-9.7z"/><path class="cls-3" d="M50 37.66v.93h-9.7v-.93H50m0-.15h-9.7l-.15.15v.93l.15.15H50l.15-.15v-.93l-.15-.15z"/><path class="cls-1" d="M9.71 38.66l-.08-.07v-.93l.08-.07h9.7l.08.07v.93l-.08.07h-9.7z"/><path class="cls-3" d="M19.41 37.66v.93h-9.7v-.93h9.7m0-.15h-9.7l-.15.15v.93l.15.15h9.7l.15-.15v-.93l-.15-.15z"/><circle class="cls-1" cx="112.68" cy="38.13" r="6.38"/><path class="cls-1" d="M92.48 58V18.21h40.4V58zm36.72-3.68V21.89h-33v32.47z"/><path class="cls-3" d="M132.8 18.28V58H92.55V18.28h40.25M96.08 54.44h33.19V21.81H96.08v32.63M133 18.13H92.4v40H133v-40zM96.23 22h32.89v32.29H96.23V22z"/><path class="cls-1" d="M106.37 32.86c-.08-.07-7.15-6.86-7.59-7.27a3.46 3.46 0 01-.79-2v-5.31l.07-.07H99l.07.07v5.34a2.09 2.09 0 00.56 1.38l7.47 7.13v.1l-.63.67z"/><path class="cls-3" d="M99 18.28v5.34a2.09 2.09 0 00.58 1.38l7.47 7.13-.63.67s-7.14-6.8-7.59-7.27a3.39 3.39 0 01-.77-1.91v-5.34H99m0-.15h-.93l-.15.15v5.34a3.46 3.46 0 00.82 2c.44.41 7.51 7.2 7.58 7.27h.22l.63-.68V32l-7.49-7.1a2 2 0 01-.54-1.29v-5.33l-.14-.15z"/><path class="cls-1" d="M118.88 32.85l-.63-.67v-.1l7.48-7.08a2.1 2.1 0 00.56-1.34v-5.38l.08-.07h.92l.08.07v5.34a3.48 3.48 0 01-.8 2c-.44.41-7.51 7.2-7.58 7.27z"/><path class="cls-3" d="M127.29 18.28v5.34a3.25 3.25 0 01-.77 1.91c-.45.42-7.58 7.27-7.58 7.27l-.63-.67 7.47-7.13a2.2 2.2 0 00.59-1.38v-5.34h.92m0-.15h-.92l-.15.15v5.34a2 2 0 01-.54 1.28c-.26.23-7.4 7.05-7.48 7.12v.21l.63.68h.17c.07-.07 7.14-6.86 7.58-7.27a3.39 3.39 0 00.82-2v-5.36l-.15-.15z"/><path class="cls-1" d="M126.37 58l-.08-.07v-5.3a2.09 2.09 0 00-.56-1.33l-7.47-7.12v-.11l.63-.67h.11l7.58 7.28a3.45 3.45 0 01.8 2V58l-.08.07z"/><path class="cls-3" d="M118.94 43.45s7.13 6.85 7.58 7.27a3.28 3.28 0 01.77 1.91V58h-.92v-5.37a2.22 2.22 0 00-.59-1.38l-7.47-7.13.63-.67m.1-.11h-.21l-.63.67v.21l7.48 7.13a2 2 0 01.54 1.28V58l.15.15h.92l.15-.15v-5.37a3.4 3.4 0 00-.82-2c-.44-.41-7.51-7.2-7.58-7.27z"/><path class="cls-1" d="M98.06 58H98v-5.37a3.41 3.41 0 01.79-2l7.59-7.28h.1l.63.67v.11l-7.48 7.17a2.1 2.1 0 00-.57 1.34V58H99z"/><path class="cls-3" d="M106.42 43.45l.63.67-7.47 7.13a2.12 2.12 0 00-.58 1.38V58h-.93v-5.37a3.42 3.42 0 01.77-1.91c.45-.42 7.59-7.27 7.59-7.27m-.11-.11c-.07.07-7.14 6.86-7.58 7.27a3.46 3.46 0 00-.82 2V58l.15.15H99l.15-.15v-5.37a2 2 0 01.54-1.27l7.47-7.13V44l-.63-.67z"/><path class="cls-1" d="M112.22 24.7l-.08-.07v-6.35l.08-.07h.92l.08.07v6.35l-.08.07h-.92z"/><path class="cls-3" d="M113.14 18.28v6.35h-.92v-6.35h.92m0-.15h-.92l-.15.15v6.35l.15.15h.92l.15-.15v-6.35l-.15-.15z"/><path class="cls-1" d="M112.22 58.04l-.08-.07v-6.34l.08-.08h.92l.08.08v6.34l-.08.07h-.92z"/><path class="cls-3" d="M113.14 51.63V58h-.92v-6.37h.92m0-.15h-.92l-.15.15V58l.15.15h.92l.15-.15v-6.37l-.15-.15z"/><path class="cls-1" d="M123.1 38.66l-.08-.07v-.93l.08-.07h9.7l.08.07v.93l-.08.07h-9.7z"/><path class="cls-3" d="M132.8 37.66v.93h-9.7v-.93h9.7m0-.15h-9.7l-.15.15v.93l.15.15h9.7l.15-.15v-.93l-.15-.15z"/><path class="cls-1" d="M92.55 38.66l-.07-.07v-.93l.07-.07h9.7l.08.07v.93l-.08.07h-9.7z"/><path class="cls-3" d="M102.25 37.66v.93h-9.7v-.93h9.7m0-.15h-9.7l-.15.15v.93l.15.15h9.7l.15-.15v-.93l-.15-.15z"/><path class="cls-1" d="M29.83 70a8.5 8.5 0 108.51 8.5 8.5 8.5 0 00-8.51-8.5zm0 13.18a4.68 4.68 0 114.68-4.68 4.68 4.68 0 01-4.68 4.7zm0-1.49A3.19 3.19 0 1133 78.52a3.18 3.18 0 01-3.17 3.19z"/><path class="cls-1" d="M9.63 98.44V58.6H50v39.84zm36.73-3.68V62.28h-33v32.48z"/><path class="cls-3" d="M50 58.68v39.68H9.71V58.68H50M13.24 94.83h33.19V62.21H13.24v32.62m36.87-36.3H9.56v40h40.55v-40zm-36.72 3.83h32.89v32.32H13.39V62.36z"/><path class="cls-1" d="M23.52 73.25c-.07-.07-7.14-6.86-7.58-7.27a3.37 3.37 0 01-.79-2v-5.3l.07-.08h.93l.07.08V64a2 2 0 00.57 1.33l7.47 7.13v.11l-.63.67z"/><path class="cls-3" d="M16.15 58.68V64a2.17 2.17 0 00.58 1.39l7.47 7.13-.63.67s-7.13-6.85-7.57-7.27a3.32 3.32 0 01-.78-1.92v-5.32h.93m0-.15h-.93l-.15.15V64a3.46 3.46 0 00.82 2l7.58 7.28h.21l.63-.67v-.21l-7.47-7.13A2 2 0 0116.3 64v-5.32l-.15-.15z"/><path class="cls-1" d="M36 73.25l-.63-.67v-.11l7.47-7.13a2 2 0 00.61-1.34v-5.32l.07-.08h.93l.07.08V64a3.37 3.37 0 01-.79 2c-.44.41-7.51 7.2-7.58 7.27z"/><path class="cls-3" d="M44.45 58.68V64a3.39 3.39 0 01-.77 1.91c-.45.42-7.58 7.28-7.58 7.28l-.64-.67 7.48-7.13a2.17 2.17 0 00.58-1.39v-5.32h.93m0-.15h-.93l-.15.15V64a2 2 0 01-.54 1.28l-7.47 7.13v.21l.63.67h.21L43.78 66a3.46 3.46 0 00.82-2v-5.32l-.15-.15z"/><path class="cls-1" d="M43.52 98.44l-.07-.08V93a2 2 0 00-.57-1.33l-7.47-7.13v-.11l.63-.67h.11c.07.07 7.14 6.86 7.58 7.27a3.37 3.37 0 01.79 2v5.34l-.07.08z"/><path class="cls-3" d="M36.1 83.84s7.13 6.86 7.58 7.28a3.39 3.39 0 01.77 1.88v5.33h-.93V93a2.17 2.17 0 00-.58-1.39l-7.48-7.13.64-.67m.1-.11H36l-.63.67v.21l7.47 7.13a2 2 0 01.53 1.29v5.32l.15.15h.93l.15-.15V93a3.46 3.46 0 00-.82-2l-7.58-7.27z"/><path class="cls-1" d="M15.22 98.44l-.07-.08V93a3.37 3.37 0 01.79-2c.44-.41 7.51-7.2 7.58-7.27h.11l.63.67v.11l-7.47 7.19a2 2 0 00-.57 1.3v5.33l-.07.08z"/><path class="cls-3" d="M23.57 83.84l.63.67-7.47 7.13a2.17 2.17 0 00-.58 1.36v5.33h-.93V93a3.32 3.32 0 01.78-1.88c.45-.42 7.58-7.28 7.58-7.28m-.1-.11L15.89 91a3.46 3.46 0 00-.82 2v5.34l.15.15h.93l.15-.15V93a2 2 0 01.54-1.28l7.47-7.13v-.21l-.63-.67z"/><path class="cls-1" d="M29.37 65.09l-.07-.07v-6.34l.07-.08h.93l.07.08v6.34l-.07.07h-.93z"/><path class="cls-3" d="M30.3 58.68V65h-.93v-6.32h.93m0-.15h-.93l-.15.15V65l.15.15h.93l.15-.15v-6.32l-.15-.15z"/><path class="cls-1" d="M29.37 98.44l-.07-.08v-6.34l.07-.08h.93l.07.08v6.34l-.07.08h-.93z"/><path class="cls-3" d="M30.3 92v6.34h-.93V92h.93m0-.15h-.93l-.15.15v6.34l.15.15h.93l.15-.15V92l-.15-.15z"/><path class="cls-1" d="M40.26 79.06l-.08-.08v-.92l.08-.08h9.7l.08.08v.92l-.08.08h-9.7z"/><path class="cls-3" d="M50 78.06V79h-9.7v-.92H50m0-.15h-9.7l-.15.15V79l.15.15H50l.15-.15v-.92l-.15-.17z"/><path class="cls-1" d="M9.71 79.06l-.08-.08v-.92l.08-.08h9.7l.08.08v.92l-.08.08h-9.7z"/><path class="cls-3" d="M19.41 78.06V79h-9.7v-.92h9.7m0-.15h-9.7l-.15.15V79l.15.15h9.7l.15-.15v-.92l-.15-.15z"/><circle class="cls-1" cx="112.68" cy="78.52" r="4.25"/><path class="cls-1" d="M92.48 98.44V58.6h40.4v39.84zm36.72-3.68V62.28h-33v32.48z"/><path class="cls-3" d="M132.8 58.68v39.68H92.55V58.68h40.25M96.08 94.83h33.19V62.21H96.08v32.62M133 58.53H92.4v40H133v-40zm-36.77 3.83h32.89v32.32H96.23V62.36z"/><path class="cls-1" d="M106.37 73.25c-.08-.07-7.15-6.86-7.59-7.27A3.43 3.43 0 0198 64v-5.32l.07-.08H99l.07.08V64a2.07 2.07 0 00.57 1.33l7.47 7.13v.11l-.63.67z"/><path class="cls-3" d="M99 58.68V64a2.12 2.12 0 00.59 1.39l7.47 7.13-.63.67s-7.14-6.86-7.59-7.28a3.39 3.39 0 01-.78-1.91v-5.32H99m0-.15h-.93l-.15.15V64a3.46 3.46 0 00.82 2l7.58 7.28h.22l.63-.67v-.21l-7.47-7.13a2 2 0 01-.56-1.27v-5.32l-.14-.15z"/><path class="cls-1" d="M118.88 73.25l-.63-.67v-.11l7.47-7.13a2.09 2.09 0 00.56-1.33v-5.33l.08-.08h.92l.08.08V64a3.45 3.45 0 01-.8 2c-.44.41-7.51 7.2-7.58 7.27z"/><path class="cls-3" d="M127.29 58.68V64a3.25 3.25 0 01-.77 1.91c-.45.42-7.58 7.28-7.58 7.28l-.63-.67 7.47-7.13a2.23 2.23 0 00.59-1.39v-5.32h.92m0-.15h-.92l-.15.15V64a2 2 0 01-.54 1.28l-7.48 7.13v.21l.63.67h.17l7.62-7.29a3.39 3.39 0 00.82-2v-5.32l-.15-.15z"/><path class="cls-1" d="M126.37 98.44l-.08-.08V93a2.07 2.07 0 00-.56-1.33l-7.47-7.13v-.11l.63-.67h.11c.07.07 7.14 6.86 7.58 7.27a3.45 3.45 0 01.8 2v5.34l-.08.08z"/><path class="cls-3" d="M118.94 83.84s7.13 6.86 7.58 7.28a3.25 3.25 0 01.77 1.91v5.33h-.92V93a2.23 2.23 0 00-.59-1.39l-7.47-7.13.63-.67m.1-.11h-.21l-.63.67v.21l7.48 7.13a2 2 0 01.54 1.29v5.32l.15.15h.92l.15-.15V93a3.4 3.4 0 00-.82-2L119 83.73z"/><path class="cls-1" d="M98.06 98.44l-.06-.08V93a3.44 3.44 0 01.79-2c.44-.41 7.51-7.2 7.59-7.27h.1l.63.67v.11l-7.48 7.19a2.07 2.07 0 00-.57 1.3v5.33l-.07.08z"/><path class="cls-3" d="M106.42 83.84l.63.67-7.47 7.13A2.12 2.12 0 0099 93v5.33h-.93V93a3.39 3.39 0 01.77-1.91c.45-.42 7.59-7.28 7.59-7.28m-.11-.11L98.73 91a3.46 3.46 0 00-.82 2v5.34l.15.15H99l.15-.15V93a2 2 0 01.54-1.28l7.47-7.13v-.21l-.63-.67z"/><path class="cls-1" d="M112.22 65.09l-.08-.07v-6.34l.08-.08h.92l.08.08v6.34l-.08.07h-.92z"/><path class="cls-3" d="M113.14 58.68V65h-.92v-6.32h.92m0-.15h-.92l-.15.15V65l.15.15h.92l.15-.15v-6.32l-.15-.15z"/><path class="cls-1" d="M112.22 98.44l-.08-.08v-6.34l.08-.08h.92l.08.08v6.34l-.08.08h-.92z"/><path class="cls-3" d="M113.14 92v6.34h-.92V92h.92m0-.15h-.92l-.15.15v6.34l.15.15h.92l.15-.15V92l-.15-.15z"/><path class="cls-1" d="M123.1 79.06l-.08-.08v-.92l.08-.08h9.7l.08.08v.92l-.08.08h-9.7z"/><path class="cls-3" d="M132.8 78.06V79h-9.7v-.92h9.7m0-.15h-9.7l-.15.15V79l.15.15h9.7l.2-.15v-.92l-.15-.15z"/><path class="cls-1" d="M92.55 79.06l-.07-.08v-.92l.07-.08h9.7l.08.08v.92l-.08.08h-9.7z"/><path class="cls-3" d="M102.25 78.06V79h-9.7v-.92h9.7m0-.15h-9.7l-.15.15V79l.15.15h9.7l.15-.15v-.92l-.15-.15z"/><path class="cls-4" d="M50.07 88.36h42.37m-42.37 9.22h42.37"/><path class="cls-1" d="M91.94 18.78v79.08H50.57V18.78h41.37m.5-.5H50.07v80.08h42.37V18.28z"/><path class="cls-4" d="M50.07 19.13h42.37"/><path class="cls-1" d="M217 18.53v79.58h-55.6V18.53H217m.25-.25h-56.1v80.08h56.13V18.28z"/><rect x="163.7" y="23.86" width="51.02" height="1.42" rx=".71" stroke-miterlimit="1.41" stroke-width=".49" fill="none" stroke="#222221"/><rect class="cls-6" x="168.49" y="91.3" width="4.25" height="1.42" rx=".71"/><rect class="cls-6" x="177.79" y="91.3" width="4.25" height="1.42" rx=".71"/><rect class="cls-6" x="187.09" y="91.3" width="4.25" height="1.42" rx=".71"/><rect class="cls-6" x="196.38" y="91.3" width="4.25" height="1.42" rx=".71"/><rect class="cls-6" x="205.68" y="91.3" width="4.25" height="1.42" rx=".71"/><circle class="cls-6" cx="189.21" cy="58.29" r="17.72"/><circle class="cls-6" cx="189.21" cy="58.29" r=".71"/><circle class="cls-6" cx="189.21" cy="58.29" r="16.72"/><circle class="cls-6" cx="189.21" cy="58.29" r="5.95"/><circle class="cls-6" cx="189.21" cy="58.29" r="8.15"/><circle class="cls-6" cx="189.21" cy="58.29" r="10.63"/><circle class="cls-6" cx="189.21" cy="58.29" r="13.11"/><circle class="cls-6" cx="189.21" cy="58.29" r="15.59"/><rect class="cls-1" x="143.19" y="42.02" width="7.57" height="32.6" rx="3.78"/><path class="cls-1" d="M133.79 98.44V18.21h26.37v80.23zm22.82-3.68V21.89h-19.27v72.87z"/><path class="cls-3" d="M160.09 18.28v80.08h-26.22V18.28h26.22m-22.82 76.55h19.41v-73h-19.41v73m23-76.7h-26.55v80.38h26.52V18.13zM137.42 22h19.11v72.68h-19.11V22z"/><path class="cls-1" d="M133.87 58.86l-.08-.08v-.92l.08-.08h7.65l.07.08v.92l-.07.08h-7.65z"/><path class="cls-3" d="M141.52 57.86v.92h-7.65v-.92h7.65m0-.15h-7.65l-.15.15v.92l.15.15h7.65l.15-.15v-.92l-.15-.15z"/><path class="cls-1" d="M133.87 78.69l-.08-.07v-.93l.08-.07h7.65l.07.07v.93l-.07.07h-7.65z"/><path class="cls-3" d="M141.52 77.69v.93h-7.65v-.93h7.65m0-.15h-7.65l-.15.15v.93l.15.15h7.65l.15-.15v-.93l-.15-.15z"/><path class="cls-1" d="M152.43 58.86l-.07-.08v-.92l.07-.08h7.66l.07.08v.92l-.07.08h-7.66z"/><path class="cls-3" d="M160.09 57.86v.92h-7.66v-.92h7.66m0-.15h-7.66l-.15.15v.92l.15.15h7.66l.15-.15v-.92l-.15-.15z"/><path class="cls-1" d="M152.43 78.69l-.07-.07v-.93l.07-.07h7.66l.07.07v.93l-.07.07h-7.66z"/><path class="cls-3" d="M160.09 77.69v.93h-7.66v-.93h7.66m0-.15h-7.66l-.15.15v.93l.15.15h7.66l.15-.15v-.93l-.15-.15z"/><path class="cls-1" d="M133.87 39.03l-.08-.08v-.92l.08-.08h7.65l.07.08v.92l-.07.08h-7.65z"/><path class="cls-3" d="M141.52 38v1h-7.65v-1h7.65m0-.15h-7.65l-.15.15v1l.15.15h7.65l.15-.15v-1l-.15-.15z"/><path class="cls-1" d="M133.87 29.06l-.08-.07v-.93l.08-.07h26.22l.07.07v.93l-.07.07h-26.22z"/><path class="cls-3" d="M160.09 28.06V29h-26.22v-.93h26.22m0-.15h-26.22l-.15.15V29l.15.15h26.22l.15-.15v-.93l-.15-.15z"/><path class="cls-1" d="M133.87 88.66l-.08-.08v-.92l.08-.08h26.22l.07.08v.92l-.07.08h-26.22z"/><path class="cls-3" d="M160.09 87.66v.92h-26.22v-.92h26.22m0-.15h-26.22l-.15.15v.92l.15.15h26.22l.15-.15v-.92l-.15-.15z"/><path class="cls-1" d="M152.43 39.03l-.07-.08v-.92l.07-.08h7.66l.07.08v.92l-.07.08h-7.66z"/><path class="cls-3" d="M160.09 38v1h-7.66v-1h7.66m0-.15h-7.66l-.15.15v1l.15.15h7.66l.15-.15v-1l-.15-.15z"/></g></svg>