<svg xmlns="http://www.w3.org/2000/svg" viewBox="0 0 235.28 164.41"><defs><style>.cls-10,.cls-2{fill:#20201e}.cls-3,.cls-4,.cls-5,.cls-6,.cls-7,.cls-8,.cls-9{stroke:#20201e}.cls-4,.cls-7,.cls-8,.cls-9{stroke-miterlimit:1.41}.cls-3,.cls-7,.cls-9{fill:none}.cls-3,.cls-5,.cls-6{stroke-miterlimit:10}.cls-3,.cls-7{stroke-width:.5px}.cls-4,.cls-5,.cls-6,.cls-8{fill:#fff}.cls-4,.cls-6{stroke-width:.3px}.cls-5{stroke-width:.4px}.cls-8,.cls-9{stroke-width:.25px}.cls-10{font-size:7px;font-family:Fakt-Normal,Fakt}</style></defs><g id="Ranges"><path d="M71.75 25.22v-2.96H87l-4.69 1.12h-7.15v1.84h-3.41zm39.42.04V22.3H95.56l4.7 1.12h7.15v1.84h3.76zm-20.18-3h.92v2.96h-.92zm-20.7 2.96v-2.96H54.68l4.7 1.12h7.15v1.84h3.76zm-39.72.04V22.3h15.26l-4.7 1.12h-7.14v1.84h-3.42zm19.52-3h.92v2.96h-.92zm132.12 2.96v-2.96h15.26l-4.7 1.12h-7.15v1.84h-3.41zm39.42.04V22.3h-15.6l4.69 1.12h7.15v1.84h3.76zm-20.18-3h.92v2.96h-.92z" stroke-width=".2" stroke-miterlimit="1.41" stroke="#20201e" fill="#20201e"/><ellipse class="cls-2" cx="221.58" cy="42.67" rx="1.2" ry="1.24"/><rect class="cls-3" x="161.82" y="67.47" width="49.5" height="30.87" rx="1.41"/><path class="cls-4" d="M161.42 58.68h47.92v3.48h-47.92z"/><path class="cls-4" d="M157.34 59.75h4.13v1.23h-4.13z"/><ellipse class="cls-4" cx="156.73" cy="60.31" rx="1.85" ry="1.9"/><path class="cls-4" d="M162.39 60.78h1.2v4h-1.2z"/><rect class="cls-4" x="159.78" y="58.19" width="5.01" height="4.47" rx=".24"/><path class="cls-4" d="M211.4 59.75h4.13v1.23h-4.13z"/><ellipse class="cls-4" cx="215.98" cy="60.31" rx="1.85" ry="1.9"/><ellipse class="cls-4" cx="215.98" cy="60.31" rx="1.85" ry="1.9"/><path class="cls-4" d="M209.34 60.78h1.2v4h-1.2z"/><rect class="cls-4" x="207.92" y="58.19" width="5.01" height="4.47" rx=".24"/><rect class="cls-3" x="40.2" y="67.47" width="93.01" height="30.87" rx="1.41"/><circle class="cls-5" cx="53.07" cy="42.67" r="3.62"/><rect class="cls-6" x="54.33" y="41.97" width="4.31" height="1.39" rx=".56"/><circle class="cls-6" cx="53.07" cy="42.67" r="2.09"/><circle class="cls-5" cx="64.42" cy="42.67" r="3.62"/><rect class="cls-6" x="65.68" y="41.97" width="4.31" height="1.39" rx=".56"/><circle class="cls-6" cx="64.42" cy="42.67" r="2.09"/><circle class="cls-5" cx="75.78" cy="42.67" r="3.62"/><rect class="cls-6" x="77.04" y="41.97" width="4.31" height="1.39" rx=".56"/><circle class="cls-6" cx="75.78" cy="42.67" r="2.09"/><circle class="cls-5" cx="86.84" cy="42.67" r="3.62"/><rect class="cls-6" x="88.1" y="41.97" width="4.31" height="1.39" rx=".56"/><circle class="cls-6" cx="86.84" cy="42.67" r="2.09"/><circle class="cls-5" cx="97.9" cy="42.67" r="3.62"/><rect class="cls-6" x="99.16" y="41.97" width="4.31" height="1.39" rx=".56"/><circle class="cls-6" cx="97.9" cy="42.67" r="2.09"/><circle class="cls-5" cx="109.4" cy="42.67" r="3.62"/><rect class="cls-6" x="110.66" y="41.97" width="4.31" height="1.39" rx=".56"/><circle class="cls-6" cx="109.4" cy="42.67" r="2.09"/><circle class="cls-5" cx="141.02" cy="42.67" r="3.62"/><rect class="cls-6" x="142.28" y="41.97" width="4.31" height="1.39" rx=".56"/><circle class="cls-6" cx="141.02" cy="42.67" r="2.09"/><circle class="cls-5" cx="169.82" cy="42.67" r="3.62"/><rect class="cls-6" x="171.09" y="41.97" width="4.31" height="1.39" rx=".56"/><circle class="cls-6" cx="169.82" cy="42.67" r="2.09"/><circle class="cls-5" cx="180.73" cy="42.67" r="3.62"/><rect class="cls-6" x="181.99" y="41.97" width="4.31" height="1.39" rx=".56"/><circle class="cls-6" cx="180.73" cy="42.67" r="2.09"/><circle class="cls-5" cx="201.83" cy="42.67" r="3.62"/><rect class="cls-6" x="203.09" y="41.97" width="4.31" height="1.39" rx=".56"/><circle class="cls-6" cx="201.83" cy="42.67" r="2.09"/><circle class="cls-5" cx="212.74" cy="42.67" r="3.62"/><rect class="cls-6" x="214" y="41.97" width="4.31" height="1.39" rx=".56"/><circle class="cls-6" cx="212.74" cy="42.67" r="2.09"/><path class="cls-4" d="M39.93 58.68h93.1v3.48h-93.1zm-4.13 1.07h4.13v1.23H35.8z"/><ellipse class="cls-4" cx="35.19" cy="60.31" rx="1.85" ry="1.9"/><path class="cls-4" d="M40.85 60.78h1.2v4h-1.2z"/><rect class="cls-4" x="38.24" y="58.19" width="5.01" height="4.47" rx=".24"/><path class="cls-4" d="M133.89 59.75h4.13v1.23h-4.13z"/><ellipse class="cls-4" cx="138.47" cy="60.31" rx="1.85" ry="1.9"/><ellipse class="cls-4" cx="138.47" cy="60.31" rx="1.85" ry="1.9"/><path class="cls-4" d="M131.83 60.78h1.2v4h-1.2z"/><rect class="cls-4" x="130.42" y="58.19" width="5.01" height="4.47" rx=".24"/><ellipse class="cls-2" cx="60.47" cy="37.22" rx="1.2" ry="1.24"/><ellipse class="cls-2" cx="221.58" cy="37.22" rx="1.2" ry="1.24"/><ellipse class="cls-2" cx="47.75" cy="37.22" rx="1.2" ry="1.24"/><path class="cls-3" d="M226.62 113.39H25.84m0 22.67V31.18m200.78 22.68H25.84m200.78 82.2V31.16m-206.78.02h212.77M19.84 25.51h212.77m-212.77-8.5h212.77v119.06H19.84z"/><path class="cls-7" d="M147.38 113.39V53.86"/><path class="cls-3" d="M31.03 38.44h13.24v8.07H31.03z"/><path class="cls-2" d="M224.7 115.3v18.85H27.76V115.3H224.7m.5-.5H27.26v19.85H225.2V114.8zm-79.74-59.02v55.69H27.76V55.78h117.7m.5-.5H27.26V112H146V55.28zM224.7 33.1v18.84H27.76V33.1H224.7m.5-.5H27.26v19.84H225.2V32.6zm-.5 23.18v55.69h-75.4V55.78h75.4m.5-.5h-76.4V112h76.4V55.28z"/><path class="cls-7" d="M19.84 136.06v19.85H31.7s-.05-3.34-.05-6.21 3.23-3.48 5.07-4.18c3.73-1.43 9.11-2.7 13.37-3.81 4-1 3.77-5.65 3.77-5.65zm212.77 0v19.85h-11.85v-6.21c0-2.87-3.22-3.48-5.06-4.18-3.73-1.43-9.12-2.7-13.38-3.81-4-1-3.76-5.65-3.76-5.65z"/></g><g id="Dimensions"><path class="cls-8" d="M19.84 155.91h-8.5m8.5-19.85h-8.5m8.5-119.05h-8.5m8.5 8.5h-8.5"/><path class="cls-9" d="M14.17 25.78v110.01"/><path class="cls-2" d="M13.15 26.61l.18.17.84-.9.84.9.19-.17-1.03-1.1-1.02 1.1zm0 108.35l.18-.17.84.9.84-.9.19.17-1.03 1.1-1.02-1.1z"/><text class="cls-10" transform="rotate(-90 48.335 38.415)">780</text><text class="cls-10" transform="rotate(-90 11.2 1.28)">60</text><path class="cls-9" d="M14.17 8.5v8.24"/><path class="cls-2" d="M13.15 15.91l.18-.17.84.9.84-.9.19.17-1.03 1.1-1.02-1.1z"/><path class="cls-9" d="M14.17 25.51v-8.5m0 119.05v19.85"/><text class="cls-10" transform="rotate(-90 85.75 75.83)">140</text><path class="cls-9" d="M14.17 156.18v5.39"/><path class="cls-2" d="M13.15 157l.18.18.84-.91.84.91.19-.18-1.03-1.09-1.02 1.09z"/><path class="cls-8" d="M19.84 16.98v-8.5m212.77 8.5v-8.5"/><path class="cls-9" d="M232.34 11.31H20.11"/><path class="cls-2" d="M231.51 10.29l-.17.18.9.84-.9.84.17.18 1.1-1.02-1.1-1.02zm-210.57 0l.17.18-.9.84.9.84-.17.18-1.1-1.02 1.1-1.02z"/><text class="cls-10" transform="translate(118.28 7.06)">1511</text></g></svg>