<svg id="Black" xmlns="http://www.w3.org/2000/svg" viewBox="0 0 184.25 184.25">
  <defs>
    <style>
      .cls-1 {
        fill: none;
        stroke: #222221;
        stroke-miterlimit: 10;
        stroke-width: 2px;
      }
    </style>
  </defs>
  <circle class="cls-1" cx="92.13" cy="92.13" r="89.29" transform="translate(-38.16 92.13) rotate(-45)"/>
  <line class="cls-1" x1="92.59" y1="34.73" x2="92.59" y2="149.66"/>
  <line class="cls-1" x1="148.49" y1="92.14" x2="35.76" y2="92.14"/>
  <line class="cls-1" x1="132.44" y1="51.56" x2="52.73" y2="132.83"/>
  <line class="cls-1" x1="132.44" y1="132.83" x2="52.73" y2="51.56"/>
  <line class="cls-1" x1="92.59" y1="48.98" x2="84.83" y2="41.07"/>
  <line class="cls-1" x1="92.59" y1="48.98" x2="100.34" y2="41.07"/>
  <line class="cls-1" x1="92.59" y1="66.89" x2="81.92" y2="56.02"/>
  <line class="cls-1" x1="92.59" y1="66.89" x2="103.25" y2="56.02"/>
  <line class="cls-1" x1="92.59" y1="135.41" x2="100.34" y2="143.31"/>
  <line class="cls-1" x1="92.59" y1="135.41" x2="84.83" y2="143.31"/>
  <line class="cls-1" x1="92.59" y1="117.5" x2="103.25" y2="128.37"/>
  <line class="cls-1" x1="92.59" y1="117.5" x2="81.92" y2="128.37"/>
  <line class="cls-1" x1="124.01" y1="60.16" x2="124.01" y2="48.98"/>
  <line class="cls-1" x1="124.01" y1="60.16" x2="134.98" y2="60.16"/>
  <line class="cls-1" x1="111.59" y1="72.83" x2="111.59" y2="57.45"/>
  <line class="cls-1" x1="111.59" y1="72.83" x2="126.67" y2="72.83"/>
  <line class="cls-1" x1="60.97" y1="124.48" x2="60.97" y2="135.66"/>
  <line class="cls-1" x1="60.97" y1="124.48" x2="50" y2="124.48"/>
  <line class="cls-1" x1="73.39" y1="111.82" x2="73.39" y2="127.19"/>
  <line class="cls-1" x1="73.39" y1="111.82" x2="58.3" y2="111.82"/>
  <line class="cls-1" x1="123.54" y1="123.71" x2="134.51" y2="123.71"/>
  <line class="cls-1" x1="123.54" y1="123.71" x2="123.54" y2="134.89"/>
  <line class="cls-1" x1="111.12" y1="111.04" x2="126.2" y2="111.04"/>
  <line class="cls-1" x1="111.12" y1="111.04" x2="111.12" y2="126.42"/>
  <line class="cls-1" x1="60.97" y1="59.91" x2="50" y2="59.91"/>
  <line class="cls-1" x1="60.97" y1="59.91" x2="60.97" y2="48.73"/>
  <line class="cls-1" x1="73.39" y1="72.57" x2="58.3" y2="72.57"/>
  <line class="cls-1" x1="73.39" y1="72.57" x2="73.39" y2="57.19"/>
  <line class="cls-1" x1="136.89" y1="92.19" x2="144.65" y2="84.29"/>
  <line class="cls-1" x1="136.89" y1="92.19" x2="144.65" y2="100.1"/>
  <line class="cls-1" x1="119.32" y1="92.19" x2="129.99" y2="81.32"/>
  <line class="cls-1" x1="119.32" y1="92.19" x2="129.99" y2="103.07"/>
  <line class="cls-1" x1="47.36" y1="92.19" x2="39.6" y2="100.1"/>
  <line class="cls-1" x1="47.36" y1="92.19" x2="39.6" y2="84.29"/>
  <line class="cls-1" x1="64.93" y1="92.19" x2="54.26" y2="103.07"/>
  <line class="cls-1" x1="64.93" y1="92.19" x2="54.26" y2="81.32"/>
</svg>
