<svg xmlns="http://www.w3.org/2000/svg" viewBox="0 0 113.39 113.39"><defs><style>.cls-1,.cls-3{fill:#222221}.cls-3{stroke:#fff;stroke-miterlimit:10;stroke-width:.15px}</style></defs><g id="Piano"><path class="cls-1" d="M105.79 7.59v95.35a3.6 3.6 0 01-3.73 2.86H11.33a3.6 3.6 0 01-3.74-2.86V7.59h98.2m.5-.5H7.09v95.85c0 1.29 1.57 3.36 4.24 3.36h90.73c2.66 0 4.23-2.07 4.23-3.36V7.09z"/><path fill="none" stroke="#222221" stroke-linejoin="round" stroke-width=".25" d="M7.09 9.21h99.21"/></g><g id="Bruciatori_e_griglie" data-name="Bruciatori e griglie"><path class="cls-1" d="M33.38 70a8.5 8.5 0 108.5 8.5 8.5 8.5 0 00-8.5-8.5zm0 13.18a4.68 4.68 0 114.68-4.68 4.68 4.68 0 01-4.68 4.7zm0-1.49a3.19 3.19 0 113.19-3.19 3.19 3.19 0 01-3.19 3.21z"/><circle class="cls-1" cx="33.38" cy="38.13" r="6.38"/><path class="cls-3" d="M47.91 18.1H10.06v40.05h46.63v-40zM51.85 37s-.1.23-.29.26l-1.45.14c-.19 0-3.19.07-3.19.07a.36.36 0 00-.3.33v.59a.38.38 0 00.3.34s3 0 3.19.06 1.26.12 1.45.15.29.25.29.25v15.2h-3.94v-2.02a2.24 2.24 0 00-.67-1.52l-9.08-8.48a.54.54 0 00-.78 0 .55.55 0 000 .77l8.9 8.32a1.26 1.26 0 01.38.88v2.05H34.47s-.23-.11-.25-.3l-.15-1.45c-.02-.19-.06-.81-.06-.81a.38.38 0 00-.34-.3h-.59a.38.38 0 00-.33.3s0 .63-.06.81-.13 1.26-.15 1.45a.49.49 0 01-.25.3H20.07v-2.02a1.22 1.22 0 01.38-.88l8.9-8.32a.54.54 0 000-.77.53.53 0 00-.77 0l-9.08 8.48a2.16 2.16 0 00-.67 1.52v2.05h-4V39.22S15 39 15.2 39s1.26-.13 1.45-.15 3.19-.06 3.19-.06a.37.37 0 00.29-.34v-.59a.36.36 0 00-.29-.33s-3 0-3.19-.07l-1.45-.14c-.19 0-.3-.26-.3-.26V21.84h4v2.05a2.15 2.15 0 00.67 1.51l9.08 8.48a.54.54 0 00.77 0 .55.55 0 000-.78l-8.9-8.31a1.26 1.26 0 01-.38-.88v-2.07h12.15a.46.46 0 01.25.29c0 .19.12 1.26.15 1.45s.06.82.06.82a.37.37 0 00.33.29h.59a.37.37 0 00.33-.29s0-.63.06-.82.12-1.26.15-1.45.25-.29.25-.29h12.23v2.05a1.3 1.3 0 01-.38.88l-8.9 8.31a.56.56 0 000 .78.55.55 0 00.78 0l9.08-8.48a2.24 2.24 0 00.67-1.51v-2.03h3.94zm-3.94 21.49H10.06v40.06h46.63V58.49zm3.94 18.94a.46.46 0 01-.29.25c-.19 0-1.26.13-1.45.15s-3.19.06-3.19.06a.38.38 0 00-.3.34v.58a.38.38 0 00.3.34s3 0 3.19.06 1.26.12 1.45.15a.46.46 0 01.29.25v15.2h-3.94v-2a2.26 2.26 0 00-.67-1.52l-9.08-8.48a.55.55 0 10-.75.81l8.9 8.31a1.28 1.28 0 01.38.88v2H34.47s-.23-.11-.25-.29-.13-1.26-.15-1.45-.06-.82-.06-.82a.36.36 0 00-.34-.29h-.59a.36.36 0 00-.33.29s0 .63-.06.82-.13 1.26-.15 1.45-.25.29-.25.29H20.07v-2a1.24 1.24 0 01.38-.88l8.9-8.31a.55.55 0 00-.75-.81l-9.08 8.48a2.17 2.17 0 00-.67 1.52v2h-4v-15.2a.49.49 0 01.3-.25c.19 0 1.26-.13 1.45-.15s3.19-.06 3.19-.06a.37.37 0 00.29-.34v-.58a.37.37 0 00-.29-.34s-3 0-3.19-.06-1.26-.12-1.45-.15a.49.49 0 01-.3-.25v-15.2h4v2.05a2.17 2.17 0 00.67 1.52l9.08 8.48a.55.55 0 00.75-.81l-8.9-8.31a1.24 1.24 0 01-.38-.88v-2.05h12.22a.46.46 0 01.25.29c0 .19.12 1.26.15 1.45s.06.82.06.82a.36.36 0 00.33.29h.59a.36.36 0 00.34-.29s0-.63.06-.82.12-1.26.15-1.45.25-.29.25-.29h12.22v2.05a1.28 1.28 0 01-.38.88l-8.9 8.31a.55.55 0 10.75.81l9.08-8.48a2.26 2.26 0 00.67-1.52v-2.05h3.94z"/><circle class="cls-1" cx="80.01" cy="38.13" r="6.38"/><path class="cls-3" d="M94.54 18.1H56.69v40.05h46.63v-40zM98.48 37s-.1.23-.29.26l-1.45.14c-.19 0-3.19.07-3.19.07a.36.36 0 00-.3.33v.59a.38.38 0 00.3.34s3 0 3.19.06 1.26.12 1.45.15.29.25.29.25v15.2h-3.94v-2.02a2.24 2.24 0 00-.67-1.52l-9.08-8.48a.55.55 0 10-.75.8l8.9 8.32a1.26 1.26 0 01.38.88v2.05H81.1s-.23-.11-.25-.3l-.15-1.45c-.02-.19-.06-.81-.06-.81a.38.38 0 00-.34-.3h-.59a.38.38 0 00-.33.3s0 .63-.06.81-.13 1.26-.15 1.45a.49.49 0 01-.25.3H66.7v-2.05a1.22 1.22 0 01.38-.88L76 43.17a.54.54 0 000-.77.53.53 0 00-.77 0l-9.08 8.48a2.16 2.16 0 00-.67 1.52v2.05h-4V39.22s.11-.23.3-.25l1.45-.15c.19-.02 3.19-.06 3.19-.06a.37.37 0 00.29-.34v-.59a.36.36 0 00-.29-.33s-3 0-3.19-.07l-1.45-.14c-.19 0-.3-.26-.3-.26V21.84h4v2.05a2.15 2.15 0 00.67 1.51l9.08 8.48a.54.54 0 00.77 0 .55.55 0 000-.78l-8.9-8.31a1.26 1.26 0 01-.38-.88v-2.07h12.2a.46.46 0 01.25.29c0 .19.12 1.26.15 1.45s.06.82.06.82a.37.37 0 00.33.29h.59a.37.37 0 00.34-.29s0-.63.06-.82.12-1.26.15-1.45.25-.29.25-.29h12.22v2.05a1.3 1.3 0 01-.38.88L84 33.08a.55.55 0 10.75.8l9.08-8.48a2.24 2.24 0 00.67-1.51v-2.05h3.94z"/><circle class="cls-1" cx="80.01" cy="78.52" r="4.25"/><path class="cls-3" d="M94.54 58.49H56.69v40.06h46.63V58.49zm3.94 18.94a.46.46 0 01-.29.25c-.19 0-1.26.13-1.45.15s-3.19.06-3.19.06a.38.38 0 00-.3.34v.58a.38.38 0 00.3.34s3 0 3.19.06 1.26.12 1.45.15a.46.46 0 01.29.25v15.2h-3.94v-2a2.26 2.26 0 00-.67-1.52l-9.08-8.48a.56.56 0 00-.78 0 .55.55 0 000 .78l8.9 8.31a1.28 1.28 0 01.38.88v2H81.1s-.23-.11-.25-.29-.13-1.26-.15-1.45-.06-.82-.06-.82a.36.36 0 00-.34-.22h-.59a.36.36 0 00-.33.29s0 .63-.06.82-.13 1.26-.15 1.45-.25.29-.25.29H66.7v-2a1.24 1.24 0 01.38-.88l8.92-8.4a.55.55 0 00-.75-.81l-9.08 8.48a2.17 2.17 0 00-.67 1.52v2h-4V79.61a.49.49 0 01.3-.25c.19 0 1.26-.13 1.45-.15s3.19-.06 3.19-.06a.37.37 0 00.29-.34v-.58a.37.37 0 00-.29-.34s-3 0-3.19-.06-1.26-.12-1.45-.15a.49.49 0 01-.3-.25v-15.2h4v2.05a2.17 2.17 0 00.67 1.52l9.08 8.48a.55.55 0 00.75-.81l-8.9-8.31a1.24 1.24 0 01-.38-.88v-2.05h12.2a.46.46 0 01.25.29c0 .19.12 1.26.15 1.45s.06.82.06.82a.36.36 0 00.33.29h.59a.36.36 0 00.34-.29s0-.63.06-.82.12-1.26.15-1.45.25-.29.25-.29h12.22v2.05a1.28 1.28 0 01-.38.88L84 73.47a.55.55 0 000 .78.56.56 0 00.78 0l9.08-8.48a2.26 2.26 0 00.67-1.52v-2.02h3.94z"/></g></svg>