<?xml version="1.0" standalone="no"?>
<!DOCTYPE svg PUBLIC "-//W3C//DTD SVG 20010904//EN"
 "http://www.w3.org/TR/2001/REC-SVG-20010904/DTD/svg10.dtd">
<svg version="1.0" xmlns="http://www.w3.org/2000/svg"
 width="645.000000pt" height="645.000000pt" viewBox="0 0 645.000000 645.000000"
 preserveAspectRatio="xMidYMid meet">
<metadata>
Created by potrace 1.14, written by Peter Selinger 2001-2017
</metadata>
<g transform="translate(0.000000,645.000000) scale(0.100000,-0.100000)"
fill="#000000" stroke="none">
<path d="M1638 5933 c-11 -14 -202 -329 -263 -435 -5 -9 -34 -56 -62 -103 -29
-48 -53 -91 -53 -96 0 -5 -4 -9 -10 -9 -5 0 -10 -6 -10 -13 0 -7 -7 -22 -15
-32 -18 -22 -385 -635 -385 -642 0 -2 -5 -9 -10 -16 -16 -18 -170 -279 -170
-288 0 -4 -4 -9 -8 -11 -5 -1 -15 -15 -23 -30 -18 -35 -106 -184 -134 -228
-22 -33 -273 -457 -412 -693 -34 -60 -63 -112 -63 -118 0 -5 -4 -9 -10 -9 -24
0 -40 28 378 -680 67 -113 125 -210 129 -215 17 -22 44 -71 50 -88 3 -9 9 -17
14 -17 5 0 9 -5 9 -10 0 -6 22 -47 50 -91 27 -44 50 -82 50 -83 0 -2 37 -63
82 -137 44 -74 89 -147 98 -164 26 -46 190 -317 208 -345 9 -14 17 -27 17 -30
1 -6 50 -85 76 -122 10 -15 19 -30 19 -32 0 -3 19 -36 42 -73 23 -38 46 -77
52 -88 10 -18 92 -153 154 -253 12 -20 27 -46 32 -57 6 -11 31 -51 55 -90 24
-38 52 -85 61 -102 l16 -33 1618 0 1618 0 48 83 c27 45 53 89 59 98 5 9 21 36
34 60 13 24 26 46 30 49 10 8 42 63 48 83 3 9 9 17 13 17 4 0 10 8 14 17 3 10
11 27 18 38 27 41 75 121 81 135 4 8 32 55 62 104 30 49 55 93 55 97 0 5 4 9
9 9 5 0 11 8 15 18 3 9 15 33 27 52 12 19 27 44 33 55 11 19 48 80 73 120 7
11 25 40 40 65 276 459 353 590 353 601 0 5 4 9 8 9 5 0 14 10 20 23 6 12 24
43 39 68 16 25 52 86 81 135 29 49 57 96 63 104 25 41 147 244 189 315 25 44
65 111 88 149 23 37 42 72 42 77 0 5 3 9 8 9 4 0 20 24 35 54 l28 53 -30 46
c-17 25 -31 48 -31 53 0 4 -11 22 -26 41 -14 18 -21 33 -17 33 4 0 3 4 -2 8
-10 6 -28 35 -75 118 -16 27 -107 178 -148 244 -9 14 -15 27 -13 29 1 2 -2 7
-7 10 -5 3 -19 24 -31 46 -12 22 -53 91 -91 154 -39 62 -70 116 -70 119 0 3
-11 20 -26 39 -14 18 -21 33 -17 33 4 0 3 4 -3 8 -6 4 -22 26 -35 49 -62 109
-193 324 -201 329 -4 3 -6 10 -3 15 4 5 2 9 -3 9 -4 0 -19 19 -31 43 -12 23
-35 62 -51 87 -17 25 -33 52 -37 60 -4 8 -35 61 -70 118 -35 57 -63 108 -63
113 0 5 -4 9 -10 9 -5 0 -10 4 -10 10 0 8 -112 198 -186 317 -8 13 -14 26 -13
29 0 4 -4 10 -9 13 -5 3 -20 25 -33 48 -13 23 -53 91 -89 150 -36 59 -71 119
-78 133 -7 14 -19 32 -26 40 -7 8 -16 22 -19 30 -4 8 -18 33 -32 55 -14 22
-28 48 -31 58 -4 9 -10 17 -14 17 -4 0 -10 9 -13 20 -5 20 -14 20 -1580 20
-1487 0 -1575 -1 -1589 -17z m2216 -545 l619 -3 303 -505 c166 -278 307 -512
312 -520 5 -8 9 -19 10 -24 0 -5 4 -12 9 -15 5 -3 70 -107 144 -231 73 -124
139 -234 146 -245 7 -11 22 -39 35 -62 12 -24 26 -43 30 -43 4 0 8 -5 8 -10 0
-6 23 -47 50 -91 28 -44 50 -82 50 -84 0 -2 18 -32 39 -66 22 -35 71 -116 109
-180 67 -114 69 -117 54 -145 -8 -16 -18 -31 -21 -34 -3 -3 -11 -14 -17 -25
-36 -68 -400 -671 -406 -673 -5 -2 -8 -8 -8 -13 0 -5 -165 -284 -367 -620
-203 -337 -376 -626 -385 -643 -9 -17 -21 -35 -26 -41 -4 -5 -21 -34 -37 -63
-15 -28 -33 -53 -39 -53 -6 -1 -569 -2 -1252 -4 l-1241 -1 -119 197 c-65 109
-126 211 -134 226 -9 15 -32 54 -53 86 -20 31 -37 59 -37 61 0 4 -68 118 -109
181 -14 22 -26 42 -26 45 0 3 -8 16 -16 30 -22 34 -129 210 -143 235 -7 11
-27 46 -46 78 -19 32 -44 73 -55 92 -11 19 -74 123 -140 232 -66 109 -125 207
-131 218 -6 11 -47 80 -92 154 -45 74 -82 135 -82 137 0 1 -23 39 -50 83 -28
44 -50 85 -50 91 0 5 -4 10 -8 10 -5 0 -13 10 -19 22 -8 19 12 58 144 276 84
140 153 257 153 262 0 4 6 13 14 19 8 7 22 26 31 44 20 40 24 45 110 187 38
63 75 124 81 135 6 11 81 137 167 279 87 142 157 263 157 267 0 5 5 9 10 9 6
0 10 4 10 9 0 4 25 48 55 97 30 49 58 96 63 104 20 41 187 316 195 321 5 3 8
8 6 10 -1 2 9 22 23 44 13 22 40 66 58 97 25 43 41 58 60 60 14 2 297 2 630 1
333 -2 884 -4 1224 -5z"/>
<path d="M2679 5023 c0 -11 0 -674 0 -695 1 -16 39 -17 574 -17 l572 0 0 359
0 360 -572 0 c-315 0 -573 -3 -574 -7z"/>
<path d="M2748 3912 c-38 -2 -68 -6 -69 -10 0 -9 0 -2604 0 -2618 1 -8 164
-11 574 -11 l572 0 0 1313 c0 722 -3 1315 -6 1319 -7 6 -947 13 -1071 7z"/>
</g>
</svg>
