<svg xmlns="http://www.w3.org/2000/svg" viewBox="0 0 155.91 99.21"><defs><style>.cls-3,.cls-4{fill:#222221}.cls-4{font-size:10px;font-family:&apos;Faktpro&apos;,sans-serif}</style></defs><g id="Piano" fill="none" stroke="#222221" stroke-linecap="round" stroke-width=".25"><path stroke-linejoin="bevel" d="M7.09 7.09h141.73v85.04H7.09z"/><path d="M9.31 10.09h137.42V89.9H9.31zm-2.22-.78h141.73m-139.51.78l-.58-.78m138.01.78l.57-.78M7.09 92.13l2.22-2.23m139.51 2.23l-2.08-2.23" stroke-linejoin="round"/></g><g id="Bruciatori"><path class="cls-3" d="M120.33 49.12a17.43 17.43 0 11-17.42 17.42 17.45 17.45 0 0117.42-17.42m0-1a18.43 18.43 0 1018.43 18.42 18.42 18.42 0 00-18.43-18.42z"/><text class="cls-4" transform="translate(116.81 70.04)">D</text><path class="cls-3" d="M77.81 15.81a17.43 17.43 0 11-17.42 17.43 17.45 17.45 0 0117.42-17.43m0-1a18.43 18.43 0 1018.43 18.43 18.43 18.43 0 00-18.43-18.43z"/><text class="cls-4" transform="translate(74.29 36.73)">D</text><path class="cls-3" d="M120.33 24a9.28 9.28 0 11-9.27 9.28 9.29 9.29 0 019.27-9.28m0-1a10.28 10.28 0 1010.28 10.28A10.27 10.27 0 00120.33 23z"/><text class="cls-4" transform="translate(117.11 36.73)">A</text><path class="cls-3" d="M77.81 53.72A9.28 9.28 0 1168.54 63a9.29 9.29 0 019.27-9.28m0-1A10.28 10.28 0 1088.09 63a10.27 10.27 0 00-10.28-10.28z"/><text class="cls-4" transform="translate(74.59 66.5)">A</text><path class="cls-3" d="M35.29 21.65A11.76 11.76 0 1123.54 33.4a11.77 11.77 0 0111.75-11.75m0-1A12.76 12.76 0 1048.05 33.4a12.75 12.75 0 00-12.76-12.75z"/><text class="cls-4" transform="translate(31.97 36.9)">B</text><path class="cls-3" d="M35.29 54.79a11.76 11.76 0 11-11.75 11.75 11.77 11.77 0 0111.75-11.75m0-1a12.76 12.76 0 1012.76 12.75 12.75 12.75 0 00-12.76-12.75z"/><text class="cls-4" transform="translate(31.97 70.04)">B</text></g></svg>