<svg xmlns="http://www.w3.org/2000/svg" viewBox="0 0 170.08 113.39"><defs><style>.cls-1{fill:#222221}.cls-3{fill:#fff}</style></defs><g id="Piano"><path class="cls-1" d="M155.41 7.59v95.35a3.6 3.6 0 01-3.74 2.86H18.41a3.6 3.6 0 01-3.74-2.86V7.59h140.74m.5-.5H14.17v95.85c0 1.29 1.57 3.36 4.24 3.36h133.26c2.66 0 4.24-2.07 4.24-3.36V7.09z"/><path fill="none" stroke="#222221" stroke-linejoin="round" stroke-width=".25" d="M14.17 9.21h141.74"/></g><g id="Bruciatori_e_griglie" data-name="Bruciatori e griglie"><circle class="cls-1" cx="40.18" cy="38.13" r="6.38"/><path class="cls-1" d="M16 58V18.21h48.35V58zm43.31-3.68V21.89H21v32.47z"/><path class="cls-3" d="M64.28 18.28V58H16.09V18.28h48.19M21 54.44h38.4V21.81H21v32.63m43.43-36.31H15.94v40h48.49v-40zM21.11 22h38.14v32.29H21.11V22z"/><path class="cls-1" d="M53.35 38.66l-.07-.07v-.93l.07-.07h10.93l.07.07v.93l-.07.07H53.35z"/><path class="cls-3" d="M64.28 37.66v.93H53.35v-.93h10.93m0-.15H53.35l-.15.15v.93l.15.15h10.93l.15-.15v-.93l-.15-.15z"/><path class="cls-1" d="M16.09 38.66l-.08-.07v-.93l.08-.07h10.92l.07.07v.93l-.07.07H16.09z"/><path class="cls-3" d="M27 37.66v.93H16.09v-.93H27m0-.15H16.09l-.15.15v.93l.15.15H27l.15-.15v-.93l-.15-.15z"/><path class="cls-1" d="M33.87 32.86c-.07-.07-7.14-6.86-7.59-7.28a3.48 3.48 0 01-.79-2v-5.3l.08-.07h.92l.08.07v5.34a2.09 2.09 0 00.56 1.38l7.47 7.13v.1l-.64.67z"/><path class="cls-3" d="M26.49 18.28v5.34a2.09 2.09 0 00.59 1.38l7.47 7.13-.63.67-7.58-7.27a3.25 3.25 0 01-.77-1.91v-5.34h.92m0-.15h-.92l-.15.15v5.34a3.45 3.45 0 00.81 2c.45.41 7.52 7.2 7.59 7.27H34l.63-.68V32l-7.47-7.13a2 2 0 01-.54-1.28v-5.31l-.15-.15z"/><path class="cls-1" d="M46.39 32.85l-.63-.67v-.1L53.23 25a2 2 0 00.56-1.34v-5.38l.08-.07h.92l.08.07v5.34a3.41 3.41 0 01-.79 2c-.45.42-7.52 7.21-7.59 7.28z"/><path class="cls-3" d="M54.79 18.28v5.34a3.31 3.31 0 01-.79 1.91c-.45.42-7.59 7.27-7.59 7.27l-.63-.67 7.5-7.13a2.09 2.09 0 00.59-1.38v-5.34h.92m0-.15h-.92l-.15.15v5.34a2 2 0 01-.54 1.27L45.71 32v.21l.63.68h.22c.07-.07 7.14-6.86 7.58-7.27a3.44 3.44 0 00.81-2v-5.34l-.15-.15z"/><path class="cls-1" d="M53.87 58h-.08v-5.37a2 2 0 00-.56-1.33l-7.47-7.13v-.1l.63-.67h.1c.07.07 7.14 6.86 7.59 7.28a3.43 3.43 0 01.79 2V58l-.08.07z"/><path class="cls-3" d="M46.44 43.45s7.14 6.85 7.56 7.27a3.33 3.33 0 01.76 1.91V58h-.92v-5.37a2.12 2.12 0 00-.59-1.38l-7.47-7.13.63-.67m.11-.11h-.22l-.6.66v.21l7.47 7.13a2 2 0 01.54 1.28V58l.15.15h.92l.15-.15v-5.37a3.45 3.45 0 00-.81-2c-.44-.41-7.51-7.2-7.58-7.27z"/><path class="cls-1" d="M25.57 58h-.08v-5.37a3.51 3.51 0 01.79-2c.45-.42 7.52-7.21 7.59-7.28H34l.64.67v.1l-7.51 7.18a2.1 2.1 0 00-.56 1.34V58l-.08.07z"/><path class="cls-3" d="M33.92 43.45l.63.67-7.47 7.13a2.12 2.12 0 00-.59 1.38V58h-.92v-5.37a3.28 3.28 0 01.77-1.91l7.58-7.27m-.1-.11c-.07.07-7.14 6.86-7.59 7.27a3.44 3.44 0 00-.81 2V58l.15.15h.92l.15-.15v-5.37a2 2 0 01.54-1.27l7.47-7.13V44l-.65-.65z"/><path class="cls-1" d="M39.72 24.7l-.08-.07v-6.35l.08-.07h.92l.08.07v6.35l-.08.07h-.92z"/><path class="cls-3" d="M40.64 18.28v6.35h-.92v-6.35h.92m0-.15h-.92l-.15.15v6.35l.15.15h.92l.15-.15v-6.35l-.15-.15z"/><path class="cls-1" d="M39.72 58.04l-.08-.07v-6.34l.08-.08h.92l.08.08v6.34l-.08.07h-.92z"/><path class="cls-3" d="M40.64 51.63V58h-.92v-6.37h.92m0-.15h-.92l-.15.15V58l.15.15h.92l.15-.15v-6.37l-.15-.15z"/><path class="cls-1" d="M40.18 70a8.5 8.5 0 108.51 8.5 8.49 8.49 0 00-8.51-8.5zm0 13.18a4.68 4.68 0 114.68-4.68 4.69 4.69 0 01-4.68 4.7zm0-1.49a3.19 3.19 0 113.19-3.19 3.19 3.19 0 01-3.19 3.21z"/><path class="cls-1" d="M16 98.44V58.6h48.35v39.84zm43.31-3.68V62.28H21v32.48z"/><path class="cls-3" d="M64.28 58.68v39.68H16.09V58.68h48.19M21 94.83h38.4V62.21H21v32.62m43.47-36.3H15.94v40h48.49v-40zm-43.36 3.83h38.14v32.32H21.11V62.36z"/><path class="cls-1" d="M53.35 79.06l-.07-.08v-.92l.07-.08h10.93l.07.08v.92l-.07.08H53.35z"/><path class="cls-3" d="M64.28 78.06V79H53.35v-.92h10.93m0-.15H53.35l-.15.15V79l.15.15h10.93l.15-.15v-.92l-.15-.15z"/><path class="cls-1" d="M16.09 79.06l-.08-.08v-.92l.08-.08h10.92l.07.08v.92l-.07.08H16.09z"/><path class="cls-3" d="M27 78.06V79H16.09v-.92H27m0-.15H16.09l-.15.15V79l.15.15H27l.15-.15v-.92l-.15-.17z"/><path class="cls-1" d="M33.87 73.25c-.07-.07-7.14-6.86-7.59-7.27a3.51 3.51 0 01-.79-2v-5.3l.08-.08h.92l.08.08V64a2.09 2.09 0 00.56 1.33l7.47 7.13v.11l-.64.67z"/><path class="cls-3" d="M26.49 58.68V64a2.12 2.12 0 00.59 1.39l7.47 7.13-.63.67-7.58-7.28a3.25 3.25 0 01-.77-1.91v-5.32h.92m0-.15h-.92l-.15.15V64a3.45 3.45 0 00.81 2c.45.42 7.52 7.21 7.59 7.28H34l.63-.67v-.21l-7.47-7.13a2 2 0 01-.52-1.27v-5.32l-.15-.15z"/><path class="cls-1" d="M46.39 73.25l-.63-.67v-.11l7.47-7.13a2 2 0 00.56-1.34v-5.32l.08-.08h.92l.08.08V64a3.44 3.44 0 01-.79 2c-.45.41-7.52 7.2-7.59 7.27z"/><path class="cls-3" d="M54.79 58.68V64a3.31 3.31 0 01-.79 1.92c-.45.42-7.59 7.28-7.59 7.28l-.63-.67 7.47-7.13a2.12 2.12 0 00.62-1.4v-5.32h.92m0-.15h-.92l-.15.15V64a2 2 0 01-.54 1.28l-7.47 7.13v.21l.63.67h.22L54.13 66a3.44 3.44 0 00.81-2v-5.32l-.15-.15z"/><path class="cls-1" d="M53.87 98.44l-.08-.08V93a2 2 0 00-.56-1.33l-7.47-7.13v-.11l.63-.67h.1c.07.07 7.14 6.86 7.59 7.27a3.43 3.43 0 01.79 2v5.34l-.08.08z"/><path class="cls-3" d="M46.44 83.84s7.14 6.86 7.56 7.28a3.31 3.31 0 01.79 1.88v5.33h-.92V93a2.12 2.12 0 00-.59-1.39l-7.47-7.13.63-.67m.11-.11h-.22l-.63.67v.21l7.47 7.13a2 2 0 01.55 1.29v5.32l.15.15h.92l.15-.15V93a3.45 3.45 0 00-.81-2l-7.58-7.28z"/><path class="cls-1" d="M25.57 98.44l-.08-.08V93a3.51 3.51 0 01.79-2c.45-.41 7.52-7.2 7.59-7.27H34l.64.67v.11l-7.51 7.19a2.09 2.09 0 00-.56 1.3v5.33l-.08.08z"/><path class="cls-3" d="M33.92 83.84l.63.67-7.47 7.13a2.12 2.12 0 00-.59 1.36v5.33h-.92V93a3.25 3.25 0 01.77-1.91l7.58-7.28m-.1-.11c-.07.07-7.14 6.86-7.59 7.28a3.44 3.44 0 00-.81 2v5.34l.15.15h.92l.15-.15V93a2 2 0 01.54-1.28l7.47-7.13v-.21l-.65-.64z"/><path class="cls-1" d="M39.72 65.09l-.08-.07v-6.34l.08-.08h.92l.08.08v6.34l-.08.07h-.92z"/><path class="cls-3" d="M40.64 58.68V65h-.92v-6.32h.92m0-.15h-.92l-.15.15V65l.15.15h.92l.15-.15v-6.32l-.15-.15z"/><path class="cls-1" d="M39.72 98.44l-.08-.08v-6.34l.08-.08h.92l.08.08v6.34l-.08.08h-.92z"/><path class="cls-3" d="M40.64 92v6.34h-.92V92h.92m0-.15h-.92l-.15.15v6.34l.15.15h.92l.15-.15V92l-.15-.15z"/><circle class="cls-1" cx="129.9" cy="38.13" r="6.38"/><path class="cls-1" d="M105.73 58V18.21h48.34V58zM149 54.36V21.89h-38.25v32.47z"/><path class="cls-3" d="M154 18.28V58h-48.2V18.28H154m-43.32 36.16h38.44V21.81h-38.44v32.63m43.46-36.31h-48.49v40h48.49v-40zM110.83 22H149v32.29h-38.17V22z"/><path class="cls-1" d="M143.07 38.66l-.07-.07v-.93l.07-.07h10.92l.08.07v.93l-.08.07h-10.92z"/><path class="cls-3" d="M154 37.66v.93h-10.93v-.93H154m0-.15h-10.93l-.15.15v.93l.15.15H154l.15-.15v-.93l-.15-.15z"/><path class="cls-1" d="M105.8 38.66l-.07-.07v-.93l.07-.07h10.92l.08.07v.93l-.08.07H105.8z"/><path class="cls-3" d="M116.72 37.66v.93H105.8v-.93h10.92m0-.15H105.8l-.15.15v.93l.15.15h10.92l.16-.15v-.93l-.16-.15z"/><path class="cls-1" d="M123.59 32.86L116 25.58a3.41 3.41 0 01-.79-2v-5.3l.07-.07h.93l.07.07v5.34a2.09 2.09 0 00.57 1.33l7.47 7.13v.1l-.63.67z"/><path class="cls-3" d="M116.21 18.28v5.34a2.09 2.09 0 00.59 1.38l7.47 7.13-.63.67s-7.14-6.85-7.59-7.27a3.31 3.31 0 01-.76-1.91v-5.34h.92m0-.15h-.92l-.15.15v5.34a3.38 3.38 0 00.81 2c.44.41 7.51 7.2 7.58 7.27h.22l.63-.68V32l-7.47-7.13a2 2 0 01-.54-1.28v-5.31l-.15-.15z"/><path class="cls-1" d="M136.1 32.85l-.63-.67v-.1L143 25a2.1 2.1 0 00.56-1.34v-5.38l.08-.07h.92l.08.07v5.34a3.42 3.42 0 01-.8 2l-7.58 7.28z"/><path class="cls-3" d="M144.51 18.28v5.34a3.25 3.25 0 01-.77 1.91c-.45.42-7.58 7.27-7.58 7.27l-.63-.67L143 25a2.2 2.2 0 00.59-1.38v-5.34h.92m0-.15h-.92l-.15.15v5.34a2 2 0 01-.54 1.27L135.42 32v.21l.63.68h.21c.07-.07 7.14-6.86 7.59-7.27a3.44 3.44 0 00.81-2v-5.34l-.15-.15z"/><path class="cls-1" d="M143.59 58l-.08-.07v-5.3a2.09 2.09 0 00-.51-1.33l-7.47-7.13v-.1l.63-.67h.11l7.58 7.28a3.45 3.45 0 01.8 2V58l-.08.07z"/><path class="cls-3" d="M136.16 43.45s7.13 6.85 7.58 7.27a3.28 3.28 0 01.77 1.91V58h-.92v-5.37a2.22 2.22 0 00-.59-1.38l-7.47-7.13.63-.67m.1-.11h-.21l-.63.67v.21l7.48 7.13a2 2 0 01.54 1.28V58l.15.15h.92l.15-.15v-5.37a3.45 3.45 0 00-.81-2c-.45-.41-7.52-7.2-7.59-7.27z"/><path class="cls-1" d="M115.28 58l-.07-.07v-5.3a3.43 3.43 0 01.79-2l7.59-7.28h.1l.63.67v.1l-7.47 7.13a2.1 2.1 0 00-.57 1.34V58l-.07.07z"/><path class="cls-3" d="M123.64 43.45l.63.67-7.47 7.13a2.12 2.12 0 00-.59 1.38V58h-.92v-5.37a3.33 3.33 0 01.76-1.91c.45-.42 7.59-7.27 7.59-7.27m-.11-.11c-.07.07-7.14 6.86-7.58 7.27a3.38 3.38 0 00-.81 2V58l.15.15h.92l.15-.15v-5.37a2 2 0 01.54-1.27l7.47-7.13V44l-.63-.67z"/><path class="cls-1" d="M129.44 24.7l-.08-.07v-6.35l.08-.07h.92l.08.07v6.35l-.08.07h-.92z"/><path class="cls-3" d="M130.36 18.28v6.35h-.92v-6.35h.92m0-.15h-.92l-.15.15v6.35l.15.15h.92l.15-.15v-6.35l-.15-.15z"/><path class="cls-1" d="M129.44 58.04l-.08-.07v-6.34l.08-.08h.92l.08.08v6.34l-.08.07h-.92z"/><path class="cls-3" d="M130.36 51.63V58h-.92v-6.37h.92m0-.15h-.92l-.15.15V58l.15.15h.92l.15-.15v-6.37l-.15-.15z"/><path class="cls-1" d="M129.9 70a8.5 8.5 0 108.5 8.5 8.5 8.5 0 00-8.5-8.5zm0 13.18a4.68 4.68 0 114.67-4.68 4.68 4.68 0 01-4.67 4.7zm0-1.49a3.19 3.19 0 113.19-3.19 3.19 3.19 0 01-3.19 3.21z"/><path class="cls-1" d="M105.73 98.44V58.6h48.34v39.84zM149 94.76V62.28h-38.25v32.48z"/><path class="cls-3" d="M154 58.68v39.68h-48.2V58.68H154m-43.32 36.15h38.44V62.21h-38.44v32.62m43.46-36.3h-48.49v40h48.49v-40zm-43.31 3.83H149v32.32h-38.17V62.36z"/><path class="cls-1" d="M143.07 79.06l-.07-.08v-.92l.07-.08h10.92l.08.08v.92l-.08.08h-10.92z"/><path class="cls-3" d="M154 78.06V79h-10.93v-.92H154m0-.15h-10.93l-.15.15V79l.15.15H154l.15-.15v-.92l-.15-.15z"/><path class="cls-1" d="M105.8 79.06l-.07-.08v-.92l.07-.08h10.92l.08.08v.92l-.08.08H105.8z"/><path class="cls-3" d="M116.72 78.06V79H105.8v-.92h10.92m0-.15H105.8l-.15.15V79l.15.15h10.92l.16-.15v-.92l-.16-.15z"/><path class="cls-1" d="M123.59 73.25c-.08-.07-7.15-6.86-7.59-7.27a3.43 3.43 0 01-.79-2v-5.3l.07-.08h.93l.07.08V64a2.09 2.09 0 00.57 1.33l7.47 7.13v.11l-.63.67z"/><path class="cls-3" d="M116.21 58.68V64a2.12 2.12 0 00.59 1.39l7.47 7.13-.63.67s-7.14-6.86-7.59-7.28a3.31 3.31 0 01-.76-1.91v-5.32h.92m0-.15h-.92l-.15.15V64a3.38 3.38 0 00.81 2l7.58 7.28h.22l.63-.67v-.21l-7.47-7.13a2 2 0 01-.54-1.29v-5.3l-.15-.15z"/><path class="cls-1" d="M136.1 73.25l-.63-.67v-.11l7.53-7.13a2.09 2.09 0 00.56-1.33v-5.33l.08-.08h.92l.08.08V64a3.45 3.45 0 01-.8 2c-.44.41-7.51 7.2-7.58 7.27z"/><path class="cls-3" d="M144.51 58.68V64a3.25 3.25 0 01-.77 1.91c-.45.42-7.58 7.28-7.58 7.28l-.63-.67L143 65.4a2.23 2.23 0 00.59-1.39v-5.33h.92m0-.15h-.92l-.15.15V64a2 2 0 01-.54 1.28l-7.48 7.13v.21l.63.67h.21c.07-.07 7.14-6.86 7.59-7.28a3.44 3.44 0 00.81-2v-5.33l-.15-.15z"/><path class="cls-1" d="M143.59 98.44l-.08-.08V93a2.09 2.09 0 00-.51-1.3l-7.47-7.13v-.11l.63-.67h.11c.07.07 7.14 6.86 7.58 7.27a3.45 3.45 0 01.8 2v5.34l-.08.08z"/><path class="cls-3" d="M136.16 83.84s7.13 6.86 7.58 7.28a3.25 3.25 0 01.77 1.91v5.33h-.92V93a2.23 2.23 0 00-.59-1.39l-7.47-7.13.63-.67m.1-.11h-.21l-.63.67v.21l7.48 7.13a2 2 0 01.54 1.29v5.32l.15.15h.92l.15-.15V93a3.45 3.45 0 00-.81-2c-.45-.42-7.52-7.21-7.59-7.28z"/><path class="cls-1" d="M115.28 98.44l-.07-.08V93a3.44 3.44 0 01.79-2c.44-.41 7.51-7.2 7.59-7.27h.1l.63.67v.11l-7.47 7.13a2.09 2.09 0 00-.57 1.33v5.33l-.07.08z"/><path class="cls-3" d="M123.64 83.84l.63.67-7.47 7.13a2.12 2.12 0 00-.59 1.39v5.33h-.92V93a3.31 3.31 0 01.76-1.91c.45-.42 7.59-7.28 7.59-7.28m-.11-.11L116 91a3.38 3.38 0 00-.81 2v5.34l.15.15h.92l.15-.15V93a2 2 0 01.54-1.28l7.47-7.13v-.21l-.63-.67z"/><path class="cls-1" d="M129.44 65.09l-.08-.07v-6.34l.08-.08h.92l.08.08v6.34l-.08.07h-.92z"/><path class="cls-3" d="M130.36 58.68V65h-.92v-6.32h.92m0-.15h-.92l-.15.15V65l.15.15h.92l.15-.15v-6.32l-.15-.15z"/><path class="cls-1" d="M129.44 98.44l-.08-.08v-6.34l.08-.08h.92l.08.08v6.34l-.08.08h-.92z"/><path class="cls-3" d="M130.36 92v6.34h-.92V92h.92m0-.15h-.92l-.15.15v6.34l.15.15h.92l.15-.15V92l-.15-.15z"/><circle class="cls-1" cx="85.04" cy="38.13" r="6.38"/><path class="cls-1" d="M64.84 58V18.21h40.4V58zm36.72-3.68V21.89h-33v32.47z"/><path class="cls-3" d="M105.17 18.28V58H64.91V18.28h40.26M68.44 54.44h33.2V21.81h-33.2v32.63m36.88-36.31H64.76v40h40.56v-40zM68.59 22h32.9v32.29h-32.9V22z"/><path class="cls-1" d="M78.73 32.86c-.07-.07-7.14-6.86-7.59-7.28a3.41 3.41 0 01-.79-2v-5.3l.08-.07h.92l.08.07v5.34A2.09 2.09 0 0072 25l7.47 7.13v.1l-.63.67z"/><path class="cls-3" d="M71.35 18.28v5.34a2.09 2.09 0 00.59 1.38l7.47 7.13-.63.67s-7.14-6.8-7.59-7.27a3.31 3.31 0 01-.76-1.91v-5.34h.92m0-.15h-.92l-.15.15v5.34a3.45 3.45 0 00.81 2c.44.41 7.51 7.2 7.59 7.27h.21l.63-.68V32L72 24.89a2 2 0 01-.54-1.28v-5.33l-.15-.15z"/><path class="cls-1" d="M91.25 32.85l-.64-.67v-.1L98.09 25a2.1 2.1 0 00.56-1.34v-5.38l.08-.07h.92l.08.07v5.34a3.48 3.48 0 01-.79 2c-.45.42-7.52 7.21-7.59 7.28z"/><path class="cls-3" d="M99.65 18.28v5.34a3.25 3.25 0 01-.77 1.91L91.3 32.8l-.63-.67L98.14 25a2.09 2.09 0 00.59-1.38v-5.34h.92m0-.15h-.92l-.15.15v5.34a2 2 0 01-.58 1.27L90.57 32v.21l.63.68h.21c.08-.07 7.14-6.86 7.59-7.27a3.44 3.44 0 00.81-2v-5.34l-.15-.15z"/><path class="cls-1" d="M98.73 58h-.08v-5.37a2.09 2.09 0 00-.56-1.33l-7.47-7.13v-.1l.64-.67h.1c.07.07 7.14 6.86 7.59 7.28a3.51 3.51 0 01.79 2V58l-.08.07z"/><path class="cls-3" d="M91.3 43.45l7.58 7.27a3.28 3.28 0 01.77 1.91V58h-.92v-5.37a2.12 2.12 0 00-.59-1.38l-7.47-7.13.63-.67m.1-.11h-.21l-.63.67v.21L98 51.36a2 2 0 01.54 1.28V58l.15.15h.92l.19-.15v-5.37a3.45 3.45 0 00-.81-2c-.45-.41-7.51-7.2-7.59-7.27z"/><path class="cls-1" d="M70.43 58h-.08v-5.37a3.43 3.43 0 01.79-2c.45-.42 7.52-7.21 7.59-7.28h.1l.63.67v.1L72 51.3a2.1 2.1 0 00-.56 1.34V58l-.08.07z"/><path class="cls-3" d="M78.78 43.45l.63.67-7.47 7.13a2.12 2.12 0 00-.59 1.38V58h-.92v-5.37a3.33 3.33 0 01.76-1.91c.45-.42 7.59-7.27 7.59-7.27m-.1-.11c-.08.07-7.15 6.86-7.59 7.27a3.44 3.44 0 00-.81 2V58l.15.15h.92l.15-.15v-5.37a2 2 0 01.5-1.27l7.47-7.13V44l-.63-.67z"/><path class="cls-1" d="M84.58 24.7l-.08-.07v-6.35l.08-.07h.92l.08.07v6.35l-.08.07h-.92z"/><path class="cls-3" d="M85.5 18.28v6.35h-.92v-6.35h.92m0-.15h-.92l-.15.15v6.35l.15.15h.92l.15-.15v-6.35l-.15-.15z"/><path class="cls-1" d="M84.58 58.04l-.08-.07v-6.34l.08-.08h.92l.08.08v6.34l-.08.07h-.92z"/><path class="cls-3" d="M85.5 51.63V58h-.92v-6.37h.92m0-.15h-.92l-.15.15V58l.15.15h.92l.15-.15v-6.37l-.15-.15z"/><path class="cls-1" d="M95.46 38.66l-.07-.07v-.93l.07-.07h9.71l.07.07v.93l-.07.07h-9.71z"/><path class="cls-3" d="M105.17 37.66v.93h-9.71v-.93h9.71m0-.15h-9.71l-.15.15v.93l.15.15h9.71l.15-.15v-.93l-.15-.15z"/><path class="cls-1" d="M64.91 38.66l-.07-.07v-.93l.07-.07h9.71l.07.07v.93l-.07.07h-9.71z"/><path class="cls-3" d="M74.62 37.66v.93h-9.71v-.93h9.71m0-.15h-9.71l-.15.15v.93l.15.15h9.71l.15-.15v-.93l-.15-.15z"/><circle class="cls-1" cx="85.04" cy="78.52" r="4.25"/><path class="cls-1" d="M64.84 98.44V58.6h40.4v39.84zm36.72-3.68V62.28h-33v32.48z"/><path class="cls-3" d="M105.17 58.68v39.68H64.91V58.68h40.26M68.44 94.83h33.2V62.21h-33.2v32.62m36.88-36.3H64.76v40h40.56v-40zm-36.73 3.83h32.9v32.32h-32.9V62.36z"/><path class="cls-1" d="M78.73 73.25c-.07-.07-7.14-6.86-7.59-7.27a3.43 3.43 0 01-.79-2v-5.3l.08-.08h.92l.08.08V64a2.09 2.09 0 00.57 1.34l7.47 7.13v.11l-.63.67z"/><path class="cls-3" d="M71.35 58.68V64a2.12 2.12 0 00.59 1.39l7.47 7.13-.63.67s-7.14-6.86-7.59-7.28a3.31 3.31 0 01-.76-1.91v-5.32h.92m0-.15h-.92l-.15.15V64a3.45 3.45 0 00.81 2l7.59 7.28h.21l.63-.67v-.21L72 65.29a2 2 0 01-.5-1.29v-5.32l-.15-.15z"/><path class="cls-1" d="M91.25 73.25l-.64-.67v-.11l7.47-7.13a2.09 2.09 0 00.57-1.34v-5.32l.08-.08h.92l.08.08V64a3.51 3.51 0 01-.79 2c-.45.41-7.52 7.2-7.59 7.27z"/><path class="cls-3" d="M99.65 58.68V64a3.25 3.25 0 01-.77 1.91L91.3 73.2l-.63-.67 7.47-7.13a2.12 2.12 0 00.59-1.4v-5.32h.92m0-.15h-.92l-.15.15V64a2 2 0 01-.58 1.29l-7.47 7.13v.21l.63.67h.21c.08-.07 7.14-6.86 7.59-7.28a3.44 3.44 0 00.81-2v-5.34l-.15-.15z"/><path class="cls-1" d="M98.73 98.44l-.08-.08V93a2.09 2.09 0 00-.56-1.33l-7.47-7.13v-.11l.64-.67h.1c.07.07 7.14 6.86 7.59 7.27a3.51 3.51 0 01.79 2v5.34l-.08.08z"/><path class="cls-3" d="M91.3 83.84l7.58 7.28a3.25 3.25 0 01.77 1.88v5.33h-.92V93a2.12 2.12 0 00-.59-1.39l-7.47-7.13.63-.67m.1-.11h-.21l-.63.67v.21L98 91.75a2 2 0 01.58 1.25v5.32l.15.15h.92l.15-.15V93a3.45 3.45 0 00-.8-2c-.45-.42-7.51-7.21-7.59-7.28z"/><path class="cls-1" d="M70.43 98.44l-.08-.08V93a3.44 3.44 0 01.79-2c.45-.41 7.52-7.2 7.59-7.27h.1l.63.67v.11L72 91.7a2.09 2.09 0 00-.57 1.3v5.33l-.08.08z"/><path class="cls-3" d="M78.78 83.84l.63.67-7.47 7.13a2.12 2.12 0 00-.59 1.36v5.33h-.92V93a3.31 3.31 0 01.76-1.91c.45-.42 7.59-7.28 7.59-7.28m-.1-.11L71.09 91a3.44 3.44 0 00-.81 2v5.34l.15.15h.92l.15-.15V93a2 2 0 01.5-1.25l7.47-7.13v-.21l-.63-.67z"/><path class="cls-1" d="M84.58 65.09l-.08-.07v-6.34l.08-.08h.92l.08.08v6.34l-.08.07h-.92z"/><path class="cls-3" d="M85.5 58.68V65h-.92v-6.32h.92m0-.15h-.92l-.15.15V65l.15.15h.92l.15-.15v-6.32l-.15-.15z"/><path class="cls-1" d="M84.58 98.44l-.08-.08v-6.34l.08-.08h.92l.08.08v6.34l-.08.08h-.92z"/><path class="cls-3" d="M85.5 92v6.34h-.92V92h.92m0-.15h-.92l-.15.15v6.34l.15.15h.92l.15-.15V92l-.15-.15z"/><path class="cls-1" d="M95.46 79.06l-.07-.08v-.92l.07-.08h9.71l.07.08v.92l-.07.08h-9.71z"/><path class="cls-3" d="M105.17 78.06V79h-9.71v-.92h9.71m0-.15h-9.71l-.15.15V79l.15.15h9.71l.15-.15v-.92l-.15-.15z"/><path class="cls-1" d="M64.91 79.06l-.07-.08v-.92l.07-.08h9.71l.07.08v.92l-.07.08h-9.71z"/><path class="cls-3" d="M74.62 78.06V79h-9.71v-.92h9.71m0-.15h-9.71l-.15.15V79l.15.15h9.71l.15-.15v-.92l-.15-.15z"/></g></svg>