<svg xmlns="http://www.w3.org/2000/svg" viewBox="0 0 170.08 113.39"><defs><style>.cls-4{fill:#222221}.cls-3{fill:none;stroke:#222221;stroke-miterlimit:10}.cls-4{font-size:10px;font-family:&apos;Faktpro&apos;,sans-serif}</style></defs><g id="Piano"><path d="M155.41 7.59v95.35a3.6 3.6 0 01-3.74 2.86H18.41a3.6 3.6 0 01-3.74-2.86V7.59h140.74m.5-.5H14.17v95.85c0 1.29 1.57 3.36 4.24 3.36h133.26c2.66 0 4.24-2.07 4.24-3.36V7.09z" fill="#222221"/><path d="M14.17 9.21h141.74M14.17 98.11h141.74M14.17 18.45h141.74M16.07 98.11V18.45m137.94 79.66V18.45" stroke-linejoin="round" stroke-width=".25" fill="none" stroke="#222221"/></g><g id="Bruciatori_e_griglie" data-name="Bruciatori e griglie"><circle class="cls-3" cx="42.52" cy="75.26" r="12.76"/><text class="cls-4" transform="translate(39.2 78.76)">B</text><circle class="cls-3" cx="42.52" cy="40.96" r="12.76"/><text class="cls-4" transform="translate(39.2 44.46)">B</text><circle class="cls-3" cx="127.56" cy="75.26" r="14.88"/><circle class="cls-3" cx="127.56" cy="42.02" r="10.28"/><text class="cls-4" transform="translate(124.34 45.52)">A</text><circle class="cls-3" cx="85.04" cy="71.79" r="10.28"/><text class="cls-4" transform="translate(81.82 75.28)">A</text><text class="cls-4" transform="translate(124 78.76)">C</text><circle class="cls-3" cx="85.04" cy="42.02" r="14.88"/><text class="cls-4" transform="translate(81.48 45.52)">C</text></g></svg>