<svg xmlns="http://www.w3.org/2000/svg" viewBox="0 0 164.41 164.41"><defs><style>.cls-10,.cls-6{fill:#20201e}.cls-2,.cls-3,.cls-4,.cls-5,.cls-7,.cls-8,.cls-9{stroke:#20201e}.cls-5,.cls-7,.cls-8,.cls-9{stroke-miterlimit:1.41}.cls-2,.cls-7,.cls-9{fill:none}.cls-2,.cls-3,.cls-4{stroke-miterlimit:10}.cls-2,.cls-7{stroke-width:.5px}.cls-3,.cls-4,.cls-5,.cls-8{fill:#fff}.cls-3{stroke-width:.4px}.cls-4,.cls-5{stroke-width:.3px}.cls-8,.cls-9{stroke-width:.25px}.cls-10{font-size:7px;font-family:Fakt-Normal,Fakt}</style></defs><g id="Ranges"><path d="M71.09 25.58v-2.97h15.29l-4.71 1.13h-7.16v1.84h-3.42zm39.5.04v-2.97H94.96l4.71 1.13h7.16v1.84h3.76zm-20.22-3h.92v2.97h-.92zm-20.74 2.96v-2.97H53.99l4.71 1.13h7.16v1.84h3.77zm-39.8.04v-2.97h15.29l-4.7 1.13h-7.16v1.84h-3.43zm19.56-3h.92v2.97h-.92zm62.67 2.96v-2.97h15.29l-4.71 1.13h-7.16v1.84h-3.42zm39.5.04v-2.97h-15.64l4.71 1.13h7.16v1.84h3.77zm-20.22-3h.92v2.97h-.92z" stroke-width=".2" stroke-miterlimit="1.41" stroke="#20201e" fill="#20201e"/><rect class="cls-2" x="39.99" y="67.47" width="58.32" height="30.87" rx="1.41"/><rect class="cls-2" x="121.74" y="67.47" width="25.31" height="30.87" rx="1.41"/><circle class="cls-3" cx="55.84" cy="42.67" r="3.62"/><rect class="cls-4" x="57.1" y="41.97" width="4.31" height="1.39" rx=".56"/><circle class="cls-4" cx="55.84" cy="42.67" r="2.09"/><circle class="cls-3" cx="67.19" cy="42.67" r="3.62"/><rect class="cls-4" x="68.45" y="41.97" width="4.31" height="1.39" rx=".56"/><circle class="cls-4" cx="67.19" cy="42.67" r="2.09"/><circle class="cls-3" cx="78.55" cy="42.67" r="3.62"/><rect class="cls-4" x="79.81" y="41.97" width="4.31" height="1.39" rx=".56"/><circle class="cls-4" cx="78.55" cy="42.67" r="2.09"/><circle class="cls-3" cx="89.61" cy="42.67" r="3.62"/><rect class="cls-4" x="90.87" y="41.97" width="4.31" height="1.39" rx=".56"/><circle class="cls-4" cx="89.61" cy="42.67" r="2.09"/><circle class="cls-3" cx="100.67" cy="42.67" r="3.62"/><rect class="cls-4" x="101.93" y="41.97" width="4.31" height="1.39" rx=".56"/><circle class="cls-4" cx="100.67" cy="42.67" r="2.09"/><circle class="cls-3" cx="112.17" cy="42.67" r="3.62"/><rect class="cls-4" x="113.43" y="41.97" width="4.31" height="1.39" rx=".56"/><circle class="cls-4" cx="112.17" cy="42.67" r="2.09"/><circle class="cls-3" cx="123.6" cy="42.67" r="3.62"/><rect class="cls-4" x="124.86" y="41.97" width="4.31" height="1.39" rx=".56"/><circle class="cls-4" cx="123.6" cy="42.67" r="2.09"/><circle class="cls-3" cx="135.38" cy="42.67" r="3.62"/><rect class="cls-4" x="136.64" y="41.97" width="4.31" height="1.39" rx=".56"/><circle class="cls-4" cx="135.38" cy="42.67" r="2.09"/><circle class="cls-3" cx="146.29" cy="42.67" r="3.62"/><rect class="cls-4" x="147.55" y="41.97" width="4.31" height="1.39" rx=".56"/><circle class="cls-4" cx="146.29" cy="42.67" r="2.09"/><path class="cls-5" d="M39.79 58.63h58.06v3.48H39.79zm-5.05 1.07h4.13v1.23h-4.13z"/><ellipse class="cls-5" cx="34.13" cy="60.26" rx="1.85" ry="1.9"/><path class="cls-5" d="M39.79 60.73h1.2v4h-1.2z"/><rect class="cls-5" x="37.18" y="58.14" width="5.01" height="4.47" rx=".24"/><path class="cls-5" d="M99.32 59.7h4.13v1.23h-4.13z"/><ellipse class="cls-5" cx="103.9" cy="60.26" rx="1.85" ry="1.9"/><ellipse class="cls-5" cx="103.9" cy="60.26" rx="1.85" ry="1.9"/><path class="cls-5" d="M97.26 60.73h1.2v4h-1.2z"/><rect class="cls-5" x="95.84" y="58.14" width="5.01" height="4.47" rx=".24"/><path class="cls-5" d="M122.89 58.63h23.01v3.48h-23.01zm-5.05 1.07h4.13v1.23h-4.13z"/><ellipse class="cls-5" cx="117.23" cy="60.26" rx="1.85" ry="1.9"/><path class="cls-5" d="M122.89 60.73h1.2v4h-1.2z"/><rect class="cls-5" x="120.27" y="58.14" width="5.01" height="4.47" rx=".24"/><path class="cls-5" d="M146.15 59.7h4.13v1.23h-4.13z"/><ellipse class="cls-5" cx="150.73" cy="60.26" rx="1.85" ry="1.9"/><ellipse class="cls-5" cx="150.73" cy="60.26" rx="1.85" ry="1.9"/><path class="cls-5" d="M144.09 60.73h1.2v4h-1.2z"/><rect class="cls-5" x="142.68" y="58.14" width="5.01" height="4.47" rx=".24"/><ellipse class="cls-6" cx="84.12" cy="37.24" rx="1.2" ry="1.24"/><ellipse class="cls-6" cx="106.99" cy="37.24" rx="1.2" ry="1.24"/><ellipse class="cls-6" cx="129.93" cy="37.24" rx="1.2" ry="1.24"/><ellipse class="cls-6" cx="140.95" cy="37.24" rx="1.2" ry="1.24"/><ellipse class="cls-6" cx="61.71" cy="37.24" rx="1.2" ry="1.24"/><path class="cls-2" d="M155.52 113.33H25.87m0 22.74V31.2m129.65 22.66H25.87m129.65 82.19V31.18m-135.55 0H161.7M19.84 25.52h141.73M19.84 17.01h141.73v119.06H19.84zm141.73 119.06V31.97"/><path class="cls-7" d="M112.32 113.39V53.86m0 54.58v3.9"/><path class="cls-2" d="M30.23 38.44h13.24v8.07H30.23z"/><path class="cls-6" d="M153.6 115.3v18.85H27.79V115.3H153.6m.5-.5H27.29v19.85H154.1V114.8zm-43.7-59.02v55.69H27.79V55.78h82.61m.5-.5H27.29V112h83.61V55.28zm42.7-22.18v18.84H27.79V33.1H153.6m.5-.5H27.29v19.84H154.1V32.6zm-.5 23.18v55.69h-39.36V55.78h39.36m.5-.5h-40.36V112h40.36V55.28z"/><path class="cls-7" d="M19.84 136.06v19.85H31.7s-.05-3.34-.05-6.21 3.23-3.48 5.07-4.18c3.73-1.43 9.11-2.7 13.37-3.81 4-1 3.77-5.65 3.77-5.65zm141.73 0v19.85h-11.85v-6.21c0-2.87-3.22-3.48-5.06-4.18-3.73-1.43-9.11-2.7-13.38-3.81-4-1-3.76-5.65-3.76-5.65z"/></g><g id="Dimensions"><path class="cls-8" d="M19.84 155.91h-8.5m8.5-19.85h-8.5m8.5-119.05h-8.5m8.5 8.5h-8.5"/><path class="cls-9" d="M14.17 25.78v110.01"/><path class="cls-6" d="M13.15 26.61l.18.17.84-.9.84.9.19-.17-1.03-1.1-1.02 1.1zm0 108.35l.18-.17.84.9.84-.9.19.17-1.03 1.1-1.02-1.1z"/><text class="cls-10" transform="rotate(-90 48.335 38.415)">780</text><text class="cls-10" transform="rotate(-90 11.2 1.28)">60</text><path class="cls-9" d="M14.17 8.5v8.24"/><path class="cls-6" d="M13.15 15.91l.18-.17.84.9.84-.9.19.17-1.03 1.1-1.02-1.1z"/><path class="cls-9" d="M14.17 25.51v-8.5m0 119.05v19.85"/><text class="cls-10" transform="rotate(-90 85.75 75.83)">140</text><path class="cls-9" d="M14.17 156.18v5.39"/><path class="cls-6" d="M13.15 157l.18.18.84-.91.84.91.19-.18-1.03-1.09-1.02 1.09z"/><path class="cls-8" d="M19.84 16.98v-8.5m141.73 8.5v-8.5"/><path class="cls-9" d="M161.3 11.31H20.11"/><path class="cls-6" d="M160.47 10.29l-.16.18.9.84-.9.84.16.18 1.1-1.02-1.1-1.02zm-139.53 0l.17.18-.9.84.9.84-.17.18-1.1-1.02 1.1-1.02z"/><text class="cls-10" transform="translate(82.76 7.06)">1000</text></g></svg>