<svg xmlns="http://www.w3.org/2000/svg" viewBox="0 0 184.25 99.21"><defs><style>.cls-3,.cls-4{fill:#222221}.cls-4{stroke:#fff;stroke-miterlimit:10;stroke-width:.15px}.cls-5{fill:#fff}</style></defs><g id="Piano" fill="none" stroke="#222221" stroke-linecap="round" stroke-width=".25"><path stroke-linejoin="bevel" d="M7.09 7.09h170.08v85.04H7.09z"/><path d="M7.09 9.31h170.08m-167.86.78l-.58-.78m166.35.78l.58-.78M7.09 92.13l2.22-2.23m167.86 2.23l-2.09-2.23M9.31 10.03h165.77v79.94H9.31z" stroke-linejoin="round"/></g><g id="Bruciatori"><circle class="cls-3" cx="71.57" cy="30.15" r="6.38"/><path class="cls-4" d="M51.45 10.31V50H91.7V10.31zm36.72 36.16H55V13.84h33.17z"/><path class="cls-3" d="M65.26 24.88l-7.58-7.27a3.37 3.37 0 01-.79-2v-5.3l.07-.07h.93l.07.07v5.34a2.09 2.09 0 00.56 1.35L66 24.1v.11l-.63.67z"/><path class="cls-5" d="M57.89 10.31v5.34a2.17 2.17 0 00.58 1.35l7.47 7.13-.63.67s-7.13-6.8-7.58-7.24a3.37 3.37 0 01-.73-1.91v-5.34h.93m0-.15H57l-.15.15v5.34a3.46 3.46 0 00.82 2c.44.41 7.51 7.2 7.58 7.27h.21l.63-.67v-.21l-7.47-7.13a2 2 0 01-.62-1.27v-5.33l-.15-.15z"/><path class="cls-3" d="M77.78 24.88l-.63-.67v-.11l7.47-7.1a2 2 0 00.57-1.34v-5.35l.07-.07h.93l.07.07v5.34a3.37 3.37 0 01-.79 2l-7.58 7.27z"/><path class="cls-5" d="M86.19 10.31v5.34a3.45 3.45 0 01-.77 1.91c-.45.42-7.58 7.27-7.58 7.27l-.63-.67L84.68 17a2.17 2.17 0 00.58-1.38v-5.31h.93m0-.15h-.93l-.15.15v5.34a2 2 0 01-.54 1.27l-7.47 7.13v.21l.63.67h.21c.07-.07 7.14-6.86 7.58-7.27a3.46 3.46 0 00.82-2v-5.35l-.15-.15z"/><path class="cls-3" d="M85.26 50.07l-.07-.07v-5.34a2 2 0 00-.57-1.33l-7.47-7.13v-.1l.63-.67h.11c.07.07 7.14 6.86 7.58 7.27a3.4 3.4 0 01.79 2V50l-.07.07z"/><path class="cls-5" d="M77.84 35.48s7.13 6.85 7.58 7.27a3.39 3.39 0 01.77 1.91V50h-.93v-5.34a2.2 2.2 0 00-.58-1.39c-.26-.23-7.47-7.12-7.47-7.12l.63-.67m.1-.11h-.21l-.63.68v.21l7.47 7.12a2 2 0 01.54 1.29V50l.15.15h.93l.15-.15v-5.34a3.46 3.46 0 00-.82-2c-.44-.41-7.51-7.2-7.58-7.27z"/><path class="cls-3" d="M57 50.07l-.11-.07v-5.34a3.4 3.4 0 01.79-2c.44-.41 7.51-7.2 7.58-7.27h.11l.63.67v.1l-7.48 7.13a2.1 2.1 0 00-.52 1.38V50l-.07.07z"/><path class="cls-5" d="M65.31 35.48l.63.67s-7.21 6.85-7.47 7.12a2.2 2.2 0 00-.58 1.39V50H57v-5.34a3.32 3.32 0 01.77-1.91c.45-.42 7.58-7.27 7.58-7.27m-.1-.11c-.07.07-7.14 6.86-7.58 7.27a3.46 3.46 0 00-.82 2V50l.15.15h.93L58 50v-5.34a2 2 0 01.54-1.28l7.47-7.12v-.21l-.63-.68z"/><path class="cls-3" d="M71.11 16.73l-.07-.08v-6.34l.07-.07h.93l.07.07v6.34l-.07.08h-.93z"/><path class="cls-5" d="M72 10.31v6.34h-.93v-6.34H72m0-.15h-.93l-.15.15v6.34l.15.15H72l.15-.15v-6.34l-.15-.15z"/><path class="cls-3" d="M71.11 50.07l-.07-.07v-6.35l.07-.07h.93l.07.07V50l-.07.07h-.93z"/><path class="cls-5" d="M72 43.65V50h-.93v-6.35H72m0-.15h-.93l-.15.15V50l.15.15H72l.15-.15v-6.35L72 43.5z"/><path class="cls-3" d="M82 30.69l-.08-.08v-.92l.08-.07h9.7l.08.07v.92l-.08.08H82z"/><path class="cls-5" d="M91.7 29.69v.93H82v-.93h9.7m0-.15H82l-.15.15v.93l.15.15h9.7l.15-.15v-.93l-.15-.15z"/><path class="cls-3" d="M51.45 30.69l-.08-.08v-.92l.08-.07h9.7l.08.07v.92l-.08.08h-9.7z"/><path class="cls-5" d="M61.15 29.69v.93h-9.7v-.93h9.7m0-.15h-9.7l-.15.15v.93l.15.15h9.7l.15-.15v-.93l-.15-.15z"/><circle class="cls-3" cx="71.57" cy="69.84" r="4.25"/><path class="cls-4" d="M51.45 50v39.68H91.7V50zm36.72 36.15H55V53.53h33.17z"/><path class="cls-3" d="M65.26 64.57c-.07-.07-7.14-6.86-7.58-7.27a3.39 3.39 0 01-.79-2V50l.07-.08h.93L58 50v5.33a2.09 2.09 0 00.56 1.33L66 63.79v.11l-.63.67z"/><path class="cls-5" d="M57.89 50v5.33a2.17 2.17 0 00.58 1.39l7.47 7.12-.63.68s-7.13-6.86-7.58-7.28a3.32 3.32 0 01-.73-1.91V50h.93m0-.15H57l-.15.15v5.33a3.46 3.46 0 00.82 2l7.58 7.27h.21l.63-.67v-.21l-7.47-7.13a2 2 0 01-.62-1.27V50l-.15-.15z"/><path class="cls-3" d="M77.78 64.57l-.63-.67v-.11l7.47-7.13a2 2 0 00.57-1.33V50l.07-.08h.93l.07.08v5.33a3.4 3.4 0 01-.79 2c-.44.41-7.51 7.2-7.58 7.27z"/><path class="cls-5" d="M86.19 50v5.33a3.39 3.39 0 01-.77 1.91c-.45.42-7.58 7.28-7.58 7.28l-.63-.68 7.47-7.12a2.17 2.17 0 00.58-1.39V50h.93m0-.15h-.93l-.15.15v5.33a2 2 0 01-.54 1.28l-7.47 7.13V64l.63.67h.21l7.58-7.27a3.46 3.46 0 00.82-2V50l-.15-.15z"/><path class="cls-3" d="M85.26 89.76l-.07-.08v-5.33a2.07 2.07 0 00-.57-1.35l-7.47-7.12v-.11l.63-.67h.11l7.58 7.27a3.37 3.37 0 01.79 2v5.34l-.07.08z"/><path class="cls-5" d="M77.84 75.16S85 82 85.42 82.43a3.45 3.45 0 01.77 1.92v5.33h-.93v-5.33a2.17 2.17 0 00-.58-1.35l-7.47-7.13.63-.67m.1-.11h-.21l-.63.67v.21l7.47 7.13a2 2 0 01.54 1.29v5.32l.15.15h.93l.15-.15v-5.36a3.51 3.51 0 00-.82-2c-.44-.41-7.51-7.2-7.58-7.27z"/><path class="cls-3" d="M57 89.76l-.07-.08v-5.33a3.37 3.37 0 01.79-2l7.58-7.27h.11l.63.67v.11s-7.26 6.92-7.52 7.14a2.12 2.12 0 00-.52 1.35v5.33l-.07.08z"/><path class="cls-5" d="M65.31 75.16l.63.67L58.47 83a2.17 2.17 0 00-.58 1.39v5.33H57v-5.37a3.38 3.38 0 01.77-1.92c.45-.42 7.58-7.27 7.58-7.27m-.1-.11c-.07.07-7.14 6.86-7.58 7.27a3.51 3.51 0 00-.82 2v5.34l.15.15h.93l.15-.15v-5.31a2 2 0 01.54-1.28l7.47-7.13v-.21l-.63-.67z"/><path class="cls-3" d="M71.11 56.41l-.07-.07V50l.07-.08h.93l.07.08v6.34l-.07.07h-.93z"/><path class="cls-5" d="M72 50v6.34h-.93V50H72m0-.15h-.93L71 50v6.34l.15.15H72l.15-.15V50l-.15-.15z"/><path class="cls-3" d="M71.11 89.76l-.07-.08v-6.34l.07-.08h.93l.07.08v6.34l-.07.08h-.93z"/><path class="cls-5" d="M72 83.34v6.34h-.93v-6.34H72m0-.15h-.93l-.15.15v6.34l.15.15H72l.15-.15v-6.34l-.15-.15z"/><path class="cls-3" d="M82 70.38l-.08-.08v-.92l.08-.08h9.7l.08.08v.92l-.08.08H82z"/><path class="cls-5" d="M91.7 69.38v.92H82v-.92h9.7m0-.15H82l-.15.15v.92l.15.15h9.7l.15-.15v-.92l-.15-.15z"/><path class="cls-3" d="M51.45 70.38l-.08-.08v-.92l.08-.08h9.7l.08.08v.92l-.08.08h-9.7z"/><path class="cls-5" d="M61.15 69.38v.92h-9.7v-.92h9.7m0-.15h-9.7l-.15.15v.92l.15.15h9.7l.15-.15v-.92l-.15-.15z"/><circle class="cls-3" cx="112.68" cy="30.15" r="6.38"/><path class="cls-4" d="M92.55 10.31V50h40.25V10.31zm36.72 36.16H96.08V13.84h33.19z"/><path class="cls-3" d="M106.36 24.88l-7.58-7.27a3.43 3.43 0 01-.79-2v-5.3l.07-.07H99l.07.07v5.34a2 2 0 00.56 1.35l7.47 7.12v.11l-.63.67z"/><path class="cls-5" d="M99 10.31v5.34a2.12 2.12 0 00.58 1.35l7.47 7.13-.63.67s-7.14-6.8-7.59-7.24a3.45 3.45 0 01-.77-1.91v-5.34H99m0-.15h-.93l-.15.15v5.34a3.46 3.46 0 00.82 2c.44.41 7.51 7.2 7.58 7.27h.22l.63-.67v-.21l-7.47-7.13a2 2 0 01-.54-1.28v-5.32l-.16-.15z"/><path class="cls-3" d="M118.88 24.88l-.63-.67v-.11l7.48-7.1a2.1 2.1 0 00.56-1.34v-5.35l.08-.07h.92l.07.07v5.34a3.37 3.37 0 01-.79 2L119 24.88z"/><path class="cls-5" d="M127.29 10.31v5.34a3.31 3.31 0 01-.77 1.91c-.45.42-7.58 7.27-7.58 7.27l-.63-.67 7.47-7.16a2.22 2.22 0 00.59-1.38v-5.31h.92m0-.15h-.92l-.15.15v5.34a2 2 0 01-.54 1.27l-7.48 7.13v.21l.63.67h.17c.07-.07 7.14-6.86 7.58-7.27a3.39 3.39 0 00.82-2v-5.35l-.15-.15z"/><path class="cls-3" d="M126.37 50.07l-.08-.07v-5.34a2.09 2.09 0 00-.56-1.33l-7.47-7.13v-.1l.63-.67h.11c.07.07 7.14 6.86 7.58 7.27a3.4 3.4 0 01.79 2V50l-.07.07z"/><path class="cls-5" d="M118.94 35.48s7.13 6.85 7.58 7.27a3.25 3.25 0 01.77 1.91V50h-.92v-5.34a2.25 2.25 0 00-.59-1.39c-.26-.23-7.47-7.12-7.47-7.12l.63-.67m.1-.11h-.21l-.63.68v.21c.08.07 7.22 6.89 7.48 7.12a2 2 0 01.54 1.29V50l.15.15h.92l.15-.15v-5.34a3.4 3.4 0 00-.82-2c-.44-.41-7.51-7.2-7.58-7.27z"/><path class="cls-3" d="M98.06 50.07L98 50v-5.34a3.46 3.46 0 01.79-2c.44-.41 7.51-7.2 7.58-7.27h.11l.63.67v.1l-7.47 7.13a2 2 0 00-.57 1.34V50l-.07.07z"/><path class="cls-5" d="M106.42 35.48l.63.67-7.47 7.12a2.15 2.15 0 00-.58 1.39V50h-.93v-5.34a3.39 3.39 0 01.77-1.91c.45-.42 7.59-7.27 7.59-7.27m-.11-.11c-.07.07-7.14 6.86-7.58 7.27a3.46 3.46 0 00-.82 2V50l.15.15H99l.15-.15v-5.34a2 2 0 01.54-1.28l7.47-7.12v-.21l-.63-.68z"/><path class="cls-3" d="M112.22 16.73l-.08-.08v-6.34l.08-.07h.92l.07.07v6.34l-.07.08h-.92z"/><path class="cls-5" d="M113.14 10.31v6.34h-.92v-6.34h.92m0-.15h-.92l-.15.15v6.34l.15.15h.92l.15-.15v-6.34l-.15-.15z"/><path class="cls-3" d="M112.22 50.07l-.08-.07v-6.35l.08-.07h.92l.07.07V50l-.07.07h-.92z"/><path class="cls-5" d="M113.14 43.65V50h-.92v-6.35h.92m0-.15h-.92l-.15.15V50l.15.15h.92l.15-.15v-6.35l-.15-.15z"/><path class="cls-3" d="M123.1 30.69l-.08-.08v-.92l.08-.07h9.7l.08.07v.92l-.08.08h-9.7z"/><path class="cls-5" d="M132.8 29.69v.93h-9.7v-.93h9.7m0-.15h-9.7l-.15.15v.93l.15.15h9.7l.15-.15v-.93l-.15-.15z"/><path class="cls-3" d="M92.55 30.69l-.07-.08v-.92l.07-.07h9.7l.08.07v.92l-.08.08h-9.7z"/><path class="cls-5" d="M102.25 29.69v.93h-9.7v-.93h9.7m0-.15h-9.7l-.15.15v.93l.15.15h9.7l.15-.15v-.93l-.15-.15z"/><circle class="cls-3" cx="112.68" cy="69.84" r="4.25"/><path class="cls-4" d="M92.55 50v39.68h40.25V50zm36.72 36.15H96.08V53.53h33.19z"/><path class="cls-3" d="M106.36 64.57c-.07-.07-7.14-6.86-7.58-7.27a3.46 3.46 0 01-.79-2V50l.07-.08H99l.07.08v5.33a2 2 0 00.57 1.33l7.47 7.13v.11l-.63.67z"/><path class="cls-5" d="M99 50v5.33a2.12 2.12 0 00.59 1.39l7.47 7.12-.63.68s-7.14-6.86-7.59-7.28a3.39 3.39 0 01-.77-1.91V50H99m0-.15h-.93l-.15.15v5.33a3.46 3.46 0 00.82 2l7.58 7.27h.22l.63-.67v-.21l-7.47-7.13a2 2 0 01-.54-1.29V50l-.16-.15z"/><path class="cls-3" d="M118.88 64.57l-.63-.67v-.11l7.47-7.13a2.09 2.09 0 00.56-1.33V50l.08-.08h.92l.07.08v5.33a3.4 3.4 0 01-.79 2c-.44.41-7.51 7.2-7.58 7.27z"/><path class="cls-5" d="M127.29 50v5.33a3.25 3.25 0 01-.77 1.91c-.45.42-7.58 7.28-7.58 7.28l-.63-.68 7.47-7.12a2.23 2.23 0 00.59-1.39V50h.92m0-.15h-.92l-.15.15v5.33a2 2 0 01-.54 1.28c-.26.23-7.4 7.06-7.48 7.13V64l.63.67h.17l7.58-7.27a3.39 3.39 0 00.82-2V50l-.15-.15z"/><path class="cls-3" d="M126.37 89.76l-.08-.08v-5.33a2.12 2.12 0 00-.56-1.34c-.26-.23-7.47-7.12-7.47-7.12v-.11l.63-.67h.11l7.58 7.27a3.37 3.37 0 01.79 2v5.34l-.07.08z"/><path class="cls-5" d="M118.94 75.16s7.13 6.85 7.58 7.27a3.31 3.31 0 01.77 1.92v5.33h-.92v-5.33a2.23 2.23 0 00-.59-1.39l-7.47-7.13.63-.67m.1-.11h-.21l-.63.67v.21l7.48 7.13a2 2 0 01.54 1.29v5.32l.15.15h.92l.15-.15v-5.32a3.45 3.45 0 00-.82-2c-.44-.41-7.51-7.2-7.58-7.27z"/><path class="cls-3" d="M98.06 89.76l-.06-.08v-5.33a3.44 3.44 0 01.79-2l7.58-7.27h.11l.63.67v.11L99.63 83a2.07 2.07 0 00-.57 1.34v5.33l-.07.08z"/><path class="cls-5" d="M106.42 75.16l.63.67L99.58 83a2.12 2.12 0 00-.58 1.35v5.33h-.93v-5.33a3.45 3.45 0 01.77-1.92c.45-.42 7.59-7.27 7.59-7.27m-.11-.11c-.07.07-7.14 6.86-7.58 7.27a3.51 3.51 0 00-.82 2v5.34l.15.15H99l.15-.15v-5.31a2 2 0 01.54-1.28l7.47-7.13v-.21l-.63-.67z"/><path class="cls-3" d="M112.22 56.41l-.08-.07V50l.08-.08h.92l.07.08v6.34l-.07.07h-.92z"/><path class="cls-5" d="M113.14 50v6.34h-.92V50h.92m0-.15h-.92l-.15.15v6.34l.15.15h.92l.15-.15V50l-.15-.15z"/><path class="cls-3" d="M112.22 89.76l-.08-.08v-6.34l.08-.08h.92l.07.08v6.34l-.07.08h-.92z"/><path class="cls-5" d="M113.14 83.34v6.34h-.92v-6.34h.92m0-.15h-.92l-.15.15v6.34l.15.15h.92l.15-.15v-6.34l-.15-.15z"/><path class="cls-3" d="M123.1 70.38l-.08-.08v-.92l.08-.08h9.7l.08.08v.92l-.08.08h-9.7z"/><path class="cls-5" d="M132.8 69.38v.92h-9.7v-.92h9.7m0-.15h-9.7l-.15.15v.92l.15.15h9.7l.15-.15v-.92l-.15-.15z"/><path class="cls-3" d="M92.55 70.38l-.07-.08v-.92l.07-.08h9.7l.08.08v.92l-.08.08h-9.7z"/><path class="cls-5" d="M102.25 69.38v.92h-9.7v-.92h9.7m0-.15h-9.7l-.15.15v.92l.15.15h9.7l.15-.15v-.92l-.15-.15z"/><circle class="cls-3" cx="30.33" cy="30.15" r="6.38"/><path class="cls-4" d="M10.2 10.31V50h40.26V10.31zm36.73 36.16h-33.2V13.84h33.2z"/><path class="cls-3" d="M24 24.88l-7.58-7.27a3.45 3.45 0 01-.8-2v-5.3l.08-.07h.92l.08.07v5.34a2.09 2.09 0 00.58 1.35l7.47 7.12v.11l-.64.67z"/><path class="cls-5" d="M16.64 10.31v5.34a2.12 2.12 0 00.59 1.35l7.47 7.13-.63.67-7.58-7.27a3.31 3.31 0 01-.77-1.91v-5.31h.92m0-.15h-.92l-.15.15v5.34a3.45 3.45 0 00.81 2c.45.41 7.52 7.2 7.59 7.27h.21l.63-.67v-.21l-7.47-7.13a2 2 0 01-.54-1.28v-5.32l-.15-.15z"/><path class="cls-3" d="M36.54 24.88l-.63-.67v-.11l7.47-7.1a2.1 2.1 0 00.56-1.34v-5.35l.08-.07h.92l.08.07v5.34a3.43 3.43 0 01-.79 2c-.45.42-7.52 7.21-7.59 7.27z"/><path class="cls-5" d="M44.94 10.31v5.34a3.36 3.36 0 01-.76 1.91c-.45.42-7.59 7.27-7.59 7.27l-.59-.67L43.43 17a2.12 2.12 0 00.57-1.35v-5.34h.92m0-.15H44l-.15.15v5.34a2 2 0 01-.54 1.27l-7.47 7.13v.21l.63.67h.22c.07-.07 7.14-6.86 7.58-7.27a3.44 3.44 0 00.81-2v-5.35l-.15-.15z"/><path class="cls-3" d="M44 50.07l-.06-.07v-5.34a2.09 2.09 0 00-.56-1.33l-7.47-7.13v-.1l.63-.67h.1c.07.07 7.14 6.86 7.59 7.27a3.46 3.46 0 01.79 2V50l-.08.07z"/><path class="cls-5" d="M36.59 35.48s7.14 6.85 7.59 7.27a3.31 3.31 0 01.76 1.91V50H44v-5.34a2.15 2.15 0 00-.59-1.39C43.17 43 36 36.15 36 36.15l.63-.67m.11-.11h-.22l-.63.68v.21c.07.07 7.21 6.89 7.47 7.12a2 2 0 01.54 1.29V50l.15.15h.92l.15-.15v-5.34a3.45 3.45 0 00-.81-2c-.44-.41-7.51-7.2-7.58-7.27z"/><path class="cls-3" d="M15.72 50.07l-.08-.07v-5.34a3.48 3.48 0 01.8-2c.44-.41 7.51-7.2 7.58-7.27h.1l.64.67v.1l-7.47 7.13a2.1 2.1 0 00-.56 1.34V50l-.08.07z"/><path class="cls-5" d="M24.07 35.48l.63.67s-7.21 6.85-7.47 7.12a2.15 2.15 0 00-.59 1.39V50h-.92v-5.34a3.25 3.25 0 01.77-1.91l7.58-7.27m-.1-.11c-.07.07-7.14 6.86-7.59 7.27a3.44 3.44 0 00-.81 2V50l.15.15h.92l.15-.15v-5.34a2 2 0 01.54-1.28c.26-.23 7.4-7.05 7.47-7.12v-.21l-.63-.68z"/><path class="cls-3" d="M29.87 16.73l-.08-.08v-6.34l.08-.07h.92l.08.07v6.34l-.08.08h-.92z"/><path class="cls-5" d="M30.79 10.31v6.34h-.92v-6.34h.92m0-.15h-.92l-.15.15v6.34l.15.15h.92l.15-.15v-6.34l-.15-.15z"/><path class="cls-3" d="M29.87 50.07l-.08-.07v-6.35l.08-.07h.92l.08.07V50l-.08.07h-.92z"/><path class="cls-5" d="M30.79 43.65V50h-.92v-6.35h.92m0-.15h-.92l-.15.15V50l.15.15h.92l.15-.15v-6.35l-.15-.15z"/><path class="cls-3" d="M40.75 30.69l-.07-.08v-.92l.07-.07h9.71l.07.07v.92l-.07.08h-9.71z"/><path class="cls-5" d="M50.46 29.69v.93h-9.71v-.93h9.71m0-.15h-9.71l-.15.15v.93l.15.15h9.71l.15-.15v-.93l-.15-.15z"/><path class="cls-3" d="M10.21 30.69l-.08-.08v-.92l.08-.07h9.7l.07.07v.92l-.07.08h-9.7z"/><path class="cls-5" d="M19.91 29.69v.93H10.2v-.93h9.71m0-.15H10.2l-.15.15v.93l.15.15h9.71l.15-.15v-.93l-.15-.15z"/><path class="cls-3" d="M30.33 61.33a8.51 8.51 0 108.5 8.51 8.5 8.5 0 00-8.5-8.51zm0 13.19A4.68 4.68 0 1135 69.84a4.69 4.69 0 01-4.67 4.68zm0-1.49a3.19 3.19 0 113.19-3.19A3.19 3.19 0 0130.33 73z"/><path class="cls-4" d="M10.2 50v39.68h40.26V50zm36.73 36.15h-33.2V53.53h33.2z"/><path class="cls-3" d="M24 64.57c-.07-.07-7.14-6.86-7.58-7.27a3.45 3.45 0 01-.8-2v-5.38h1.08v5.41a2.09 2.09 0 00.56 1.33l7.47 7.13.06.05-.74.78z"/><path class="cls-5" d="M16.64 50v5.33a2.12 2.12 0 00.59 1.39l7.47 7.12-.63.68-7.58-7.28a3.25 3.25 0 01-.77-1.91V50h.92m.15-.15h-1.22v5.48a3.45 3.45 0 00.81 2c.45.42 7.52 7.21 7.59 7.27l.11.11.1-.11.63-.67.1-.11-.11-.1c-.07-.07-7.21-6.9-7.47-7.13a2 2 0 01-.54-1.29v-5.45z"/><path class="cls-3" d="M35.86 63.84v-.05l7.47-7.13a2.09 2.09 0 00.56-1.33v-5.41H45v5.41a3.46 3.46 0 01-.79 2c-.45.41-7.52 7.2-7.59 7.27v.05z"/><path class="cls-5" d="M44.94 50v5.33a3.31 3.31 0 01-.76 1.91c-.45.42-7.59 7.28-7.59 7.28l-.59-.68 7.47-7.12a2.12 2.12 0 00.53-1.39V50h.92m.15-.15h-1.2v5.48a2 2 0 01-.54 1.28c-.26.23-7.4 7.06-7.47 7.13l-.11.1.1.11.63.67.11.11.11-.11 7.58-7.27a3.44 3.44 0 00.81-2v-5.5z"/><path class="cls-3" d="M43.94 89.76v-5.41a2.12 2.12 0 00-.56-1.35c-.26-.23-7.47-7.12-7.47-7.12l.73-.79v.06c.07.07 7.14 6.85 7.59 7.27a3.43 3.43 0 01.79 2v5.42z"/><path class="cls-5" d="M36.59 75.16s7.14 6.85 7.59 7.27a3.36 3.36 0 01.76 1.92v5.33H44v-5.33a2.12 2.12 0 00-.57-1.35L36 75.83l.63-.67m0-.21l-.11.11-.63.67-.1.11.11.1 7.47 7.13a2 2 0 01.54 1.29v5.47h1.22v-5.48a3.5 3.5 0 00-.81-2c-.44-.41-7.51-7.2-7.58-7.27l-.11-.1z"/><path class="cls-3" d="M15.64 89.76v-5.41a3.45 3.45 0 01.8-2L24 75.11l.05-.06.74.79h-.06s-7.19 6.94-7.45 7.16a2.12 2.12 0 00-.56 1.34v5.41z"/><path class="cls-5" d="M24.07 75.16l.63.67L17.23 83a2.12 2.12 0 00-.59 1.39v5.33h-.92v-5.37a3.31 3.31 0 01.77-1.92l7.58-7.27m0-.21l-.11.1c-.07.07-7.14 6.86-7.59 7.27a3.5 3.5 0 00-.81 2v5.49h1.22v-5.46a2 2 0 01.54-1.28l7.47-7.13.11-.1-.1-.11-.63-.67-.1-.11z"/><path class="cls-3" d="M29.79 49.92h1.07v6.49h-1.07z"/><path class="cls-5" d="M30.79 50v6.34h-.92V50h.92m.15-.15h-1.22v6.64h1.22v-6.64z"/><path class="cls-3" d="M29.79 83.26h1.07v6.49h-1.07z"/><path class="cls-5" d="M30.79 83.34v6.34h-.92v-6.34h.92m.15-.15h-1.22v6.64h1.22v-6.64z"/><path class="cls-3" d="M40.68 69.3h9.85v1.07h-9.85z"/><path class="cls-5" d="M50.46 69.38v.92h-9.71v-.92h9.71m.15-.15h-10v1.22h10v-1.22z"/><path class="cls-3" d="M10.13 69.3h9.85v1.07h-9.85z"/><path class="cls-5" d="M19.91 69.38v.92H10.2v-.92h9.71m.15-.15h-10v1.22h10v-1.22z"/><circle class="cls-3" cx="153.92" cy="30.15" r="6.38"/><path class="cls-4" d="M133.8 10.31V50h40.25V10.31zm36.72 36.16h-33.2V13.84h33.2z"/><path class="cls-3" d="M147.61 24.88c-.07-.06-7.14-6.85-7.59-7.27a3.51 3.51 0 01-.79-2v-5.3l.08-.07h.92l.08.07v5.34a2.09 2.09 0 00.56 1.33l7.47 7.12v.11l-.63.67z"/><path class="cls-5" d="M140.23 10.31v5.34a2.12 2.12 0 00.59 1.38l7.47 7.13-.63.67s-7.13-6.85-7.58-7.27a3.31 3.31 0 01-.77-1.91v-5.34h.92m0-.15h-.92l-.15.15v5.34a3.45 3.45 0 00.81 2c.45.41 7.52 7.2 7.59 7.27h.21l.63-.67v-.21l-7.47-7.13a2 2 0 01-.54-1.28v-5.32l-.15-.15z"/><path class="cls-3" d="M160.13 24.88l-.63-.67v-.11L167 17a2 2 0 00.56-1.34v-5.35l.08-.07h.92l.08.07v5.34a3.43 3.43 0 01-.79 2c-.45.42-7.51 7.21-7.59 7.27z"/><path class="cls-5" d="M168.53 10.31v5.34a3.36 3.36 0 01-.76 1.91c-.45.42-7.59 7.27-7.59 7.27l-.63-.67L167 17a2.12 2.12 0 00.59-1.38v-5.31h.92m0-.15h-.92l-.15.15v5.34a2 2 0 01-.54 1.27l-7.47 7.13v.21l.63.67h.22c.07-.07 7.14-6.86 7.58-7.27a3.44 3.44 0 00.81-2v-5.35l-.15-.15z"/><path class="cls-3" d="M167.61 50.07l-.08-.07v-5.34a2 2 0 00-.56-1.33l-7.47-7.13v-.1l.63-.67h.1c.08.07 7.14 6.86 7.59 7.27a3.46 3.46 0 01.79 2V50l-.08.07z"/><path class="cls-5" d="M160.18 35.48s7.14 6.85 7.59 7.27a3.31 3.31 0 01.76 1.91V50h-.92v-5.34a2.15 2.15 0 00-.59-1.39l-7.47-7.12.63-.67m.11-.11h-.22l-.63.68v.21l7.47 7.12a2 2 0 01.54 1.29V50l.15.15h.92l.15-.15v-5.34a3.45 3.45 0 00-.81-2c-.44-.41-7.51-7.2-7.58-7.27z"/><path class="cls-3" d="M139.31 50.07l-.08-.07v-5.34a3.53 3.53 0 01.79-2c.45-.41 7.52-7.2 7.59-7.27h.11l.63.67v.1l-7.47 7.13a2.1 2.1 0 00-.56 1.34V50l-.08.07z"/><path class="cls-5" d="M147.66 35.48l.63.67s-7.21 6.89-7.47 7.12a2.15 2.15 0 00-.59 1.39V50h-.92v-5.34a3.25 3.25 0 01.77-1.91c.45-.42 7.58-7.27 7.58-7.27m-.1-.11c-.07.07-7.14 6.86-7.59 7.27a3.44 3.44 0 00-.81 2V50l.15.15h.92l.15-.15v-5.34a2 2 0 01.54-1.28c.26-.23 7.4-7.05 7.47-7.12v-.21l-.63-.68z"/><path class="cls-3" d="M153.46 16.73l-.08-.08v-6.34l.08-.07h.92l.08.07v6.34l-.08.08h-.92z"/><path class="cls-5" d="M154.38 10.31v6.34h-.92v-6.34h.92m0-.15h-.92l-.15.15v6.34l.15.15h.92l.15-.15v-6.34l-.15-.15z"/><path class="cls-3" d="M153.46 50.07l-.08-.07v-6.35l.08-.07h.92l.08.07V50l-.08.07h-.92z"/><path class="cls-5" d="M154.38 43.65V50h-.92v-6.35h.92m0-.15h-.92l-.15.15V50l.15.15h.92l.15-.15v-6.35l-.15-.15z"/><path class="cls-3" d="M164.34 30.69l-.07-.08v-.92l.07-.07h9.71l.07.07v.92l-.07.08h-9.71z"/><path class="cls-5" d="M174.05 29.69v.93h-9.71v-.93h9.71m0-.15h-9.71l-.15.15v.93l.15.15h9.71l.15-.15v-.93l-.15-.15z"/><path class="cls-3" d="M133.79 30.69l-.07-.08v-.92l.07-.07h9.71l.07.07v.92l-.07.08h-9.71z"/><path class="cls-5" d="M143.5 29.69v.93h-9.7v-.93h9.7m0-.15h-9.7l-.15.15v.93l.15.15h9.7l.15-.15v-.93l-.15-.15z"/><path class="cls-3" d="M153.92 61.33a8.51 8.51 0 108.51 8.51 8.5 8.5 0 00-8.51-8.51zm0 13.19a4.68 4.68 0 114.68-4.68 4.69 4.69 0 01-4.68 4.68zm0-1.49a3.19 3.19 0 113.19-3.19 3.19 3.19 0 01-3.19 3.16z"/><path class="cls-4" d="M133.8 50v39.68h40.25V50zm36.72 36.15h-33.2V53.53h33.2z"/><path class="cls-3" d="M147.61 64.57c-.07-.07-7.14-6.86-7.59-7.27a3.53 3.53 0 01-.79-2v-5.38h1.08v5.41a2.09 2.09 0 00.56 1.33l7.47 7.13.06.05-.74.78z"/><path class="cls-5" d="M140.23 50v5.33a2.12 2.12 0 00.59 1.39l7.47 7.12-.63.68s-7.13-6.86-7.58-7.28a3.25 3.25 0 01-.77-1.91V50h.92m.15-.15h-1.22v5.48a3.45 3.45 0 00.81 2c.45.42 7.52 7.21 7.59 7.27l.11.11.1-.11.63-.67.1-.11-.11-.1c-.07-.07-7.21-6.9-7.47-7.13a2 2 0 01-.54-1.29v-5.45z"/><path class="cls-3" d="M159.45 63.84l.05-.05 7.5-7.13a2 2 0 00.56-1.33v-5.41h1.08v5.41a3.46 3.46 0 01-.79 2c-.45.41-7.51 7.2-7.59 7.27v.05z"/><path class="cls-5" d="M168.53 50v5.33a3.31 3.31 0 01-.76 1.91c-.45.42-7.59 7.28-7.59 7.28l-.63-.68 7.45-7.12a2.12 2.12 0 00.59-1.39V50h.92m.15-.15h-1.22v5.48a2 2 0 01-.54 1.28l-7.47 7.13-.11.1.1.11.63.67.11.11.11-.11 7.58-7.27a3.44 3.44 0 00.81-2v-5.5z"/><path class="cls-3" d="M167.53 89.76v-5.41A2.07 2.07 0 00167 83c-.26-.23-7.47-7.12-7.47-7.12h-.05l.73-.79v.06c.08.07 7.14 6.85 7.59 7.27a3.43 3.43 0 01.79 2v5.42z"/><path class="cls-5" d="M160.18 75.16s7.14 6.85 7.59 7.27a3.36 3.36 0 01.76 1.92v5.33h-.92v-5.33A2.12 2.12 0 00167 83l-7.47-7.13.63-.67m0-.21l-.11.11-.63.67-.1.11.11.1 7.47 7.13a2 2 0 01.54 1.29v5.47h1.22v-5.52a3.5 3.5 0 00-.81-2c-.44-.41-7.51-7.2-7.58-7.27l-.11-.1z"/><path class="cls-3" d="M139.23 89.76v-5.41a3.51 3.51 0 01.79-2c.45-.42 7.52-7.2 7.59-7.27v-.06l.74.79h-.06s-7.21 6.89-7.47 7.12a2.12 2.12 0 00-.56 1.34v5.41z"/><path class="cls-5" d="M147.66 75.16l.63.67-7.47 7.17a2.12 2.12 0 00-.59 1.39v5.33h-.92v-5.37a3.31 3.31 0 01.77-1.92c.45-.42 7.58-7.27 7.58-7.27m0-.21l-.11.1c-.07.07-7.14 6.86-7.59 7.27a3.5 3.5 0 00-.81 2v5.49h1.22v-5.46a2 2 0 01.54-1.28l7.47-7.13.11-.1-.1-.11-.63-.67-.1-.11z"/><path class="cls-3" d="M153.38 49.92h1.07v6.49h-1.07z"/><path class="cls-5" d="M154.38 50v6.34h-.92V50h.92m.15-.15h-1.22v6.64h1.22v-6.64z"/><path class="cls-3" d="M153.38 83.26h1.07v6.49h-1.07z"/><path class="cls-5" d="M154.38 83.34v6.34h-.92v-6.34h.92m.15-.15h-1.22v6.64h1.22v-6.64z"/><path class="cls-3" d="M164.27 69.3h9.85v1.07h-9.85z"/><path class="cls-5" d="M174.05 69.38v.92h-9.71v-.92h9.71m.15-.15h-10v1.22h10v-1.22z"/><path class="cls-3" d="M133.72 69.3h9.85v1.07h-9.85z"/><path class="cls-5" d="M143.5 69.38v.92h-9.7v-.92h9.7m.15-.15h-10v1.22h10v-1.22z"/></g></svg>