<svg version="1.1" id="Layer_1" xmlns="http://www.w3.org/2000/svg" x="0" y="0" viewBox="0 0 133 82.8" xml:space="preserve"><style>.st0{fill:#003383}.st1{fill:#638a37}</style><path class="st0" d="M130 21.5h-1.1c0 5-2 9.6-5.3 12.9-3.3 3.3-7.9 5.3-12.9 5.3s-9.6-2-12.9-5.3c-3.3-3.3-5.3-7.9-5.3-12.9s2-9.6 5.3-12.9c3.3-3.3 7.9-5.3 12.9-5.3s9.6 2 12.9 5.3c3.3 3.3 5.3 7.9 5.3 12.9h2.2c0-11.3-9.2-20.5-20.5-20.5s-20.5 9.2-20.5 20.5S99.3 42 110.6 42s20.5-9.2 20.5-20.5H130"/><path class="st1" d="M110.1 12.5h.9V40h-.9z"/><path class="st1" d="M111.6 6.1s-5.4 4.7-1.3 10.5c0 .1 5.4-1.6 1.3-10.5m.4 27.4s-2.5-17.6 20-21.4c-.1 0 4.8 15.5-20 21.4m-2.5-4.6s.3-9.8-13.1-11.3c0-.1.4 10.1 13.1 11.3m2.9 8.4s0 7.7-13.7 6.9c-12.2-.7-5.1-9.2 6.5-8.1 1.3.1 2.5.8 4.7 1 2.2.3 2.5.2 2.5.2"/><path class="st0" d="M2.7 41V16c0-7.4 5-14.3 13.2-14.3S29.1 8.6 29.1 16v25h-5.2V23.4h-14v-4.9h14v-2.4c0-5.3-3.2-9.5-8-9.5-4 0-8 3.1-8 9.5V41H2.7M56.9 7.2h-7.6c-2.4 0-5-.1-6.8 1.8-1.8 1.9-1.8 4.8-1.8 6.6V41h-5.2V15.5c0-3.5.2-7.9 3.3-10.7 2.9-2.6 7.1-2.5 10.4-2.5h7.7v4.9M60.5 41V15.6c0-8.8 5.2-13.8 12.8-13.8 8.6 0 12.9 6.1 12.9 13 0 2.1-.4 4.2-1.4 6.1-3.1 5.7-8.2 6-12.5 6h-4.6V22h5.2c5 0 8-3 8-7.4 0-4.2-2.4-8.1-7.6-8.1-4.8 0-7.6 3.6-7.6 8.7V41h-5.2"/><path class="st1" d="M21.1 47.4v3.7h.4c7.5 0 13.6 6.1 13.6 13.7 0 7-5 12.9-12.4 13.6v-6.1c4.1-.5 6.2-4.2 6.2-7.5 0-4.2-3.3-7.5-7.9-7.6v25h-6v-3.8h-.3C7.2 78.5 1 72.4 1 64.8c0-7 5-12.9 12.4-13.6v6.1c-4.1.5-6.2 4.2-6.2 7.5 0 4.2 3.4 7.6 7.9 7.6v-25h6m39 32.6H54V56.8h-1.2c-6.9 0-6.7 5.7-6.7 7.7V80H37v-5.8h3.2V64.1c0-3.1.5-7 4-10.2 2.9-2.7 6.1-3 8.6-3h7.4V80m23.4-23.2h-7.3c-1.4 0-4.2-.1-4.2 2.6 0 2.6 2.6 2.7 3.9 2.7h7.6v5.4h-7.4c-1.7 0-5.1.2-5.1 3.4 0 1.2.6 2.2 1.7 2.8 1 .5 2.2.6 3.6.6h7.2V80h-7.1c-3.3 0-6.5.1-9.2-2.5-1.7-1.7-2.3-3.6-2.3-5.8 0-4.4 2.5-6.3 4.5-7-2-1.4-3.3-3.7-3.3-6.3 0-1.7.5-3.4 1.5-4.7 1.9-2.4 4.6-2.6 7.2-2.6h8.8v5.7M87.8 80V51H94v11.3h.9c2.2 0 3.4-1.9 4.2-4.3l2.6-7.1h6.2l-3.4 8.9c-.7 1.8-1.3 3.1-3.1 4.1 1.6.3 5.8 1.6 5.8 8.5V80h-6.1v-7.5c0-5.1-3.5-5-5.1-5h-2V80h-6.2m41.9 0h-3.1c-7.7 0-11.6-4.6-13.1-7.2-1.3-2.2-1.9-4.8-1.9-7.3s.7-5.1 1.9-7.3c1.6-2.7 5.4-7.2 13.1-7.2h3.1v5.8h-3.1c-5.1 0-9 3.7-9 8.7 0 5 3.9 8.7 9 8.7h3.1V80"/></svg>