<svg version="1.1" id="Layer_1" xmlns="http://www.w3.org/2000/svg" x="0" y="0" viewBox="0 0 350 243.6" xml:space="preserve"><style>.st0{fill:#fff}.st1{fill:#002f87}.st2{fill:#4a8b2c}</style><switch><g><path class="st0" d="M313.4 86.6H311c0 10.6-4.3 20.1-11.2 27a38.24 38.24 0 01-27.1 11.2c-10.6 0-20.1-4.3-27-11.2-6.9-6.9-11.2-16.5-11.2-27 0-10.6 4.3-20.1 11.2-27.1 6.9-6.9 16.5-11.2 27-11.2 10.6 0 20.1 4.3 27.1 11.2 6.9 7 11.2 16.5 11.2 27.1h4.7c0-23.7-19.2-43-43-43-23.7 0-42.9 19.2-43 43 0 23.7 19.2 42.9 43 42.9 23.7 0 43-19.2 43-42.9h-2.3"/><path class="st0" d="M271.6 67.8h2v57.6h-2z"/><path class="st0" d="M274.8 54.5s-11.3 9.9-2.7 22.1c0 0 11.3-3.5 2.7-22.1m.8 57.3s-5.3-36.9 41.9-44.8c0 0 10.2 32.5-41.9 44.8m-5.2-9.6s.6-20.6-27.5-23.8c0 0 .8 21.3 27.5 23.8m6 17.6s0 16.2-28.6 14.6c-25.7-1.5-10.7-19.4 13.6-17 2.8.3 5.2 1.7 9.8 2.1 4.6.5 5.2.3 5.2.3m-229.9 7.8V75.2c0-15.5 10.5-29.9 27.7-29.9s27.7 14.4 27.7 29.9v52.4H91V90.7H61.6V80.5H91v-5.1c0-11.1-6.6-19.9-16.8-19.9-8.5 0-16.8 6.5-16.8 19.9v52.1H46.5m113.7-70.9h-16c-5 0-10.4-.2-14.3 3.7-3.8 3.9-3.7 10.1-3.7 13.9v53.3h-10.9V74c0-7.4.3-16.6 6.8-22.4 6.1-5.4 14.9-5.2 21.9-5.2h16.1v10.2m7.5 71V74.3c0-18.4 10.9-29 26.9-29 18 0 27.1 12.7 27.1 27.3 0 4.4-.9 8.8-3 12.7-6.5 12-17.1 12.7-26.3 12.7h-9.6V87.8h10.9c10.6 0 16.7-6.4 16.7-15.4 0-8.8-5.1-16.9-15.9-16.9-10 0-15.9 7.6-15.9 18.3v53.8h-10.9m-82.4 13.5v7.7h.8c15.7 0 28.6 12.9 28.6 28.8 0 14.6-10.4 27.1-25.9 28.5v-12.9c8.7-1.1 13-8.8 13-15.6 0-8.9-6.9-15.8-16.5-15.9v52.4H72.3v-8h-.7c-15.7 0-28.7-12.7-28.7-28.7 0-14.6 10.4-27 25.9-28.6v12.9c-8.5 1-13 8.9-13 15.6 0 8.8 7 15.9 16.5 15.9V141h12.9m81.7 68.3H154v-48.7h-2.6c-14.4 0-14.1 12-14.1 16.1v32.6h-19.1v-12.2h6.6V176c0-6.4 1-14.6 8.4-21.3 6.2-5.6 12.8-6.3 18.1-6.3h15.6v60.9m49.2-48.7h-15.2c-3 0-8.9-.2-8.9 5.4 0 5.4 5.4 5.6 8.1 5.6h16v11.3h-15.5c-3.5 0-10.8.3-10.8 7.2 0 2.4 1.3 4.6 3.6 5.8 2.1 1.1 4.7 1.2 7.6 1.2h15.1v12.2h-15c-6.9 0-13.6.3-19.4-5.3-3.7-3.5-4.8-7.6-4.8-12.1 0-9.3 5.2-13.2 9.4-14.8-4.3-3-6.9-7.7-6.9-13.3 0-3.6 1-7.2 3.2-9.9 4.1-5 9.7-5.5 15-5.5h18.3v12.2m9 48.7v-60.9h12.9v23.7h1.8c4.7 0 7.1-4.1 8.9-9l5.5-14.8h13l-7 18.6c-1.5 3.8-2.7 6.4-6.4 8.6 3.3.7 12.1 3.3 12.1 17.9v15.7h-12.9v-15.7c0-10.7-7.4-10.4-10.7-10.4h-4.3v26.2h-12.9m87.8.1h-6.4c-16.2 0-24.3-9.6-27.6-15.1-2.7-4.6-4.1-10-4.1-15.3s1.4-10.7 4.1-15.3c3.3-5.6 11.4-15.1 27.6-15.1h6.4v12.2h-6.4c-10.6 0-18.8 7.8-18.8 18.3 0 10.4 8.2 18.3 18.8 18.3h6.4v12"/><path class="st1" d="M310.3 82.7H308c0 10.6-4.3 20.1-11.2 27-6.9 6.9-16.5 11.2-27 11.2-10.6 0-20.1-4.3-27-11.2-6.9-6.9-11.2-16.5-11.2-27 0-10.6 4.3-20.1 11.2-27.1 6.9-6.9 16.5-11.2 27-11.2 10.6 0 20.1 4.3 27 11.2 6.9 6.9 11.2 16.5 11.2 27.1h4.7c0-23.7-19.2-43-43-43-23.7 0-42.9 19.2-42.9 43 0 23.7 19.2 42.9 42.9 42.9s43-19.2 43-42.9h-2.4"/><path class="st2" d="M268.6 63.9h2v57.6h-2z"/><path class="st2" d="M271.7 50.6s-11.3 9.9-2.7 22.1c0 0 11.3-3.5 2.7-22.1m.8 57.3s-5.3-36.9 41.9-44.8c0 0 10.2 32.5-41.9 44.8m-5.2-9.6s.6-20.6-27.5-23.8c0 0 .9 21.3 27.5 23.8m6.1 17.6s0 16.2-28.6 14.6c-25.7-1.5-10.7-19.4 13.6-16.9 2.8.3 5.2 1.7 9.8 2.1 4.6.4 5.2.2 5.2.2"/><path class="st1" d="M43.4 123.7V71.3c0-15.5 10.5-29.9 27.7-29.9s27.7 14.4 27.7 29.9v52.4H87.9V86.8H58.5V76.6h29.4v-5.1c0-11.1-6.6-19.9-16.8-19.9-8.5 0-16.8 6.5-16.8 19.9v52.1H43.4m113.7-70.9h-16c-5 0-10.4-.2-14.3 3.7-3.8 3.9-3.7 10.1-3.7 13.9v53.3h-10.9V70.1c0-7.4.3-16.6 6.8-22.4 6.1-5.4 15-5.2 21.9-5.2H157v10.2m7.5 71V70.4c0-18.4 10.9-29 26.9-29 18 0 27.1 12.7 27.1 27.3 0 4.4-.9 8.8-3 12.7C209 93.3 198.4 94 189.2 94h-9.6V83.9h10.9c10.5 0 16.7-6.4 16.7-15.4 0-8.8-5.1-16.9-15.9-16.9-10 0-15.9 7.6-15.9 18.3v53.8h-10.9"/><path class="st2" d="M82.1 137.2v7.7h.8c15.7 0 28.6 12.9 28.6 28.8 0 14.6-10.4 27.1-25.9 28.5v-12.9c8.7-1.1 13-8.8 13-15.7 0-8.9-6.9-15.8-16.5-15.9v52.4H69.2v-8h-.7c-15.7 0-28.7-12.7-28.7-28.7 0-14.6 10.4-27 25.9-28.6v12.9c-8.5 1-13 8.9-13 15.6 0 8.8 7 15.9 16.5 15.9V137h12.9m81.7 68.4h-12.9v-48.7h-2.6c-14.4 0-14.1 12-14.1 16.1v32.6h-19.1v-12.2h6.6v-21.1c0-6.4 1-14.6 8.4-21.3 6.2-5.6 12.8-6.3 18.1-6.3h15.6v60.9m49.2-48.7h-15.2c-3 0-8.9-.2-8.9 5.4 0 5.4 5.4 5.6 8.1 5.6h16V179h-15.5c-3.5 0-10.8.3-10.8 7.2 0 2.4 1.3 4.6 3.6 5.8 2.1 1.1 4.7 1.2 7.6 1.2H213v12.2h-15c-6.9 0-13.6.3-19.4-5.3-3.7-3.5-4.8-7.6-4.8-12.1 0-9.3 5.2-13.2 9.4-14.8-4.3-3-6.9-7.7-6.9-13.3 0-3.6 1-7.2 3.2-9.9 4.1-5 9.7-5.5 15-5.5H213v12.2m8.9 48.7v-60.9h12.9v23.7h1.8c4.7 0 7.1-4.1 8.9-9l5.5-14.8h13l-7 18.6c-1.5 3.8-2.7 6.4-6.4 8.6 3.3.7 12.1 3.3 12.1 17.9v15.7h-12.9v-15.7c0-10.7-7.4-10.4-10.7-10.4h-4.3v26.2h-12.9m87.8.1h-6.4c-16.2 0-24.2-9.6-27.6-15.1-2.7-4.6-4.1-10-4.1-15.3 0-5.3 1.4-10.7 4.1-15.3 3.3-5.6 11.4-15.1 27.6-15.1h6.4v12.2h-6.4c-10.6 0-18.8 7.8-18.8 18.3 0 10.4 8.2 18.3 18.8 18.3h6.4v12"/></g></switch></svg>