<svg xmlns="http://www.w3.org/2000/svg" viewBox="0 0 150.24 153.07"><defs><style>.cls-12,.cls-2,.cls-3,.cls-5,.cls-6,.cls-7,.cls-8,.cls-9{fill:none}.cls-2,.cls-3,.cls-5,.cls-6,.cls-7,.cls-8,.cls-9{stroke:#222221}.cls-2,.cls-3,.cls-6{stroke-miterlimit:10}.cls-2{stroke-width:.5px}.cls-3{stroke-width:.4px}.cls-12,.cls-7,.cls-9{stroke-miterlimit:1.41}.cls-5,.cls-8{stroke-miterlimit:1.4}.cls-5{stroke-width:.3px}.cls-6{stroke-width:.51px}.cls-7{stroke-width:.3px}.cls-12,.cls-8,.cls-9{stroke-width:.25px}.cls-10{fill:#222221}.cls-12{stroke:#20201f}.cls-13,.cls-14{fill:#20201f}.cls-14{font-size:7px;font-family:Fakt-Normal,Fakt}</style></defs><path fill="#fff" d="M19.82 17.01v116.22h4.11v13.05h.4v1.12h6.1v-1.12h.41v-13.05h105.51v13.05h.41v1.12h6.1v-1.12h.4v-13.05h4.12V17.01H19.82z" id="Riempimento"/><g id="Ranges"><path class="cls-2" d="M136.76 146.28h6.1v1.12h-6.1zm-.41-13.05h6.91v13.05h-6.91zM24.33 146.28h6.1v1.12h-6.1zm-.4-13.05h6.91v13.05h-6.91z"/><rect class="cls-3" x="34.05" y="34.56" width="10.94" height="7.3" rx="1.82"/><path d="M46.61 64.18h74c1.17 0 2.12.56 2.12 1.25v26.4c0 .7-.95 1.26-2.12 1.26h-74c-1.18 0-2.13-.56-2.13-1.26v-26.4c0-.69.95-1.25 2.13-1.25z" stroke-width=".51" stroke-miterlimit="1.41" stroke="#222221" fill="none"/><path class="cls-5" d="M44.48 54.43h78.24v4.54H44.48z"/><path class="cls-2" d="M19.82 17.01h127.56v116.22H19.82z"/><path class="cls-6" d="M19.82 25.51h127.56M27.61 31.18h111.97"/><path class="cls-3" d="M53.69 38.2a3.06 3.06 0 113.05 3.06 3 3 0 01-3.05-3.06z"/><path class="cls-5" d="M56.74 35.35v.94"/><path class="cls-7" d="M55.81 41.12v-5.83m1.86 5.83v-5.83"/><path class="cls-3" d="M65.75 38.2a3.06 3.06 0 113.06 3.06 3.05 3.05 0 01-3.06-3.06z"/><path class="cls-5" d="M68.81 35.35v.94"/><path class="cls-7" d="M67.88 41.12v-5.83m1.86 5.83v-5.83"/><path class="cls-3" d="M77.82 38.2a3.06 3.06 0 113.06 3.06 3.05 3.05 0 01-3.06-3.06z"/><path class="cls-5" d="M80.88 35.35v.94"/><path class="cls-7" d="M79.95 41.12v-5.83m1.86 5.83v-5.83"/><path class="cls-3" d="M89.89 38.2A3.06 3.06 0 1193 41.26a3.05 3.05 0 01-3.11-3.06z"/><path class="cls-5" d="M92.95 35.35v.94"/><path class="cls-7" d="M92.02 41.12v-5.83m1.86 5.83v-5.83"/><path class="cls-3" d="M102 38.2a3.06 3.06 0 113 3.06 3.05 3.05 0 01-3-3.06z"/><path class="cls-5" d="M105.02 35.35v.94"/><path class="cls-7" d="M104.09 41.12v-5.83m1.86 5.83v-5.83"/><path class="cls-3" d="M114 38.2a3.06 3.06 0 113 3.06 3 3 0 01-3-3.06z"/><path class="cls-5" d="M117.08 35.35v.94"/><path class="cls-7" d="M116.15 41.12v-5.83m1.86 5.83v-5.83"/><path class="cls-3" d="M126.09 38.2a3.06 3.06 0 113.06 3.06 3.05 3.05 0 01-3.06-3.06z"/><path class="cls-5" d="M129.15 35.35v.94"/><path class="cls-7" d="M128.22 41.12v-5.83m1.86 5.83v-5.83"/><path class="cls-8" d="M35.52 40.15a.49.49 0 11.49.49.49.49 0 01-.49-.49zm1.79 0a.49.49 0 11.49.49.49.49 0 01-.49-.49zm1.79 0a.49.49 0 01.49-.48.49.49 0 010 1 .49.49 0 01-.49-.52z"/><path class="cls-9" d="M40.89 40.15a.49.49 0 11.49.49.49.49 0 01-.49-.49zm1.79 0a.48.48 0 01.48-.48.49.49 0 110 1 .48.48 0 01-.48-.52z"/><rect class="cls-8" x="36.44" y="36.2" width="5.96" height="1.84" rx=".61"/><path class="cls-10" d="M63.02 21.53H22.94v3.98h1.3v-2.59h2.35v2.59h1.3v-2.59h14.58v2.59h1.02v-2.59h13.29v2.59h1.3v-2.59h3.63v2.59h1.31v-3.98zm40.62 0H63.56v3.98h1.3v-2.59h2.35v2.59h1.3v-2.59h14.58v2.59h1.02v-2.59H97.4v2.59h1.3v-2.59h3.63v2.59h1.31v-3.98zm40.62 0h-40.08v3.98h1.3v-2.59h2.35v2.59h1.3v-2.59h14.58v2.59h1.02v-2.59h13.29v2.59h1.3v-2.59h3.63v2.59h1.31v-3.98z"/><path class="cls-6" d="M139.58 133.23V25.51M27.61 133.23V25.51m0 21.13h111.97M27.61 111.97h111.97M27.61 48.76h111.97"/><rect class="cls-2" x="27.61" y="52.16" width="111.97" height="57.81" rx=".29"/></g><g id="Dimensions"><path d="M24.29 147.4H11.34m8.5-14.17h-8.5m8.5-116.22h-8.5m8.5 8.5h-8.5" stroke="#20201f" stroke-width=".25" stroke-miterlimit="1.41" fill="#fff"/><path class="cls-12" d="M14.17 25.78v107.18"/><path class="cls-13" d="M13.15 26.61l.18.17.84-.9.84.9.19-.17-1.03-1.1-1.02 1.1zm0 105.52l.18-.17.84.9.84-.9.19.17-1.03 1.1-1.02-1.1z"/><text class="cls-14" transform="rotate(-90 47.625 37.705)">760</text><text class="cls-14" transform="rotate(-90 11.2 1.28)">60</text><path class="cls-12" d="M14.17 8.5v8.24"/><path class="cls-13" d="M13.15 15.91l.18-.17.84.9.84-.9.19.17-1.03 1.1-1.02-1.1z"/><path class="cls-12" d="M14.17 25.51v-8.5"/><path d="M19.82 17.01V8.5m127.56 8.51V8.5" stroke-width=".25" stroke-miterlimit="1.41" stroke="#222221" fill="#fff"/><path class="cls-9" d="M147.1 11.34H20.09"/><path class="cls-10" d="M146.28 10.32l-.17.18.9.84-.9.84.17.18 1.1-1.02-1.1-1.02zm-125.36 0l.17.18-.91.84.91.84-.17.18-1.1-1.02 1.1-1.02z"/><text transform="translate(77.63 7.06)" font-size="7" font-family="Fakt-Normal,Fakt" fill="#222221">900</text><path class="cls-12" d="M14.17 133.23v14.17"/><text class="cls-14" transform="rotate(-90 81.495 71.575)">100รท160</text><path class="cls-9" d="M14.17 147.67v5.4"/><path class="cls-10" d="M13.15 148.5l.18.17.84-.9.84.9.19-.17-1.03-1.1-1.02 1.1z"/></g></svg>