<svg xmlns="http://www.w3.org/2000/svg" viewBox="0 0 184.25 113.39"><defs><style>.cls-1{fill:#222221}.cls-5{fill:none;stroke:#222221;stroke-linejoin:round;stroke-width:.25px}.cls-3{fill:#fff}.cls-5{stroke-linecap:round}</style></defs><g id="Piano"><path class="cls-1" d="M177.8 7.59v95.35c0 1-1.34 2.86-3.8 2.86H10.25c-2.45 0-3.79-1.89-3.79-2.86V7.59H177.8m.5-.5H6v95.85c0 1.29 1.59 3.36 4.29 3.36H174c2.7 0 4.3-2.07 4.3-3.36V7.09z"/><path stroke-linejoin="round" stroke-width=".25" fill="none" stroke="#222221" d="M5.95 9.21H178.3"/></g><g id="Bruciatori_e_griglie" data-name="Bruciatori e griglie"><circle class="cls-1" cx="29.34" cy="38.13" r="6.38"/><path class="cls-1" d="M9.14 58V18.21h40.4V58zm36.72-3.68V21.89h-33v32.47z"/><path class="cls-3" d="M49.47 18.28V58H9.22V18.28h40.25M12.74 54.44h33.2V21.81h-33.2v32.63m36.88-36.31H9.07v40h40.55v-40zM12.89 22h32.9v32.29h-32.9V22z"/><path class="cls-1" d="M23 32.86c-.07-.07-7.14-6.86-7.58-7.27a3.48 3.48 0 01-.8-2v-5.31l.08-.07h.92l.08.07v5.34a2.09 2.09 0 00.59 1.38l7.47 7.13v.1l-.63.68z"/><path class="cls-3" d="M15.65 18.28v5.34a2.09 2.09 0 00.59 1.38l7.47 7.13-.63.67S16 26 15.5 25.53a3.25 3.25 0 01-.77-1.91v-5.34h.92m0-.15h-.92l-.15.15v5.34a3.45 3.45 0 00.81 2c.45.41 7.52 7.2 7.59 7.27h.21l.63-.68V32l-7.47-7.13a2 2 0 01-.54-1.28v-5.31l-.15-.15z"/><path class="cls-1" d="M35.55 32.86l-.63-.68v-.1L42.39 25a2 2 0 00.61-1.39v-5.33l.08-.07H44l.08.07v5.34a3.46 3.46 0 01-.79 2c-.45.41-7.52 7.2-7.59 7.27z"/><path class="cls-3" d="M44 18.28v5.34a3.31 3.31 0 01-.76 1.91c-.45.42-7.59 7.27-7.59 7.27l-.65-.67L42.44 25a2.09 2.09 0 00.56-1.38v-5.34h1m0-.15h-1l-.15.15v5.34a2 2 0 01-.54 1.27L34.87 32v.21l.63.68h.22c.07-.07 7.14-6.86 7.58-7.27a3.44 3.44 0 00.81-2v-5.34l-.11-.15z"/><path class="cls-1" d="M43 58v-5.37a2 2 0 00-.56-1.33l-7.47-7.12v-.11l.63-.67h.1c.07.06 7.14 6.85 7.59 7.27a3.43 3.43 0 01.79 2V58H44z"/><path class="cls-3" d="M35.6 43.45s7.14 6.85 7.59 7.27a3.33 3.33 0 01.81 1.91V58h-1v-5.37a2.12 2.12 0 00-.59-1.38L35 44.12l.63-.67m.11-.11h-.22l-.63.67v.21l7.47 7.13a2 2 0 01.54 1.28V58l.15.15H44l.1-.15v-5.37a3.45 3.45 0 00-.81-2c-.44-.41-7.51-7.2-7.58-7.27z"/><path class="cls-1" d="M14.73 58h-.08v-5.37a3.45 3.45 0 01.8-2L23 43.4h.11l.63.67v.11l-7.45 7.12a2.1 2.1 0 00-.56 1.34V58l-.08.07z"/><path class="cls-3" d="M23.08 43.45l.63.67-7.47 7.13a2.12 2.12 0 00-.59 1.38V58h-.92v-5.37a3.28 3.28 0 01.77-1.91c.45-.42 7.58-7.27 7.58-7.27m-.1-.11c-.07.07-7.14 6.86-7.59 7.27a3.44 3.44 0 00-.81 2V58l.15.15h.92l.15-.15v-5.37a2 2 0 01.54-1.27l7.47-7.13V44l-.63-.67z"/><path class="cls-1" d="M28.88 24.7l-.08-.07v-6.35l.08-.07h.92l.08.07v6.35l-.08.07h-.92z"/><path class="cls-3" d="M29.8 18.28v6.35h-.92v-6.35h.92m0-.15h-.92l-.15.15v6.35l.15.15h.92l.15-.15v-6.35l-.15-.15z"/><path class="cls-1" d="M28.88 58.04l-.08-.07v-6.34l.08-.08h.92l.08.08v6.34l-.08.07h-.92z"/><path class="cls-3" d="M29.8 51.63V58h-.92v-6.37h.92m0-.15h-.92l-.15.15V58l.15.15h.92L30 58v-6.37l-.15-.15z"/><path class="cls-1" d="M39.76 38.66l-.07-.07v-.93l.07-.07h9.71l.07.07v.93l-.07.07h-9.71z"/><path class="cls-3" d="M49.47 37.66v.93h-9.71v-.93h9.71m0-.15h-9.71l-.15.15v.93l.15.15h9.71l.15-.15v-.93l-.15-.15z"/><path class="cls-1" d="M9.21 38.66l-.07-.07v-.93l.07-.07h9.71l.07.07v.93l-.07.07H9.21z"/><path class="cls-3" d="M18.92 37.66v.93h-9.7v-.93h9.7m0-.15h-9.7l-.15.15v.93l.15.15h9.7l.15-.15v-.93l-.15-.15z"/><circle class="cls-1" cx="98.72" cy="38.13" r="6.38"/><path class="cls-1" d="M78.51 58V18.21h40.41V58zm36.73-3.68V21.89h-33v32.47z"/><path class="cls-3" d="M118.84 18.28V58H78.59V18.28h40.25M82.12 54.44h33.19V21.81H82.12v32.63M119 18.13H78.44v40H119v-40zM82.27 22h32.89v32.29H82.27V22z"/><path class="cls-1" d="M92.4 32.86c-.07-.07-7.14-6.86-7.58-7.27a3.4 3.4 0 01-.79-2v-5.31l.07-.07h.9l.07.07v5.34a2 2 0 00.6 1.38l7.47 7.13v.1l-.63.68z"/><path class="cls-3" d="M85 18.28v5.34a2.09 2.09 0 00.62 1.38l7.47 7.13-.63.67s-7.14-6.8-7.59-7.27a3.39 3.39 0 01-.77-1.91v-5.34h.9m0-.15h-.9l-.15.15v5.34a3.46 3.46 0 00.82 2c.44.41 7.51 7.2 7.58 7.27h.22l.63-.68V32l-7.47-7.13a1.94 1.94 0 01-.54-1.28v-5.31l-.19-.15z"/><path class="cls-1" d="M104.92 32.86l-.63-.68v-.1l7.48-7.08a2.1 2.1 0 00.56-1.34v-5.38l.07-.07h.93l.07.07v5.34a3.4 3.4 0 01-.79 2c-.44.41-7.51 7.2-7.58 7.27z"/><path class="cls-3" d="M113.33 18.28v5.34a3.25 3.25 0 01-.77 1.91c-.45.47-7.56 7.27-7.56 7.27l-.63-.67 7.45-7.13a2.14 2.14 0 00.58-1.38v-5.34h.93m0-.15h-.93l-.15.15v5.34a1.94 1.94 0 01-.54 1.28l-7.47 7.1v.21l.63.68h.21c.07-.07 7.14-6.86 7.58-7.27a3.46 3.46 0 00.82-2v-5.34l-.15-.15z"/><path class="cls-1" d="M112.4 58l-.07-.07v-5.3a2.09 2.09 0 00-.56-1.33l-7.47-7.12v-.11l.63-.67h.07l7.58 7.27a3.37 3.37 0 01.79 2V58l-.07.07z"/><path class="cls-3" d="M105 43.45s7.13 6.85 7.58 7.27a3.28 3.28 0 01.77 1.91V58h-.93v-5.37a2.17 2.17 0 00-.58-1.38l-7.47-7.13.63-.67m.1-.11h-.21l-.63.67v.21l7.47 7.13a2 2 0 01.55 1.28V58l.15.15h.93l.15-.15v-5.37a3.46 3.46 0 00-.82-2c-.44-.41-7.51-7.2-7.58-7.27z"/><path class="cls-1" d="M84.1 58H84v-5.37a3.37 3.37 0 01.79-2l7.61-7.23h.11l.63.67v.11l-7.47 7.12a2 2 0 00-.57 1.34V58H85z"/><path class="cls-3" d="M92.46 43.45l.63.67-7.47 7.13a2.12 2.12 0 00-.62 1.38V58h-.9v-5.37a3.42 3.42 0 01.77-1.91c.45-.42 7.59-7.27 7.59-7.27m-.11-.11c-.07.07-7.14 6.86-7.58 7.27a3.46 3.46 0 00-.82 2V58l.15.15h.9l.15-.15v-5.37a2 2 0 01.54-1.27l7.47-7.13V44l-.63-.67z"/><path class="cls-1" d="M98.25 24.7l-.07-.07v-6.35l.07-.07h.93l.07.07v6.35l-.07.07h-.93z"/><path class="cls-3" d="M99.18 18.28v6.35h-.93v-6.35h.93m0-.15h-.93l-.15.15v6.35l.15.15h.93l.15-.15v-6.35l-.15-.15z"/><path class="cls-1" d="M98.25 58.04l-.07-.07v-6.34l.07-.08h.93l.07.08v6.34l-.07.07h-.93z"/><path class="cls-3" d="M99.18 51.63V58h-.93v-6.37h.93m0-.15h-.93l-.15.15V58l.15.15h.93l.15-.15v-6.37l-.15-.15z"/><path class="cls-1" d="M109.14 38.66l-.08-.07v-.93l.08-.07h9.7l.08.07v.93l-.08.07h-9.7z"/><path class="cls-3" d="M118.84 37.66v.93h-9.7v-.93h9.7m0-.15h-9.7l-.15.15v.93l.15.15h9.7l.15-.15v-.93l-.15-.15z"/><path class="cls-1" d="M78.59 38.66l-.07-.07v-.93l.07-.07h9.7l.08.07v.93l-.08.07h-9.7z"/><path class="cls-3" d="M88.29 37.66v.93h-9.7v-.93h9.7m0-.15h-9.7l-.15.15v.93l.15.15h9.7l.15-.15v-.93l-.15-.15z"/><path class="cls-1" d="M29.34 70a8.5 8.5 0 108.51 8.5 8.49 8.49 0 00-8.51-8.5zm0 13.18A4.68 4.68 0 1134 78.52a4.69 4.69 0 01-4.66 4.68zm0-1.49a3.19 3.19 0 113.19-3.19 3.19 3.19 0 01-3.19 3.21z"/><path class="cls-1" d="M9.14 98.44V58.6h40.4v39.84zm36.72-3.68V62.28h-33v32.48z"/><path class="cls-3" d="M49.47 58.68v39.68H9.22V58.68h40.25M12.74 94.83h33.2V62.21h-33.2v32.62m36.88-36.3H9.07v40h40.55v-40zm-36.73 3.83h32.9v32.32h-32.9V62.36z"/><path class="cls-1" d="M23 73.25c-.07-.07-7.14-6.86-7.58-7.27a3.45 3.45 0 01-.8-2v-5.3l.08-.08h.92l.08.08V64a2.09 2.09 0 00.56 1.33l7.47 7.13v.11l-.63.67z"/><path class="cls-3" d="M15.65 58.68V64a2.12 2.12 0 00.59 1.39l7.47 7.13-.63.67S16 66.34 15.5 65.92a3.25 3.25 0 01-.77-1.92v-5.32h.92m0-.15h-.92l-.15.15V64a3.45 3.45 0 00.81 2c.45.42 7.52 7.21 7.59 7.28h.21l.63-.67v-.21l-7.47-7.13A2 2 0 0115.8 64v-5.32l-.15-.15z"/><path class="cls-1" d="M35.55 73.25l-.63-.67v-.11l7.47-7.13A2 2 0 0043 64v-5.4h1l.08.08V64a3.44 3.44 0 01-.79 2c-.45.41-7.52 7.2-7.59 7.27z"/><path class="cls-3" d="M44 58.68V64a3.31 3.31 0 01-.76 1.91c-.45.42-7.59 7.28-7.59 7.28l-.65-.66 7.47-7.13A2.12 2.12 0 0043 64v-5.32h1m0-.15h-1l-.15.15V64a2 2 0 01-.54 1.28l-7.47 7.13v.21l.63.67h.22l7.6-7.29a3.44 3.44 0 00.81-2v-5.32l-.1-.15z"/><path class="cls-1" d="M43 98.44V93a2 2 0 00-.56-1.33l-7.47-7.13v-.11l.63-.67h.1c.07.07 7.14 6.86 7.59 7.27A3.43 3.43 0 0144 93v5.34l-.08.08z"/><path class="cls-3" d="M35.6 83.84s7.14 6.86 7.59 7.28A3.31 3.31 0 0144 93v5.33h-1V93a2.12 2.12 0 00-.59-1.39L35 84.51l.63-.67m.11-.11h-.22l-.63.67v.21l7.47 7.13a2 2 0 01.52 1.26v5.32l.15.15H44l.15-.15V93a3.45 3.45 0 00-.81-2l-7.58-7.28z"/><path class="cls-1" d="M14.73 98.44l-.08-.08V93a3.45 3.45 0 01.8-2c.44-.41 7.51-7.2 7.58-7.27h.11l.63.67v.11l-7.48 7.19a2.07 2.07 0 00-.56 1.3v5.33l-.08.08z"/><path class="cls-3" d="M23.08 83.84l.63.67-7.47 7.13a2.12 2.12 0 00-.59 1.36v5.33h-.92V93a3.25 3.25 0 01.77-1.91c.45-.42 7.58-7.28 7.58-7.28m-.1-.11c-.07.07-7.14 6.86-7.59 7.28a3.44 3.44 0 00-.81 2v5.34l.15.15h.92l.15-.15V93a2 2 0 01.54-1.28l7.47-7.13v-.21l-.63-.67z"/><path class="cls-1" d="M28.88 65.09l-.08-.07v-6.34l.08-.08h.92l.08.08v6.34l-.08.07h-.92z"/><path class="cls-3" d="M29.8 58.68V65h-.92v-6.32h.92m0-.15h-.92l-.15.15V65l.15.15h.92L30 65v-6.32l-.15-.15z"/><path class="cls-1" d="M28.88 98.44l-.08-.08v-6.34l.08-.08h.92l.08.08v6.34l-.08.08h-.92z"/><path class="cls-3" d="M29.8 92v6.34h-.92V92h.92m0-.15h-.92l-.15.15v6.34l.15.15h.92l.15-.15V92l-.15-.15z"/><path class="cls-1" d="M39.76 79.06l-.07-.08v-.92l.07-.08h9.71l.07.08v.92l-.07.08h-9.71z"/><path class="cls-3" d="M49.47 78.06V79h-9.71v-.92h9.71m0-.15h-9.71l-.15.15V79l.15.15h9.71l.15-.15v-.92l-.15-.15z"/><path class="cls-1" d="M9.21 79.06l-.07-.08v-.92l.07-.08h9.71l.07.08v.92l-.07.08H9.21z"/><path class="cls-3" d="M18.92 78.06V79h-9.7v-.92h9.7m0-.15h-9.7l-.15.15V79l.15.15h9.7l.15-.15v-.92l-.15-.15z"/><circle class="cls-1" cx="98.72" cy="78.52" r="4.25"/><path class="cls-1" d="M78.51 98.44V58.6h40.41v39.84zm36.73-3.68V62.28h-33v32.48z"/><path class="cls-3" d="M118.84 58.68v39.68H78.59V58.68h40.25M82.12 94.83h33.19V62.21H82.12v32.62M119 58.53H78.44v40H119v-40zm-36.73 3.83h32.89v32.32H82.27V62.36z"/><path class="cls-1" d="M92.4 73.25c-.07-.07-7.14-6.86-7.58-7.27A3.39 3.39 0 0184 64v-5.32l.07-.08H85l.07.08V64a2 2 0 00.57 1.33l7.47 7.13v.11l-.63.67z"/><path class="cls-3" d="M85 58.68V64a2.12 2.12 0 00.59 1.39l7.47 7.13-.63.67s-7.14-6.86-7.59-7.28A3.39 3.39 0 0184.1 64v-5.32h.9m0-.15h-.9l-.15.15V64a3.46 3.46 0 00.82 2l7.58 7.28h.22l.63-.67v-.21l-7.47-7.13a2 2 0 01-.55-1.27v-5.32l-.18-.15z"/><path class="cls-1" d="M104.92 73.25l-.63-.67v-.11l7.47-7.13a2.09 2.09 0 00.56-1.33v-5.33l.07-.08h.93l.07.08V64a3.37 3.37 0 01-.79 2c-.44.41-7.51 7.2-7.58 7.27z"/><path class="cls-3" d="M113.33 58.68V64a3.25 3.25 0 01-.77 1.91c-.45.42-7.58 7.28-7.58 7.28l-.63-.67 7.47-7.13a2.17 2.17 0 00.58-1.39v-5.32h.93m0-.15h-.93l-.15.15V64a1.91 1.91 0 01-.54 1.28l-7.47 7.13v.21l.63.67h.21l7.58-7.29a3.46 3.46 0 00.82-2v-5.32l-.15-.15z"/><path class="cls-1" d="M112.4 98.44l-.07-.08V93a2.07 2.07 0 00-.56-1.33l-7.47-7.13v-.11l.63-.67h.07c.07.07 7.14 6.86 7.58 7.27a3.37 3.37 0 01.79 2v5.34l-.07.08z"/><path class="cls-3" d="M105 83.84s7.13 6.86 7.58 7.28a3.25 3.25 0 01.77 1.91v5.33h-.93V93a2.17 2.17 0 00-.58-1.39l-7.47-7.13.63-.67m.1-.11h-.21l-.63.67v.21l7.47 7.13a2 2 0 01.55 1.29v5.32l.15.15h.93l.15-.15V93a3.46 3.46 0 00-.82-2l-7.58-7.28z"/><path class="cls-1" d="M84.1 98.44l-.1-.08V93a3.37 3.37 0 01.79-2c.44-.41 7.51-7.2 7.58-7.27h.11l.63.67v.11l-7.44 7.19a2 2 0 00-.57 1.3v5.33l-.07.08z"/><path class="cls-3" d="M92.46 83.84l.63.67-7.47 7.13A2.12 2.12 0 0085 93v5.33h-.9V93a3.39 3.39 0 01.77-1.91c.45-.42 7.59-7.28 7.59-7.28m-.11-.11L84.77 91a3.46 3.46 0 00-.77 2v5.34l.15.15H85l.15-.15V93a2 2 0 01.54-1.28l7.47-7.13v-.21l-.63-.67z"/><path class="cls-1" d="M98.25 65.09l-.07-.07v-6.34l.07-.08h.93l.07.08v6.34l-.07.07h-.93z"/><path class="cls-3" d="M99.18 58.68V65h-.93v-6.32h.93m0-.15h-.93l-.15.15V65l.15.15h.93l.15-.15v-6.32l-.15-.15z"/><path class="cls-1" d="M98.25 98.44l-.07-.08v-6.34l.07-.08h.93l.07.08v6.34l-.07.08h-.93z"/><path class="cls-3" d="M99.18 92v6.34h-.93V92h.93m0-.15h-.93l-.15.15v6.34l.15.15h.93l.15-.15V92l-.15-.15z"/><path class="cls-1" d="M109.14 79.06l-.08-.08v-.92l.08-.08h9.7l.08.08v.92l-.08.08h-9.7z"/><path class="cls-3" d="M118.84 78.06V79h-9.7v-.92h9.7m0-.15h-9.7l-.15.15V79l.15.15h9.7L119 79v-.92l-.15-.15z"/><path class="cls-1" d="M78.59 79.06l-.07-.08v-.92l.07-.08h9.7l.08.08v.92l-.08.08h-9.7z"/><path class="cls-3" d="M88.29 78.06V79h-9.7v-.92h9.7m0-.15h-9.7l-.15.15V79l.15.15h9.7l.15-.15v-.92l-.15-.15z"/><path class="cls-1" d="M174.86 18.53v79.58h-55.63V18.53h55.63m.25-.25H119v80.08h56.13V18.28z"/><rect x="121.54" y="23.86" width="51.02" height="1.42" rx=".71" stroke-miterlimit="1.41" stroke-width=".49" fill="none" stroke="#222221"/><rect class="cls-5" x="126.33" y="91.3" width="4.25" height="1.42" rx=".71"/><rect class="cls-5" x="135.62" y="91.3" width="4.25" height="1.42" rx=".71"/><rect class="cls-5" x="144.92" y="91.3" width="4.25" height="1.42" rx=".71"/><rect class="cls-5" x="154.22" y="91.3" width="4.25" height="1.42" rx=".71"/><rect class="cls-5" x="163.52" y="91.3" width="4.25" height="1.42" rx=".71"/><circle class="cls-5" cx="147.05" cy="58.29" r="17.72"/><circle class="cls-5" cx="147.05" cy="58.29" r=".71"/><circle class="cls-5" cx="147.05" cy="58.29" r="16.72"/><circle class="cls-5" cx="147.05" cy="58.29" r="5.95"/><circle class="cls-5" cx="147.05" cy="58.29" r="8.15"/><circle class="cls-5" cx="147.05" cy="58.29" r="10.63"/><circle class="cls-5" cx="147.05" cy="58.29" r="13.11"/><circle class="cls-5" cx="147.05" cy="58.29" r="15.59"/><rect class="cls-1" x="60.24" y="42.02" width="7.57" height="32.6" rx="3.78"/><path class="cls-1" d="M50.84 98.44V18.21h26.37v80.23zm22.82-3.68V21.89H54.4v72.87z"/><path class="cls-3" d="M77.14 18.28v80.08H50.92V18.28h26.22M54.32 94.83h19.42v-73H54.32v73m23-76.7H50.77v80.38h26.52V18.13zM54.47 22h19.12v72.68H54.47V22z"/><path class="cls-1" d="M50.92 58.86l-.08-.08v-.92l.08-.07h7.65l.08.07v.92l-.08.08h-7.65z"/><path class="cls-3" d="M58.57 57.86v.92h-7.65v-.92h7.65m0-.15h-7.65l-.15.15v.92l.15.15h7.65l.15-.15v-.92l-.15-.15z"/><path class="cls-1" d="M50.92 78.69l-.08-.07v-.93l.08-.07h7.65l.08.07v.93l-.08.07h-7.65z"/><path class="cls-3" d="M58.57 77.69v.93h-7.65v-.93h7.65m0-.15h-7.65l-.15.15v.93l.15.15h7.65l.15-.15v-.93l-.15-.15z"/><path class="cls-1" d="M69.49 58.86l-.08-.08v-.92l.08-.07h7.65l.07.07v.92l-.07.08h-7.65z"/><path class="cls-3" d="M77.14 57.86v.92h-7.65v-.92h7.65m0-.15h-7.65l-.15.15v.92l.15.15h7.65l.15-.15v-.92l-.15-.15z"/><path class="cls-1" d="M69.49 78.69l-.08-.07v-.93l.08-.07h7.65l.07.07v.93l-.07.07h-7.65z"/><path class="cls-3" d="M77.14 77.69v.93h-7.65v-.93h7.65m0-.15h-7.65l-.15.15v.93l.15.15h7.65l.15-.15v-.93l-.15-.15z"/><path class="cls-1" d="M50.92 39.03l-.08-.08v-.92l.08-.08h7.65l.08.08v.92l-.08.08h-7.65z"/><path class="cls-3" d="M58.57 38v1h-7.65v-1h7.65m0-.15h-7.65l-.15.15v1l.15.15h7.65l.15-.15v-1l-.15-.15z"/><path class="cls-1" d="M50.92 29.06l-.08-.07v-.93l.08-.07h26.22l.07.07v.93l-.07.07H50.92z"/><path class="cls-3" d="M77.14 28.06V29H50.92v-.93h26.22m0-.15H50.92l-.15.15V29l.15.15h26.22l.15-.15v-.93l-.15-.15z"/><path class="cls-1" d="M50.92 88.66l-.08-.08v-.92l.08-.08h26.22l.07.08v.92l-.07.08H50.92z"/><path class="cls-3" d="M77.14 87.66v.92H50.92v-.92h26.22m0-.15H50.92l-.15.15v.92l.15.15h26.22l.15-.15v-.92l-.15-.15z"/><path class="cls-1" d="M69.49 39.03l-.08-.08v-.92l.08-.08h7.65l.07.08v.92l-.07.08h-7.65z"/><path class="cls-3" d="M77.14 38v1h-7.65v-1h7.65m0-.15h-7.65l-.15.15v1l.15.15h7.65l.15-.15v-1l-.15-.15z"/></g></svg>