<svg xmlns="http://www.w3.org/2000/svg" viewBox="0 0 195.59 164.41"><defs><style>.cls-1,.cls-11,.cls-2{fill:#20201e}.cls-10,.cls-2,.cls-4,.cls-5,.cls-6,.cls-7,.cls-8,.cls-9{stroke:#20201e}.cls-10,.cls-2,.cls-4,.cls-6,.cls-9{stroke-miterlimit:1.41}.cls-2{stroke-width:.2px}.cls-10,.cls-4,.cls-5{fill:none}.cls-4,.cls-5{stroke-width:.5px}.cls-5,.cls-7,.cls-8{stroke-miterlimit:10}.cls-6,.cls-7,.cls-8,.cls-9{fill:#fff}.cls-6,.cls-8{stroke-width:.3px}.cls-7{stroke-width:.4px}.cls-10,.cls-9{stroke-width:.25px}.cls-11{font-size:7px;font-family:Fakt-Normal,Fakt}</style></defs><g id="Ranges"><ellipse class="cls-1" cx="181.35" cy="42.67" rx="1.2" ry="1.24"/><path class="cls-2" d="M145.1 25.2v-3h13.98l-4.3 1.14h-6.55v1.86h-3.13zm36.12.04v-3.01h-14.3l4.3 1.14h6.55v1.87h3.45zm-18.49-3.04h.84v3.01h-.84z"/><path class="cls-1" d="M106.19 16.95h38.45v3.32h-38.45z"/><path stroke-width=".4" fill="none" stroke-miterlimit="1.41" stroke="#20201e" d="M106.19 20.27h38.45v5.25h-38.45z"/><path class="cls-4" d="M106.19 22.29h38.46"/><path class="cls-2" d="M69.12 25.21v-2.96h14.21l-4.38 1.12H72.3v1.84h-3.18zm36.69.03v-2.95H91.29l4.37 1.12h6.65v1.83h3.5zm-18.78-2.99h.85v2.95h-.85zm-19.26 2.96v-2.96H53.24l4.38 1.12h6.65v1.84h3.5zm-36.97.03v-2.95h14.21l-4.38 1.12h-6.65v1.83H30.8zm18.17-2.99h.85v2.95h-.85z"/><rect class="cls-5" x="150.51" y="67.47" width="25.31" height="30.87" rx="1.41"/><path class="cls-6" d="M153.5 58.63h21.2v3.48h-21.2zm-5.05 1.07h4.13v1.23h-4.13z"/><ellipse class="cls-6" cx="147.84" cy="60.26" rx="1.85" ry="1.9"/><path class="cls-6" d="M153.5 60.73h1.2v4h-1.2z"/><rect class="cls-6" x="150.89" y="58.14" width="5.01" height="4.47" rx=".24"/><path class="cls-6" d="M175.57 59.7h4.13v1.23h-4.13z"/><ellipse class="cls-6" cx="180.15" cy="60.26" rx="1.85" ry="1.9"/><ellipse class="cls-6" cx="180.15" cy="60.26" rx="1.85" ry="1.9"/><path class="cls-6" d="M173.5 60.73h1.2v4h-1.2z"/><rect class="cls-6" x="172.09" y="58.14" width="5.01" height="4.47" rx=".24"/><rect class="cls-5" x="40.02" y="67.47" width="88.78" height="30.87" rx="1.41"/><circle class="cls-7" cx="52.87" cy="42.67" r="3.62"/><rect class="cls-8" x="54.13" y="41.97" width="4.31" height="1.39" rx=".56"/><circle class="cls-8" cx="52.87" cy="42.67" r="2.09"/><circle class="cls-7" cx="64.22" cy="42.67" r="3.62"/><rect class="cls-8" x="65.48" y="41.97" width="4.31" height="1.39" rx=".56"/><circle class="cls-8" cx="64.22" cy="42.67" r="2.09"/><circle class="cls-7" cx="75.57" cy="42.67" r="3.62"/><rect class="cls-8" x="76.84" y="41.97" width="4.31" height="1.39" rx=".56"/><circle class="cls-8" cx="75.57" cy="42.67" r="2.09"/><circle class="cls-7" cx="86.64" cy="42.67" r="3.62"/><rect class="cls-8" x="87.9" y="41.97" width="4.31" height="1.39" rx=".56"/><circle class="cls-8" cx="86.64" cy="42.67" r="2.09"/><circle class="cls-7" cx="97.7" cy="42.67" r="3.62"/><rect class="cls-8" x="98.96" y="41.97" width="4.31" height="1.39" rx=".56"/><circle class="cls-8" cx="97.7" cy="42.67" r="2.09"/><circle class="cls-7" cx="109.2" cy="42.67" r="3.62"/><rect class="cls-8" x="110.46" y="41.97" width="4.31" height="1.39" rx=".56"/><circle class="cls-8" cx="109.2" cy="42.67" r="2.09"/><circle class="cls-7" cx="120.62" cy="42.67" r="3.62"/><rect class="cls-8" x="121.89" y="41.97" width="4.31" height="1.39" rx=".56"/><circle class="cls-8" cx="120.62" cy="42.67" r="2.09"/><circle class="cls-7" cx="131.96" cy="42.67" r="3.62"/><rect class="cls-8" x="133.23" y="41.97" width="4.31" height="1.39" rx=".56"/><circle class="cls-8" cx="131.96" cy="42.67" r="2.09"/><circle class="cls-7" cx="142.87" cy="42.67" r="3.62"/><rect class="cls-8" x="144.13" y="41.97" width="4.31" height="1.39" rx=".56"/><circle class="cls-8" cx="142.87" cy="42.67" r="2.09"/><circle class="cls-7" cx="164.42" cy="42.67" r="3.62"/><rect class="cls-8" x="165.68" y="41.97" width="4.31" height="1.39" rx=".56"/><circle class="cls-8" cx="164.42" cy="42.67" r="2.09"/><circle class="cls-7" cx="175.32" cy="42.67" r="3.62"/><rect class="cls-8" x="176.58" y="41.97" width="4.31" height="1.39" rx=".56"/><circle class="cls-8" cx="175.32" cy="42.67" r="2.09"/><path class="cls-6" d="M40.88 58.63h86.51v3.48H40.88zm-5.94 1.07h4.13v1.23h-4.13z"/><ellipse class="cls-6" cx="34.33" cy="60.26" rx="1.85" ry="1.9"/><path class="cls-6" d="M40 60.73h1.2v4H40z"/><rect class="cls-6" x="37.38" y="58.14" width="5.01" height="4.47" rx=".24"/><path class="cls-6" d="M129.6 59.7h4.13v1.23h-4.13z"/><ellipse class="cls-6" cx="134.18" cy="60.26" rx="1.85" ry="1.9"/><ellipse class="cls-6" cx="134.18" cy="60.26" rx="1.85" ry="1.9"/><path class="cls-6" d="M127.54 60.73h1.2v4h-1.2z"/><rect class="cls-6" x="126.13" y="58.14" width="5.01" height="4.47" rx=".24"/><ellipse class="cls-1" cx="81.15" cy="37.25" rx="1.2" ry="1.24"/><ellipse class="cls-1" cx="181.35" cy="37.24" rx="1.2" ry="1.24"/><ellipse class="cls-1" cx="47.74" cy="37.25" rx="1.2" ry="1.24"/><path class="cls-5" d="M186.13 113.39H25.9m0 22.67V31.18m160.23 22.68H25.9m160.23 82.2V31.17m-166.29.01h172.35M19.84 25.51h172.35m-172.35-8.5h172.35v119.06H19.84z"/><path class="cls-4" d="M142.92 113.39V53.86"/><path class="cls-5" d="M31.38 38.44h13.24v8.07H31.38z"/><path class="cls-1" d="M184.22 115.3v18.85H27.82V115.3h156.4m.5-.5H27.32v19.85h157.4V114.8zM141 55.78v55.69H27.82V55.78H141m.5-.5H27.32V112H141.5V55.28zm42.72-22.18v18.84H27.82V33.1h156.4m.5-.5H27.32v19.84h157.4V32.6zm-.5 23.18v55.69h-39.39V55.78h39.39m.5-.5h-40.39V112h40.39V55.28z"/><path class="cls-4" d="M19.84 136.06v19.85H31.7s-.05-3.34-.05-6.21 3.23-3.48 5.07-4.18c3.73-1.43 9.11-2.7 13.37-3.81 4-1 3.77-5.65 3.77-5.65zm172.35 0v19.85h-11.86v-6.21c0-2.87-3.23-3.48-5.07-4.18-3.73-1.43-9.11-2.7-13.37-3.81-4-1-3.76-5.65-3.76-5.65z"/></g><g id="Dimensions"><path class="cls-9" d="M19.84 155.91h-8.5m8.5-19.85h-8.5m8.5-119.05h-8.5m8.5 8.5h-8.5"/><path class="cls-10" d="M14.17 25.78v110.01"/><path class="cls-1" d="M13.15 26.61l.18.17.84-.9.84.9.19-.17-1.03-1.1-1.02 1.1zm0 108.35l.18-.17.84.9.84-.9.19.17-1.03 1.1-1.02-1.1z"/><text class="cls-11" transform="rotate(-90 48.335 38.415)">780</text><text class="cls-11" transform="rotate(-90 11.2 1.28)">60</text><path class="cls-10" d="M14.17 8.5v8.24"/><path class="cls-1" d="M13.15 15.91l.18-.17.84.9.84-.9.19.17-1.03 1.1-1.02-1.1z"/><path class="cls-10" d="M14.17 25.51v-8.5m0 119.05v19.85"/><text class="cls-11" transform="rotate(-90 85.75 75.83)">140</text><path class="cls-10" d="M14.17 156.18v5.39"/><path class="cls-1" d="M13.15 157l.18.18.84-.91.84.91.19-.18-1.03-1.09-1.02 1.09z"/><path class="cls-9" d="M19.84 16.98v-8.5m172.35 8.5v-8.5"/><path class="cls-10" d="M191.92 11.31H20.11"/><path class="cls-1" d="M191.09 10.29l-.17.18.9.84-.9.84.17.18 1.1-1.02-1.1-1.02zm-170.15 0l.17.18-.9.84.9.84-.17.18-1.1-1.02 1.1-1.02z"/><text class="cls-11" transform="translate(98.06 7.06)">1216</text></g></svg>