<svg width="36" height="36" fill="none" xmlns="http://www.w3.org/2000/svg"><path fill-rule="evenodd" clip-rule="evenodd" d="M18 36c9.941 0 18-8.059 18-18S27.941 0 18 0 0 8.059 0 18s8.059 18 18 18z" fill="#25D366"/><g clip-path="url(#clip0_3540_15240)" fill="#fff"><path d="M23.726 21.554c-.72-.71-1.616-.71-2.33 0-.545.54-1.09 1.08-1.626 1.63-.146.15-.27.182-.448.082-.353-.192-.728-.348-1.067-.559-1.58-.993-2.902-2.27-4.074-3.708-.582-.714-1.1-1.479-1.46-2.34-.074-.173-.06-.288.082-.43.544-.526 1.075-1.066 1.611-1.606.746-.751.746-1.63-.005-2.386-.425-.43-.851-.851-1.277-1.281-.44-.44-.874-.884-1.318-1.319-.72-.7-1.616-.7-2.33.005-.55.54-1.076 1.094-1.635 1.625-.517.49-.778 1.09-.833 1.79-.087 1.14.192 2.216.586 3.264.806 2.17 2.033 4.097 3.52 5.864 2.01 2.39 4.409 4.28 7.215 5.645 1.264.614 2.573 1.085 3.997 1.163.98.055 1.831-.192 2.513-.957.467-.522.994-.998 1.488-1.497.732-.742.737-1.639.01-2.371-.87-.875-1.745-1.745-2.62-2.614zm-.875-3.649l1.69-.289a7.55 7.55 0 00-2.111-4.074 7.51 7.51 0 00-4.303-2.147l-.238 1.699a5.825 5.825 0 013.332 1.661 5.82 5.82 0 011.63 3.15zm2.642-7.343A12.456 12.456 0 0018.351 7l-.238 1.698a10.8 10.8 0 016.171 3.077 10.793 10.793 0 013.027 5.837L29 17.323a12.547 12.547 0 00-3.507-6.761z"/></g><defs><clipPath id="clip0_3540_15240"><path fill="#fff" transform="translate(7 7)" d="M0 0h22v22H0z"/></clipPath></defs></svg>