<svg width="36" height="36" fill="none" xmlns="http://www.w3.org/2000/svg"><path d="M18 36c9.941 0 18-8.059 18-18S27.941 0 18 0 0 8.059 0 18s8.059 18 18 18z" fill="#2BA5E1"/><path d="M7.874 17.428l4.177 1.562 1.617 5.21c.104.333.51.457.781.235l2.329-1.902a.692.692 0 01.846-.023l4.2 3.055c.29.21.7.051.772-.299l3.076-14.827a.493.493 0 00-.66-.56L7.87 16.505a.494.494 0 00.005.923zm5.534.73l8.164-5.038c.146-.09.297.109.171.226l-6.737 6.275a1.4 1.4 0 00-.433.837l-.23 1.704c-.03.228-.35.25-.412.03l-.883-3.107a.824.824 0 01.36-.927z" fill="#BEC7D1" style="mix-blend-mode:darken"/><path d="M7.874 17.428l4.177 1.562 1.617 5.21c.104.333.51.457.781.235l2.329-1.902a.692.692 0 01.846-.023l4.2 3.055c.29.21.7.051.772-.299l3.076-14.827a.493.493 0 00-.66-.56L7.87 16.505a.494.494 0 00.005.923zm5.534.73l8.164-5.038c.146-.09.297.109.171.226l-6.737 6.275a1.4 1.4 0 00-.433.837l-.23 1.704c-.03.228-.35.25-.412.03l-.883-3.107a.824.824 0 01.36-.927z" fill="#fff"/></svg>