<svg width="36" height="36" fill="none" xmlns="http://www.w3.org/2000/svg"><path d="M18 36c9.941 0 18-8.059 18-18S27.941 0 18 0 0 8.059 0 18s8.059 18 18 18z" fill="#7D3DAF"/><path d="M28.158 12.866l-.006-.025c-.506-2.06-2.783-4.27-4.875-4.73l-.024-.005a26.87 26.87 0 00-10.197 0l-.024.005c-2.091.46-4.37 2.67-4.875 4.73l-.006.025a20.291 20.291 0 000 8.67l.006.025c.484 1.972 2.592 4.08 4.606 4.66v2.3c0 .832 1.006 1.241 1.578.64l2.31-2.421a26.962 26.962 0 006.602-.444l.024-.005c2.092-.46 4.37-2.67 4.875-4.73l.006-.025a20.293 20.293 0 000-8.67zM26.33 21.12c-.338 1.344-2.067 3.014-3.441 3.323a25.044 25.044 0 01-5.424.442.128.128 0 00-.096.04l-1.687 1.745-1.794 1.857a.21.21 0 01-.361-.146v-3.81a.131.131 0 00-.106-.128h-.001c-1.375-.309-3.103-1.98-3.441-3.323a18.414 18.414 0 010-7.836c.338-1.344 2.066-3.014 3.44-3.323a25.025 25.025 0 019.47 0c1.375.309 3.103 1.98 3.44 3.323a18.39 18.39 0 010 7.836z" fill="#BEC7D1" style="mix-blend-mode:darken"/><path d="M28.158 12.866l-.006-.025c-.506-2.06-2.783-4.27-4.875-4.73l-.024-.005a26.87 26.87 0 00-10.197 0l-.024.005c-2.091.46-4.37 2.67-4.875 4.73l-.006.025a20.291 20.291 0 000 8.67l.006.025c.484 1.972 2.592 4.08 4.606 4.66v2.3c0 .832 1.006 1.241 1.578.64l2.31-2.421a26.962 26.962 0 006.602-.444l.024-.005c2.092-.46 4.37-2.67 4.875-4.73l.006-.025a20.293 20.293 0 000-8.67zM26.33 21.12c-.338 1.344-2.067 3.014-3.441 3.323a25.044 25.044 0 01-5.424.442.128.128 0 00-.096.04l-1.687 1.745-1.794 1.857a.21.21 0 01-.361-.146v-3.81a.131.131 0 00-.106-.128h-.001c-1.375-.309-3.103-1.98-3.441-3.323a18.414 18.414 0 010-7.836c.338-1.344 2.066-3.014 3.44-3.323a25.025 25.025 0 019.47 0c1.375.309 3.103 1.98 3.44 3.323a18.39 18.39 0 010 7.836z" fill="#fff"/><path d="M21.144 22.877c-.211-.064-.413-.108-.6-.186-1.937-.81-3.72-1.856-5.133-3.46-.803-.911-1.432-1.94-1.963-3.03-.252-.516-.465-1.053-.681-1.586-.197-.486.093-.989.4-1.355a3.158 3.158 0 011.057-.8c.312-.152.62-.065.849.202.493.577.946 1.184 1.313 1.854.226.411.164.915-.245 1.195-.1.068-.19.148-.283.225a.93.93 0 00-.213.226.626.626 0 00-.041.546c.504 1.397 1.354 2.484 2.75 3.07.222.093.446.202.704.172.43-.05.57-.527.871-.776.295-.243.672-.246.99-.044.318.203.626.42.932.64.3.217.6.428.877.674.267.237.359.548.209.869-.275.589-.675 1.078-1.252 1.39-.163.089-.357.117-.541.174-.211-.064.184-.057 0 0zm-2.984-11.09c2.534.07 4.616 1.767 5.062 4.293.076.43.103.871.137 1.308.014.184-.09.358-.286.36-.203.003-.295-.168-.308-.352-.026-.364-.044-.729-.094-1.09-.262-1.903-1.767-3.478-3.647-3.816-.282-.051-.572-.064-.858-.095-.181-.019-.419-.03-.459-.257-.033-.19.126-.342.306-.351.049-.003.098 0 .147 0 2.534.07-.05 0 0 0z" fill="#BEC7D1" style="mix-blend-mode:darken"/><path d="M21.144 22.877c-.211-.064-.413-.108-.6-.186-1.937-.81-3.72-1.856-5.133-3.46-.803-.911-1.432-1.94-1.963-3.03-.252-.516-.465-1.053-.681-1.586-.197-.486.093-.989.4-1.355a3.158 3.158 0 011.057-.8c.312-.152.62-.065.849.202.493.577.946 1.184 1.313 1.854.226.411.164.915-.245 1.195-.1.068-.19.148-.283.225a.93.93 0 00-.213.226.626.626 0 00-.041.546c.504 1.397 1.354 2.484 2.75 3.07.222.093.446.202.704.172.43-.05.57-.527.871-.776.295-.243.672-.246.99-.044.318.203.626.42.932.64.3.217.6.428.877.674.267.237.359.548.209.869-.275.589-.675 1.078-1.252 1.39-.163.089-.357.117-.541.174-.211-.064.184-.057 0 0zm-2.984-11.09c2.534.07 4.616 1.767 5.062 4.293.076.43.103.871.137 1.308.014.184-.09.358-.286.36-.203.003-.295-.168-.308-.352-.026-.364-.044-.729-.094-1.09-.262-1.903-1.767-3.478-3.647-3.816-.282-.051-.572-.064-.858-.095-.181-.019-.419-.03-.459-.257-.033-.19.126-.342.306-.351.049-.003.098 0 .147 0 2.534.07-.05 0 0 0z" fill="#fff"/><path d="M22.011 16.821c-.004.032-.006.107-.025.178-.067.256-.453.289-.541.03a.778.778 0 01-.03-.247c-.002-.542-.118-1.082-.39-1.553a2.876 2.876 0 00-1.201-1.137 3.436 3.436 0 00-.958-.297c-.144-.024-.29-.039-.436-.06-.175-.024-.27-.137-.261-.312a.273.273 0 01.303-.271c.582.033 1.144.16 1.66.436 1.052.562 1.653 1.448 1.828 2.631.008.054.021.107.025.161.01.133.016.266.026.441-.004.032-.01-.175 0 0z" fill="#BEC7D1" style="mix-blend-mode:darken"/><path d="M22.011 16.821c-.004.032-.006.107-.025.178-.067.256-.453.289-.541.03a.778.778 0 01-.03-.247c-.002-.542-.118-1.082-.39-1.553a2.876 2.876 0 00-1.201-1.137 3.436 3.436 0 00-.958-.297c-.144-.024-.29-.039-.436-.06-.175-.024-.27-.137-.261-.312a.273.273 0 01.303-.271c.582.033 1.144.16 1.66.436 1.052.562 1.653 1.448 1.828 2.631.008.054.021.107.025.161.01.133.016.266.026.441-.004.032-.01-.175 0 0z" fill="#fff"/><path d="M20.435 16.759c-.212.004-.325-.115-.347-.31-.016-.137-.028-.276-.06-.409a1.15 1.15 0 00-.42-.665 1.093 1.093 0 00-.343-.167c-.155-.045-.317-.033-.472-.07-.168-.043-.262-.18-.235-.34a.305.305 0 01.321-.246c.983.071 1.685.583 1.785 1.75.007.082.016.17-.002.248-.031.135-.13.202-.227.209-.212.004.097-.007 0 0z" fill="#BEC7D1" style="mix-blend-mode:darken"/><path d="M20.435 16.759c-.212.004-.325-.115-.347-.31-.016-.137-.028-.276-.06-.409a1.15 1.15 0 00-.42-.665 1.093 1.093 0 00-.343-.167c-.155-.045-.317-.033-.472-.07-.168-.043-.262-.18-.235-.34a.305.305 0 01.321-.246c.983.071 1.685.583 1.785 1.75.007.082.016.17-.002.248-.031.135-.13.202-.227.209-.212.004.097-.007 0 0z" fill="#fff"/></svg>