<svg width="36" height="36" fill="none" xmlns="http://www.w3.org/2000/svg"><path d="M18 36c9.941 0 18-8.059 18-18S27.941 0 18 0 0 8.059 0 18s8.059 18 18 18z" fill="#19D33E"/><path d="M8.34 27.912l1.423-5.054a10.113 10.113 0 01-1.396-5.14c0-5.593 4.55-10.144 10.144-10.144s10.145 4.551 10.145 10.145c0 5.594-4.551 10.144-10.145 10.144a10.13 10.13 0 01-4.96-1.293l-5.21 1.342zm5.478-3.188l.31.19a8.406 8.406 0 004.383 1.229c4.645 0 8.424-3.78 8.424-8.424 0-4.645-3.779-8.424-8.424-8.424s-8.423 3.779-8.423 8.424c0 1.618.46 3.19 1.33 4.545l.209.325-.82 2.91 3.011-.775z" fill="#BEC7D1" style="mix-blend-mode:darken"/><path d="M8.34 27.912l1.423-5.054a10.113 10.113 0 01-1.396-5.14c0-5.593 4.55-10.144 10.144-10.144s10.145 4.551 10.145 10.145c0 5.594-4.551 10.144-10.145 10.144a10.13 10.13 0 01-4.96-1.293l-5.21 1.342zm5.478-3.188l.31.19a8.406 8.406 0 004.383 1.229c4.645 0 8.424-3.78 8.424-8.424 0-4.645-3.779-8.424-8.424-8.424s-8.423 3.779-8.423 8.424c0 1.618.46 3.19 1.33 4.545l.209.325-.82 2.91 3.011-.775z" fill="#fff"/><path d="M15.662 12.997l-.659-.036a.796.796 0 00-.566.194c-.319.277-.829.813-.986 1.51-.233 1.042.128 2.316 1.063 3.591.934 1.275 2.676 3.314 5.757 4.186.993.28 1.774.091 2.376-.294.477-.306.806-.796.925-1.35l.105-.49a.341.341 0 00-.19-.381L21.26 18.9a.341.341 0 00-.412.101l-.874 1.133a.25.25 0 01-.28.083c-.599-.21-2.602-1.049-3.702-3.167a.252.252 0 01.032-.281l.835-.966a.34.34 0 00.056-.357l-.96-2.243a.341.341 0 00-.294-.207z" fill="#BEC7D1" style="mix-blend-mode:darken"/><path d="M15.662 12.997l-.659-.036a.796.796 0 00-.566.194c-.319.277-.829.813-.986 1.51-.233 1.042.128 2.316 1.063 3.591.934 1.275 2.676 3.314 5.757 4.186.993.28 1.774.091 2.376-.294.477-.306.806-.796.925-1.35l.105-.49a.341.341 0 00-.19-.381L21.26 18.9a.341.341 0 00-.412.101l-.874 1.133a.25.25 0 01-.28.083c-.599-.21-2.602-1.049-3.702-3.167a.252.252 0 01.032-.281l.835-.966a.34.34 0 00.056-.357l-.96-2.243a.341.341 0 00-.294-.207z" fill="#fff"/></svg>