<svg xmlns="http://www.w3.org/2000/svg" viewBox="0 0 198.43 99.21"><g data-name="Layer 1"><path d="M57.78 26.64h5.53v1.45h-3.8v1.82h3.29v1.34h-3.29v3.25h-1.73zm77.27 0h5.52v1.45h-3.8v1.82h3.29v1.34h-3.29v3.25h-1.72zm-32.86 21.55a3.38 3.38 0 01-2.74 1.37c-3.1 0-4.92-2.31-4.92-5.2s1.82-5.28 4.92-5.28a4 4 0 014.22 3.53h-2.1a2.06 2.06 0 00-2.12-1.68c-2 0-2.72 1.68-2.72 3.43s.74 3.35 2.72 3.35a2.17 2.17 0 002.38-2.16h-2.21v-1.63h4.2v5.4h-1.4zM58.61 69.33h4.27v1.06h-3v1.22h2.77v1h-2.79V74h3.08v1h-4.33zm77.03 0h4.27v1.06h-3v1.22h2.76v1h-2.77V74h3.1v1h-4.34z" fill="#222221"/><path stroke-miterlimit="1.41" stroke-width=".59" fill="none" stroke="#222221" d="M40.13 10.42h118.16V87.5H40.13z"/><path d="M137.81 17.79v6.39m0 12.78v6.39m-6.39-12.78h-6.39m25.56 0h-6.39m-11.24 41.51h-4.84m9.69-4.84v-4.85m0 19.59v-4.84m9.69-5.06h-4.85M60.54 17.79v6.39m0 12.78v6.39m-6.38-12.78h-6.39m25.55 0h-6.39M55.81 72.08h-4.85m9.69-4.84v-4.85m0 19.59v-4.84m9.69-5.06h-4.85m33.69-18.67v9.1m0-36.37v9.09m-9.1 9.09h-9.09m36.37 0h-9.09" fill="none" stroke="#222221" stroke-miterlimit="2" stroke-width=".57"/><path stroke-miterlimit="10" stroke-width=".5" fill="none" stroke="#222221" d="M35.43 7.09h127.56v85.04H35.43z"/></g></svg>