<svg xmlns="http://www.w3.org/2000/svg" viewBox="0 0 121.89 164.41"><defs><style>.cls-10,.cls-5{fill:#20201e}.cls-3,.cls-4,.cls-6,.cls-7,.cls-8,.cls-9{stroke:#20201e}.cls-3,.cls-8,.cls-9{stroke-miterlimit:1.41}.cls-4,.cls-9{fill:none}.cls-4{stroke-width:.5px}.cls-3,.cls-6,.cls-7,.cls-8{fill:#fff}.cls-3,.cls-7{stroke-width:.3px}.cls-4,.cls-6,.cls-7{stroke-miterlimit:10}.cls-6{stroke-width:.4px}.cls-8,.cls-9{stroke-width:.25px}.cls-10{font-size:7px;font-family:Fakt-Normal,Fakt}</style></defs><g id="Ranges"><path d="M69.42 25.36v-3.51h18.02l-5.55 1.33h-8.44v2.18h-4.03zm46.55.04v-3.51H97.54l5.55 1.33h8.44v2.18h4.44zm-23.83-3.55h1.08v3.5h-1.08zM69.42 25.4v-3.55H51.13l5.5 1.35h8.38v2.2h4.41zm-46.55.04v-3.55h17.88l-5.5 1.35h-8.38v2.2h-4zm22.87-3.59h1.08v3.55h-1.08z" stroke-width=".2" stroke-miterlimit="1.41" stroke="#20201e" fill="#20201e"/><path d="M19.84 136.06v19.85H31.7s-.05-3.34-.05-6.21 3.23-3.48 5.07-4.18c3.73-1.43 9.11-2.7 13.37-3.81 4-1 3.77-5.65 3.77-5.65zm99.21 0v19.85H107.2v-6.21c0-2.87-3.22-3.48-5.06-4.18-3.73-1.43-9.11-2.7-13.38-3.81-4-1-3.76-5.65-3.76-5.65z" stroke-width=".5" fill="none" stroke-miterlimit="1.41" stroke="#20201e"/><path class="cls-3" d="M41.59 58.67H97.9v3.48H41.59zm-6.25 1.03h4.13v1.23h-4.13z"/><ellipse class="cls-3" cx="34.73" cy="60.26" rx="1.85" ry="1.9"/><path class="cls-3" d="M40.4 60.73h1.2v4h-1.2z"/><rect class="cls-3" x="37.78" y="58.14" width="5.01" height="4.47" rx=".24"/><path class="cls-3" d="M99.97 59.7h4.13v1.23h-4.13z"/><ellipse class="cls-3" cx="104.55" cy="60.26" rx="1.85" ry="1.9"/><ellipse class="cls-3" cx="104.55" cy="60.26" rx="1.85" ry="1.9"/><path class="cls-3" d="M97.91 60.73h1.2v4h-1.2z"/><rect class="cls-3" x="96.49" y="58.14" width="5.01" height="4.47" rx=".24"/><rect class="cls-4" x="40.33" y="67.46" width="58.49" height="31.26" rx="1.41"/><path class="cls-5" d="M110.68 115.3v18.85H28.16V115.3h82.52m.5-.5H27.66v19.85h83.52V114.8zm-.5-59.02v55.69H28.16V55.78h82.52m.5-.5H27.66V112h83.52V55.28zm-.5-22.18v18.84H28.16V33.1h82.52m.5-.5H27.66v19.84h83.52V32.6z"/><path class="cls-4" d="M26.24 113.39h86.36m-86.36 22.67V31.18m86.36 22.68H26.24m86.36 82.2V31.18m-92.76 0h99.21m-99.21-5.67h99.21m-99.21-8.5h99.21v119.06H19.84z"/><ellipse class="cls-5" cx="79.06" cy="37.37" rx="1.2" ry="1.24"/><ellipse class="cls-5" cx="46.79" cy="37.28" rx="1.2" ry="1.24"/><circle class="cls-6" cx="53.22" cy="42.55" r="3.62"/><rect class="cls-7" x="54.48" y="41.86" width="4.31" height="1.39" rx=".56"/><circle class="cls-7" cx="53.22" cy="42.55" r="2.09"/><circle class="cls-6" cx="63.36" cy="42.55" r="3.62"/><rect class="cls-7" x="64.62" y="41.86" width="4.31" height="1.39" rx=".56"/><circle class="cls-7" cx="63.36" cy="42.55" r="2.09"/><circle class="cls-6" cx="73.49" cy="42.55" r="3.62"/><rect class="cls-7" x="74.75" y="41.86" width="4.31" height="1.39" rx=".56"/><circle class="cls-7" cx="73.49" cy="42.55" r="2.09"/><circle class="cls-6" cx="83.61" cy="42.55" r="3.62"/><rect class="cls-7" x="84.87" y="41.86" width="4.31" height="1.39" rx=".56"/><circle class="cls-7" cx="83.61" cy="42.55" r="2.09"/><circle class="cls-6" cx="93.74" cy="42.55" r="3.62"/><rect class="cls-7" x="95" y="41.86" width="4.31" height="1.39" rx=".56"/><circle class="cls-7" cx="93.74" cy="42.55" r="2.09"/><circle class="cls-6" cx="103.87" cy="42.55" r="3.62"/><rect class="cls-7" x="105.13" y="41.86" width="4.31" height="1.39" rx=".56"/><circle class="cls-7" cx="103.87" cy="42.55" r="2.09"/><path class="cls-4" d="M30.48 38.52h13.24v8.07H30.48z"/></g><g id="Dimensions"><path class="cls-8" d="M19.84 155.91h-8.5m8.5-19.85h-8.5m8.5-119.05h-8.5m8.5 8.5h-8.5"/><path class="cls-9" d="M14.17 25.78v110.01"/><path class="cls-5" d="M13.15 26.61l.18.17.84-.9.84.9.19-.17-1.03-1.1-1.02 1.1zm0 108.35l.18-.17.84.9.84-.9.19.17-1.03 1.1-1.02-1.1z"/><text class="cls-10" transform="rotate(-90 48.335 38.415)">780</text><text class="cls-10" transform="rotate(-90 11.2 1.28)">60</text><path class="cls-9" d="M14.17 8.5v8.24"/><path class="cls-5" d="M13.15 15.91l.18-.17.84.9.84-.9.19.17-1.03 1.1-1.02-1.1z"/><path class="cls-9" d="M14.17 25.51v-8.5m0 119.05v19.85"/><text class="cls-10" transform="rotate(-90 85.75 75.83)">140</text><path class="cls-9" d="M14.17 156.18v5.39"/><path class="cls-5" d="M13.15 157l.18.18.84-.91.84.91.19-.18-1.03-1.09-1.02 1.09z"/><path class="cls-8" d="M19.84 16.98v-8.5m99.21 8.5v-8.5"/><path class="cls-9" d="M118.78 11.31H20.11"/><path class="cls-5" d="M117.95 10.29l-.17.18.91.84-.91.84.17.18 1.11-1.02-1.11-1.02zm-97.01 0l.17.18-.9.84.9.84-.17.18-1.1-1.02 1.1-1.02z"/><text class="cls-10" transform="translate(63.49 7.06)">700</text></g></svg>