<svg xmlns="http://www.w3.org/2000/svg" viewBox="0 0 121.89 153.07"><defs><style>.cls-1,.cls-12,.cls-2,.cls-3,.cls-6{fill:none}.cls-1,.cls-2,.cls-3,.cls-6,.cls-7{stroke:#222221}.cls-1{stroke-miterlimit:10}.cls-1,.cls-6{stroke-width:.5px}.cls-2{stroke-miterlimit:1.4}.cls-12,.cls-2,.cls-3{stroke-width:.25px}.cls-12,.cls-3,.cls-6,.cls-7{stroke-miterlimit:1.41}.cls-7{fill:#fff}.cls-9{fill:#222221}.cls-7{stroke-width:.3px}.cls-14{font-size:7px;font-family:Fakt-Normal,Fakt}.cls-12{stroke:#20201f}.cls-13,.cls-14{fill:#20201f}</style></defs><g id="Ranges"><path class="cls-1" d="M62.87 39a3.06 3.06 0 113.06 3 3.06 3.06 0 01-3.06-3zm9.65 0a3.06 3.06 0 113.06 3 3.06 3.06 0 01-3.06-3zm-19.31 0a3.06 3.06 0 113.06 3 3.06 3.06 0 01-3.06-3zm28.97 0a3.06 3.06 0 113.06 3 3.06 3.06 0 01-3.06-3zm9.66 0a3.06 3.06 0 113.06 3 3.06 3.06 0 01-3.06-3zm9.66 0a3.06 3.06 0 113.06 3 3.06 3.06 0 01-3.06-3zm6.69 107.28h6.1v1.12h-6.1zm-.4-13.05h6.91v13.05h-6.91zm-83.43 13.05h6.1v1.12h-6.1zm-.41-13.05h6.91v13.05h-6.91z"/><rect class="cls-1" x="34.07" y="35.24" width="10.94" height="7.3" rx="1.82"/><path class="cls-1" d="M19.84 17.01h99.18v116.22H19.84zm0 8.5h99.19m-91.39 5.67h83.61"/><path class="cls-2" d="M35.55 40.84a.49.49 0 11.48.49.49.49 0 01-.48-.49zm1.79 0a.48.48 0 01.48-.49.49.49 0 010 1 .48.48 0 01-.48-.51zm1.78 0a.49.49 0 11.49.49.49.49 0 01-.49-.49z"/><path class="cls-3" d="M40.91 40.84a.49.49 0 11.49.49.49.49 0 01-.49-.49zm1.79 0a.49.49 0 11.49.49.49.49 0 01-.49-.49z"/><rect class="cls-2" x="36.47" y="36.89" width="5.96" height="1.84" rx=".61"/><path class="cls-1" d="M27.64 133.23V25.51"/><path fill="#fff" stroke-width=".5" stroke-miterlimit="10" stroke="#222221" d="M111.25 133.23V25.51"/><path d="M69.45 25.31v-3.03h15.58l-4.79 1.15h-7.3v1.88h-3.49zm40.26.03v-3.02H93.77l4.8 1.14h7.3v1.88h3.84zM89.1 22.28h.94v3.03h-.94zm-19.65 3.06v-3.06H53.64l4.76 1.16h7.24v1.9h3.81zm-40.25.04v-3.06h15.47l-4.76 1.16h-7.25v1.9H29.2zm19.78-3.1h.93v3.07h-.93z" stroke-width=".2" fill="#222221" stroke-miterlimit="1.41" stroke="#222221"/><path class="cls-6" d="M32.64 56.9h2.83v3.44h-2.83z"/><path class="cls-7" d="M103.32 56.9h2.83v3.44h-2.83z"/><path class="cls-6" d="M27.74 46.64h83.49m-83.59 65.33h83.59m-83.59 4.25h83.59m-83.59 2.14h83.59m-83.49-69.6h83.49m-83.49 1.41h83.49"/><path class="cls-7" d="M29.67 55.65h79.63v3.55H29.67z"/><rect class="cls-6" x="43.09" y="67.54" width="52.89" height="28.91" rx="1.27"/></g><g id="Dimensions"><path d="M19.84 16.98v-8.5m99.19 8.5v-8.5" fill="#fff" stroke-miterlimit="1.41" stroke-width=".25" stroke="#222221"/><path class="cls-3" d="M118.76 11.31H20.11"/><path class="cls-9" d="M117.93 10.29l-.17.18.9.84-.9.84.17.18 1.1-1.02-1.1-1.02zm-96.99 0l.17.18-.9.84.9.84-.17.18-1.1-1.02 1.1-1.02z"/><text transform="translate(63.47 7.06)" font-size="7" font-family="Fakt-Normal,Fakt" fill="#222221">700</text><path d="M24.29 147.4H11.34m8.5-14.17h-8.5m8.5-116.22h-8.5m8.5 8.5h-8.5" stroke="#20201f" fill="#fff" stroke-miterlimit="1.41" stroke-width=".25"/><path class="cls-12" d="M14.17 25.78v107.18"/><path class="cls-13" d="M13.15 26.61l.18.17.84-.9.84.9.19-.17-1.03-1.1-1.02 1.1zm0 105.52l.18-.17.84.9.84-.9.19.17-1.03 1.1-1.02-1.1z"/><text class="cls-14" transform="rotate(-90 47.625 37.705)">760</text><text class="cls-14" transform="rotate(-90 11.2 1.28)">60</text><path class="cls-12" d="M14.17 8.5v8.24"/><path class="cls-13" d="M13.15 15.91l.18-.17.84.9.84-.9.19.17-1.03 1.1-1.02-1.1z"/><path class="cls-12" d="M14.17 25.51v-8.5m0 116.22v14.17"/><text class="cls-14" transform="rotate(-90 81.495 71.575)">100รท160</text><path class="cls-3" d="M14.17 147.67v5.4"/><path class="cls-9" d="M13.15 148.5l.18.17.84-.9.84.9.19-.17-1.03-1.1-1.02 1.1z"/></g></svg>