<?xml version="1.0" standalone="no"?>
<!DOCTYPE svg PUBLIC "-//W3C//DTD SVG 20010904//EN"
 "http://www.w3.org/TR/2001/REC-SVG-20010904/DTD/svg10.dtd">
<svg version="1.0" xmlns="http://www.w3.org/2000/svg"
 width="512.000000pt" height="512.000000pt" viewBox="0 0 512.000000 512.000000"
 preserveAspectRatio="xMidYMid meet">

<g transform="translate(0.000000,512.000000) scale(0.100000,-0.100000)"
fill="#000000" stroke="none">
<path d="M590 5036 c-164 -44 -281 -175 -311 -344 -17 -98 14 -224 77 -309 15
-21 14 -22 -48 -54 -84 -42 -192 -152 -235 -240 -54 -109 -65 -177 -61 -386
l3 -185 33 -29 32 -29 615 0 615 0 32 29 33 29 0 219 c-1 213 -1 220 -27 286
-54 134 -157 254 -271 310 l-56 29 25 38 c158 238 35 563 -241 634 -70 19
-152 19 -215 2z m225 -164 c99 -50 165 -169 150 -270 -21 -139 -131 -234 -272
-234 -150 0 -267 114 -266 262 0 77 17 123 69 180 37 40 74 65 124 81 43 14
152 4 195 -19z m-230 -644 c47 -14 185 -12 234 5 38 13 50 14 97 1 124 -32
214 -106 271 -222 l38 -76 4 -163 3 -163 -536 0 -536 0 0 133 c0 200 28 287
124 383 29 28 71 61 94 73 53 27 142 51 162 44 8 -3 29 -9 45 -15z"/>
<path d="M2180 5036 c-118 -34 -217 -116 -271 -224 -32 -64 -34 -72 -34 -177
0 -100 3 -116 29 -172 16 -35 35 -68 42 -74 23 -19 17 -26 -48 -61 -80 -42
-184 -145 -225 -223 -55 -106 -65 -153 -70 -351 -6 -199 1 -240 44 -274 25
-20 39 -20 635 -20 661 0 651 -1 676 55 19 40 16 385 -3 459 -41 155 -179 320
-316 377 l-27 11 30 45 c144 212 43 521 -199 613 -72 27 -199 35 -263 16z
m240 -172 c95 -51 148 -152 137 -258 -23 -225 -297 -319 -462 -159 -53 51 -75
105 -75 183 0 114 69 216 174 254 64 24 161 15 226 -20z m-259 -630 c55 -20
189 -21 249 -2 118 37 299 -70 373 -221 32 -65 32 -68 35 -233 l4 -168 -536 0
-536 0 0 118 c0 65 5 145 11 177 29 156 150 289 301 329 29 8 54 15 54 15 1 1
21 -6 45 -15z"/>
<path d="M3770 5034 c-226 -60 -359 -299 -292 -521 12 -38 35 -87 51 -110 l29
-40 -42 -20 c-144 -71 -260 -214 -301 -370 -19 -73 -21 -418 -3 -458 25 -56
15 -55 676 -55 596 0 610 0 635 20 43 34 50 75 44 274 -3 131 -9 196 -22 236
-42 137 -153 275 -273 338 -65 35 -71 42 -48 61 7 6 26 39 42 74 26 56 29 72
29 172 0 100 -2 115 -28 167 -93 190 -298 285 -497 232z m203 -150 c64 -22
130 -82 157 -145 27 -63 25 -162 -5 -223 -76 -157 -289 -199 -421 -83 -56 50
-85 105 -91 178 -18 192 173 337 360 273z m-88 -666 c46 0 98 7 121 15 110 40
297 -72 365 -217 38 -81 49 -146 49 -287 l0 -119 -536 0 -536 0 4 168 c3 157
5 170 30 225 72 153 259 267 378 229 25 -7 81 -14 125 -14z"/>
<path d="M3725 3339 c-326 -44 -625 -218 -820 -478 -65 -85 -151 -241 -175
-313 -6 -21 -13 -38 -15 -38 -2 0 -26 11 -54 25 l-51 26 30 41 c17 23 39 70
50 106 65 211 -48 438 -256 514 -83 30 -217 30 -294 0 -116 -46 -213 -147
-251 -261 -17 -51 -21 -80 -17 -151 4 -78 9 -97 44 -167 21 -43 40 -81 42 -84
2 -4 -8 -9 -21 -12 -49 -13 -165 -106 -216 -174 -98 -131 -124 -239 -119 -487
3 -138 5 -158 24 -183 38 -51 49 -52 604 -52 l516 -1 43 -87 43 -86 -475 -476
c-326 -326 -482 -490 -498 -521 -32 -63 -33 -176 -1 -241 68 -140 222 -202
369 -148 54 20 88 52 538 499 l480 478 85 -43 c99 -51 201 -86 320 -111 101
-22 340 -24 440 -5 527 100 927 510 1006 1031 58 386 -69 766 -350 1046 -178
179 -380 288 -626 339 -93 20 -302 27 -395 14z m318 -154 c291 -44 563 -214
727 -456 62 -90 127 -235 157 -346 23 -87 26 -117 26 -263 0 -146 -3 -176 -26
-263 -187 -699 -965 -1025 -1591 -666 -47 27 -98 49 -113 49 -22 0 -115 -88
-528 -499 -275 -274 -510 -504 -522 -510 -66 -33 -159 10 -184 86 -27 82 -40
66 507 613 563 565 531 523 472 616 -82 129 -140 298 -159 468 -43 384 145
781 476 1003 141 95 282 146 485 177 60 9 182 5 273 -9z m-1642 -112 c59 -26
107 -76 137 -142 44 -97 19 -212 -65 -293 -128 -124 -342 -88 -426 72 -26 49
-28 63 -25 131 2 63 8 84 33 125 32 51 103 107 159 124 45 14 136 5 187 -17z
m-199 -650 c67 -14 85 -14 145 -3 120 24 171 20 249 -20 l69 -35 -2 -45 c-9
-179 -4 -352 11 -425 9 -44 16 -83 16 -88 0 -4 -210 -6 -467 -5 l-468 3 -3
118 c-4 189 24 290 109 382 54 59 88 83 158 111 67 28 83 29 183 7z"/>
<path d="M3750 3060 c-150 -21 -320 -92 -438 -184 -245 -189 -377 -456 -375
-761 1 -252 87 -464 262 -648 343 -359 889 -393 1279 -81 152 121 276 317 324
509 31 127 31 323 0 449 -24 97 -81 227 -133 303 -130 192 -340 340 -559 393
-98 23 -266 33 -360 20z m335 -169 c147 -41 257 -106 364 -214 125 -127 200
-283 223 -463 26 -203 -39 -433 -164 -587 l-24 -29 -32 50 c-42 65 -145 161
-205 190 -26 13 -47 26 -47 29 0 3 8 17 19 31 57 80 79 197 57 301 -27 127
-104 225 -223 282 -254 121 -555 -54 -571 -332 -5 -95 10 -161 53 -233 l32
-54 -51 -23 c-60 -28 -195 -158 -215 -206 -7 -18 -17 -33 -21 -33 -4 0 -25 26
-47 58 -101 144 -145 282 -146 457 0 138 16 218 69 333 108 236 327 409 581
457 99 19 253 12 348 -14z m-100 -545 c66 -30 120 -91 139 -157 20 -65 20 -73
0 -138 -33 -111 -144 -188 -259 -179 -139 12 -235 113 -235 248 0 183 190 304
355 226z m-211 -611 c64 -19 149 -19 216 1 59 18 109 10 183 -28 93 -47 204
-188 180 -227 -17 -27 -186 -110 -269 -133 -104 -28 -287 -30 -389 -4 -72 18
-231 91 -275 125 l-25 20 22 45 c43 88 126 161 224 196 66 23 71 24 133 5z"/>
<path d="M591 3234 c-79 -21 -145 -60 -202 -121 -133 -140 -153 -343 -49 -506
l29 -46 -62 -33 c-92 -49 -185 -146 -234 -245 -54 -107 -65 -180 -61 -391 3
-165 4 -171 27 -196 14 -14 41 -30 60 -36 49 -14 1144 -13 1193 0 20 6 49 25
63 42 l27 32 -4 205 c-3 182 -6 213 -26 269 -49 137 -149 255 -270 320 l-62
33 26 38 c60 91 84 208 64 306 -49 238 -290 391 -519 329z m189 -150 c101 -30
190 -149 190 -254 0 -91 -70 -199 -157 -241 -70 -33 -170 -32 -239 3 -96 50
-146 131 -147 238 -1 82 27 144 90 200 75 66 163 84 263 54z m-149 -664 c54
-10 79 -10 130 1 100 20 166 17 229 -14 109 -52 184 -140 221 -258 15 -48 19
-92 19 -205 l0 -144 -536 0 -536 0 4 163 c4 135 8 171 25 215 44 111 142 206
253 246 48 17 84 16 191 -4z"/>
</g>
</svg>
