<?xml version="1.0" standalone="no"?>
<!DOCTYPE svg PUBLIC "-//W3C//DTD SVG 20010904//EN"
 "http://www.w3.org/TR/2001/REC-SVG-20010904/DTD/svg10.dtd">
<svg version="1.0" xmlns="http://www.w3.org/2000/svg"
 width="512.000000pt" height="512.000000pt" viewBox="0 0 512.000000 512.000000"
 preserveAspectRatio="xMidYMid meet">

<g transform="translate(0.000000,512.000000) scale(0.100000,-0.100000)"
fill="#000000" stroke="none">
<path d="M383 5106 c-219 -53 -383 -261 -383 -486 0 -230 172 -442 398 -489
244 -51 493 91 573 328 l21 61 605 2 605 3 24 28 c33 38 33 96 0 134 l-24 28
-605 3 -605 2 -21 61 c-81 241 -341 385 -588 325z m251 -220 c105 -51 161
-144 161 -266 0 -85 -21 -142 -74 -203 -82 -92 -237 -121 -353 -64 -160 79
-215 278 -118 430 80 126 246 170 384 103z"/>
<path d="M2551 4704 c-13 -9 -29 -32 -37 -50 -29 -68 30 -142 104 -131 112 18
110 179 -3 193 -28 4 -47 0 -64 -12z"/>
<path d="M3001 4704 c-13 -9 -29 -32 -37 -50 -12 -29 -12 -39 -1 -66 28 -67
-16 -63 716 -68 l666 -5 80 -28 c225 -79 383 -237 462 -462 l28 -80 0 -355 0
-355 -27 -78 c-75 -220 -245 -391 -465 -465 l-78 -27 -442 -3 -443 -3 0 335
c0 238 -3 343 -12 361 -26 57 3 55 -888 55 -891 0 -862 2 -888 -55 -9 -18 -12
-122 -12 -360 l0 -334 -452 -3 c-432 -4 -457 -5 -533 -26 -323 -90 -561 -334
-651 -667 -17 -63 -19 -108 -19 -440 0 -353 1 -374 23 -450 90 -323 327 -553
667 -652 54 -15 130 -18 729 -21 743 -3 702 -7 732 64 12 29 12 39 1 66 -28
67 16 62 -716 68 l-666 5 -80 27 c-114 39 -199 92 -285 178 -86 87 -139 171
-177 285 -27 79 -27 84 -31 400 -4 375 2 417 74 565 40 80 62 110 138 186 76
76 106 98 186 138 148 73 173 76 648 76 l412 0 0 -335 c0 -364 2 -379 55 -403
37 -17 1653 -17 1690 0 53 24 55 39 55 402 l0 335 453 3 452 4 90 28 c314 96
534 316 632 633 l28 88 0 370 c0 332 -2 377 -19 440 -46 171 -121 300 -246
425 -99 98 -181 154 -300 203 -153 63 -123 61 -855 64 -612 3 -672 2 -694 -13z
m-741 -1704 c0 -226 5 -252 51 -276 43 -21 62 -18 159 31 l90 45 90 -45 c95
-48 114 -52 155 -33 50 23 55 49 55 278 l0 210 200 0 200 0 0 -650 0 -650
-700 0 -700 0 0 650 0 650 200 0 200 0 0 -210z m400 90 l0 -120 -40 20 c-21
11 -49 20 -60 20 -11 0 -39 -9 -60 -20 l-40 -20 0 120 0 120 100 0 100 0 0
-120z"/>
<path d="M4503 986 c-219 -53 -383 -261 -383 -486 0 -270 230 -500 500 -500
270 0 500 230 500 500 0 274 -233 503 -508 499 -31 0 -80 -6 -109 -13z m251
-220 c105 -51 161 -144 161 -266 0 -85 -21 -142 -74 -203 -82 -92 -237 -121
-353 -64 -160 79 -215 278 -118 430 80 126 246 170 384 103z"/>
<path d="M3360 873 c-27 -24 -33 -37 -33 -71 0 -51 7 -59 111 -138 l84 -63
-302 -3 -302 -3 -24 -28 c-33 -38 -33 -96 0 -134 l24 -28 302 -3 302 -3 -84
-63 c-104 -79 -111 -87 -111 -138 0 -34 6 -47 33 -71 57 -51 77 -42 327 146
121 91 223 173 227 182 8 21 8 69 0 90 -4 9 -106 91 -227 182 -250 188 -270
197 -327 146z"/>
<path d="M2474 590 c-55 -22 -72 -108 -31 -155 48 -56 133 -40 163 31 12 29
12 39 0 68 -24 57 -75 79 -132 56z"/>
</g>
</svg>
