<svg xmlns="http://www.w3.org/2000/svg" xmlns:xlink="http://www.w3.org/1999/xlink" id="Layer_1" x="0px" y="0px" width="100%" viewBox="0 0 512 512" xml:space="preserve"><path fill="#000000" opacity="1.000000" stroke="none" d="M135.468658,513.000000  C131.725571,509.639374 126.993698,508.762207 123.340836,505.746552  C113.402306,497.541565 108.679192,487.203735 108.677147,474.562866  C108.653633,329.484833 108.661415,184.406815 108.667862,39.328793  C108.668640,21.738762 117.709305,8.677749 134.237717,2.274934  C134.691422,2.099177 135.070999,1.732035 135.742569,1.227068  C215.687561,1.000000 295.375122,1.000000 375.531342,1.000000  C396.334808,6.678242 405.507965,22.929113 405.475983,42.348740  C405.241852,184.438812 405.188904,326.529816 405.525726,468.619476  C405.575317,489.538239 398.338928,504.556366 378.252563,512.772827  C297.312439,513.000000 216.624878,513.000000 135.468658,513.000000 M346.500092,423.369232  C325.335144,423.369446 304.170166,423.370087 283.005219,423.369751  C248.174347,423.369171 213.343460,423.374207 178.512604,423.353546  C176.062256,423.352081 173.539032,423.750183 171.511597,421.607513  C169.146271,419.107666 167.889954,416.330536 169.144958,413.006653  C170.684250,408.929840 173.739014,407.564758 178.162323,407.572021  C245.824036,407.682709 313.485992,407.649231 381.147888,407.649109  C388.645081,407.649078 388.661987,407.648224 388.662231,400.397858  C388.665955,294.738647 388.666016,189.079422 388.662292,83.420204  C388.662048,76.378166 388.644745,76.361473 381.447418,76.361374  C298.619934,76.360252 215.792435,76.363945 132.964951,76.368523  C125.358818,76.368942 125.352043,76.375824 125.351906,84.043961  C125.349960,189.536514 125.350021,295.029083 125.349754,400.521637  C125.349747,401.354919 125.429985,402.196777 125.339333,403.019958  C124.961441,406.451752 126.370476,407.826294 129.892609,407.701019  C135.551620,407.499786 141.223694,407.605316 146.889282,407.668274  C152.035141,407.725433 155.309494,410.794739 155.308807,415.413727  C155.308105,420.091858 152.036987,423.300568 147.053650,423.353790  C141.554749,423.412445 136.047134,423.527191 130.557617,423.288635  C126.771912,423.124146 125.213737,424.204987 125.268364,428.323212  C125.476105,443.986023 125.212311,459.655029 125.412453,475.318024  C125.506966,482.714813 128.980453,488.578125 134.968948,492.999176  C140.527267,497.102631 147.021057,497.578674 153.461945,497.587799  C220.623749,497.682953 287.785736,497.644562 354.947662,497.655609  C359.932373,497.656433 364.871552,497.509857 369.834869,496.716980  C380.152039,495.068909 388.467804,486.307068 388.593597,475.878540  C388.786530,459.881958 388.578888,443.880859 388.710205,427.883026  C388.739197,424.351379 387.411987,423.267395 383.996857,423.308289  C371.832764,423.453979 359.665924,423.367950 346.500092,423.369232 M281.499939,60.659847  C285.832336,60.660416 290.164764,60.661629 294.497162,60.661449  C323.991180,60.660236 353.485565,60.587158 382.978821,60.736153  C387.295166,60.757957 388.998383,59.510204 388.736755,55.054790  C388.414978,49.574612 388.820190,44.055126 388.609711,38.564190  C388.333374,31.356392 385.127228,25.604704 379.388733,21.185493  C373.735077,16.831654 367.032867,16.453285 360.439514,16.442709  C293.786530,16.335794 227.133331,16.374722 160.480194,16.394466  C155.335556,16.395990 150.229813,16.469320 145.073227,17.231668  C133.273239,18.976177 125.404762,27.600645 125.353889,39.655430  C125.333496,44.487694 125.343307,49.320129 125.351746,54.152466  C125.363068,60.636929 125.368217,60.653393 132.030045,60.654160  C181.520004,60.659847 231.009949,60.658474 281.499939,60.659847 z"></path><path fill="#000000" opacity="1.000000" stroke="none" d="M235.947906,470.637207  C230.980759,459.829529 234.371796,446.593140 244.987228,440.402649  C253.316315,435.545441 267.028900,436.848053 273.605896,443.754303  C281.374695,451.912018 282.301453,464.684875 276.524445,473.625977  C267.831451,487.080048 244.243561,487.727386 235.947906,470.637207 M253.803375,465.780579  C256.836792,467.257904 259.591064,467.056030 261.730957,464.230072  C263.142273,462.366272 264.386688,460.511353 262.744171,457.945892  C260.551147,454.520569 256.497345,453.253021 253.436310,455.363861  C249.828079,457.852051 249.746155,460.912872 253.803375,465.780579 z"></path><path fill="#000000" opacity="1.000000" stroke="none" d="M249.292328,35.700283  C250.973648,31.845737 253.604034,30.545225 257.384155,30.604103  C267.194153,30.756907 277.008270,30.623714 286.820312,30.679344  C291.937958,30.708359 295.202026,33.751968 295.294434,38.380024  C295.386963,43.015675 291.805054,46.337608 286.546783,46.359619  C276.900909,46.399990 267.254547,46.412415 257.608765,46.364410  C251.146957,46.332249 248.346176,42.881451 249.292328,35.700283 z"></path><path fill="#000000" opacity="1.000000" stroke="none" d="M231.749603,45.152981  C228.221115,46.862526 224.977341,47.140141 222.052536,44.968346  C218.244232,42.140514 217.638474,37.193768 220.399887,33.463921  C222.627441,30.455198 228.449890,29.533648 231.648712,31.683531  C235.487610,34.263596 236.390671,39.017502 233.759186,43.066059  C233.313629,43.751530 232.644333,44.291576 231.749603,45.152981 z"></path></svg>