<svg xmlns:xlink="http://www.w3.org/1999/xlink" xmlns="http://www.w3.org/2000/svg" viewBox="0 0 119 108" width="119" height="108"><path d="M116.96 0H1.742A1.74 1.74 0 0 0 0 1.742V105.8a1.74 1.74 0 0 0 1.742 1.743H116.96a1.74 1.74 0 0 0 1.742-1.742V1.742C118.7.78 117.92 0 116.96 0zm-1.742 14.867H23.2c-.962 0-1.742.78-1.742 1.742s.78 1.742 1.742 1.742h92.027v85.716H3.484V18.353h11.654c.962 0 1.742-.78 1.742-1.742s-.78-1.742-1.742-1.742H3.484V3.484h111.733v11.383z"></path><path d="M64.925 81.767h-11.15a7.32 7.32 0 0 0-7.317 7.318 7.32 7.32 0 0 0 7.317 7.317h11.15a7.32 7.32 0 0 0 7.317-7.318 7.32 7.32 0 0 0-7.317-7.317zm0 11.15h-11.15c-1.37 0-2.635-.73-3.32-1.916s-.685-2.647 0-3.833 1.95-1.917 3.32-1.916h11.15c2.117 0 3.833 1.716 3.833 3.833s-1.716 3.833-3.833 3.833z" fill="#1E88E5"></path><use xlink:href="#B"></use><use xlink:href="#B" x="7.434"></use><use xlink:href="#B" x="-7.666"></use><path d="M108.9 86.313L96.99 74.408l6.65-6.656a1.76 1.76 0 0 0-.773-2.913l-12.044-3.285V38.908a1.74 1.74 0 0 0-1.742-1.742H29.617a1.74 1.74 0 0 0-1.742 1.742v37.167a1.74 1.74 0 0 0 1.742 1.742h47.31l2.778 10.185a1.76 1.76 0 0 0 2.913.774l6.652-6.652 11.908 11.908a1.76 1.76 0 0 0 2.464 0l5.256-5.256a1.74 1.74 0 0 0 0-2.463zm-77.54-11.98V40.652h55.98v19.956l-13.38-3.65a1.76 1.76 0 0 0-2.139 2.139l4.156 15.24H31.36zm71.052 16L90.503 78.426a1.76 1.76 0 0 0-2.464 0l-5.762 5.76-6.292-23.07 23.07 6.292-5.76 5.762a1.74 1.74 0 0 0 0 2.464l11.908 11.908z"></path><path d="M66.784 29.736H29.617c-.623 0-1.198.332-1.5.87s-.3 1.203 0 1.743a1.74 1.74 0 0 0 1.51.87h37.167c.623 0 1.198-.332 1.5-.87s.3-1.203 0-1.743a1.74 1.74 0 0 0-1.51-.87zm24.16 0H72.36c-.623 0-1.198.332-1.5.87s-.3 1.203 0 1.743a1.74 1.74 0 0 0 1.51.87h18.583c.623 0 1.198-.332 1.5-.87s.3-1.203 0-1.743a1.74 1.74 0 0 0-1.51-.87z" fill="#FF7815"></path><defs><path id="B" d="M102.093 7.433h-.232c-.962 0-1.743.78-1.743 1.742s.78 1.742 1.743 1.742h.232c.962 0 1.743-.78 1.743-1.742s-.78-1.742-1.743-1.742z"></path><path id="B" d="M10.597 11.22H9.35c-.323 0-.584.262-.584.584s.262.584.584.584h1.247c.323 0 .584-.262.584-.584s-.262-.584-.584-.584z"></path><path id="B" d="M10.597 11.22H9.35c-.323 0-.584.262-.584.584s.262.584.584.584h1.247c.323 0 .584-.262.584-.584s-.262-.584-.584-.584z"></path><path id="B" d="M10.597 11.22H9.35c-.323 0-.584.262-.584.584s.262.584.584.584h1.247c.323 0 .584-.262.584-.584s-.262-.584-.584-.584z"></path></defs></svg>