<svg xmlns:xlink="http://www.w3.org/1999/xlink" xmlns="http://www.w3.org/2000/svg" viewBox="0 0 124 132" width="124" height="132"><path d="M119.75 106.7a20.03 20.03 0 0 0-11.209-8.173 2.91 2.91 0 0 0-.134-.033l-16.445-3.44-4.427-6.712q-.034-.052-.072-.1a4.12 4.12 0 0 0-2.802-1.62c-1.116-.136-2.238.2-3.107.902l-.04.033-19.667 16.93-19.704-16.965a4.12 4.12 0 0 0-5.909.718q-.037.05-.072.1l-4.427 6.712-16.453 3.443q-.068.014-.134.033a20.03 20.03 0 0 0-11.209 8.173 22.68 22.68 0 0 0-3.942 12.654v5.113c0 4.123 3.7 7.477 8.246 7.477h107.2c4.547 0 8.246-3.354 8.246-7.477v-5.113a22.68 22.68 0 0 0-3.94-12.655zm-35.6-15.982l4.04 6.124-14.233 19.57-9.1-9.1zm-24.38 30.92h4.123c.124 0 .247 0 .37-.012l1.24 6.2h-7.34l1.24-6.2c.125.007.248.012.37.012zm6.185-6.185a2.06 2.06 0 0 1-2.06 2.06H59.78a2.06 2.06 0 0 1-2.06-2.06v-1.2l4.123-4.123 4.123 4.123v1.208zM39.53 90.718l19.287 16.6-9.1 9.1-14.234-19.565zm-35.408 33.75v-5.113c0-6.67 4.148-14.582 12.076-16.84l15.9-3.326 15.708 21.6a2.06 2.06 0 0 0 1.506.843q.08.006.16.006a2.06 2.06 0 0 0 1.457-.6l3.16-3.16a6.21 6.21 0 0 0 1.452 2.076l-1.574 7.872H8.246c-2.273-.004-4.123-1.5-4.123-3.358zm115.445 0c0 1.85-1.85 3.354-4.123 3.354H69.72l-1.574-7.872c.622-.585 1.116-1.292 1.452-2.076l3.16 3.16a2.06 2.06 0 0 0 1.457.6q.08 0 .16-.006a2.06 2.06 0 0 0 1.506-.843l15.708-21.6 15.9 3.326c7.93 2.258 12.076 10.17 12.076 16.84zM26.8 65.627V90.72a2.062 2.062 0 1 0 4.123 0V65.982h1.9c1.506 4.803 3.9 9.285 7.033 13.218 6 7.425 13.816 11.514 22.02 11.514A26.89 26.89 0 0 0 79.7 83.565c.025-.022.048-.047.072-.07a14.9 14.9 0 0 0 .993.036 16.57 16.57 0 0 0 7.24-1.723c7.782-3.767 13-12.612 13-22.012V47.43c-.004-3.414-2.77-6.18-6.184-6.185h-.844c4.568-17.42 2.5-31.722.67-35.88 0-.007-.007-.014-.01-.02-.018-.04-.038-.08-.06-.118-.012-.023-.024-.046-.037-.068a3.45 3.45 0 0 0-.062-.1l-.05-.077c-.017-.025-.038-.05-.057-.073a2.05 2.05 0 0 0-.072-.087c-.025-.028-.033-.034-.05-.05a2.68 2.68 0 0 0-.093-.093c-.014-.013-.03-.025-.044-.038a1.82 1.82 0 0 0-.108-.089l-.05-.035c-.037-.026-.074-.052-.112-.076-.02-.013-.043-.024-.064-.036a2.49 2.49 0 0 0-.106-.058c-.036-.018-.055-.025-.083-.037s-.064-.03-.1-.04l-.1-.032c-.037-.01-.062-.02-.093-.03s-.064-.015-.1-.022-.067-.016-.1-.02-.058-.008-.087-.01-.078-.01-.117-.013h-.27c-.047 0-.095.007-.142.013h-.02c-5.17.74-11.428-.518-18.055-1.85C63.3.073 51.83-2.227 42.855 4.174a2.07 2.07 0 0 0-.418-.043C33.23 4.13 26.8 11.76 26.8 22.685c0 5.058 1.275 12.74 2.405 18.558h-.344c-3.414.004-6.18 2.77-6.184 6.185V59.8c.004 2.62 1.655 4.95 4.123 5.827zM86.208 78.1a11.55 11.55 0 0 1-12.59-1.222c1.3-2.72.433-5.975-2.03-7.707a6.19 6.19 0 0 0-7.94.69c-2.126 2.13-2.407 5.485-.667 7.942s4.997 3.303 7.714 2.005a2.04 2.04 0 0 0 .178.16 17.07 17.07 0 0 0 3.831 2.3 22.05 22.05 0 0 1-12.839 4.324c-6.934 0-13.616-3.545-18.813-9.982a37.31 37.31 0 0 1-8.072-23.068V51.2c0-7.343 4.164-17.26 5.58-20.418A92.79 92.79 0 0 1 73.228 32.5a60.52 60.52 0 0 1 11.749 4.046l3.718 8.846v8.168a37.67 37.67 0 0 1-5.584 19.583 2.06 2.06 0 0 0 1.665 3.232 2.06 2.06 0 0 0 1.835-1.06c1.802-2.922 3.233-6.057 4.26-9.333h3.956c.4 0 .78-.038 1.165-.112-1.587 5.36-5.175 9.998-9.784 12.23zm-16.116-3.87a2.061 2.061 0 0 1-4.122-.001 2.06 2.06 0 0 1 2.061-2.061c1.137.002 2.06.923 2.06 2.06zm26.8-26.8V59.8a2.06 2.06 0 0 1-2.06 2.06h-2.876c.57-2.73.862-5.5.867-8.3v-8.194h2.013c1.136.004 2.056.926 2.057 2.062zM42.436 8.255a29.71 29.71 0 0 0 2.389-.42c7.57-5.75 18.355-3.583 28.785-1.5 5.472 1.1 10.706 2.15 15.54 2.15q1.117 0 2.2-.082c1.268 4.575 2.47 16.1-.986 30.324l-1.884-4.482a2.06 2.06 0 0 0-.9-1.006c-.76-.42-18.97-10.246-48.675-6.425h-.014c-.04.005-.078.013-.118.02s-.06.01-.087.017-.05.015-.076.022c-.23.064-.45.168-.644.307h0c-.016.012-.03.026-.047.038a2.05 2.05 0 0 0-.367.362l-.012.015-.06.086c-.02.03-.04.054-.057.083s-.024.043-.036.064c-.022.04-.045.078-.064.118l-.006.01c-1.694 3.614-3.134 7.342-4.3 11.157-1.027-5.447-2.08-12.1-2.08-16.444-.004-9.965 5.78-14.427 11.5-14.427zM26.8 47.43c.001-1.138.923-2.06 2.06-2.062h1.18l.816 3.716v4.46a40.72 40.72 0 0 0 .872 8.316H28.86a2.06 2.06 0 0 1-2.06-2.06z"></path></svg>