<svg xmlns:xlink="http://www.w3.org/1999/xlink" xmlns="http://www.w3.org/2000/svg" viewBox="0 0 120 120" width="120" height="120"><path d="M117.965 95.823c.498 0 .975-.197 1.328-.55s.55-.83.55-1.328V27.9a1.88 1.88 0 0 0-.549-1.327L99.277 6.554A1.88 1.88 0 0 0 97.95 6H55.793v-.37C55.8 2.52 53.27.003 50.163 0H5.63A5.64 5.64 0 0 0 0 5.63v60.547a5.64 5.64 0 0 0 5.63 5.624h14.386v46.16c0 .498.198.975.55 1.327a1.88 1.88 0 0 0 1.327.55h96.074c.498 0 .975-.198 1.327-.55a1.88 1.88 0 0 0 .55-1.327v-14.005c.016-.68-.338-1.317-.926-1.662s-1.315-.345-1.902 0a1.88 1.88 0 0 0-.926 1.662V116.1H23.77V71.8h26.4a5.64 5.64 0 0 0 5.63-5.63V33.9c.016-.68-.338-1.317-.926-1.662s-1.315-.345-1.902 0a1.88 1.88 0 0 0-.926 1.662v32.276a1.88 1.88 0 0 1-1.877 1.877H5.63a1.88 1.88 0 0 1-1.877-1.877V5.63A1.88 1.88 0 0 1 5.63 3.754h44.534a1.88 1.88 0 0 1 1.877 1.876v18.264c-.016.68.338 1.317.926 1.662s1.315.345 1.902 0a1.88 1.88 0 0 0 .926-1.662V9.758H96.08l-.006.125V27.9a1.87 1.87 0 0 0 .55 1.327 1.88 1.88 0 0 0 1.327.55l18.14-.006v64.176c0 1.036.84 1.876 1.876 1.876zM99.827 26.02V12.4l13.608 13.6H99.827zM83.94 58.044a27.66 27.66 0 0 0-20.13 8.583 1.88 1.88 0 0 0 .054 2.654 1.88 1.88 0 0 0 2.654-.054c8.75-9.106 23.05-9.903 32.758-1.825s11.524 22.284 4.16 32.544-21.404 13.086-32.164 6.473a24.08 24.08 0 0 1-8.754-31.62 1.88 1.88 0 0 0-.795-2.535 1.88 1.88 0 0 0-2.535.796A27.9 27.9 0 1 0 83.94 58.04z"></path><path d="M88.223 84.314l-2.908-.086V73.806h6.63c1.02-.024 1.834-.857 1.834-1.876s-.814-1.853-1.834-1.876h-6.63v-2.127c.016-.68-.338-1.317-.926-1.662s-1.315-.345-1.902 0-.94.98-.926 1.662v2.127h-1.877c-3.107.004-5.625 2.522-5.63 5.63v6.5c.004 3.096 2.504 5.61 5.6 5.63l1.907.056v10.2h-5.63c-1.02.024-1.834.857-1.834 1.877s.814 1.853 1.834 1.876h5.63v2.127c0 1.036.84 1.877 1.876 1.877s1.876-.84 1.876-1.877v-2.127h2.877c3.107-.004 5.625-2.522 5.63-5.63v-6.255c-.008-3.094-2.507-5.603-5.6-5.622zm-6.66-.2l-1.82-.054h-.055a1.88 1.88 0 0 1-1.876-1.876v-6.5a1.88 1.88 0 0 1 1.876-1.876h1.88V84.12zm8.507 12.08a1.88 1.88 0 0 1-1.876 1.876h-2.878V87.984l2.877.083a1.88 1.88 0 0 1 1.876 1.876z" fill="#FF7815"></path><path d="M47.9 6.004H7.88c-.498 0-.975.197-1.328.55s-.55.83-.55 1.328V17.89c0 .498.197.975.55 1.328s.83.55 1.328.55H47.9c.498 0 .975-.197 1.328-.55s.55-.83.55-1.328V7.88c0-.498-.197-.975-.55-1.328s-.83-.55-1.328-.55zm-1.876 10.008H9.757V9.757h36.278v6.255zm-30.147 6.005H7.88a1.87 1.87 0 0 0-1.327.55 1.88 1.88 0 0 0-.55 1.327V31.9c0 .498.198.975.55 1.327a1.88 1.88 0 0 0 1.327.55h8.006a1.87 1.87 0 0 0 1.327-.55 1.88 1.88 0 0 0 .55-1.327v-8.006c0-.498-.198-.975-.55-1.327a1.88 1.88 0 0 0-1.327-.55zM14 30.023H9.757V25.77H14zm17.9-8.006h-8.006a1.87 1.87 0 0 0-1.327.55 1.88 1.88 0 0 0-.55 1.327V31.9c0 .498.198.975.55 1.327a1.88 1.88 0 0 0 1.327.55H31.9a1.87 1.87 0 0 0 1.327-.55 1.88 1.88 0 0 0 .55-1.327v-8.006c0-.498-.198-.975-.55-1.327a1.88 1.88 0 0 0-1.327-.55zm-1.877 8.006H25.77V25.77h4.253zm17.89-8.006h-8.006a1.87 1.87 0 0 0-1.327.55 1.88 1.88 0 0 0-.55 1.327V31.9c0 .498.198.975.55 1.327a1.88 1.88 0 0 0 1.327.55h8.006a1.87 1.87 0 0 0 1.327-.55 1.88 1.88 0 0 0 .55-1.327v-8.006c0-.498-.198-.975-.55-1.327a1.88 1.88 0 0 0-1.327-.55zm-1.877 8.006h-4.253V25.77h4.253zM15.887 38.03H7.88c-.498 0-.975.197-1.328.55s-.55.83-.55 1.328v8.006c0 .498.197.975.55 1.328s.83.55 1.328.55h8.006c.498 0 .975-.197 1.328-.55s.55-.83.55-1.328v-8.006c0-.498-.197-.975-.55-1.328s-.83-.55-1.328-.55zM14 46.035H9.757v-4.253H14zm17.9-8.005h-8.006c-.498 0-.975.197-1.328.55s-.55.83-.55 1.328v8.006c0 .498.197.975.55 1.328s.83.55 1.328.55H31.9c.498 0 .975-.197 1.328-.55s.55-.83.55-1.328v-8.006c0-.498-.197-.975-.55-1.328s-.83-.55-1.328-.55zm-1.877 8.006H25.77v-4.253h4.253zM15.887 54.04H7.88a1.87 1.87 0 0 0-1.327.55 1.88 1.88 0 0 0-.55 1.327v8.006c0 .498.197.975.55 1.328s.83.55 1.328.55h8.006c.498 0 .975-.197 1.328-.55s.55-.83.55-1.328v-8.006c0-.498-.198-.975-.55-1.327a1.88 1.88 0 0 0-1.327-.55zM14 62.047H9.757v-4.253H14zm17.9-8.007h-8.006a1.87 1.87 0 0 0-1.327.55 1.88 1.88 0 0 0-.55 1.327v8.006c0 .498.197.975.55 1.328s.83.55 1.328.55H31.9c.498 0 .975-.197 1.328-.55s.55-.83.55-1.328v-8.006c0-.498-.198-.975-.55-1.327a1.88 1.88 0 0 0-1.327-.55zm-1.877 8.006H25.77v-4.253h4.253zm17.89-24.016h-8.006c-.498 0-.975.197-1.328.55s-.55.83-.55 1.328v24.018c0 .498.197.975.55 1.328s.83.55 1.328.55h8.006c.498 0 .975-.197 1.328-.55s.55-.83.55-1.328v-24.02c0-.498-.197-.975-.55-1.328s-.83-.55-1.328-.55zm-1.877 24.018h-4.253V41.782h4.253zm65.215-17.8l-10.22-9.706c-.75-.714-1.94-.683-2.653.07a1.88 1.88 0 0 0 .068 2.653l8.825 8.38-1.557 1.557-26.98-26.98a1.88 1.88 0 0 0-.96-.513l-6.953-1.4-3.347-3.7c-.696-.768-1.883-.826-2.65-.13s-.826 1.883-.13 2.65l3.987 4.306 1.225 6.123a1.88 1.88 0 0 0 .513.96l29.9 29.9c2.2 2.195 5.76 2.195 7.96 0h0l.354-.354c2.195-2.2 2.195-5.76 0-7.96l-.265-.265 2.92-2.92a1.9 1.9 0 0 0-.039-2.688zM73.475 26.285l-.752-3.76 3.76.752 18.085 18.086-3.007 3.007zm32.5 29.142l-.353.354a1.88 1.88 0 0 1-2.654 0l-8.757-8.757 3.007-3.007 8.757 8.757a1.88 1.88 0 0 1 .004 2.653z"></path></svg>