<svg id="Black" xmlns="http://www.w3.org/2000/svg" viewBox="0 0 184.25 184.25">
  <defs>
    <style>
      .cls-1 {
        fill: none;
        stroke: #222221;
        stroke-miterlimit: 10;
        stroke-width: 2px;
      }
    </style>
  </defs>
  <circle class="cls-1" cx="92.13" cy="92.13" r="89.29"/>
  <path class="cls-1" d="M78.38,106.29a16.88,16.88,0,0,0,11.42-16V58.94a16.87,16.87,0,1,0-33.73,0V90.33a16.87,16.87,0,0,0,16.86,16.86m5.88,5A22.57,22.57,0,0,0,95.48,90.37V58.89a22.55,22.55,0,0,0-45.1,0V90.37a22.56,22.56,0,0,0,22.55,22.55"/>
  <path class="cls-1" d="M89.67,92.45A16.7,16.7,0,0,0,83.8,96a16.89,16.89,0,0,0-1,23.84l21.3,23.05A16.86,16.86,0,1,0,128.93,120l-21.3-23.06A16.85,16.85,0,0,0,95.48,91.5M89.8,86.44a22.54,22.54,0,0,0-11.15,37.19L100,146.76a22.55,22.55,0,0,0,33.13-30.6L111.78,93a22.47,22.47,0,0,0-16.1-7.24"/>
  <line class="cls-1" x1="95.48" y1="85.78" x2="95.48" y2="91.5"/>
</svg>
