<?xml version="1.0" encoding="UTF-8" standalone="no"?>
<svg width="210px" height="210px" viewBox="0 0 210 210" version="1.1" xmlns="http://www.w3.org/2000/svg" xmlns:xlink="http://www.w3.org/1999/xlink">
    <!-- Generator: Sketch 50.2 (55047) - http://www.bohemiancoding.com/sketch -->
    <title>Artboard</title>
    <desc>Created with Sketch.</desc>
    <defs></defs>
    <g id="Artboard" stroke="none" stroke-width="1" fill="none" fill-rule="evenodd">
        <g id="Switch_On_Knobs" transform="translate(1.000000, 29.000000)" stroke="#222221" stroke-width="2">
            <g id="Group">
                <path d="M177,72.91 C168.134979,27.8485717 126.530608,-3.13683622 80.8180602,1.27722379 C35.1055128,5.6912838 0.198517207,44.0647238 0.119267685,89.9898219 C0.0400181628,135.91492 34.8143699,174.408604 80.5114111,178.980403 C126.208452,183.552201 167.919514,152.710565 176.94,107.68" id="Shape"></path>
                <path d="M141.1,90.13 C141.094477,118.669472 117.956139,141.80184 89.4166673,141.799999 C60.8771952,141.798158 37.741842,118.662805 37.7400011,90.1233327 C37.7381601,61.5838606 60.8705284,38.4455229 89.41,38.44 C103.11904,38.44 116.266594,43.8858951 125.96035,53.5796505 C135.654105,63.2734059 141.1,76.4209596 141.1,90.13" id="Shape"></path>
                <ellipse id="Oval" cx="89.43" cy="90.13" rx="51.67" ry="51.69"></ellipse>
                <polyline id="Shape" points="138.15 72.91 207.97 72.91 207.97 107.34 138.15 107.34"></polyline>
            </g>
            <polygon id="Shape" stroke-linecap="round" stroke-linejoin="round" points="98.69 94.31 118.3 90.13 98.69 85.94 109.6 69.12 92.77 80.02 88.59 60.41 84.4 80.02 67.58 69.12 78.48 85.94 58.88 90.13 78.48 94.31 67.58 111.14 84.4 100.23 88.59 119.84 92.77 100.23 109.6 111.14"></polygon>
        </g>
    </g>
</svg>