<svg xmlns="http://www.w3.org/2000/svg" viewBox="0 0 184.25 99.21"><defs><style>.cls-3,.cls-4{fill:#222221}.cls-4{stroke:#fff;stroke-miterlimit:10;stroke-width:.15px}.cls-5{fill:#fff}</style></defs><g id="Piano" fill="none" stroke="#222221" stroke-linecap="round" stroke-width=".25"><path stroke-linejoin="bevel" d="M7.09 7.09h170.08v85.04H7.09z"/><path d="M9.31 10.03h165.77v79.94H9.31zm-2.22-.72h170.08m-167.86.78l-.58-.78m166.35.78l.58-.78M7.09 92.13l2.22-2.23m167.86 2.23l-2.09-2.23" stroke-linejoin="round"/></g><g id="Bruciatori"><circle class="cls-3" cx="109.49" cy="69.83" r="4.25"/><path class="cls-4" d="M85.39 50v39.68h48.19V50zm43.32 36.16H90.27V53.52h38.44z"/><path class="cls-3" d="M122.66 70.37l-.08-.07v-.93l.08-.07h10.92l.08.07v.93l-.08.07h-10.92z"/><path class="cls-5" d="M133.58 69.37v.93h-10.92v-.93h10.92m0-.15h-10.92l-.15.15v.93l.15.15h10.92l.15-.15v-.93l-.15-.15z"/><path class="cls-3" d="M85.39 70.37l-.07-.07v-.93l.07-.07h10.93l.07.07v.93l-.07.07H85.39z"/><path class="cls-5" d="M96.32 69.37v.93H85.39v-.93h10.93m0-.15H85.39l-.15.15v.93l.15.15h10.93l.15-.15v-.93l-.15-.15z"/><path class="cls-3" d="M103.18 64.57c-.08-.07-7.14-6.86-7.59-7.28a3.43 3.43 0 01-.79-2V50l.08-.07h.92l.07.07v5.34a2.09 2.09 0 00.57 1.33l7.47 7.13v.1l-.63.67z"/><path class="cls-5" d="M95.8 50v5.34a2.12 2.12 0 00.59 1.38l7.47 7.13-.63.67s-7.14-6.85-7.59-7.27a3.33 3.33 0 01-.76-1.91V50h.92m0-.15h-.92l-.15.15v5.34a3.38 3.38 0 00.81 2c.44.41 7.51 7.2 7.58 7.27h.22l.63-.67v-.21l-7.48-7.13a2 2 0 01-.49-1.28V50l-.15-.15z"/><path class="cls-3" d="M115.69 64.56l-.63-.67v-.1l7.47-7.13a2.1 2.1 0 00.56-1.34V50l.08-.07h.92l.08.07v5.34a3.42 3.42 0 01-.8 2l-7.58 7.28z"/><path class="cls-5" d="M124.1 50v5.34a3.28 3.28 0 01-.77 1.91c-.45.42-7.58 7.27-7.58 7.27l-.63-.67 7.47-7.13a2.22 2.22 0 00.59-1.38V50h.92m0-.15h-.92L123 50v5.34a2 2 0 01-.54 1.27L115 63.73v.21l.63.67h.21c.07-.07 7.14-6.86 7.59-7.27a3.44 3.44 0 00.81-2V50l-.15-.15z"/><path class="cls-3" d="M123.18 89.75l-.08-.07v-5.34a2.09 2.09 0 00-.56-1.33l-7.47-7.13v-.1l.63-.67h.11l7.58 7.28a3.42 3.42 0 01.8 2v5.34l-.08.07z"/><path class="cls-5" d="M115.75 75.16s7.13 6.85 7.58 7.27a3.25 3.25 0 01.77 1.91v5.34h-.92v-5.34a2.22 2.22 0 00-.59-1.38l-7.47-7.13.63-.67m.1-.11h-.21l-.63.68v.21l7.48 7.13a2 2 0 01.54 1.28v5.33l.15.15h.92l.15-.15v-5.34a3.45 3.45 0 00-.81-2c-.45-.41-7.52-7.2-7.59-7.27z"/><path class="cls-3" d="M94.88 89.75l-.08-.07v-5.34a3.41 3.41 0 01.79-2c.45-.42 7.51-7.21 7.59-7.28h.1l.63.67v.1L96.44 83a2.1 2.1 0 00-.57 1.34v5.33l-.07.07z"/><path class="cls-5" d="M103.23 75.16l.63.67L96.39 83a2.12 2.12 0 00-.59 1.38v5.34h-.92v-5.38a3.31 3.31 0 01.76-1.91c.45-.42 7.59-7.27 7.59-7.27m-.11-.11c-.07.07-7.14 6.86-7.58 7.27a3.38 3.38 0 00-.81 2v5.35l.15.15h.92l.15-.15v-5.33a2 2 0 01.54-1.27l7.51-7.13v-.21l-.63-.68z"/><path class="cls-3" d="M109.03 56.41l-.08-.07v-6.35l.08-.07h.92l.08.07v6.35l-.08.07h-.92z"/><path class="cls-5" d="M110 50v6.35h-1V50h1m0-.15h-1l-.15.15v6.35l.15.15h1l.15-.15V50l-.15-.15z"/><path class="cls-3" d="M109.03 89.75l-.08-.07v-6.35l.08-.07h.92l.08.07v6.35l-.08.07h-.92z"/><path class="cls-5" d="M110 83.33v6.35h-1v-6.35h1m0-.15h-1l-.15.15v6.35l.15.15h1l.15-.15v-6.35l-.15-.15z"/><circle class="cls-3" cx="109.49" cy="30.16" r="6.38"/><path class="cls-4" d="M85.39 10.32V50h48.19V10.32zm43.32 36.15H90.27V13.84h38.44z"/><path class="cls-3" d="M103.18 24.89c-.08-.07-7.14-6.86-7.59-7.27a3.46 3.46 0 01-.79-2v-5.3l.08-.08h.92l.07.08v5.33a2.09 2.09 0 00.57 1.35l7.47 7.13v.1l-.63.68z"/><path class="cls-5" d="M95.8 10.32v5.33a2.15 2.15 0 00.59 1.35l7.47 7.12-.63.68s-7.14-6.8-7.59-7.24a3.31 3.31 0 01-.76-1.91v-5.33h.92m0-.15h-.92l-.15.15v5.33a3.38 3.38 0 00.81 2l7.58 7.27h.22l.63-.67v-.22l-7.47-7.12a2 2 0 01-.5-1.27v-5.32l-.15-.15z"/><path class="cls-3" d="M115.69 24.89l-.63-.68v-.1l7.48-7.11a2.09 2.09 0 00.56-1.33v-5.35l.08-.08h.92l.08.08v5.33a3.48 3.48 0 01-.8 2c-.44.41-7.51 7.2-7.58 7.27z"/><path class="cls-5" d="M124.1 10.32v5.33a3.25 3.25 0 01-.77 1.91c-.45.42-7.58 7.28-7.58 7.28l-.63-.68 7.47-7.16a2.25 2.25 0 00.59-1.39v-5.29h.92m0-.15h-.92l-.15.15v5.33a2 2 0 01-.54 1.28c-.26.23-7.4 7.06-7.48 7.12v.22l.63.67h.21c.07-.07 7.14-6.85 7.59-7.27a3.44 3.44 0 00.81-2v-5.35l-.15-.15z"/><path class="cls-3" d="M109.03 16.73l-.08-.07v-6.35l.08-.07h.92l.08.07v6.35l-.08.07h-.92z"/><path class="cls-5" d="M110 10.32v6.34h-1v-6.34h1m0-.15h-1l-.15.15v6.34l.15.15h1l.15-.15v-6.34l-.15-.15z"/><path class="cls-3" d="M122.66 30.7l-.08-.08v-.92l.08-.08h10.92l.08.08v.92l-.08.08h-10.92z"/><path class="cls-5" d="M133.58 29.7v.92h-10.92v-.92h10.92m0-.15h-10.92l-.15.15v.92l.15.15h10.92l.15-.15v-.92l-.15-.15z"/><path class="cls-3" d="M85.39 30.7l-.07-.08v-.92l.07-.08h10.93l.07.08v.92l-.07.08H85.39z"/><path class="cls-5" d="M96.32 29.7v.92H85.39v-.92h10.93m0-.15H85.39l-.15.15v.92l.15.15h10.93l.15-.15v-.92l-.15-.15z"/><path class="cls-3" d="M123.18 50.08l-.08-.08v-5.33a2.1 2.1 0 00-.56-1.34l-7.47-7.12v-.11l.63-.67h.11l7.58 7.27a3.45 3.45 0 01.8 2V50l-.08.08z"/><path class="cls-5" d="M115.75 35.48s7.13 6.85 7.58 7.27a3.31 3.31 0 01.77 1.92V50h-.92v-5.33a2.23 2.23 0 00-.59-1.39l-7.47-7.13.63-.67m.1-.11h-.21l-.63.67v.21l7.48 7.13a2 2 0 01.54 1.28V50l.15.15h.92l.15-.15v-5.33a3.47 3.47 0 00-.81-2c-.45-.41-7.52-7.2-7.59-7.27z"/><path class="cls-3" d="M94.88 50.08L94.8 50v-5.33a3.44 3.44 0 01.79-2c.45-.42 7.51-7.21 7.59-7.27h.1l.63.67v.11l-7.47 7.12a2.1 2.1 0 00-.57 1.34V50l-.07.08z"/><path class="cls-5" d="M103.23 35.48l.63.67-7.47 7.13a2.12 2.12 0 00-.59 1.39V50h-.92v-5.33a3.36 3.36 0 01.76-1.92c.45-.42 7.59-7.27 7.59-7.27m-.11-.11c-.07.07-7.14 6.86-7.58 7.27a3.41 3.41 0 00-.81 2V50l.15.15h.92L96 50v-5.33a2 2 0 01.54-1.28l7.46-7.13v-.21l-.63-.67z"/><path class="cls-3" d="M109.03 50.08l-.08-.08v-6.34l.08-.08h.92l.08.08V50l-.08.08h-.92z"/><path class="cls-5" d="M110 43.66V50h-1v-6.34h1m0-.15h-1l-.15.15V50l.15.15h1l.15-.15v-6.34l-.15-.15z"/><rect class="cls-3" x="67.79" y="33.69" width="7.57" height="32.6" rx="3.78"/><path class="cls-4" d="M58.46 10.35v79.36h26.23V10.35zM81.28 86.2H61.87V13.65h19.41z"/><path class="cls-3" d="M58.46 50.53l-.07-.08v-.92l.07-.08h7.66l.07.08v.92l-.07.08h-7.66z"/><path class="cls-5" d="M66.12 49.53v.92h-7.66v-.92h7.66m0-.15h-7.66l-.15.15v.92l.15.15h7.66l.15-.15v-.92l-.15-.15z"/><path class="cls-3" d="M58.46 70.36l-.07-.08v-.92l.07-.08h7.66l.07.08v.92l-.07.08h-7.66z"/><path class="cls-5" d="M66.12 69.36v.92h-7.66v-.92h7.66m0-.15h-7.66l-.15.15v.92l.15.15h7.66l.15-.15v-.92l-.15-.15z"/><path class="cls-3" d="M77.03 50.53l-.07-.08v-.92l.07-.08h7.66l.07.08v.92l-.07.08h-7.66z"/><path class="cls-5" d="M84.69 49.53v.92H77v-.92h7.66m0-.15H77l-.15.15v.92l.15.15h7.66l.15-.15v-.92l-.15-.15z"/><path class="cls-3" d="M77.03 70.36l-.07-.08v-.92l.07-.08h7.66l.07.08v.92l-.07.08h-7.66z"/><path class="cls-5" d="M84.69 69.36v.92H77v-.92h7.66m0-.15H77l-.15.15v.92l.15.15h7.66l.15-.15v-.92l-.15-.15z"/><path class="cls-3" d="M58.46 30.7l-.07-.08v-.92l.07-.08h7.66l.07.08v.92l-.07.08h-7.66z"/><path class="cls-5" d="M66.12 29.7v.92h-7.66v-.92h7.66m0-.15h-7.66l-.15.15v.92l.15.15h7.66l.15-.15v-.92l-.15-.15z"/><path class="cls-3" d="M58.46 20.73l-.07-.08v-.92l.07-.07h26.23l.07.07v.92l-.07.08H58.46z"/><path class="cls-5" d="M84.69 19.73v.92H58.46v-.92h26.23m0-.15H58.46l-.15.15v.92l.15.15h26.23l.15-.15v-.92l-.15-.15z"/><path class="cls-3" d="M58.46 80.33l-.07-.08v-.92l.07-.08h26.23l.07.08v.92l-.07.08H58.46z"/><path class="cls-5" d="M84.69 79.33v.92H58.46v-.92h26.23m0-.15H58.46l-.15.15v.92l.15.15h26.23l.15-.15v-.92l-.15-.15z"/><path class="cls-3" d="M77.03 30.7l-.07-.08v-.92l.07-.08h7.66l.07.08v.92l-.07.08h-7.66z"/><path class="cls-5" d="M84.69 29.7v.92H77v-.92h7.66m0-.15H77l-.15.15v.92l.15.15h7.66l.15-.15v-.92l-.15-.15z"/><path class="cls-3" d="M33.66 61.33a8.51 8.51 0 108.51 8.51 8.5 8.5 0 00-8.51-8.51zm0 13.19a4.68 4.68 0 114.68-4.68 4.69 4.69 0 01-4.68 4.68zm0-1.49a3.19 3.19 0 113.19-3.19A3.19 3.19 0 0133.66 73z"/><path class="cls-4" d="M9.57 50v39.68h48.19V50zm43.31 36.15H14.44V53.53h38.44z"/><path class="cls-3" d="M27.35 64.57c-.07-.07-7.14-6.86-7.58-7.27a3.48 3.48 0 01-.8-2V50l.08-.08H20l.08.08v5.33a2.09 2.09 0 00.56 1.33l7.47 7.13v.11l-.63.67z"/><path class="cls-5" d="M20 50v5.33a2.17 2.17 0 00.59 1.39L28 63.84l-.63.68s-7.13-6.86-7.58-7.28a3.25 3.25 0 01-.77-1.91V50H20m0-.15h-.92l-.18.15v5.33a3.45 3.45 0 00.81 2c.45.42 7.52 7.21 7.59 7.27h.21l.63-.67v-.21c-.07-.07-7.21-6.9-7.47-7.13a2 2 0 01-.54-1.29V50l-.13-.15z"/><path class="cls-3" d="M39.87 64.57l-.63-.67v-.11l7.47-7.13a2 2 0 00.56-1.33V50l.08-.08h.92l.08.08v5.33a3.44 3.44 0 01-.79 2c-.45.41-7.51 7.2-7.59 7.27z"/><path class="cls-5" d="M48.27 50v5.33a3.31 3.31 0 01-.76 1.91c-.45.42-7.59 7.28-7.59 7.28l-.63-.68 7.47-7.12a2.12 2.12 0 00.59-1.39V50h.92m0-.15h-.92l-.15.15v5.33a2 2 0 01-.54 1.28l-7.47 7.13V64l.63.67H40l7.58-7.27a3.44 3.44 0 00.81-2V50l-.15-.15z"/><path class="cls-3" d="M33.2 56.41l-.08-.07V50l.08-.08h.92l.08.08v6.34l-.08.07h-.92z"/><path class="cls-5" d="M34.12 50v6.34h-.92V50h.92m0-.15h-.92l-.15.15v6.34l.15.15h.92l.15-.15V50l-.15-.15z"/><path class="cls-3" d="M46.83 70.38l-.07-.08v-.92l.07-.08h10.93l.07.08v.92l-.07.08H46.83z"/><path class="cls-5" d="M57.76 69.38v.92H46.83v-.92h10.93m0-.15H46.83l-.15.15v.92l.15.15h10.93l.15-.15v-.92l-.15-.15z"/><path class="cls-3" d="M9.57 70.38l-.08-.08v-.92l.08-.08h10.92l.07.08v.92l-.07.08H9.57z"/><path class="cls-5" d="M20.49 69.38v.92H9.57v-.92h10.92m0-.15H9.57l-.15.15v.92l.15.15h10.92l.15-.15v-.92l-.15-.15z"/><path class="cls-3" d="M47.35 89.76l-.08-.08v-5.33a2.07 2.07 0 00-.56-1.35c-.26-.23-7.47-7.12-7.47-7.12v-.11l.63-.67H40c.08.07 7.14 6.85 7.59 7.27a3.43 3.43 0 01.79 2v5.34l-.08.08z"/><path class="cls-5" d="M39.92 75.16s7.14 6.85 7.59 7.27a3.36 3.36 0 01.76 1.92v5.33h-.92v-5.33a2.12 2.12 0 00-.59-1.35l-7.47-7.13.63-.67m.11-.11h-.22l-.63.67v.21l7.47 7.13a2 2 0 01.54 1.29v5.32l.15.15h.92l.15-.15v-5.36a3.5 3.5 0 00-.81-2c-.44-.41-7.51-7.2-7.58-7.27z"/><path class="cls-3" d="M19.05 89.76l-.05-.08v-5.33a3.45 3.45 0 01.8-2l7.58-7.27h.11l.63.67v.11s-7.25 6.92-7.51 7.14a2.12 2.12 0 00-.56 1.34v5.33l-.08.08z"/><path class="cls-5" d="M27.4 75.16l.63.67L20.56 83a2.17 2.17 0 00-.56 1.35v5.33h-.92v-5.33a3.31 3.31 0 01.77-1.92c.45-.42 7.58-7.27 7.58-7.27m-.1-.11c-.07.07-7.14 6.86-7.59 7.27a3.5 3.5 0 00-.81 2v5.34l.15.15H20l.15-.15v-5.31a2 2 0 01.54-1.28l7.47-7.13v-.21l-.63-.67z"/><path class="cls-3" d="M33.2 89.76l-.08-.08v-6.34l.08-.08h.92l.08.08v6.34l-.08.08h-.92z"/><path class="cls-5" d="M34.12 83.34v6.34h-.92v-6.34h.92m0-.15h-.92l-.15.15v6.34l.15.15h.92l.15-.15v-6.34l-.15-.15z"/><circle class="cls-3" cx="33.66" cy="30.15" r="6.38"/><path class="cls-4" d="M9.57 10.31V50h48.19V10.31zm43.31 36.16H14.44V13.84h38.44z"/><path class="cls-3" d="M27.35 24.88l-7.58-7.27a3.45 3.45 0 01-.8-2v-5.3l.08-.07H20l.08.07v5.34a2.09 2.09 0 00.53 1.35l7.47 7.12v.11l-.63.67z"/><path class="cls-5" d="M20 10.31v5.34a2.17 2.17 0 00.56 1.35L28 24.16l-.63.67s-7.1-6.83-7.55-7.27a3.31 3.31 0 01-.77-1.91v-5.34H20m0-.15h-.92l-.15.15v5.34a3.45 3.45 0 00.81 2c.45.41 7.52 7.2 7.59 7.27h.21l.63-.67v-.21l-7.47-7.13a2 2 0 01-.54-1.28v-5.32l-.16-.15z"/><path class="cls-3" d="M39.87 24.88l-.63-.67v-.11l7.47-7.1a2 2 0 00.56-1.34v-5.35l.08-.07h.92l.08.07v5.34a3.43 3.43 0 01-.79 2c-.45.42-7.51 7.21-7.59 7.27z"/><path class="cls-5" d="M48.27 10.31v5.34a3.36 3.36 0 01-.76 1.91c-.45.42-7.59 7.27-7.59 7.27l-.63-.67L46.76 17a2.12 2.12 0 00.59-1.38v-5.31h.92m0-.15h-.92l-.15.15v5.34a2 2 0 01-.54 1.27l-7.47 7.13v.21l.63.67H40c.07-.07 7.14-6.86 7.58-7.27a3.44 3.44 0 00.81-2v-5.35l-.15-.15z"/><path class="cls-3" d="M33.2 16.73l-.08-.08v-6.34l.08-.07h.92l.08.07v6.34l-.08.08h-.92z"/><path class="cls-5" d="M34.12 10.31v6.34h-.92v-6.34h.92m0-.15h-.92l-.15.15v6.34l.15.15h.92l.15-.15v-6.34l-.15-.15z"/><path class="cls-3" d="M46.83 30.69l-.07-.08v-.92l.07-.07h10.93l.07.07v.92l-.07.08H46.83z"/><path class="cls-5" d="M57.76 29.69v.93H46.83v-.93h10.93m0-.15H46.83l-.15.15v.93l.15.15h10.93l.15-.15v-.93l-.15-.15z"/><path class="cls-3" d="M9.57 30.69l-.08-.08v-.92l.08-.07h10.92l.07.07v.92l-.07.08H9.57z"/><path class="cls-5" d="M20.49 29.69v.93H9.57v-.93h10.92m0-.15H9.57l-.15.15v.93l.15.15h10.92l.15-.15v-.93l-.15-.15z"/><path class="cls-3" d="M47.35 50.07l-.08-.07v-5.34a2 2 0 00-.56-1.33l-7.47-7.13v-.1l.63-.67H40c.08.07 7.14 6.86 7.59 7.27a3.46 3.46 0 01.79 2V50l-.08.07z"/><path class="cls-5" d="M39.92 35.48s7.14 6.85 7.59 7.27a3.31 3.31 0 01.76 1.91V50h-.92v-5.34a2.15 2.15 0 00-.59-1.39l-7.47-7.12.63-.67m.11-.11h-.22l-.63.68v.21l7.47 7.12a2 2 0 01.54 1.29V50l.15.15h.92l.15-.15v-5.34a3.45 3.45 0 00-.81-2c-.44-.41-7.51-7.2-7.58-7.27z"/><path class="cls-3" d="M19.05 50.07L19 50v-5.34a3.48 3.48 0 01.8-2c.44-.41 7.51-7.2 7.58-7.27h.11l.63.67v.1l-7.47 7.13a2.1 2.1 0 00-.56 1.34V50l-.08.07z"/><path class="cls-5" d="M27.4 35.48l.63.67s-7.21 6.85-7.47 7.12a2.2 2.2 0 00-.56 1.39V50h-.92v-5.34a3.25 3.25 0 01.77-1.91c.45-.42 7.58-7.27 7.58-7.27m-.1-.11c-.07.07-7.14 6.86-7.59 7.27a3.44 3.44 0 00-.81 2V50l.15.15H20l.15-.15v-5.34a2 2 0 01.54-1.28c.26-.23 7.4-7.05 7.47-7.12v-.21l-.63-.68z"/><path class="cls-3" d="M33.2 50.07l-.08-.07v-6.35l.08-.07h.92l.08.07V50l-.08.07h-.92z"/><path class="cls-5" d="M34.12 43.65V50h-.92v-6.35h.92m0-.15h-.92l-.15.15V50l.15.15h.92l.15-.15v-6.35l-.15-.15z"/><circle class="cls-3" cx="154.49" cy="30.15" r="6.38"/><path class="cls-4" d="M134.36 10.31V50h40.25V10.31zm36.73 36.16h-33.2V13.84h33.2z"/><path class="cls-3" d="M148.18 24.88c-.08-.06-7.14-6.85-7.59-7.27a3.43 3.43 0 01-.79-2v-5.3l.08-.07h.92l.07.07v5.34a2.09 2.09 0 00.57 1.33l7.47 7.12v.11l-.63.67z"/><path class="cls-5" d="M140.8 10.31v5.34a2.12 2.12 0 00.59 1.38l7.47 7.13-.63.67s-7.14-6.85-7.59-7.27a3.36 3.36 0 01-.76-1.91v-5.34h.92m0-.15h-.92l-.15.15v5.34a3.38 3.38 0 00.81 2c.44.41 7.51 7.2 7.58 7.27h.22l.63-.67v-.21l-7.47-7.13a2 2 0 01-.54-1.28v-5.32l-.15-.15z"/><path class="cls-3" d="M160.69 24.88l-.63-.67v-.11l7.48-7.1a2.1 2.1 0 00.56-1.34v-5.35l.08-.07h.92l.08.07v5.34a3.45 3.45 0 01-.8 2l-7.58 7.27z"/><path class="cls-5" d="M169.1 10.31v5.34a3.31 3.31 0 01-.77 1.91c-.45.42-7.58 7.27-7.58 7.27l-.63-.67 7.47-7.16a2.22 2.22 0 00.59-1.38v-5.31h.92m0-.15h-.92l-.15.15v5.34a2 2 0 01-.54 1.27L160 24.05v.21l.63.67h.21c.07-.07 7.14-6.86 7.59-7.27a3.44 3.44 0 00.81-2v-5.35l-.15-.15z"/><path class="cls-3" d="M168.18 50.07l-.08-.07v-5.34a2.09 2.09 0 00-.56-1.33l-7.47-7.13v-.1l.63-.67h.11c.07.07 7.14 6.86 7.58 7.27a3.48 3.48 0 01.8 2V50l-.08.07z"/><path class="cls-5" d="M160.75 35.48s7.13 6.85 7.58 7.27a3.25 3.25 0 01.77 1.91V50h-.92v-5.34a2.25 2.25 0 00-.59-1.39c-.26-.23-7.47-7.12-7.47-7.12l.63-.67m.1-.11h-.21l-.63.68v.21c.08.07 7.22 6.89 7.48 7.12a2 2 0 01.54 1.29V50l.15.15h.92l.15-.15v-5.34a3.45 3.45 0 00-.81-2c-.45-.41-7.52-7.2-7.59-7.27z"/><path class="cls-3" d="M139.88 50.07l-.08-.07v-5.34a3.46 3.46 0 01.79-2c.45-.41 7.51-7.2 7.59-7.27h.1l.63.67v.1l-7.47 7.13a2.1 2.1 0 00-.57 1.34V50l-.07.07z"/><path class="cls-5" d="M148.23 35.48l.63.67-7.47 7.12a2.15 2.15 0 00-.59 1.39V50h-.92v-5.34a3.31 3.31 0 01.76-1.91c.45-.42 7.59-7.27 7.59-7.27m-.11-.11c-.07.07-7.14 6.86-7.58 7.27a3.38 3.38 0 00-.81 2V50l.15.15h.92l.2-.15v-5.34a2 2 0 01.54-1.28l7.46-7.12v-.21l-.63-.68z"/><path class="cls-3" d="M154.03 16.73l-.08-.08v-6.34l.08-.07h.92l.08.07v6.34l-.08.08h-.92z"/><path class="cls-5" d="M155 10.31v6.34h-1v-6.34h1m0-.15h-1l-.15.15v6.34l.15.15h1l.15-.15v-6.34l-.15-.15z"/><path class="cls-3" d="M154.03 50.07l-.08-.07v-6.35l.08-.07h.92l.08.07V50l-.08.07h-.92z"/><path class="cls-5" d="M155 43.65V50h-1v-6.35h1m0-.15h-1l-.15.15V50l.15.15h1l.15-.15v-6.35l-.15-.15z"/><path class="cls-3" d="M164.91 30.69l-.07-.08v-.92l.07-.07h9.7l.08.07v.92l-.08.08h-9.7z"/><path class="cls-5" d="M174.61 29.69v.93h-9.7v-.93h9.7m0-.15h-9.7l-.15.15v.93l.15.15h9.7l.15-.15v-.93l-.15-.15z"/><path class="cls-3" d="M134.36 30.69l-.07-.08v-.92l.07-.07h9.71l.07.07v.92l-.07.08h-9.71z"/><path class="cls-5" d="M144.07 29.69v.93h-9.71v-.93h9.71m0-.15h-9.71l-.15.15v.93l.15.15h9.71l.15-.15v-.93l-.15-.15z"/><path class="cls-3" d="M154.49 61.33a8.51 8.51 0 108.5 8.51 8.51 8.51 0 00-8.5-8.51zm0 13.19a4.68 4.68 0 114.68-4.68 4.69 4.69 0 01-4.68 4.68zm0-1.49a3.19 3.19 0 113.19-3.19 3.19 3.19 0 01-3.19 3.16z"/><path class="cls-4" d="M134.36 50v39.68h40.25V50zm36.73 36.15h-33.2V53.53h33.2z"/><path class="cls-3" d="M148.18 64.57c-.08-.07-7.14-6.86-7.59-7.27a3.46 3.46 0 01-.79-2v-5.38h1.07v5.41a2.09 2.09 0 00.57 1.33l7.47 7.13.05.05-.73.78z"/><path class="cls-5" d="M140.8 50v5.33a2.12 2.12 0 00.59 1.39l7.47 7.12-.63.68s-7.14-6.86-7.59-7.28a3.31 3.31 0 01-.76-1.91V50h.92m.15-.15h-1.22v5.48a3.38 3.38 0 00.81 2l7.58 7.27.11.11.11-.11.66-.6.1-.11-.11-.1-7.47-7.13a2 2 0 01-.54-1.29v-5.52z"/><path class="cls-3" d="M160 63.84l.06-.05 7.47-7.13a2.09 2.09 0 00.56-1.33v-5.41h1.08v5.41a3.45 3.45 0 01-.8 2c-.44.41-7.51 7.2-7.58 7.27l-.05.05z"/><path class="cls-5" d="M169.1 50v5.33a3.25 3.25 0 01-.77 1.91c-.45.42-7.58 7.28-7.58 7.28l-.63-.68 7.47-7.12a2.23 2.23 0 00.59-1.39V50h.92m.15-.15H168v5.48a2 2 0 01-.54 1.28c-.26.23-7.4 7.06-7.48 7.13l-.1.1.1.11.63.67.1.11.11-.11c.07-.06 7.14-6.85 7.59-7.27a3.44 3.44 0 00.81-2v-5.5z"/><path class="cls-3" d="M168.1 89.76v-5.41a2.1 2.1 0 00-.56-1.34c-.26-.23-7.47-7.12-7.47-7.12h-.06l.74-.79.05.06 7.58 7.27a3.45 3.45 0 01.8 2v5.42z"/><path class="cls-5" d="M160.75 75.16s7.13 6.85 7.58 7.27a3.31 3.31 0 01.77 1.92v5.33h-.92v-5.33a2.23 2.23 0 00-.59-1.39l-7.47-7.13.63-.67m0-.21l-.1.11-.63.67-.1.11.1.1 7.48 7.13a2 2 0 01.54 1.29v5.47h1.22v-5.48a3.5 3.5 0 00-.81-2c-.45-.41-7.52-7.2-7.59-7.27l-.11-.1z"/><path class="cls-3" d="M139.8 89.76v-5.41a3.44 3.44 0 01.79-2c.45-.42 7.51-7.2 7.59-7.27v-.06l.73.79h-.05s-7.21 6.89-7.47 7.12a2.12 2.12 0 00-.57 1.34v5.41z"/><path class="cls-5" d="M148.23 75.16l.63.67-7.47 7.17a2.12 2.12 0 00-.59 1.39v5.33h-.92v-5.37a3.36 3.36 0 01.76-1.92c.45-.42 7.59-7.27 7.59-7.27m0-.21l-.11.1c-.07.07-7.14 6.86-7.58 7.27a3.43 3.43 0 00-.81 2v5.49H141v-5.46a2 2 0 01.54-1.28l7.46-7.13.11-.1-.1-.11-.63-.67-.11-.11z"/><path class="cls-3" d="M153.95 49.92h1.08v6.49h-1.08z"/><path class="cls-5" d="M155 50v6.34h-1V50h1m.15-.15h-1.22v6.64h1.22v-6.64z"/><path class="cls-3" d="M153.95 83.26h1.08v6.49h-1.08z"/><path class="cls-5" d="M155 83.34v6.34h-1v-6.34h1m.15-.15h-1.22v6.64h1.22v-6.64z"/><path class="cls-3" d="M164.84 69.3h9.85v1.07h-9.85z"/><path class="cls-5" d="M174.61 69.38v.92h-9.7v-.92h9.7m.15-.15h-10v1.22h10v-1.22z"/><path class="cls-3" d="M134.29 69.3h9.85v1.07h-9.85z"/><path class="cls-5" d="M144.07 69.38v.92h-9.71v-.92h9.71m.15-.15h-10v1.22h10v-1.22z"/></g></svg>