<svg xmlns="http://www.w3.org/2000/svg" viewBox="0 0 184.25 99.21"><defs><style>.cls-3,.cls-4{fill:#222221}.cls-4{stroke:#fff;stroke-miterlimit:10;stroke-width:.15px}.cls-5{fill:#fff}</style></defs><g id="Piano" stroke-linecap="round" stroke-width=".25" fill="none" stroke="#222221"><path stroke-linejoin="bevel" d="M7.09 7.09h170.08v85.04H7.09z"/><path d="M7.09 9.31h170.08m-167.86.78l-.58-.78m166.35.78l.58-.78M7.09 92.13l2.22-2.23m167.86 2.23l-2.09-2.23M9.31 10.03h165.77v79.94H9.31z" stroke-linejoin="round"/></g><g id="Bruciatori"><circle class="cls-3" cx="71.15" cy="30.15" r="6.38"/><path class="cls-4" d="M51 10.31V50h40.28V10.31zm36.75 36.16h-33.2V13.84h33.2z"/><path class="cls-3" d="M64.84 24.89c-.07-.07-7.14-6.86-7.59-7.28a3.43 3.43 0 01-.79-2v-5.3l.08-.07h.92l.08.07v5.34A2.09 2.09 0 0058.1 17l7.47 7.12v.11l-.63.67z"/><path class="cls-5" d="M57.46 10.31v5.34a2.12 2.12 0 00.59 1.35l7.47 7.13-.63.67s-7.14-6.8-7.59-7.24a3.36 3.36 0 01-.76-1.91v-5.34h.92m0-.15h-.92l-.15.15v5.34a3.45 3.45 0 00.81 2c.45.41 7.51 7.2 7.59 7.27H65l.63-.67v-.21l-7.47-7.13a2 2 0 01-.54-1.28v-5.32l-.15-.15z"/><path class="cls-3" d="M77.35 24.88l-.62-.67v-.11L84.2 17a2.1 2.1 0 00.56-1.34v-5.35l.08-.07h.92l.08.07v5.34a3.43 3.43 0 01-.79 2c-.45.42-7.52 7.21-7.59 7.28z"/><path class="cls-5" d="M85.76 10.31v5.34a3.31 3.31 0 01-.76 1.91l-7.58 7.27-.63-.67L84.25 17a2.12 2.12 0 00.59-1.38v-5.31h.92m0-.15h-.92l-.15.15v5.34a2 2 0 01-.54 1.27l-7.47 7.13v.21l.63.67h.21c.08-.07 7.14-6.86 7.59-7.27a3.44 3.44 0 00.81-2v-5.35l-.15-.15z"/><path class="cls-3" d="M84.84 50.07l-.08-.07v-5.34a2.09 2.09 0 00-.56-1.33l-7.47-7.13v-.1l.62-.68h.11c.07.07 7.14 6.86 7.59 7.27a3.46 3.46 0 01.79 2V50l-.08.07z"/><path class="cls-5" d="M77.41 35.48L85 42.75a3.25 3.25 0 01.77 1.91V50h-.92v-5.34a2.15 2.15 0 00-.59-1.39c-.26-.23-7.47-7.12-7.47-7.12l.63-.67m.1-.11h-.22l-.63.68v.21c.07.07 7.21 6.89 7.47 7.12a2 2 0 01.54 1.29V50l.15.15h.92l.15-.15v-5.34a3.45 3.45 0 00-.81-2c-.45-.41-7.51-7.2-7.59-7.27z"/><path class="cls-3" d="M56.54 50.07l-.08-.07v-5.34a3.46 3.46 0 01.79-2c.45-.41 7.52-7.2 7.59-7.27h.1l.63.68v.1l-7.47 7.16a2.1 2.1 0 00-.56 1.34V50l-.08.07z"/><path class="cls-5" d="M64.89 35.48l.63.67s-7.21 6.85-7.47 7.12a2.15 2.15 0 00-.59 1.39V50h-.92v-5.34a3.31 3.31 0 01.76-1.91c.45-.42 7.59-7.27 7.59-7.27m-.1-.11c-.08.07-7.14 6.86-7.59 7.27a3.44 3.44 0 00-.81 2V50l.15.15h.92l.15-.15v-5.34a2 2 0 01.54-1.28c.26-.23 7.4-7.05 7.47-7.12v-.21l-.62-.68z"/><path class="cls-3" d="M70.69 16.73l-.08-.08v-6.34l.08-.07h.92l.08.07v6.34l-.08.08h-.92z"/><path class="cls-5" d="M71.61 10.31v6.34h-.92v-6.34h.92m0-.15h-.92l-.15.15v6.34l.15.15h.92l.15-.15v-6.34l-.15-.15z"/><path class="cls-3" d="M70.69 50.07l-.08-.07v-6.35l.08-.07h.92l.08.07V50l-.08.07h-.92z"/><path class="cls-5" d="M71.61 43.65V50h-.92v-6.35h.92m0-.15h-.92l-.15.15V50l.15.15h.92l.15-.15v-6.35l-.15-.15z"/><path class="cls-3" d="M81.57 30.69l-.07-.07v-.93l.07-.07h9.71l.07.07v.93l-.07.07h-9.71z"/><path class="cls-5" d="M91.28 29.69v.93h-9.71v-.93h9.71m0-.15h-9.71l-.15.15v.93l.15.15h9.71l.15-.15v-.93l-.15-.15z"/><path class="cls-3" d="M51.02 30.69l-.07-.07v-.93l.07-.07h9.71l.07.07v.93l-.07.07h-9.71z"/><path class="cls-5" d="M60.73 29.69v.93H51v-.93h9.71m0-.15H51l-.15.15v.93l.15.15h9.71l.15-.15v-.93l-.15-.15z"/><circle class="cls-3" cx="71.15" cy="69.84" r="4.25"/><path class="cls-4" d="M51 50v39.68h40.28V50zm36.75 36.15h-33.2V53.53h33.2z"/><path class="cls-3" d="M64.84 64.57c-.07-.07-7.14-6.86-7.59-7.27a3.43 3.43 0 01-.79-2V50l.08-.08h.92l.08.08v5.33a2.09 2.09 0 00.56 1.33l7.47 7.13v.11l-.63.67z"/><path class="cls-5" d="M57.46 50v5.33a2.12 2.12 0 00.59 1.39l7.47 7.12-.63.68s-7.14-6.86-7.59-7.28a3.31 3.31 0 01-.76-1.91V50h.92m0-.15h-.92l-.15.15v5.33a3.45 3.45 0 00.81 2c.45.42 7.51 7.21 7.59 7.27H65l.63-.67v-.21c-.07-.07-7.21-6.9-7.47-7.13a2 2 0 01-.54-1.29V50l-.15-.15z"/><path class="cls-3" d="M77.35 64.57l-.62-.67v-.11l7.47-7.13a2.09 2.09 0 00.56-1.33V50l.08-.08h.92l.08.08v5.33a3.46 3.46 0 01-.79 2c-.45.41-7.52 7.2-7.59 7.27z"/><path class="cls-5" d="M85.76 50v5.33a3.25 3.25 0 01-.76 1.91l-7.58 7.28-.63-.68 7.47-7.12a2.12 2.12 0 00.59-1.39V50h.92m0-.15h-.92l-.15.15v5.33a2 2 0 01-.54 1.28c-.26.23-7.4 7.06-7.47 7.13V64l.63.67h.21c.08-.06 7.14-6.85 7.59-7.27a3.44 3.44 0 00.81-2V50l-.15-.15z"/><path class="cls-3" d="M84.84 89.76l-.08-.08v-5.33A2.1 2.1 0 0084.2 83c-.26-.23-7.47-7.12-7.47-7.12v-.11l.62-.67h.11c.07.07 7.14 6.85 7.59 7.27a3.43 3.43 0 01.79 2v5.34l-.08.08z"/><path class="cls-5" d="M77.41 75.16L85 82.43a3.31 3.31 0 01.77 1.92v5.33h-.92v-5.33a2.12 2.12 0 00-.6-1.35l-7.47-7.13.63-.67m.1-.11h-.21l-.63.67v.21l7.47 7.13a2 2 0 01.54 1.29v5.32l.15.15h.92l.15-.15v-5.36a3.5 3.5 0 00-.81-2c-.45-.41-7.51-7.2-7.59-7.27z"/><path class="cls-3" d="M56.54 89.76l-.08-.08v-5.33a3.44 3.44 0 01.79-2c.45-.42 7.52-7.2 7.59-7.27h.1l.63.67v.11S58.36 82.78 58.1 83a2.1 2.1 0 00-.56 1.34v5.33l-.08.08z"/><path class="cls-5" d="M64.89 75.16l.63.67L58.05 83a2.12 2.12 0 00-.59 1.39v5.33h-.92v-5.37a3.36 3.36 0 01.76-1.92c.45-.42 7.59-7.27 7.59-7.27m-.1-.11c-.08.07-7.14 6.86-7.59 7.27a3.5 3.5 0 00-.81 2v5.34l.15.15h.92l.15-.15v-5.31a2 2 0 01.54-1.28l7.47-7.13v-.21l-.62-.67z"/><path class="cls-3" d="M70.69 56.41l-.08-.07V50l.08-.08h.92l.08.08v6.34l-.08.07h-.92z"/><path class="cls-5" d="M71.61 50v6.34h-.92V50h.92m0-.15h-.92l-.15.15v6.34l.15.15h.92l.15-.15V50l-.15-.15z"/><path class="cls-3" d="M70.69 89.76l-.08-.08v-6.34l.08-.08h.92l.08.08v6.34l-.08.08h-.92z"/><path class="cls-5" d="M71.61 83.34v6.34h-.92v-6.34h.92m0-.15h-.92l-.15.15v6.34l.15.15h.92l.15-.15v-6.34l-.15-.15z"/><path class="cls-3" d="M81.57 70.38l-.07-.08v-.92l.07-.08h9.71l.07.08v.92l-.07.08h-9.71z"/><path class="cls-5" d="M91.28 69.38v.92h-9.71v-.92h9.71m0-.15h-9.71l-.15.15v.92l.15.15h9.71l.15-.15v-.92l-.15-.15z"/><path class="cls-3" d="M51.02 70.38l-.07-.08v-.92l.07-.08h9.71l.07.08v.92l-.07.08h-9.71z"/><path class="cls-5" d="M60.73 69.38v.92H51v-.92h9.71m0-.15H51l-.15.15v.92l.15.15h9.71l.15-.15v-.92l-.15-.15z"/><circle class="cls-3" cx="30.12" cy="30.15" r="6.38"/><path class="cls-4" d="M10 10.31V50h40.24V10.31zm36.71 36.16H13.52V13.84h33.19z"/><path class="cls-3" d="M23.81 24.89c-.08-.07-7.14-6.86-7.59-7.28a3.43 3.43 0 01-.79-2v-5.3l.08-.07h.92l.07.07v5.34a2.15 2.15 0 00.57 1.35l7.47 7.12v.11l-.63.67z"/><path class="cls-5" d="M16.43 10.31v5.34A2.12 2.12 0 0017 17l7.47 7.13-.63.67s-7.12-6.8-7.57-7.24a3.36 3.36 0 01-.76-1.91v-5.34h.92m0-.15h-.92l-.15.15v5.34a3.45 3.45 0 00.81 2c.44.41 7.51 7.2 7.58 7.27H24l.63-.67v-.21l-7.47-7.13a2 2 0 01-.54-1.28v-5.32l-.15-.15z"/><path class="cls-3" d="M36.32 24.88l-.63-.67v-.11l7.48-7.1a2.1 2.1 0 00.56-1.34v-5.35l.08-.07h.92l.08.07v5.34a3.45 3.45 0 01-.8 2l-7.58 7.28z"/><path class="cls-5" d="M44.73 10.31v5.34a3.31 3.31 0 01-.73 1.91c-.45.42-7.58 7.27-7.58 7.27l-.63-.67L43.22 17a2.22 2.22 0 00.59-1.38v-5.31h.92m0-.15h-.92l-.15.15v5.34a2 2 0 01-.54 1.27l-7.48 7.13v.21l.63.67h.21c.07-.07 7.14-6.86 7.59-7.27a3.44 3.44 0 00.81-2v-5.35l-.15-.15z"/><path class="cls-3" d="M43.81 50.07l-.08-.07v-5.34a2.09 2.09 0 00-.56-1.33L35.7 36.2v-.1l.63-.68h.11c.07.07 7.14 6.86 7.58 7.27a3.48 3.48 0 01.8 2V50l-.08.07z"/><path class="cls-5" d="M36.38 35.48s7.13 6.85 7.58 7.27a3.25 3.25 0 01.77 1.91V50h-.92v-5.34a2.25 2.25 0 00-.59-1.39c-.26-.23-7.47-7.12-7.47-7.12l.63-.67m.1-.11h-.21l-.63.68v.21c.08.07 7.22 6.89 7.48 7.12a2 2 0 01.54 1.29V50l.15.15h.92l.15-.15v-5.34a3.45 3.45 0 00-.81-2c-.45-.41-7.52-7.2-7.59-7.27z"/><path class="cls-3" d="M15.51 50.07l-.08-.07v-5.34a3.46 3.46 0 01.79-2c.45-.41 7.51-7.2 7.59-7.27h.1l.63.68v.1l-7.47 7.13a2.15 2.15 0 00-.57 1.34V50l-.07.07z"/><path class="cls-5" d="M23.86 35.48l.63.67L17 43.27a2.15 2.15 0 00-.59 1.39V50h-.92v-5.34a3.31 3.31 0 01.76-1.91c.45-.42 7.59-7.27 7.59-7.27m-.11-.11c-.07.07-7.14 6.86-7.58 7.27a3.44 3.44 0 00-.81 2V50l.15.15h.92l.15-.15v-5.34a2 2 0 01.54-1.28l7.47-7.12v-.21l-.57-.68z"/><path class="cls-3" d="M29.66 16.73l-.08-.08v-6.34l.08-.07h.92l.08.07v6.34l-.08.08h-.92z"/><path class="cls-5" d="M30.58 10.31v6.34h-.92v-6.34h.92m0-.15h-.92l-.15.15v6.34l.15.15h.92l.15-.15v-6.34l-.15-.15z"/><path class="cls-3" d="M29.66 50.07l-.08-.07v-6.35l.08-.07h.92l.08.07V50l-.08.07h-.92z"/><path class="cls-5" d="M30.58 43.65V50h-.92v-6.35h.92m0-.15h-.92l-.15.15V50l.15.15h.92l.15-.15v-6.35l-.15-.15z"/><path class="cls-3" d="M40.54 30.69l-.07-.07v-.93l.07-.07h9.7l.08.07v.93l-.08.07h-9.7z"/><path class="cls-5" d="M50.24 29.69v.93h-9.7v-.93h9.7m0-.15h-9.7l-.15.15v.93l.15.15h9.7l.15-.15v-.93l-.15-.15z"/><path class="cls-3" d="M9.99 30.69l-.07-.07v-.93l.07-.07h9.71l.07.07v.93l-.07.07H9.99z"/><path class="cls-5" d="M19.7 29.69v.93H10v-.93h9.7m0-.15H10l-.15.15v.93l.15.15h9.7l.15-.15v-.93l-.15-.15z"/><path class="cls-3" d="M30.12 61.33a8.51 8.51 0 108.5 8.51 8.51 8.51 0 00-8.5-8.51zm0 13.19a4.68 4.68 0 114.68-4.68 4.68 4.68 0 01-4.68 4.68zm0-1.49a3.19 3.19 0 113.19-3.19A3.19 3.19 0 0130.12 73z"/><path class="cls-4" d="M10 50v39.68h40.24V50zm36.71 36.15H13.52V53.53h33.19z"/><path class="cls-3" d="M23.81 64.57c-.08-.07-7.14-6.86-7.59-7.27a3.46 3.46 0 01-.79-2v-5.38h1.07v5.41a2.15 2.15 0 00.57 1.33l7.47 7.13.05.05-.73.78z"/><path class="cls-5" d="M16.43 50v5.33a2.12 2.12 0 00.57 1.39l7.47 7.12-.63.68s-7.14-6.86-7.59-7.28a3.31 3.31 0 01-.76-1.91V50h.92m.15-.15h-1.2v5.48a3.45 3.45 0 00.81 2l7.58 7.27.11.11.11-.11.63-.6.1-.11-.11-.1-7.47-7.13a2 2 0 01-.54-1.29v-5.52z"/><path class="cls-3" d="M35.64 63.84l.06-.05 7.47-7.13a2.09 2.09 0 00.56-1.33v-5.41h1.08v5.41a3.45 3.45 0 01-.8 2c-.44.41-7.51 7.2-7.58 7.27v.05z"/><path class="cls-5" d="M44.73 50v5.33a3.25 3.25 0 01-.73 1.91c-.45.42-7.58 7.28-7.58 7.28l-.63-.68 7.47-7.12a2.23 2.23 0 00.59-1.39V50h.92m.15-.15h-1.26v5.48a2 2 0 01-.54 1.28c-.26.23-7.4 7.06-7.48 7.13l-.1.1.1.11.63.67.1.11.11-.11c.07-.06 7.14-6.85 7.59-7.27a3.44 3.44 0 00.81-2v-5.5z"/><path class="cls-3" d="M43.73 89.76v-5.41a2.1 2.1 0 00-.56-1.35c-.26-.23-7.47-7.12-7.47-7.12h-.06l.74-.79v.06L44 82.38a3.45 3.45 0 01.8 2v5.42z"/><path class="cls-5" d="M36.38 75.16S43.51 82 44 82.43a3.31 3.31 0 01.77 1.92v5.33h-.92v-5.33a2.23 2.23 0 00-.63-1.35l-7.47-7.13.63-.67m0-.21l-.1.11-.63.67-.1.11.1.1 7.48 7.13a2 2 0 01.54 1.29v5.47h1.22v-5.52a3.5 3.5 0 00-.81-2c-.45-.41-7.52-7.2-7.59-7.27l-.11-.1z"/><path class="cls-3" d="M15.43 89.76v-5.41a3.44 3.44 0 01.79-2c.45-.42 7.51-7.2 7.59-7.27l.05-.06.73.79h-.05L17.07 83a2.15 2.15 0 00-.57 1.34v5.41z"/><path class="cls-5" d="M23.86 75.16l.63.67L17 83a2.12 2.12 0 00-.59 1.39v5.33h-.92v-5.37a3.36 3.36 0 01.76-1.92c.45-.42 7.59-7.27 7.59-7.27m0-.21l-.11.1c-.07.07-7.14 6.86-7.58 7.27a3.5 3.5 0 00-.81 2v5.49h1.22v-5.46a2 2 0 01.54-1.28l7.47-7.13.11-.1-.1-.11-.58-.67-.14-.06z"/><path class="cls-3" d="M29.58 49.92h1.08v6.49h-1.08z"/><path class="cls-5" d="M30.58 50v6.34h-.92V50h.92m.15-.15h-1.22v6.64h1.22v-6.64z"/><path class="cls-3" d="M29.58 83.26h1.08v6.49h-1.08z"/><path class="cls-5" d="M30.58 83.34v6.34h-.92v-6.34h.92m.15-.15h-1.22v6.64h1.22v-6.64z"/><path class="cls-3" d="M40.47 69.3h9.85v1.07h-9.85z"/><path class="cls-5" d="M50.24 69.38v.92h-9.7v-.92h9.7m.15-.15h-10v1.22h10v-1.22z"/><path class="cls-3" d="M9.92 69.3h9.85v1.07H9.92z"/><path class="cls-5" d="M19.7 69.38v.92H10v-.92h9.7m.15-.15h-10v1.22h10v-1.22z"/><circle class="cls-3" cx="154.03" cy="30.15" r="6.38"/><path class="cls-4" d="M133.9 10.31V50h40.25V10.31zm36.72 36.16h-33.19V13.84h33.19z"/><path class="cls-3" d="M147.71 24.89l-7.58-7.28a3.37 3.37 0 01-.79-2v-5.3l.07-.07h.93l.07.07v5.34A2 2 0 00141 17l7.47 7.12v.11l-.63.67z"/><path class="cls-5" d="M140.34 10.31v5.34a2.12 2.12 0 00.59 1.38l7.47 7.13-.63.67s-7.14-6.85-7.59-7.27a3.45 3.45 0 01-.77-1.91v-5.34h.93m0-.15h-.93l-.15.15v5.34a3.46 3.46 0 00.82 2c.44.41 7.51 7.2 7.58 7.27h.21l.64-.67v-.21L141 16.92a2 2 0 01-.54-1.28v-5.33l-.15-.15z"/><path class="cls-3" d="M160.23 24.88l-.63-.67v-.11l7.48-7.1a2.1 2.1 0 00.56-1.34v-5.35l.07-.07h.93l.07.07v5.34a3.37 3.37 0 01-.79 2l-7.58 7.28z"/><path class="cls-5" d="M168.64 10.31v5.34a3.31 3.31 0 01-.77 1.91c-.45.42-7.58 7.27-7.58 7.27l-.63-.67 7.47-7.16a2.17 2.17 0 00.58-1.38v-5.31h.93m0-.15h-.93l-.15.15v5.34a2 2 0 01-.54 1.27l-7.47 7.13v.21l.63.67h.21c.07-.07 7.14-6.86 7.58-7.27a3.46 3.46 0 00.82-2v-5.35l-.15-.15z"/><path class="cls-3" d="M167.71 50.07l-.07-.07v-5.34a2.09 2.09 0 00-.56-1.33l-7.48-7.13v-.1l.63-.68h.11c.07.07 7.14 6.86 7.58 7.27a3.4 3.4 0 01.79 2V50l-.07.07z"/><path class="cls-5" d="M160.29 35.48s7.13 6.85 7.58 7.27a3.25 3.25 0 01.77 1.91V50h-.93v-5.34a2.2 2.2 0 00-.58-1.39c-.26-.23-7.47-7.12-7.47-7.12l.63-.67m.1-.11h-.21l-.63.68v.21l7.45 7.12a2 2 0 01.54 1.29V50l.15.15h.93l.15-.15v-5.34a3.46 3.46 0 00-.82-2c-.44-.41-7.51-7.2-7.58-7.27z"/><path class="cls-3" d="M139.41 50.07l-.07-.07v-5.34a3.4 3.4 0 01.79-2c.44-.41 7.51-7.2 7.58-7.27h.11l.63.68v.1L141 43.33a2 2 0 00-.57 1.34V50l-.07.07z"/><path class="cls-5" d="M147.77 35.48l.63.67-7.47 7.12a2.15 2.15 0 00-.59 1.39V50h-.93v-5.34a3.39 3.39 0 01.77-1.91c.45-.42 7.59-7.27 7.59-7.27m-.11-.11c-.07.07-7.14 6.86-7.58 7.27a3.46 3.46 0 00-.82 2V50l.15.15h.93l.15-.15v-5.34a2 2 0 01.54-1.28l7.47-7.12v-.21l-.64-.68z"/><path class="cls-3" d="M153.56 16.73l-.07-.08v-6.34l.07-.07h.93l.07.07v6.34l-.07.08h-.93z"/><path class="cls-5" d="M154.49 10.31v6.34h-.93v-6.34h.93m0-.15h-.93l-.15.15v6.34l.15.15h.93l.15-.15v-6.34l-.15-.15z"/><path class="cls-3" d="M153.56 50.07l-.07-.07v-6.35l.07-.07h.93l.07.07V50l-.07.07h-.93z"/><path class="cls-5" d="M154.49 43.65V50h-.93v-6.35h.93m0-.15h-.93l-.15.15V50l.15.15h.93l.15-.15v-6.35l-.15-.15z"/><path class="cls-3" d="M164.45 30.69l-.08-.07v-.93l.08-.07h9.7l.08.07v.93l-.08.07h-9.7z"/><path class="cls-5" d="M174.15 29.69v.93h-9.7v-.93h9.7m0-.15h-9.7l-.15.15v.93l.15.15h9.7l.15-.15v-.93l-.15-.15z"/><path class="cls-3" d="M133.9 30.69l-.08-.07v-.93l.08-.07h9.7l.08.07v.93l-.08.07h-9.7z"/><path class="cls-5" d="M143.6 29.69v.93h-9.7v-.93h9.7m0-.15h-9.7l-.15.15v.93l.15.15h9.7l.15-.15v-.93l-.15-.15z"/><path class="cls-3" d="M154 61.33a8.51 8.51 0 108.5 8.51 8.51 8.51 0 00-8.5-8.51zm0 13.19a4.68 4.68 0 114.67-4.68 4.68 4.68 0 01-4.67 4.68zm0-1.52a3.19 3.19 0 113.19-3.19A3.19 3.19 0 01154 73z"/><path class="cls-4" d="M133.9 50v39.68h40.25V50zm36.72 36.15h-33.19V53.53h33.19z"/><path class="cls-3" d="M147.71 64.57c-.07-.07-7.14-6.86-7.58-7.27a3.39 3.39 0 01-.79-2v-5.38h1.07v5.41a2 2 0 00.57 1.33l7.47 7.13.05.05-.73.78z"/><path class="cls-5" d="M140.34 50v5.33a2.12 2.12 0 00.59 1.39l7.47 7.12-.63.68s-7.14-6.86-7.59-7.28a3.39 3.39 0 01-.77-1.91V50h.93m.15-.15h-1.23v5.48a3.46 3.46 0 00.82 2l7.58 7.27.11.11.1-.11.64-.67.1-.11-.11-.1-7.5-7.11a2 2 0 01-.54-1.29v-5.47z"/><path class="cls-3" d="M159.55 63.84v-.05l7.48-7.13a2.09 2.09 0 00.56-1.33v-5.41h1.07v5.41a3.37 3.37 0 01-.79 2c-.44.41-7.51 7.2-7.58 7.27l-.06.05z"/><path class="cls-5" d="M168.64 50v5.33a3.25 3.25 0 01-.77 1.91c-.45.42-7.58 7.28-7.58 7.28l-.63-.68 7.47-7.12a2.17 2.17 0 00.58-1.39V50h.93m.15-.15h-1.23v5.48a2 2 0 01-.54 1.28l-7.47 7.13-.1.1.1.11.63.67.1.11.11-.11 7.61-7.27a3.46 3.46 0 00.82-2v-5.5z"/><path class="cls-3" d="M167.64 89.76v-5.41a2.1 2.1 0 00-.56-1.34c-.26-.23-7.48-7.12-7.48-7.12l.73-.79.06.06 7.58 7.27a3.37 3.37 0 01.79 2v5.42z"/><path class="cls-5" d="M160.29 75.16s7.13 6.85 7.58 7.27a3.31 3.31 0 01.77 1.92v5.33h-.93v-5.33a2.17 2.17 0 00-.58-1.39l-7.47-7.13.63-.67m0-.21l-.1.11-.63.67-.1.11.1.1 7.44 7.13a2 2 0 01.54 1.29v5.47h1.23v-5.48a3.51 3.51 0 00-.82-2c-.44-.41-7.51-7.2-7.58-7.27l-.11-.1z"/><path class="cls-3" d="M139.34 89.76v-5.41a3.37 3.37 0 01.79-2l7.58-7.27.06-.06.73.79h-.05L141 83a2 2 0 00-.57 1.34v5.41z"/><path class="cls-5" d="M147.77 75.16l.63.67-7.47 7.17a2.12 2.12 0 00-.59 1.39v5.33h-.93v-5.37a3.45 3.45 0 01.77-1.92c.45-.42 7.59-7.27 7.59-7.27m0-.21l-.11.1c-.07.07-7.14 6.86-7.58 7.27a3.51 3.51 0 00-.82 2v5.49h1.23v-5.46a2 2 0 01.54-1.28l7.47-7.13.11-.1-.1-.11-.64-.67-.1-.11z"/><path class="cls-3" d="M153.49 49.92h1.07v6.49h-1.07z"/><path class="cls-5" d="M154.49 50v6.34h-.93V50h.93m.15-.15h-1.23v6.64h1.23v-6.64z"/><path class="cls-3" d="M153.49 83.26h1.07v6.49h-1.07z"/><path class="cls-5" d="M154.49 83.34v6.34h-.93v-6.34h.93m.15-.15h-1.23v6.64h1.23v-6.64z"/><path class="cls-3" d="M164.37 69.3h9.85v1.07h-9.85z"/><path class="cls-5" d="M174.15 69.38v.92h-9.7v-.92h9.7m.15-.15h-10v1.22h10v-1.22z"/><path class="cls-3" d="M133.82 69.3h9.85v1.07h-9.85z"/><path class="cls-5" d="M143.6 69.38v.92h-9.7v-.92h9.7m.15-.15h-10v1.22h10v-1.22z"/><path stroke-miterlimit="3.86" stroke-width=".5" fill="none" stroke="#222221" d="M91.68 80.11h41.81"/><path class="cls-3" d="M133 10.81v78.37H92.18V10.81H133m.5-.5H91.68v79.37h41.81V10.31z"/></g></svg>