<svg xmlns="http://www.w3.org/2000/svg" viewBox="0 0 192.76 153.07"><defs><style>.cls-10,.cls-8,.cls-9{fill:#fff}.cls-13,.cls-2,.cls-6,.cls-7{fill:none}.cls-10,.cls-2,.cls-4,.cls-6,.cls-7,.cls-8,.cls-9{stroke:#222221}.cls-2,.cls-8,.cls-9{stroke-miterlimit:10}.cls-2{stroke-width:.5px}.cls-6{stroke-miterlimit:1.4}.cls-16,.cls-4{fill:#222221}.cls-10,.cls-13,.cls-4,.cls-7{stroke-miterlimit:1.41}.cls-4{stroke-width:.2px}.cls-10,.cls-9{stroke-width:.3px}.cls-13,.cls-6,.cls-7{stroke-width:.25px}.cls-8{stroke-width:.4px}.cls-13{stroke:#20201f}.cls-14{fill:#20201f}.cls-17{font-size:7px;font-family:Fakt-Normal,Fakt;fill:#212220}</style></defs><path fill="#fff" d="M19.84 17.01v116.22h4.34v13.05h.41v1.12h6.1v-1.12h.4v-13.05h147.58v13.05h.4v1.12h6.11v-1.12h.4v-13.05h4.34V17.01H19.84z" id="Riempimento"/><g id="Ranges"><path class="cls-2" d="M179.08 146.28h6.1v1.12h-6.1zm-.41-13.05h6.91v13.05h-6.91zM24.59 146.28h6.1v1.12h-6.1zm-.41-13.05h6.91v13.05h-6.91zM19.84 17.01h170.08v116.22H19.84zm0 8.5h170.08M19.84 31.18h170.08m-48.9 80.79v-61.8"/><path d="M27.64 133.23V31.18m154.49 102.05V31.18" stroke-miterlimit="1.4" stroke-width=".5" stroke="#222221" fill="none"/><path class="cls-4" d="M67.04 25.44v-2.95h15.14l-4.66 1.12h-7.09v1.83h-3.39zm0 .03v-2.98H51.67l4.63 1.13h7.04v1.85h3.7zm38.46-.05v-2.95h15.14l-4.66 1.12h-7.09v1.83h-3.39zm0 .03v-2.98H90.13l4.63 1.14h7.04v1.84h3.7zm-77.58.06v-2.98h15.03l-4.62 1.13h-7.04v1.85h-3.37zm19.22-3.02h.91v2.98h-.91zm38.73 0h.91v2.98h-.91zm37.82 0h.91v2.98h-.91zm19.45 2.94v-2.97h-15.36l4.62 1.13h7.04v1.84h3.7zm38.99-.03v-2.94h-15.49l4.66 1.11h7.1v1.83h3.73zm-20.03-2.94h.91v2.94h-.91zm-18.96 2.94v-2.94h15.14l-4.66 1.11h-7.09v1.83h-3.39z"/><path class="cls-4" d="M152.08 22.46h21.95v1.12h-21.95z"/><path class="cls-2" d="M27.64 111.97h154.49m-154.49 4.25h154.49m-154.49 2.14h154.49"/><path d="M27.73 46.64h154.3m-154.3 2.12h154.3" stroke-width=".3" stroke-miterlimit="1.4" stroke="#222221" fill="none"/><path class="cls-2" d="M27.73 50.17h154.3"/><rect class="cls-2" x="33.81" y="35.24" width="10.94" height="7.3" rx="1.82"/><path class="cls-6" d="M35.28 40.84a.49.49 0 11.49.49.49.49 0 01-.49-.49zm1.79 0a.49.49 0 11.49.49.49.49 0 01-.49-.49zm1.79 0a.49.49 0 01.49-.49.49.49 0 010 1 .49.49 0 01-.49-.51z"/><path class="cls-7" d="M40.65 40.84a.49.49 0 01.49-.49.49.49 0 010 1 .49.49 0 01-.49-.51zm1.79 0a.49.49 0 11.49.49.48.48 0 01-.49-.49z"/><rect class="cls-6" x="36.2" y="36.89" width="5.96" height="1.84" rx=".61"/><circle class="cls-8" cx="58.33" cy="38.89" r="3.09"/><rect class="cls-9" x="59.41" y="38.3" width="3.69" height="1.19" rx=".56"/><circle class="cls-9" cx="58.33" cy="38.89" r="1.79"/><circle class="cls-8" cx="68.98" cy="38.89" r="3.09"/><rect class="cls-9" x="70.06" y="38.3" width="3.69" height="1.19" rx=".56"/><circle class="cls-9" cx="68.98" cy="38.89" r="1.79"/><circle class="cls-8" cx="79.63" cy="38.89" r="3.09"/><rect class="cls-9" x="80.71" y="38.3" width="3.69" height="1.19" rx=".56"/><circle class="cls-9" cx="79.63" cy="38.89" r="1.79"/><circle class="cls-8" cx="90.28" cy="38.89" r="3.09"/><rect class="cls-9" x="91.36" y="38.3" width="3.69" height="1.19" rx=".56"/><circle class="cls-9" cx="90.28" cy="38.89" r="1.79"/><circle class="cls-8" cx="100.94" cy="38.89" r="3.09"/><rect class="cls-9" x="102.02" y="38.3" width="3.69" height="1.19" rx=".56"/><circle class="cls-9" cx="100.94" cy="38.89" r="1.79"/><circle class="cls-8" cx="111.59" cy="38.89" r="3.09"/><rect class="cls-9" x="112.67" y="38.3" width="3.69" height="1.19" rx=".56"/><circle class="cls-9" cx="111.59" cy="38.89" r="1.79"/><circle class="cls-8" cx="122.24" cy="38.89" r="3.09"/><rect class="cls-9" x="123.32" y="38.3" width="3.69" height="1.19" rx=".56"/><circle class="cls-9" cx="122.24" cy="38.89" r="1.79"/><circle class="cls-8" cx="148.95" cy="38.89" r="3.09"/><rect class="cls-9" x="150.03" y="38.3" width="3.69" height="1.19" rx=".56"/><circle class="cls-9" cx="148.95" cy="38.89" r="1.79"/><circle class="cls-8" cx="159.6" cy="38.89" r="3.09"/><rect class="cls-9" x="160.68" y="38.3" width="3.69" height="1.19" rx=".56"/><circle class="cls-9" cx="159.6" cy="38.89" r="1.79"/><circle class="cls-8" cx="170.25" cy="38.89" r="3.09"/><rect class="cls-9" x="171.33" y="38.3" width="3.69" height="1.19" rx=".56"/><circle class="cls-9" cx="170.25" cy="38.89" r="1.79"/><path class="cls-10" d="M37.44 55.26h93.69v2.65H37.44zm-4.76.78h3.15v.94h-3.15z"/><ellipse class="cls-10" cx="32.22" cy="56.46" rx="1.41" ry="1.45"/><path class="cls-10" d="M36.53 56.82h.91v3.04h-.91z"/><rect class="cls-10" x="34.54" y="54.85" width="3.82" height="3.4" rx=".24"/><path class="cls-10" d="M132.88 56.03h3.15v.94h-3.15z"/><ellipse class="cls-10" cx="136.37" cy="56.46" rx="1.41" ry="1.45"/><ellipse class="cls-10" cx="136.37" cy="56.46" rx="1.41" ry="1.45"/><path class="cls-10" d="M131.31 56.81h.91v3.04h-.91z"/><rect class="cls-10" x="130.23" y="54.84" width="3.82" height="3.4" rx=".24"/><path class="cls-10" d="M149.9 55.25h23.31v2.62H149.9zm-3.73.77h3.11v.93h-3.11z"/><ellipse class="cls-10" cx="145.71" cy="56.45" rx="1.4" ry="1.43"/><path class="cls-10" d="M149.98 56.8h.9v3.01h-.9z"/><rect class="cls-10" x="148.01" y="54.85" width="3.78" height="3.37" rx=".24"/><path class="cls-10" d="M173.91 56.02h3.11v.93h-3.11z"/><ellipse class="cls-10" cx="177.36" cy="56.45" rx="1.4" ry="1.43"/><ellipse class="cls-10" cx="177.36" cy="56.45" rx="1.4" ry="1.43"/><path class="cls-10" d="M172.35 56.8h.9v3.01h-.9z"/><rect class="cls-10" x="171.29" y="54.85" width="3.78" height="3.37" rx=".24"/><path d="M45.27 95.65V73.34c19.36-5.93 31.46-7.22 51.64-5.5a117.12 117.12 0 0126.82 5.08v22.67l-78.46.06zm106.05 0V70c5.09-3.12 8.26-3.79 13.56-2.89a17.89 17.89 0 017 2.67v25.84h-20.6z" stroke-miterlimit="3.86" stroke-width=".5" stroke="#222221" fill="none"/></g><g id="Dimensions"><path d="M24.29 147.4H11.34m8.5-14.17h-8.5m8.5-116.22h-8.5m8.5 8.5h-8.5" stroke="#20201f" stroke-width=".25" stroke-miterlimit="1.41" fill="#fff"/><path class="cls-13" d="M14.17 25.78v107.18"/><path class="cls-14" d="M13.15 26.61l.18.17.84-.9.84.9.19-.17-1.03-1.1-1.02 1.1zm0 105.52l.18-.17.84.9.84-.9.19.17-1.03 1.1-1.02-1.1z"/><path class="cls-13" d="M14.17 8.5v8.24"/><path class="cls-14" d="M13.15 15.91l.18-.17.84.9.84-.9.19.17-1.03 1.1-1.02-1.1z"/><path class="cls-13" d="M14.17 25.51v-8.5"/><path d="M19.84 17.01V8.5m170.08 8.51V8.5" stroke-width=".25" stroke-miterlimit="1.41" stroke="#222221" fill="#fff"/><path class="cls-7" d="M189.65 11.34H20.11"/><path class="cls-16" d="M188.82 10.32l-.17.18.91.84-.91.84.17.18 1.1-1.02-1.1-1.02zm-167.88 0l.17.18-.9.84.9.84-.17.18-1.1-1.02 1.1-1.02z"/><path class="cls-13" d="M14.17 133.23v14.17"/><path class="cls-7" d="M14.17 147.67v5.4"/><path class="cls-16" d="M13.15 148.5l.18.17.84-.9.84.9.19-.17-1.03-1.1-1.02 1.1z"/><text class="cls-17" transform="rotate(-90 47.155 38.175)">29</text><text class="cls-17" transform="matrix(0 -.58 .58 0 6.65 75.84)">17/32”</text><text class="cls-17" transform="rotate(-90 14.23 5.25)">2</text><text transform="matrix(0 -.58 .58 0 6.65 13.96)" letter-spacing="0" fill="#212220" font-size="7" font-family="Fakt-Normal,Fakt">23/64”</text><text transform="translate(96.93 7.06)" fill="#232422" font-size="7" font-family="Fakt-Normal,Fakt">47</text><text transform="matrix(.58 0 0 .58 106.42 4.73)" letter-spacing="0" fill="#232422" font-size="7" font-family="Fakt-Normal,Fakt">1/4”</text><text class="cls-17" transform="rotate(-90 80.25 71.27)">3</text><text class="cls-17" transform="matrix(0 -.58 .58 0 6.65 146.01)"><tspan letter-spacing="0">15/16”</tspan></text><text class="cls-17" transform="rotate(-90 70.83 61.85)">√ 6</text><text class="cls-17" transform="matrix(0 -.58 .58 0 6.65 121.51)">19/64”</text></g></svg>