<svg xmlns="http://www.w3.org/2000/svg" viewBox="0 0 198.43 99.21"><defs><style>.cls-3{fill:none;stroke:#222221;stroke-miterlimit:10}.cls-2{fill:#222221}.cls-3{stroke-width:1.5px}</style></defs><g id="Layer_1" data-name="Layer 1"><path d="M28.35 7.09h141.73v85.04H28.35zm0 2.32h141.73" stroke-width=".5" fill="none" stroke="#222221" stroke-miterlimit="10"/><circle class="cls-2" cx="139.83" cy="69.52" r="4.25"/><circle class="cls-2" cx="139.83" cy="29.69" r="4.96"/><path class="cls-2" d="M157.87 12.25v75h-36.08v-75h36.08m1.3-2H120.5a.71.71 0 00-.71.71V88.5a.71.71 0 00.71.71h38.67a.7.7 0 00.7-.71V11a.7.7 0 00-.7-.71z"/><path class="cls-3" d="M139.83 11.21v78"/><path class="cls-2" d="M124.53 11.75V15h-3.24v-3.25h3.24m.79-1.5h-4.82a.71.71 0 00-.71.71v4.82a.71.71 0 00.71.71h4.82a.71.71 0 00.71-.71V11a.71.71 0 00-.71-.71zm33.05 1.5V15h-3.23v-3.25h3.23m.8-1.5h-4.83a.7.7 0 00-.7.71v4.82a.7.7 0 00.7.71h4.83a.7.7 0 00.7-.71V11a.7.7 0 00-.7-.71zm-34.64 74.22v3.24h-3.24v-3.24h3.24m.79-1.5h-4.82a.71.71 0 00-.71.71v4.82a.71.71 0 00.71.71h4.82a.71.71 0 00.71-.71v-4.82a.71.71 0 00-.71-.71zm33.05 1.5v3.24h-3.23v-3.24h3.23m.8-1.5h-4.83a.7.7 0 00-.7.71v4.82a.7.7 0 00.7.71h4.83a.7.7 0 00.7-.71v-4.82a.7.7 0 00-.7-.71z"/><path class="cls-3" d="M119.79 29.69h40.08m-40.08 39.83h40.08m-40.08-19.91h40.08"/><path class="cls-2" d="M141.3 47.06h-2.94l-1.47 2.55 1.47 2.54h2.94l1.47-2.54-1.47-2.55z"/><circle class="cls-2" cx="58.59" cy="29.69" r="4.96"/><circle class="cls-2" cx="58.59" cy="69.52" r="3.19"/><path class="cls-2" d="M58.59 61a8.5 8.5 0 108.51 8.5 8.5 8.5 0 00-8.51-8.5zm0 13.11a4.61 4.61 0 114.61-4.61 4.61 4.61 0 01-4.61 4.63z"/><path class="cls-2" d="M76.63 12.25v75H40.55v-75h36.08m1.3-2H39.26a.71.71 0 00-.71.71V88.5a.71.71 0 00.71.71h38.67a.7.7 0 00.7-.71V11a.7.7 0 00-.7-.71z"/><path class="cls-3" d="M58.59 11.21v78"/><path class="cls-2" d="M43.29 11.75V15h-3.24v-3.25h3.24m.79-1.5h-4.82a.71.71 0 00-.71.71v4.82a.71.71 0 00.71.71h4.82a.71.71 0 00.71-.71V11a.71.71 0 00-.71-.71zm33.05 1.5V15H73.9v-3.25h3.23m.8-1.5H73.1a.7.7 0 00-.7.71v4.82a.7.7 0 00.7.71h4.83a.7.7 0 00.7-.71V11a.7.7 0 00-.7-.71zM43.29 84.47v3.24h-3.24v-3.24h3.24m.79-1.5h-4.82a.71.71 0 00-.71.71v4.82a.71.71 0 00.71.71h4.82a.71.71 0 00.71-.71v-4.82a.71.71 0 00-.71-.71zm33.05 1.5v3.24H73.9v-3.24h3.23m.8-1.5H73.1a.7.7 0 00-.7.71v4.82a.7.7 0 00.7.71h4.83a.7.7 0 00.7-.71v-4.82a.7.7 0 00-.7-.71z"/><path class="cls-3" d="M38.55 29.69h40.08M38.55 69.52h40.08M38.55 49.61h40.08"/><path class="cls-2" d="M60.06 47.06h-2.94l-1.47 2.55 1.47 2.54h2.94l1.47-2.54-1.47-2.55zm56.59-35.81v77H81.77v-77h34.88m1-1H80.77v79h36.88v-79z"/><path stroke-miterlimit="3.86" stroke-width=".5" fill="none" stroke="#222221" d="M80.77 83.06h36.88"/></g></svg>