<svg xmlns="http://www.w3.org/2000/svg" viewBox="0 0 164.41 153.07"><defs><style>.cls-12,.cls-2,.cls-3,.cls-4,.cls-5,.cls-6,.cls-7,.cls-8,.cls-9{fill:none}.cls-2,.cls-3,.cls-4,.cls-5,.cls-6,.cls-7,.cls-8,.cls-9{stroke:#222221}.cls-12,.cls-2,.cls-7,.cls-9{stroke-miterlimit:1.41}.cls-2{stroke-width:.51px}.cls-3,.cls-8{stroke-miterlimit:1.4}.cls-3{stroke-width:.3px}.cls-4,.cls-5,.cls-6{stroke-miterlimit:10}.cls-4{stroke-width:.5px}.cls-5{stroke-width:.51px}.cls-6{stroke-width:.4px}.cls-7{stroke-width:.3px}.cls-12,.cls-8,.cls-9{stroke-width:.25px}.cls-10{fill:#222221}.cls-12{stroke:#20201f}.cls-13,.cls-14{fill:#20201f}.cls-14{font-size:7px;font-family:Fakt-Normal,Fakt}</style></defs><path fill="#fff" d="M19.73 17.05v116.22h4.25v13.05h.4v1.12h6.1v-1.12h.41v-13.05h119.4v13.05h.41v1.12h6.1v-1.12h.41v-13.05h4.25V17.05H19.73z" id="Riempimento"/><g id="Ranges"><path class="cls-2" d="M36.78 64.18h50.93a1.37 1.37 0 011.46 1.25v26.4a1.37 1.37 0 01-1.46 1.26H36.78a1.37 1.37 0 01-1.46-1.26v-26.4a1.37 1.37 0 011.46-1.25z"/><path class="cls-3" d="M22.56 54.43h79.37v4.54H22.56z"/><path class="cls-2" d="M120.06 64.18h26.11c.41 0 .75.56.75 1.25v26.4c0 .7-.34 1.26-.75 1.26h-26.11c-.42 0-.75-.56-.75-1.26v-26.4c0-.69.33-1.25.75-1.25z"/><path class="cls-3" d="M108.03 54.43h50.17v4.54h-50.17z"/><path class="cls-4" d="M150.7 146.28h6.1v1.12h-6.1zm-.4-13.05h6.91v13.05h-6.91zM24.38 146.28h6.1v1.12h-6.1zm-.4-13.05h6.91v13.05h-6.91zM19.73 17.01h141.73v116.22H19.73z"/><path class="cls-5" d="M19.73 25.51h141.73M19.73 31.18h141.73"/><path class="cls-6" d="M47.91 38.2A3.06 3.06 0 1151 41.26a3.06 3.06 0 01-3.09-3.06z"/><path class="cls-3" d="M50.97 35.35v.94"/><path class="cls-7" d="M50.04 41.12v-5.83m1.86 5.83v-5.83"/><path class="cls-6" d="M58.56 38.2a3.06 3.06 0 113.06 3.06 3.06 3.06 0 01-3.06-3.06z"/><path class="cls-3" d="M61.62 35.35v.94"/><path class="cls-7" d="M60.69 41.12v-5.83m1.86 5.83v-5.83"/><path class="cls-6" d="M69.21 38.2a3.06 3.06 0 113.06 3.06 3.06 3.06 0 01-3.06-3.06z"/><path class="cls-3" d="M72.27 35.35v.94"/><path class="cls-7" d="M71.34 41.12v-5.83m1.86 5.83v-5.83"/><path class="cls-6" d="M79.86 38.2a3.06 3.06 0 113.06 3.06 3.06 3.06 0 01-3.06-3.06z"/><path class="cls-3" d="M82.92 35.35v.94"/><path class="cls-7" d="M81.99 41.12v-5.83m1.86 5.83v-5.83"/><path class="cls-6" d="M90.52 38.2a3.06 3.06 0 113 3.06 3 3 0 01-3-3.06z"/><path class="cls-3" d="M93.57 35.35v.94"/><path class="cls-7" d="M92.64 41.12v-5.83m1.86 5.83v-5.83"/><path class="cls-6" d="M101.17 38.2a3.06 3.06 0 113 3.06 3.06 3.06 0 01-3-3.06z"/><path class="cls-3" d="M104.22 35.35v.94"/><path class="cls-7" d="M103.29 41.12v-5.83m1.86 5.83v-5.83"/><path class="cls-6" d="M111.82 38.2a3.06 3.06 0 113.06 3.06 3.06 3.06 0 01-3.06-3.06z"/><path class="cls-3" d="M114.87 35.35v.94"/><path class="cls-7" d="M113.95 41.12v-5.83m1.86 5.83v-5.83"/><path class="cls-6" d="M122.47 38.2a3.06 3.06 0 113.06 3.06 3.06 3.06 0 01-3.06-3.06z"/><path class="cls-3" d="M125.53 35.35v.94"/><path class="cls-7" d="M124.6 41.12v-5.83m1.86 5.83v-5.83"/><path class="cls-6" d="M133.12 38.2a3.06 3.06 0 113.06 3.06 3.06 3.06 0 01-3.06-3.06z"/><path class="cls-3" d="M136.18 35.35v.94"/><path class="cls-7" d="M135.25 41.12v-5.83m1.86 5.83v-5.83"/><path class="cls-6" d="M143.77 38.2a3.06 3.06 0 113.06 3.06 3.06 3.06 0 01-3.06-3.06z"/><path class="cls-3" d="M146.83 35.35v.94"/><path class="cls-7" d="M145.9 41.12v-5.83m1.86 5.83v-5.83"/><rect class="cls-6" x="32.48" y="34.56" width="10.94" height="7.3" rx="1.82"/><path class="cls-8" d="M34 40.15a.49.49 0 11.48.49.49.49 0 01-.48-.49zm1.75 0a.48.48 0 01.48-.48.49.49 0 110 1 .48.48 0 01-.48-.52zm1.78 0a.49.49 0 11.49.49.49.49 0 01-.49-.49z"/><path class="cls-9" d="M39.32 40.15a.49.49 0 11.49.49.49.49 0 01-.49-.49zm1.79 0a.49.49 0 11.49.49.49.49 0 01-.49-.49z"/><rect class="cls-8" x="34.88" y="36.2" width="5.96" height="1.84" rx=".61"/><path class="cls-10" d="M70.01 21.53H29.93v3.98h1.31v-2.59h2.35v2.59h1.3v-2.59h14.57v2.59h1.02v-2.59h13.3v2.59h1.3v-2.59h3.63v2.59h1.3v-3.98zm40.62 0H70.55v3.98h1.31v-2.59h2.35v2.59h1.3v-2.59h14.57v2.59h1.02v-2.59h13.3v2.59h1.3v-2.59h3.63v2.59h1.3v-3.98zm40.62 0h-40.08v3.98h1.31v-2.59h2.35v2.59h1.3v-2.59h14.57v2.59h1.02v-2.59h13.3v2.59h1.3v-2.59h3.63v2.59h1.3v-3.98z"/><path class="cls-5" d="M19.73 46.64h141.73M19.73 111.97h141.73M19.73 48.76h141.73"/><rect class="cls-4" x="19.73" y="52.16" width="85.04" height="57.81" rx=".29"/><rect class="cls-4" x="104.77" y="52.16" width="56.69" height="57.81" rx=".29"/></g><g id="Dimensions"><path d="M24.29 147.4H11.34m8.5-14.17h-8.5m8.5-116.22h-8.5m8.5 8.5h-8.5" stroke="#20201f" stroke-width=".25" stroke-miterlimit="1.41" fill="#fff"/><path class="cls-12" d="M14.17 25.78v107.18"/><path class="cls-13" d="M13.15 26.61l.18.17.84-.9.84.9.19-.17-1.03-1.1-1.02 1.1zm0 105.52l.18-.17.84.9.84-.9.19.17-1.03 1.1-1.02-1.1z"/><path class="cls-12" d="M14.17 133.23v14.17"/><text class="cls-14" transform="rotate(-90 81.495 71.575)">100รท160</text><text class="cls-14" transform="rotate(-90 47.625 37.705)">760</text><text class="cls-14" transform="rotate(-90 11.2 1.28)">60</text><path class="cls-12" d="M14.17 8.5v8.24"/><path class="cls-13" d="M13.15 15.91l.18-.17.84.9.84-.9.19.17-1.03 1.1-1.02-1.1z"/><path class="cls-12" d="M14.17 25.51v-8.5"/><path d="M19.77 17.01V8.5m141.73 8.51V8.5" stroke-width=".25" stroke-miterlimit="1.41" stroke="#222221" fill="#fff"/><path class="cls-9" d="M161.19 11.34H20.04"/><path class="cls-10" d="M160.36 10.32l-.17.18.9.84-.9.84.17.18 1.1-1.02-1.1-1.02zm-139.49 0l.17.18-.9.84.9.84-.17.18-1.1-1.02 1.1-1.02z"/><path class="cls-9" d="M14.17 147.67v5.4"/><path class="cls-10" d="M13.15 148.5l.18.17.84-.9.84.9.19-.17-1.03-1.1-1.02 1.1z"/><text transform="translate(82.66 7.06)" font-size="7" font-family="Fakt-Normal,Fakt" fill="#222221">1000</text></g></svg>