<svg id="Livello_1" data-name="Livello 1" xmlns="http://www.w3.org/2000/svg" viewBox="0 0 188.15 105.92"><defs><style>.cls-1{fill:#1a1b19}.cls-2{fill:#1e1e1c}.cls-3,.cls-4{fill:none;stroke:#010101;stroke-miterlimit:10}.cls-3{stroke-width:.25px}.cls-4{stroke-width:.1px}</style></defs><path class="cls-1" d="M32.32 59.23a8.51 8.51 0 108.57 8.5 8.53 8.53 0 00-8.57-8.5m0 13.18A4.68 4.68 0 1137 67.73a4.69 4.69 0 01-4.71 4.68m0-1.49a3.19 3.19 0 113.21-3.19 3.2 3.2 0 01-3.21 3.19m6.34-42.29a6.42 6.42 0 11-6.42-6.38 6.4 6.4 0 016.42 6.38"/><path class="cls-2" d="M12.78 9.29v38.82h39.09V9.29zM49.14 44a1.88 1.88 0 01-1.89 1.87H17.39A1.88 1.88 0 0115.51 44V13.41a1.88 1.88 0 011.88-1.87h29.86a1.88 1.88 0 011.89 1.87z"/><path class="cls-2" d="M15.47 34.23h.62a1.39 1.39 0 001.21-.69l2.41-4.15a1.36 1.36 0 000-1.38l-2.41-4.15a1.39 1.39 0 00-1.21-.69h-.62m-.13 1.28a1.42 1.42 0 011.21.69L18.21 28a1.36 1.36 0 010 1.38l-1.66 2.87a1.4 1.4 0 01-1.21.67h.22M27 11.4l1.54 2.65a1.55 1.55 0 001.35.77h4.87a1.55 1.55 0 001.35-.77l1.54-2.65m-1.54 0l-.77 1.33a1.57 1.57 0 01-1.34.77h-3.34a1.57 1.57 0 01-1.35-.77l-.77-1.33m9.02 34.48l-1.45-2.5a1.56 1.56 0 00-1.35-.78h-4.87a1.56 1.56 0 00-1.35.78l-1.45 2.5m1.53 0l.69-1.18a1.55 1.55 0 011.35-.77H34a1.55 1.55 0 011.35.77l.65 1.18"/><path class="cls-2" transform="rotate(90 32.325 28.715)" d="M18.44 27.97h27.77v1.5H18.44z"/><path class="cls-2" d="M49.19 23.17h-.62a1.39 1.39 0 00-1.21.69L45 28a1.36 1.36 0 000 1.38l2.41 4.15a1.39 1.39 0 001.21.69h.62m.07-1.22a1.41 1.41 0 01-1.2-.69l-1.67-2.87a1.41 1.41 0 010-1.38l1.67-2.87a1.39 1.39 0 011.2-.67h-.21"/><path class="cls-2" d="M18.39 27.95H46.2v1.49H18.39zm33.48 59.13V48.26H12.78v38.82zM49.14 83a1.88 1.88 0 01-1.89 1.87H17.39A1.88 1.88 0 0115.51 83V52.38a1.88 1.88 0 011.88-1.87h29.86a1.88 1.88 0 011.89 1.87z"/><path class="cls-2" d="M15.47 73.2h.62a1.39 1.39 0 001.21-.69l2.41-4.15a1.36 1.36 0 000-1.38l-2.41-4.15a1.39 1.39 0 00-1.21-.69h-.62m.09 1.3h-.22a1.4 1.4 0 011.21.67L18.21 67a1.36 1.36 0 010 1.38l-1.66 2.87a1.42 1.42 0 01-1.21.69M37.65 85l-1.54-2.65a1.55 1.55 0 00-1.35-.77h-4.87a1.55 1.55 0 00-1.35.77L27 85m1.54 0l.77-1.32a1.56 1.56 0 011.35-.78H34a1.56 1.56 0 011.35.78l.76 1.32m-9.02-34.51L28.54 53a1.56 1.56 0 001.35.78h4.87a1.56 1.56 0 001.35-.78l1.45-2.5m-1.54 0l-.68 1.18a1.55 1.55 0 01-1.35.77h-3.33a1.55 1.55 0 01-1.35-.77l-.69-1.18"/><path class="cls-2" transform="rotate(-90 32.325 67.655)" d="M18.44 66.9h27.77v1.5H18.44z"/><path class="cls-2" d="M49.19 62.14h-.62a1.39 1.39 0 00-1.21.69L45 67a1.36 1.36 0 000 1.38l2.41 4.15a1.39 1.39 0 001.21.69h.62m-.09-1.3h.21a1.39 1.39 0 01-1.2-.67l-1.67-2.87a1.41 1.41 0 010-1.38l1.67-2.87a1.41 1.41 0 011.2-.69"/><path class="cls-2" d="M18.39 66.92H46.2v1.49H18.39z"/><path class="cls-1" d="M75.93 67.68a4.28 4.28 0 11-4.28-4.25 4.26 4.26 0 014.28 4.25m2.14-39.05a6.42 6.42 0 11-6.42-6.38 6.4 6.4 0 016.42 6.38"/><path class="cls-2" d="M52.2 9.29v38.82h39.08V9.29zM88.55 44a1.88 1.88 0 01-1.88 1.87H56.81A1.88 1.88 0 0154.92 44V13.41a1.88 1.88 0 011.89-1.87h29.86a1.88 1.88 0 011.88 1.87z"/><path class="cls-2" d="M54.88 34.23h.63a1.39 1.39 0 001.2-.69l2.41-4.15a1.36 1.36 0 000-1.38l-2.41-4.15a1.39 1.39 0 00-1.2-.69h-.63m-.12 1.28a1.41 1.41 0 011.2.69L57.63 28a1.36 1.36 0 010 1.38L56 32.26a1.39 1.39 0 01-1.2.67h.2M66.41 11.4L68 14.05a1.57 1.57 0 001.35.77h4.87a1.55 1.55 0 001.35-.77l1.54-2.65m-1.54 0l-.77 1.33a1.57 1.57 0 01-1.35.77h-3.38a1.59 1.59 0 01-1.35-.77L68 11.4m9 34.48l-1.46-2.5a1.56 1.56 0 00-1.35-.78H69.3a1.57 1.57 0 00-1.35.78l-1.45 2.5m1.54 0l.68-1.18a1.57 1.57 0 011.35-.77h3.33a1.55 1.55 0 011.35.77l.69 1.18"/><path class="cls-2" transform="rotate(90 71.74 28.72)" d="M57.85 27.97h27.77v1.5H57.85z"/><path class="cls-2" d="M88.61 23.17H88a1.37 1.37 0 00-1.2.69L84.36 28a1.36 1.36 0 000 1.38l2.42 4.15a1.37 1.37 0 001.2.69h.63m.12-1.22a1.42 1.42 0 01-1.21-.69l-1.66-2.87a1.36 1.36 0 010-1.38l1.66-2.87a1.4 1.4 0 011.21-.67h-.22"/><path class="cls-2" d="M57.8 27.95h27.81v1.49H57.8zm33.48 59.13V48.26H52.2v38.82zM88.55 83a1.88 1.88 0 01-1.88 1.87H56.81A1.88 1.88 0 0154.92 83V52.38a1.88 1.88 0 011.89-1.87h29.86a1.88 1.88 0 011.88 1.87z"/><path class="cls-2" d="M54.88 73.2h.63a1.39 1.39 0 001.2-.69l2.41-4.15a1.36 1.36 0 000-1.38l-2.41-4.15a1.39 1.39 0 00-1.2-.69h-.63m.09 1.3h-.21a1.39 1.39 0 011.2.67L57.63 67a1.36 1.36 0 010 1.38L56 71.23a1.41 1.41 0 01-1.2.69M77.06 85l-1.54-2.65a1.55 1.55 0 00-1.35-.77H69.3a1.57 1.57 0 00-1.35.77L66.41 85M68 85l.77-1.32a1.57 1.57 0 011.35-.78h3.28a1.56 1.56 0 011.35.78l.77 1.32M66.5 50.49L68 53a1.57 1.57 0 001.35.78h4.87a1.56 1.56 0 001.3-.78L77 50.49m-1.54 0l-.69 1.18a1.55 1.55 0 01-1.35.77h-3.35a1.57 1.57 0 01-1.35-.77L68 50.49"/><path class="cls-2" transform="rotate(-90 71.74 67.65)" d="M57.85 66.9h27.77v1.5H57.85z"/><path class="cls-2" d="M88.61 62.14H88a1.37 1.37 0 00-1.2.69L84.36 67a1.36 1.36 0 000 1.38l2.42 4.15a1.37 1.37 0 001.2.69h.63m-.1-1.3h.22a1.4 1.4 0 01-1.21-.67l-1.66-2.87a1.36 1.36 0 010-1.38l1.66-2.87a1.42 1.42 0 011.21-.69"/><path class="cls-2" d="M57.8 66.92h27.81v1.49H57.8z"/><path class="cls-1" d="M115.35 67.68a4.28 4.28 0 11-4.28-4.25 4.27 4.27 0 014.28 4.25m2.14-39.05a6.43 6.43 0 11-6.42-6.38 6.41 6.41 0 016.42 6.38"/><path class="cls-2" d="M91.61 9.29v38.82h39.08V9.29zM128 44a1.88 1.88 0 01-1.89 1.87H96.22A1.88 1.88 0 0194.33 44V13.41a1.88 1.88 0 011.89-1.87h29.86a1.88 1.88 0 011.92 1.87z"/><path class="cls-2" d="M94.29 34.23h.63a1.37 1.37 0 001.2-.69l2.42-4.15a1.41 1.41 0 000-1.38l-2.42-4.15a1.37 1.37 0 00-1.2-.69h-.63m-.12 1.28a1.42 1.42 0 011.21.69L97 28a1.36 1.36 0 010 1.38l-1.66 2.87a1.4 1.4 0 01-1.21.67h.22m11.48-21.52l1.54 2.65a1.55 1.55 0 001.35.77h4.87a1.57 1.57 0 001.35-.77l1.53-2.65m-1.53 0l-.77 1.33a1.59 1.59 0 01-1.35.77h-3.33a1.56 1.56 0 01-1.35-.77l-.77-1.33m9.02 34.48l-1.45-2.5a1.57 1.57 0 00-1.35-.78h-4.87a1.56 1.56 0 00-1.35.78l-1.46 2.5m1.54 0l.69-1.18a1.54 1.54 0 011.35-.77h3.33a1.57 1.57 0 011.35.77l.68 1.18"/><path class="cls-2" transform="rotate(90 111.15 28.72)" d="M97.27 27.97h27.77v1.5H97.27z"/><path class="cls-2" d="M128 23.17h-.63a1.39 1.39 0 00-1.2.69L123.78 28a1.36 1.36 0 000 1.38l2.41 4.15a1.39 1.39 0 001.2.69h.61m.12-1.28a1.4 1.4 0 01-1.2-.69l-1.67-2.87a1.36 1.36 0 010-1.38l1.67-2.87a1.38 1.38 0 011.2-.67h-.21"/><path class="cls-2" d="M97.22 27.95h27.81v1.49H97.22zm33.47 59.13V48.26H91.61v38.82zM128 83a1.88 1.88 0 01-1.89 1.87H96.22A1.88 1.88 0 0194.33 83V52.38a1.88 1.88 0 011.89-1.87h29.86a1.88 1.88 0 011.92 1.87z"/><path class="cls-2" d="M94.29 73.2h.63a1.37 1.37 0 001.2-.69l2.42-4.15a1.41 1.41 0 000-1.38l-2.42-4.15a1.37 1.37 0 00-1.2-.69h-.63m.1 1.3h-.22a1.4 1.4 0 011.21.67L97 67a1.36 1.36 0 010 1.38l-1.66 2.87a1.42 1.42 0 01-1.21.69M116.47 85l-1.53-2.65a1.57 1.57 0 00-1.35-.77h-4.87a1.55 1.55 0 00-1.35.77L105.83 85m1.54 0l.77-1.32a1.55 1.55 0 011.35-.78h3.33a1.57 1.57 0 011.35.78l.77 1.32m-9.03-34.51l1.46 2.5a1.56 1.56 0 001.35.78h4.87a1.57 1.57 0 001.35-.78l1.45-2.5m-1.54 0l-.68 1.18a1.57 1.57 0 01-1.35.77h-3.33a1.54 1.54 0 01-1.35-.77l-.69-1.18"/><path class="cls-2" transform="rotate(-90 111.15 67.65)" d="M97.27 66.9h27.77v1.5H97.27z"/><path class="cls-2" d="M128 62.14h-.63a1.39 1.39 0 00-1.2.69L123.78 67a1.36 1.36 0 000 1.38l2.41 4.15a1.39 1.39 0 001.2.69h.61m-.09-1.3h.21a1.38 1.38 0 01-1.2-.67l-1.67-2.87a1.36 1.36 0 010-1.38l1.67-2.87a1.4 1.4 0 011.2-.69"/><path class="cls-2" d="M97.22 66.92h27.81v1.49H97.22z"/><path class="cls-1" d="M150.59 59.15a8.51 8.51 0 108.56 8.5 8.54 8.54 0 00-8.56-8.5m0 13.18a4.68 4.68 0 114.71-4.68 4.69 4.69 0 01-4.71 4.68m0-1.49a3.19 3.19 0 113.21-3.19 3.2 3.2 0 01-3.21 3.19m6.31-42.21a6.42 6.42 0 11-6.42-6.38 6.4 6.4 0 016.42 6.38"/><path class="cls-2" d="M131 9.29v38.82h39.09V9.29zM167.38 44a1.88 1.88 0 01-1.88 1.87h-29.87a1.88 1.88 0 01-1.88-1.87V13.41a1.88 1.88 0 011.88-1.87h29.87a1.88 1.88 0 011.88 1.87z"/><path class="cls-2" d="M133.71 34.23h.62a1.39 1.39 0 001.21-.69l2.46-4.15a1.36 1.36 0 000-1.39l-2.41-4.15a1.39 1.39 0 00-1.21-.69h-.62m-.12 1.28a1.41 1.41 0 011.2.69l1.62 2.87a1.41 1.41 0 010 1.38l-1.67 2.87a1.39 1.39 0 01-1.2.67h.21m11.44-21.52l1.54 2.65a1.55 1.55 0 001.35.77H153a1.55 1.55 0 001.35-.77l1.54-2.65m-1.54 0l-.77 1.33a1.57 1.57 0 01-1.35.77h-3.33a1.57 1.57 0 01-1.35-.77l-.77-1.33m9.02 34.48l-1.45-2.5a1.56 1.56 0 00-1.35-.78h-4.87a1.56 1.56 0 00-1.35.78l-1.45 2.5m1.53 0l.69-1.18a1.55 1.55 0 011.35-.77h3.33a1.55 1.55 0 011.35.77l.69 1.18"/><path class="cls-2" transform="rotate(90 150.565 28.715)" d="M136.68 27.97h27.77v1.5h-27.77z"/><path class="cls-2" d="M167.43 23.17h-.62a1.39 1.39 0 00-1.21.69L163.19 28a1.36 1.36 0 000 1.38l2.41 4.15a1.39 1.39 0 001.21.69h.62m.13-1.28a1.42 1.42 0 01-1.21-.69l-1.66-2.87a1.36 1.36 0 010-1.38l1.66-2.87a1.4 1.4 0 011.21-.67h-.22"/><path class="cls-2" d="M136.63 27.95h27.81v1.49h-27.81zm33.48 59.13V48.26H131v38.82zM167.38 83a1.88 1.88 0 01-1.88 1.87h-29.87a1.88 1.88 0 01-1.88-1.87V52.38a1.88 1.88 0 011.88-1.87h29.87a1.88 1.88 0 011.88 1.87z"/><path class="cls-2" d="M133.71 73.2h.62a1.39 1.39 0 001.21-.69l2.46-4.15a1.36 1.36 0 000-1.36l-2.41-4.15a1.39 1.39 0 00-1.21-.69h-.62m.09 1.3h-.21a1.39 1.39 0 011.2.67l1.62 2.87a1.41 1.41 0 010 1.38l-1.67 2.87a1.41 1.41 0 01-1.2.69M155.89 85l-1.54-2.65a1.55 1.55 0 00-1.35-.77h-4.87a1.55 1.55 0 00-1.35.77L145.24 85m1.54 0l.77-1.32a1.56 1.56 0 011.35-.78h3.33a1.56 1.56 0 011.35.78l.77 1.32m-9.02-34.51l1.45 2.5a1.56 1.56 0 001.35.78H153a1.56 1.56 0 001.35-.78l1.45-2.5m-1.53 0l-.69 1.18a1.55 1.55 0 01-1.35.77h-3.33a1.55 1.55 0 01-1.35-.77l-.69-1.18"/><path class="cls-2" transform="rotate(-90 150.565 67.655)" d="M136.68 66.9h27.77v1.5h-27.77z"/><path class="cls-2" d="M167.43 62.14h-.62a1.39 1.39 0 00-1.21.69L163.19 67a1.36 1.36 0 000 1.38l2.41 4.15a1.39 1.39 0 001.21.69h.62m-.09-1.3h.22a1.4 1.4 0 01-1.21-.67l-1.66-2.87a1.36 1.36 0 010-1.38l1.66-2.87a1.42 1.42 0 011.21-.69"/><path class="cls-2" d="M136.63 66.92h27.81v1.49h-27.81z"/><path class="cls-3" d="M8.38 5.79h166.13v81.7H8.38zm0 86.89c0 3.29 2.17 5.95 4.84 5.95M8.38 87.49v5.19"/><path class="cls-4" d="M174.51 92.13a4.79 4.79 0 01-4.82 4.76h-3.09"/><path class="cls-3" d="M174.51 92.68v-5.19"/><path class="cls-4" d="M8.38 92.14a4.77 4.77 0 004.8 4.75h7.27"/><ellipse class="cls-4" cx="25.01" cy="97.33" rx="3.51" ry=".66"/><ellipse class="cls-4" cx="25.01" cy="97.18" rx="4.56" ry=".88"/><path class="cls-4" d="M20.45 97.18V93.7c0-.45 2-.81 4.56-.81s4.55.36 4.55.81v.44c.42-.14.66-.31.66-.49 0-.55-2.32-1-5.18-1s-5.18.44-5.18 1c0 .17.21.33.59.47"/><ellipse class="cls-4" cx="40.7" cy="97.33" rx="3.51" ry=".66"/><ellipse class="cls-4" cx="40.7" cy="97.18" rx="4.56" ry=".88"/><path class="cls-4" d="M36.14 97.18V93.7c0-.45 2-.81 4.56-.81s4.56.36 4.56.81v.44c.41-.14.65-.31.65-.49 0-.55-2.32-1-5.18-1s-5.18.44-5.18 1c0 .17.22.33.59.47"/><ellipse class="cls-4" cx="56.39" cy="97.33" rx="3.51" ry=".66"/><ellipse class="cls-4" cx="56.39" cy="97.18" rx="4.56" ry=".88"/><path class="cls-4" d="M51.83 97.18V93.7c0-.45 2.05-.81 4.56-.81s4.56.36 4.56.81v.44c.42-.14.65-.31.65-.49 0-.55-2.32-1-5.18-1s-5.17.44-5.17 1c0 .17.21.33.59.47"/><ellipse class="cls-4" cx="72.09" cy="97.33" rx="3.51" ry=".66"/><ellipse class="cls-4" cx="72.09" cy="97.18" rx="4.56" ry=".88"/><path class="cls-4" d="M67.53 97.18V93.7c0-.45 2-.81 4.56-.81s4.55.36 4.55.81v.44c.42-.14.66-.31.66-.49 0-.55-2.32-1-5.18-1s-5.18.44-5.18 1c0 .17.21.33.59.47"/><ellipse class="cls-4" cx="87.78" cy="97.33" rx="3.51" ry=".66"/><ellipse class="cls-4" cx="87.78" cy="97.18" rx="4.56" ry=".88"/><path class="cls-4" d="M83.22 97.18V93.7c0-.45 2-.81 4.56-.81s4.56.36 4.56.81v.44c.41-.14.65-.31.65-.49 0-.55-2.32-1-5.18-1s-5.18.44-5.18 1c0 .17.22.33.59.47"/><ellipse class="cls-4" cx="103.47" cy="97.33" rx="3.51" ry=".66"/><ellipse class="cls-4" cx="103.47" cy="97.18" rx="4.56" ry=".88"/><path class="cls-4" d="M98.92 97.18V93.7c0-.45 2-.81 4.55-.81s4.56.36 4.56.81v.44c.42-.14.65-.31.65-.49 0-.55-2.32-1-5.18-1s-5.17.44-5.17 1c0 .17.21.33.59.47"/><ellipse class="cls-4" cx="119.17" cy="97.33" rx="3.51" ry=".66"/><ellipse class="cls-4" cx="119.17" cy="97.18" rx="4.56" ry=".88"/><path class="cls-4" d="M114.61 97.18V93.7c0-.45 2-.81 4.56-.81s4.55.36 4.55.81v.44c.42-.14.66-.31.66-.49 0-.55-2.32-1-5.18-1s-5.18.44-5.18 1c0 .17.21.33.59.47"/><ellipse class="cls-4" cx="134.86" cy="97.33" rx="3.51" ry=".66"/><ellipse class="cls-4" cx="134.86" cy="97.18" rx="4.56" ry=".88"/><path class="cls-4" d="M130.3 97.18V93.7c0-.45 2-.81 4.56-.81s4.56.36 4.56.81v.44c.41-.14.65-.31.65-.49 0-.55-2.32-1-5.18-1s-5.18.44-5.18 1c0 .17.22.33.59.47"/><path class="cls-3" d="M174.51 92.68c0 3.29-2.17 5.95-4.84 5.95H13.14"/><path class="cls-4" d="M156.68 95.7h-6.01v-4.03h16.09v4.03h-5.97"/><ellipse class="cls-4" cx="158.74" cy="97.56" rx="1.6" ry=".42"/><ellipse class="cls-4" cx="158.74" cy="97.47" rx="2.08" ry=".56"/><path class="cls-4" d="M156.66 97.47v-2.23c0-.29.93-.52 2.08-.52s2.08.23 2.08.52v.28m5.78 1.37h-5.78m-4.16.01h-17.24m-9.13 0h-6.57m-9.11 0h-6.58m-9.11 0h-6.58m-9.12 0h-6.58m-9.11 0h-6.58m-9.12 0h-6.57m-9.12 0h-6.58"/></svg>