<svg id="Livello_1" data-name="Livello 1" xmlns="http://www.w3.org/2000/svg" viewBox="0 0 239.41 188.76"><defs><style>.cls-3,.cls-4,.cls-6{fill:none}.cls-4{stroke-width:.25px}.cls-2{font-size:7px;font-family:Fakt-Normal,Fakt}.cls-2,.cls-5{fill:#1a1b19}.cls-3{stroke:#1d1d1b;stroke-miterlimit:10}.cls-3,.cls-6{stroke-width:.1px}.cls-4,.cls-6{stroke:#1a1b19;stroke-miterlimit:1.41}</style></defs><path d="M21.52 76.36h1.08m172.15 0h1.07M34.14 73.67h-1.08m1.08 0v2.87m0 0h-1.08m0-2.87v2.87m151.23-2.87h-1.08m1.08 2.87h-1.08m1.08-2.87v2.87m-1.08-2.87v2.87m-161.69-2v-9m0 0v-.12l.08-.11.14-.11.19-.11.27-.09.28-.1.33-.09.37-.08.41-.07.41-.06h2.51m0 0v9m0 0h-2.47l-.44.06-.41.08-.37.08-.33.09-.28.1-.24.1-.19.11-.14.11-.08.12v.12m114-1.12h-109m109 3.11v-3.13m-1.07 3.11h1.07m-1.07-2.87v2.87m0-2.87H26.54m0 0H24.3l-.38.07-.33.08-.29.08-.25.09-.2.1-.14.1-.08.1v.11m0 1.8v-1.8m-1.08 1.8h1.05m-1.08 0v-1.8m18.6-6.92h-.65l-.3-.09-.3-.12-.29-.15-.26-.12-.24-.21-.22-.24m2.26 1.06h95.43m0 5.8v-5.8m-100.8-3.16h-8.21M37 65.51l-.22-.23-.24-.21-.26-.18-.28-.16-.31-.12-.31-.09h-.64m2.26.99l.85 1.06m-16.33 9.79h0m1.08 0h0M136.27 65v2.59m0 8.91v46.67m50.17 0v-49.5m-50.17 49.54h50.17M180.83 65h-44.56M30.91 123.21h104.64M30.91 73.67v49.54M135.55 65h-99m99 58.17V76.54m0-8.91V65m50.89 80.85v-22m-155.53 0v22m0 0h155.53m0-22H30.91M172.89 61h15.05m0-22.7h-15.05m0 0V61m15.05 0V38.3m2.87 35.13v-9m0 0h2.51l.44.07.41.07.37.08.33.09.28.1.25.11.18.11.14.11.08.11v.12m0 0v9m0 0v-.12l-.08-.12-.14-.11-.18-.11-.25-.1-.28-.1-.33-.09-.37-.08-.41-.08-.44-.06h-2.51m0 0h-54.54m0-5.8h41m2.26-1.06l-.22.24-.31.19-.26.18-.28.15-.3.12-.32.09h-.64m2.26-1.06l.86-1.06m2.25-1.06h-.64l-.31.09-.3.12-.29.16-.26.18-.24.21-.21.23m10.46-1.06h-8.18m-46.33 3.18v5.8m58.48 1.12v-.11l-.08-.1-.14-.1-.2-.1-.24-.09-.3-.08-.34-.08-.37-.07h-2.24m0 0h-53.5m0 2.87v-2.86m0 2.87h-1.07m59.55-.19v-1.8m-1.07 1.8h1.07m-1.07 0v-1.8m-58.48-1.12v3.11m59.55-.19h0m-1.07 0h0M21.52 63.5V36.91m0 0h5m0 0v25.47m0 0h-2.04l-.47.05-.44.07-.41.07-.37.08-.33.09-.28.1L22 63l-.19.11-.14.12-.08.11v.12m174.3 1.4h-1M181 64.9H36.31m-13.79 0h-1m0 0v-1.4m169.29-1.12H26.54m169.28 1.12v-.12l-.08-.11-.14-.12-.2-.15-.25-.1-.28-.1-.33-.09-.37-.08-.41-.07-.44-.07-.47-.05h-2.04m5 2.52V63.5m-5-1.12V36.91m0 0h5m0 0V63.5m-5-26.59H26.54M172.89 61h15.05m0 0V38.3m0 0h-15.05m0 0V61m22.93 85v19.84M187.15 146h8.67m-7.16 19.84L187.15 146m8.67 19.84h-7.16m-160 0L30.2 146m-8.68 19.84h7.17M21.52 146v19.84M30.2 146h-8.68m.59-81h-.59m8.68 80.85h-8.68m0-80.85v.53m0 10.79v69.53m8.68-72.18v72.22M195.82 65h-.59m.59 80.85h-8.67M195.82 65v.53m0 10.79v69.53m-8.67-72.22v72.22M135.55 65h.72M30.2 145.89h.71m155.53 0h.71" stroke-width=".25" stroke="#000" stroke-linecap="round" stroke-linejoin="round" fill="none"/><text class="cls-2" transform="translate(100.74 25.18)">1216</text><circle class="cls-3" cx="37.86" cy="49.53" r="5.11"/><ellipse class="cls-3" cx="37.86" cy="48.84" rx="4.36" ry="4.41"/><circle class="cls-3" cx="37.86" cy="48.74" r="3.33"/><path class="cls-3" d="M37.33 44.47l.29.43h.58l.29-.43h-1.16z"/><circle class="cls-3" cx="72.32" cy="49.53" r="5.11"/><ellipse class="cls-3" cx="72.32" cy="48.84" rx="4.36" ry="4.41"/><circle class="cls-3" cx="72.32" cy="48.74" r="3.33"/><path class="cls-3" d="M71.74 44.47l.29.43h.58l.29-.43h-1.16z"/><circle class="cls-3" cx="89.55" cy="49.53" r="5.11"/><ellipse class="cls-3" cx="89.55" cy="48.84" rx="4.36" ry="4.41"/><circle class="cls-3" cx="89.55" cy="48.74" r="3.33"/><path class="cls-3" d="M88.97 44.47l.29.43h.58l.29-.43h-1.16z"/><circle class="cls-3" cx="106.78" cy="49.53" r="5.11"/><ellipse class="cls-3" cx="106.78" cy="48.84" rx="4.36" ry="4.41"/><circle class="cls-3" cx="106.78" cy="48.74" r="3.33"/><path class="cls-3" d="M106.2 44.47l.29.43h.58l.29-.43h-1.16z"/><circle class="cls-3" cx="124.01" cy="49.53" r="5.11"/><ellipse class="cls-3" cx="124.01" cy="48.84" rx="4.36" ry="4.41"/><circle class="cls-3" cx="124.01" cy="48.74" r="3.33"/><path class="cls-3" d="M123.48 44.47l.29.43h.59l.29-.43h-1.17z"/><circle class="cls-3" cx="141.2" cy="49.53" r="5.11"/><ellipse class="cls-3" cx="141.2" cy="48.84" rx="4.36" ry="4.41"/><circle class="cls-3" cx="141.2" cy="48.74" r="3.33"/><path class="cls-3" d="M140.62 44.47l.29.43h.58l.29-.43h-1.16z"/><circle class="cls-3" cx="158.43" cy="49.53" r="5.11"/><ellipse class="cls-3" cx="158.43" cy="48.84" rx="4.36" ry="4.41"/><circle class="cls-3" cx="158.43" cy="48.74" r="3.33"/><path class="cls-3" d="M157.9 44.47l.29.43h.58l.29-.43h-1.16z"/><circle class="cls-3" cx="55.09" cy="49.53" r="5.11"/><ellipse class="cls-3" cx="55.09" cy="48.84" rx="4.36" ry="4.41"/><circle class="cls-3" cx="55.09" cy="48.74" r="3.33"/><path class="cls-3" d="M54.56 44.47l.29.43h.58l.29-.43h-1.16z"/><circle class="cls-3" cx="180.85" cy="56.4" r="2.08"/><path class="cls-3" d="M182.93 56.49v.62a2.08 2.08 0 11-4.16 0v-.62"/><text class="cls-2" transform="rotate(90 67.735 162.155)">910</text><text class="cls-2" transform="rotate(90 82.885 127.085)">198</text><text class="cls-2" transform="rotate(90 55.605 154.015)">571</text><text class="cls-2" transform="rotate(-90 54.66 45.97)">769</text><text class="cls-2" transform="rotate(-90 85.25 76.56)">141</text><path class="cls-4" d="M227.98 37.18V165.6"/><path class="cls-5" d="M226.96 38.01l.18.17.84-.9.84.9.18-.17-1.02-1.1-1.02 1.1zm0 126.76l.18-.17.84.9.84-.9.18.17-1.02 1.1-1.02-1.1z"/><path class="cls-4" d="M10.56 37.41v108.22"/><path class="cls-5" d="M9.54 38.24l.18.17.84-.91.84.91.18-.17-1.02-1.1-1.02 1.1zm0 106.57l.18-.17.84.9.84-.9.18.17-1.02 1.1-1.02-1.1z"/><path class="cls-4" d="M10.56 146.18v19.42"/><path class="cls-5" d="M9.54 147l.18.18.84-.91.84.91.18-.18-1.02-1.09L9.54 147zm0 17.77l.18-.17.84.9.84-.9.18.17-1.02 1.1-1.02-1.1z"/><path class="cls-4" d="M207.69 65.14v80.51"/><path class="cls-5" d="M206.66 65.97l.19.17.84-.9.84.9.18-.17-1.02-1.1-1.03 1.1zm0 78.85l.19-.16.84.9.84-.9.18.16-1.02 1.11-1.03-1.11z"/><path class="cls-4" d="M207.69 37.14V64.6"/><path class="cls-5" d="M206.66 37.97l.19.17.84-.9.84.9.18-.17-1.02-1.1-1.03 1.1zm0 25.8l.19-.17.84.9.84-.9.18.17-1.02 1.1-1.03-1.1z"/><path class="cls-6" d="M212.47 145.87h-16.64m16.64-81h-16.64m34.31 101h-34.31m-174.97 0H7.79M230.14 36.91h-34.31m-174.97 109H6.66M21 36.91H7.79"/><path d="M33.46 35.6h6.88l-.21 1.43h3.9l.41-.72h5.87l.34.72h3.7l-.18-1.43h6.61l-.27 1.43h7.13l-1.05-3.59H27.77l-1.14 3.59h7.09l-.26-1.43zm41.06 0h6.88l-.21 1.43h3.9l.41-.72h5.87l.35.72h3.7l-.19-1.43h6.62l-.28 1.43h7.13l-1.05-3.59H68.83l-1.14 3.59h7.09l-.26-1.43zm41.29 0h6.87l-.2 1.43h3.9l.41-.72h5.87l.34.72h3.7l-.18-1.43h6.61l-.27 1.43h7.13l-1.06-3.59h-38.81l-1.14 3.59h7.08l-.25-1.43zm41 0h6.88l-.2 1.43h3.9l.41-.72h5.87l.34.72h3.7l-.18-1.43h6.61l-.27 1.43H191l-1.06-3.59h-38.81l-1.14 3.59h7.08l-.26-1.43z" fill="#2e2f2f"/><path class="cls-6" d="M21.56 36.95V25.61m174.26 11.26V25.53"/><path class="cls-4" d="M195.55 28.37H21.83"/><path class="cls-5" d="M194.72 27.34l-.16.19.9.84-.9.84.16.18 1.1-1.02-1.1-1.03zm-172.06 0l.17.19-.91.84.91.84-.17.18-1.1-1.02 1.1-1.03z"/></svg>