<svg id="Livello_1" data-name="Livello 1" xmlns="http://www.w3.org/2000/svg" viewBox="0 0 118.34 188.76"><defs><style>.cls-1,.cls-2{fill:none;stroke:#000;stroke-miterlimit:1.41}.cls-1{stroke-width:.25px}.cls-2{stroke-width:.1px}.cls-3{font-size:7px;font-family:Fakt-Normal,Fakt}</style></defs><path class="cls-1" d="M13.89 64.21h78.57v81.92H13.89z"/><path class="cls-1" d="M13.89 36.71h78.57v27.71H13.89zm78.68-.01h4.82l4.85 25.15-9.74 2.39"/><rect class="cls-1" x="99.78" y="43.95" width="2.91" height="9.39" rx=".38" transform="rotate(-11.13 101.249 48.666)"/><rect class="cls-1" x="101.18" y="53.68" width="2.26" height="3.93" rx=".3" transform="rotate(-11.13 102.329 55.661)"/><path class="cls-1" d="M93.22 66.53l9.5-2.33 1.71 9.05-11.29 2.64-.64.15v-6.31l.41-.15.09-2.95.22-.1 9.5-2.33-4.23 1.04m-78.15 101l-6.45.01v-20.02h7.72l-1.27 20.01zm72.47.01l-6.26-.01-1.28-19.96h7.54v19.97z"/><path d="M91.38 33.24l-72.63.21-1 3.37h74.89zm-60.12 3.58h-8.13v-1.54h8.13zm3.34 0l.44-1h2.89l.43 1zm15.19 0h-8.14v-1.54h8.14zm18.9 0h-8.13v-1.54h8.13zm3.3 0l.43-1h2.89l.42 1zm15.2 0h-8.13v-1.54h8.13z"/><path class="cls-2" d="M14.06 36.83V25.37m90.43 149.37V74.54m-7.12-37.71V25.37"/><text class="cls-3" transform="translate(49.75 25.37)">687</text><text class="cls-3" transform="translate(47.47 179.61)">650</text><text class="cls-3" transform="translate(94.5 179.61)">97</text><path class="cls-1" d="M104.22 171.91H93.09"/><path d="M103.39 170.88l-.17.19.9.84-.9.84.17.18 1.1-1.02-1.1-1.03zm-9.48 0l.17.19-.9.84.9.84-.17.18-1.1-1.02 1.1-1.03z"/><path class="cls-1" d="M97.1 28.2H14.33"/><path d="M96.27 27.18l-.17.18.9.84-.9.84.17.18 1.1-1.02-1.1-1.02zm-81.11 0l.17.18-.9.84.9.84-.17.18-1.1-1.02 1.1-1.02z"/><path class="cls-2" d="M13.89 174.74v-9.77m78.92 9.77v-9.24"/><path class="cls-1" d="M92.54 171.91H14.16"/><path d="M91.72 170.88l-.17.19.9.84-.9.84.17.18 1.09-1.02-1.09-1.03zm-76.73 0l.17.19-.9.84.9.84-.17.18-1.1-1.02 1.1-1.03z"/></svg>