<svg xmlns="http://www.w3.org/2000/svg" viewBox="0 0 99.21 99.21"><defs><style>.cls-3,.cls-4{fill:#222221}.cls-4{stroke:#fff;stroke-miterlimit:10;stroke-width:.15px}.cls-5{fill:#fff}</style></defs><g id="Piano" fill="none" stroke="#222221" stroke-linecap="round" stroke-width=".25"><path stroke-linejoin="bevel" d="M7.09 7.09h85.04v85.04H7.09z"/><path d="M9.31 10.03h80.73v79.94H9.31zm-2.22-.72h85.04m-82.82.78l-.58-.78m81.31.78l.58-.78M7.09 92.13l2.22-2.23m82.82 2.23l-2.09-2.23" stroke-linejoin="round"/></g><g id="Bruciatori"><circle class="cls-3" cx="29.48" cy="30.15" r="6.38"/><path class="cls-4" d="M9.35 10.31V50h40.26V10.31zm36.73 36.16h-33.2V13.84h33.2z"/><path class="cls-3" d="M23.17 24.88c-.07-.06-7.17-6.88-7.59-7.27a3.43 3.43 0 01-.79-2v-5.3l.08-.07h.92l.08.07v5.34a2.09 2.09 0 00.56 1.35l7.47 7.1v.11l-.64.67z"/><path class="cls-5" d="M15.79 10.31v5.34a2.12 2.12 0 00.59 1.35l7.47 7.13-.63.67s-7.14-6.8-7.59-7.24a3.36 3.36 0 01-.76-1.91v-5.34h.92m0-.15h-.92l-.15.15v5.34a3.45 3.45 0 00.81 2c.45.41 7.51 7.2 7.59 7.27h.21l.63-.67v-.21l-7.47-7.13a2 2 0 01-.54-1.28v-5.32l-.15-.15z"/><path class="cls-3" d="M35.69 24.88l-.63-.67v-.11l7.47-7.1a2.1 2.1 0 00.56-1.34v-5.35l.08-.07h.92l.08.07v5.34a3.43 3.43 0 01-.79 2c-.45.42-7.52 7.21-7.59 7.27z"/><path class="cls-5" d="M44.09 10.31v5.34a3.36 3.36 0 01-.76 1.91c-.45.42-7.59 7.27-7.59 7.27l-.63-.67L42.58 17a2.12 2.12 0 00.59-1.38v-5.31h.92m0-.15h-.92l-.15.15v5.34a2 2 0 01-.54 1.27L35 24.05v.21l.63.67h.21c.08-.07 7.14-6.86 7.59-7.27a3.44 3.44 0 00.81-2v-5.35l-.15-.15z"/><path class="cls-3" d="M43.17 50.07l-.08-.07v-5.34a2.09 2.09 0 00-.56-1.33l-7.47-7.13v-.1l.63-.67h.1c.07.07 7.14 6.86 7.59 7.27a3.46 3.46 0 01.79 2V50l-.08.07z"/><path class="cls-5" d="M35.74 35.48s7.14 6.85 7.59 7.27a3.31 3.31 0 01.76 1.91V50h-.92v-5.34a2.15 2.15 0 00-.59-1.39c-.26-.23-7.47-7.12-7.47-7.12l.63-.67m.1-.11h-.21l-.63.68v.21c.07.07 7.21 6.89 7.47 7.12a2 2 0 01.53 1.29V50l.15.15h.92l.15-.15v-5.34a3.45 3.45 0 00-.81-2c-.45-.41-7.51-7.2-7.59-7.27z"/><path class="cls-3" d="M14.87 50.07l-.08-.07v-5.34a3.46 3.46 0 01.79-2c.45-.41 7.52-7.2 7.59-7.27h.1l.64.67v.1l-7.47 7.13a2.1 2.1 0 00-.56 1.34V50l-.08.07z"/><path class="cls-5" d="M23.22 35.48l.63.67s-7.21 6.85-7.47 7.12a2.15 2.15 0 00-.59 1.39V50h-.92v-5.34a3.31 3.31 0 01.76-1.91c.45-.42 7.59-7.27 7.59-7.27m-.1-.11c-.08.07-7.14 6.86-7.59 7.27a3.44 3.44 0 00-.81 2V50l.15.15h.92l.15-.15v-5.34a2 2 0 01.54-1.28c.26-.23 7.4-7.05 7.47-7.12v-.21l-.63-.68z"/><path class="cls-3" d="M29.02 16.73l-.08-.08v-6.34l.08-.07h.92l.08.07v6.34l-.08.08h-.92z"/><path class="cls-5" d="M29.94 10.31v6.34H29v-6.34h.92m0-.15H29l-.15.15v6.34l.15.15h.92l.15-.15v-6.34l-.15-.15z"/><path class="cls-3" d="M29.02 50.07l-.08-.07v-6.35l.08-.07h.92l.08.07V50l-.08.07h-.92z"/><path class="cls-5" d="M29.94 43.65V50H29v-6.35h.92m0-.15H29l-.15.15V50l.15.15h.92l.15-.15v-6.35l-.15-.15z"/><path class="cls-3" d="M39.9 30.69l-.07-.08v-.92l.07-.07h9.71l.07.07v.92l-.07.08H39.9z"/><path class="cls-5" d="M49.61 29.69v.93H39.9v-.93h9.71m0-.15H39.9l-.15.15v.93l.15.15h9.71l.15-.15v-.93l-.15-.15z"/><path class="cls-3" d="M9.35 30.69l-.07-.08v-.92l.07-.07h9.71l.07.07v.92l-.07.08H9.35z"/><path class="cls-5" d="M19.06 29.69v.93H9.35v-.93h9.71m0-.15H9.35l-.15.15v.93l.15.15h9.71l.15-.15v-.93l-.15-.15z"/><path class="cls-3" d="M29.48 61.33A8.51 8.51 0 1038 69.84a8.5 8.5 0 00-8.52-8.51zm0 13.19a4.68 4.68 0 114.68-4.68 4.69 4.69 0 01-4.68 4.68zm0-1.49a3.19 3.19 0 113.19-3.19A3.19 3.19 0 0129.48 73z"/><path class="cls-4" d="M9.35 50v39.68h40.26V50zm36.73 36.15h-33.2V53.53h33.2z"/><path class="cls-3" d="M23.17 64.57c-.07-.07-7.14-6.86-7.59-7.27a3.46 3.46 0 01-.79-2v-5.38h1.08v5.41a2.09 2.09 0 00.56 1.33l7.47 7.13.06.05-.74.78z"/><path class="cls-5" d="M15.79 50v5.33a2.12 2.12 0 00.59 1.39l7.47 7.12-.63.68s-7.14-6.86-7.59-7.28a3.31 3.31 0 01-.76-1.91V50h.92m.15-.15h-1.22v5.48a3.45 3.45 0 00.81 2c.45.42 7.51 7.21 7.59 7.27l.11.11.1-.11.67-.6.1-.11-.11-.1c-.07-.07-7.21-6.9-7.47-7.13a2 2 0 01-.54-1.29v-5.52z"/><path class="cls-3" d="M35 63.84l.05-.05 7.47-7.13a2.09 2.09 0 00.56-1.33v-5.41h1.08v5.41a3.46 3.46 0 01-.79 2c-.45.41-7.52 7.2-7.59 7.27v.05z"/><path class="cls-5" d="M44.09 50v5.33a3.31 3.31 0 01-.76 1.91c-.45.42-7.59 7.28-7.59 7.28l-.63-.68 7.47-7.12a2.12 2.12 0 00.59-1.39V50h.92m.15-.15H43v5.48a2 2 0 01-.54 1.28c-.26.23-7.4 7.06-7.47 7.13l-.11.1.12.16.63.67.11.11.1-.11c.08-.06 7.14-6.85 7.59-7.27a3.44 3.44 0 00.81-2v-5.55z"/><path class="cls-3" d="M43.09 89.76v-5.41a2.12 2.12 0 00-.56-1.35c-.26-.23-7.47-7.12-7.47-7.12h-.05l.73-.79v.06c.07.07 7.14 6.85 7.59 7.27a3.43 3.43 0 01.79 2v5.42z"/><path class="cls-5" d="M35.74 75.16s7.14 6.85 7.59 7.27a3.36 3.36 0 01.76 1.92v5.33h-.92v-5.33a2.12 2.12 0 00-.59-1.35l-7.47-7.13.63-.67m0-.21l-.11.11-.63.67-.1.11.11.1 7.47 7.13a2 2 0 01.52 1.25v5.47h1.22v-5.48a3.5 3.5 0 00-.81-2c-.45-.41-7.51-7.2-7.59-7.27l-.1-.1z"/><path class="cls-3" d="M14.79 89.76v-5.41a3.44 3.44 0 01.79-2c.45-.42 7.52-7.2 7.59-7.27v-.06l.74.79h-.06s-7.16 6.97-7.42 7.19a2.12 2.12 0 00-.56 1.34v5.41z"/><path class="cls-5" d="M23.22 75.16l.63.67L16.38 83a2.12 2.12 0 00-.59 1.39v5.33h-.92v-5.37a3.36 3.36 0 01.76-1.92c.45-.42 7.59-7.27 7.59-7.27m0-.21l-.11.1c-.08.07-7.14 6.86-7.59 7.27a3.5 3.5 0 00-.81 2v5.49h1.22v-5.46a2 2 0 01.54-1.28L24 75.94l.11-.1-.1-.11-.63-.67-.1-.11z"/><path class="cls-3" d="M28.94 49.92h1.07v6.49h-1.07z"/><path class="cls-5" d="M29.94 50v6.34H29V50h.92m.15-.15h-1.2v6.64h1.22v-6.64z"/><path class="cls-3" d="M28.94 83.26h1.07v6.49h-1.07z"/><path class="cls-5" d="M29.94 83.34v6.34H29v-6.34h.92m.15-.15h-1.2v6.64h1.22v-6.64z"/><path class="cls-3" d="M39.83 69.3h9.85v1.07h-9.85z"/><path class="cls-5" d="M49.61 69.38v.92H39.9v-.92h9.71m.15-.15h-10v1.22h10v-1.22z"/><path class="cls-3" d="M9.28 69.3h9.85v1.07H9.28z"/><path class="cls-5" d="M19.06 69.38v.92H9.35v-.92h9.71m.15-.15H9.2v1.22h10v-1.22z"/><circle class="cls-3" cx="69.87" cy="30.15" r="6.38"/><path class="cls-4" d="M49.75 10.31V50H90V10.31zm36.72 36.16H53.28V13.84h33.19z"/><path class="cls-3" d="M63.56 24.88L56 17.61a3.37 3.37 0 01-.79-2v-5.3l.07-.07h.93l.07.07v5.34a2.09 2.09 0 00.54 1.35l7.48 7.1v.11l-.63.67z"/><path class="cls-5" d="M56.19 10.31v5.34a2.17 2.17 0 00.58 1.35l7.47 7.13-.63.67S56.48 18 56 17.56a3.31 3.31 0 01-.77-1.91v-5.34h.93m0-.15h-.93l-.15.15v5.34a3.46 3.46 0 00.82 2c.44.41 7.51 7.2 7.58 7.27h.21l.63-.67v-.21l-7.47-7.13a2 2 0 01-.54-1.28v-5.32l-.15-.15z"/><path class="cls-3" d="M76.08 24.88l-.63-.67v-.11l7.47-7.1a2 2 0 00.57-1.34v-5.35l.07-.07h.93l.07.07v5.34a3.43 3.43 0 01-.79 2l-7.58 7.27z"/><path class="cls-5" d="M84.49 10.31v5.34a3.45 3.45 0 01-.77 1.91c-.45.42-7.59 7.27-7.59 7.27l-.63-.67L83 17a2.12 2.12 0 00.59-1.38v-5.31h.93m0-.15h-.93l-.15.15v5.34a2 2 0 01-.54 1.27l-7.5 7.13v.21l.64.67h.21c.07-.07 7.14-6.86 7.58-7.27a3.46 3.46 0 00.82-2v-5.35l-.15-.15z"/><path class="cls-3" d="M83.56 50.07l-.07-.07v-5.34a2 2 0 00-.57-1.33l-7.47-7.13v-.1l.63-.67h.11c.07.07 7.14 6.86 7.58 7.27a3.46 3.46 0 01.79 2V50l-.07.07z"/><path class="cls-5" d="M76.13 35.48s7.14 6.85 7.59 7.27a3.39 3.39 0 01.77 1.91V50h-.93v-5.34a2.15 2.15 0 00-.56-1.39l-7.5-7.12.63-.67m.11-.11H76l-.64.68v.21l7.47 7.12a2 2 0 01.54 1.29V50l.15.15h.93l.15-.15v-5.34a3.46 3.46 0 00-.82-2c-.44-.41-7.51-7.2-7.58-7.27z"/><path class="cls-3" d="M55.26 50.07l-.07-.07v-5.34a3.4 3.4 0 01.79-2c.44-.41 7.51-7.2 7.58-7.27h.11l.63.67v.1l-7.47 7.13a2 2 0 00-.57 1.34V50l-.07.07z"/><path class="cls-5" d="M63.61 35.48l.63.67S57 43 56.77 43.27a2.2 2.2 0 00-.58 1.39V50h-.93v-5.34a3.25 3.25 0 01.74-1.91c.45-.42 7.58-7.27 7.58-7.27m-.1-.11c-.07.07-7.14 6.86-7.58 7.27a3.46 3.46 0 00-.82 2V50l.15.15h.93l.15-.15v-5.34a2 2 0 01.54-1.28l7.47-7.12v-.21l-.63-.68z"/><path class="cls-3" d="M69.41 16.73l-.07-.08v-6.34l.07-.07h.93l.07.07v6.34l-.07.08h-.93z"/><path class="cls-5" d="M70.34 10.31v6.34h-.93v-6.34h.93m0-.15h-.93l-.15.15v6.34l.15.15h.93l.15-.15v-6.34l-.15-.15z"/><path class="cls-3" d="M69.41 50.07l-.07-.07v-6.35l.07-.07h.93l.07.07V50l-.07.07h-.93z"/><path class="cls-5" d="M70.34 43.65V50h-.93v-6.35h.93m0-.15h-.93l-.15.15V50l.15.15h.93l.15-.15v-6.35l-.15-.15z"/><path class="cls-3" d="M80.3 30.69l-.08-.08v-.92l.08-.07H90l.08.07v.92l-.08.08h-9.7z"/><path class="cls-5" d="M90 29.69v.93h-9.7v-.93H90m0-.15h-9.7l-.15.15v.93l.15.15H90l.15-.15v-.93l-.15-.15z"/><path class="cls-3" d="M49.75 30.69l-.08-.08v-.92l.08-.07h9.7l.08.07v.92l-.08.08h-9.7z"/><path class="cls-5" d="M59.45 29.69v.93h-9.7v-.93h9.7m0-.15h-9.7l-.15.15v.93l.15.15h9.7l.15-.15v-.93l-.15-.15z"/><circle class="cls-3" cx="69.87" cy="69.84" r="4.25"/><path class="cls-4" d="M49.75 50v39.68H90V50zm36.72 36.15H53.28V53.53h33.19z"/><path class="cls-3" d="M63.56 64.57c-.07-.07-7.14-6.86-7.58-7.27a3.37 3.37 0 01-.79-2V50l.07-.08h.93l.07.08v5.33a2.09 2.09 0 00.56 1.33l7.48 7.13v.11l-.63.67z"/><path class="cls-5" d="M56.19 50v5.33a2.17 2.17 0 00.58 1.39l7.47 7.12-.63.68s-7.13-6.86-7.61-7.28a3.25 3.25 0 01-.77-1.91V50h.93m0-.15h-.93l-.15.15v5.33a3.46 3.46 0 00.82 2l7.58 7.27h.21l.63-.67v-.21l-7.47-7.13a2 2 0 01-.54-1.29V50l-.15-.15z"/><path class="cls-3" d="M76.08 64.57l-.63-.67v-.11l7.47-7.13a2 2 0 00.57-1.33V50l.07-.08h.93l.07.08v5.33a3.44 3.44 0 01-.79 2c-.44.41-7.51 7.2-7.58 7.27z"/><path class="cls-5" d="M84.49 50v5.33a3.39 3.39 0 01-.77 1.91c-.45.42-7.59 7.28-7.59 7.28l-.63-.68 7.5-7.12a2.12 2.12 0 00.59-1.39V50h.93m0-.15h-.93l-.15.15v5.33a2 2 0 01-.54 1.28l-7.5 7.13V64l.64.67h.21l7.58-7.27a3.46 3.46 0 00.82-2V50l-.15-.15z"/><path class="cls-3" d="M83.56 89.76l-.07-.08v-5.33a2 2 0 00-.57-1.35l-7.47-7.12v-.11l.63-.67h.11l7.58 7.27a3.43 3.43 0 01.79 2v5.34l-.07.08z"/><path class="cls-5" d="M76.13 75.16s7.14 6.85 7.59 7.27a3.45 3.45 0 01.77 1.92v5.33h-.93v-5.33A2.12 2.12 0 0083 83l-7.5-7.17.63-.67m.11-.11H76l-.64.67v.21l7.47 7.13a2 2 0 01.54 1.29v5.32l.15.15h.93l.15-.15v-5.32a3.51 3.51 0 00-.82-2c-.44-.41-7.51-7.2-7.58-7.27z"/><path class="cls-3" d="M55.26 89.76l-.07-.08v-5.33a3.37 3.37 0 01.79-2l7.58-7.27h.11l.63.67v.11L56.83 83a2.07 2.07 0 00-.57 1.34v5.33l-.07.08z"/><path class="cls-5" d="M63.61 75.16l.63.67L56.77 83a2.17 2.17 0 00-.58 1.39v5.33h-.93v-5.37a3.31 3.31 0 01.74-1.92c.45-.42 7.58-7.27 7.58-7.27m-.1-.11c-.07.07-7.14 6.86-7.58 7.27a3.51 3.51 0 00-.82 2v5.34l.15.15h.93l.15-.15v-5.31a2 2 0 01.54-1.28l7.47-7.13v-.21l-.63-.67z"/><path class="cls-3" d="M69.41 56.41l-.07-.07V50l.07-.08h.93l.07.08v6.34l-.07.07h-.93z"/><path class="cls-5" d="M70.34 50v6.34h-.93V50h.93m0-.15h-.93l-.15.15v6.34l.15.15h.93l.15-.15V50l-.15-.15z"/><path class="cls-3" d="M69.41 89.76l-.07-.08v-6.34l.07-.08h.93l.07.08v6.34l-.07.08h-.93z"/><path class="cls-5" d="M70.34 83.34v6.34h-.93v-6.34h.93m0-.15h-.93l-.15.15v6.34l.15.15h.93l.15-.15v-6.34l-.15-.15z"/><path class="cls-3" d="M80.3 70.38l-.08-.08v-.92l.08-.08H90l.08.08v.92l-.08.08h-9.7z"/><path class="cls-5" d="M90 69.38v.92h-9.7v-.92H90m0-.15h-9.7l-.15.15v.92l.15.15H90l.15-.15v-.92l-.15-.15z"/><path class="cls-3" d="M49.75 70.38l-.08-.08v-.92l.08-.08h9.7l.08.08v.92l-.08.08h-9.7z"/><path class="cls-5" d="M59.45 69.38v.92h-9.7v-.92h9.7m0-.15h-9.7l-.15.15v.92l.15.15h9.7l.15-.15v-.92l-.15-.15z"/></g></svg>