<svg xmlns="http://www.w3.org/2000/svg" viewBox="0 0 99.21 99.21"><defs><style>.cls-3,.cls-4{fill:#222221}.cls-4{font-size:10px;font-family:&apos;Faktpro&apos;,sans-serif}</style></defs><g id="Piano" stroke-linecap="round" fill="none" stroke="#222221" stroke-width=".25"><path stroke-linejoin="bevel" d="M7.09 7.09h85.04v85.04H7.09z"/><path d="M9.64 9.64h80.08v79.94H9.64zm-2.55-.37h85.04m-82.49.37l-.37-.37m80.45.37l.34-.37M7.09 92.13l2.55-2.56m82.49 2.56l-2.41-2.56" stroke-linejoin="round"/></g><g id="Bruciatori"><path class="cls-3" d="M27.5 54a11.76 11.76 0 11-11.76 11.76A11.76 11.76 0 0127.5 54m0-1a12.76 12.76 0 1012.75 12.76A12.75 12.75 0 0027.5 53zm41.95-33.72a13.89 13.89 0 11-13.88 13.89 13.9 13.9 0 0113.88-13.89m0-1a14.89 14.89 0 1014.88 14.89 14.89 14.89 0 00-14.88-14.89zM74 56.49a9.28 9.28 0 11-9.27 9.27A9.28 9.28 0 0174 56.49m0-1a10.28 10.28 0 1010.26 10.27A10.27 10.27 0 0074 55.49z"/><text class="cls-4" transform="translate(70.76 69.26)">A</text><text class="cls-4" transform="translate(24.18 69.26)">B</text><path class="cls-3" d="M27.5 21.41a11.76 11.76 0 11-11.76 11.76A11.76 11.76 0 0127.5 21.41m0-1a12.76 12.76 0 1012.75 12.76A12.76 12.76 0 0027.5 20.41z"/><text class="cls-4" transform="translate(24.18 36.66)">B</text><text class="cls-4" transform="translate(65.89 36.66)">C</text><rect x="45.28" y="76.37" width="11.21" height="6.09" rx=".55" stroke-linejoin="round" fill="none" stroke="#222221" stroke-width=".25"/></g></svg>