<svg xmlns="http://www.w3.org/2000/svg" viewBox="0 0 107.72 153.07"><defs><style>.cls-7,.cls-8,.cls-9{fill:#fff}.cls-12,.cls-2,.cls-3,.cls-5,.cls-6{fill:none}.cls-2,.cls-3,.cls-5,.cls-6,.cls-7,.cls-8,.cls-9{stroke:#222221}.cls-2,.cls-7,.cls-8{stroke-miterlimit:10}.cls-2{stroke-width:.5px}.cls-3,.cls-5{stroke-miterlimit:1.4}.cls-3,.cls-8,.cls-9{stroke-width:.3px}.cls-16{fill:#222221}.cls-12,.cls-6,.cls-9{stroke-miterlimit:1.41}.cls-12,.cls-5,.cls-6{stroke-width:.25px}.cls-7{stroke-width:.4px}.cls-12{stroke:#20201f}.cls-13,.cls-14{fill:#20201f}.cls-14{font-size:7px;font-family:Fakt-Normal,Fakt}</style></defs><path fill="#fff" d="M19.88 17.01v116.22h4.11v13.05h.41v1.12h6.1v-1.12h.41v-13.05H93.9v13.05h.4v1.12h6.11v-1.12h.4v-13.05h4.11V17.01H19.88z" id="Riempimento"/><g id="Ranges"><path class="cls-2" d="M94.12 146.28h6.1v1.12h-6.1zm-.41-13.05h6.91v13.05h-6.91zm-69.35 13.05h6.1v1.12h-6.1zm-.41-13.05h6.91v13.05h-6.91zM19.84 17.01h85.12v116.22H19.84zm0 8.5h85.12m-85.02 5.67h85.02"/><path class="cls-3" d="M19.94 46.64h85.02"/><path class="cls-2" d="M19.84 111.97h85.12m-85.12 4.25h85.12m-85.12 2.14h85.12"/><path class="cls-3" d="M19.94 48.76h85.02"/><path class="cls-2" d="M19.94 50.17h85.02"/><path d="M62.4 25.27v-2.96h15.22l-4.68 1.13h-7.13v1.83H62.4zm39.32.04v-2.96H86.16l4.68 1.12h7.13v1.84h3.75zm-20.13-3h.92v2.96h-.92zm-19.19 3v-3H46.95l4.65 1.14h7.08v1.86h3.72zm-39.31.04v-3h15.1l-4.65 1.14h-7.07v1.86h-3.38zm19.32-3.04h.91v2.99h-.91z" stroke-width=".2" stroke-miterlimit="1.41" fill="#222221" stroke="#222221"/><rect class="cls-2" x="19.84" y="52.16" width="85.08" height="57.81" rx=".29"/><path class="cls-2" d="M19.94 52.16h85.02"/><rect class="cls-2" x="26.39" y="35.24" width="10.94" height="7.3" rx="1.82"/><path class="cls-5" d="M27.87 40.84a.49.49 0 01.49-.49.49.49 0 010 1 .49.49 0 01-.49-.51zm1.79 0a.49.49 0 01.49-.49.49.49 0 010 1 .49.49 0 01-.49-.51zm1.79 0a.48.48 0 01.48-.49.49.49 0 010 1 .48.48 0 01-.48-.51z"/><path class="cls-6" d="M33.24 40.84a.48.48 0 01.48-.49.49.49 0 110 1 .48.48 0 01-.48-.51zm1.76 0a.49.49 0 11.49.49.49.49 0 01-.49-.49z"/><rect class="cls-5" x="28.79" y="36.89" width="5.96" height="1.84" rx=".61"/><circle class="cls-7" cx="46.94" cy="38.96" r="3.09"/><rect class="cls-8" x="48.02" y="38.36" width="3.69" height="1.19" rx=".56"/><circle class="cls-8" cx="46.94" cy="38.96" r="1.79"/><circle class="cls-7" cx="56.7" cy="38.96" r="3.09"/><rect class="cls-8" x="57.78" y="38.36" width="3.69" height="1.19" rx=".56"/><circle class="cls-8" cx="56.7" cy="38.96" r="1.79"/><circle class="cls-7" cx="66.36" cy="38.96" r="3.09"/><rect class="cls-8" x="67.44" y="38.36" width="3.69" height="1.19" rx=".56"/><circle class="cls-8" cx="66.36" cy="38.96" r="1.79"/><circle class="cls-7" cx="76.02" cy="38.96" r="3.09"/><rect class="cls-8" x="77.09" y="38.36" width="3.69" height="1.19" rx=".56"/><circle class="cls-8" cx="76.02" cy="38.96" r="1.79"/><circle class="cls-7" cx="85.67" cy="38.96" r="3.09"/><rect class="cls-8" x="86.75" y="38.36" width="3.69" height="1.19" rx=".56"/><circle class="cls-8" cx="85.67" cy="38.96" r="1.79"/><circle class="cls-7" cx="95.33" cy="38.96" r="3.09"/><rect class="cls-8" x="96.41" y="38.36" width="3.69" height="1.19" rx=".56"/><circle class="cls-8" cx="95.33" cy="38.96" r="1.79"/><path class="cls-9" d="M28.3 55.78h68.11v2.65H28.3zm-4.6.79h3.15v.94H23.7z"/><ellipse class="cls-9" cx="23.24" cy="56.99" rx="1.41" ry="1.45"/><path class="cls-9" d="M27.55 57.35h.91v3.04h-.91z"/><rect class="cls-9" x="25.56" y="55.38" width="3.82" height="3.4" rx=".24"/><path class="cls-9" d="M98.41 56.57h3.15v.94h-3.15z"/><ellipse class="cls-9" cx="101.9" cy="56.99" rx="1.41" ry="1.45"/><ellipse class="cls-9" cx="101.9" cy="56.99" rx="1.41" ry="1.45"/><path class="cls-9" d="M96.84 57.35h.91v3.04h-.91z"/><rect class="cls-9" x="95.77" y="55.38" width="3.82" height="3.4" rx=".24"/><path d="M35.23 95.81v-23.9c13.39-4.1 21.75-5 35.7-3.8a81.47 81.47 0 0118.55 3.51v24.15H35.23z" stroke-miterlimit="3.86" stroke-width=".5" stroke="#222221" fill="none"/></g><g id="Dimensions"><path d="M24.36 147.4H11.34m8.5-14.17h-8.5m8.5-116.22h-8.5m8.5 8.5h-8.5" stroke="#20201f" stroke-width=".25" stroke-miterlimit="1.41" fill="#fff"/><path class="cls-12" d="M14.17 25.78v107.18"/><path class="cls-13" d="M13.15 26.61l.18.17.84-.9.84.9.19-.17-1.03-1.1-1.02 1.1zm0 105.52l.18-.17.84.9.84-.9.19.17-1.03 1.1-1.02-1.1z"/><text class="cls-14" transform="rotate(-90 47.625 37.705)">760</text><text class="cls-14" transform="rotate(-90 11.2 1.28)">60</text><path class="cls-12" d="M14.17 8.5v8.24"/><path class="cls-13" d="M13.15 15.91l.18-.17.84.9.84-.9.19.17-1.03 1.1-1.02-1.1z"/><path class="cls-12" d="M14.17 25.51v-8.5"/><path d="M19.88 16.98v-8.5m85.04 8.5v-8.5" stroke-width=".25" stroke-miterlimit="1.41" stroke="#222221" fill="#fff"/><path class="cls-6" d="M104.65 11.31h-84.5"/><path class="cls-16" d="M103.82 10.29l-.17.18.91.84-.91.84.17.18 1.1-1.02-1.1-1.02zm-82.84 0l.17.18-.9.84.9.84-.17.18-1.1-1.02 1.1-1.02z"/><text transform="translate(56.44 7.06)" font-size="7" font-family="Fakt-Normal,Fakt" fill="#222221">600</text><path class="cls-12" d="M14.17 133.23v14.17"/><text class="cls-14" transform="rotate(-90 81.495 71.575)">100รท160</text><path class="cls-6" d="M14.17 147.67v5.4"/><path class="cls-16" d="M13.15 148.5l.18.17.84-.9.84.9.19-.17-1.03-1.1-1.02 1.1z"/></g></svg>