<svg xmlns="http://www.w3.org/2000/svg" viewBox="0 0 605 978.41"><path d="M475.254 11.96c-48.149.6-107.02 15.431-168.82 24.142-156.48-14.509-294.48-80.015-294.48 128.22 0 93.097 14.631 161.89 54.544 290.9-14.302 216.59 27.007 506.71 51.494 504.26 14.078 46.298 67.619-145.21 86.246-340.89 22.303-83.343 144.69-84.257 165.64 4.565 13.068 185.46 92.526 362.5 105.9 339.74 18.435-15.092 67.758-286.64 59.969-508.78 57.426-117.34 57.329-199.9 57.329-289.79 0-123.64-47.439-153.24-117.81-152.36z" fill="#eeeeec" stroke="#000" stroke-linecap="round" stroke-linejoin="bevel" stroke-width="23.883"/></svg>