<svg xmlns="http://www.w3.org/2000/svg" viewBox="0 0 99.21 99.21"><defs><style>.cls-1{fill:#222221}.cls-2{fill:none;stroke:#222221;stroke-miterlimit:10;stroke-width:1.5px}</style></defs><g id="Layer_1" data-name="Layer 1"><circle class="cls-1" cx="70.16" cy="69.52" r="4.25"/><circle class="cls-1" cx="70.16" cy="29.69" r="4.96"/><path class="cls-1" d="M88.2 12.25v75H52.12v-75H88.2m1.29-2H50.82a.7.7 0 00-.7.71V88.5a.7.7 0 00.7.71h38.67a.71.71 0 00.71-.71V11a.71.71 0 00-.71-.71z"/><path class="cls-2" d="M70.16 11.21v78"/><path class="cls-1" d="M54.85 11.75V15h-3.23v-3.25h3.23m.8-1.5h-4.83a.7.7 0 00-.7.71v4.82a.7.7 0 00.7.71h4.83a.7.7 0 00.7-.71V11a.7.7 0 00-.7-.71zm33.05 1.5V15h-3.24v-3.25h3.24m.79-1.5h-4.82A.71.71 0 0084 11v4.82a.71.71 0 00.71.71h4.82a.71.71 0 00.71-.71V11a.71.71 0 00-.71-.71zM54.85 84.47v3.24h-3.23v-3.24h3.23m.8-1.5h-4.83a.7.7 0 00-.7.71v4.82a.7.7 0 00.7.71h4.83a.7.7 0 00.7-.71v-4.82a.7.7 0 00-.7-.71zm33.05 1.5v3.24h-3.24v-3.24h3.24m.79-1.5h-4.82a.71.71 0 00-.71.71v4.82a.71.71 0 00.71.71h4.82a.71.71 0 00.71-.71v-4.82a.71.71 0 00-.71-.71z"/><path class="cls-2" d="M50.12 29.69H90.2M50.12 69.52H90.2M50.12 49.61H90.2"/><path d="M7.09 7.09h85.04v85.04H7.09zm0 2.32h85.04" stroke-width=".5" fill="none" stroke="#222221" stroke-miterlimit="10"/><circle class="cls-1" cx="29.06" cy="29.69" r="4.96"/><circle class="cls-1" cx="29.06" cy="69.52" r="3.19"/><path class="cls-1" d="M29.06 61a8.5 8.5 0 108.5 8.5 8.5 8.5 0 00-8.5-8.5zm0 13.11a4.61 4.61 0 114.6-4.61 4.61 4.61 0 01-4.6 4.63z"/><path class="cls-1" d="M47.09 12.25v75H11v-75h36.09m1.3-2H9.72A.7.7 0 009 11v77.5a.7.7 0 00.7.71h38.69a.7.7 0 00.7-.71V11a.7.7 0 00-.7-.71z"/><path class="cls-2" d="M29.06 11.21v78"/><path class="cls-1" d="M13.75 11.75V15h-3.23v-3.25h3.23m.8-1.5H9.72A.7.7 0 009 11v4.82a.7.7 0 00.7.71h4.83a.7.7 0 00.7-.71V11a.7.7 0 00-.7-.71zm33.04 1.5V15h-3.23v-3.25h3.23m.8-1.5h-4.83a.7.7 0 00-.7.71v4.82a.7.7 0 00.7.71h4.83a.7.7 0 00.7-.71V11a.7.7 0 00-.7-.71zM13.75 84.47v3.24h-3.23v-3.24h3.23m.8-1.5H9.72a.7.7 0 00-.7.71v4.82a.7.7 0 00.7.71h4.83a.7.7 0 00.7-.71v-4.82a.7.7 0 00-.7-.71zm33.04 1.5v3.24h-3.23v-3.24h3.23m.8-1.5h-4.83a.7.7 0 00-.7.71v4.82a.7.7 0 00.7.71h4.83a.7.7 0 00.7-.71v-4.82a.7.7 0 00-.7-.71z"/><path class="cls-2" d="M9.02 29.69h40.07M9.02 69.52h40.07M9.02 49.61h40.07"/><path class="cls-1" d="M30.52 47.06h-2.93l-1.48 2.55 1.48 2.54h2.93L32 49.61l-1.48-2.55zm41.11 0h-2.94l-1.47 2.55 1.47 2.54h2.94l1.47-2.54-1.47-2.55z"/></g></svg>