<svg xmlns="http://www.w3.org/2000/svg" viewBox="0 0 107.72 153.07"><defs><style>.cls-10,.cls-12,.cls-2,.cls-3,.cls-5,.cls-7,.cls-8{fill:none}.cls-10,.cls-2,.cls-3,.cls-5,.cls-7,.cls-8{stroke:#222221}.cls-2,.cls-3{stroke-miterlimit:10}.cls-2{stroke-width:.5px}.cls-3{stroke-width:.4px}.cls-10,.cls-12,.cls-8{stroke-miterlimit:1.41}.cls-5,.cls-7{stroke-miterlimit:1.4}.cls-5{stroke-width:.3px}.cls-12,.cls-7,.cls-8{stroke-width:.25px}.cls-9{fill:#222221}.cls-10{stroke-width:.3px}.cls-12{stroke:#20201f}.cls-13,.cls-14{fill:#20201f}.cls-14{font-size:7px;font-family:Fakt-Normal,Fakt}</style></defs><path fill="#fff" d="M19.88 17.01v116.22h4.11v13.05h.41v1.12h6.1v-1.12h.41v-13.05H93.9v13.05h.4v1.12h6.11v-1.12h.4v-13.05h4.11V17.01H19.88z" id="Riempimento"/><g id="Ranges"><path class="cls-2" d="M94.28 146.28h6.1v1.12h-6.1zm-.4-13.05h6.91v13.05h-6.91zm-69.5 13.05h6.1v1.12h-6.1zm-.41-13.05h6.91v13.05h-6.91z"/><rect class="cls-3" x="23.35" y="34.56" width="10.94" height="7.3" rx="1.82"/><path d="M36.92 64.18h50.93a1.37 1.37 0 011.46 1.25v26.4a1.37 1.37 0 01-1.46 1.26H36.92a1.38 1.38 0 01-1.47-1.26v-26.4a1.37 1.37 0 011.47-1.25z" stroke-width=".51" stroke-miterlimit="1.41" stroke="#222221" fill="none"/><path class="cls-5" d="M22.7 54.43h79.37v4.54H22.7z"/><path class="cls-2" d="M19.86 17.01h85.04v116.22H19.86z"/><path d="M19.86 25.51h85.04m-85.04 5.67h85.04M19.86 46.64h85.04m-85.04 65.33h85.04M19.86 48.76h85.04" stroke-width=".51" stroke-miterlimit="10" stroke="#222221" fill="none"/><path class="cls-7" d="M24.82 40.15a.49.49 0 11.49.49.49.49 0 01-.49-.49zm1.79 0a.49.49 0 11.49.49.49.49 0 01-.49-.49zm1.79 0a.49.49 0 01.49-.48.49.49 0 010 1 .49.49 0 01-.49-.52z"/><path class="cls-8" d="M30.19 40.15a.49.49 0 11.49.49.49.49 0 01-.49-.49zm1.81 0a.48.48 0 01.48-.48.49.49 0 110 1 .48.48 0 01-.48-.52z"/><rect class="cls-7" x="25.74" y="36.2" width="5.96" height="1.84" rx=".61"/><path class="cls-9" d="M61.87 21.53H21.79v3.98h1.31v-2.59h2.35v2.59h1.3v-2.59h14.57v2.59h1.02v-2.59h13.3v2.59h1.3v-2.59h3.63v2.59h1.3v-3.98zm41.1 0H62.9v3.98h1.3v-2.59h2.35v2.59h1.3v-2.59h14.57v2.59h1.02v-2.59h13.3v2.59h1.3v-2.59h3.63v2.59h1.3v-3.98z"/><path class="cls-3" d="M53.91 38.2A3.06 3.06 0 1157 41.26a3.06 3.06 0 01-3.09-3.06z"/><path class="cls-5" d="M56.97 35.35v.94"/><path class="cls-10" d="M56.04 41.12v-5.83m1.86 5.83v-5.83"/><path class="cls-3" d="M63.57 38.2a3.06 3.06 0 113.06 3.06 3.06 3.06 0 01-3.06-3.06z"/><path class="cls-5" d="M66.63 35.35v.94"/><path class="cls-10" d="M65.7 41.12v-5.83m1.86 5.83v-5.83"/><path class="cls-3" d="M73.23 38.2a3.06 3.06 0 113.06 3.06 3.06 3.06 0 01-3.06-3.06z"/><path class="cls-5" d="M76.29 35.35v.94"/><path class="cls-10" d="M75.36 41.12v-5.83m1.86 5.83v-5.83"/><path class="cls-3" d="M82.89 38.2a3.06 3.06 0 113 3.06 3.06 3.06 0 01-3-3.06z"/><path class="cls-5" d="M85.94 35.35v.94"/><path class="cls-10" d="M85.01 41.12v-5.83m1.86 5.83v-5.83"/><path class="cls-3" d="M92.54 38.2a3.06 3.06 0 113.06 3.06 3.06 3.06 0 01-3.06-3.06z"/><path class="cls-5" d="M95.6 35.35v.94"/><path class="cls-10" d="M94.67 41.12v-5.83m1.86 5.83v-5.83"/><rect class="cls-2" x="19.86" y="52.16" width="85.04" height="57.81" rx=".29"/></g><g id="Dimensions"><path d="M24.36 147.4H11.34m8.5-14.17h-8.5m8.5-116.22h-8.5m8.5 8.5h-8.5" stroke="#20201f" stroke-width=".25" stroke-miterlimit="1.41" fill="#fff"/><path class="cls-12" d="M14.17 25.78v107.18"/><path class="cls-13" d="M13.15 26.61l.18.17.84-.9.84.9.19-.17-1.03-1.1-1.02 1.1zm0 105.52l.18-.17.84.9.84-.9.19.17-1.03 1.1-1.02-1.1z"/><text class="cls-14" transform="rotate(-90 47.625 37.705)">760</text><text class="cls-14" transform="rotate(-90 11.2 1.28)">60</text><path class="cls-12" d="M14.17 8.5v8.24"/><path class="cls-13" d="M13.15 15.91l.18-.17.84.9.84-.9.19.17-1.03 1.1-1.02-1.1z"/><path class="cls-12" d="M14.17 25.51v-8.5"/><path d="M19.88 16.98v-8.5m85.04 8.5v-8.5" stroke-width=".25" stroke-miterlimit="1.41" stroke="#222221" fill="#fff"/><path class="cls-8" d="M104.65 11.31h-84.5"/><path class="cls-9" d="M103.82 10.29l-.17.18.91.84-.91.84.17.18 1.1-1.02-1.1-1.02zm-82.84 0l.17.18-.9.84.9.84-.17.18-1.1-1.02 1.1-1.02z"/><text transform="translate(56.44 7.06)" font-size="7" font-family="Fakt-Normal,Fakt" fill="#222221">600</text><path class="cls-12" d="M14.17 133.23v14.17"/><text class="cls-14" transform="rotate(-90 81.495 71.575)">100รท160</text><path class="cls-8" d="M14.17 147.67v5.4"/><path class="cls-9" d="M13.15 148.5l.18.17.84-.9.84.9.19-.17-1.03-1.1-1.02 1.1z"/></g></svg>