<svg xmlns="http://www.w3.org/2000/svg" viewBox="0 0 131.81 167.04"><defs><style>.cls-1,.cls-6{fill:none}.cls-1,.cls-3,.cls-5,.cls-6{stroke:#000}.cls-1{stroke-miterlimit:10;stroke-width:.5px}.cls-3,.cls-5{fill:#fff}.cls-3{stroke-miterlimit:1.4;stroke-width:.3px}.cls-5,.cls-6{stroke-miterlimit:1.41;stroke-width:.25px}.cls-7{font-size:7px;font-family:Fakt-Normal,Fakt}</style></defs><g id="Ranges"><path class="cls-1" d="M26.97 146.28h6.1v1.12h-6.1zm-.4-13.05h6.91v13.05h-6.91zm65.22 13.05h6.1v1.12h-6.1zm-.4-13.05h6.91v13.05h-6.91z"/><path d="M23.05 25.51v-3.29h14.52l-3.84 1.16H26.5v2.13h-3.45zm39.69 0v-3.28H48.22l3.83 1.16h7.23v2.12h3.46z"/><path d="M24.29 31.18h75.14v102.05H24.29V31.18zm-4.45-14.17h2.15v8.5h82.88v5.67H19.83v-5.06l.01-9.11zm79.59 14.32h4.44v101.9h-4.44V31.33z" stroke="#1a1a18" stroke-miterlimit="3.86" stroke-width=".5" fill="none"/><path class="cls-1" d="M103.87 35.84h2.12v6.11h-2.12v-6.11z"/><path class="cls-3" d="M105.3 56.58l-1.18.52v1.55l2.78-1.14"/><circle class="cls-3" cx="106.9" cy="55.73" r="1.77"/><path d="M42.43 22.22h.92v3.29h-.92zm20.31 3.29v-3.29h14.52l-3.84 1.16h-7.23v2.13h-3.45zm39.68 0v-3.28H87.9l3.84 1.16h7.23v2.12h3.45zm-20.3-3.29h.92v3.29h-.92z"/><path stroke-width=".49" stroke-miterlimit="10" stroke="#000" fill="none" d="M20.94 41.5h3.34v71.61h-3.34z"/><path d="M24.27 93.63v22.49h-.91v-10.66h-.77v-7.74a9.37 9.37 0 011.68-4.09z"/></g><g id="Dimensions"><path class="cls-5" d="M19.84 17.01h-8.5m0 8.5h8.5"/><path class="cls-6" d="M19.84 31.18v127.67m4.45-25.62v19.84"/><text class="cls-7" transform="rotate(-90 17.58 7.66)">60</text><path class="cls-6" d="M14.17 25.24v-7.96"/><path d="M15.2 24.41l-.19-.17-.84.91-.84-.91-.18.17 1.02 1.1 1.03-1.1zm0-6.3l-.19.17-.84-.9-.84.9-.18-.17 1.02-1.1 1.03 1.1z"/><path class="cls-6" d="M24.56 150.24h5.4"/><path d="M25.39 151.26l.17-.18-.91-.84.91-.84-.17-.18-1.1 1.02 1.1 1.02z"/><text class="cls-7" transform="translate(7.36 148.82)">35</text><path class="cls-6" d="M11.37 150.24h8.23"/><path d="M18.77 151.26l-.17-.18.9-.84-.9-.84.17-.18 1.1 1.02-1.1 1.02z"/><path class="cls-6" d="M18.62 150.24h6.37m78.88-17.01v25.62m-4.44-25.62v19.84m-5.67-2.83h5.4"/><path d="M98.33 151.26l-.17-.18.9-.84-.9-.84.17-.18 1.1 1.02-1.1 1.02z"/><path class="cls-6" d="M98.46 150.24h6.37"/><text class="cls-7" transform="translate(120.73 148.82)">55</text><path class="cls-6" d="M124.71 150.24h-20.6"/><path d="M104.94 149.22l.17.18-.9.84.9.84-.17.18-1.1-1.02 1.1-1.02z"/><path class="cls-5" d="M21.99 17.01v-8.5m82.88 16.97V8.51"/><path class="cls-6" d="M104.59 11.34H22.26"/><path d="M103.77 10.32l-.17.18.9.84-.9.84.17.18 1.1-1.02-1.1-1.02zm-80.68 0l.17.18-.9.84.9.84-.17.18-1.1-1.02 1.1-1.02z"/><text class="cls-7" transform="translate(57.46 7.06)">585</text><path class="cls-5" d="M104.87 31.18h5.66"/><text class="cls-7" transform="rotate(90 48.735 64.635)">40</text><path class="cls-6" d="M110.53 25.51v5.67"/><path class="cls-5" d="M104.87 25.51h15.59"/><text class="cls-7" transform="rotate(90 24.67 97.21)">860รท920</text><path class="cls-6" d="M117.62 25.78v121.35"/><path d="M116.6 26.61l.18.17.84-.9.84.9.18-.17-1.02-1.1-1.02 1.1zm0 119.69l.18-.17.84.91.84-.91.18.17-1.02 1.1-1.02-1.1z"/><path class="cls-6" d="M110.53 25.27v-5.4"/><path d="M111.56 24.44l-.19-.17-.84.91-.83-.91-.19.17 1.02 1.1 1.03-1.1z"/><path class="cls-6" d="M97.89 147.4h22.57m-16.86 8.62H20.14"/><path d="M102.77 155l-.17.18.9.84-.9.84.17.18 1.1-1.02-1.1-1.02zm-81.8 0l.17.18-.9.84.9.84-.17.18-1.1-1.02 1.1-1.02z"/><text class="cls-7" transform="translate(57.45 162.6)">600</text></g></svg>