<svg width="40" height="40" fill="none" xmlns="http://www.w3.org/2000/svg"><path d="M20.01 31.687h-.034c-.103 0-10.441-.02-13.05-.729a4.167 4.167 0 01-2.94-2.941A44.154 44.154 0 013.31 20c-.012-2.692.22-5.379.695-8.028A4.273 4.273 0 016.948 9c2.537-.666 12.59-.666 13.017-.666H20c.105 0 10.47.02 13.051.728A4.175 4.175 0 0135.988 12a42.06 42.06 0 01.678 8.052 44.283 44.283 0 01-.696 8.018 4.183 4.183 0 01-2.945 2.939c-2.534.671-12.589.678-13.015.678zm-3.334-16.678l-.008 10 8.687-5-8.679-5z" fill="#fff"/></svg>