<svg xmlns="http://www.w3.org/2000/svg" viewBox="0 0 141.73 99.21"><defs><style>.cls-1,.cls-2{fill:none;stroke:#222221;stroke-linecap:round;stroke-width:.25px}.cls-1{stroke-linejoin:bevel}.cls-2{stroke-linejoin:round}.cls-3,.cls-4{fill:#222221}.cls-4{stroke:#fff;stroke-miterlimit:10;stroke-width:.15px}.cls-5{fill:#fff}</style></defs><g id="Piano"><path class="cls-1" d="M7.09 7.09h127.56v85.04H7.09z"/><path class="cls-2" d="M9.31 10.03h123.25v79.94H9.31zm-2.22-.72h127.56m-125.34.78l-.58-.78m123.83.78l.58-.78M7.09 92.13l2.22-2.23m125.34 2.23l-2.09-2.23"/><path class="cls-1" d="M7.09 7.09h127.56v85.04H7.09z"/><path class="cls-2" d="M9.31 10.03h123.25v79.94H9.31zm-2.22-.72h127.56m-125.34.78l-.58-.78m123.83.78l.58-.78M7.09 92.13l2.22-2.23m125.34 2.23l-2.09-2.23"/></g><g id="Bruciatori"><circle class="cls-3" cx="30.05" cy="30.15" r="6.38"/><path class="cls-4" d="M9.92 10.31V50h40.25V10.31zm36.72 36.16H13.45V13.84h33.19z"/><path class="cls-3" d="M23.74 24.88c-.08-.06-7.15-6.85-7.59-7.27a3.37 3.37 0 01-.79-2v-5.3l.07-.07h.93l.07.07v5.34A2.09 2.09 0 0017 17l7.47 7.12v.11l-.63.67z"/><path class="cls-5" d="M16.36 10.31v5.34A2.12 2.12 0 0017 17l7.47 7.13-.63.67s-7.19-6.8-7.64-7.24a3.45 3.45 0 01-.77-1.91v-5.34h.93m0-.15h-.93l-.15.15v5.34a3.46 3.46 0 00.82 2c.44.41 7.51 7.2 7.58 7.27h.22l.63-.67v-.21l-7.47-7.13a2 2 0 01-.54-1.28v-5.32l-.15-.15z"/><path class="cls-3" d="M36.25 24.88l-.63-.67v-.11L43.1 17a2.1 2.1 0 00.56-1.34v-5.35l.08-.07h.92l.08.07v5.34a3.45 3.45 0 01-.8 2l-7.58 7.27z"/><path class="cls-5" d="M44.66 10.31v5.34a3.31 3.31 0 01-.77 1.91c-.45.42-7.58 7.27-7.58 7.27l-.63-.67L43.15 17a2.22 2.22 0 00.59-1.38v-5.31h.92m0-.15h-.92l-.15.15v5.34a2 2 0 01-.54 1.27l-7.48 7.13v.21l.63.67h.21c.07-.07 7.14-6.86 7.58-7.27a3.39 3.39 0 00.82-2v-5.35l-.15-.15z"/><path class="cls-3" d="M43.74 50.07l-.08-.07v-5.34a2.09 2.09 0 00-.56-1.33l-7.47-7.13v-.1l.63-.67h.11c.07.07 7.14 6.86 7.58 7.27a3.48 3.48 0 01.8 2V50l-.08.07z"/><path class="cls-5" d="M36.31 35.48s7.13 6.85 7.58 7.27a3.25 3.25 0 01.77 1.91V50h-.92v-5.34a2.25 2.25 0 00-.59-1.39c-.26-.23-7.47-7.12-7.47-7.12l.63-.67m.1-.11h-.21l-.63.68v.21c.08.07 7.22 6.89 7.48 7.12a2 2 0 01.54 1.29V50l.15.15h.92l.15-.15v-5.34a3.45 3.45 0 00-.81-2c-.45-.41-7.52-7.2-7.59-7.27z"/><path class="cls-3" d="M15.43 50.07l-.07-.07v-5.34a3.4 3.4 0 01.79-2c.44-.41 7.51-7.2 7.59-7.27h.1l.63.67v.1L17 43.33a2.1 2.1 0 00-.57 1.34V50l-.07.07z"/><path class="cls-5" d="M23.79 35.48l.63.67L17 43.27a2.15 2.15 0 00-.59 1.39V50h-.93v-5.34a3.39 3.39 0 01.77-1.91c.45-.42 7.59-7.27 7.59-7.27m-.11-.11c-.07.07-7.14 6.86-7.58 7.27a3.46 3.46 0 00-.82 2V50l.15.15h.93l.15-.15v-5.34a2 2 0 01.54-1.28l7.47-7.12v-.21l-.63-.68z"/><path class="cls-3" d="M29.59 16.73l-.08-.08v-6.34l.08-.07h.92l.08.07v6.34l-.08.08h-.92z"/><path class="cls-5" d="M30.51 10.31v6.34h-.92v-6.34h.92m0-.15h-.92l-.15.15v6.34l.15.15h.92l.15-.15v-6.34l-.15-.15z"/><path class="cls-3" d="M29.59 50.07l-.08-.07v-6.35l.08-.07h.92l.08.07V50l-.08.07h-.92z"/><path class="cls-5" d="M30.51 43.65V50h-.92v-6.35h.92m0-.15h-.92l-.15.15V50l.15.15h.92l.15-.15v-6.35l-.15-.15z"/><path class="cls-3" d="M40.47 30.69l-.08-.08v-.92l.08-.07h9.7l.08.07v.92l-.08.08h-9.7z"/><path class="cls-5" d="M50.17 29.69v.93h-9.7v-.93h9.7m0-.15h-9.7l-.15.15v.93l.15.15h9.7l.15-.15v-.93l-.15-.15z"/><path class="cls-3" d="M9.92 30.69l-.07-.08v-.92l.07-.07h9.71l.07.07v.92l-.07.08H9.92z"/><path class="cls-5" d="M19.62 29.69v.93h-9.7v-.93h9.7m0-.15h-9.7l-.15.15v.93l.15.15h9.7l.15-.15v-.93l-.15-.15z"/><path class="cls-3" d="M30.05 61.33a8.51 8.51 0 108.5 8.51 8.51 8.51 0 00-8.5-8.51zm0 13.19a4.68 4.68 0 114.67-4.68 4.68 4.68 0 01-4.67 4.68zm0-1.49a3.19 3.19 0 113.19-3.19A3.19 3.19 0 0130.05 73z"/><path class="cls-4" d="M9.92 50v39.68h40.25V50zm36.72 36.15H13.45V53.53h33.19z"/><path class="cls-3" d="M23.74 64.57c-.08-.07-7.15-6.86-7.59-7.27a3.39 3.39 0 01-.79-2v-5.38h1.07v5.41a2.09 2.09 0 00.57 1.33l7.47 7.13.05.05-.73.78z"/><path class="cls-5" d="M16.36 50v5.33a2.12 2.12 0 00.64 1.39l7.47 7.12-.63.68s-7.14-6.86-7.59-7.28a3.39 3.39 0 01-.77-1.91V50h.93m.15-.15h-1.28v5.48a3.46 3.46 0 00.82 2l7.58 7.27.11.11.11-.11.63-.67.1-.11-.11-.1-7.47-7.13a2 2 0 01-.54-1.29v-5.45z"/><path class="cls-3" d="M35.57 63.84l.06-.05 7.47-7.13a2.09 2.09 0 00.56-1.33v-5.41h1.08v5.41a3.45 3.45 0 01-.8 2c-.44.41-7.51 7.2-7.58 7.27l-.06.05z"/><path class="cls-5" d="M44.66 50v5.33a3.25 3.25 0 01-.77 1.91c-.45.42-7.58 7.28-7.58 7.28l-.63-.68 7.47-7.12a2.23 2.23 0 00.59-1.39V50h.92m.15-.15h-1.22v5.48a2 2 0 01-.54 1.28c-.26.23-7.4 7.06-7.48 7.13l-.1.1.1.11.63.67.1.11.11-.11L44 57.35a3.39 3.39 0 00.82-2v-5.5z"/><path class="cls-3" d="M43.66 89.76v-5.41A2.1 2.1 0 0043.1 83c-.26-.23-7.47-7.12-7.47-7.12h-.06l.73-.79.06.06 7.58 7.27a3.45 3.45 0 01.8 2v5.42z"/><path class="cls-5" d="M36.31 75.16s7.13 6.85 7.58 7.27a3.31 3.31 0 01.77 1.92v5.33h-.92v-5.33a2.23 2.23 0 00-.59-1.35l-7.47-7.13.63-.67m0-.21l-.1.11-.63.67-.1.11.1.1 7.48 7.13a2 2 0 01.54 1.29v5.47h1.22v-5.52a3.5 3.5 0 00-.81-2c-.45-.41-7.52-7.2-7.59-7.27L36.3 75z"/><path class="cls-3" d="M15.36 89.76v-5.41a3.37 3.37 0 01.79-2l7.59-7.27.05-.06.73.79h-.05L17 83a2.1 2.1 0 00-.57 1.34v5.41z"/><path class="cls-5" d="M23.79 75.16l.63.67L17 83a2.12 2.12 0 00-.59 1.39v5.33h-.93v-5.37a3.45 3.45 0 01.77-1.92c.45-.42 7.59-7.27 7.59-7.27m0-.21l-.11.1c-.07.07-7.14 6.86-7.58 7.27a3.51 3.51 0 00-.82 2v5.49h1.23v-5.46a2 2 0 01.54-1.28l7.47-7.13.11-.1-.1-.11-.63-.67-.16-.06z"/><path class="cls-3" d="M29.51 49.92h1.08v6.49h-1.08z"/><path class="cls-5" d="M30.51 50v6.34h-.92V50h.92m.15-.15h-1.22v6.64h1.22v-6.64z"/><path class="cls-3" d="M29.51 83.26h1.08v6.49h-1.08z"/><path class="cls-5" d="M30.51 83.34v6.34h-.92v-6.34h.92m.15-.15h-1.22v6.64h1.22v-6.64z"/><path class="cls-3" d="M40.39 69.3h9.85v1.07h-9.85z"/><path class="cls-5" d="M50.17 69.38v.92h-9.7v-.92h9.7m.15-.15h-10v1.22h10v-1.22z"/><path class="cls-3" d="M9.85 69.3h9.85v1.07H9.85z"/><path class="cls-5" d="M19.62 69.38v.92h-9.7v-.92h9.7m.15-.15h-10v1.22h10v-1.22z"/><circle class="cls-3" cx="111.69" cy="30.15" r="6.38"/><path class="cls-4" d="M91.56 10.31V50h40.25V10.31zm36.72 36.16H95.09V13.84h33.19z"/><path class="cls-3" d="M105.37 24.88l-7.58-7.27a3.37 3.37 0 01-.79-2v-5.3l.07-.07H98l.07.07v5.34a2 2 0 00.57 1.35l7.47 7.12v.11l-.63.67z"/><path class="cls-5" d="M98 10.31v5.34a2.17 2.17 0 00.58 1.35l7.47 7.13-.63.67s-7.13-6.8-7.58-7.24a3.37 3.37 0 01-.77-1.91v-5.34H98m0-.15h-.93l-.15.15v5.34a3.46 3.46 0 00.82 2c.44.41 7.51 7.2 7.58 7.27h.21l.63-.67v-.21l-7.47-7.13a2 2 0 01-.54-1.28v-5.32l-.15-.15z"/><path class="cls-3" d="M117.89 24.88l-.63-.67v-.11l7.47-7.1a2 2 0 00.57-1.34v-5.35l.07-.07h.93l.07.07v5.34a3.37 3.37 0 01-.79 2L118 24.88z"/><path class="cls-5" d="M126.3 10.31v5.34a3.37 3.37 0 01-.77 1.91c-.45.42-7.58 7.27-7.58 7.27l-.63-.67 7.47-7.16a2.17 2.17 0 00.58-1.38v-5.31h.93m0-.15h-.93l-.15.15v5.34a2 2 0 01-.54 1.27l-7.47 7.13v.21l.63.67h.21c.07-.07 7.14-6.86 7.58-7.27a3.46 3.46 0 00.82-2v-5.35l-.15-.15z"/><path class="cls-3" d="M125.37 50.07l-.07-.07v-5.34a2 2 0 00-.57-1.33l-7.47-7.13v-.1l.63-.67h.11c.07.07 7.14 6.86 7.58 7.27a3.4 3.4 0 01.79 2V50l-.07.07z"/><path class="cls-5" d="M118 35.48s7.13 6.85 7.58 7.27a3.32 3.32 0 01.77 1.91V50h-.93v-5.34a2.2 2.2 0 00-.58-1.39c-.26-.23-7.47-7.12-7.47-7.12l.63-.67m.1-.11h-.21l-.63.68v.21l7.47 7.12a2 2 0 01.54 1.29V50l.15.15h.93l.15-.15v-5.34a3.46 3.46 0 00-.82-2c-.44-.41-7.51-7.2-7.58-7.27z"/><path class="cls-3" d="M97.07 50.07L97 50v-5.34a3.4 3.4 0 01.79-2c.44-.41 7.51-7.2 7.58-7.27h.11l.63.67v.1l-7.47 7.13a2 2 0 00-.57 1.34V50l-.07.07z"/><path class="cls-5" d="M105.42 35.48l.63.67s-7.21 6.85-7.47 7.12a2.2 2.2 0 00-.58 1.39V50h-.93v-5.34a3.32 3.32 0 01.77-1.91c.45-.42 7.58-7.27 7.58-7.27m-.1-.11c-.07.07-7.14 6.86-7.58 7.27a3.46 3.46 0 00-.82 2V50l.15.15H98l.15-.15v-5.34a2 2 0 01.54-1.28l7.47-7.12v-.21l-.63-.68z"/><path class="cls-3" d="M111.22 16.73l-.07-.08v-6.34l.07-.07h.93l.07.07v6.34l-.07.08h-.93z"/><path class="cls-5" d="M112.15 10.31v6.34h-.93v-6.34h.93m0-.15h-.93l-.15.15v6.34l.15.15h.93l.15-.15v-6.34l-.15-.15z"/><path class="cls-3" d="M111.22 50.07l-.07-.07v-6.35l.07-.07h.93l.07.07V50l-.07.07h-.93z"/><path class="cls-5" d="M112.15 43.65V50h-.93v-6.35h.93m0-.15h-.93l-.15.15V50l.15.15h.93l.15-.15v-6.35l-.15-.15z"/><path class="cls-3" d="M122.11 30.69l-.08-.08v-.92l.08-.07h9.7l.08.07v.92l-.08.08h-9.7z"/><path class="cls-5" d="M131.81 29.69v.93h-9.7v-.93h9.7m0-.15h-9.7l-.15.15v.93l.15.15h9.7l.15-.15v-.93l-.15-.15z"/><path class="cls-3" d="M91.56 30.69l-.08-.08v-.92l.08-.07h9.7l.08.07v.92l-.08.08h-9.7z"/><path class="cls-5" d="M101.26 29.69v.93h-9.7v-.93h9.7m0-.15h-9.7l-.15.15v.93l.15.15h9.7l.15-.15v-.93l-.15-.15z"/><circle class="cls-3" cx="111.69" cy="69.84" r="4.25"/><path class="cls-4" d="M91.56 50v39.68h40.25V50zm36.72 36.15H95.09V53.53h33.19z"/><path class="cls-3" d="M105.37 64.57c-.07-.07-7.14-6.86-7.58-7.27a3.37 3.37 0 01-.79-2V50l.07-.08H98l.07.08v5.33a2 2 0 00.57 1.33l7.47 7.13v.11l-.63.67z"/><path class="cls-5" d="M98 50v5.33a2.17 2.17 0 00.58 1.39l7.47 7.12-.63.68s-7.13-6.86-7.58-7.28a3.32 3.32 0 01-.77-1.91V50H98m0-.15h-.93l-.15.15v5.33a3.46 3.46 0 00.82 2l7.58 7.27h.21l.63-.67v-.21l-7.47-7.13a2 2 0 01-.54-1.29V50l-.15-.15z"/><path class="cls-3" d="M117.89 64.57l-.63-.67v-.11l7.47-7.13a2 2 0 00.57-1.33V50l.07-.08h.93l.07.08v5.33a3.4 3.4 0 01-.79 2c-.44.41-7.51 7.2-7.58 7.27z"/><path class="cls-5" d="M126.3 50v5.33a3.32 3.32 0 01-.77 1.91c-.45.42-7.58 7.28-7.58 7.28l-.63-.68 7.47-7.12a2.17 2.17 0 00.58-1.39V50h.93m0-.15h-.93l-.15.15v5.33a2 2 0 01-.54 1.28l-7.47 7.13V64l.63.67h.21l7.58-7.27a3.46 3.46 0 00.82-2V50l-.15-.15z"/><path class="cls-3" d="M125.37 89.76l-.07-.08v-5.33a2.07 2.07 0 00-.57-1.34l-7.47-7.12v-.11l.63-.67h.11l7.58 7.27a3.37 3.37 0 01.79 2v5.34l-.07.08z"/><path class="cls-5" d="M118 75.16s7.13 6.85 7.58 7.27a3.38 3.38 0 01.77 1.92v5.33h-.93v-5.33a2.17 2.17 0 00-.58-1.39l-7.47-7.13.63-.67m.1-.11h-.21l-.63.67v.21l7.47 7.13a2 2 0 01.54 1.29v5.32l.15.15h.93l.15-.15v-5.32a3.51 3.51 0 00-.82-2c-.44-.41-7.51-7.2-7.58-7.27z"/><path class="cls-3" d="M97.07 89.76l-.07-.08v-5.33a3.37 3.37 0 01.79-2l7.58-7.27h.11l.63.67v.11L98.64 83a2 2 0 00-.57 1.34v5.33l-.07.08z"/><path class="cls-5" d="M105.42 75.16l.63.67L98.58 83a2.17 2.17 0 00-.58 1.35v5.33h-.93v-5.33a3.38 3.38 0 01.77-1.92c.45-.42 7.58-7.27 7.58-7.27m-.1-.11c-.07.07-7.14 6.86-7.58 7.27a3.51 3.51 0 00-.82 2v5.34l.15.15H98l.15-.15v-5.31a2 2 0 01.54-1.28l7.47-7.13v-.21l-.63-.67z"/><path class="cls-3" d="M111.22 56.41l-.07-.07V50l.07-.08h.93l.07.08v6.34l-.07.07h-.93z"/><path class="cls-5" d="M112.15 50v6.34h-.93V50h.93m0-.15h-.93l-.15.15v6.34l.15.15h.93l.15-.15V50l-.15-.15z"/><path class="cls-3" d="M111.22 89.76l-.07-.08v-6.34l.07-.08h.93l.07.08v6.34l-.07.08h-.93z"/><path class="cls-5" d="M112.15 83.34v6.34h-.93v-6.34h.93m0-.15h-.93l-.15.15v6.34l.15.15h.93l.15-.15v-6.34l-.15-.15z"/><path class="cls-3" d="M122.11 70.38l-.08-.08v-.92l.08-.08h9.7l.08.08v.92l-.08.08h-9.7z"/><path class="cls-5" d="M131.81 69.38v.92h-9.7v-.92h9.7m0-.15h-9.7l-.15.15v.92l.15.15h9.7l.15-.15v-.92l-.15-.15z"/><path class="cls-3" d="M91.56 70.38l-.08-.08v-.92l.08-.08h9.7l.08.08v.92l-.08.08h-9.7z"/><path class="cls-5" d="M101.26 69.38v.92h-9.7v-.92h9.7m0-.15h-9.7l-.15.15v.92l.15.15h9.7l.15-.15v-.92l-.15-.15z"/><circle class="cls-3" cx="70.87" cy="30.15" r="6.38"/><path class="cls-4" d="M50.74 10.31V50H91V10.31zm36.72 36.16H54.27V13.84h33.19z"/><path class="cls-3" d="M64.55 24.88L57 17.61a3.37 3.37 0 01-.79-2v-5.3l.07-.07h.93l.07.07v5.34a2 2 0 00.54 1.35l7.47 7.12v.11l-.63.67z"/><path class="cls-5" d="M57.18 10.31v5.34a2.12 2.12 0 00.59 1.35l7.47 7.13-.63.67S57.47 18 57 17.56a3.45 3.45 0 01-.77-1.91v-5.34h.93m0-.15h-.93l-.15.15v5.34a3.46 3.46 0 00.82 2c.44.41 7.51 7.2 7.58 7.27h.22l.63-.67v-.21l-7.47-7.13a2 2 0 01-.54-1.28v-5.32l-.15-.15z"/><path class="cls-3" d="M77.07 24.88l-.63-.67v-.11l7.48-7.1a2.1 2.1 0 00.56-1.34v-5.35l.07-.07h.93l.07.07v5.34a3.37 3.37 0 01-.79 2l-7.58 7.27z"/><path class="cls-5" d="M85.48 10.31v5.34a3.31 3.31 0 01-.77 1.91c-.45.42-7.58 7.27-7.58 7.27l-.63-.67L84 17a2.17 2.17 0 00.58-1.38v-5.31h.93m0-.15h-.93l-.15.15v5.34a2 2 0 01-.54 1.27l-7.47 7.13v.21l.63.67h.21c.07-.07 7.14-6.86 7.58-7.27a3.46 3.46 0 00.82-2v-5.35l-.15-.15z"/><path class="cls-3" d="M84.55 50.07l-.07-.07v-5.34a2.09 2.09 0 00-.56-1.33l-7.48-7.13v-.1l.63-.67h.11c.07.07 7.14 6.86 7.58 7.27a3.4 3.4 0 01.79 2V50l-.07.07z"/><path class="cls-5" d="M77.13 35.48s7.13 6.85 7.58 7.27a3.25 3.25 0 01.77 1.91V50h-.93v-5.34a2.2 2.2 0 00-.55-1.39c-.26-.23-7.47-7.12-7.47-7.12l.63-.67m.1-.11H77l-.63.68v.21l7.47 7.12a2 2 0 01.54 1.29V50l.15.15h.93l.15-.15v-5.34a3.46 3.46 0 00-.82-2c-.44-.41-7.51-7.2-7.58-7.27z"/><path class="cls-3" d="M56.25 50.07l-.07-.07v-5.34a3.4 3.4 0 01.79-2c.44-.41 7.51-7.2 7.58-7.27h.11l.63.67v.1l-7.47 7.13a2 2 0 00-.57 1.34V50l-.07.07z"/><path class="cls-5" d="M64.61 35.48l.63.67-7.47 7.12a2.15 2.15 0 00-.59 1.39V50h-.93v-5.34a3.39 3.39 0 01.75-1.91c.45-.42 7.59-7.27 7.59-7.27m-.11-.11c-.07.07-7.14 6.86-7.58 7.27a3.46 3.46 0 00-.82 2V50l.15.15h.93l.15-.15v-5.34a2 2 0 01.54-1.28l7.47-7.12v-.21l-.63-.68z"/><path class="cls-3" d="M70.4 16.73l-.07-.08v-6.34l.07-.07h.93l.07.07v6.34l-.07.08h-.93z"/><path class="cls-5" d="M71.33 10.31v6.34h-.93v-6.34h.93m0-.15h-.93l-.15.15v6.34l.15.15h.93l.15-.15v-6.34l-.15-.15z"/><path class="cls-3" d="M70.4 50.07l-.07-.07v-6.35l.07-.07h.93l.07.07V50l-.07.07h-.93z"/><path class="cls-5" d="M71.33 43.65V50h-.93v-6.35h.93m0-.15h-.93l-.15.15V50l.15.15h.93l.15-.15v-6.35l-.15-.15z"/><path class="cls-3" d="M81.29 30.69l-.08-.08v-.92l.08-.07h9.7l.08.07v.92l-.08.08h-9.7z"/><path class="cls-5" d="M91 29.69v.93h-9.7v-.93H91m0-.15h-9.7l-.15.15v.93l.15.15H91l.15-.15v-.93l-.15-.15z"/><path class="cls-3" d="M50.74 30.69l-.08-.08v-.92l.08-.07h9.7l.08.07v.92l-.08.08h-9.7z"/><path class="cls-5" d="M60.44 29.69v.93h-9.7v-.93h9.7m0-.15h-9.7l-.15.15v.93l.15.15h9.7l.15-.15v-.93l-.15-.15z"/><circle class="cls-3" cx="70.87" cy="69.84" r="4.25"/><path class="cls-4" d="M50.74 50v39.68H91V50zm36.72 36.15H54.27V53.53h33.19z"/><path class="cls-3" d="M64.55 64.57c-.07-.07-7.14-6.86-7.58-7.27a3.39 3.39 0 01-.79-2V50l.07-.08h.93l.07.08v5.33a2 2 0 00.57 1.33l7.47 7.13v.11l-.63.67z"/><path class="cls-5" d="M57.18 50v5.33a2.12 2.12 0 00.59 1.39l7.47 7.12-.63.68s-7.14-6.86-7.61-7.28a3.39 3.39 0 01-.77-1.91V50h.93m0-.15h-.93l-.13.15v5.33a3.46 3.46 0 00.82 2l7.58 7.27h.22l.63-.67v-.21l-7.47-7.13a2 2 0 01-.54-1.29V50l-.15-.15z"/><path class="cls-3" d="M77.07 64.57l-.63-.67v-.11l7.48-7.13a2.09 2.09 0 00.56-1.33V50l.07-.08h.93l.07.08v5.33a3.4 3.4 0 01-.79 2c-.44.41-7.51 7.2-7.58 7.27z"/><path class="cls-5" d="M85.48 50v5.33a3.25 3.25 0 01-.77 1.91c-.45.42-7.58 7.28-7.58 7.28l-.63-.68 7.5-7.12a2.17 2.17 0 00.58-1.39V50h.93m0-.15h-.93l-.18.15v5.33a2 2 0 01-.54 1.28l-7.47 7.13V64l.63.67h.21l7.58-7.27a3.46 3.46 0 00.82-2V50l-.15-.15z"/><path class="cls-3" d="M84.55 89.76l-.07-.08v-5.33a2.12 2.12 0 00-.56-1.35c-.26-.23-7.48-7.12-7.48-7.12v-.11l.63-.67h.11l7.58 7.27a3.37 3.37 0 01.79 2v5.34l-.07.08z"/><path class="cls-5" d="M77.13 75.16s7.13 6.85 7.58 7.27a3.31 3.31 0 01.77 1.92v5.33h-.93v-5.33A2.17 2.17 0 0084 83l-7.5-7.17.63-.67m.1-.11H77l-.63.67v.21l7.47 7.13a2 2 0 01.54 1.29v5.32l.15.15h.93l.15-.15v-5.32a3.51 3.51 0 00-.82-2c-.44-.41-7.51-7.2-7.58-7.27z"/><path class="cls-3" d="M56.25 89.76l-.07-.08v-5.33a3.37 3.37 0 01.79-2l7.58-7.27h.11l.63.67v.11L57.82 83a2.07 2.07 0 00-.57 1.34v5.33l-.07.08z"/><path class="cls-5" d="M64.61 75.16l.63.67L57.77 83a2.12 2.12 0 00-.59 1.39v5.33h-.93v-5.37a3.45 3.45 0 01.75-1.92c.45-.42 7.59-7.27 7.59-7.27m-.11-.11c-.07.07-7.14 6.86-7.58 7.27a3.51 3.51 0 00-.82 2v5.34l.15.15h.93l.15-.15v-5.31a2 2 0 01.54-1.28l7.47-7.13v-.21l-.63-.67z"/><path class="cls-3" d="M70.4 56.41l-.07-.07V50l.07-.08h.93l.07.08v6.34l-.07.07h-.93z"/><path class="cls-5" d="M71.33 50v6.34h-.93V50h.93m0-.15h-.93l-.15.15v6.34l.15.15h.93l.15-.15V50l-.15-.15z"/><path class="cls-3" d="M70.4 89.76l-.07-.08v-6.34l.07-.08h.93l.07.08v6.34l-.07.08h-.93z"/><path class="cls-5" d="M71.33 83.34v6.34h-.93v-6.34h.93m0-.15h-.93l-.15.15v6.34l.15.15h.93l.15-.15v-6.34l-.15-.15z"/><path class="cls-3" d="M81.29 70.38l-.08-.08v-.92l.08-.08h9.7l.08.08v.92l-.08.08h-9.7z"/><path class="cls-5" d="M91 69.38v.92h-9.7v-.92H91m0-.15h-9.7l-.15.15v.92l.15.15H91l.15-.15v-.92l-.15-.15z"/><path class="cls-3" d="M50.74 70.38l-.08-.08v-.92l.08-.08h9.7l.08.08v.92l-.08.08h-9.7z"/><path class="cls-5" d="M60.44 69.38v.92h-9.7v-.92h9.7m0-.15h-9.7l-.15.15v.92l.15.15h9.7l.15-.15v-.92l-.15-.15z"/></g></svg>