<svg xmlns="http://www.w3.org/2000/svg" viewBox="0 0 141.73 99.21"><defs><style>.cls-3,.cls-4{fill:#222221}.cls-4{stroke:#fff;stroke-miterlimit:10;stroke-width:.15px}.cls-5{fill:#fff}</style></defs><g id="Piano" fill="none" stroke="#222221" stroke-linecap="round" stroke-width=".25"><path stroke-linejoin="bevel" d="M7.09 7.09h127.56v85.04H7.09z"/><path d="M7.09 9.31h127.56m-125.47.78l-.54-.78m123.92.78l.58-.78M7.09 92.13l2.22-2.23m125.34 2.23l-2.1-2.23M9.31 10.03h123.25v79.94H9.31z" stroke-linejoin="round"/></g><g id="Bruciatori"><path class="cls-3" d="M33.66 61.33a8.51 8.51 0 108.51 8.51 8.5 8.5 0 00-8.51-8.51zm0 13.19a4.68 4.68 0 114.68-4.68 4.69 4.69 0 01-4.68 4.68zm0-1.49a3.19 3.19 0 113.19-3.19A3.19 3.19 0 0133.66 73z"/><path class="cls-4" d="M9.57 50v39.68h48.19V50zm43.31 36.15H14.44V53.53h38.44z"/><path class="cls-3" d="M27.35 64.57c-.07-.07-7.14-6.86-7.58-7.27a3.48 3.48 0 01-.8-2V50l.08-.08H20l.08.08v5.33a2.09 2.09 0 00.56 1.33l7.47 7.13v.11l-.63.67z"/><path class="cls-5" d="M20 50v5.33a2.12 2.12 0 00.59 1.39L28 63.84l-.63.68s-7.13-6.86-7.58-7.28a3.25 3.25 0 01-.77-1.91V50H20m0-.15h-.92l-.18.15v5.33a3.45 3.45 0 00.81 2c.45.42 7.52 7.21 7.59 7.27h.21l.63-.67v-.21c-.07-.07-7.21-6.9-7.47-7.13a2 2 0 01-.54-1.29V50l-.13-.15z"/><path class="cls-3" d="M39.87 64.57l-.63-.67v-.11l7.47-7.13a2 2 0 00.56-1.33V50l.08-.08h.92l.08.08v5.33a3.44 3.44 0 01-.79 2c-.45.41-7.52 7.2-7.59 7.27z"/><path class="cls-5" d="M48.27 50v5.33a3.31 3.31 0 01-.76 1.91c-.45.42-7.59 7.28-7.59 7.28l-.63-.68 7.47-7.12a2.12 2.12 0 00.59-1.39V50h.92m0-.15h-.92l-.15.15v5.33a2 2 0 01-.54 1.28l-7.47 7.13V64l.63.67H40l7.58-7.27a3.44 3.44 0 00.81-2V50l-.15-.15z"/><path class="cls-3" d="M33.2 56.41l-.08-.07V50l.08-.08h.92l.08.08v6.34l-.08.07h-.92z"/><path class="cls-5" d="M34.12 50v6.34h-.92V50h.92m0-.15h-.92l-.15.15v6.34l.15.15h.92l.15-.15V50l-.15-.15z"/><path class="cls-3" d="M46.83 70.38l-.07-.08v-.92l.07-.08h10.93l.07.08v.92l-.07.08H46.83z"/><path class="cls-5" d="M57.76 69.38v.92H46.83v-.92h10.93m0-.15H46.83l-.15.15v.92l.15.15h10.93l.15-.15v-.92l-.15-.15z"/><path class="cls-3" d="M9.57 70.38l-.08-.08v-.92l.08-.08h10.92l.07.08v.92l-.07.08H9.57z"/><path class="cls-5" d="M20.49 69.38v.92H9.57v-.92h10.92m0-.15H9.57l-.15.15v.92l.15.15h10.92l.15-.15v-.92l-.15-.15z"/><path class="cls-3" d="M47.35 89.76l-.08-.08v-5.33a2 2 0 00-.56-1.35c-.26-.23-7.47-7.12-7.47-7.12v-.11l.63-.67H40c.07.07 7.14 6.85 7.59 7.27a3.43 3.43 0 01.79 2v5.34l-.08.08z"/><path class="cls-5" d="M39.92 75.16s7.14 6.85 7.59 7.27a3.36 3.36 0 01.76 1.92v5.33h-.92v-5.33a2.12 2.12 0 00-.59-1.35l-7.47-7.13.63-.67m.11-.11h-.22l-.63.67v.21l7.47 7.13a2 2 0 01.54 1.29v5.32l.15.15h.92l.15-.15v-5.36a3.5 3.5 0 00-.81-2c-.44-.41-7.51-7.2-7.58-7.27z"/><path class="cls-3" d="M19.05 89.76l-.05-.08v-5.33a3.45 3.45 0 01.8-2l7.58-7.27h.11l.63.67v.11s-7.25 6.92-7.51 7.14a2.1 2.1 0 00-.56 1.34v5.33l-.08.08z"/><path class="cls-5" d="M27.4 75.16l.63.67L20.56 83a2.12 2.12 0 00-.56 1.35v5.33h-.92v-5.33a3.31 3.31 0 01.77-1.92c.45-.42 7.58-7.27 7.58-7.27m-.1-.11c-.07.07-7.14 6.86-7.59 7.27a3.5 3.5 0 00-.81 2v5.34l.15.15H20l.15-.15v-5.31a2 2 0 01.54-1.28l7.47-7.13v-.21l-.63-.67z"/><path class="cls-3" d="M33.2 89.76l-.08-.08v-6.34l.08-.08h.92l.08.08v6.34l-.08.08h-.92z"/><path class="cls-5" d="M34.12 83.34v6.34h-.92v-6.34h.92m0-.15h-.92l-.15.15v6.34l.15.15h.92l.15-.15v-6.34l-.15-.15z"/><circle class="cls-3" cx="33.66" cy="30.15" r="6.38"/><path class="cls-4" d="M9.57 10.31V50h48.19V10.31zm43.31 36.16H14.44V13.84h38.44z"/><path class="cls-3" d="M27.35 24.89l-7.58-7.28a3.45 3.45 0 01-.8-2v-5.3l.08-.07H20l.08.07v5.34a2.09 2.09 0 00.53 1.35l7.47 7.12v.11l-.63.67z"/><path class="cls-5" d="M20 10.31v5.34a2.12 2.12 0 00.56 1.35L28 24.16l-.63.67s-7.1-6.83-7.55-7.27a3.31 3.31 0 01-.77-1.91v-5.34H20m0-.15h-.92l-.15.15v5.34a3.45 3.45 0 00.81 2c.45.41 7.52 7.2 7.59 7.27h.21l.63-.67v-.21l-7.47-7.13a2 2 0 01-.54-1.28v-5.32l-.16-.15z"/><path class="cls-3" d="M39.87 24.88l-.63-.67v-.11l7.47-7.1a2 2 0 00.56-1.34v-5.35l.08-.07h.92l.08.07v5.34a3.43 3.43 0 01-.79 2C47.11 18 40 24.82 40 24.89z"/><path class="cls-5" d="M48.27 10.31v5.34a3.36 3.36 0 01-.76 1.91c-.45.42-7.59 7.27-7.59 7.27l-.63-.67L46.76 17a2.12 2.12 0 00.59-1.38v-5.31h.92m0-.15h-.92l-.15.15v5.34a2 2 0 01-.54 1.27l-7.47 7.13v.21l.63.67H40c.07-.07 7.14-6.86 7.58-7.27a3.44 3.44 0 00.81-2v-5.35l-.15-.15z"/><path class="cls-3" d="M33.2 16.73l-.08-.08v-6.34l.08-.07h.92l.08.07v6.34l-.08.08h-.92z"/><path class="cls-5" d="M34.12 10.31v6.34h-.92v-6.34h.92m0-.15h-.92l-.15.15v6.34l.15.15h.92l.15-.15v-6.34l-.15-.15z"/><path class="cls-3" d="M46.83 30.69l-.07-.07v-.93l.07-.07h10.93l.07.07v.93l-.07.07H46.83z"/><path class="cls-5" d="M57.76 29.69v.93H46.83v-.93h10.93m0-.15H46.83l-.15.15v.93l.15.15h10.93l.15-.15v-.93l-.15-.15z"/><path class="cls-3" d="M9.57 30.69l-.08-.07v-.93l.08-.07h10.92l.07.07v.93l-.07.07H9.57z"/><path class="cls-5" d="M20.49 29.69v.93H9.57v-.93h10.92m0-.15H9.57l-.15.15v.93l.15.15h10.92l.15-.15v-.93l-.15-.15z"/><path class="cls-3" d="M47.35 50.07l-.08-.07v-5.34a2 2 0 00-.56-1.33l-7.47-7.13v-.1l.63-.68H40c.07.07 7.14 6.86 7.59 7.27a3.46 3.46 0 01.79 2V50l-.08.07z"/><path class="cls-5" d="M39.92 35.48s7.14 6.85 7.59 7.27a3.31 3.31 0 01.76 1.91V50h-.92v-5.34a2.15 2.15 0 00-.59-1.39l-7.47-7.12.63-.67m.11-.11h-.22l-.63.68v.21l7.47 7.12a2 2 0 01.54 1.29V50l.15.15h.92l.15-.15v-5.34a3.45 3.45 0 00-.81-2c-.44-.41-7.51-7.2-7.58-7.27z"/><path class="cls-3" d="M19.05 50.07L19 50v-5.34a3.48 3.48 0 01.8-2c.44-.41 7.51-7.2 7.58-7.27h.11l.63.68v.1l-7.47 7.13a2.1 2.1 0 00-.56 1.34V50l-.08.07z"/><path class="cls-5" d="M27.4 35.48l.63.67s-7.21 6.85-7.47 7.12a2.15 2.15 0 00-.56 1.39V50h-.92v-5.34a3.25 3.25 0 01.77-1.91c.45-.42 7.58-7.27 7.58-7.27m-.1-.11c-.07.07-7.14 6.86-7.59 7.27a3.44 3.44 0 00-.81 2V50l.15.15H20l.15-.15v-5.34a2 2 0 01.54-1.28c.26-.23 7.4-7.05 7.47-7.12v-.21l-.63-.68z"/><path class="cls-3" d="M33.2 50.07l-.08-.07v-6.35l.08-.07h.92l.08.07V50l-.08.07h-.92z"/><path class="cls-5" d="M34.12 43.65V50h-.92v-6.35h.92m0-.15h-.92l-.15.15V50l.15.15h.92l.15-.15v-6.35l-.15-.15z"/><circle class="cls-3" cx="108.32" cy="69.83" r="4.25"/><path class="cls-4" d="M84.22 50v39.68h48.19V50zm43.32 36.16H89.1V53.52h38.44z"/><path class="cls-3" d="M121.49 70.37l-.07-.07v-.93l.07-.07h10.92l.08.07v.93l-.08.07h-10.92z"/><path class="cls-5" d="M132.41 69.37v.93h-10.92v-.93h10.92m0-.15h-10.92l-.15.15v.93l.15.15h10.92l.15-.15v-.93l-.15-.15z"/><path class="cls-3" d="M84.22 70.37l-.07-.07v-.93l.07-.07h10.93l.07.07v.93l-.07.07H84.22z"/><path class="cls-5" d="M95.15 69.37v.93H84.22v-.93h10.93m0-.15H84.22l-.15.15v.93l.15.15h10.93l.15-.15v-.93l-.15-.15z"/><path class="cls-3" d="M102 64.57c-.07-.07-7.14-6.86-7.59-7.28a3.41 3.41 0 01-.79-2V50l.08-.07h.92l.08.07v5.34a2.09 2.09 0 00.56 1.33l7.47 7.13v.1l-.63.67z"/><path class="cls-5" d="M94.63 50v5.34a2.12 2.12 0 00.59 1.38l7.47 7.13-.63.67s-7.14-6.85-7.59-7.27a3.33 3.33 0 01-.76-1.91V50h.92m0-.15h-.92l-.15.15v5.34a3.45 3.45 0 00.81 2c.44.41 7.51 7.2 7.58 7.27h.22l.63-.67v-.21l-7.48-7.13a2 2 0 01-.54-1.28V50l-.15-.15z"/><path class="cls-3" d="M114.52 64.56l-.63-.67v-.1l7.47-7.13a2.1 2.1 0 00.56-1.34V50l.08-.07h.92l.08.07v5.34a3.42 3.42 0 01-.8 2l-7.58 7.28z"/><path class="cls-5" d="M122.93 50v5.34a3.28 3.28 0 01-.77 1.91l-7.58 7.27-.63-.67 7.47-7.13a2.12 2.12 0 00.59-1.38V50h.92m0-.15H122l-.15.15v5.34a2 2 0 01-.54 1.27l-7.47 7.13v.21l.63.67h.21c.07-.07 7.14-6.86 7.59-7.27a3.44 3.44 0 00.81-2V50l-.15-.15z"/><path class="cls-3" d="M122 89.75l-.08-.07v-5.34a2.09 2.09 0 00-.56-1.33l-7.47-7.13v-.1l.63-.67h.11l7.58 7.28a3.42 3.42 0 01.8 2v5.34l-.08.07z"/><path class="cls-5" d="M114.58 75.16l7.58 7.27a3.25 3.25 0 01.77 1.91v5.34H122v-5.34a2.12 2.12 0 00-.59-1.38L114 75.83l.63-.67m.1-.11h-.21l-.63.68v.21l7.47 7.13a2 2 0 01.54 1.28v5.33l.15.15h.92l.15-.15v-5.34a3.45 3.45 0 00-.81-2c-.45-.41-7.52-7.2-7.59-7.27z"/><path class="cls-3" d="M93.71 89.75l-.08-.07v-5.34a3.41 3.41 0 01.79-2c.45-.42 7.52-7.21 7.59-7.28h.1l.63.67v.1L95.27 83a2.1 2.1 0 00-.56 1.34v5.33l-.08.07z"/><path class="cls-5" d="M102.06 75.16l.63.67L95.22 83a2.12 2.12 0 00-.59 1.38v5.34h-.92v-5.38a3.31 3.31 0 01.76-1.91c.45-.42 7.59-7.27 7.59-7.27m-.11-.11c-.07.07-7.14 6.86-7.58 7.27a3.44 3.44 0 00-.81 2v5.35l.15.15h.92l.15-.15v-5.33a2 2 0 01.54-1.27l7.47-7.13v-.21l-.63-.68z"/><path class="cls-3" d="M107.86 56.41l-.08-.07v-6.35l.08-.07h.92l.08.07v6.35l-.08.07h-.92z"/><path class="cls-5" d="M108.78 50v6.35h-.92V50h.92m0-.15h-.92l-.15.15v6.35l.15.15h.92l.15-.15V50l-.15-.15z"/><path class="cls-3" d="M107.86 89.75l-.08-.07v-6.35l.08-.07h.92l.08.07v6.35l-.08.07h-.92z"/><path class="cls-5" d="M108.78 83.33v6.35h-.92v-6.35h.92m0-.15h-.92l-.15.15v6.35l.15.15h.92l.15-.15v-6.35l-.15-.15z"/><circle class="cls-3" cx="108.32" cy="30.16" r="6.38"/><path class="cls-4" d="M84.22 10.32V50h48.19V10.32zm43.32 36.15H89.1V13.84h38.44z"/><path class="cls-3" d="M102 24.89c-.07-.07-7.14-6.86-7.59-7.27a3.44 3.44 0 01-.79-2v-5.31l.08-.07h.92l.08.07v5.34a2.09 2.09 0 00.57 1.35l7.47 7.13v.1l-.63.68z"/><path class="cls-5" d="M94.63 10.32v5.33a2.15 2.15 0 00.59 1.35l7.47 7.12-.63.68s-7.14-6.8-7.59-7.24a3.31 3.31 0 01-.76-1.91v-5.33h.92m0-.15h-.92l-.15.15v5.33a3.45 3.45 0 00.81 2l7.63 7.29h.22l.63-.67v-.22l-7.47-7.12a2 2 0 01-.54-1.29v-5.32l-.15-.15z"/><path class="cls-3" d="M114.52 24.89l-.63-.68v-.1l7.48-7.11a2.09 2.09 0 00.56-1.33v-5.36l.08-.07h.92l.08.07v5.34a3.48 3.48 0 01-.8 2c-.44.41-7.51 7.2-7.58 7.27z"/><path class="cls-5" d="M122.93 10.32v5.33a3.25 3.25 0 01-.77 1.91l-7.58 7.28-.63-.68 7.47-7.16a2.15 2.15 0 00.59-1.39v-5.29h.92m0-.15H122l-.15.15v5.33a2 2 0 01-.54 1.28c-.26.23-7.4 7.06-7.47 7.12v.22l.63.67h.21c.07-.07 7.14-6.85 7.59-7.27a3.44 3.44 0 00.81-2v-5.35l-.15-.15z"/><path class="cls-3" d="M107.86 16.73l-.08-.07v-6.35l.08-.07h.92l.08.07v6.35l-.08.07h-.92z"/><path class="cls-5" d="M108.78 10.32v6.34h-.92v-6.34h.92m0-.15h-.92l-.15.15v6.34l.15.15h.92l.15-.15v-6.34l-.15-.15z"/><path class="cls-3" d="M121.49 30.7l-.07-.08v-.92l.07-.08h10.92l.08.08v.92l-.08.08h-10.92z"/><path class="cls-5" d="M132.41 29.7v.92h-10.92v-.92h10.92m0-.15h-10.92l-.15.15v.92l.15.15h10.92l.15-.15v-.92l-.15-.15z"/><path class="cls-3" d="M84.22 30.7l-.07-.08v-.92l.07-.08h10.93l.07.08v.92l-.07.08H84.22z"/><path class="cls-5" d="M95.15 29.7v.92H84.22v-.92h10.93m0-.15H84.22l-.15.15v.92l.15.15h10.93l.15-.15v-.92l-.15-.15z"/><path class="cls-3" d="M122 50.08l-.08-.08v-5.33a2.1 2.1 0 00-.56-1.34l-7.47-7.12v-.11l.63-.67h.11l7.58 7.27a3.45 3.45 0 01.8 2V50l-.08.08z"/><path class="cls-5" d="M114.58 35.48l7.58 7.27a3.31 3.31 0 01.77 1.92V50H122v-5.33a2.12 2.12 0 00-.59-1.39L114 36.15l.63-.67m.1-.11h-.21l-.63.67v.21l7.47 7.13a2 2 0 01.54 1.28V50l.15.15h.92l.15-.15v-5.33a3.47 3.47 0 00-.81-2c-.45-.41-7.52-7.2-7.59-7.27z"/><path class="cls-3" d="M93.71 50.08l-.08-.08v-5.33a3.44 3.44 0 01.79-2c.45-.42 7.52-7.21 7.59-7.27h.1l.63.67v.11l-7.47 7.12a2.1 2.1 0 00-.56 1.34V50l-.08.08z"/><path class="cls-5" d="M102.06 35.48l.63.67-7.47 7.13a2.12 2.12 0 00-.59 1.39V50h-.92v-5.33a3.36 3.36 0 01.76-1.92c.45-.42 7.59-7.27 7.59-7.27m-.11-.11c-.07.07-7.14 6.86-7.58 7.27a3.47 3.47 0 00-.81 2V50l.15.15h.92l.15-.15v-5.33a2 2 0 01.54-1.28l7.47-7.13v-.21l-.63-.67z"/><path class="cls-3" d="M107.86 50.08l-.08-.08v-6.34l.08-.08h.92l.08.08V50l-.08.08h-.92z"/><path class="cls-5" d="M108.78 43.66V50h-.92v-6.34h.92m0-.15h-.92l-.15.15V50l.15.15h.92l.15-.15v-6.34l-.15-.15z"/><rect class="cls-3" x="67.15" y="33.69" width="7.57" height="32.6" rx="3.78"/><path class="cls-4" d="M57.83 10.35v79.36h26.22V10.35zM80.64 86.2H61.23V13.65h19.41z"/><path class="cls-3" d="M57.83 50.53l-.08-.08v-.92l.08-.08h7.65l.08.08v.92l-.08.08h-7.65z"/><path class="cls-5" d="M65.48 49.53v.92h-7.65v-.92h7.65m0-.15h-7.65l-.15.15v.92l.15.15h7.65l.15-.15v-.92l-.15-.15z"/><path class="cls-3" d="M57.83 70.36l-.08-.08v-.92l.08-.08h7.65l.08.08v.92l-.08.08h-7.65z"/><path class="cls-5" d="M65.48 69.36v.92h-7.65v-.92h7.65m0-.15h-7.65l-.15.15v.92l.15.15h7.65l.15-.15v-.92l-.15-.15z"/><path class="cls-3" d="M76.39 50.53l-.07-.08v-.92l.07-.08h7.66l.07.08v.92l-.07.08h-7.66z"/><path class="cls-5" d="M84.05 49.53v.92h-7.66v-.92h7.66m0-.15h-7.66l-.15.15v.92l.15.15h7.66l.15-.15v-.92l-.15-.15z"/><path class="cls-3" d="M76.39 70.36l-.07-.08v-.92l.07-.08h7.66l.07.08v.92l-.07.08h-7.66z"/><path class="cls-5" d="M84.05 69.36v.92h-7.66v-.92h7.66m0-.15h-7.66l-.15.15v.92l.15.15h7.66l.15-.15v-.92l-.15-.15z"/><path class="cls-3" d="M57.83 30.7l-.08-.08v-.92l.08-.08h7.65l.08.08v.92l-.08.08h-7.65z"/><path class="cls-5" d="M65.48 29.7v.92h-7.65v-.92h7.65m0-.15h-7.65l-.15.15v.92l.15.15h7.65l.15-.15v-.92l-.15-.15z"/><path class="cls-3" d="M57.83 20.73l-.08-.08v-.92l.08-.07h26.22l.07.07v.92l-.07.08H57.83z"/><path class="cls-5" d="M84.05 19.73v.92H57.83v-.92h26.22m0-.15H57.83l-.15.15v.92l.15.15h26.22l.15-.15v-.92l-.15-.15z"/><path class="cls-3" d="M57.83 80.33l-.08-.08v-.92l.08-.08h26.22l.07.08v.92l-.07.08H57.83z"/><path class="cls-5" d="M84.05 79.33v.92H57.83v-.92h26.22m0-.15H57.83l-.15.15v.92l.15.15h26.22l.15-.15v-.92l-.15-.15z"/><path class="cls-3" d="M76.39 30.7l-.07-.08v-.92l.07-.08h7.66l.07.08v.92l-.07.08h-7.66z"/><path class="cls-5" d="M84.05 29.7v.92h-7.66v-.92h7.66m0-.15h-7.66l-.15.15v.92l.15.15h7.66l.15-.15v-.92l-.15-.15z"/></g></svg>