<svg xmlns="http://www.w3.org/2000/svg" viewBox="0 0 141.73 99.21"><defs><style>.cls-3,.cls-4{fill:#222221}.cls-4{font-size:10px;font-family:&apos;Faktpro&apos;,sans-serif}</style></defs><g id="Piano" stroke-linecap="round" fill="none" stroke="#222221" stroke-width=".25"><path stroke-linejoin="bevel" d="M7.09 7.09h127.56v85.04H7.09z"/><path d="M9.31 10.03h123.25v79.94H9.31zm-2.22-.72h127.56m-125.34.78l-.58-.78m123.83.78l.58-.78M7.09 92.13l2.22-2.23m125.34 2.23l-2.09-2.23" stroke-linejoin="round"/></g><g id="Bruciatori"><path class="cls-3" d="M72.28 26.09a17.43 17.43 0 11-17.42 17.42 17.44 17.44 0 0117.42-17.42m0-1a18.43 18.43 0 1018.43 18.42 18.42 18.42 0 00-18.43-18.42z"/><text class="cls-4" transform="translate(68.76 47.01)">D</text><path class="cls-3" d="M111.4 52.17a11.76 11.76 0 11-11.75 11.75 11.77 11.77 0 0111.75-11.75m0-1a12.76 12.76 0 1012.76 12.75 12.75 12.75 0 00-12.76-12.75zM30.33 50a13.88 13.88 0 11-13.88 13.92A13.89 13.89 0 0130.33 50m0-1a14.88 14.88 0 1014.88 14.92A14.88 14.88 0 0030.33 49zm0-28.37a9.28 9.28 0 11-9.27 9.28 9.29 9.29 0 019.27-9.28m0-1a10.28 10.28 0 1010.28 10.28 10.27 10.27 0 00-10.28-10.28z"/><text class="cls-4" transform="translate(27.11 33.4)">A</text><text class="cls-4" transform="translate(108.08 67.42)">B</text><path class="cls-3" d="M111.4 18.15a11.76 11.76 0 11-11.75 11.76 11.77 11.77 0 0111.75-11.76m0-1a12.76 12.76 0 1012.76 12.76 12.75 12.75 0 00-12.76-12.76z"/><text class="cls-4" transform="translate(108.08 33.4)">B</text><text class="cls-4" transform="translate(26.77 67.42)">C</text><rect x="70.51" y="71.65" width="11.21" height="6.09" rx=".55" stroke-linejoin="round" fill="none" stroke="#222221" stroke-width=".25"/></g></svg>