<svg xmlns="http://www.w3.org/2000/svg" viewBox="0 0 150.24 153.07"><defs><style>.cls-1,.cls-2,.cls-3,.cls-4,.cls-9{fill:none}.cls-1,.cls-2,.cls-3,.cls-4,.cls-6{stroke:#222221}.cls-1{stroke-miterlimit:10;stroke-width:.5px}.cls-2,.cls-4{stroke-miterlimit:1.4}.cls-2,.cls-3,.cls-9{stroke-width:.25px}.cls-3,.cls-6,.cls-9{stroke-miterlimit:1.41}.cls-4{stroke-width:.3px}.cls-13,.cls-6{fill:#222221}.cls-6{stroke-width:.2px}.cls-9{stroke:#20201f}.cls-10,.cls-11{fill:#20201f}.cls-11{font-size:7px;font-family:Fakt-Normal,Fakt}</style></defs><g id="Ranges"><path class="cls-1" d="M136.76 146.28h6.1v1.12h-6.1zm-.41-13.05h6.91v13.05h-6.91zM24.33 146.28h6.1v1.12h-6.1zm-.4-13.05h6.91v13.05h-6.91z"/><rect class="cls-1" x="34.05" y="35.15" width="10.94" height="7.3" rx="1.82"/><path class="cls-1" d="M19.82 17.01h127.56v116.22H19.82zm0 8.5h127.56M27.61 31.18h111.97"/><path class="cls-1" d="M53.69 38.8a3.06 3.06 0 113.05 3.05 3.05 3.05 0 01-3.05-3.05zm12.06 0a3.06 3.06 0 113.06 3.05 3.06 3.06 0 01-3.06-3.05zm12.07 0a3.06 3.06 0 113.06 3.05 3.06 3.06 0 01-3.06-3.05zm12.07 0A3.06 3.06 0 1193 41.85a3.06 3.06 0 01-3.11-3.05zm12.11 0a3.06 3.06 0 113 3.05 3.06 3.06 0 01-3-3.05zm12 0a3.06 3.06 0 113 3.05 3.06 3.06 0 01-3-3.05zm12.09 0a3.06 3.06 0 113.06 3.05 3.06 3.06 0 01-3.06-3.05z"/><path class="cls-2" d="M35.52 40.75a.49.49 0 11.49.48.49.49 0 01-.49-.48zm1.79 0a.49.49 0 11.49.48.49.49 0 01-.49-.48zm1.79 0a.49.49 0 01.49-.49.49.49 0 010 1 .49.49 0 01-.49-.51z"/><path class="cls-3" d="M40.89 40.75a.49.49 0 11.49.48.49.49 0 01-.49-.48zm1.79 0a.48.48 0 01.48-.49.49.49 0 110 1 .48.48 0 01-.48-.51z"/><rect class="cls-2" x="36.44" y="36.79" width="5.96" height="1.84" rx=".61"/><path class="cls-1" d="M139.58 133.23V25.51M27.61 133.23V25.51"/><path class="cls-4" d="M47.48 55.35h2.88v3.29h-2.88zm69.35 0h2.88v3.29h-2.88z"/><path fill="#fff" stroke-width=".3" stroke-miterlimit="1.4" stroke="#222221" d="M44.48 53.96h78.24v3.52H44.48z"/><path class="cls-6" d="M65.33 25.57v-2.79h14.33l-4.41 1.06h-6.72v1.73h-3.2zm73.57.04v-2.79h-14.66l4.41 1.06h6.72v1.73h3.53zm-18.96-2.83h.86v2.79h-.86z"/><path class="cls-6" d="M65.33 25.61v-2.83H50.78l4.38 1.08h6.66v1.75h3.51zm-37.04.03v-2.82h14.23l-4.38 1.07h-6.66v1.75h-3.19zm18.2-2.86h.86v2.82h-.86zm55.5 2.79v-2.79h14.34l-4.42 1.06h-6.71v1.73h-3.21zm0 .04v-2.83H87.44l4.38 1.08h6.66v1.75h3.51zm-18.83-2.83h.86v2.82h-.86z"/><rect x="44.48" y="65.85" width="78.24" height="28.9" rx="1.24" stroke-miterlimit="1.41" stroke-width=".5" stroke="#222221" fill="none"/><path class="cls-1" d="M27.61 111.97h111.97m-111.97 4.25h111.97m-111.97 2.14h111.97"/><path class="cls-4" d="M27.68 46.64h111.83M27.68 48.76h111.83"/><path class="cls-1" d="M27.68 50.17h111.83"/></g><g id="Dimensions"><path d="M24.29 147.4H11.34m8.5-14.17h-8.5m8.5-116.22h-8.5m8.5 8.5h-8.5" stroke="#20201f" fill="#fff" stroke-miterlimit="1.41" stroke-width=".25"/><path class="cls-9" d="M14.17 25.78v107.18"/><path class="cls-10" d="M13.15 26.61l.18.17.84-.9.84.9.19-.17-1.03-1.1-1.02 1.1zm0 105.52l.18-.17.84.9.84-.9.19.17-1.03 1.1-1.02-1.1z"/><text class="cls-11" transform="rotate(-90 47.625 37.705)">760</text><text class="cls-11" transform="rotate(-90 11.2 1.28)">60</text><path class="cls-9" d="M14.17 8.5v8.24"/><path class="cls-10" d="M13.15 15.91l.18-.17.84.9.84-.9.19.17-1.03 1.1-1.02-1.1z"/><path class="cls-9" d="M14.17 25.51v-8.5"/><path d="M19.82 17.01V8.5m127.56 8.51V8.5" fill="#fff" stroke-miterlimit="1.41" stroke-width=".25" stroke="#222221"/><path class="cls-3" d="M147.1 11.34H20.09"/><path class="cls-13" d="M146.28 10.32l-.17.18.9.84-.9.84.17.18 1.1-1.02-1.1-1.02zm-125.36 0l.17.18-.91.84.91.84-.17.18-1.1-1.02 1.1-1.02z"/><text transform="translate(77.63 7.06)" font-size="7" font-family="Fakt-Normal,Fakt" fill="#222221">900</text><path class="cls-9" d="M14.17 133.23v14.17"/><text class="cls-11" transform="rotate(-90 81.495 71.575)">100รท160</text><path class="cls-3" d="M14.17 147.67v5.4"/><path class="cls-13" d="M13.15 148.5l.18.17.84-.9.84.9.19-.17-1.03-1.1-1.02 1.1z"/></g></svg>