<svg xmlns="http://www.w3.org/2000/svg" viewBox="0 0 192.76 153.07"><defs><style>.cls-12,.cls-2,.cls-3,.cls-4,.cls-5,.cls-6,.cls-7,.cls-8,.cls-9{fill:none}.cls-2,.cls-3,.cls-4,.cls-5,.cls-6,.cls-7,.cls-8,.cls-9{stroke:#222221}.cls-12,.cls-2,.cls-7,.cls-9{stroke-miterlimit:1.41}.cls-2{stroke-width:.51px}.cls-3,.cls-8{stroke-miterlimit:1.4}.cls-3{stroke-width:.3px}.cls-4,.cls-5,.cls-6{stroke-miterlimit:10}.cls-4{stroke-width:.5px}.cls-5{stroke-width:.51px}.cls-6{stroke-width:.4px}.cls-7{stroke-width:.3px}.cls-12,.cls-8,.cls-9{stroke-width:.25px}.cls-10{fill:#222221}.cls-12{stroke:#20201f}.cls-13,.cls-14{fill:#20201f}.cls-14{font-size:7px;font-family:Fakt-Normal,Fakt}</style></defs><path fill="#fff" d="M19.84 17.01v116.22h4.34v13.05h.41v1.12h6.1v-1.12h.4v-13.05h147.58v13.05h.4v1.12h6.11v-1.12h.4v-13.05h4.34V17.01H19.84z" id="Riempimento"/><g id="Ranges"><path class="cls-2" d="M47.21 64.18h74.25c1.18 0 2.13.56 2.13 1.25v26.4c0 .7-1 1.26-2.13 1.26H47.21c-1.18 0-2.14-.56-2.14-1.26v-26.4c0-.69.93-1.25 2.14-1.25z"/><path class="cls-3" d="M30.76 54.43h107.15v4.54H30.76z"/><path class="cls-4" d="M179.07 146.28h6.1v1.12h-6.1zm-.4-13.05h6.91v13.05h-6.91zM24.59 146.28h6.1v1.12h-6.1zm-.41-13.05h6.91v13.05h-6.91zM19.84 17.01h170.08v116.22H19.84z"/><path class="cls-5" d="M19.84 25.51h170.08M19.84 31.18h170.08"/><path class="cls-6" d="M53.6 38.2a3.06 3.06 0 113.06 3.06 3.06 3.06 0 01-3.06-3.06z"/><path class="cls-3" d="M56.66 35.35v.94"/><path class="cls-7" d="M55.73 41.12v-5.83m1.86 5.83v-5.83"/><path class="cls-6" d="M64.26 38.2a3.06 3.06 0 113 3.06 3.06 3.06 0 01-3-3.06z"/><path class="cls-3" d="M67.31 35.35v.94"/><path class="cls-7" d="M66.38 41.12v-5.83m1.86 5.83v-5.83"/><path class="cls-6" d="M74.91 38.2a3.06 3.06 0 113 3.06 3.06 3.06 0 01-3-3.06z"/><path class="cls-3" d="M77.96 35.35v.94"/><path class="cls-7" d="M77.03 41.12v-5.83m1.86 5.83v-5.83"/><path class="cls-6" d="M85.56 38.2a3.06 3.06 0 113.06 3.06 3.06 3.06 0 01-3.06-3.06z"/><path class="cls-3" d="M88.62 35.35v.94"/><path class="cls-7" d="M87.69 41.12v-5.83m1.86 5.83v-5.83"/><path class="cls-6" d="M96.21 38.2a3.06 3.06 0 113.06 3.06 3.06 3.06 0 01-3.06-3.06z"/><path class="cls-3" d="M99.27 35.35v.94"/><path class="cls-7" d="M98.34 41.12v-5.83m1.86 5.83v-5.83"/><path class="cls-6" d="M106.86 38.2a3.06 3.06 0 113.06 3.06 3.06 3.06 0 01-3.06-3.06z"/><path class="cls-3" d="M109.92 35.35v.94"/><path class="cls-7" d="M108.99 41.12v-5.83m1.86 5.83v-5.83"/><path class="cls-6" d="M117.51 38.2a3.06 3.06 0 113.06 3.06 3.06 3.06 0 01-3.06-3.06z"/><path class="cls-3" d="M120.57 35.35v.94"/><path class="cls-7" d="M119.64 41.12v-5.83m1.86 5.83v-5.83"/><path class="cls-6" d="M144.22 38.2a3.06 3.06 0 113.06 3.06 3.06 3.06 0 01-3.06-3.06z"/><path class="cls-3" d="M147.28 35.35v.94"/><path class="cls-7" d="M146.35 41.12v-5.83m1.86 5.83v-5.83"/><path class="cls-6" d="M154.87 38.2a3.06 3.06 0 113.06 3.06 3.06 3.06 0 01-3.06-3.06z"/><path class="cls-3" d="M157.93 35.35v.94"/><path class="cls-7" d="M157 41.12v-5.83m1.86 5.83v-5.83"/><path class="cls-6" d="M165.52 38.2a3.06 3.06 0 113.06 3.06 3.06 3.06 0 01-3.06-3.06z"/><path class="cls-3" d="M168.58 35.35v.94"/><path class="cls-7" d="M167.65 41.12v-5.83m1.86 5.83v-5.83"/><rect class="cls-6" x="32.17" y="34.56" width="10.94" height="7.3" rx="1.82"/><path class="cls-8" d="M33.65 40.15a.49.49 0 01.49-.48.49.49 0 010 1 .49.49 0 01-.49-.52zm1.79 0a.49.49 0 11.48.49.49.49 0 01-.48-.49zm1.78 0a.49.49 0 11.49.49.49.49 0 01-.49-.49z"/><path class="cls-9" d="M39 40.15a.49.49 0 11.49.49.49.49 0 01-.49-.49zm1.8 0a.49.49 0 11.49.49.49.49 0 01-.49-.49z"/><rect class="cls-8" x="34.57" y="36.2" width="5.96" height="1.84" rx=".61"/><path class="cls-10" d="M64.05 21.53H23.97v3.98h1.3v-2.59h2.35v2.59h1.31v-2.59H43.5v2.59h1.02v-2.59h13.29v2.59h1.31v-2.59h3.62v2.59h1.31v-3.98zm40.62 0H64.59v3.98h1.3v-2.59h2.35v2.59h1.31v-2.59h14.57v2.59h1.02v-2.59h13.29v2.59h1.31v-2.59h3.62v2.59h1.31v-3.98zm40.51 0h-40.09v1.39h.01v2.59h1.3v-2.59h2.35v2.59h1.3v-2.59h14.58v2.59h1.02v-2.59h13.29v2.59h1.3v-2.59h3.63v2.59h1.31v-3.98zm40.62 0h-40.08v3.98h1.3v-2.59h2.35v2.59h1.3v-2.59h14.58v2.59h1.02v-2.59h13.29v2.59h1.3v-2.59h3.63v2.59h1.31v-3.98z"/><path class="cls-3" d="M27.64 133.23V31.18m154.49 102.05V31.18"/><path class="cls-2" d="M151.79 64.18h19.57c.31 0 .56.56.56 1.25v26.4c0 .7-.25 1.26-.56 1.26h-19.57c-.31 0-.56-.56-.56-1.26v-26.4c0-.69.25-1.25.56-1.25z"/><path class="cls-3" d="M144.2 54.43h34.75v4.54H144.2z"/><path class="cls-5" d="M27.64 46.64h154.49M27.64 111.97h154.49M27.64 48.76h154.49"/><rect class="cls-4" x="27.64" y="52.16" width="113.39" height="57.81" rx=".29"/><rect class="cls-4" x="141.02" y="52.16" width="41.1" height="57.81" rx=".29"/></g><g id="Dimensions"><path d="M24.29 147.4H11.34m8.5-14.17h-8.5m8.5-116.22h-8.5m8.5 8.5h-8.5" stroke="#20201f" stroke-width=".25" stroke-miterlimit="1.41" fill="#fff"/><path class="cls-12" d="M14.17 25.78v107.18"/><path class="cls-13" d="M13.15 26.61l.18.17.84-.9.84.9.19-.17-1.03-1.1-1.02 1.1zm0 105.52l.18-.17.84.9.84-.9.19.17-1.03 1.1-1.02-1.1z"/><text class="cls-14" transform="rotate(-90 47.625 37.705)">760</text><text class="cls-14" transform="rotate(-90 11.2 1.28)">60</text><path class="cls-12" d="M14.17 8.5v8.24"/><path class="cls-13" d="M13.15 15.91l.18-.17.84.9.84-.9.19.17-1.03 1.1-1.02-1.1z"/><path class="cls-12" d="M14.17 25.51v-8.5"/><path d="M19.84 17.01V8.5m170.08 8.51V8.5" stroke-width=".25" stroke-miterlimit="1.41" stroke="#222221" fill="#fff"/><path class="cls-9" d="M189.65 11.34H20.11"/><path class="cls-10" d="M188.82 10.32l-.17.18.91.84-.91.84.17.18 1.1-1.02-1.1-1.02zm-167.88 0l.17.18-.9.84.9.84-.17.18-1.1-1.02 1.1-1.02z"/><text transform="translate(96.93 7.06)" font-size="7" font-family="Fakt-Normal,Fakt" fill="#222221">1200</text><path class="cls-12" d="M14.17 133.23v14.17"/><text class="cls-14" transform="rotate(-90 81.495 71.575)">100รท160</text><path class="cls-9" d="M14.17 147.67v5.4"/><path class="cls-10" d="M13.15 148.5l.18.17.84-.9.84.9.19-.17-1.03-1.1-1.02 1.1z"/></g></svg>