<svg xmlns="http://www.w3.org/2000/svg" viewBox="0 0 235.28 153.07"><defs><style>.cls-1,.cls-10,.cls-2,.cls-3,.cls-5,.cls-8{fill:none}.cls-1,.cls-2,.cls-3,.cls-5,.cls-7,.cls-8{stroke:#222221}.cls-1{stroke-miterlimit:10}.cls-1,.cls-8{stroke-width:.5px}.cls-2,.cls-5{stroke-miterlimit:1.4}.cls-10,.cls-2,.cls-3{stroke-width:.25px}.cls-10,.cls-3,.cls-7,.cls-8{stroke-miterlimit:1.41}.cls-5{stroke-width:.3px}.cls-14,.cls-7{fill:#222221}.cls-7{stroke-width:.2px}.cls-10{stroke:#20201f}.cls-11,.cls-12{fill:#20201f}.cls-12{font-size:7px;font-family:Fakt-Normal,Fakt}</style></defs><g id="Ranges"><path class="cls-1" d="M221.59 146.28h6.1v1.12h-6.1zm-.4-13.05h6.91v13.05h-6.91zm-196.6 13.05h6.1v1.12h-6.1zm-.41-13.05h6.91v13.05h-6.91zM19.84 17.01h212.6v116.22H19.84zm0 8.5h212.6m-212.6 5.67h212.6"/><path class="cls-1" d="M61 38.89A3.06 3.06 0 1164.07 42 3.05 3.05 0 0161 38.89zm-27.42 0A3.06 3.06 0 1136.64 42a3.05 3.05 0 01-3.06-3.11zm38.08 0A3.06 3.06 0 1174.72 42a3.05 3.05 0 01-3.06-3.11zm10.65 0A3.06 3.06 0 1185.37 42a3.05 3.05 0 01-3.06-3.11zm10.69 0A3.06 3.06 0 1196 42a3.05 3.05 0 01-3-3.11zm10.61 0a3.06 3.06 0 113.06 3.11 3.05 3.05 0 01-3.06-3.11zm10.65 0a3.06 3.06 0 113.06 3.11 3.05 3.05 0 01-3.06-3.11zm10.66 0A3.06 3.06 0 11128 42a3 3 0 01-3.08-3.11zm33.89 0a3.06 3.06 0 113.06 3.11 3.05 3.05 0 01-3.06-3.11zm10.65 0a3.06 3.06 0 113.06 3.11 3.05 3.05 0 01-3.06-3.11zm10.65 0a3.06 3.06 0 113.06 3.11 3.05 3.05 0 01-3.06-3.11zm9.45 0a3.06 3.06 0 113.06 3.11 3.05 3.05 0 01-3.06-3.11z"/><rect class="cls-1" x="207.62" y="35.24" width="10.94" height="7.3" rx="1.82"/><path class="cls-2" d="M209.09 40.84a.49.49 0 11.49.49.49.49 0 01-.49-.49zm1.79 0a.49.49 0 11.49.49.49.49 0 01-.49-.49zm1.79 0a.49.49 0 01.49-.49.49.49 0 010 1 .49.49 0 01-.49-.51z"/><path class="cls-3" d="M214.46 40.84a.49.49 0 11.49.49.49.49 0 01-.49-.49zm1.79 0a.48.48 0 01.48-.49.49.49 0 110 1 .48.48 0 01-.48-.51z"/><rect class="cls-2" x="210.01" y="36.89" width="5.96" height="1.84" rx=".61"/><path class="cls-1" d="M138.97 111.97v-61.8"/><path d="M27.64 133.23V31.18m197.01 102.05V31.18" stroke-miterlimit="1.4" stroke-width=".5" stroke="#222221" fill="none"/><path class="cls-5" d="M33.76 55.21h2.88v3.44h-2.88zm96.27 0h2.88v3.44h-2.88zm14.96 0h2.88v3.44h-2.88zm70.72 0h2.88v3.44h-2.88z"/><path d="M30.76 53.96h105.16v3.54H30.76zm111.26 0h79.58v3.54h-79.58z" fill="#fff" stroke-width=".3" stroke-miterlimit="1.4" stroke="#222221"/><path class="cls-7" d="M224.65 25.51v-3.04h-16.03l4.82 1.15h7.34v1.89h3.87zm-20.04-3.04h.94v3.04h-.94zM67.8 25.54v-3.03h15.55l-4.78 1.15h-7.29v1.88H67.8zm0 .03v-3.06H52.02l4.75 1.17H64v1.89h3.8zm39.5-.05V22.5h15.55l-4.79 1.14h-7.28v1.88h-3.48z"/><path class="cls-7" d="M107.3 25.55V22.5H91.52l4.75 1.16h7.23v1.89h3.8zm78.69-.05v-3.02h15.55l-4.79 1.14h-7.28v1.88h-3.48zm-158.35.11v-3.06h15.43l-4.75 1.16h-7.23v1.9h-3.45zm19.74-3.1h.93v3.06h-.93zm39.76 0h.93v3.06h-.93zm38.84 0h.93v3.06h-.93zm19.98 3.03v-3.06h-15.78l4.75 1.16h7.23v1.9h3.8zm40.03-.04v-3.02h-15.9l4.79 1.14h7.28v1.88h3.83zm-20.56-3.02h.94v3.02h-.94zm-19.47 3.02v-3.02h15.54l-4.78 1.14h-7.28v1.88h-3.48z"/><path class="cls-7" d="M155.13 22.48h22.54v1.15h-22.54z"/><rect class="cls-8" x="45.07" y="65.85" width="76.46" height="28.9" rx="1.25"/><rect class="cls-8" x="156.4" y="65.85" width="50.7" height="28.9" rx="1.27"/><path class="cls-1" d="M27.64 111.97h197.01m-197.01 4.25h197.01m-197.01 2.14h197.01"/><path class="cls-5" d="M27.76 46.64h196.77M27.76 48.76h196.77"/><path class="cls-1" d="M27.76 50.17h196.77"/></g><g id="Dimensions"><path d="M24.29 147.4H11.34m8.5-14.17h-8.5m8.5-116.22h-8.5m8.5 8.5h-8.5" stroke="#20201f" fill="#fff" stroke-miterlimit="1.41" stroke-width=".25"/><path class="cls-10" d="M14.17 25.78v107.18"/><path class="cls-11" d="M13.15 26.61l.18.17.84-.9.84.9.19-.17-1.03-1.1-1.02 1.1zm0 105.52l.18-.17.84.9.84-.9.19.17-1.03 1.1-1.02-1.1z"/><text class="cls-12" transform="rotate(-90 47.625 37.705)">760</text><text class="cls-12" transform="rotate(-90 11.2 1.28)">60</text><path class="cls-10" d="M14.17 8.5v8.24"/><path class="cls-11" d="M13.15 15.91l.18-.17.84.9.84-.9.19.17-1.03 1.1-1.02-1.1z"/><path class="cls-10" d="M14.17 25.51v-8.5"/><path d="M19.87 17.01V8.5m212.6 8.51V8.5" fill="#fff" stroke-miterlimit="1.41" stroke-width=".25" stroke="#222221"/><path class="cls-3" d="M232.19 11.34H20.14"/><path class="cls-14" d="M231.37 10.32l-.17.18.9.84-.9.84.17.18 1.1-1.02-1.1-1.02zm-210.4 0l.17.18-.9.84.9.84-.17.18-1.1-1.02 1.1-1.02z"/><text transform="translate(118.22 7.06)" font-size="7" font-family="Fakt-Normal,Fakt" fill="#222221">1500</text><path class="cls-10" d="M14.17 133.23v14.17"/><text class="cls-12" transform="rotate(-90 81.495 71.575)">100รท160</text><path class="cls-3" d="M14.17 147.67v5.4"/><path class="cls-14" d="M13.15 148.5l.18.17.84-.9.84.9.19-.17-1.03-1.1-1.02 1.1z"/></g></svg>