<svg xmlns="http://www.w3.org/2000/svg" viewBox="0 0 141.73 113.39"><defs><style>.cls-4{fill:#222221}.cls-2,.cls-3{fill:none;stroke:#222221}.cls-2{stroke-linejoin:round;stroke-width:.25px}.cls-3{stroke-miterlimit:10}.cls-4{font-size:10px;font-family:&apos;Faktpro&apos;,sans-serif}</style></defs><g id="Piano"><path d="M134.92 7.59v95.35c0 1-1.34 2.86-3.79 2.86H10.6c-2.45 0-3.79-1.89-3.79-2.86V7.59h128.11m.5-.5H6.31v95.85c0 1.29 1.59 3.36 4.29 3.36h120.53c2.7 0 4.29-2.07 4.29-3.36V7.09z" fill="#222221"/><path class="cls-2" d="M6.31 9.21h129.12M6.31 98.11h129.11M6.31 18.45h129.11M8.21 98.11V18.45m125.32 79.66V18.45"/></g><g id="Bruciatori_e_griglie" data-name="Bruciatori e griglie"><circle class="cls-3" cx="111.48" cy="74.98" r="12.76"/><circle class="cls-3" cx="30.4" cy="72.71" r="14.88"/><circle class="cls-3" cx="72.36" cy="52.3" r="18.43"/><circle class="cls-3" cx="30.4" cy="38.69" r="10.28"/><text class="cls-4" transform="translate(27.18 42.19)">A</text><text class="cls-4" transform="translate(108.16 78.47)">B</text><circle class="cls-3" cx="111.48" cy="40.96" r="12.76"/><text class="cls-4" transform="translate(108.16 44.46)">B</text><text class="cls-4" transform="translate(26.84 76.21)">C</text><text class="cls-4" transform="translate(68.84 55.8)">D</text><rect class="cls-2" x="70.58" y="80.44" width="11.21" height="6.09" rx=".55"/></g></svg>