<svg xmlns="http://www.w3.org/2000/svg" viewBox="0 0 151.65 164.41"><defs><style>.cls-10,.cls-5{fill:#20201e}.cls-2,.cls-3,.cls-4,.cls-6,.cls-8,.cls-9{stroke:#20201e}.cls-4,.cls-8,.cls-9{stroke-miterlimit:1.41}.cls-2,.cls-3,.cls-4,.cls-8{fill:#fff}.cls-2,.cls-3,.cls-6{stroke-miterlimit:10}.cls-2{stroke-width:.4px}.cls-3,.cls-4{stroke-width:.3px}.cls-6,.cls-9{fill:none}.cls-6{stroke-width:.5px}.cls-8,.cls-9{stroke-width:.25px}.cls-10{font-size:7px;font-family:Fakt-Normal,Fakt}</style></defs><g id="Ranges"><path d="M102.83 25.24v-2.98h15.35l-4.73 1.13h-7.18v1.85h-3.44zm39.64.03V22.3h-15.69l4.73 1.13h7.18v1.84h3.78zm-20.29-3.01h.92v2.98h-.92zm-56.11 2.98v-2.98H50.38l4.72 1.13h7.19v1.85h3.78zm-39.94.03V22.3h15.35l-4.73 1.13h-7.18v1.84h-3.44zm19.63-3.01h.92v2.98h-.92z" stroke-width=".2" stroke-miterlimit="1.41" stroke="#20201e" fill="#20201e"/><circle class="cls-2" cx="54.49" cy="42.48" r="3.62"/><rect class="cls-3" x="55.75" y="41.78" width="4.31" height="1.39" rx=".56"/><circle class="cls-3" cx="54.49" cy="42.48" r="2.09"/><circle class="cls-2" cx="65.84" cy="42.48" r="3.62"/><rect class="cls-3" x="67.1" y="41.78" width="4.31" height="1.39" rx=".56"/><circle class="cls-3" cx="65.84" cy="42.48" r="2.09"/><circle class="cls-2" cx="77.2" cy="42.48" r="3.62"/><rect class="cls-3" x="78.46" y="41.78" width="4.31" height="1.39" rx=".56"/><circle class="cls-3" cx="77.2" cy="42.48" r="2.09"/><circle class="cls-2" cx="88.26" cy="42.48" r="3.62"/><rect class="cls-3" x="89.52" y="41.78" width="4.31" height="1.39" rx=".56"/><circle class="cls-3" cx="88.26" cy="42.48" r="2.09"/><circle class="cls-2" cx="99.32" cy="42.48" r="3.62"/><rect class="cls-3" x="100.58" y="41.78" width="4.31" height="1.39" rx=".56"/><circle class="cls-3" cx="99.32" cy="42.48" r="2.09"/><circle class="cls-2" cx="110.82" cy="42.48" r="3.62"/><rect class="cls-3" x="112.08" y="41.78" width="4.31" height="1.39" rx=".56"/><circle class="cls-3" cx="110.82" cy="42.48" r="2.09"/><circle class="cls-2" cx="122.25" cy="42.48" r="3.62"/><rect class="cls-3" x="123.51" y="41.78" width="4.31" height="1.39" rx=".56"/><circle class="cls-3" cx="122.25" cy="42.48" r="2.09"/><circle class="cls-2" cx="133.59" cy="42.48" r="3.62"/><rect class="cls-3" x="134.85" y="41.78" width="4.31" height="1.39" rx=".56"/><circle class="cls-3" cx="133.59" cy="42.48" r="2.09"/><path class="cls-4" d="M39.79 58.63h89.08v3.48H39.79zm-5.05 1.07h4.13v1.23h-4.13z"/><ellipse class="cls-4" cx="34.13" cy="60.26" rx="1.85" ry="1.9"/><path class="cls-4" d="M39.79 60.73h1.2v4h-1.2z"/><rect class="cls-4" x="37.18" y="58.14" width="5.01" height="4.47" rx=".24"/><path class="cls-4" d="M129.74 59.7h4.13v1.23h-4.13z"/><ellipse class="cls-4" cx="134.32" cy="60.26" rx="1.85" ry="1.9"/><ellipse class="cls-4" cx="134.32" cy="60.26" rx="1.85" ry="1.9"/><path class="cls-4" d="M127.68 60.73h1.2v4h-1.2z"/><rect class="cls-4" x="126.26" y="58.14" width="5.01" height="4.47" rx=".24"/><ellipse class="cls-5" cx="83.26" cy="37.24" rx="1.2" ry="1.24"/><ellipse class="cls-5" cx="48.29" cy="37.24" rx="1.2" ry="1.24"/><rect class="cls-6" x="39.88" y="67.46" width="89.16" height="30.87" rx="1.41"/><path class="cls-6" d="M142.73 113.39H25.87m0 22.67V31.2m116.86 22.66H25.87m116.86 82.19V31.18m-122.89 0h128.98M19.84 25.51h128.98m-128.98-8.5h128.98v119.06H19.84z"/><path class="cls-6" d="M30.1 38.44h13.24v8.07H30.1z"/><path class="cls-5" d="M140.82 115.3v18.85h-113V115.3h113m.5-.5h-114v19.85h114V114.8zm-.5-59.02v55.69h-113V55.78h113m.5-.5h-114V112h114V55.28zm-.5-22.18v18.84h-113V33.1h113m.5-.5h-114v19.84h114V32.6z"/><path d="M19.84 136.06v19.85H31.7s-.05-3.34-.05-6.21 3.23-3.48 5.07-4.18c3.73-1.43 9.11-2.7 13.37-3.81 4-1 3.77-5.65 3.77-5.65zm128.98 0v19.85H137v-6.21c0-2.87-3.23-3.48-5.07-4.18-3.73-1.43-9.11-2.7-13.37-3.81-4-1-3.76-5.65-3.76-5.65z" stroke-width=".5" fill="none" stroke-miterlimit="1.41" stroke="#20201e"/></g><g id="Dimensions"><path class="cls-8" d="M19.84 155.91h-8.5m8.5-19.85h-8.5m8.5-119.05h-8.5m8.5 8.5h-8.5"/><path class="cls-9" d="M14.17 25.78v110.01"/><path class="cls-5" d="M13.15 26.61l.18.17.84-.9.84.9.19-.17-1.03-1.1-1.02 1.1zm0 108.35l.18-.17.84.9.84-.9.19.17-1.03 1.1-1.02-1.1z"/><text class="cls-10" transform="rotate(-90 48.335 38.415)">780</text><text class="cls-10" transform="rotate(-90 11.2 1.28)">60</text><path class="cls-9" d="M14.17 8.5v8.24"/><path class="cls-5" d="M13.15 15.91l.18-.17.84.9.84-.9.19.17-1.03 1.1-1.02-1.1z"/><path class="cls-9" d="M14.17 25.51v-8.5m0 119.05v19.85"/><text class="cls-10" transform="rotate(-90 85.75 75.83)">140</text><path class="cls-9" d="M14.17 156.18v5.39"/><path class="cls-5" d="M13.15 157l.18.18.84-.91.84.91.19-.18-1.03-1.09-1.02 1.09z"/><path class="cls-8" d="M19.84 16.98v-8.5m128.98 8.5v-8.5"/><path class="cls-9" d="M148.55 11.31H20.11"/><path class="cls-5" d="M147.72 10.29l-.17.18.9.84-.9.84.17.18 1.1-1.02-1.1-1.02zm-126.78 0l.17.18-.9.84.9.84-.17.18-1.1-1.02 1.1-1.02z"/><text class="cls-10" transform="translate(78.37 7.06)">911</text></g></svg>