<svg xmlns="http://www.w3.org/2000/svg" viewBox="0 0 155.91 99.21"><defs><style>.cls-2{fill:none;stroke:#222221;stroke-linecap:round;stroke-width:.25px;stroke-linejoin:round}.cls-3,.cls-5{fill:#222221}.cls-5{stroke:#fff;stroke-miterlimit:10;stroke-width:.15px}.cls-6{fill:#fff}</style></defs><g id="Piano"><path stroke-linejoin="bevel" stroke-linecap="round" stroke-width=".25" fill="none" stroke="#222221" d="M7.09 7.09h141.73v85.04H7.09z"/><path class="cls-2" d="M9.31 10.03h137.42v79.94H9.31zm-2.22-.72h141.73m-139.51.78l-.58-.78m138.01.78l.57-.78M7.09 92.13l2.22-2.23m139.51 2.23l-2.08-2.23"/></g><g id="Bruciatori"><path class="cls-3" d="M146.19 10.81v78.37H91.07V10.81h55.12m.5-.5H90.57v79.37h56.12V10.31z"/><rect x="93.12" y="15.53" width="51.02" height="1.42" rx=".71" stroke-miterlimit="1.41" stroke-width=".49" fill="none" stroke="#222221"/><rect class="cls-2" x="97.91" y="82.97" width="4.25" height="1.42" rx=".71"/><rect class="cls-2" x="107.21" y="82.97" width="4.25" height="1.42" rx=".71"/><rect class="cls-2" x="116.5" y="82.97" width="4.25" height="1.42" rx=".71"/><rect class="cls-2" x="125.8" y="82.97" width="4.25" height="1.42" rx=".71"/><rect class="cls-2" x="135.1" y="82.97" width="4.25" height="1.42" rx=".71"/><circle class="cls-2" cx="118.63" cy="49.96" r="17.72"/><circle class="cls-2" cx="118.63" cy="49.96" r=".71"/><circle class="cls-2" cx="118.63" cy="49.96" r="16.72"/><circle class="cls-2" cx="118.63" cy="49.96" r="5.95"/><circle class="cls-2" cx="118.63" cy="49.96" r="8.15"/><circle class="cls-2" cx="118.63" cy="49.96" r="10.63"/><circle class="cls-2" cx="118.63" cy="49.96" r="13.11"/><circle class="cls-2" cx="118.63" cy="49.96" r="15.59"/><circle class="cls-3" cx="29.91" cy="30.15" r="6.38"/><path class="cls-5" d="M9.78 10.31V50H50V10.31zM46.5 46.47H13.31V13.84H46.5z"/><path class="cls-3" d="M23.59 24.89L16 17.61a3.43 3.43 0 01-.79-2v-5.3l.07-.07h.93l.07.07v5.34a2 2 0 00.58 1.35l7.47 7.12v.11l-.63.67z"/><path class="cls-6" d="M16.22 10.31v5.34a2.12 2.12 0 00.59 1.35l7.47 7.13-.63.67s-7.14-6.8-7.59-7.24a3.45 3.45 0 01-.77-1.91v-5.34h.93m0-.15h-.93l-.15.15v5.34a3.46 3.46 0 00.82 2c.44.41 7.51 7.2 7.58 7.27h.21l.63-.67v-.21l-7.47-7.13a2 2 0 01-.54-1.28v-5.32l-.15-.15z"/><path class="cls-3" d="M36.11 24.88l-.63-.67v-.11L43 17a2 2 0 00.57-1.34v-5.35l.07-.07h.93l.07.07v5.34a3.37 3.37 0 01-.79 2l-7.58 7.28z"/><path class="cls-6" d="M44.52 10.31v5.34a3.37 3.37 0 01-.77 1.91c-.45.42-7.58 7.27-7.58 7.27l-.63-.67L43 17a2.17 2.17 0 00.58-1.38v-5.31h.93m0-.15h-.93l-.15.15v5.34a2 2 0 01-.54 1.27l-7.47 7.13v.21l.63.67h.21c.07-.07 7.14-6.86 7.58-7.27a3.46 3.46 0 00.82-2v-5.35l-.15-.15z"/><path class="cls-3" d="M43.59 50.07l-.07-.07v-5.34a2 2 0 00-.52-1.33l-7.52-7.13v-.1l.63-.68h.11c.07.07 7.14 6.86 7.58 7.27a3.4 3.4 0 01.79 2V50l-.07.07z"/><path class="cls-6" d="M36.17 35.48s7.13 6.85 7.58 7.27a3.32 3.32 0 01.77 1.91V50h-.93v-5.34a2.2 2.2 0 00-.59-1.39c-.26-.23-7.47-7.12-7.47-7.12l.63-.67m.1-.11h-.21l-.63.68v.21l7.47 7.12a2 2 0 01.54 1.29V50l.15.15h.93l.15-.15v-5.34a3.46 3.46 0 00-.82-2c-.44-.41-7.51-7.2-7.58-7.27z"/><path class="cls-3" d="M15.29 50.07l-.07-.07v-5.34a3.46 3.46 0 01.79-2c.44-.41 7.51-7.2 7.58-7.27h.11l.63.68v.1l-7.47 7.13a2 2 0 00-.57 1.34V50l-.07.07z"/><path class="cls-6" d="M23.65 35.48l.63.67-7.47 7.12a2.15 2.15 0 00-.59 1.39V50h-.93v-5.34a3.39 3.39 0 01.77-1.91c.45-.42 7.59-7.27 7.59-7.27m-.11-.11c-.07.07-7.14 6.86-7.58 7.27a3.46 3.46 0 00-.82 2V50l.15.15h.93l.15-.15v-5.34a2 2 0 01.54-1.28l7.47-7.12v-.21l-.63-.68z"/><path class="cls-3" d="M29.44 16.73l-.07-.08v-6.34l.07-.07h.93l.07.07v6.34l-.07.08h-.93z"/><path class="cls-6" d="M30.37 10.31v6.34h-.93v-6.34h.93m0-.15h-.93l-.15.15v6.34l.15.15h.93l.15-.15v-6.34l-.15-.15z"/><path class="cls-3" d="M29.44 50.07l-.07-.07v-6.35l.07-.07h.93l.07.07V50l-.07.07h-.93z"/><path class="cls-6" d="M30.37 43.65V50h-.93v-6.35h.93m0-.15h-.93l-.15.15V50l.15.15h.93l.15-.15v-6.35l-.15-.15z"/><path class="cls-3" d="M40.33 30.69l-.08-.07v-.93l.08-.07h9.7l.08.07v.93l-.08.07h-9.7z"/><path class="cls-6" d="M50 29.69v.93h-9.7v-.93H50m0-.15h-9.7l-.15.15v.93l.15.15H50l.15-.15v-.93l-.15-.15z"/><path class="cls-3" d="M9.78 30.69l-.07-.07v-.93l.07-.07h9.7l.08.07v.93l-.08.07h-9.7z"/><path class="cls-6" d="M19.48 29.69v.93h-9.7v-.93h9.7m0-.15h-9.7l-.15.15v.93l.15.15h9.7l.15-.15v-.93l-.15-.15z"/><path class="cls-3" d="M29.91 61.33a8.51 8.51 0 108.5 8.51 8.51 8.51 0 00-8.5-8.51zm0 13.19a4.68 4.68 0 114.67-4.68 4.68 4.68 0 01-4.67 4.68zm0-1.49a3.19 3.19 0 113.18-3.19A3.19 3.19 0 0129.91 73z"/><path class="cls-5" d="M9.78 50v39.68H50V50zM46.5 86.15H13.31V53.53H46.5z"/><path class="cls-3" d="M23.59 64.57c-.07-.07-7.14-6.86-7.58-7.27a3.43 3.43 0 01-.79-2v-5.38h1.07v5.41a2 2 0 00.57 1.33l7.47 7.13.05.05-.73.78z"/><path class="cls-6" d="M16.22 50v5.33a2.12 2.12 0 00.59 1.39l7.47 7.12-.63.68s-7.14-6.86-7.59-7.28a3.39 3.39 0 01-.77-1.91V50h.93m.15-.15h-1.23v5.48a3.46 3.46 0 00.82 2l7.58 7.27.11.11.1-.11.63-.67.11-.11-.11-.1-7.47-7.13a2 2 0 01-.54-1.29v-5.45z"/><path class="cls-3" d="M35.43 63.84v-.05L43 56.66a2 2 0 00.57-1.33v-5.41h1.07v5.41a3.4 3.4 0 01-.79 2c-.44.41-7.51 7.2-7.58 7.27l-.06.05z"/><path class="cls-6" d="M44.52 50v5.33a3.32 3.32 0 01-.77 1.91c-.45.42-7.58 7.28-7.58 7.28l-.63-.68L43 56.72a2.17 2.17 0 00.58-1.39V50h.93m.15-.15h-1.22v5.48a2 2 0 01-.54 1.28l-7.47 7.13-.11.1.11.11.63.67.1.11.11-.11 7.58-7.27a3.46 3.46 0 00.82-2v-5.5z"/><path class="cls-3" d="M43.52 89.76v-5.41A2 2 0 0043 83l-7.47-7.12.73-.79.06.06 7.58 7.27a3.37 3.37 0 01.79 2v5.42z"/><path class="cls-6" d="M36.17 75.16s7.13 6.84 7.58 7.27a3.38 3.38 0 01.77 1.92v5.33h-.93v-5.33A2.17 2.17 0 0043 83l-7.47-7.13.63-.67m0-.21l-.1.11-.63.67-.11.11.11.1 7.47 7.13a2 2 0 01.54 1.29v5.47h1.23v-5.52a3.51 3.51 0 00-.82-2c-.44-.41-7.51-7.2-7.58-7.27l-.11-.1z"/><path class="cls-3" d="M15.22 89.76v-5.41a3.44 3.44 0 01.79-2l7.58-7.27.06-.06.73.79h-.05L16.86 83a2 2 0 00-.57 1.34v5.41z"/><path class="cls-6" d="M23.65 75.16l.63.67L16.81 83a2.12 2.12 0 00-.59 1.39v5.33h-.93v-5.37a3.45 3.45 0 01.77-1.92c.45-.42 7.59-7.27 7.59-7.27m0-.21l-.11.1c-.07.07-7.14 6.86-7.58 7.27a3.51 3.51 0 00-.82 2v5.49h1.23v-5.46a2 2 0 01.54-1.28l7.47-7.13.11-.1-.11-.11-.63-.67-.1-.11z"/><path class="cls-3" d="M29.37 49.92h1.08v6.49h-1.08z"/><path class="cls-6" d="M30.37 50v6.34h-.93V50h.93m.15-.15h-1.23v6.64h1.23v-6.64z"/><path class="cls-3" d="M29.37 83.26h1.08v6.49h-1.08z"/><path class="cls-6" d="M30.37 83.34v6.34h-.93v-6.34h.93m.15-.15h-1.23v6.64h1.23v-6.64z"/><path class="cls-3" d="M40.25 69.3h9.85v1.07h-9.85z"/><path class="cls-6" d="M50 69.38v.92h-9.7v-.92H50m.15-.15h-10v1.22h10v-1.22z"/><path class="cls-3" d="M9.7 69.3h9.85v1.07H9.7z"/><path class="cls-6" d="M19.48 69.38v.92h-9.7v-.92h9.7m.15-.15h-10v1.22h10v-1.22z"/><circle class="cls-3" cx="70.44" cy="30.15" r="6.38"/><path class="cls-5" d="M50.31 10.31V50h40.26V10.31zM87 46.47H53.84V13.84H87z"/><path class="cls-3" d="M64.13 24.89c-.07-.07-7.14-6.86-7.59-7.28a3.51 3.51 0 01-.79-2v-5.3l.08-.07h.92l.08.07v5.34a2.09 2.09 0 00.56 1.35l7.47 7.12v.11l-.62.67z"/><path class="cls-6" d="M56.75 10.31v5.34a2.12 2.12 0 00.59 1.35l7.47 7.13-.63.67-7.58-7.24a3.31 3.31 0 01-.77-1.91v-5.34h.92m0-.15h-.92l-.15.15v5.34a3.45 3.45 0 00.81 2c.45.41 7.52 7.2 7.59 7.27h.21l.63-.67v-.21l-7.47-7.13a2 2 0 01-.54-1.28v-5.32l-.15-.15z"/><path class="cls-3" d="M76.65 24.88l-.65-.67v-.11l7.49-7.1a2 2 0 00.56-1.34v-5.35l.08-.07h.92l.08.07v5.34a3.43 3.43 0 01-.79 2c-.45.42-7.52 7.21-7.59 7.28z"/><path class="cls-6" d="M85.05 10.31v5.34a3.36 3.36 0 01-.76 1.91c-.45.42-7.59 7.27-7.59 7.27l-.63-.67L83.54 17a2.12 2.12 0 00.59-1.38v-5.31h.92m0-.15h-.92l-.15.15v5.34a2 2 0 01-.54 1.27L76 24.05v.21l.63.67h.22c.07-.07 7.14-6.86 7.58-7.27a3.44 3.44 0 00.81-2v-5.35l-.15-.15z"/><path class="cls-3" d="M84.13 50.07l-.08-.07v-5.34a2 2 0 00-.56-1.33L76 36.2v-.1l.63-.68h.1c.07.07 7.14 6.86 7.59 7.27a3.46 3.46 0 01.79 2V50l-.08.07z"/><path class="cls-6" d="M76.7 35.48s7.14 6.85 7.59 7.27a3.31 3.31 0 01.76 1.91V50h-.92v-5.34a2.15 2.15 0 00-.59-1.39c-.26-.23-7.47-7.12-7.47-7.12l.63-.67m.11-.11h-.22l-.63.68v.21c.07.07 7.21 6.89 7.47 7.12a2 2 0 01.57 1.29V50l.15.15h.92l.13-.15v-5.34a3.45 3.45 0 00-.81-2c-.44-.41-7.51-7.2-7.58-7.27z"/><path class="cls-3" d="M55.83 50.07l-.08-.07v-5.34a3.53 3.53 0 01.79-2c.45-.41 7.52-7.2 7.59-7.27h.11l.62.68v.1l-7.47 7.13a2.1 2.1 0 00-.56 1.34V50l-.08.07z"/><path class="cls-6" d="M64.18 35.48l.63.67S57.6 43 57.34 43.27a2.15 2.15 0 00-.59 1.39V50h-.92v-5.34a3.25 3.25 0 01.77-1.91l7.58-7.27m-.1-.11c-.07.07-7.14 6.86-7.59 7.27a3.44 3.44 0 00-.81 2V50l.15.15h.92l.15-.15v-5.34a2 2 0 01.54-1.28c.26-.23 7.4-7.05 7.47-7.12v-.21l-.63-.68z"/><path class="cls-3" d="M69.98 16.73l-.08-.08v-6.34l.08-.07h.92l.08.07v6.34l-.08.08h-.92z"/><path class="cls-6" d="M70.9 10.31v6.34H70v-6.34h.92m0-.15H70l-.15.15v6.34l.15.15h.92l.15-.15v-6.34l-.15-.15z"/><path class="cls-3" d="M69.98 50.07L69.9 50v-6.35l.08-.07h.92l.08.07V50l-.08.07h-.92z"/><path class="cls-6" d="M70.9 43.65V50H70v-6.35h.92m0-.15H70l-.15.15V50l.15.15h.92l.15-.15v-6.35l-.15-.15z"/><path class="cls-3" d="M80.86 30.69l-.07-.07v-.93l.07-.07h9.71l.07.07v.93l-.07.07h-9.71z"/><path class="cls-6" d="M90.57 29.69v.93h-9.71v-.93h9.71m0-.15h-9.71l-.15.15v.93l.15.15h9.71l.15-.15v-.93l-.15-.15z"/><path class="cls-3" d="M50.31 30.69l-.07-.07v-.93l.07-.07h9.71l.07.07v.93l-.07.07h-9.71z"/><path class="cls-6" d="M60 29.69v.93h-9.69v-.93H60m0-.15h-9.69l-.15.15v.93l.15.15H60l.15-.15v-.93l-.15-.15z"/><circle class="cls-3" cx="70.44" cy="69.84" r="4.25"/><path class="cls-5" d="M50.31 50v39.68h40.26V50zM87 86.15H53.84V53.53H87z"/><path class="cls-3" d="M64.13 64.57c-.07-.07-7.14-6.86-7.59-7.27a3.53 3.53 0 01-.79-2V50l.08-.08h.92l.08.08v5.33a2.09 2.09 0 00.56 1.33l7.47 7.13v.11l-.62.67z"/><path class="cls-6" d="M56.75 50v5.33a2.12 2.12 0 00.59 1.39l7.47 7.12-.63.68-7.58-7.28a3.25 3.25 0 01-.77-1.91V50h.92m0-.15h-.92l-.15.15v5.33a3.45 3.45 0 00.81 2c.45.42 7.52 7.21 7.59 7.27h.21l.63-.67v-.21c-.07-.07-7.21-6.9-7.47-7.13a2 2 0 01-.54-1.29V50l-.15-.15z"/><path class="cls-3" d="M76.65 64.57L76 63.9v-.11l7.47-7.13a2 2 0 00.56-1.33V50l.08-.08h.92l.08.08v5.33a3.46 3.46 0 01-.79 2c-.45.41-7.52 7.2-7.59 7.27z"/><path class="cls-6" d="M85.05 50v5.33a3.31 3.31 0 01-.76 1.91c-.45.42-7.59 7.28-7.59 7.28l-.63-.68 7.47-7.12a2.12 2.12 0 00.59-1.39V50h.92m0-.15h-.92L84 50v5.33a2 2 0 01-.54 1.28c-.26.23-7.4 7.06-7.47 7.13V64l.63.67h.22l7.58-7.27a3.44 3.44 0 00.81-2V50l-.15-.15z"/><path class="cls-3" d="M84.13 89.76l-.08-.08v-5.33a2.07 2.07 0 00-.56-1.35c-.26-.23-7.47-7.12-7.47-7.12v-.11l.63-.67h.1c.07.07 7.14 6.85 7.59 7.27a3.43 3.43 0 01.79 2v5.34l-.08.08z"/><path class="cls-6" d="M76.7 75.16s7.14 6.85 7.59 7.27a3.36 3.36 0 01.76 1.92v5.33h-.92v-5.33a2.12 2.12 0 00-.59-1.35l-7.47-7.13.63-.67m.11-.11h-.22l-.63.67v.21l7.47 7.13a2 2 0 01.57 1.26v5.32l.15.15h.92l.15-.15v-5.33a3.5 3.5 0 00-.81-2c-.44-.41-7.51-7.2-7.58-7.27z"/><path class="cls-3" d="M55.83 89.76l-.08-.08v-5.33a3.51 3.51 0 01.79-2c.45-.42 7.52-7.2 7.59-7.27h.11l.62.67v.11s-7.21 6.92-7.47 7.14a2.12 2.12 0 00-.56 1.34v5.33l-.08.08z"/><path class="cls-6" d="M64.18 75.16l.63.67L57.34 83a2.12 2.12 0 00-.59 1.39v5.33h-.92v-5.37a3.31 3.31 0 01.77-1.92l7.58-7.27m-.1-.11c-.07.07-7.14 6.86-7.59 7.27a3.5 3.5 0 00-.81 2v5.34l.15.15h.92l.15-.15v-5.31a2 2 0 01.54-1.28l7.47-7.13v-.21l-.63-.67z"/><path class="cls-3" d="M69.98 56.41l-.08-.07V50l.08-.08h.92l.08.08v6.34l-.08.07h-.92z"/><path class="cls-6" d="M70.9 50v6.34H70V50h.92m0-.15H70l-.15.15v6.34l.15.15h.92l.15-.15V50l-.15-.15z"/><path class="cls-3" d="M69.98 89.76l-.08-.08v-6.34l.08-.08h.92l.08.08v6.34l-.08.08h-.92z"/><path class="cls-6" d="M70.9 83.34v6.34H70v-6.34h.92m0-.15H70l-.15.15v6.34l.15.15h.92l.15-.15v-6.34l-.15-.15z"/><path class="cls-3" d="M80.86 70.38l-.07-.08v-.92l.07-.08h9.71l.07.08v.92l-.07.08h-9.71z"/><path class="cls-6" d="M90.57 69.38v.92h-9.71v-.92h9.71m0-.15h-9.71l-.15.15v.92l.15.15h9.71l.15-.15v-.92l-.15-.15z"/><path class="cls-3" d="M50.31 70.38l-.07-.08v-.92l.07-.08h9.71l.07.08v.92l-.07.08h-9.71z"/><path class="cls-6" d="M60 69.38v.92h-9.69v-.92H60m0-.15h-9.69l-.15.15v.92l.15.15H60l.15-.15v-.92l-.15-.15z"/></g></svg>