<svg xmlns="http://www.w3.org/2000/svg" viewBox="0 0 131.81 169.76"><defs><style>.cls-5,.cls-9{fill:none}.cls-4,.cls-5{stroke:#000}.cls-9{stroke:#1a1a18}.cls-4,.cls-8{fill:#fff}.cls-4,.cls-5,.cls-9{stroke-miterlimit:1.41}.cls-4,.cls-5{stroke-width:.25px}.cls-6{font-size:7px;font-family:Fakt-Normal,Fakt}.cls-9{stroke-width:.3px}.cls-10{fill:#1a1a18}</style></defs><g id="Dimensions"><path d="M26.98 146.27h6.1v1.12h-6.1zm-.4-13.06h6.91v13.05h-6.91zm65.22 13.06h6.1v1.12h-6.1zm-.4-13.06h6.91v13.05H91.4z" stroke-width=".5" stroke-miterlimit="10" stroke="#000" fill="none"/><path d="M23.06 25.5v-3.29h14.52l-3.84 1.16h-7.23v2.13h-3.45zm39.68 0v-3.29H48.23l3.83 1.16h7.23v2.13h3.45z"/><path d="M24.29 31.17h75.15v102.04H24.29V31.17zm-4.44-14.18H22v8.51h82.87v5.67H19.84v-5.06l.01-9.12zm79.59 14.33h4.44v101.89h-4.44V31.32z" stroke-miterlimit="3.86" stroke="#1a1a18" stroke-width=".5" fill="none"/><path d="M42.44 22.21h.92v3.29h-.92zm20.3 3.29v-3.29h14.52l-3.83 1.16H66.2v2.13h-3.46zm39.69 0v-3.29H87.91l3.84 1.16h7.23v2.13h3.45zm-20.31-3.29h.92v3.29h-.92z"/><path stroke-width=".49" stroke-miterlimit="10" stroke="#000" fill="none" d="M20.95 41.49h3.34v71.61h-3.34z"/><path d="M24.28 93.62v22.49h-.92v-10.66h-.76v-7.74a9.37 9.37 0 011.68-4.09z"/><path class="cls-4" d="M19.85 16.99h-8.5m0 8.51h8.5"/><path class="cls-5" d="M19.85 31.17v127.82m4.44-25.78v19.85"/><text class="cls-6" transform="rotate(-90 17.575 7.645)">60</text><path class="cls-5" d="M14.18 25.23v-7.97"/><path d="M15.2 24.4l-.18-.17-.84.9-.84-.9-.18.17 1.02 1.1 1.02-1.1zm0-6.31l-.18.17-.84-.9-.84.9-.18-.17 1.02-1.1 1.02 1.1z"/><path class="cls-5" d="M24.57 150.22h5.39"/><path d="M25.39 151.25l.17-.19-.9-.84.9-.84-.17-.18-1.1 1.02 1.1 1.03z"/><text class="cls-6" transform="translate(7.37 148.8)">35</text><path class="cls-5" d="M11.37 150.22h8.24"/><path d="M18.78 151.25l-.17-.19.9-.84-.9-.84.17-.18 1.1 1.02-1.1 1.03z"/><path class="cls-5" d="M18.63 150.22h6.36m78.89-17.01v25.78m-4.44-25.78v19.85m-5.67-2.84h5.39"/><path d="M98.34 151.24l-.17-.18.9-.84-.9-.84.17-.18 1.1 1.02-1.1 1.02z"/><path class="cls-5" d="M98.47 150.22h6.37"/><text class="cls-6" transform="translate(120.74 148.8)">55</text><path class="cls-5" d="M124.72 150.22h-20.6"/><path d="M104.95 149.2l.17.18-.9.84.9.84-.17.18-1.1-1.02 1.1-1.02z"/><path class="cls-4" d="M22 16.99v-8.5m82.87 16.97V8.49"/><path class="cls-5" d="M104.6 11.32H22.27"/><path d="M103.78 10.3l-.18.18.91.84-.91.84.18.19 1.09-1.03-1.09-1.02zm-80.68 0l.17.18-.91.84.91.84-.17.19-1.1-1.03 1.1-1.02z"/><text class="cls-6" transform="translate(57.47 7.05)">585</text><path class="cls-4" d="M104.87 31.17h5.67"/><text class="cls-6" transform="rotate(90 48.75 64.63)">40</text><path class="cls-5" d="M110.54 25.5v5.67"/><path class="cls-4" d="M104.87 25.5h15.59"/><text transform="rotate(90 24.675 97.205)" fill="#1b1a19" font-size="7" font-family="Fakt-Normal,Fakt">860รท920</text><path class="cls-5" d="M117.63 25.77v121.35"/><path d="M116.61 26.6l.18.17.84-.91.84.91.18-.17-1.02-1.1-1.02 1.1zm0 119.69l.18-.17.84.9.84-.9.18.17-1.02 1.1-1.02-1.1z"/><path class="cls-5" d="M110.54 25.26v-5.4"/><path d="M111.57 24.43l-.19-.17-.84.9-.84-.9-.18.17 1.02 1.1 1.03-1.1z"/><path class="cls-5" d="M97.9 147.39h22.56"/><path class="cls-8" d="M107.21 37.21a2 2 0 00-1 .25 1.72 1.72 0 00-.49.36v3a2.21 2.21 0 00.49.36 2.1 2.1 0 101-3.95"/><path class="cls-9" d="M107.21 37.21a2 2 0 00-1 .25 1.72 1.72 0 00-.49.36v3a2.21 2.21 0 00.49.36 2.1 2.1 0 101-3.95z"/><path class="cls-8" d="M103.88 42.92l1.87-1.68v-4l-1.87-1.55v7.23z"/><path class="cls-9" d="M103.88 42.92l1.87-1.68v-4l-1.87-1.55v7.23z"/><path class="cls-8" d="M109.31 59.07a4.34 4.34 0 01-1 2c-1 1-3.12 1.51-4.39 1.64v-1.13a7.08 7.08 0 002.56-.53 2.82 2.82 0 001.63-1.83"/><path class="cls-9" d="M109.31 59.07a4.34 4.34 0 01-1 2c-1 1-3.12 1.51-4.39 1.64v-1.13a7.08 7.08 0 002.56-.53 2.82 2.82 0 001.63-1.83"/><path class="cls-8" d="M108.52 59.34A2.39 2.39 0 11110.9 57a2.39 2.39 0 01-2.38 2.38"/><path class="cls-10" d="M108.52 54.72a2.24 2.24 0 11-2.23 2.28 2.23 2.23 0 012.23-2.24m0-.3a2.54 2.54 0 102.53 2.54 2.54 2.54 0 00-2.53-2.54"/><path class="cls-8" d="M108.52 58.7a1.75 1.75 0 111.75-1.7 1.74 1.74 0 01-1.75 1.74"/><path class="cls-10" d="M108.52 55.36a1.6 1.6 0 11-1.6 1.6 1.6 1.6 0 011.6-1.6m0-.3a1.9 1.9 0 101.9 1.9 1.9 1.9 0 00-1.9-1.9"/><path class="cls-5" d="M103.61 156.15H20.12"/><path d="M102.78 155.12l-.17.19.9.84-.9.84.17.18 1.1-1.02-1.1-1.03zm-81.83 0l.17.19-.9.84.9.84-.17.18-1.1-1.02 1.1-1.03z"/><text class="cls-6" transform="translate(56.39 162.72)">600</text></g></svg>