<svg id="Black" xmlns="http://www.w3.org/2000/svg" viewBox="0 0 184.25 184.25">
  <defs>
    <style>
      .cls-1 {
        fill: none;
        stroke: #222221;
        stroke-miterlimit: 10;
        stroke-width: 2px;
      }
    </style>
  </defs>
  <g>
    <g>
      <path class="cls-1" d="M80.16,84.21c-6-18-14.6-36.45-14.6-36.45S57,66.19,51,84.21"/>
      <path class="cls-1" d="M45.88,103.34a41.61,41.61,0,0,0-.63,6.62,20.31,20.31,0,1,0,40.61,0,41.51,41.51,0,0,0-.62-6.62"/>
      <path class="cls-1" d="M67.32,84.21c-1-2.42-1.76-3.95-1.76-3.95S64.92,81.62,64,83.8"/>
      <path class="cls-1" d="M56.78,103.34a32.71,32.71,0,0,0-1.35,7.94,10.13,10.13,0,1,0,20.25,0,32.71,32.71,0,0,0-1.35-7.94"/>
    </g>
    <path class="cls-1" d="M126.14,84.22c-.76-6.66-6.61-19.2-6.61-19.2s-5.85,12.54-6.61,19.2"/>
    <path class="cls-1" d="M102.68,46.12S96,60.47,96,66.62a6.69,6.69,0,1,0,13.38,0C109.37,60.47,102.68,46.12,102.68,46.12Z"/>
    <path class="cls-1" d="M96.35,103.34a15.66,15.66,0,0,0-.36,3,6.69,6.69,0,1,0,13.38,0,15,15,0,0,0-.28-2.65"/>
    <path class="cls-1" d="M119,103.34c-1.56,3.51-6.17,14.26-6.17,19.37a6.69,6.69,0,0,0,13.38,0c0-5.11-4.6-15.86-6.17-19.37"/>
    <path class="cls-1" d="M92.13,2.83a89.3,89.3,0,1,0,89.29,89.3A89.3,89.3,0,0,0,92.13,2.83Zm0,16A73.28,73.28,0,0,1,165,84.21H19.28A73.29,73.29,0,0,1,92.13,18.85Zm-17.8,84.49h90.22a73.28,73.28,0,0,1-144.84,0H74.33"/>
  </g>
</svg>
