<svg id="Black" xmlns="http://www.w3.org/2000/svg" viewBox="0 0 184.25 184.25">
  <defs>
    <style>
      .cls-1 {
        fill: none;
        stroke: #222221;
        stroke-miterlimit: 10;
        stroke-width: 2px;
      }
    </style>
  </defs>
  <circle class="cls-1" cx="92.13" cy="92.13" r="89.29"/>
  <g>
    <path class="cls-1" d="M57.18,82.37V122a30.25,30.25,0,0,0,30.25,30.25h10a29.6,29.6,0,0,0,29.6-29.6V98.07"/>
    <path class="cls-1" d="M71.48,95.68V66.09a7.14,7.14,0,0,0-7.15-7.15h0a7.15,7.15,0,0,0-7.15,7.15V95.68"/>
    <path class="cls-1" d="M85.78,91.47V46a7.15,7.15,0,0,0-7.15-7.15h0A7.14,7.14,0,0,0,71.48,46V95.68"/>
    <path class="cls-1" d="M114.37,81.54V46a7.14,7.14,0,0,0-7.15-7.15h0A7.15,7.15,0,0,0,100.07,46V90.24"/>
    <path class="cls-1" d="M100.07,91.24V39.15A7.15,7.15,0,0,0,92.93,32h0a7.15,7.15,0,0,0-7.14,7.15V91.24"/>
    <path class="cls-1" d="M111.46,107.47A20.73,20.73,0,0,0,90.73,128.2"/>
    <path class="cls-1" d="M127.07,116.54V87.61a7.81,7.81,0,0,0-7.81-7.8h0a7.8,7.8,0,0,0-7.8,7.8v19.86"/>
  </g>
</svg>
