<svg xmlns="http://www.w3.org/2000/svg" viewBox="0 0 386.5 111.5"><circle cx="43" cy="43.3" r="41.6" fill="#fff"/><path d="M43 86C19.3 86 0 66.7 0 43S19.3 0 43 0s43 19.3 43 43-19.3 43-43 43zm0-83.1C20.9 2.9 2.9 20.9 2.9 43s18 40.1 40.1 40.1 40.1-18 40.1-40.1S65.2 2.9 43 2.9z"/><path d="M69.8 26.4c-.5-.3-1-.2-1.4 0L51.3 37.2c-.3.2-.5.5-.6.8l-7.6 27.7L35.5 38c-.1-.3-.3-.6-.6-.8L17.8 26.4c-.4-.3-1-.3-1.4 0-.5.3-.7.7-.7 1.2v19.7c0 .5.2.9.6 1.2l9.2 6 16.3 55.9c.1.6.6 1 1.2 1.1h.4c.6-.1 1.1-.5 1.2-1.1l16.1-56 9.2-6c.4-.3.6-.7.6-1.2V27.6c0-.5-.2-1-.7-1.2z" fill="#61b22f"/><path d="M50.1 25c0-1.6-1-3.9-2.7-6-2.8-3.4-4.5-8.9-4.5-9 0 .1-1.7 5.6-4.5 9-1.7 2-2.7 4.3-2.7 6 0 4.3 3.2 7.8 7.2 7.8s7.2-3.5 7.2-7.8z" fill="#ffde00"/><path d="M112.6 74.8h1.2c0 1-.1 1.7-.4 2.2-.2.5-.7.9-1.3 1.1s-1.5.3-2.6.3c-.9 0-1.6-.1-2.1-.2-.5-.2-1-.4-1.3-.8s-.6-.9-.7-1.6-.2-1.6-.2-2.8c0-1.1.1-2.1.2-2.8.1-.7.4-1.3.7-1.7.3-.4.8-.7 1.3-.8.5-.2 1.2-.2 2.1-.2.8 0 1.5.1 2.1.2.5.1.9.3 1.2.6.3.3.5.6.6 1.1.1.4.2 1 .2 1.6h-1.2c-.1-.7-.2-1.2-.3-1.5s-.4-.6-.8-.7-1-.2-1.8-.2c-.6 0-1.1.1-1.5.2s-.7.3-.9.7c-.2.3-.4.8-.5 1.3-.1.6-.1 1.3-.1 2.3s0 1.7.1 2.3c.1.6.3 1 .5 1.3s.5.5.9.6.9.2 1.5.2 1.2 0 1.6-.1c.4-.1.7-.2.9-.4.2-.2.4-.5.5-.8.1-.4.1-.8.1-1.4zm3.3-7.1h8.7v10.7h-1.2v-9.6h-6.3v9.6h-1.2V67.7zm12.7 0v10.7h-1.2V67.7h1.2zm8.1 10.7h-5.5V67.7h5.2c.9 0 1.6.2 2.1.6.4.4.7 1.1.7 2 0 .5 0 .8-.1 1.1-.1.3-.2.6-.4.8-.2.2-.5.4-.9.5.5.1.8.3 1.1.5.2.2.4.5.5.8s.1.7.1 1.2c0 1-.2 1.8-.6 2.3-.5.7-1.2.9-2.2.9zm-4.2-9.7v3.7h3.4c.5 0 1-.1 1.3-.2.3-.1.5-.3.6-.6.1-.3.2-.7.2-1.2 0-.7-.1-1.1-.3-1.3-.2-.2-.7-.4-1.3-.4h-3.9zm0 4.7v3.9h3.3c.5 0 .9 0 1.2-.1.3 0 .5-.1.7-.3.2-.1.3-.3.4-.6.1-.3.1-.6.1-1 0-.6-.1-1-.2-1.3-.1-.3-.3-.5-.6-.6-.3-.1-.7-.1-1.3-.1l-3.6.1zm9.4-5.7h8.7v10.7h-1.2v-9.6h-6.3v9.6h-1.2V67.7zm12.6 6.5v4.2h-1.2V67.7h5.1c.6 0 1.2.1 1.6.3.4.2.7.6.9 1 .2.5.3 1 .3 1.7 0 .9-.1 1.6-.4 2.1-.2.5-.6.9-1.1 1.1s-1.2.3-2.1.3h-3.1zm0-1h2.9c.7 0 1.2-.1 1.6-.2.4-.1.7-.3.8-.6.2-.3.3-.8.3-1.4 0-.8-.1-1.4-.4-1.8-.3-.3-.7-.5-1.4-.5h-3.8v4.5zm8.5 5.2l3.9-10.7h1.7l4 10.7h-1.3l-.8-2.2h-5.4l-.9 2.2H163zm7.2-3.2l-2.4-6.6-2.4 6.6h4.8zm5.7-7.5v9.7h6.3v-9.7h1.2v9.7h.8v3.5h-1.1v-2.5h-8.3V67.7h1.1zm17 6.4h-3.3l-2.4 4.3h-1.4l2.5-4.4c-.7-.1-1.3-.5-1.7-1s-.7-1.3-.7-2.2c0-1.1.3-1.9.9-2.4s1.4-.7 2.6-.7h4.8v10.7H193v-4.3h-.1zm0-1v-4.3h-3.8c-.7 0-1.3.2-1.6.6-.3.4-.4 1-.4 1.8 0 .7.2 1.2.7 1.5.4.3 1.1.5 1.9.5l3.2-.1zm5.3 3.8v1.6c0 .5-.1.9-.2 1.1s-.4.4-.9.4h-.4v-.6c.3 0 .4-.1.5-.2s.2-.3.2-.6v-.2h-.5v-1.5h1.3zm13.6-2.8h-3.3l-2.4 4.3h-1.5l2.5-4.4c-.7-.1-1.3-.5-1.7-1s-.7-1.3-.7-2.2c0-1.1.3-1.9.9-2.4s1.4-.7 2.6-.7h4.8v10.7h-1.2v-4.3zm0-1v-4.3H208c-.7 0-1.3.2-1.6.6-.3.4-.4 1-.4 1.8 0 .7.2 1.2.7 1.5.4.3 1.1.5 1.9.5l3.2-.1zm5.2-5.4v4.7h1.1l4.4-4.7h1.6l-4.9 5.2 5.5 5.5h-1.6l-4.9-5h-1.1v5h-1.2V67.7h1.1zm8.9 10.7l3.9-10.7h1.7l4 10.7h-1.3l-.8-2.2H228l-.9 2.2h-1.2zm7.1-3.2l-2.4-6.6-2.4 6.6h4.8zm8.7 3.2V67.7h6.6v1.1h-5.4v9.6h-1.2zm7.9 0l3.9-10.7h1.7l4 10.7h-1.3l-.8-2.2h-5.4l-.9 2.2h-1.2zm7.1-3.2l-2.4-6.6-2.4 6.6h4.8zm5.7-1v4.2h-1.2V67.7h5.1c.6 0 1.2.1 1.6.3.4.2.7.6.9 1 .2.5.3 1 .3 1.7 0 .9-.1 1.6-.4 2.1-.2.5-.6.9-1.1 1.1s-1.2.3-2.1.3h-3.1zm0-1h2.9c.7 0 1.2-.1 1.6-.2s.7-.3.8-.6c.2-.3.3-.8.3-1.4 0-.8-.1-1.4-.4-1.8-.3-.3-.7-.5-1.4-.5h-3.8v4.5zm8.5 5.2l3.9-10.7h1.7l4 10.7h-1.3l-.8-2.2H273l-.9 2.2h-1.2zm7.2-3.2l-2.4-6.6-2.4 6.6h4.8zm5.7-2.8h6.3v-4.7h1.2v10.7h-1.2v-4.9h-6.3v4.9h-1.2V67.7h1.2v4.7zm12.9 6v-9.6h-3.5v-1.1h8.2v1.1h-3.5v9.6h-1.2zm7.9-1h.7c.4 0 .6-.1.8-.2.2-.1.3-.4.5-.8l-4-8.7h1.3l3.3 7.4 3-7.4h1.2l-3.8 9.1c-.5 1.1-1.1 1.7-2 1.7h-1v-1.1zm15.9-2.6h1.2c0 1-.1 1.7-.4 2.2-.2.5-.7.9-1.3 1.1-.6.2-1.5.3-2.6.3-.9 0-1.6-.1-2.1-.2-.5-.2-1-.4-1.3-.8s-.6-.9-.7-1.6-.2-1.6-.2-2.8c0-1.1.1-2.1.2-2.8.1-.7.4-1.3.7-1.7.3-.4.8-.7 1.3-.8.5-.2 1.2-.2 2.1-.2.8 0 1.5.1 2.1.2.5.1.9.3 1.2.6.3.3.5.6.6 1.1.1.4.2 1 .2 1.6h-1.2c-.1-.7-.2-1.2-.3-1.5-.1-.3-.4-.6-.8-.7s-1-.2-1.8-.2c-.6 0-1.1.1-1.5.2s-.7.3-.9.7c-.2.3-.4.8-.5 1.3-.1.6-.1 1.3-.1 2.3s0 1.7.1 2.3c.1.6.3 1 .5 1.3s.5.5.9.6.9.2 1.5.2 1.2 0 1.6-.1.7-.2.9-.4c.2-.2.4-.5.5-.8.1-.4.1-.8.1-1.4zm8.6 2.6h.7c.4 0 .6-.1.8-.2.2-.1.3-.4.5-.8l-4-8.7h1.3l3.3 7.4 3-7.4h1.2l-3.8 9.1c-.5 1.1-1.1 1.7-2 1.7H329v-1.1h.1zm15.9-2.6h1.2c0 1-.1 1.7-.4 2.2-.2.5-.7.9-1.3 1.1-.6.2-1.5.3-2.6.3-.9 0-1.6-.1-2.1-.2-.5-.2-1-.4-1.3-.8s-.6-.9-.7-1.6-.2-1.6-.2-2.8c0-1.1.1-2.1.2-2.8.1-.7.4-1.3.7-1.7.3-.4.8-.7 1.3-.8.5-.2 1.2-.2 2.1-.2.8 0 1.5.1 2.1.2.5.1.9.3 1.2.6.3.3.5.6.6 1.1.1.4.2 1 .2 1.6h-1.2c-.1-.7-.2-1.2-.3-1.5-.1-.3-.4-.6-.8-.7s-1-.2-1.8-.2c-.6 0-1.1.1-1.5.2s-.7.3-.9.7c-.2.3-.4.8-.5 1.3-.1.6-.1 1.3-.1 2.3s0 1.7.1 2.3c.1.6.3 1 .5 1.3s.5.5.9.6.9.2 1.5.2 1.2 0 1.6-.1.7-.2.9-.4c.2-.2.4-.5.5-.8.1-.4.1-.8.1-1.4zm3.3-7.1h8.7v10.7h-1.2v-9.6h-6.3v9.6h-1.2V67.7zm12.6 0v10.7h-1.2V67.7h1.2zm3.7 0l3 4.6 3-4.6h1.4l-3.5 5.2 3.8 5.6h-1.5l-3.3-4.9-3.3 4.9h-1.5l3.8-5.6-3.5-5.2h1.6z"/><path d="M314.1 72.5h6.1v1h-6.1zm64.8-64.4V2.9h2c.5 0 .9 0 1.1.1s.4.3.5.5.2.5.2.8c0 .4-.1.7-.3 1-.2.3-.5.4-.9.5.2.1.4.3.5.4.1.2.3.4.5.8l.6 1H382l-.7-1.1c-.2-.4-.4-.7-.5-.8-.1-.1-.2-.2-.3-.2-.1 0-.3-.1-.5-.1h-.2V8h-.9v.1zm.9-3h.7c.4 0 .7 0 .8-.1.1 0 .2-.1.3-.2.1-.1.1-.2.1-.4s0-.3-.1-.4-.2-.2-.4-.2h-1.4v1.3z"/><path d="M381 11c-3 0-5.5-2.5-5.5-5.5S378 0 381 0s5.5 2.5 5.5 5.5S384 11 381 11zm0-9.9c-2.5 0-4.5 2-4.5 4.5s2 4.5 4.5 4.5 4.5-2 4.5-4.5-2.1-4.5-4.5-4.5zm-16.8 10.4v17.4h-28.4V11.5h-8.4v45.1h8.4v-20h28.4v20h8.4V11.5zm-220.1 7.8v-7.8h-38.8v45.1h38.8v-7.8h-30.5V37.7h29.3v-7.8h-29.3V19.3zm58.4-7.8h8.4v45.1h-8.4zm118.2 8.3c-1.1-3.6-3.6-6.1-7.4-7.3-3.8-1.3-8.8-1.8-17.2-1.8-9.2 0-13 .7-16.5 1.8-3.9 1.3-6.4 3.8-7.4 7.4-.7 2.2-1 6.8-1 14.1 0 7.1.3 11.7 1 14.1 1 3.6 3.5 6 7.4 7.3 3.4 1.1 7.2 1.8 16.5 1.8 8.4 0 13.5-.5 17.3-1.8s6.3-3.7 7.4-7.3c.7-2.2 1-6.8 1-14-.1-7.3-.4-12-1.1-14.3zm-7.4 14.1c0 10-1.4 12.6-2.3 13.4-1.6 1.4-6.3 2-15.1 2-9.9 0-12.9-.8-14.3-2-.8-.7-2.3-3.4-2.3-13.3 0-10 1.4-12.7 2.2-13.4 1.4-1.2 4.3-2 14.3-2 8.8 0 13.5.6 15.1 2 1 .6 2.4 3.3 2.4 13.3zM191.1 15.2c-2.3-2.5-5.5-3.7-9.5-3.7h-31v45.1h8.2V41h22.6c4.1 0 7.3-1.2 9.6-3.7 2.3-2.4 3.5-6.2 3.5-11 .1-4.9-1.1-8.6-3.4-11.1zm-32.2 4.1h22.5c1.6 0 2.8.5 3.6 1.6.9 1.1 1.3 2.9 1.3 5.4s-.5 4.3-1.4 5.4c-.9 1-2 1.5-3.5 1.5h-22.6l.1-13.9zm105.3 29.9V11.5h-30.3c-5.5 0-9.3 1.1-11.4 3.3-2.9 3.1-4.4 9.2-4.5 18.6v15.9h-3.4v7.4h54.3v-7.4l-4.7-.1zm-37.8-15.8c0-5.7.6-9.5 1.7-11.5 1-1.8 3-2.7 6-2.7H256v29.4h-29.6V33.4z"/></svg>