<svg xmlns="http://www.w3.org/2000/svg" viewBox="0 0 141.73 99.21"><defs><style>.cls-3,.cls-4{fill:#222221}.cls-4{stroke:#fff;stroke-miterlimit:10;stroke-width:.15px}.cls-5{fill:#fff}</style></defs><g id="Piano" stroke-linecap="round" stroke-width=".25" fill="none" stroke="#222221"><path stroke-linejoin="bevel" d="M7.09 7.09h127.56v85.04H7.09z"/><path d="M9.31 10.03h123.25v79.94H9.31zm-2.22-.72h127.56m-125.34.78l-.58-.78m123.83.78l.58-.78M7.09 92.13l2.22-2.23m125.34 2.23l-2.09-2.23" stroke-linejoin="round"/></g><g id="Bruciatori"><circle class="cls-3" cx="29.61" cy="30.15" r="6.38"/><path class="cls-4" d="M9.49 10.31V50h40.25V10.31zm36.72 36.16H13V13.84h33.2z"/><path class="cls-3" d="M23.3 24.88c-.07-.06-7.14-6.85-7.59-7.27a3.51 3.51 0 01-.79-2v-5.3l.08-.07h.92l.08.07v5.34a2.09 2.09 0 00.56 1.35L24 24.1v.11l-.63.67z"/><path class="cls-5" d="M15.92 10.31v5.34a2.12 2.12 0 00.59 1.35L24 24.16l-.63.67s-7.15-6.83-7.6-7.27a3.31 3.31 0 01-.77-1.91v-5.34h.92m0-.15H15l-.15.15v5.34a3.45 3.45 0 00.81 2c.45.41 7.52 7.2 7.59 7.27h.21l.63-.67v-.21l-7.47-7.13a2 2 0 01-.54-1.28v-5.32l-.15-.15z"/><path class="cls-3" d="M35.82 24.88l-.63-.67v-.11l7.47-7.1a2 2 0 00.56-1.34v-5.35l.08-.07h.92l.08.07v5.34a3.43 3.43 0 01-.79 2c-.45.42-7.51 7.21-7.59 7.27z"/><path class="cls-5" d="M44.22 10.31v5.34a3.36 3.36 0 01-.76 1.91c-.45.42-7.59 7.27-7.59 7.27l-.63-.67L42.71 17a2.12 2.12 0 00.59-1.38v-5.31h.92m0-.15h-.92l-.15.15v5.34a2 2 0 01-.54 1.27l-7.47 7.13v.21l.63.67H36c.07-.07 7.14-6.86 7.58-7.27a3.44 3.44 0 00.81-2v-5.35l-.15-.15z"/><path class="cls-3" d="M43.3 50.07l-.08-.07v-5.34a2 2 0 00-.56-1.33l-7.47-7.13v-.1l.63-.67h.1c.08.07 7.14 6.86 7.59 7.27a3.46 3.46 0 01.79 2V50l-.08.07z"/><path class="cls-5" d="M35.87 35.48s7.14 6.85 7.59 7.27a3.31 3.31 0 01.76 1.91V50h-.92v-5.34a2.15 2.15 0 00-.59-1.39l-7.47-7.12.63-.67m.11-.11h-.22l-.63.68v.21l7.47 7.12a2 2 0 01.54 1.29V50l.15.15h.92l.15-.15v-5.34a3.45 3.45 0 00-.81-2c-.44-.41-7.51-7.2-7.58-7.27z"/><path class="cls-3" d="M15 50.07l-.08-.07v-5.34a3.53 3.53 0 01.79-2c.45-.41 7.52-7.2 7.59-7.27h.11l.63.67v.1l-7.47 7.13a2.1 2.1 0 00-.57 1.38V50l-.08.07z"/><path class="cls-5" d="M23.35 35.48l.63.67s-7.21 6.85-7.47 7.12a2.15 2.15 0 00-.59 1.39V50H15v-5.34a3.25 3.25 0 01.77-1.91c.45-.42 7.58-7.27 7.58-7.27m-.1-.11c-.07.07-7.14 6.86-7.59 7.27a3.44 3.44 0 00-.81 2V50l.15.15h.92l.15-.15v-5.34a2 2 0 01.54-1.28c.26-.23 7.4-7.05 7.47-7.12v-.21l-.63-.68z"/><path class="cls-3" d="M29.15 16.73l-.08-.08v-6.34l.08-.07h.92l.08.07v6.34l-.08.08h-.92z"/><path class="cls-5" d="M30.07 10.31v6.34h-.92v-6.34h.92m0-.15h-.92l-.15.15v6.34l.15.15h.92l.15-.15v-6.34l-.15-.15z"/><path class="cls-3" d="M29.15 50.07l-.08-.07v-6.35l.08-.07h.92l.08.07V50l-.08.07h-.92z"/><path class="cls-5" d="M30.07 43.65V50h-.92v-6.35h.92m0-.15h-.92l-.15.15V50l.15.15h.92l.15-.15v-6.35l-.15-.15z"/><path class="cls-3" d="M40.03 30.69l-.07-.08v-.92l.07-.07h9.71l.07.07v.92l-.07.08h-9.71z"/><path class="cls-5" d="M49.74 29.69v.93H40v-.93h9.71m0-.15H40l-.15.15v.93l.15.15h9.71l.15-.15v-.93l-.15-.15z"/><path class="cls-3" d="M9.48 30.69l-.07-.08v-.92l.07-.07h9.71l.07.07v.92l-.07.08H9.48z"/><path class="cls-5" d="M19.19 29.69v.93h-9.7v-.93h9.7m0-.15h-9.7l-.15.15v.93l.15.15h9.7l.15-.15v-.93l-.15-.15z"/><path class="cls-3" d="M29.61 61.33a8.51 8.51 0 108.51 8.51 8.5 8.5 0 00-8.51-8.51zm0 13.19a4.68 4.68 0 114.68-4.68 4.69 4.69 0 01-4.68 4.68zm0-1.49a3.19 3.19 0 113.19-3.19A3.19 3.19 0 0129.61 73z"/><path class="cls-4" d="M9.49 50v39.68h40.25V50zm36.72 36.15H13V53.53h33.2z"/><path class="cls-3" d="M23.3 64.57c-.07-.07-7.14-6.86-7.59-7.27a3.53 3.53 0 01-.79-2v-5.38H16v5.41a2.09 2.09 0 00.56 1.33L24 63.79l.06.05-.74.78z"/><path class="cls-5" d="M15.92 50v5.33a2.12 2.12 0 00.59 1.39L24 63.84l-.63.68s-7.13-6.86-7.58-7.28a3.25 3.25 0 01-.79-1.91V50h.92m.15-.15h-1.22v5.48a3.45 3.45 0 00.81 2c.45.42 7.52 7.21 7.59 7.27l.11.11.1-.11.63-.67.1-.11-.11-.1c-.07-.07-7.21-6.9-7.47-7.13a2 2 0 01-.54-1.29v-5.45z"/><path class="cls-3" d="M35.14 63.84v-.05l7.47-7.13a2 2 0 00.56-1.33v-5.41h1.13v5.41a3.46 3.46 0 01-.79 2c-.45.41-7.51 7.2-7.59 7.27l-.05.05z"/><path class="cls-5" d="M44.22 50v5.33a3.31 3.31 0 01-.76 1.91c-.45.42-7.59 7.28-7.59 7.28l-.63-.68 7.47-7.12a2.12 2.12 0 00.59-1.39V50h.92m.15-.15h-1.22v5.48a2 2 0 01-.54 1.28l-7.47 7.13-.11.1.1.11.63.67.11.11.11-.11 7.58-7.27a3.44 3.44 0 00.81-2v-5.5z"/><path class="cls-3" d="M43.22 89.76v-5.41a2.07 2.07 0 00-.56-1.35c-.26-.23-7.47-7.12-7.47-7.12l.73-.79.05.06c.08.07 7.14 6.85 7.59 7.27a3.43 3.43 0 01.79 2v5.42z"/><path class="cls-5" d="M35.87 75.16S43 82 43.46 82.43a3.36 3.36 0 01.76 1.92v5.33h-.92v-5.33a2.12 2.12 0 00-.59-1.35l-7.47-7.13.63-.67m0-.21l-.11.11-.63.67-.1.11.11.1 7.47 7.13a2 2 0 01.54 1.29v5.47h1.22v-5.52a3.5 3.5 0 00-.81-2c-.44-.41-7.51-7.2-7.58-7.27l-.11-.1z"/><path class="cls-3" d="M14.92 89.76v-5.41a3.51 3.51 0 01.79-2c.45-.42 7.52-7.2 7.59-7.27l.05-.06.74.79h-.06s-7.21 6.97-7.47 7.19a2.12 2.12 0 00-.56 1.35v5.41z"/><path class="cls-5" d="M23.35 75.16l.63.67L16.51 83a2.12 2.12 0 00-.59 1.39v5.33H15v-5.37a3.31 3.31 0 01.77-1.92c.45-.42 7.58-7.27 7.58-7.27m0-.21l-.11.1c-.07.07-7.14 6.86-7.59 7.27a3.5 3.5 0 00-.81 2v5.49h1.22v-5.46a2 2 0 01.54-1.28l7.47-7.13.11-.1-.1-.11-.63-.67-.1-.11z"/><path class="cls-3" d="M29.07 49.92h1.07v6.49h-1.07z"/><path class="cls-5" d="M30.07 50v6.34h-.92V50h.92m.15-.15H29v6.64h1.22v-6.64z"/><path class="cls-3" d="M29.07 83.26h1.07v6.49h-1.07z"/><path class="cls-5" d="M30.07 83.34v6.34h-.92v-6.34h.92m.15-.15H29v6.64h1.22v-6.64z"/><path class="cls-3" d="M39.96 69.3h9.85v1.07h-9.85z"/><path class="cls-5" d="M49.74 69.38v.92H40v-.92h9.71m.15-.15h-10v1.22h10v-1.22z"/><path class="cls-3" d="M9.41 69.3h9.85v1.07H9.41z"/><path class="cls-5" d="M19.19 69.38v.92h-9.7v-.92h9.7m.15-.15h-10v1.22h10v-1.22z"/><circle class="cls-3" cx="112.15" cy="30.15" r="6.38"/><path class="cls-4" d="M92 10.31V50h40.25V10.31zm36.72 36.16H95.55V13.84h33.19z"/><path class="cls-3" d="M105.83 24.88l-7.58-7.27a3.43 3.43 0 01-.79-2v-5.3l.07-.07h.93l.07.07v5.34A2.09 2.09 0 0099.1 17l7.47 7.12v.11l-.63.67z"/><path class="cls-5" d="M98.46 10.31v5.34a2.12 2.12 0 00.59 1.35l7.47 7.13-.63.67s-7.14-6.8-7.59-7.24a3.45 3.45 0 01-.77-1.91v-5.34h.93m0-.15h-.93l-.15.15v5.34a3.46 3.46 0 00.82 2c.44.41 7.51 7.2 7.58 7.27h.22l.63-.67v-.21l-7.47-7.13a2 2 0 01-.54-1.28v-5.32l-.15-.15z"/><path class="cls-3" d="M118.35 24.88l-.63-.67v-.11l7.48-7.1a2.1 2.1 0 00.56-1.34v-5.35l.08-.07h.92l.07.07v5.34a3.37 3.37 0 01-.79 2l-7.58 7.27z"/><path class="cls-5" d="M126.76 10.31v5.34a3.31 3.31 0 01-.77 1.91c-.45.42-7.58 7.27-7.58 7.27l-.63-.67 7.47-7.16a2.22 2.22 0 00.59-1.38v-5.31h.92m0-.15h-.92l-.15.15v5.34a2 2 0 01-.54 1.27l-7.48 7.13v.21l.63.67h.21c.07-.07 7.14-6.86 7.58-7.27a3.39 3.39 0 00.82-2v-5.35l-.15-.15z"/><path class="cls-3" d="M125.84 50.07l-.08-.07v-5.34a2.09 2.09 0 00-.56-1.33l-7.47-7.13v-.1l.63-.67h.11c.07.07 7.14 6.86 7.58 7.27a3.4 3.4 0 01.79 2V50l-.07.07z"/><path class="cls-5" d="M118.41 35.48s7.13 6.85 7.58 7.27a3.25 3.25 0 01.77 1.91V50h-.92v-5.34a2.25 2.25 0 00-.59-1.39c-.26-.23-7.47-7.12-7.47-7.12l.63-.67m.1-.11h-.21l-.63.68v.21l7.47 7.12a2 2 0 01.55 1.29V50l.15.15h.92l.15-.15v-5.34a3.4 3.4 0 00-.82-2c-.44-.41-7.51-7.2-7.58-7.27z"/><path class="cls-3" d="M97.53 50.07l-.07-.07v-5.34a3.46 3.46 0 01.79-2c.44-.41 7.51-7.2 7.58-7.27h.11l.63.67v.1l-7.47 7.17a2.1 2.1 0 00-.57 1.34V50l-.07.07z"/><path class="cls-5" d="M105.89 35.48l.63.67-7.47 7.12a2.15 2.15 0 00-.59 1.39V50h-.93v-5.34a3.39 3.39 0 01.77-1.91c.45-.42 7.59-7.27 7.59-7.27m-.11-.11c-.07.07-7.14 6.86-7.58 7.27a3.46 3.46 0 00-.82 2V50l.15.15h.93l.15-.15v-5.34a2 2 0 01.54-1.28l7.47-7.12v-.21l-.63-.68z"/><path class="cls-3" d="M111.69 16.73l-.08-.08v-6.34l.08-.07h.92l.07.07v6.34l-.07.08h-.92z"/><path class="cls-5" d="M112.61 10.31v6.34h-.92v-6.34h.92m0-.15h-.92l-.15.15v6.34l.15.15h.92l.15-.15v-6.34l-.15-.15z"/><path class="cls-3" d="M111.69 50.07l-.08-.07v-6.35l.08-.07h.92l.07.07V50l-.07.07h-.92z"/><path class="cls-5" d="M112.61 43.65V50h-.92v-6.35h.92m0-.15h-.92l-.15.15V50l.15.15h.92l.15-.15v-6.35l-.15-.15z"/><path class="cls-3" d="M122.57 30.69l-.08-.08v-.92l.08-.07h9.7l.08.07v.92l-.08.08h-9.7z"/><path class="cls-5" d="M132.27 29.69v.93h-9.7v-.93h9.7m0-.15h-9.7l-.15.15v.93l.15.15h9.7l.15-.15v-.93l-.15-.15z"/><path class="cls-3" d="M92.02 30.69l-.07-.08v-.92l.07-.07h9.7l.08.07v.92l-.08.08h-9.7z"/><path class="cls-5" d="M101.72 29.69v.93H92v-.93h9.7m0-.15H92l-.15.15v.93l.15.15h9.7l.15-.15v-.93l-.15-.15z"/><circle class="cls-3" cx="112.15" cy="69.84" r="4.25"/><path class="cls-4" d="M92 50v39.68h40.25V50zm36.72 36.15H95.55V53.53h33.19z"/><path class="cls-3" d="M105.83 64.57c-.07-.07-7.14-6.86-7.58-7.27a3.43 3.43 0 01-.79-2V50l.07-.08h.93l.07.08v5.33a2.09 2.09 0 00.57 1.33l7.47 7.13v.11l-.63.67z"/><path class="cls-5" d="M98.46 50v5.33a2.12 2.12 0 00.59 1.39l7.47 7.12-.63.68s-7.14-6.86-7.59-7.28a3.39 3.39 0 01-.77-1.91V50h.93m0-.15h-.93l-.15.15v5.33a3.46 3.46 0 00.82 2l7.58 7.27h.22l.63-.67v-.21l-7.47-7.13a2 2 0 01-.54-1.29V50l-.15-.15z"/><path class="cls-3" d="M118.35 64.57l-.63-.67v-.11l7.47-7.13a2.09 2.09 0 00.56-1.33V50l.08-.08h.92l.07.08v5.33a3.37 3.37 0 01-.79 2c-.44.41-7.51 7.2-7.58 7.27z"/><path class="cls-5" d="M126.76 50v5.33a3.25 3.25 0 01-.77 1.91c-.45.42-7.58 7.28-7.58 7.28l-.63-.68 7.47-7.12a2.23 2.23 0 00.59-1.39V50h.92m0-.15h-.92l-.15.15v5.33a2 2 0 01-.54 1.28c-.26.23-7.4 7.06-7.48 7.13V64l.63.67h.21l7.58-7.27a3.39 3.39 0 00.82-2V50l-.15-.15z"/><path class="cls-3" d="M125.84 89.76l-.08-.08v-5.33a2.1 2.1 0 00-.56-1.35c-.26-.23-7.47-7.12-7.47-7.12v-.11l.63-.67h.11l7.53 7.28a3.37 3.37 0 01.79 2v5.34l-.07.08z"/><path class="cls-5" d="M118.41 75.16s7.13 6.84 7.59 7.27a3.31 3.31 0 01.77 1.92v5.33h-.92v-5.33a2.23 2.23 0 00-.59-1.39l-7.47-7.13.63-.67m.1-.11h-.21l-.63.67v.21l7.47 7.13a2 2 0 01.55 1.29v5.32l.15.15h.92l.15-.15v-5.32a3.45 3.45 0 00-.82-2c-.44-.41-7.51-7.2-7.58-7.27z"/><path class="cls-3" d="M97.53 89.76l-.07-.08v-5.33a3.44 3.44 0 01.79-2l7.58-7.27h.11l.63.67v.11L99.1 83a2.1 2.1 0 00-.57 1.34v5.33l-.07.08z"/><path class="cls-5" d="M105.89 75.16l.63.67L99.05 83a2.12 2.12 0 00-.59 1.39v5.33h-.93v-5.37a3.45 3.45 0 01.77-1.92c.45-.42 7.59-7.27 7.59-7.27m-.11-.11c-.07.07-7.14 6.86-7.58 7.27a3.51 3.51 0 00-.82 2v5.34l.15.15h.93l.15-.15v-5.31a2 2 0 01.54-1.28l7.47-7.13v-.21l-.63-.67z"/><path class="cls-3" d="M111.69 56.41l-.08-.07V50l.08-.08h.92l.07.08v6.34l-.07.07h-.92z"/><path class="cls-5" d="M112.61 50v6.34h-.92V50h.92m0-.15h-.92l-.15.15v6.34l.15.15h.92l.15-.15V50l-.15-.15z"/><path class="cls-3" d="M111.69 89.76l-.08-.08v-6.34l.08-.08h.92l.07.08v6.34l-.07.08h-.92z"/><path class="cls-5" d="M112.61 83.34v6.34h-.92v-6.34h.92m0-.15h-.92l-.15.15v6.34l.15.15h.92l.15-.15v-6.34l-.15-.15z"/><path class="cls-3" d="M122.57 70.38l-.08-.08v-.92l.08-.08h9.7l.08.08v.92l-.08.08h-9.7z"/><path class="cls-5" d="M132.27 69.38v.92h-9.7v-.92h9.7m0-.15h-9.7l-.15.15v.92l.15.15h9.7l.15-.15v-.92l-.15-.15z"/><path class="cls-3" d="M92.02 70.38l-.07-.08v-.92l.07-.08h9.7l.08.08v.92l-.08.08h-9.7z"/><path class="cls-5" d="M101.72 69.38v.92H92v-.92h9.7m0-.15H92l-.15.15v.92l.15.15h9.7l.15-.15v-.92l-.15-.15z"/><path stroke-miterlimit="3.86" stroke-width=".5" fill="none" stroke="#222221" d="M50.03 80.11h41.81"/><path class="cls-3" d="M91.34 10.81v78.37H50.53V10.81h40.81m.5-.5H50v79.37h41.84V10.31z"/></g></svg>