<svg xmlns="http://www.w3.org/2000/svg" viewBox="0 0 141.73 113.39"><defs><style>.cls-1{fill:#222221}.cls-3{fill:#fff}</style></defs><g id="Piano"><path class="cls-1" d="M134.92 7.59v95.35c0 1-1.34 2.86-3.79 2.86H10.6c-2.45 0-3.79-1.89-3.79-2.86V7.59h128.11m.5-.5H6.31v95.85c0 1.29 1.59 3.36 4.29 3.36h120.53c2.7 0 4.29-2.07 4.29-3.36V7.09z"/><path fill="none" stroke="#222221" stroke-linejoin="round" stroke-width=".25" d="M6.31 9.21h129.12"/></g><g id="Bruciatori_e_griglie" data-name="Bruciatori e griglie"><circle class="cls-1" cx="29.34" cy="38.13" r="6.38"/><path class="cls-1" d="M9.14 58V18.21h40.4V58zm36.72-3.68V21.89h-33v32.47z"/><path class="cls-3" d="M49.46 18.28V58H9.21V18.28h40.25M12.74 54.44h33.2V21.81h-33.2v32.63m36.87-36.31H9.06v40h40.55v-40zM12.89 22h32.9v32.29h-32.9V22z"/><path class="cls-1" d="M23 32.86c-.07-.07-7.14-6.86-7.59-7.28a3.41 3.41 0 01-.79-2v-5.3l.08-.07h.92l.08.07v5.34a2 2 0 00.59 1.38l7.47 7.13v.1l-.63.67z"/><path class="cls-3" d="M15.65 18.28v5.34a2.09 2.09 0 00.59 1.38l7.47 7.13-.63.67s-7.14-6.8-7.59-7.27a3.31 3.31 0 01-.76-1.91v-5.34h.92m0-.15h-.92l-.15.15v5.34a3.45 3.45 0 00.81 2c.44.41 7.51 7.2 7.58 7.27h.22l.63-.68V32l-7.47-7.13a2 2 0 01-.54-1.28v-5.31l-.15-.15z"/><path class="cls-1" d="M35.54 32.85l-.63-.67v-.1L42.39 25a2.1 2.1 0 00.61-1.39v-5.33l.08-.07H44l.08.07v5.34a3.42 3.42 0 01-.8 2L35.7 32.9z"/><path class="cls-3" d="M44 18.28v5.34a3.25 3.25 0 01-.77 1.91c-.45.42-7.58 7.27-7.58 7.27l-.65-.67L42.44 25a2.09 2.09 0 00.56-1.38v-5.34h1m0-.15h-1l-.15.15v5.34a2 2 0 01-.54 1.27L34.87 32v.21l.63.68h.21c.07-.07 7.14-6.86 7.59-7.27a3.44 3.44 0 00.81-2v-5.34l-.11-.15z"/><path class="cls-1" d="M43 58v-5.37a2.09 2.09 0 00-.56-1.33l-7.47-7.13v-.1l.63-.67h.11l7.58 7.28a3.45 3.45 0 01.8 2V58H44z"/><path class="cls-3" d="M35.6 43.45s7.13 6.85 7.58 7.27a3.28 3.28 0 01.82 1.91V58h-1v-5.37a2.12 2.12 0 00-.59-1.38L35 44.12l.63-.67m.1-.11h-.21l-.63.67v.21l7.47 7.13a2 2 0 01.54 1.28V58l.15.15H44l.1-.15v-5.37a3.45 3.45 0 00-.81-2c-.45-.41-7.52-7.2-7.59-7.27z"/><path class="cls-1" d="M14.73 58h-.08v-5.37a3.43 3.43 0 01.79-2c.45-.42 7.52-7.21 7.59-7.28h.1l.63.67v.1l-7.47 7.18a2 2 0 00-.56 1.34V58l-.08.07z"/><path class="cls-3" d="M23.08 43.45l.63.67-7.47 7.13a2.12 2.12 0 00-.59 1.38V58h-.92v-5.37a3.33 3.33 0 01.76-1.91c.45-.42 7.59-7.27 7.59-7.27m-.08-.11c-.07.07-7.14 6.86-7.58 7.27a3.44 3.44 0 00-.81 2V58l.15.15h.92l.12-.15v-5.37a2 2 0 01.54-1.27l7.47-7.13V44l-.63-.67z"/><path class="cls-1" d="M28.88 24.7l-.08-.07v-6.35l.08-.07h.92l.08.07v6.35l-.08.07h-.92z"/><path class="cls-3" d="M29.8 18.28v6.35h-.92v-6.35h.92m0-.15h-.92l-.15.15v6.35l.15.15h.92l.15-.15v-6.35l-.15-.15z"/><path class="cls-1" d="M28.88 58.04l-.08-.07v-6.34l.08-.08h.92l.08.08v6.34l-.08.07h-.92z"/><path class="cls-3" d="M29.8 51.63V58h-.92v-6.37h.92m0-.15h-.92l-.15.15V58l.15.15h.92L30 58v-6.37l-.15-.15z"/><path class="cls-1" d="M39.76 38.66l-.07-.07v-.93l.07-.07h9.71l.07.07v.93l-.07.07h-9.71z"/><path class="cls-3" d="M49.46 37.66v.93h-9.7v-.93h9.7m0-.15h-9.7l-.15.15v.93l.15.15h9.7l.15-.15v-.93l-.15-.15z"/><path class="cls-1" d="M9.21 38.66l-.07-.07v-.93l.07-.07h9.71l.07.07v.93l-.07.07H9.21z"/><path class="cls-3" d="M18.92 37.66v.93H9.21v-.93h9.71m0-.15H9.21l-.15.15v.93l.15.15h9.71l.15-.15v-.93l-.15-.15z"/><path class="cls-1" d="M29.34 70a8.5 8.5 0 108.5 8.5 8.5 8.5 0 00-8.5-8.5zm0 13.18A4.68 4.68 0 1134 78.52a4.69 4.69 0 01-4.66 4.68zm0-1.49a3.19 3.19 0 113.19-3.19 3.19 3.19 0 01-3.19 3.21z"/><path class="cls-1" d="M9.14 98.44V58.6h40.4v39.84zm36.72-3.68V62.28h-33v32.48z"/><path class="cls-3" d="M49.46 58.68v39.68H9.21V58.68h40.25M12.74 94.83h33.2V62.21h-33.2v32.62m36.87-36.3H9.06v40h40.55v-40zm-36.72 3.83h32.9v32.32h-32.9V62.36z"/><path class="cls-1" d="M23 73.25c-.07-.07-7.14-6.86-7.59-7.27a3.43 3.43 0 01-.79-2v-5.3l.08-.08h.92l.08.08V64a2 2 0 00.56 1.33l7.47 7.13v.11l-.63.67z"/><path class="cls-3" d="M15.65 58.68V64a2.12 2.12 0 00.59 1.39l7.47 7.13-.63.67s-7.14-6.86-7.59-7.28a3.31 3.31 0 01-.76-1.91v-5.32h.92m0-.15h-.92l-.15.15V64a3.45 3.45 0 00.81 2L23 73.31h.22l.63-.67v-.21l-7.47-7.13a2 2 0 01-.58-1.3v-5.32l-.15-.15z"/><path class="cls-1" d="M35.54 73.25l-.63-.67v-.11l7.47-7.13A2.09 2.09 0 0043 64v-5.4h1l.08.08V64a3.48 3.48 0 01-.8 2c-.44.41-7.51 7.2-7.58 7.27z"/><path class="cls-3" d="M44 58.68V64a3.25 3.25 0 01-.77 1.91c-.45.42-7.58 7.28-7.58 7.28l-.65-.66 7.47-7.13A2.12 2.12 0 0043 64v-5.32h1m0-.15h-1l-.15.15V64a2 2 0 01-.54 1.28l-7.47 7.13v.21l.63.67h.21c.07-.07 7.14-6.86 7.59-7.28a3.44 3.44 0 00.81-2v-5.33l-.08-.15z"/><path class="cls-1" d="M43 98.44V93a2.07 2.07 0 00-.56-1.33l-7.47-7.13v-.11l.63-.67h.11c.07.07 7.14 6.86 7.58 7.27a3.45 3.45 0 01.8 2v5.34l-.08.08z"/><path class="cls-3" d="M35.6 83.84s7.13 6.86 7.58 7.28A3.25 3.25 0 0144 93v5.33h-1V93a2.12 2.12 0 00-.59-1.39L35 84.51l.63-.67m.1-.11h-.21l-.63.67v.21l7.47 7.13a2 2 0 01.52 1.26v5.32l.15.15H44l.15-.15V93a3.45 3.45 0 00-.81-2c-.45-.42-7.52-7.21-7.59-7.28z"/><path class="cls-1" d="M14.73 98.44l-.08-.08V93a3.44 3.44 0 01.79-2c.45-.41 7.52-7.2 7.59-7.27h.1l.63.67v.11l-7.47 7.19a2 2 0 00-.56 1.3v5.33l-.08.08z"/><path class="cls-3" d="M23.08 83.84l.63.67-7.47 7.13a2.12 2.12 0 00-.59 1.36v5.33h-.92V93a3.31 3.31 0 01.76-1.91c.45-.42 7.59-7.28 7.59-7.28m-.08-.08L15.39 91a3.44 3.44 0 00-.81 2v5.34l.15.15h.92l.15-.15V93a2 2 0 01.54-1.28l7.47-7.13v-.21l-.63-.67z"/><path class="cls-1" d="M28.88 65.09l-.08-.07v-6.34l.08-.08h.92l.08.08v6.34l-.08.07h-.92z"/><path class="cls-3" d="M29.8 58.68V65h-.92v-6.32h.92m0-.15h-.92l-.15.15V65l.15.15h.92L30 65v-6.32l-.15-.15z"/><path class="cls-1" d="M28.88 98.44l-.08-.08v-6.34l.08-.08h.92l.08.08v6.34l-.08.08h-.92z"/><path class="cls-3" d="M29.8 92v6.34h-.92V92h.92m0-.15h-.92l-.15.15v6.34l.15.15h.92l.15-.15V92l-.15-.15z"/><path class="cls-1" d="M39.76 79.06l-.07-.08v-.92l.07-.08h9.71l.07.08v.92l-.07.08h-9.71z"/><path class="cls-3" d="M49.46 78.06V79h-9.7v-.92h9.7m0-.15h-9.7l-.15.15V79l.15.15h9.7l.15-.15v-.92l-.15-.15z"/><path class="cls-1" d="M9.21 79.06l-.07-.08v-.92l.07-.08h9.71l.07.08v.92l-.07.08H9.21z"/><path class="cls-3" d="M18.92 78.06V79H9.21v-.92h9.71m0-.15H9.21l-.15.15V79l.15.15h9.71l.15-.15v-.92l-.15-.15z"/><circle class="cls-1" cx="112.34" cy="38.13" r="6.38"/><path class="cls-1" d="M92.14 58V18.21h40.4V58zm36.72-3.68V21.89h-33v32.47z"/><path class="cls-3" d="M132.46 18.28V58H92.21V18.28h40.25M95.74 54.44h33.2V21.81h-33.2v32.63m36.87-36.31H92.06v40h40.55v-40zM95.89 22h32.9v32.29h-32.9V22z"/><path class="cls-1" d="M106 32.86c-.07-.07-7.14-6.86-7.59-7.28a3.41 3.41 0 01-.79-2v-5.3l.08-.07h.92l.08.07v5.34a2 2 0 00.59 1.38l7.47 7.13v.1l-.63.67z"/><path class="cls-3" d="M98.65 18.28v5.34a2.09 2.09 0 00.59 1.38l7.47 7.13-.63.67s-7.14-6.8-7.59-7.27a3.31 3.31 0 01-.76-1.91v-5.34h.92m0-.15h-.92l-.15.15v5.34a3.45 3.45 0 00.81 2c.44.41 7.51 7.2 7.58 7.27h.22l.63-.68V32l-7.47-7.13a2 2 0 01-.54-1.28v-5.31l-.15-.15z"/><path class="cls-1" d="M118.54 32.85l-.63-.67v-.1l7.48-7.08a2.1 2.1 0 00.56-1.34v-5.38l.08-.07h.97l.08.07v5.34a3.42 3.42 0 01-.8 2l-7.58 7.28z"/><path class="cls-3" d="M127 18.28v5.34a3.25 3.25 0 01-.77 1.91c-.45.42-7.58 7.27-7.58 7.27l-.63-.67 7.42-7.13a2.09 2.09 0 00.59-1.38v-5.34h.97m0-.15h-1l-.15.15v5.34a2 2 0 01-.54 1.27L117.87 32v.21l.63.68h.21c.07-.07 7.14-6.86 7.59-7.27a3.44 3.44 0 00.81-2v-5.34l-.15-.15z"/><path class="cls-1" d="M126 58v-5.37a2.09 2.09 0 00-.56-1.33l-7.47-7.13v-.1l.63-.67h.11l7.58 7.28a3.45 3.45 0 01.8 2V58H127z"/><path class="cls-3" d="M118.6 43.45s7.13 6.85 7.58 7.27a3.28 3.28 0 01.77 1.91V58H126v-5.37a2.12 2.12 0 00-.59-1.38L118 44.12l.63-.67m.1-.11h-.21l-.63.67v.21l7.47 7.13a2 2 0 01.54 1.28V58l.15.15h.95l.15-.15v-5.37a3.45 3.45 0 00-.81-2c-.45-.41-7.52-7.2-7.59-7.27z"/><path class="cls-1" d="M97.73 58h-.08v-5.37a3.43 3.43 0 01.79-2c.45-.42 7.52-7.21 7.59-7.28h.1l.63.67v.1l-7.47 7.18a2 2 0 00-.56 1.34V58l-.08.07z"/><path class="cls-3" d="M106.08 43.45l.63.67-7.47 7.13a2.12 2.12 0 00-.59 1.38V58h-.92v-5.37a3.33 3.33 0 01.76-1.91c.45-.42 7.59-7.27 7.59-7.27m-.11-.11c-.07.07-7.14 6.86-7.58 7.27a3.44 3.44 0 00-.81 2V58l.15.15h.92l.15-.15v-5.37a2 2 0 01.54-1.27l7.47-7.13V44l-.63-.67z"/><path class="cls-1" d="M111.88 24.7l-.08-.07v-6.35l.08-.07h.92l.08.07v6.35l-.08.07h-.92z"/><path class="cls-3" d="M112.8 18.28v6.35h-.92v-6.35h.92m0-.15h-.92l-.15.15v6.35l.15.15h.92l.15-.15v-6.35l-.15-.15z"/><path class="cls-1" d="M111.88 58.04l-.08-.07v-6.34l.08-.08h.92l.08.08v6.34l-.08.07h-.92z"/><path class="cls-3" d="M112.8 51.63V58h-.92v-6.37h.92m0-.15h-.92l-.15.15V58l.15.15h.92l.2-.15v-6.37l-.15-.15z"/><path class="cls-1" d="M122.76 38.66l-.07-.07v-.93l.07-.07h9.71l.07.07v.93l-.07.07h-9.71z"/><path class="cls-3" d="M132.46 37.66v.93h-9.7v-.93h9.7m0-.15h-9.7l-.15.15v.93l.15.15h9.7l.15-.15v-.93l-.15-.15z"/><path class="cls-1" d="M92.21 38.66l-.07-.07v-.93l.07-.07h9.71l.07.07v.93l-.07.07h-9.71z"/><path class="cls-3" d="M101.92 37.66v.93h-9.71v-.93h9.71m0-.15h-9.71l-.15.15v.93l.15.15h9.71l.15-.15v-.93l-.15-.15z"/><path class="cls-1" d="M112.34 70a8.5 8.5 0 108.5 8.5 8.5 8.5 0 00-8.5-8.5zm0 13.18a4.68 4.68 0 114.66-4.66 4.69 4.69 0 01-4.66 4.68zm0-1.49a3.19 3.19 0 113.19-3.19 3.19 3.19 0 01-3.19 3.21z"/><path class="cls-1" d="M92.14 98.44V58.6h40.4v39.84zm36.72-3.68V62.28h-33v32.48z"/><path class="cls-3" d="M132.46 58.68v39.68H92.21V58.68h40.25M95.74 94.83h33.2V62.21h-33.2v32.62m36.87-36.3H92.06v40h40.55v-40zm-36.72 3.83h32.9v32.32h-32.9V62.36z"/><path class="cls-1" d="M106 73.25c-.07-.07-7.14-6.86-7.59-7.27a3.43 3.43 0 01-.79-2v-5.3l.08-.08h.92l.08.08V64a2 2 0 00.56 1.33l7.47 7.13v.11l-.63.67z"/><path class="cls-3" d="M98.65 58.68V64a2.12 2.12 0 00.59 1.39l7.47 7.13-.63.67s-7.14-6.86-7.59-7.28a3.31 3.31 0 01-.76-1.91v-5.32h.92m0-.15h-.92l-.15.15V64a3.45 3.45 0 00.81 2l7.61 7.31h.22l.63-.67v-.21l-7.47-7.13a2 2 0 01-.58-1.3v-5.32l-.15-.15z"/><path class="cls-1" d="M118.54 73.25l-.63-.67v-.11l7.47-7.13A2.09 2.09 0 00126 64v-5.32l.08-.08h.92l.08.08V64a3.48 3.48 0 01-.8 2c-.44.41-7.51 7.2-7.58 7.27z"/><path class="cls-3" d="M127 58.68V64a3.25 3.25 0 01-.77 1.91c-.45.42-7.58 7.28-7.58 7.28l-.63-.67 7.47-7.13A2.12 2.12 0 00126 64v-5.32h1m0-.15h-1l-.15.15V64a2 2 0 01-.54 1.28l-7.47 7.13v.21l.63.67h.21c.07-.07 7.14-6.86 7.59-7.28a3.44 3.44 0 00.81-2v-5.33l-.15-.15z"/><path class="cls-1" d="M126 98.44l-.08-.08V93a2.07 2.07 0 00-.56-1.33l-7.47-7.13v-.11l.63-.67h.11c.07.07 7.14 6.86 7.58 7.27a3.45 3.45 0 01.8 2v5.34l-.08.08z"/><path class="cls-3" d="M118.6 83.84s7.13 6.86 7.58 7.28A3.25 3.25 0 01127 93v5.33h-1V93a2.12 2.12 0 00-.59-1.39l-7.41-7.1.63-.67m.1-.11h-.21l-.63.67v.21l7.47 7.13a2 2 0 01.54 1.29v5.32l.15.15h.95l.15-.15V93a3.45 3.45 0 00-.81-2c-.45-.42-7.52-7.21-7.59-7.28z"/><path class="cls-1" d="M97.73 98.44l-.08-.08V93a3.44 3.44 0 01.79-2c.45-.41 7.52-7.2 7.59-7.27h.1l.63.67v.11l-7.47 7.19a2 2 0 00-.56 1.3v5.33l-.08.08z"/><path class="cls-3" d="M106.08 83.84l.63.67-7.47 7.13a2.12 2.12 0 00-.59 1.36v5.33h-.92V93a3.31 3.31 0 01.76-1.91c.45-.42 7.59-7.28 7.59-7.28m-.11-.11L98.39 91a3.44 3.44 0 00-.81 2v5.34l.15.15h.92l.15-.15V93a2 2 0 01.54-1.28l7.47-7.13v-.21l-.63-.67z"/><path class="cls-1" d="M111.88 65.09l-.08-.07v-6.34l.08-.08h.92l.08.08v6.34l-.08.07h-.92z"/><path class="cls-3" d="M112.8 58.68V65h-.92v-6.32h.92m0-.15h-.92l-.15.15V65l.15.15h.92l.2-.15v-6.32l-.15-.15z"/><path class="cls-1" d="M111.88 98.44l-.08-.08v-6.34l.08-.08h.92l.08.08v6.34l-.08.08h-.92z"/><path class="cls-3" d="M112.8 92v6.34h-.92V92h.92m0-.15h-.92l-.15.15v6.34l.15.15h.92l.15-.15V92l-.15-.15z"/><path class="cls-1" d="M122.76 79.06l-.07-.08v-.92l.07-.08h9.71l.07.08v.92l-.07.08h-9.71z"/><path class="cls-3" d="M132.46 78.06V79h-9.7v-.92h9.7m0-.15h-9.7l-.15.15V79l.15.15h9.7l.15-.15v-.92l-.15-.15z"/><path class="cls-1" d="M92.21 79.06l-.07-.08v-.92l.07-.08h9.71l.07.08v.92l-.07.08h-9.71z"/><path class="cls-3" d="M101.92 78.06V79h-9.71v-.92h9.71m0-.15h-9.71l-.15.15V79l.15.15h9.71l.15-.15v-.92l-.15-.15z"/><circle class="cls-1" cx="70.87" cy="38.13" r="6.38"/><path class="cls-1" d="M50.67 58V18.21h40.4V58zm36.72-3.68V21.89h-33v32.47z"/><path class="cls-3" d="M91 18.28V58H50.74V18.28H91M54.27 54.44h33.19V21.81H54.27v32.63m36.87-36.31H50.59v40h40.55v-40zM54.42 22h32.89v32.29H54.42V22z"/><path class="cls-1" d="M64.55 32.86L57 25.58a3.34 3.34 0 01-.79-2v-5.3l.07-.07h.93l.07.07v5.34a2 2 0 00.54 1.38l7.47 7.13v.1l-.63.67z"/><path class="cls-3" d="M57.18 18.28v5.34a2.09 2.09 0 00.59 1.38l7.47 7.13-.63.67S57.47 26 57 25.53a3.39 3.39 0 01-.77-1.91v-5.34h.93m0-.15h-.93l-.15.15v5.34a3.46 3.46 0 00.82 2c.44.41 7.51 7.2 7.58 7.27h.22l.63-.68V32l-7.47-7.13a1.94 1.94 0 01-.54-1.28v-5.31l-.15-.15z"/><path class="cls-1" d="M77.07 32.85l-.63-.67v-.1L83.92 25a2.1 2.1 0 00.56-1.34v-5.38l.07-.07h.93l.07.07v5.34a3.34 3.34 0 01-.79 2l-7.58 7.28z"/><path class="cls-3" d="M85.48 18.28v5.34a3.25 3.25 0 01-.77 1.91c-.45.42-7.58 7.27-7.58 7.27l-.63-.67L84 25a2.14 2.14 0 00.58-1.38v-5.34h.93m0-.15h-.93l-.15.15v5.34a1.93 1.93 0 01-.54 1.27L76.39 32v.21l.63.68h.21c.07-.07 7.14-6.86 7.58-7.27a3.46 3.46 0 00.82-2v-5.34l-.15-.15z"/><path class="cls-1" d="M84.55 58h-.07v-5.37a2.09 2.09 0 00-.56-1.33l-7.48-7.13v-.1l.63-.67h.11l7.58 7.28a3.37 3.37 0 01.79 2V58l-.07.07z"/><path class="cls-3" d="M77.13 43.45s7.13 6.85 7.58 7.27a3.28 3.28 0 01.77 1.91V58h-.93v-5.37a2.17 2.17 0 00-.55-1.38l-7.5-7.13.63-.67m.1-.11H77l-.63.67v.21l7.47 7.13a2 2 0 01.54 1.28V58l.15.15h.93l.15-.15v-5.37a3.46 3.46 0 00-.82-2c-.44-.41-7.51-7.2-7.58-7.27z"/><path class="cls-1" d="M56.25 58h-.07v-5.37a3.37 3.37 0 01.79-2l7.58-7.28h.11l.63.67v.1l-7.47 7.18a2 2 0 00-.57 1.34V58l-.07.07z"/><path class="cls-3" d="M64.61 43.45l.63.67-7.47 7.13a2.12 2.12 0 00-.59 1.38V58h-.93v-5.37a3.42 3.42 0 01.75-1.91c.45-.42 7.59-7.27 7.59-7.27m-.11-.11c-.07.07-7.14 6.86-7.58 7.27a3.46 3.46 0 00-.82 2V58l.15.15h.93l.15-.15v-5.37a2 2 0 01.54-1.27l7.47-7.13V44l-.63-.67z"/><path class="cls-1" d="M70.4 24.7l-.07-.07v-6.35l.07-.07h.93l.07.07v6.35l-.07.07h-.93z"/><path class="cls-3" d="M71.33 18.28v6.35h-.93v-6.35h.93m0-.15h-.93l-.15.15v6.35l.15.15h.93l.15-.15v-6.35l-.15-.15z"/><path class="cls-1" d="M70.4 58.04l-.07-.07v-6.34l.07-.08h.93l.07.08v6.34l-.07.07h-.93z"/><path class="cls-3" d="M71.33 51.63V58h-.93v-6.37h.93m0-.15h-.93l-.15.15V58l.15.15h.93l.15-.15v-6.37l-.15-.15z"/><path class="cls-1" d="M81.29 38.66l-.08-.07v-.93l.08-.07h9.7l.08.07v.93l-.08.07h-9.7z"/><path class="cls-3" d="M91 37.66v.93h-9.7v-.93H91m0-.15h-9.7l-.15.15v.93l.15.15H91l.15-.15v-.93l-.15-.15z"/><path class="cls-1" d="M50.74 38.66l-.08-.07v-.93l.08-.07h9.7l.08.07v.93l-.08.07h-9.7z"/><path class="cls-3" d="M60.44 37.66v.93h-9.7v-.93h9.7m0-.15h-9.7l-.15.15v.93l.15.15h9.7l.15-.15v-.93l-.15-.15z"/><circle class="cls-1" cx="70.87" cy="78.52" r="4.25"/><path class="cls-1" d="M50.67 98.44V58.6h40.4v39.84zm36.72-3.68V62.28h-33v32.48z"/><path class="cls-3" d="M91 58.68v39.68H50.74V58.68H91M54.27 94.83h33.19V62.21H54.27v32.62m36.87-36.3H50.59v40h40.55v-40zm-36.72 3.83h32.89v32.32H54.42V62.36z"/><path class="cls-1" d="M64.55 73.25c-.07-.07-7.14-6.86-7.58-7.27a3.37 3.37 0 01-.79-2v-5.3l.07-.08h.93l.07.08V64a2 2 0 00.57 1.33l7.47 7.13v.11l-.63.67z"/><path class="cls-3" d="M57.18 58.68V64a2.12 2.12 0 00.59 1.39l7.47 7.13-.63.67s-7.14-6.85-7.61-7.27a3.39 3.39 0 01-.75-1.92v-5.32h.93m0-.15h-.93l-.15.15V64a3.46 3.46 0 00.82 2l7.58 7.28h.22l.63-.67v-.21l-7.47-7.13a2 2 0 01-.55-1.27v-5.32l-.15-.15z"/><path class="cls-1" d="M77.07 73.25l-.63-.67v-.11l7.48-7.13a2.09 2.09 0 00.56-1.34v-5.32l.07-.08h.93l.07.08V64a3.37 3.37 0 01-.79 2c-.44.41-7.51 7.2-7.58 7.27z"/><path class="cls-3" d="M85.48 58.68V64a3.25 3.25 0 01-.77 1.91c-.45.42-7.58 7.28-7.58 7.28l-.63-.67L84 65.4a2.17 2.17 0 00.55-1.4v-5.32h.93m0-.15h-.93l-.15.15V64a2 2 0 01-.54 1.28l-7.47 7.13v.21l.63.67h.21L84.81 66a3.46 3.46 0 00.82-2v-5.32l-.15-.15z"/><path class="cls-1" d="M84.55 98.44l-.07-.08V93a2.09 2.09 0 00-.56-1.33l-7.48-7.13v-.11l.63-.67h.11c.07.07 7.14 6.86 7.58 7.27a3.37 3.37 0 01.79 2v5.34l-.07.08z"/><path class="cls-3" d="M77.13 83.84s7.13 6.86 7.58 7.28a3.25 3.25 0 01.77 1.88v5.33h-.93V93a2.17 2.17 0 00-.55-1.36l-7.5-7.13.63-.67m.1-.11H77l-.63.67v.21l7.47 7.13A2 2 0 0184.4 93v5.32l.15.15h.93l.15-.15V93a3.46 3.46 0 00-.82-2l-7.58-7.28z"/><path class="cls-1" d="M56.25 98.44l-.07-.08V93a3.37 3.37 0 01.79-2c.44-.41 7.51-7.2 7.58-7.27h.11l.63.67v.11l-7.47 7.19a2 2 0 00-.57 1.3v5.33l-.07.08z"/><path class="cls-3" d="M64.61 83.84l.63.67-7.47 7.13a2.12 2.12 0 00-.59 1.36v5.33h-.93V93a3.39 3.39 0 01.75-1.88c.45-.42 7.59-7.28 7.59-7.28m-.11-.11L56.92 91a3.46 3.46 0 00-.82 2v5.34l.15.15h.93l.15-.15V93a2 2 0 01.54-1.28l7.47-7.13v-.21l-.63-.67z"/><path class="cls-1" d="M70.4 65.09l-.07-.07v-6.34l.07-.08h.93l.07.08v6.34l-.07.07h-.93z"/><path class="cls-3" d="M71.33 58.68V65h-.93v-6.32h.93m0-.15h-.93l-.15.15V65l.15.15h.93l.15-.15v-6.32l-.15-.15z"/><path class="cls-1" d="M70.4 98.44l-.07-.08v-6.34l.07-.08h.93l.07.08v6.34l-.07.08h-.93z"/><path class="cls-3" d="M71.33 92v6.34h-.93V92h.93m0-.15h-.93l-.15.15v6.34l.15.15h.93l.15-.15V92l-.15-.15z"/><path class="cls-1" d="M81.29 79.06l-.08-.08v-.92l.08-.08h9.7l.08.08v.92l-.08.08h-9.7z"/><path class="cls-3" d="M91 78.06V79h-9.7v-.92H91m0-.15h-9.7l-.15.15V79l.15.15H91l.15-.15v-.92l-.15-.17z"/><path class="cls-1" d="M50.74 79.06l-.08-.08v-.92l.08-.08h9.7l.08.08v.92l-.08.08h-9.7z"/><path class="cls-3" d="M60.44 78.06V79h-9.7v-.92h9.7m0-.15h-9.7l-.15.15V79l.15.15h9.7l.15-.15v-.92l-.15-.15z"/></g></svg>