<svg xmlns="http://www.w3.org/2000/svg" viewBox="0 0 141.73 113.39"><defs><style>.cls-1{fill:#222221}.cls-3{fill:#fff}</style></defs><g id="Piano"><path class="cls-1" d="M134.92 7.59v95.35c0 1-1.34 2.86-3.79 2.86H10.6c-2.45 0-3.79-1.89-3.79-2.86V7.59h128.11m.5-.5H6.31v95.85c0 1.29 1.59 3.36 4.29 3.36h120.53c2.7 0 4.29-2.07 4.29-3.36V7.09z"/><path fill="none" stroke="#222221" stroke-linejoin="round" stroke-width=".25" d="M6.31 9.21h129.12"/></g><g id="Bruciatori_e_griglie" data-name="Bruciatori e griglie"><circle class="cls-1" cx="32.88" cy="38.13" r="6.38"/><path class="cls-1" d="M8.71 58V18.21h48.34V58zM52 54.36V21.89H13.74v32.47z"/><path class="cls-3" d="M57 18.28V58H8.79V18.28H57M13.66 54.44H52.1V21.81H13.66v32.63m43.47-36.31H8.64v40h48.49v-40zM13.81 22H52v32.29H13.81V22z"/><path class="cls-1" d="M46.05 38.66l-.07-.07v-.93l.07-.07h10.93l.07.07v.93l-.07.07H46.05z"/><path class="cls-3" d="M57 37.66v.93H46.05v-.93H57m0-.15H46.05l-.15.15v.93l.15.15H57l.15-.15v-.93l-.15-.15z"/><path class="cls-1" d="M8.79 38.66l-.08-.07v-.93l.08-.07h10.92l.07.07v.93l-.07.07H8.79z"/><path class="cls-3" d="M19.71 37.66v.93H8.79v-.93h10.92m0-.15H8.79l-.15.15v.93l.15.15h10.92l.15-.15v-.93l-.15-.15z"/><path class="cls-1" d="M26.57 32.86c-.07-.07-7.14-6.86-7.57-7.27a3.48 3.48 0 01-.8-2v-5.31l.08-.07h.92l.08.07v5.34a2.09 2.09 0 00.55 1.38l7.47 7.13v.1l-.63.67z"/><path class="cls-3" d="M19.19 18.28v5.34a2.2 2.2 0 00.59 1.38l7.47 7.13-.63.67S19.49 26 19 25.53a3.25 3.25 0 01-.77-1.91v-5.34h.92m0-.15h-.92l-.15.15v5.34a3.45 3.45 0 00.81 2c.45.41 7.52 7.2 7.59 7.27h.21l.63-.68V32l-7.48-7.13a2 2 0 01-.54-1.28v-5.31l-.15-.15z"/><path class="cls-1" d="M39.09 32.85l-.63-.67v-.1L45.93 25a2.1 2.1 0 00.57-1.34v-5.38l.07-.07h.92l.08.07v5.34a3.46 3.46 0 01-.79 2c-.45.41-7.51 7.2-7.59 7.27z"/><path class="cls-3" d="M47.49 18.28v5.34a3.31 3.31 0 01-.76 1.91c-.45.42-7.59 7.27-7.59 7.27l-.63-.67L46 25a2.09 2.09 0 00.59-1.38v-5.34h.92m0-.15h-.92l-.15.15v5.34a2 2 0 01-.54 1.27L38.41 32v.21l.63.68h.22c.07-.07 7.14-6.86 7.58-7.27a3.44 3.44 0 00.81-2v-5.34l-.15-.15z"/><path class="cls-1" d="M46.57 58h-.07v-5.37a2.09 2.09 0 00-.57-1.33l-7.47-7.13v-.1l.63-.67h.1c.08.07 7.14 6.86 7.59 7.28a3.43 3.43 0 01.79 2V58l-.08.07z"/><path class="cls-3" d="M39.14 43.45s7.14 6.85 7.59 7.27a3.33 3.33 0 01.76 1.91V58h-.92v-5.37a2.12 2.12 0 00-.57-1.38l-7.47-7.13.63-.67m.11-.11H39l-.6.66v.21l7.47 7.13a2 2 0 01.54 1.28V58l.15.15h.92l.15-.15v-5.37a3.45 3.45 0 00-.81-2c-.44-.41-7.51-7.2-7.58-7.27z"/><path class="cls-1" d="M18.27 58h-.08v-5.37a3.45 3.45 0 01.8-2l7.58-7.28h.11l.63.67v.1l-7.48 7.18a2.1 2.1 0 00-.56 1.34V58l-.08.07z"/><path class="cls-3" d="M26.62 43.45l.63.67-7.47 7.13a2.22 2.22 0 00-.59 1.38V58h-.92v-5.37a3.28 3.28 0 01.73-1.91c.45-.42 7.58-7.27 7.58-7.27m-.1-.11c-.07.07-7.14 6.86-7.59 7.27a3.44 3.44 0 00-.81 2V58l.15.15h.92l.15-.15v-5.37a2 2 0 01.54-1.27l7.48-7.13V44l-.63-.67z"/><path class="cls-1" d="M32.42 24.7l-.08-.07v-6.35l.08-.07h.92l.08.07v6.35l-.08.07h-.92z"/><path class="cls-3" d="M33.34 18.28v6.35h-.92v-6.35h.92m0-.15h-.92l-.15.15v6.35l.15.15h.92l.15-.15v-6.35l-.15-.15z"/><path class="cls-1" d="M32.42 58.04l-.08-.07v-6.34l.08-.08h.92l.08.08v6.34l-.08.07h-.92z"/><path class="cls-3" d="M33.34 51.63V58h-.92v-6.37h.92m0-.15h-.92l-.15.15V58l.15.15h.92l.15-.15v-6.37l-.15-.15z"/><circle class="cls-1" cx="108.85" cy="38.13" r="6.38"/><path class="cls-1" d="M84.68 58V18.21H133V58zM128 54.36V21.89H89.71v32.47z"/><path class="cls-3" d="M132.94 18.28V58H84.76V18.28h48.18M89.63 54.44h38.44V21.81H89.63v32.63m43.46-36.31H84.61v40h48.48v-40zM89.78 22h38.14v32.29H89.78V22z"/><path class="cls-1" d="M122.02 38.66l-.07-.07v-.93l.07-.07h10.92l.08.07v.93l-.08.07h-10.92z"/><path class="cls-3" d="M132.94 37.66v.93H122v-.93h10.92m0-.15H122l-.15.15v.93l.15.15h10.92l.15-.15v-.93l-.15-.15z"/><path class="cls-1" d="M84.76 38.66l-.08-.07v-.93l.08-.07h10.92l.07.07v.93l-.07.07H84.76z"/><path class="cls-3" d="M95.68 37.66v.93H84.76v-.93h10.92m0-.15H84.76l-.15.15v.93l.15.15h10.92l.15-.15v-.93l-.15-.15z"/><path class="cls-1" d="M102.54 32.86c-.07-.07-7.14-6.86-7.59-7.27a3.53 3.53 0 01-.79-2v-5.31l.08-.07h.92l.08.07v5.34A2.09 2.09 0 0095.8 25l7.47 7.13v.1l-.63.67z"/><path class="cls-3" d="M95.16 18.28v5.34a2.09 2.09 0 00.59 1.38l7.47 7.13-.63.67L95 25.53a3.25 3.25 0 01-.77-1.91v-5.34h.92m0-.15h-.92l-.15.15v5.34a3.45 3.45 0 00.81 2c.45.41 7.51 7.2 7.59 7.27h.21l.63-.68V32l-7.47-7.13a2 2 0 01-.54-1.28v-5.31l-.15-.15z"/><path class="cls-1" d="M115.06 32.85l-.63-.67v-.1L121.9 25a2.1 2.1 0 00.56-1.34v-5.38l.08-.07h.92l.08.07v5.34a3.46 3.46 0 01-.79 2c-.45.41-7.52 7.2-7.59 7.27z"/><path class="cls-3" d="M123.46 18.28v5.34a3.31 3.31 0 01-.76 1.91c-.45.42-7.59 7.27-7.59 7.27l-.63-.67L122 25a2.09 2.09 0 00.59-1.38v-5.34h.92m0-.15h-.92l-.15.15v5.34a2 2 0 01-.54 1.27L114.38 32v.21l.63.68h.21c.08-.07 7.14-6.86 7.59-7.27a3.44 3.44 0 00.81-2v-5.34l-.15-.15z"/><path class="cls-1" d="M122.54 58l-.08-.07v-5.3a2.09 2.09 0 00-.56-1.33l-7.47-7.13v-.1l.63-.67h.1c.07.07 7.14 6.86 7.59 7.28a3.43 3.43 0 01.79 2V58l-.08.07z"/><path class="cls-3" d="M115.11 43.45s7.14 6.85 7.59 7.27a3.33 3.33 0 01.76 1.91V58h-.92v-5.37a2.12 2.12 0 00-.59-1.38l-7.47-7.13.63-.67m.1-.11H115l-.63.67v.21l7.47 7.13a2 2 0 01.54 1.28V58l.15.15h.92l.15-.15v-5.37a3.45 3.45 0 00-.81-2c-.45-.41-7.51-7.2-7.59-7.27z"/><path class="cls-1" d="M94.24 58h-.08v-5.37a3.48 3.48 0 01.79-2c.45-.42 7.52-7.21 7.59-7.28h.1l.63.67v.1L95.8 51.3a2.1 2.1 0 00-.56 1.34V58l-.08.07z"/><path class="cls-3" d="M102.59 43.45l.63.67-7.47 7.13a2.12 2.12 0 00-.59 1.38V58h-.92v-5.37a3.28 3.28 0 01.76-1.91l7.58-7.27m-.1-.11c-.08.07-7.14 6.86-7.59 7.27a3.44 3.44 0 00-.81 2V58l.15.15h.92l.15-.15v-5.37a2 2 0 01.54-1.27l7.47-7.13V44l-.63-.67z"/><path class="cls-1" d="M108.39 24.7l-.08-.07v-6.35l.08-.07h.92l.08.07v6.35l-.08.07h-.92z"/><path class="cls-3" d="M109.31 18.28v6.35h-.92v-6.35h.92m0-.15h-.92l-.15.15v6.35l.15.15h.92l.15-.15v-6.35l-.15-.15z"/><path class="cls-1" d="M108.39 58.04l-.08-.07v-6.34l.08-.08h.92l.08.08v6.34l-.08.07h-.92z"/><path class="cls-3" d="M109.31 51.63V58h-.92v-6.37h.92m0-.15h-.92l-.15.15V58l.15.15h.92l.15-.15v-6.37l-.15-.15z"/><circle class="cls-1" cx="108.85" cy="78.52" r="4.25"/><path class="cls-1" d="M84.68 98.44V58.6H133v39.84zM128 94.76V62.28H89.71v32.48z"/><path class="cls-3" d="M132.94 58.68v39.68H84.76V58.68h48.18M89.63 94.83h38.44V62.21H89.63v32.62m43.46-36.3H84.61v40h48.48v-40zm-43.31 3.83h38.14v32.32H89.78V62.36z"/><path class="cls-1" d="M122.02 79.06l-.07-.08v-.92l.07-.08h10.92l.08.08v.92l-.08.08h-10.92z"/><path class="cls-3" d="M132.94 78.06V79H122v-.92h10.92m0-.15H122l-.15.15V79l.15.15h10.92l.15-.15v-.92l-.15-.15z"/><path class="cls-1" d="M84.76 79.06l-.08-.08v-.92l.08-.08h10.92l.07.08v.92l-.07.08H84.76z"/><path class="cls-3" d="M95.68 78.06V79H84.76v-.92h10.92m0-.15H84.76l-.15.15V79l.15.15h10.92l.15-.15v-.92l-.15-.15z"/><path class="cls-1" d="M102.54 73.25c-.07-.07-7.14-6.86-7.59-7.27a3.51 3.51 0 01-.79-2v-5.3l.08-.08h.92l.08.08V64a2.09 2.09 0 00.56 1.33l7.47 7.13v.11l-.63.67z"/><path class="cls-3" d="M95.16 58.68V64a2.12 2.12 0 00.59 1.39l7.47 7.13-.63.67L95 65.92a3.25 3.25 0 01-.76-1.92v-5.32h.92m0-.15h-.92l-.15.15V64a3.45 3.45 0 00.81 2c.45.42 7.51 7.21 7.59 7.28h.21l.63-.67v-.21l-7.47-7.13a2 2 0 01-.55-1.27v-5.32l-.15-.15z"/><path class="cls-1" d="M115.06 73.25l-.63-.67v-.11l7.47-7.13a2.09 2.09 0 00.56-1.33v-5.33l.08-.08h.92l.08.08V64a3.44 3.44 0 01-.79 2c-.45.41-7.52 7.2-7.59 7.27z"/><path class="cls-3" d="M123.46 58.68V64a3.31 3.31 0 01-.76 1.91c-.45.42-7.59 7.28-7.59 7.28l-.63-.67L122 65.4a2.12 2.12 0 00.59-1.39v-5.33h.92m0-.15h-.92l-.15.15V64a2 2 0 01-.54 1.28l-7.47 7.13v.21l.63.67h.21c.08-.07 7.14-6.86 7.59-7.28a3.44 3.44 0 00.81-2v-5.33l-.15-.15z"/><path class="cls-1" d="M122.54 98.44l-.08-.08V93a2.09 2.09 0 00-.56-1.33l-7.47-7.13v-.11l.63-.67h.1c.07.07 7.14 6.86 7.59 7.27a3.43 3.43 0 01.79 2v5.34l-.08.08z"/><path class="cls-3" d="M115.11 83.84s7.14 6.86 7.59 7.28a3.31 3.31 0 01.76 1.91v5.33h-.92V93a2.12 2.12 0 00-.59-1.39l-7.47-7.13.63-.67m.1-.11H115l-.63.67v.21l7.47 7.13a2 2 0 01.54 1.29v5.32l.15.15h.92l.15-.15V93a3.45 3.45 0 00-.81-2c-.45-.42-7.51-7.21-7.59-7.28z"/><path class="cls-1" d="M94.24 98.44l-.08-.08V93a3.51 3.51 0 01.79-2c.45-.41 7.52-7.2 7.59-7.27h.1l.63.67v.11L95.8 91.7a2.09 2.09 0 00-.56 1.3v5.33l-.08.08z"/><path class="cls-3" d="M102.59 83.84l.63.67-7.47 7.13a2.12 2.12 0 00-.59 1.36v5.33h-.92V93a3.25 3.25 0 01.76-1.88l7.58-7.28m-.1-.11c-.08.07-7.14 6.86-7.59 7.28a3.44 3.44 0 00-.81 2v5.34l.15.15h.92l.15-.15V93a2 2 0 01.54-1.28l7.47-7.13v-.21l-.63-.67z"/><path class="cls-1" d="M108.39 65.1l-.08-.08v-6.34l.08-.08h.92l.08.08v6.34l-.08.08h-.92z"/><path class="cls-3" d="M109.31 58.68V65h-.92v-6.32h.92m0-.15h-.92l-.15.15V65l.15.15h.92l.15-.15v-6.32l-.15-.15z"/><path class="cls-1" d="M108.39 98.44l-.08-.08v-6.34l.08-.08h.92l.08.08v6.34l-.08.08h-.92z"/><path class="cls-3" d="M109.31 92v6.34h-.92V92h.92m0-.15h-.92l-.15.15v6.34l.15.15h.92l.15-.15V92l-.15-.15z"/><path class="cls-1" d="M32.88 70a8.5 8.5 0 108.51 8.5 8.5 8.5 0 00-8.51-8.5zm0 13.18a4.68 4.68 0 114.68-4.68 4.69 4.69 0 01-4.68 4.7zm0-1.49a3.19 3.19 0 113.19-3.19 3.19 3.19 0 01-3.19 3.21z"/><path class="cls-1" d="M8.71 98.44V58.6h48.34v39.84zM52 94.76V62.28H13.74v32.48z"/><path class="cls-3" d="M57 58.68v39.68H8.79V58.68H57M13.66 94.83H52.1V62.21H13.66v32.62m43.47-36.3H8.64v40h48.49v-40zm-43.32 3.83H52v32.32H13.81V62.36z"/><path class="cls-1" d="M46.05 79.06l-.07-.08v-.92l.07-.08h10.93l.07.08v.92l-.07.08H46.05z"/><path class="cls-3" d="M57 78.06V79H46.05v-.92H57m0-.15H46.05l-.15.15V79l.15.15H57l.15-.15v-.92l-.15-.17z"/><path class="cls-1" d="M8.79 79.06l-.08-.08v-.92l.08-.08h10.92l.07.08v.92l-.07.08H8.79z"/><path class="cls-3" d="M19.71 78.06V79H8.79v-.92h10.92m0-.15H8.79l-.15.15V79l.15.15h10.92l.15-.15v-.92l-.15-.15z"/><path class="cls-1" d="M26.57 73.25c-.07-.07-7.14-6.86-7.57-7.25a3.45 3.45 0 01-.8-2v-5.32l.08-.08h.92l.08.08V64a2.09 2.09 0 00.56 1.33l7.47 7.13v.11l-.63.67z"/><path class="cls-3" d="M19.19 58.68V64a2.23 2.23 0 00.59 1.39l7.47 7.13-.63.67s-7.13-6.85-7.62-7.27a3.25 3.25 0 01-.73-1.92v-5.32h.92m0-.15h-.92l-.15.15V64a3.45 3.45 0 00.81 2c.45.42 7.52 7.21 7.59 7.28h.21l.63-.67v-.21l-7.48-7.13a2 2 0 01-.54-1.27v-5.32l-.15-.15z"/><path class="cls-1" d="M39.09 73.25l-.63-.67v-.11l7.47-7.13A2.09 2.09 0 0046.5 64v-5.32l.07-.08h.92l.08.08V64a3.44 3.44 0 01-.79 2c-.45.41-7.51 7.2-7.59 7.27z"/><path class="cls-3" d="M47.49 58.68V64a3.31 3.31 0 01-.76 1.91c-.45.42-7.59 7.28-7.59 7.28l-.63-.67L46 65.4a2.12 2.12 0 00.57-1.4v-5.32h.92m0-.15h-.92l-.15.15V64a2 2 0 01-.54 1.28l-7.47 7.13v.21l.63.67h.22L46.83 66a3.44 3.44 0 00.81-2v-5.32l-.15-.15z"/><path class="cls-1" d="M46.57 98.44l-.07-.08V93a2.09 2.09 0 00-.57-1.33l-7.47-7.13v-.11l.63-.67h.1c.08.07 7.14 6.86 7.59 7.27a3.43 3.43 0 01.79 2v5.34l-.08.08z"/><path class="cls-3" d="M39.14 83.84s7.14 6.86 7.59 7.28a3.31 3.31 0 01.76 1.88v5.33h-.92V93a2.12 2.12 0 00-.57-1.36l-7.47-7.13.63-.67m.11-.11H39l-.63.67v.21l7.47 7.13a2 2 0 01.58 1.26v5.32l.15.15h.92l.15-.15V93a3.45 3.45 0 00-.81-2l-7.58-7.28z"/><path class="cls-1" d="M18.27 98.44l-.08-.08V93a3.45 3.45 0 01.8-2c.44-.41 7.51-7.2 7.58-7.27h.11l.63.67v.11l-7.48 7.19a2.09 2.09 0 00-.56 1.3v5.33l-.08.08z"/><path class="cls-3" d="M26.62 83.84l.63.67-7.47 7.13a2.23 2.23 0 00-.59 1.36v5.33h-.92V93a3.25 3.25 0 01.73-1.88c.45-.42 7.58-7.28 7.58-7.28m-.1-.11c-.07.07-7.14 6.86-7.59 7.28a3.44 3.44 0 00-.81 2v5.34l.15.15h.92l.15-.15V93a2 2 0 01.54-1.28l7.48-7.13v-.21l-.63-.67z"/><path class="cls-1" d="M32.42 65.1l-.08-.08v-6.34l.08-.08h.92l.08.08v6.34l-.08.08h-.92z"/><path class="cls-3" d="M33.34 58.68V65h-.92v-6.32h.92m0-.15h-.92l-.15.15V65l.15.15h.92l.15-.15v-6.32l-.15-.15z"/><path class="cls-1" d="M32.42 98.44l-.08-.08v-6.34l.08-.08h.92l.08.08v6.34l-.08.08h-.92z"/><path class="cls-3" d="M33.34 92v6.34h-.92V92h.92m0-.15h-.92l-.15.15v6.34l.15.15h.92l.15-.15V92l-.15-.15z"/><rect class="cls-1" x="67.08" y="42.02" width="7.57" height="32.6" rx="3.78"/><path class="cls-1" d="M57.68 98.44V18.21h26.37v80.23zm22.82-3.68V21.89H61.23v72.87z"/><path class="cls-3" d="M84 18.28v80.08H57.76V18.28H84M61.16 94.83h19.41v-73H61.16v73m23-76.7H57.61v80.38h26.52V18.13zM61.31 22h19.11v72.68H61.31V22z"/><path class="cls-1" d="M57.76 58.86l-.08-.08v-.92l.08-.08h7.65l.07.08v.92l-.07.08h-7.65z"/><path class="cls-3" d="M65.41 57.86v.92h-7.65v-.92h7.65m0-.15h-7.65l-.15.15v.92l.15.15h7.65l.15-.15v-.92l-.15-.15z"/><path class="cls-1" d="M57.76 78.69l-.08-.07v-.93l.08-.07h7.65l.07.07v.93l-.07.07h-7.65z"/><path class="cls-3" d="M65.41 77.69v.93h-7.65v-.93h7.65m0-.15h-7.65l-.15.15v.93l.15.15h7.65l.15-.15v-.93l-.15-.15z"/><path class="cls-1" d="M76.32 58.86l-.07-.08v-.92l.07-.08h7.66l.07.08v.92l-.07.08h-7.66z"/><path class="cls-3" d="M84 57.86v.92h-7.68v-.92H84m0-.15h-7.68l-.15.15v.92l.15.15H84l.15-.15v-.92l-.15-.15z"/><path class="cls-1" d="M76.32 78.69l-.07-.07v-.93l.07-.07h7.66l.07.07v.93l-.07.07h-7.66z"/><path class="cls-3" d="M84 77.69v.93h-7.68v-.93H84m0-.15h-7.68l-.15.15v.93l.15.15H84l.15-.15v-.93l-.15-.15z"/><path class="cls-1" d="M57.76 39.03l-.08-.08v-.92l.08-.08h7.65l.07.08v.92l-.07.08h-7.65z"/><path class="cls-3" d="M65.41 38v1h-7.65v-1h7.65m0-.15h-7.65l-.15.15v1l.15.15h7.65l.15-.15v-1l-.15-.15z"/><path class="cls-1" d="M57.76 29.06l-.08-.07v-.93l.08-.07h26.22l.07.07v.93l-.07.07H57.76z"/><path class="cls-3" d="M84 28.06V29H57.76v-.93H84m0-.15H57.76l-.15.15V29l.15.15H84l.15-.15v-.93l-.15-.16z"/><path class="cls-1" d="M57.76 88.66l-.08-.08v-.92l.08-.08h26.22l.07.08v.92l-.07.08H57.76z"/><path class="cls-3" d="M84 87.66v.92H57.76v-.92H84m0-.15H57.76l-.15.15v.92l.15.15H84l.15-.15v-.92l-.15-.15z"/><path class="cls-1" d="M76.32 39.03l-.07-.08v-.92l.07-.08h7.66l.07.08v.92l-.07.08h-7.66z"/><path class="cls-3" d="M84 38v1h-7.68v-1H84m0-.15h-7.68l-.15.15v1l.15.15H84l.15-.15v-1l-.15-.12z"/></g></svg>