<svg xmlns="http://www.w3.org/2000/svg" viewBox="0 0 141.73 113.39"><defs><style>.cls-4,.cls-5{fill:none;stroke:#222221;stroke-width:.25px}.cls-4{stroke-linejoin:round}.cls-2{fill:#222221}.cls-3{fill:#fff}.cls-4{stroke-linecap:round}.cls-5{stroke-miterlimit:3.86}</style></defs><g id="Piano"><path stroke-linejoin="round" fill="none" stroke="#222221" stroke-width=".25" d="M6.31 9.21h129.12"/><path class="cls-2" d="M134.92 7.59v95.35c0 1-1.34 2.86-3.79 2.86H10.6c-2.45 0-3.79-1.89-3.79-2.86V7.59h128.11m.5-.5H6.31v95.85c0 1.29 1.59 3.36 4.29 3.36h120.53c2.7 0 4.29-2.07 4.29-3.36V7.09z"/></g><g id="Bruciatori_e_griglie" data-name="Bruciatori e griglie"><circle class="cls-2" cx="29.62" cy="38.13" r="6.38"/><path class="cls-2" d="M9.42 58V18.21h40.4V58zm36.72-3.68V21.89h-33v32.47z"/><path class="cls-3" d="M49.75 18.28V58H9.5V18.28h40.25M13 54.44h33.22V21.81H13v32.63m36.9-36.31H9.35v40H49.9v-40zM13.18 22h32.89v32.29H13.18V22z"/><path class="cls-2" d="M23.31 32.86c-.07-.07-7.14-6.86-7.58-7.27a3.48 3.48 0 01-.8-2v-5.31l.08-.07h.92l.08.07v5.34a2.09 2.09 0 00.56 1.38L24 32.08v.1l-.63.68z"/><path class="cls-3" d="M15.93 18.28v5.34a2.2 2.2 0 00.59 1.38L24 32.13l-.63.67s-7.14-6.8-7.59-7.27a3.25 3.25 0 01-.78-1.91v-5.34h.92m0-.15H15l-.15.15v5.34a3.45 3.45 0 00.81 2c.45.41 7.52 7.2 7.59 7.27h.21l.63-.68V32l-7.48-7.13a2 2 0 01-.54-1.28v-5.31l-.15-.15z"/><path class="cls-2" d="M35.83 32.86l-.63-.68v-.1L42.67 25a2.1 2.1 0 00.57-1.34v-5.38l.07-.07h.92l.08.07v5.34a3.46 3.46 0 01-.79 2c-.44.41-7.51 7.2-7.59 7.27z"/><path class="cls-3" d="M44.23 18.28v5.34a3.31 3.31 0 01-.76 1.91c-.47.47-7.59 7.27-7.59 7.27l-.63-.67L42.72 25a2.09 2.09 0 00.59-1.38v-5.34h.92m0-.15h-.92l-.15.15v5.34a2 2 0 01-.54 1.27L35.15 32v.21l.63.68H36c.07-.07 7.14-6.86 7.58-7.27a3.38 3.38 0 00.81-2v-5.34l-.15-.15z"/><path class="cls-2" d="M43.31 58h-.07v-5.37a2.09 2.09 0 00-.57-1.33l-7.47-7.12v-.11l.63-.67h.1c.08.06 7.15 6.85 7.59 7.27a3.43 3.43 0 01.79 2V58l-.08.07z"/><path class="cls-3" d="M35.88 43.45s7.12 6.85 7.59 7.27a3.33 3.33 0 01.76 1.91V58h-.92v-5.37a2.12 2.12 0 00-.59-1.38l-7.47-7.13.63-.67m.11-.11h-.22l-.63.67v.21l7.47 7.13a2 2 0 01.54 1.28V58l.15.15h.92l.15-.15v-5.37a3.38 3.38 0 00-.81-2c-.44-.41-7.51-7.2-7.58-7.27z"/><path class="cls-2" d="M15 58h-.07v-5.37a3.45 3.45 0 01.8-2l7.58-7.27h.11l.63.67v.11l-7.48 7.16a2.1 2.1 0 00-.57 1.34V58l-.08.07z"/><path class="cls-3" d="M23.36 43.45l.63.67-7.47 7.13a2.22 2.22 0 00-.59 1.38V58H15v-5.37a3.28 3.28 0 01.77-1.91c.45-.42 7.58-7.27 7.58-7.27m-.1-.11c-.07.07-7.14 6.86-7.59 7.27a3.44 3.44 0 00-.81 2V58l.15.15h.92l.15-.15v-5.37a2 2 0 01.54-1.27l7.48-7.13V44l-.63-.67z"/><path class="cls-2" d="M29.16 24.7l-.07-.07v-6.35l.07-.07h.92l.08.07v6.35l-.08.07h-.92z"/><path class="cls-3" d="M30.08 18.28v6.35h-.92v-6.35h.92m0-.15h-.92l-.15.15v6.35l.15.15h.92l.15-.15v-6.35l-.15-.15z"/><path class="cls-2" d="M29.16 58.04l-.07-.07v-6.34l.07-.08h.92l.08.08v6.34l-.08.07h-.92z"/><path class="cls-3" d="M30.08 51.63V58h-.92v-6.37h.92m0-.15h-.92l-.15.15V58l.15.15h.92l.15-.15v-6.37l-.15-.15z"/><path class="cls-2" d="M40.04 38.66l-.07-.07v-.93l.07-.07h9.71l.07.07v.93l-.07.07h-9.71z"/><path class="cls-3" d="M49.75 37.66v.93H40v-.93h9.71m0-.15H40l-.15.15v.93l.15.15h9.71l.15-.15v-.93l-.15-.15z"/><path class="cls-2" d="M9.5 38.66l-.08-.07v-.93l.08-.07h9.7l.07.07v.93l-.07.07H9.5z"/><path class="cls-3" d="M19.2 37.66v.93H9.5v-.93h9.7m0-.15H9.5l-.15.15v.93l.15.15h9.7l.15-.15v-.93l-.15-.15z"/><circle class="cls-2" cx="112.11" cy="38.13" r="6.38"/><path class="cls-2" d="M91.91 58V18.21h40.4V58zm36.72-3.68V21.89h-33v32.47z"/><path class="cls-3" d="M132.24 18.28V58H92V18.28h40.26M95.51 54.44h33.2V21.81h-33.2v32.63m36.88-36.31H91.83v40h40.56v-40zM95.66 22h32.9v32.29h-32.9V22z"/><path class="cls-2" d="M105.8 32.86c-.07-.07-7.14-6.86-7.59-7.27a3.53 3.53 0 01-.79-2v-5.31l.08-.07h.92l.08.07v5.34a2.09 2.09 0 00.56 1.38l7.47 7.13v.1l-.63.68z"/><path class="cls-3" d="M98.42 18.28v5.34A2.09 2.09 0 0099 25l7.47 7.13-.63.67s-7.13-6.8-7.58-7.27a3.31 3.31 0 01-.76-1.91v-5.34h.92m0-.15h-.92l-.15.15v5.34a3.45 3.45 0 00.81 2c.45.41 7.51 7.2 7.59 7.27h.25l.63-.68V32l-7.47-7.13a2 2 0 01-.54-1.28v-5.31l-.15-.15z"/><path class="cls-2" d="M118.32 32.86l-.63-.68v-.1l7.47-7.08a2.1 2.1 0 00.56-1.34v-5.38l.08-.07h.92l.08.07v5.34a3.46 3.46 0 01-.79 2c-.45.41-7.52 7.2-7.59 7.27z"/><path class="cls-3" d="M126.72 18.28v5.34a3.31 3.31 0 01-.76 1.91c-.45.42-7.59 7.27-7.59 7.27l-.63-.67 7.47-7.13a2.09 2.09 0 00.59-1.38v-5.34h.92m0-.15h-.92l-.15.15v5.34a2 2 0 01-.54 1.27L117.64 32v.21l.63.68h.21c.08-.07 7.14-6.86 7.59-7.27a3.44 3.44 0 00.81-2v-5.34l-.15-.15z"/><path class="cls-2" d="M125.8 58l-.08-.07v-5.3a2.09 2.09 0 00-.56-1.33l-7.47-7.12v-.11l.63-.67h.1c.07.06 7.14 6.85 7.59 7.27a3.43 3.43 0 01.79 2V58l-.08.07z"/><path class="cls-3" d="M118.37 43.45s7.14 6.85 7.59 7.27a3.33 3.33 0 01.76 1.91V58h-.92v-5.37a2.12 2.12 0 00-.59-1.38l-7.47-7.13.63-.67m.1-.11h-.21l-.63.67v.21l7.47 7.13a2 2 0 01.54 1.28V58l.15.15h.92l.15-.15v-5.37a3.45 3.45 0 00-.81-2c-.45-.41-7.51-7.2-7.59-7.27z"/><path class="cls-2" d="M97.5 58h-.08v-5.37a3.51 3.51 0 01.79-2c.45-.42 7.52-7.21 7.59-7.27h.1l.63.67v.11l-7.47 7.16a2.1 2.1 0 00-.56 1.34V58l-.08.07z"/><path class="cls-3" d="M105.85 43.45l.63.67L99 51.25a2.12 2.12 0 00-.59 1.38V58h-.91v-5.37a3.33 3.33 0 01.76-1.91c.45-.42 7.59-7.27 7.59-7.27m-.1-.11c-.08.07-7.14 6.86-7.59 7.27a3.44 3.44 0 00-.81 2V58l.15.15h.92l.15-.15v-5.37a2 2 0 01.54-1.27l7.47-7.13V44l-.63-.67z"/><path class="cls-2" d="M111.65 24.7l-.08-.07v-6.35l.08-.07h.92l.08.07v6.35l-.08.07h-.92z"/><path class="cls-3" d="M112.57 18.28v6.35h-.92v-6.35h.92m0-.15h-.92l-.15.15v6.35l.15.15h.92l.15-.15v-6.35l-.15-.15z"/><path class="cls-2" d="M111.65 58.04l-.08-.07v-6.34l.08-.08h.92l.08.08v6.34l-.08.07h-.92z"/><path class="cls-3" d="M112.57 51.63V58h-.92v-6.37h.92m0-.15h-.92l-.15.15V58l.15.15h.92l.15-.15v-6.37l-.15-.15z"/><path class="cls-2" d="M122.53 38.66l-.07-.07v-.93l.07-.07h9.71l.07.07v.93l-.07.07h-9.71z"/><path class="cls-3" d="M132.24 37.66v.93h-9.71v-.93h9.71m0-.15h-9.71l-.15.15v.93l.15.15h9.71l.15-.15v-.93l-.15-.15z"/><path class="cls-2" d="M91.98 38.66l-.07-.07v-.93l.07-.07h9.71l.07.07v.93l-.07.07h-9.71z"/><path class="cls-3" d="M101.69 37.66v.93H92v-.93h9.71m0-.15H92l-.15.15v.93l.15.15h9.71l.15-.15v-.93l-.15-.15z"/><path class="cls-2" d="M29.62 70a8.5 8.5 0 108.51 8.5 8.5 8.5 0 00-8.51-8.5zm0 13.18a4.68 4.68 0 114.68-4.68 4.69 4.69 0 01-4.68 4.7zm0-1.49a3.19 3.19 0 113.19-3.19 3.19 3.19 0 01-3.19 3.21z"/><path class="cls-2" d="M9.42 98.44V58.6h40.4v39.84zm36.72-3.68V62.28h-33v32.48z"/><path class="cls-3" d="M49.75 58.68v39.68H9.5V58.68h40.25M13 94.83h33.22V62.21H13v32.62m36.9-36.3H9.35v40H49.9v-40zm-36.72 3.83h32.89v32.32H13.18V62.36z"/><path class="cls-2" d="M23.31 73.25c-.07-.07-7.14-6.86-7.58-7.27a3.45 3.45 0 01-.8-2v-5.3l.07-.08h.92l.08.08V64a2.09 2.09 0 00.56 1.33L24 72.47v.11l-.63.67z"/><path class="cls-3" d="M15.93 58.68V64a2.23 2.23 0 00.59 1.39L24 72.53l-.63.67s-7.13-6.86-7.58-7.28A3.25 3.25 0 0115 64v-5.32h.92m0-.15H15l-.15.15V64a3.45 3.45 0 00.81 2c.45.42 7.52 7.21 7.59 7.28h.21l.63-.67v-.21l-7.48-7.13a2 2 0 01-.53-1.27v-5.32l-.15-.15z"/><path class="cls-2" d="M35.83 73.25l-.63-.67v-.11l7.47-7.13a2.09 2.09 0 00.57-1.34v-5.32l.07-.08h.92l.08.08V64a3.44 3.44 0 01-.79 2c-.44.41-7.51 7.2-7.59 7.27z"/><path class="cls-3" d="M44.23 58.68V64a3.31 3.31 0 01-.76 1.91c-.45.42-7.59 7.28-7.59 7.28l-.63-.67 7.47-7.13a2.12 2.12 0 00.59-1.39v-5.32h.92m0-.15h-.92l-.15.15V64a2 2 0 01-.54 1.28l-7.47 7.13v.21l.63.67H36L43.57 66a3.38 3.38 0 00.81-2v-5.32l-.15-.15z"/><path class="cls-2" d="M43.31 98.44l-.07-.08V93a2.09 2.09 0 00-.57-1.33l-7.47-7.1v-.11l.63-.67h.1c.08.07 7.15 6.86 7.59 7.27a3.43 3.43 0 01.79 2v5.34l-.08.08z"/><path class="cls-3" d="M35.88 83.84s7.12 6.86 7.59 7.28a3.31 3.31 0 01.76 1.88v5.33h-.92V93a2.12 2.12 0 00-.59-1.39l-7.47-7.13.63-.67m.11-.11h-.22l-.63.67v.21l7.47 7.13a2 2 0 01.55 1.29v5.32l.15.15h.92l.15-.15V93a3.38 3.38 0 00-.81-2L36 83.73z"/><path class="cls-2" d="M15 98.44l-.08-.08V93a3.45 3.45 0 01.8-2c.44-.41 7.51-7.2 7.58-7.27h.11l.63.67v.11l-7.47 7.19A2.09 2.09 0 0016 93v5.33l-.08.08z"/><path class="cls-3" d="M23.36 83.84l.63.67-7.47 7.13a2.23 2.23 0 00-.59 1.36v5.33H15V93a3.25 3.25 0 01.77-1.91c.45-.42 7.58-7.28 7.58-7.28m-.1-.11c-.07.07-7.14 6.86-7.59 7.28a3.44 3.44 0 00-.81 2v5.34l.15.15h.92l.15-.15V93a2 2 0 01.54-1.28l7.48-7.13v-.21l-.63-.67z"/><path class="cls-2" d="M29.16 65.09l-.07-.07v-6.34l.07-.08h.92l.08.08v6.34l-.08.07h-.92z"/><path class="cls-3" d="M30.08 58.68V65h-.92v-6.32h.92m0-.15h-.92l-.15.15V65l.15.15h.92l.15-.15v-6.32l-.15-.15z"/><path class="cls-2" d="M29.16 98.44l-.07-.08v-6.34l.07-.08h.92l.08.08v6.34l-.08.08h-.92z"/><path class="cls-3" d="M30.08 92v6.34h-.92V92h.92m0-.15h-.92L29 92v6.34l.15.15h.92l.15-.15V92l-.15-.15z"/><path class="cls-2" d="M40.04 79.06l-.07-.08v-.92l.07-.08h9.71l.07.08v.92l-.07.08h-9.71z"/><path class="cls-3" d="M49.75 78.06V79H40v-.92h9.71m0-.15H40l-.15.15V79l.15.15h9.71l.19-.15v-.92l-.15-.15z"/><path class="cls-2" d="M9.5 79.06l-.08-.08v-.92l.08-.08h9.7l.07.08v.92l-.07.08H9.5z"/><path class="cls-3" d="M19.2 78.06V79H9.5v-.92h9.7m0-.15H9.5l-.15.15V79l.15.15h9.7l.15-.15v-.92l-.15-.15z"/><circle class="cls-2" cx="112.11" cy="78.52" r="4.25"/><path class="cls-2" d="M91.91 98.44V58.6h40.4v39.84zm36.72-3.68V62.28h-33v32.48z"/><path class="cls-3" d="M132.24 58.68v39.68H92V58.68h40.26M95.51 94.83h33.2V62.21h-33.2v32.62m36.88-36.3H91.83v40h40.56v-40zm-36.73 3.83h32.9v32.32h-32.9V62.36z"/><path class="cls-2" d="M105.8 73.25c-.07-.07-7.14-6.86-7.59-7.27a3.51 3.51 0 01-.79-2v-5.3l.08-.08h.92l.08.08V64a2.09 2.09 0 00.56 1.33l7.47 7.13v.11l-.63.67z"/><path class="cls-3" d="M98.42 58.68V64a2.12 2.12 0 00.58 1.4l7.47 7.13-.63.67s-7.14-6.86-7.59-7.28A3.31 3.31 0 0197.5 64v-5.32h.92m0-.15h-.92l-.15.15V64a3.45 3.45 0 00.81 2c.45.42 7.51 7.21 7.59 7.28h.25l.63-.67v-.21l-7.47-7.13a2 2 0 01-.59-1.27v-5.32l-.15-.15z"/><path class="cls-2" d="M118.32 73.25l-.63-.67v-.11l7.47-7.13a2.09 2.09 0 00.56-1.33v-5.33l.08-.08h.92l.08.08V64a3.44 3.44 0 01-.79 2c-.45.41-7.52 7.2-7.59 7.27z"/><path class="cls-3" d="M126.72 58.68V64a3.31 3.31 0 01-.76 1.91c-.45.42-7.59 7.28-7.59 7.28l-.63-.67 7.47-7.13a2.12 2.12 0 00.59-1.39v-5.32h.92m0-.15h-.92l-.15.15V64a2 2 0 01-.54 1.28l-7.47 7.13v.21l.63.67h.21c.08-.07 7.14-6.86 7.59-7.28a3.44 3.44 0 00.81-2v-5.33l-.15-.15z"/><path class="cls-2" d="M125.8 98.44l-.08-.08V93a2.09 2.09 0 00-.56-1.33l-7.47-7.13v-.11l.63-.67h.1c.07.07 7.14 6.86 7.59 7.27a3.43 3.43 0 01.79 2v5.34l-.08.08z"/><path class="cls-3" d="M118.37 83.84s7.14 6.86 7.59 7.28a3.31 3.31 0 01.76 1.91v5.33h-.92V93a2.12 2.12 0 00-.59-1.39l-7.47-7.13.63-.67m.1-.11h-.21l-.63.67v.21l7.47 7.13a2 2 0 01.54 1.29v5.32l.15.15h.92l.15-.15V93a3.45 3.45 0 00-.81-2c-.45-.42-7.51-7.21-7.59-7.28z"/><path class="cls-2" d="M97.5 98.44l-.08-.08V93a3.51 3.51 0 01.79-2c.45-.41 7.52-7.2 7.59-7.27h.1l.63.67v.11l-7.47 7.19a2.09 2.09 0 00-.56 1.3v5.33l-.08.08z"/><path class="cls-3" d="M105.85 83.84l.63.67L99 91.64a2.12 2.12 0 00-.58 1.36v5.33h-.92V93a3.31 3.31 0 01.76-1.91c.45-.42 7.59-7.28 7.59-7.28m-.1-.11c-.08.07-7.14 6.86-7.59 7.28a3.44 3.44 0 00-.81 2v5.34l.15.15h.92l.15-.15V93a2 2 0 01.54-1.28l7.47-7.13v-.21l-.63-.67z"/><path class="cls-2" d="M111.65 65.09l-.08-.07v-6.34l.08-.08h.92l.08.08v6.34l-.08.07h-.92z"/><path class="cls-3" d="M112.57 58.68V65h-.92v-6.32h.92m0-.15h-.92l-.15.15V65l.15.15h.92l.15-.15v-6.32l-.15-.15z"/><path class="cls-2" d="M111.65 98.44l-.08-.08v-6.34l.08-.08h.92l.08.08v6.34l-.08.08h-.92z"/><path class="cls-3" d="M112.57 92v6.34h-.92V92h.92m0-.15h-.92l-.15.15v6.34l.15.15h.92l.15-.15V92l-.15-.15z"/><path class="cls-2" d="M122.53 79.06l-.07-.08v-.92l.07-.08h9.71l.07.08v.92l-.07.08h-9.71z"/><path class="cls-3" d="M132.24 78.06V79h-9.71v-.92h9.71m0-.15h-9.71l-.15.15V79l.15.15h9.71l.15-.15v-.92l-.15-.15z"/><path class="cls-2" d="M91.98 79.06l-.07-.08v-.92l.07-.08h9.71l.07.08v.92l-.07.08h-9.71z"/><path class="cls-3" d="M101.69 78.06V79H92v-.92h9.71m0-.15H92l-.15.15V79l.15.15h9.71l.15-.15v-.92l-.15-.15z"/><path class="cls-2" d="M91.48 18.78v79.08H50.25V18.78h41.23m.5-.5H49.75v80.08H92V18.28z"/><circle class="cls-4" cx="70.87" cy="36.43" r="15.59"/><circle class="cls-4" cx="70.87" cy="66.76" r="12.76"/><path class="cls-5" d="M49.68 90h42.38m-42.38-7.93h42.38"/><rect class="cls-5" x="67.32" y="92.84" width="7.1" height="2.69" rx=".44"/><path class="cls-2" d="M90.67 19.67v61H51.06v-61h39.61m.25-.25H50.81v61.51h40.11V19.42z"/></g></svg>