<svg xmlns="http://www.w3.org/2000/svg" viewBox="0 0 235.28 153.07"><defs><style>.cls-10,.cls-8,.cls-9{fill:#fff}.cls-13,.cls-2,.cls-6,.cls-7{fill:none}.cls-10,.cls-2,.cls-4,.cls-6,.cls-7,.cls-8,.cls-9{stroke:#222221}.cls-2,.cls-8,.cls-9{stroke-miterlimit:10}.cls-2{stroke-width:.5px}.cls-6{stroke-miterlimit:1.4}.cls-17,.cls-4{fill:#222221}.cls-10,.cls-13,.cls-4,.cls-7{stroke-miterlimit:1.41}.cls-4{stroke-width:.2px}.cls-10,.cls-9{stroke-width:.3px}.cls-13,.cls-6,.cls-7{stroke-width:.25px}.cls-8{stroke-width:.4px}.cls-13{stroke:#20201f}.cls-14,.cls-15{fill:#20201f}.cls-15{font-size:7px;font-family:Fakt-Normal,Fakt}</style></defs><path d="M221.59 146.28h6.1v1.12h-6.1zm-.4-13.05h6.91v13.05h-6.91zm-196.6 13.05h6.1v1.12h-6.1zm-.41-13.05h6.91v13.05h-6.91zM19.84 17.01h212.6v116.22H19.84z" fill="#fff" id="Riempimento"/><g id="Ranges"><path class="cls-2" d="M221.59 146.28h6.1v1.12h-6.1zm-.4-13.05h6.91v13.05h-6.91zm-196.6 13.05h6.1v1.12h-6.1zm-.41-13.05h6.91v13.05h-6.91zM19.84 17.01h212.6v116.22H19.84zm0 8.5h212.6m-212.6 5.67h212.6m-93.47 80.79v-61.8"/><path d="M27.64 133.23V31.18m197.01 102.05V31.18" stroke-miterlimit="1.4" stroke-width=".5" stroke="#222221" fill="none"/><path class="cls-4" d="M224.65 25.51v-3.04h-16.03l4.82 1.15h7.34v1.89h3.87zm-20.04-3.04h.94v3.04h-.94zM67.8 25.54v-3.03h15.55l-4.78 1.15h-7.29v1.88H67.8zm0 .03v-3.06H52.02l4.75 1.17H64v1.89h3.8zm39.5-.05V22.5h15.55l-4.79 1.14h-7.28v1.88h-3.48z"/><path class="cls-4" d="M107.3 25.55V22.5H91.52l4.75 1.16h7.23v1.89h3.8zm78.69-.05v-3.02h15.55l-4.79 1.14h-7.28v1.88h-3.48zm-158.35.11v-3.06h15.43l-4.75 1.16h-7.23v1.9h-3.45zm19.74-3.1h.93v3.06h-.93zm39.76 0h.93v3.06h-.93zm38.84 0h.93v3.06h-.93zm19.98 3.03v-3.06h-15.78l4.75 1.16h7.23v1.9h3.8zm40.03-.04v-3.02h-15.9l4.79 1.14h7.28v1.88h3.83zm-20.56-3.02h.94v3.02h-.94zm-19.47 3.02v-3.02h15.54l-4.78 1.14h-7.28v1.88h-3.48z"/><path class="cls-4" d="M155.13 22.48h22.54v1.15h-22.54z"/><path class="cls-2" d="M27.64 111.97h197.01m-197.01 4.25h197.01m-197.01 2.14h197.01"/><path d="M27.76 46.64h196.77M27.76 48.76h196.77" stroke-width=".3" stroke-miterlimit="1.4" stroke="#222221" fill="none"/><path class="cls-2" d="M27.76 50.17h196.77"/><rect class="cls-2" x="207.79" y="35.24" width="10.94" height="7.3" rx="1.82"/><path class="cls-6" d="M209.27 40.84a.49.49 0 11.48.49.49.49 0 01-.48-.49zm1.79 0a.48.48 0 01.48-.49.49.49 0 010 1 .48.48 0 01-.48-.51zm1.78 0a.49.49 0 11.49.49.49.49 0 01-.49-.49z"/><path class="cls-7" d="M214.63 40.84a.49.49 0 11.49.49.49.49 0 01-.49-.49zm1.79 0a.49.49 0 11.49.49.49.49 0 01-.49-.49z"/><rect class="cls-6" x="210.19" y="36.89" width="5.96" height="1.84" rx=".61"/><circle class="cls-8" cx="36.85" cy="38.89" r="3.09"/><rect class="cls-9" x="37.93" y="38.3" width="3.69" height="1.19" rx=".56"/><circle class="cls-9" cx="36.85" cy="38.89" r="1.79"/><circle class="cls-8" cx="64.28" cy="38.89" r="3.09"/><rect class="cls-9" x="65.36" y="38.3" width="3.69" height="1.19" rx=".56"/><circle class="cls-9" cx="64.28" cy="38.89" r="1.79"/><circle class="cls-8" cx="74.92" cy="38.89" r="3.09"/><rect class="cls-9" x="76" y="38.3" width="3.69" height="1.19" rx=".56"/><circle class="cls-9" cx="74.92" cy="38.89" r="1.79"/><circle class="cls-8" cx="85.55" cy="38.89" r="3.09"/><rect class="cls-9" x="86.63" y="38.3" width="3.69" height="1.19" rx=".56"/><circle class="cls-9" cx="85.55" cy="38.89" r="1.79"/><circle class="cls-8" cx="96.19" cy="38.89" r="3.09"/><rect class="cls-9" x="97.27" y="38.3" width="3.69" height="1.19" rx=".56"/><circle class="cls-9" cx="96.19" cy="38.89" r="1.79"/><circle class="cls-8" cx="106.83" cy="38.89" r="3.09"/><rect class="cls-9" x="107.91" y="38.3" width="3.69" height="1.19" rx=".56"/><circle class="cls-9" cx="106.83" cy="38.89" r="1.79"/><circle class="cls-8" cx="117.47" cy="38.89" r="3.09"/><rect class="cls-9" x="118.54" y="38.3" width="3.69" height="1.19" rx=".56"/><circle class="cls-9" cx="117.47" cy="38.89" r="1.79"/><circle class="cls-8" cx="128.1" cy="38.89" r="3.09"/><rect class="cls-9" x="129.18" y="38.3" width="3.69" height="1.19" rx=".56"/><circle class="cls-9" cx="128.1" cy="38.89" r="1.79"/><circle class="cls-8" cx="162.08" cy="38.89" r="3.09"/><rect class="cls-9" x="163.16" y="38.3" width="3.69" height="1.19" rx=".56"/><circle class="cls-9" cx="162.08" cy="38.89" r="1.79"/><circle class="cls-8" cx="172.73" cy="38.89" r="3.09"/><rect class="cls-9" x="173.81" y="38.3" width="3.69" height="1.19" rx=".56"/><circle class="cls-9" cx="172.73" cy="38.89" r="1.79"/><circle class="cls-8" cx="183.38" cy="38.89" r="3.09"/><rect class="cls-9" x="184.46" y="38.3" width="3.69" height="1.19" rx=".56"/><circle class="cls-9" cx="183.38" cy="38.89" r="1.79"/><circle class="cls-8" cx="194.03" cy="38.89" r="3.09"/><rect class="cls-9" x="195.11" y="38.3" width="3.69" height="1.19" rx=".56"/><circle class="cls-9" cx="194.03" cy="38.89" r="1.79"/><path class="cls-10" d="M37.47 55.4h91.94v2.65H37.47zm-4.76.79h3.15v.94h-3.15z"/><ellipse class="cls-10" cx="32.24" cy="56.61" rx="1.41" ry="1.45"/><path class="cls-10" d="M36.56 56.97h.91v3.04h-.91z"/><rect class="cls-10" x="34.57" y="55" width="3.82" height="3.4" rx=".24"/><path class="cls-10" d="M131.09 56.18h3.15v.94h-3.15z"/><ellipse class="cls-10" cx="134.58" cy="56.6" rx="1.41" ry="1.45"/><ellipse class="cls-10" cx="134.58" cy="56.6" rx="1.41" ry="1.45"/><path class="cls-10" d="M129.52 56.96h.91V60h-.91z"/><rect class="cls-10" x="128.45" y="54.99" width="3.82" height="3.4" rx=".24"/><path class="cls-10" d="M147.67 55.39h67.63v2.62h-67.63zm-3.72.77h3.11v.93h-3.11z"/><ellipse class="cls-10" cx="143.49" cy="56.58" rx="1.4" ry="1.43"/><path class="cls-10" d="M147.76 56.93h.9v3.01h-.9z"/><rect class="cls-10" x="145.79" y="54.98" width="3.78" height="3.37" rx=".24"/><path class="cls-10" d="M216.82 56.16h3.11v.93h-3.11z"/><ellipse class="cls-10" cx="220.28" cy="56.58" rx="1.4" ry="1.43"/><ellipse class="cls-10" cx="220.28" cy="56.58" rx="1.4" ry="1.43"/><path class="cls-10" d="M215.27 56.93h.9v3.01h-.9z"/><rect class="cls-10" x="214.2" y="54.98" width="3.78" height="3.37" rx=".24"/><path d="M45 95.78V72.05c16.17-5 37.35-6 54.2-4.59a97.07 97.07 0 0122.41 4.24v24L45 95.78zm111.64 0l-.08-21.48c12.47-7.11 20.26-8.65 33.26-6.59 6.83 1.09 10.7 2.49 17.28 6.09l.08 21.91-50.54.07z" stroke-miterlimit="3.86" stroke-width=".5" stroke="#222221" fill="none"/></g><g id="Dimensions"><path d="M24.29 147.4H11.34m8.5-14.17h-8.5m8.5-116.22h-8.5m8.5 8.5h-8.5" stroke="#20201f" stroke-width=".25" stroke-miterlimit="1.41" fill="#fff"/><path class="cls-13" d="M14.17 25.78v107.18"/><path class="cls-14" d="M13.15 26.61l.18.17.84-.9.84.9.19-.17-1.03-1.1-1.02 1.1zm0 105.52l.18-.17.84.9.84-.9.19.17-1.03 1.1-1.02-1.1z"/><text class="cls-15" transform="rotate(-90 47.625 37.705)">760</text><text class="cls-15" transform="rotate(-90 11.2 1.28)">60</text><path class="cls-13" d="M14.17 8.5v8.24"/><path class="cls-14" d="M13.15 15.91l.18-.17.84.9.84-.9.19.17-1.03 1.1-1.02-1.1z"/><path class="cls-13" d="M14.17 25.51v-8.5"/><path d="M19.87 17.01V8.5m212.6 8.51V8.5" stroke-width=".25" stroke-miterlimit="1.41" stroke="#222221" fill="#fff"/><path class="cls-7" d="M232.19 11.34H20.14"/><path class="cls-17" d="M231.37 10.32l-.17.18.9.84-.9.84.17.18 1.1-1.02-1.1-1.02zm-210.4 0l.17.18-.9.84.9.84-.17.18-1.1-1.02 1.1-1.02z"/><text transform="translate(118.22 7.06)" font-size="7" font-family="Fakt-Normal,Fakt" fill="#222221">1500</text><path class="cls-13" d="M14.17 133.23v14.17"/><text class="cls-15" transform="rotate(-90 81.495 71.575)">100รท160</text><path class="cls-7" d="M14.17 147.67v5.4"/><path class="cls-17" d="M13.15 148.5l.18.17.84-.9.84.9.19-.17-1.03-1.1-1.02 1.1z"/></g></svg>