<svg width="40" height="40" fill="none" xmlns="http://www.w3.org/2000/svg"><path d="M20.003 35.068c-4.1 0-4.583-.021-6.183-.091a10.971 10.971 0 01-3.642-.75 7.698 7.698 0 01-4.383-4.385 10.985 10.985 0 01-.699-3.645c-.093-1.597-.093-2.12-.093-6.189 0-4.111.022-4.591.093-6.183a10.97 10.97 0 01.699-3.64 7.683 7.683 0 014.388-4.387 10.888 10.888 0 013.64-.7c1.592-.09 2.115-.09 6.18-.09 4.133 0 4.608.022 6.183.09 1.248.024 2.482.26 3.65.7a7.692 7.692 0 014.389 4.387c.445 1.182.682 2.432.701 3.695.094 1.597.094 2.118.094 6.185s-.024 4.6-.094 6.178a11.004 11.004 0 01-.7 3.649 7.707 7.707 0 01-4.39 4.386 11.02 11.02 0 01-3.643.699c-1.592.091-2.113.091-6.19.091zm-.057-27.421c-4.076 0-4.5.02-6.091.091a8.315 8.315 0 00-2.782.519 4.982 4.982 0 00-2.865 2.853 8.358 8.358 0 00-.518 2.812c-.09 1.615-.09 2.038-.09 6.086 0 4 .015 4.485.089 6.09.015.95.19 1.892.518 2.784a4.985 4.985 0 002.865 2.851c.89.333 1.831.508 2.782.519 1.613.093 2.038.093 6.091.093 4.089 0 4.512-.02 6.09-.093a8.272 8.272 0 002.784-.519 5 5 0 002.85-2.848 8.404 8.404 0 00.518-2.813h.018c.072-1.594.072-2.019.072-6.09 0-4.072-.018-4.5-.09-6.092a8.426 8.426 0 00-.518-2.78 5 5 0 00-2.85-2.853 8.238 8.238 0 00-2.784-.519c-1.611-.091-2.033-.091-6.09-.091zm.057 20.06a7.705 7.705 0 117.7-7.707 7.715 7.715 0 01-7.7 7.707zm0-12.71a5 5 0 105 5 5.012 5.012 0 00-5-5zm8-1.189a1.797 1.797 0 11.013-3.593 1.797 1.797 0 01-.013 3.593z" fill="#fff"/></svg>