<svg width="96" height="96" fill="none" xmlns="http://www.w3.org/2000/svg"><rect width="96" height="96" rx="21" fill="#000"/><path d="M73.31 25.746a17.697 17.697 0 01-1.531-.891 21.532 21.532 0 01-3.932-3.341c-2.933-3.356-4.028-6.76-4.432-9.143h.016c-.337-1.979-.197-3.259-.176-3.259H49.897v51.65c0 .694 0 1.38-.029 2.056 0 .085-.008.163-.013.253 0 .038 0 .076-.008.115v.03a11.343 11.343 0 01-5.706 9.002 11.147 11.147 0 01-5.527 1.458c-6.223 0-11.267-5.075-11.267-11.342s5.044-11.342 11.267-11.342a11.166 11.166 0 013.469.55l.016-13.6a24.814 24.814 0 00-19.119 5.592 26.214 26.214 0 00-5.72 7.053c-.563.972-2.69 4.879-2.948 11.219-.162 3.598.919 7.327 1.434 8.867v.033c.324.907 1.58 4.003 3.626 6.614a27.143 27.143 0 005.786 5.458v-.032l.032.032c6.467 4.394 13.636 4.106 13.636 4.106 1.241-.05 5.399 0 10.12-2.238 5.237-2.48 8.218-6.176 8.218-6.176a25.674 25.674 0 004.479-7.442c1.208-3.177 1.612-6.988 1.612-8.51V35.114c.162.098 2.32 1.525 2.32 1.525s3.11 1.993 7.96 3.29c3.48.924 8.17 1.119 8.17 1.119v-13.26c-1.644.178-4.98-.34-8.395-2.043z" fill="#fff"/></svg>