<svg xmlns="http://www.w3.org/2000/svg" viewBox="0 0 155.91 99.21"><defs><style>.cls-2,.cls-5{fill:none;stroke:#222221;stroke-width:.25px}.cls-2{stroke-linecap:round}.cls-4{stroke-linejoin:bevel}.cls-2{stroke-linejoin:round}.cls-3,.cls-4{fill:#222221}.cls-4{stroke:#fff;stroke-width:.15px}.cls-5{stroke-miterlimit:3.86}</style></defs><g id="Piano"><path stroke-linejoin="bevel" stroke-linecap="round" fill="none" stroke="#222221" stroke-width=".25" d="M7.09 7.09h141.73v85.04H7.09z"/><path class="cls-2" d="M9.31 10.03h137.42v79.94H9.31zm-2.22-.72h141.73m-139.51.78l-.58-.78m138.01.78l.57-.78M7.09 92.13l2.22-2.23m139.51 2.23l-2.08-2.23"/></g><g id="Bruciatori"><circle class="cls-3" cx="122.88" cy="69.84" r="4.25"/><path class="cls-4" d="M137.41 50H99.57v39.68h46.63V50zm4 18.76a.49.49 0 01-.3.25l-1.45.14c-.19 0-3.19.06-3.19.06a.37.37 0 00-.29.34v.58a.37.37 0 00.29.33s3 0 3.19.06 1.26.12 1.45.15a.49.49 0 01.3.25V86h-4v-2a2.13 2.13 0 00-.67-1.51L127.66 74a.55.55 0 00-.77 0 .54.54 0 000 .77l8.9 8.23a1.24 1.24 0 01.38.88v2H124s-.22-.11-.25-.29-.12-1.25-.15-1.44-.06-.81-.06-.81a.37.37 0 00-.33-.29h-.59a.37.37 0 00-.34.29s0 .62-.06.81-.12 1.25-.15 1.44-.25.29-.25.29h-12.25V84a1.28 1.28 0 01.38-.88c.26-.23 8.9-8.23 8.9-8.23a.55.55 0 000-.77.56.56 0 00-.78 0L109 82.44a2.22 2.22 0 00-.67 1.51v2h-3.94V70.92a.46.46 0 01.29-.25c.19 0 1.26-.12 1.45-.15s3.19-.06 3.19-.06a.38.38 0 00.3-.33v-.58a.38.38 0 00-.3-.34s-3 0-3.19-.06L104.7 69a.46.46 0 01-.29-.25V53.7h3.94v2a2.22 2.22 0 00.67 1.5l9.08 8.4a.54.54 0 10.75-.79L110 56.6a1.24 1.24 0 01-.38-.87v-2h12.22s.23.1.25.29l.15 1.44c.02.19.06.81.06.81a.37.37 0 00.34.29h.59a.37.37 0 00.33-.29s0-.63.06-.81.13-1.25.15-1.44a.46.46 0 01.25-.29h12.22v2a1.2 1.2 0 01-.38.87l-8.9 8.24a.54.54 0 00.75.79l9.08-8.4a2.13 2.13 0 00.67-1.5v-2h4z"/><path class="cls-3" d="M33 61.33a8.51 8.51 0 108.51 8.51A8.51 8.51 0 0033 61.33zm0 13.19a4.68 4.68 0 114.68-4.68A4.68 4.68 0 0133 74.52zM33 73a3.19 3.19 0 113.19-3.19A3.19 3.19 0 0133 73z"/><path class="cls-4" d="M47.55 50H9.71v39.68h46.63V50zm4 18.76a.49.49 0 01-.3.25l-1.45.14c-.18 0-3.19.06-3.19.06a.37.37 0 00-.29.34v.58a.37.37 0 00.29.33s3 0 3.19.06 1.27.12 1.45.15a.49.49 0 01.3.25V86h-4v-2a2.13 2.13 0 00-.67-1.51L37.8 74a.55.55 0 00-.77 0 .54.54 0 000 .77s8.65 8 8.91 8.23a1.27 1.27 0 01.37.88v2H34.12s-.23-.11-.26-.29-.12-1.25-.14-1.44-.07-.81-.07-.81a.37.37 0 00-.33-.29h-.59a.37.37 0 00-.34.29s0 .62-.06.81-.12 1.25-.15 1.44-.25.29-.25.29H19.71V84a1.33 1.33 0 01.38-.88c.26-.23 8.9-8.23 8.9-8.23a.54.54 0 000-.77.56.56 0 00-.78 0l-9.08 8.4A2.16 2.16 0 0018.5 84v2h-3.95V70.92s.11-.22.29-.25 1.26-.12 1.45-.15 3.19-.06 3.19-.06a.38.38 0 00.3-.33v-.58a.38.38 0 00-.3-.34s-3 0-3.19-.06L14.84 69c-.18 0-.29-.25-.29-.25V53.7h3.95v2a2.16 2.16 0 00.66 1.5l9.08 8.4a.55.55 0 00.78 0 .54.54 0 000-.77l-8.9-8.24a1.28 1.28 0 01-.38-.87v-2h12.19s.23.1.25.29l.15 1.44c.02.19.06.81.06.81a.37.37 0 00.34.29h.59a.37.37 0 00.33-.29s.05-.63.07-.81.12-1.25.14-1.44.26-.29.26-.29h12.21v2a1.23 1.23 0 01-.37.87l-8.91 8.24a.54.54 0 10.75.79l9.08-8.4a2.13 2.13 0 00.67-1.5v-2h4z"/><ellipse class="cls-3" cx="33.02" cy="30.15" rx="6.38" ry="6.31"/><path class="cls-4" d="M47.55 10.31H9.71V50h46.63V10.31zm4 18.76s-.11.23-.3.25l-1.45.15c-.19.02-3.19.06-3.19.06a.37.37 0 00-.29.33v.58a.37.37 0 00.29.34s3 0 3.19.06 1.2.16 1.4.16.3.25.3.25v15.04h-4v-2a2.13 2.13 0 00-.67-1.5l-9.08-8.4a.54.54 0 10-.75.79l9 8.21a1.26 1.26 0 01.37.87v2H34.12s-.23-.1-.26-.29-.12-1.25-.14-1.43-.07-.81-.07-.81a.38.38 0 00-.33-.3h-.59a.38.38 0 00-.34.3s0 .62-.06.81-.12 1.24-.15 1.43-.25.29-.25.29H19.71v-2a1.32 1.32 0 01.38-.87L29 35.15a.54.54 0 000-.77.55.55 0 00-.78 0l-9.08 8.4a2.16 2.16 0 00-.66 1.5v2h-3.93v-15s.11-.23.29-.25 1.26-.13 1.45-.15 3.19-.06 3.19-.06a.38.38 0 00.3-.34v-.58a.38.38 0 00-.3-.33s-3 0-3.19-.06-1.26-.12-1.45-.15-.29-.25-.29-.25V14h3.95v2a2.16 2.16 0 00.66 1.5l9.08 8.5a.55.55 0 00.78 0 .54.54 0 000-.77L20.12 17a1.32 1.32 0 01-.38-.87V14h12.19s.23.11.25.3l.15 1.43c.02.19.06.81.06.81a.36.36 0 00.34.29h.59a.36.36 0 00.33-.29s.05-.62.07-.81.12-1.25.14-1.43.26-.3.26-.3h12.21v2a1.26 1.26 0 01-.37.87l-8.91 8.23a.55.55 0 00.75.8l9.08-8.4a2.13 2.13 0 00.67-1.5v-2h4z"/><ellipse class="cls-3" cx="122.88" cy="30.15" rx="6.38" ry="6.31"/><path class="cls-4" d="M137.41 10.31H99.57V50h46.63V10.31zm4 18.76s-.11.23-.3.25l-1.45.15c-.19.02-3.19.06-3.19.06a.37.37 0 00-.29.33v.58a.37.37 0 00.29.34s3 0 3.19.06 1.26.12 1.45.15.3.25.3.25v15.05h-4v-2a2.13 2.13 0 00-.67-1.5l-9.08-8.4a.54.54 0 00-.75.79l8.9 8.24a1.23 1.23 0 01.38.87v2H124a.46.46 0 01-.25-.29c0-.19-.12-1.25-.15-1.43s-.06-.81-.06-.81a.38.38 0 00-.33-.3h-.59a.38.38 0 00-.34.3s0 .62-.06.81-.12 1.24-.15 1.43-.25.29-.25.29h-12.25v-2a1.28 1.28 0 01.38-.87l8.9-8.24a.54.54 0 10-.75-.79l-9.1 8.37a2.22 2.22 0 00-.67 1.5v2h-3.94v-15s.1-.23.29-.25l1.45-.15c.19-.02 3.19-.06 3.19-.06a.38.38 0 00.3-.34v-.58a.38.38 0 00-.3-.33s-3 0-3.19-.06-1.26-.12-1.45-.15-.29-.25-.29-.25V14h3.94v2a2.22 2.22 0 00.67 1.5l9.1 8.5a.55.55 0 10.75-.8L110 16.92a1.28 1.28 0 01-.38-.87V14h12.22s.23.11.25.3l.15 1.43c.02.19.06.81.06.81a.36.36 0 00.34.29h.59a.36.36 0 00.33-.29s0-.62.06-.81.13-1.25.15-1.43a.49.49 0 01.23-.3h12.22v2a1.23 1.23 0 01-.38.87l-8.9 8.23a.55.55 0 00.75.8l9.08-8.4a2.13 2.13 0 00.67-1.5v-2h4z"/><path class="cls-3" d="M98.57 10.81v78.37H57.33V10.81h41.24m.5-.5H56.83v79.37h42.24V10.31z"/><circle class="cls-2" cx="77.95" cy="27.32" r="15.59"/><circle class="cls-2" cx="77.95" cy="57.65" r="12.76"/><path class="cls-5" d="M56.83 80.9h42.24m-42.24-7.94h42.24"/><rect class="cls-5" x="74.4" y="83.73" width="7.1" height="2.69" rx=".44"/><path class="cls-3" d="M97.76 10.56v61H58.15v-61h39.61m.25-.25H57.9v61.51H98V10.31z"/></g></svg>