<svg xmlns="http://www.w3.org/2000/svg" viewBox="0 0 164.41 153.07"><defs><style>.cls-7,.cls-8,.cls-9{fill:#fff}.cls-12,.cls-2,.cls-5,.cls-6{fill:none}.cls-2,.cls-5,.cls-6,.cls-7,.cls-8,.cls-9{stroke:#222221}.cls-2,.cls-7,.cls-8{stroke-miterlimit:10}.cls-2{stroke-width:.5px}.cls-15{fill:#222221}.cls-12,.cls-6,.cls-9{stroke-miterlimit:1.41}.cls-5{stroke-miterlimit:1.4}.cls-8,.cls-9{stroke-width:.3px}.cls-12,.cls-5,.cls-6{stroke-width:.25px}.cls-7{stroke-width:.4px}.cls-12{stroke:#20201f}.cls-13{fill:#20201f}.cls-16{font-size:7px;font-family:Fakt-Normal,Fakt;fill:#212220}</style></defs><path fill="#fff" d="M19.73 17.05v116.22h4.25v13.05h.4v1.12h6.1v-1.12h.41v-13.05h119.4v13.05h.41v1.12h6.1v-1.12h.41v-13.05h4.25V17.05H19.73z" id="Riempimento"/><g id="Ranges"><path class="cls-2" d="M150.74 146.28h6.1v1.12h-6.1zm-.4-13.05h6.91v13.05h-6.91zM24.42 146.28h6.1v1.12h-6.1zm-.4-13.05h6.91v13.05h-6.91zM19.77 17.01H161.5v116.22H19.77zm0 8.5H161.5M19.77 31.18H161.5"/><path d="M69.75 25.38v-3.16h16.22l-4.99 1.2h-7.6v1.96h-3.63zm83.22.03v-3.15h-16.58l4.99 1.2h7.6v1.95h3.99zm-21.44-3.19h.98v3.15h-.98zm-61.78 3.19v-3.19H53.3l4.95 1.21h7.54v1.98h3.96zm-41.88.04v-3.19h16.09l-4.95 1.21h-7.54v1.98h-3.6zm20.58-3.23h.97v3.19h-.97zm62.77 3.16v-3.16h16.22l-4.99 1.2h-7.6v1.96h-3.63zm0 .03v-3.19H94.77l4.95 1.21h7.54v1.98h3.96zm-21.3-3.19h.97v3.19h-.97z" stroke-width=".2" stroke-miterlimit="1.41" fill="#222221" stroke="#222221"/><path class="cls-2" d="M19.73 111.97H161.5m-141.77 4.25H161.5m-141.77 2.14H161.5"/><path d="M19.81 46.64h141.61M19.81 48.76h141.61" stroke-width=".3" stroke-miterlimit="1.4" stroke="#222221" fill="none"/><path class="cls-2" d="M19.81 50.17h141.61"/><rect class="cls-2" x="25.73" y="35.24" width="10.94" height="7.3" rx="1.82"/><path class="cls-5" d="M27.2 40.84a.49.49 0 11.49.49.49.49 0 01-.49-.49zm1.8 0a.49.49 0 11.49.49.49.49 0 01-.49-.49zm1.78 0a.49.49 0 11.49.49.49.49 0 01-.49-.49z"/><path class="cls-6" d="M32.57 40.84a.49.49 0 11.49.49.49.49 0 01-.49-.49zm1.79 0a.49.49 0 01.49-.49.49.49 0 010 1 .49.49 0 01-.49-.51z"/><rect class="cls-5" x="28.12" y="36.89" width="5.96" height="1.84" rx=".61"/><circle class="cls-7" cx="44.25" cy="38.89" r="3.09"/><rect class="cls-8" x="45.33" y="38.3" width="3.69" height="1.19" rx=".56"/><circle class="cls-8" cx="44.25" cy="38.89" r="1.79"/><circle class="cls-7" cx="54.9" cy="38.89" r="3.09"/><rect class="cls-8" x="55.98" y="38.3" width="3.69" height="1.19" rx=".56"/><circle class="cls-8" cx="54.9" cy="38.89" r="1.79"/><circle class="cls-7" cx="65.55" cy="38.89" r="3.09"/><rect class="cls-8" x="66.63" y="38.3" width="3.69" height="1.19" rx=".56"/><circle class="cls-8" cx="65.55" cy="38.89" r="1.79"/><circle class="cls-7" cx="76.2" cy="38.89" r="3.09"/><rect class="cls-8" x="77.28" y="38.3" width="3.69" height="1.19" rx=".56"/><circle class="cls-8" cx="76.2" cy="38.89" r="1.79"/><circle class="cls-7" cx="86.86" cy="38.89" r="3.09"/><rect class="cls-8" x="87.93" y="38.3" width="3.69" height="1.19" rx=".56"/><circle class="cls-8" cx="86.86" cy="38.89" r="1.79"/><circle class="cls-7" cx="97.51" cy="38.89" r="3.09"/><rect class="cls-8" x="98.59" y="38.3" width="3.69" height="1.19" rx=".56"/><circle class="cls-8" cx="97.51" cy="38.89" r="1.79"/><circle class="cls-7" cx="108.16" cy="38.89" r="3.09"/><rect class="cls-8" x="109.24" y="38.3" width="3.69" height="1.19" rx=".56"/><circle class="cls-8" cx="108.16" cy="38.89" r="1.79"/><circle class="cls-7" cx="118.81" cy="38.89" r="3.09"/><rect class="cls-8" x="119.89" y="38.3" width="3.69" height="1.19" rx=".56"/><circle class="cls-8" cx="118.81" cy="38.89" r="1.79"/><circle class="cls-7" cx="137.19" cy="38.89" r="3.09"/><rect class="cls-8" x="138.27" y="38.3" width="3.69" height="1.19" rx=".56"/><circle class="cls-8" cx="137.19" cy="38.89" r="1.79"/><circle class="cls-7" cx="147.9" cy="38.89" r="3.09"/><rect class="cls-8" x="148.98" y="38.3" width="3.69" height="1.19" rx=".56"/><circle class="cls-8" cx="147.9" cy="38.89" r="1.79"/><path class="cls-2" d="M104.93 111.97V50.16"/><path class="cls-9" d="M29.36 55.39h66.2v2.65h-66.2zm-4.76.78h3.15v.94H24.6z"/><ellipse class="cls-9" cx="24.14" cy="56.59" rx="1.41" ry="1.45"/><path class="cls-9" d="M28.45 56.95h.91v3.04h-.91z"/><rect class="cls-9" x="26.46" y="54.98" width="3.82" height="3.4" rx=".24"/><path class="cls-9" d="M97.31 56.16h3.15v.94h-3.15z"/><ellipse class="cls-9" cx="100.8" cy="56.59" rx="1.41" ry="1.45"/><ellipse class="cls-9" cx="100.8" cy="56.59" rx="1.41" ry="1.45"/><path class="cls-9" d="M95.74 56.95h.91v3.04h-.91z"/><rect class="cls-9" x="94.66" y="54.97" width="3.82" height="3.4" rx=".24"/><path class="cls-9" d="M113.77 55.5h38.16v2.62h-38.16zm-3.72.78h3.11v.93h-3.11z"/><ellipse class="cls-9" cx="109.59" cy="56.7" rx="1.4" ry="1.43"/><path class="cls-9" d="M113.85 57.05h.9v3.01h-.9z"/><rect class="cls-9" x="111.88" y="55.1" width="3.78" height="3.37" rx=".24"/><path class="cls-9" d="M153.48 56.28h3.11v.93h-3.11z"/><ellipse class="cls-9" cx="156.94" cy="56.7" rx="1.4" ry="1.43"/><ellipse class="cls-9" cx="156.94" cy="56.7" rx="1.4" ry="1.43"/><path class="cls-9" d="M151.93 57.05h.9v3.01h-.9z"/><rect class="cls-9" x="150.86" y="55.1" width="3.78" height="3.37" rx=".24"/><path d="M35.49 95.78v-23.9c13.39-4.1 21.31-5 35.26-3.8a81.47 81.47 0 0118.55 3.51v24.15H35.49zm82.61 0v-23.9c6.69-4.1 10.87-5 17.84-3.8a23.76 23.76 0 019.27 3.51v24.15H118.1z" stroke-miterlimit="3.86" stroke-width=".5" stroke="#222221" fill="none"/></g><g id="Dimensions"><path d="M24.29 147.4H11.34m8.5-14.17h-8.5m8.5-116.22h-8.5m8.5 8.5h-8.5" stroke="#20201f" stroke-width=".25" stroke-miterlimit="1.41" fill="#fff"/><path class="cls-12" d="M14.17 25.78v107.18"/><path class="cls-13" d="M13.15 26.61l.18.17.84-.9.84.9.19-.17-1.03-1.1-1.02 1.1zm0 105.52l.18-.17.84.9.84-.9.19.17-1.03 1.1-1.02-1.1z"/><path class="cls-12" d="M14.17 133.23v14.17m0-138.9v8.24"/><path class="cls-13" d="M13.15 15.91l.18-.17.84.9.84-.9.19.17-1.03 1.1-1.02-1.1z"/><path class="cls-12" d="M14.17 25.51v-8.5"/><path d="M19.77 17.01V8.5m141.73 8.51V8.5" stroke-width=".25" stroke-miterlimit="1.41" stroke="#222221" fill="#fff"/><path class="cls-6" d="M161.19 11.34H20.04"/><path class="cls-15" d="M160.36 10.32l-.17.18.9.84-.9.84.17.18 1.1-1.02-1.1-1.02zm-139.49 0l.17.18-.9.84.9.84-.17.18-1.1-1.02 1.1-1.02z"/><path class="cls-6" d="M14.17 147.67v5.4"/><path class="cls-15" d="M13.15 148.5l.18.17.84-.9.84.9.19-.17-1.03-1.1-1.02 1.1z"/><text class="cls-16" transform="rotate(-90 80.495 70.575)">3</text><text class="cls-16" transform="matrix(0 -.58 .58 0 7.59 145.55)"><tspan letter-spacing="0">15/16”</tspan></text><text class="cls-16" transform="rotate(-90 71.075 61.155)">√ 6</text><text class="cls-16" transform="matrix(0 -.58 .58 0 7.59 121.06)">19/64”</text><text transform="translate(82.66 7.06)" fill="#232422" font-size="7" font-family="Fakt-Normal,Fakt">39</text><text transform="matrix(.58 0 0 .58 92.15 4.73)" letter-spacing="0" fill="#232422" font-size="7" font-family="Fakt-Normal,Fakt">3/8”</text><text class="cls-16" transform="rotate(-90 47.365 38.325)">29</text><text class="cls-16" transform="matrix(0 -.58 .58 0 6.71 76.2)">17/32”</text><text class="cls-16" transform="rotate(-90 14.435 5.395)">2</text><text transform="matrix(0 -.58 .58 0 6.71 14.32)" letter-spacing="0" fill="#212220" font-size="7" font-family="Fakt-Normal,Fakt">23/64”</text></g></svg>