<svg xmlns="http://www.w3.org/2000/svg" viewBox="0 0 150.24 153.07"><defs><style>.cls-7,.cls-8,.cls-9{fill:#fff}.cls-12,.cls-2,.cls-5,.cls-6{fill:none}.cls-2,.cls-3,.cls-5,.cls-6,.cls-7,.cls-8,.cls-9{stroke:#222221}.cls-2,.cls-7,.cls-8{stroke-miterlimit:10}.cls-2{stroke-width:.5px}.cls-16,.cls-3{fill:#222221}.cls-12,.cls-3,.cls-6,.cls-9{stroke-miterlimit:1.41}.cls-3{stroke-width:.2px}.cls-5{stroke-miterlimit:1.4}.cls-8,.cls-9{stroke-width:.3px}.cls-12,.cls-5,.cls-6{stroke-width:.25px}.cls-7{stroke-width:.4px}.cls-12{stroke:#20201f}.cls-13,.cls-14{fill:#20201f}.cls-14{font-size:7px;font-family:Fakt-Normal,Fakt}</style></defs><path fill="#fff" d="M19.82 17.01v116.22h4.11v13.05h.4v1.12h6.1v-1.12h.41v-13.05h105.51v13.05h.41v1.12h6.1v-1.12h.4v-13.05h4.12V17.01H19.82z" id="Riempimento"/><g id="Ranges"><path class="cls-2" d="M136.76 146.28h6.1v1.12h-6.1zm-.41-13.05h6.91v13.05h-6.91zM24.33 146.28h6.1v1.12h-6.1zm-.4-13.05h6.91v13.05h-6.91zM19.82 17.01h127.56v116.22H19.82zm0 8.5h127.56M27.61 31.18h111.97m0 102.05V25.51M27.61 133.23V25.51"/><path class="cls-3" d="M65.33 25.57v-2.79h14.33l-4.41 1.06h-6.72v1.73h-3.2zm73.57.04v-2.79h-14.66l4.41 1.06h6.72v1.73h3.53zm-18.96-2.83h.86v2.79h-.86z"/><path class="cls-3" d="M65.33 25.61v-2.83H50.78l4.38 1.08h6.66v1.75h3.51zm-37.04.03v-2.82h14.23l-4.38 1.07h-6.66v1.75h-3.19zm18.2-2.86h.86v2.82h-.86zm55.5 2.79v-2.79h14.34l-4.42 1.06h-6.71v1.73h-3.21zm0 .04v-2.83H87.44l4.38 1.08h6.66v1.75h3.51zm-18.83-2.83h.86v2.82h-.86z"/><path class="cls-2" d="M27.61 111.97h111.97m-111.97 4.25h111.97m-111.97 2.14h111.97"/><path d="M27.68 46.64h111.83M27.68 48.76h111.83" stroke-width=".3" stroke-miterlimit="1.4" stroke="#222221" fill="none"/><path class="cls-2" d="M27.68 50.17h111.83"/><rect class="cls-2" x="34.37" y="35.24" width="10.94" height="7.3" rx="1.82"/><path class="cls-5" d="M35.85 40.84a.48.48 0 01.48-.49.49.49 0 110 1 .48.48 0 01-.48-.51zm1.78 0a.49.49 0 11.49.49.49.49 0 01-.49-.49zm1.79 0a.49.49 0 11.49.49.49.49 0 01-.49-.49z"/><path class="cls-6" d="M41.21 40.84a.49.49 0 11.49.49.49.49 0 01-.49-.49zm1.79 0a.49.49 0 01.49-.49.49.49 0 010 1 .49.49 0 01-.49-.51z"/><rect class="cls-5" x="36.77" y="36.89" width="5.96" height="1.84" rx=".61"/><circle class="cls-7" cx="57.1" cy="38.86" r="3.09"/><rect class="cls-8" x="58.18" y="38.26" width="3.69" height="1.19" rx=".56"/><circle class="cls-8" cx="57.1" cy="38.86" r="1.79"/><circle class="cls-7" cx="69.17" cy="38.86" r="3.09"/><rect class="cls-8" x="70.25" y="38.26" width="3.69" height="1.19" rx=".56"/><circle class="cls-8" cx="69.17" cy="38.86" r="1.79"/><circle class="cls-7" cx="81.24" cy="38.86" r="3.09"/><rect class="cls-8" x="82.32" y="38.26" width="3.69" height="1.19" rx=".56"/><circle class="cls-8" cx="81.24" cy="38.86" r="1.79"/><circle class="cls-7" cx="93.31" cy="38.86" r="3.09"/><rect class="cls-8" x="94.39" y="38.26" width="3.69" height="1.19" rx=".56"/><circle class="cls-8" cx="93.31" cy="38.86" r="1.79"/><circle class="cls-7" cx="105.38" cy="38.86" r="3.09"/><rect class="cls-8" x="106.46" y="38.26" width="3.69" height="1.19" rx=".56"/><circle class="cls-8" cx="105.38" cy="38.86" r="1.79"/><circle class="cls-7" cx="117.44" cy="38.86" r="3.09"/><rect class="cls-8" x="118.52" y="38.26" width="3.69" height="1.19" rx=".56"/><circle class="cls-8" cx="117.44" cy="38.86" r="1.79"/><circle class="cls-7" cx="129.51" cy="38.86" r="3.09"/><rect class="cls-8" x="130.59" y="38.26" width="3.69" height="1.19" rx=".56"/><circle class="cls-8" cx="129.51" cy="38.86" r="1.79"/><path class="cls-9" d="M51.08 55.63h65.22v2.65H51.08zm-4.76.78h3.15v.94h-3.15z"/><ellipse class="cls-9" cx="45.85" cy="56.84" rx="1.41" ry="1.45"/><path class="cls-9" d="M50.17 57.2h.91v3.04h-.91z"/><rect class="cls-9" x="48.17" y="55.22" width="3.82" height="3.4" rx=".24"/><path class="cls-9" d="M117.71 56.41h3.15v.94h-3.15z"/><ellipse class="cls-9" cx="121.2" cy="56.84" rx="1.41" ry="1.45"/><ellipse class="cls-9" cx="121.2" cy="56.84" rx="1.41" ry="1.45"/><path class="cls-9" d="M116.14 57.2h.91v3.04h-.91z"/><rect class="cls-9" x="115.06" y="55.22" width="3.82" height="3.4" rx=".24"/><path d="M44.54 95.77l.24-23.87a161.58 161.58 0 0138.34-4.08 161.54 161.54 0 0139.63 4.08l-.24 23.87z" stroke-miterlimit="3.86" stroke-width=".5" stroke="#222221" fill="none"/></g><g id="Dimensions"><path d="M24.29 147.4H11.34m8.5-14.17h-8.5m8.5-116.22h-8.5m8.5 8.5h-8.5" stroke="#20201f" stroke-width=".25" stroke-miterlimit="1.41" fill="#fff"/><path class="cls-12" d="M14.17 25.78v107.18"/><path class="cls-13" d="M13.15 26.61l.18.17.84-.9.84.9.19-.17-1.03-1.1-1.02 1.1zm0 105.52l.18-.17.84.9.84-.9.19.17-1.03 1.1-1.02-1.1z"/><text class="cls-14" transform="rotate(-90 47.625 37.705)">760</text><text class="cls-14" transform="rotate(-90 11.2 1.28)">60</text><path class="cls-12" d="M14.17 8.5v8.24"/><path class="cls-13" d="M13.15 15.91l.18-.17.84.9.84-.9.19.17-1.03 1.1-1.02-1.1z"/><path class="cls-12" d="M14.17 25.51v-8.5"/><path d="M19.82 17.01V8.5m127.56 8.51V8.5" stroke-width=".25" stroke-miterlimit="1.41" stroke="#222221" fill="#fff"/><path class="cls-6" d="M147.1 11.34H20.09"/><path class="cls-16" d="M146.28 10.32l-.17.18.9.84-.9.84.17.18 1.1-1.02-1.1-1.02zm-125.36 0l.17.18-.91.84.91.84-.17.18-1.1-1.02 1.1-1.02z"/><text transform="translate(77.63 7.06)" font-size="7" font-family="Fakt-Normal,Fakt" fill="#222221">900</text><path class="cls-12" d="M14.17 133.23v14.17"/><text class="cls-14" transform="rotate(-90 81.495 71.575)">100รท160</text><path class="cls-6" d="M14.17 147.67v5.4"/><path class="cls-16" d="M13.15 148.5l.18.17.84-.9.84.9.19-.17-1.03-1.1-1.02 1.1z"/></g></svg>