<svg id="Black" xmlns="http://www.w3.org/2000/svg" viewBox="0 0 184.25 184.25">
  <defs>
    <style>
      .cls-1 {
        fill: none;
        stroke: #222221;
        stroke-miterlimit: 10;
        stroke-width: 2px;
      }
    </style>
  </defs>
  <g>
    <circle class="cls-1" cx="92.13" cy="92.13" r="89.29" transform="translate(-18.7 160.62) rotate(-76.72)"/>
    <g>
      <path class="cls-1" d="M42.28,105.58s-3,23,.24,29.7,39.4,21.36,70.2,12.35,30.51-23.48,30.51-23.48V101.08"/>
      <path class="cls-1" d="M42.28,105.58s-3,23,.24,29.7,39.4,21.36,70.2,12.35,30.51-23.48,30.51-23.48V101.08"/>
      <path class="cls-1" d="M143.23,102.77c0-11.81-11.68-21.39-26.09-21.39a31,31,0,0,0-10.48,1.81C102.85,84.57,99.91,87,96.43,89c-11.31,6.35-24.78,5.72-37.35,4.93,0,0-14.13-1.68-16.8,11.67s20.7,23.7,32.43,25,46.82,6.17,63.8-15.61a18.7,18.7,0,0,0,4.72-12.23"/>
      <path class="cls-1" d="M143.23,102.77c0-11.81-11.68-21.39-26.09-21.39a31,31,0,0,0-10.48,1.81C102.85,84.57,99.91,87,96.43,89c-11.31,6.35-24.78,5.72-37.35,4.93,0,0-14.13-1.68-16.8,11.67s20.7,23.7,32.43,25,46.82,6.17,63.8-15.61A18.7,18.7,0,0,0,143.23,102.77Z"/>
      <path class="cls-1" d="M129.44,101.08a9.68,9.68,0,1,1-9.68-9.68,9.69,9.69,0,0,1,9.68,9.68"/>
      <circle class="cls-1" cx="119.76" cy="101.08" r="9.68"/>
      <path class="cls-1" d="M90.1,33.78S78,58.61,78,69.25a12.13,12.13,0,0,0,24.26,0C102.23,58.61,90.1,33.78,90.1,33.78Z"/>
    </g>
  </g>
</svg>
