<svg xmlns="http://www.w3.org/2000/svg" viewBox="0 0 170.08 113.39"><defs><style>.cls-1{fill:#222221}.cls-5{fill:none;stroke:#222221;stroke-linejoin:round;stroke-width:.25px}.cls-3{fill:#fff}.cls-5{stroke-linecap:round}</style></defs><g id="Piano"><path class="cls-1" d="M155.41 7.59v95.35a3.6 3.6 0 01-3.74 2.86H18.41a3.6 3.6 0 01-3.74-2.86V7.59h140.74m.5-.5H14.17v95.85c0 1.29 1.57 3.36 4.24 3.36h133.26c2.66 0 4.24-2.07 4.24-3.36V7.09z"/><path stroke-linejoin="round" stroke-width=".25" fill="none" stroke="#222221" d="M14.17 9.21h141.74"/></g><g id="Bruciatori_e_griglie" data-name="Bruciatori e griglie"><circle class="cls-1" cx="36.64" cy="38.13" r="6.38"/><path class="cls-1" d="M16.44 58V18.21h40.4V58zm36.72-3.68V21.89h-33v32.47z"/><path class="cls-3" d="M56.76 18.28V58H16.51V18.28h40.25M20 54.44h33.23V21.81H20v32.63m36.91-36.31H16.36v40h40.55v-40zM20.19 22h32.89v32.29H20.19V22z"/><path class="cls-1" d="M30.33 32.86c-.08-.07-7.15-6.86-7.59-7.27a3.46 3.46 0 01-.79-2v-5.31l.07-.07H23l.07.07v5.34a2.09 2.09 0 00.52 1.38l7.47 7.13v.1l-.63.67z"/><path class="cls-3" d="M23 18.28v5.34a2.09 2.09 0 00.54 1.38L31 32.13l-.63.67s-7.13-6.8-7.58-7.27a3.31 3.31 0 01-.79-1.91v-5.34h1m0-.15h-1l-.15.15v5.34a3.38 3.38 0 00.81 2c.44.41 7.51 7.2 7.58 7.27h.22l.63-.68V32l-7.47-7.13a2 2 0 01-.54-1.28v-5.31l-.08-.15z"/><path class="cls-1" d="M42.84 32.85l-.63-.67v-.1L49.69 25a2.1 2.1 0 00.56-1.34v-5.38l.08-.07h.92l.08.07v5.34a3.48 3.48 0 01-.8 2C50.09 26 43 32.79 43 32.86z"/><path class="cls-3" d="M51.25 18.28v5.34a3.25 3.25 0 01-.77 1.91C50 26 42.9 32.8 42.9 32.8l-.63-.67L49.74 25a2.2 2.2 0 00.59-1.38v-5.34h.92m0-.15h-.92l-.15.15v5.34a2 2 0 01-.54 1.27L42.16 32v.21l.63.68H43c.07-.07 7.14-6.86 7.59-7.27a3.44 3.44 0 00.81-2v-5.34l-.15-.15z"/><path class="cls-1" d="M50.33 58h-.08v-5.37a2.09 2.09 0 00-.56-1.33l-7.47-7.13v-.1l.63-.67H43l7.58 7.28a3.45 3.45 0 01.8 2V58l-.08.07z"/><path class="cls-3" d="M42.9 43.45s7.1 6.85 7.58 7.27a3.28 3.28 0 01.77 1.91V58h-.92v-5.37a2.22 2.22 0 00-.59-1.38l-7.47-7.13.63-.67m.1-.11h-.21l-.63.67v.21l7.48 7.13a2 2 0 01.54 1.28V58l.15.15h.92l.15-.15v-5.37a3.45 3.45 0 00-.81-2c-.45-.41-7.52-7.2-7.59-7.27z"/><path class="cls-1" d="M22 58v-5.37a3.41 3.41 0 01.79-2l7.59-7.28h.1l.63.67v.1l-7.52 7.18a2.1 2.1 0 00-.59 1.34V58z"/><path class="cls-3" d="M30.38 43.45l.63.67-7.47 7.13a2.12 2.12 0 00-.54 1.38V58h-1v-5.37a3.33 3.33 0 01.76-1.91c.45-.42 7.59-7.27 7.59-7.27m-.11-.11c-.07.07-7.14 6.86-7.58 7.27a3.38 3.38 0 00-.81 2V58l.15.15h1l.1-.15v-5.37a2 2 0 01.54-1.27l7.47-7.13V44l-.63-.67z"/><path class="cls-1" d="M36.18 24.7l-.08-.07v-6.35l.08-.07h.92l.07.07v6.35l-.07.07h-.92z"/><path class="cls-3" d="M37.1 18.28v6.35h-.92v-6.35h.92m0-.15h-.92l-.15.15v6.35l.15.15h.92l.15-.15v-6.35l-.15-.15z"/><path class="cls-1" d="M36.18 58.04l-.08-.07v-6.34l.08-.08h.92l.07.08v6.34l-.07.07h-.92z"/><path class="cls-3" d="M37.1 51.63V58h-.92v-6.37h.92m0-.15h-.92l-.15.15V58l.15.15h.92l.15-.15v-6.37l-.15-.15z"/><path class="cls-1" d="M47.06 38.66l-.08-.07v-.93l.08-.07h9.7l.08.07v.93l-.08.07h-9.7z"/><path class="cls-3" d="M56.76 37.66v.93h-9.7v-.93h9.7m0-.15h-9.7l-.15.15v.93l.15.15h9.7l.15-.15v-.93l-.15-.15z"/><path class="cls-1" d="M16.51 38.66l-.07-.07v-.93l.07-.07h9.7l.08.07v.93l-.08.07h-9.7z"/><path class="cls-3" d="M26.22 37.66v.93h-9.71v-.93h9.71m0-.15h-9.71l-.15.15v.93l.15.15h9.71l.15-.15v-.93l-.15-.15z"/><circle class="cls-1" cx="77.17" cy="38.13" r="6.38"/><path class="cls-1" d="M57 58V18.21h40.4V58zm36.72-3.68V21.89h-33v32.47z"/><path class="cls-3" d="M97.3 18.28V58H57.05V18.28H97.3M60.58 54.44h33.19V21.81H60.58v32.63m36.87-36.31H56.9v40h40.55v-40zM60.73 22h32.89v32.29H60.73V22z"/><path class="cls-1" d="M70.86 32.86c-.07-.07-7.14-6.86-7.58-7.27a3.4 3.4 0 01-.79-2v-5.31l.07-.07h.92l.08.07v5.34a2.09 2.09 0 00.56 1.38l7.48 7.13v.1l-.63.67z"/><path class="cls-3" d="M63.48 18.28v5.34a2.2 2.2 0 00.59 1.38l7.47 7.13-.63.67s-7.13-6.8-7.58-7.27a3.25 3.25 0 01-.77-1.91v-5.34h.92m0-.15h-.92l-.15.15v5.34a3.4 3.4 0 00.82 2c.44.41 7.51 7.2 7.58 7.27H71l.63-.68V32l-7.47-7.13a1.94 1.94 0 01-.55-1.28v-5.31l-.15-.15z"/><path class="cls-1" d="M83.38 32.85l-.63-.67v-.1L90.22 25a2 2 0 00.57-1.34v-5.38l.07-.07h.93l.07.07v5.34a3.4 3.4 0 01-.79 2c-.44.41-7.51 7.2-7.58 7.27z"/><path class="cls-3" d="M91.79 18.28v5.34a3.39 3.39 0 01-.79 1.91c-.45.42-7.59 7.27-7.59 7.27l-.63-.67L90.27 25a2.09 2.09 0 00.59-1.38v-5.34h.93m0-.15h-.93l-.15.15v5.34a1.93 1.93 0 01-.54 1.27L82.7 32v.21l.63.68h.22c.07-.07 7.14-6.86 7.58-7.27a3.46 3.46 0 00.82-2v-5.34l-.15-.15z"/><path class="cls-1" d="M90.86 58h-.07v-5.37a2 2 0 00-.57-1.33l-7.47-7.13v-.1l.63-.67h.11l7.58 7.28a3.37 3.37 0 01.79 2V58l-.07.07z"/><path class="cls-3" d="M83.43 43.45s7.14 6.85 7.57 7.27a3.42 3.42 0 01.77 1.91V58h-.93v-5.37a2.12 2.12 0 00-.59-1.38l-7.45-7.13.63-.67m.11-.11h-.22l-.63.67v.21l7.47 7.13a2 2 0 01.54 1.28V58l.15.15h.93l.15-.15v-5.37a3.46 3.46 0 00-.82-2c-.44-.41-7.51-7.2-7.58-7.27z"/><path class="cls-1" d="M62.56 58h-.07v-5.37a3.37 3.37 0 01.79-2l7.58-7.28H71l.63.67v.1l-7.51 7.18a2.1 2.1 0 00-.56 1.34V58l-.08.07z"/><path class="cls-3" d="M70.91 43.45l.63.67-7.47 7.13a2.22 2.22 0 00-.59 1.38V58h-.92v-5.37a3.28 3.28 0 01.77-1.91c.45-.42 7.58-7.27 7.58-7.27m-.1-.11c-.07.07-7.14 6.86-7.58 7.27a3.39 3.39 0 00-.82 2V58l.15.15h.92l.15-.15v-5.37a2 2 0 01.55-1.27l7.47-7.13V44l-.65-.65z"/><path class="cls-1" d="M76.71 24.7l-.07-.07v-6.35l.07-.07h.93l.07.07v6.35l-.07.07h-.93z"/><path class="cls-3" d="M77.64 18.28v6.35h-.93v-6.35h.93m0-.15h-.93l-.15.15v6.35l.15.15h.93l.15-.15v-6.35l-.15-.15z"/><path class="cls-1" d="M76.71 58.04l-.07-.07v-6.34l.07-.08h.93l.07.08v6.34l-.07.07h-.93z"/><path class="cls-3" d="M77.64 51.63V58h-.93v-6.37h.93m0-.15h-.93l-.15.15V58l.15.15h.93l.15-.15v-6.37l-.15-.15z"/><path class="cls-1" d="M87.59 38.66l-.07-.07v-.93l.07-.07h9.71l.07.07v.93l-.07.07h-9.71z"/><path class="cls-3" d="M97.3 37.66v.93h-9.7v-.93h9.7m0-.15h-9.7l-.15.15v.93l.15.15h9.7l.15-.15v-.93l-.15-.15z"/><path class="cls-1" d="M57.05 38.66l-.08-.07v-.93l.08-.07h9.7l.08.07v.93l-.08.07h-9.7z"/><path class="cls-3" d="M66.75 37.66v.93h-9.7v-.93h9.7m0-.15h-9.7l-.15.15v.93l.15.15h9.7l.15-.15v-.93l-.15-.15z"/><path class="cls-1" d="M36.64 70a8.5 8.5 0 108.5 8.5 8.5 8.5 0 00-8.5-8.5zm0 13.18a4.68 4.68 0 114.67-4.68 4.68 4.68 0 01-4.67 4.7zm0-1.49a3.19 3.19 0 113.19-3.19 3.19 3.19 0 01-3.19 3.21z"/><path class="cls-1" d="M16.44 98.44V58.6h40.4v39.84zm36.72-3.68V62.28h-33v32.48z"/><path class="cls-3" d="M56.76 58.68v39.68H16.51V58.68h40.25M20 94.83h33.23V62.21H20v32.62m36.87-36.3H16.36v40h40.55v-40zm-36.68 3.83h32.89v32.32H20.19V62.36z"/><path class="cls-1" d="M30.33 73.25c-.08-.07-7.15-6.86-7.59-7.27A3.43 3.43 0 0122 64v-5.4h1l.07.08V64a2.07 2.07 0 00.57 1.33l7.47 7.13v.11l-.63.67z"/><path class="cls-3" d="M23 58.68V64a2.12 2.12 0 00.59 1.39L31 72.53l-.63.67s-7.14-6.86-7.59-7.28A3.31 3.31 0 0122 64v-5.32h1m0-.15h-1l-.15.15V64a3.38 3.38 0 00.81 2l7.58 7.28h.22l.63-.67v-.21l-7.47-7.13A2 2 0 0123.1 64v-5.32l-.1-.15z"/><path class="cls-1" d="M42.84 73.25l-.63-.67v-.11l7.47-7.13a2.09 2.09 0 00.57-1.34v-5.32l.08-.08h.92l.08.08V64a3.45 3.45 0 01-.8 2c-.44.41-7.51 7.2-7.58 7.27z"/><path class="cls-3" d="M51.25 58.68V64a3.25 3.25 0 01-.77 1.91c-.45.42-7.58 7.28-7.58 7.28l-.63-.67 7.47-7.13a2.23 2.23 0 00.59-1.39v-5.32h.92m0-.15h-.92l-.15.15V64a2 2 0 01-.54 1.28l-7.48 7.13v.21l.63.67H43c.07-.07 7.14-6.86 7.59-7.28a3.44 3.44 0 00.81-2v-5.33l-.15-.15z"/><path class="cls-1" d="M50.33 98.44l-.08-.08V93a2.07 2.07 0 00-.56-1.33l-7.47-7.13v-.11l.63-.67H43c.07.07 7.14 6.86 7.58 7.27a3.45 3.45 0 01.8 2v5.34l-.08.08z"/><path class="cls-3" d="M42.9 83.84s7.1 6.86 7.58 7.28a3.25 3.25 0 01.77 1.88v5.33h-.92V93a2.23 2.23 0 00-.59-1.39l-7.47-7.13.63-.67m.1-.11h-.21l-.63.67v.21l7.48 7.13a2 2 0 01.54 1.29v5.32l.15.15h.92l.15-.15V93a3.45 3.45 0 00-.81-2c-.45-.42-7.52-7.21-7.59-7.28z"/><path class="cls-1" d="M22 98.44V93a3.44 3.44 0 01.79-2c.44-.41 7.51-7.2 7.59-7.27h.1l.63.67v.11l-7.52 7.19A2.07 2.07 0 0023 93v5.33l-.07.08z"/><path class="cls-3" d="M30.38 83.84l.63.67-7.47 7.13A2.12 2.12 0 0023 93v5.33h-1V93a3.31 3.31 0 01.76-1.91c.45-.42 7.59-7.28 7.59-7.28m-.11-.11L22.69 91a3.38 3.38 0 00-.81 2v5.34l.15.15H23l.15-.15V93a2 2 0 01.54-1.28l7.47-7.13v-.21l-.63-.67z"/><path class="cls-1" d="M36.18 65.1l-.08-.08v-6.34l.08-.08h.92l.07.08v6.34l-.07.08h-.92z"/><path class="cls-3" d="M37.1 58.68V65h-.92v-6.32h.92m0-.15h-.92l-.15.15V65l.15.15h.92l.15-.15v-6.32l-.15-.15z"/><path class="cls-1" d="M36.18 98.44l-.08-.08v-6.34l.08-.08h.92l.07.08v6.34l-.07.08h-.92z"/><path class="cls-3" d="M37.1 92v6.34h-.92V92h.92m0-.15h-.92L36 92v6.34l.15.15h.92l.15-.15V92l-.15-.15z"/><path class="cls-1" d="M47.06 79.06l-.08-.08v-.92l.08-.08h9.7l.08.08v.92l-.08.08h-9.7z"/><path class="cls-3" d="M56.76 78.06V79h-9.7v-.92h9.7m0-.15h-9.7l-.15.15V79l.15.15h9.7l.15-.15v-.92l-.15-.15z"/><path class="cls-1" d="M16.51 79.06l-.07-.08v-.92l.07-.08h9.7l.08.08v.92l-.08.08h-9.7z"/><path class="cls-3" d="M26.22 78.06V79h-9.71v-.92h9.71m0-.15h-9.71l-.15.15V79l.15.15h9.71l.15-.15v-.92l-.15-.15z"/><circle class="cls-1" cx="77.17" cy="78.52" r="4.25"/><path class="cls-1" d="M57 98.44V58.6h40.4v39.84zm36.72-3.68V62.28h-33v32.48z"/><path class="cls-3" d="M97.3 58.68v39.68H57.05V58.68H97.3M60.58 94.83h33.19V62.21H60.58v32.62m36.87-36.3H56.9v40h40.55v-40zm-36.72 3.83h32.89v32.32H60.73V62.36z"/><path class="cls-1" d="M70.86 73.25c-.07-.07-7.14-6.86-7.58-7.27a3.37 3.37 0 01-.79-2v-5.3l.07-.08h.92l.08.08V64a2.09 2.09 0 00.56 1.33l7.48 7.13v.11l-.63.67z"/><path class="cls-3" d="M63.48 58.68V64a2.23 2.23 0 00.59 1.39l7.47 7.13-.63.67s-7.13-6.86-7.58-7.28a3.25 3.25 0 01-.77-1.91v-5.32h.92m0-.15h-.92l-.15.15V64a3.4 3.4 0 00.82 2l7.58 7.28H71l.63-.67v-.21l-7.47-7.13a2 2 0 01-.53-1.27v-5.32l-.15-.15z"/><path class="cls-1" d="M83.38 73.25l-.63-.67v-.11l7.47-7.13a2 2 0 00.57-1.34v-5.32l.07-.08h.93l.07.08V64a3.37 3.37 0 01-.79 2c-.44.41-7.51 7.2-7.58 7.27z"/><path class="cls-3" d="M91.79 58.68V64a3.39 3.39 0 01-.79 1.92c-.45.42-7.59 7.28-7.59 7.28l-.63-.67 7.47-7.13a2.12 2.12 0 00.61-1.4v-5.32h.93m0-.15h-.93l-.15.15V64a2 2 0 01-.54 1.28l-7.47 7.14v.21l.63.67h.22l7.57-7.3a3.46 3.46 0 00.82-2v-5.32l-.15-.15z"/><path class="cls-1" d="M90.86 98.44l-.07-.08V93a2 2 0 00-.57-1.33l-7.47-7.13v-.11l.63-.67h.11c.07.07 7.14 6.86 7.58 7.27a3.37 3.37 0 01.79 2v5.34l-.07.08z"/><path class="cls-3" d="M83.43 83.84s7.14 6.86 7.57 7.28a3.39 3.39 0 01.79 1.88v5.33h-.93V93a2.12 2.12 0 00-.59-1.39l-7.47-7.1.63-.67m.11-.11h-.22l-.63.67v.21l7.47 7.13a2 2 0 01.55 1.26v5.32l.15.15h.93l.15-.15V93a3.46 3.46 0 00-.82-2l-7.58-7.28z"/><path class="cls-1" d="M62.56 98.44l-.07-.08V93a3.37 3.37 0 01.79-2c.44-.41 7.51-7.2 7.58-7.27H71l.63.67v.11l-7.51 7.19a2.09 2.09 0 00-.56 1.3v5.33l-.08.08z"/><path class="cls-3" d="M70.91 83.84l.63.67-7.47 7.13a2.23 2.23 0 00-.59 1.36v5.33h-.92V93a3.25 3.25 0 01.77-1.91c.45-.42 7.58-7.28 7.58-7.28m-.1-.11L63.23 91a3.39 3.39 0 00-.82 2v5.34l.15.15h.92l.15-.15V93a2 2 0 01.55-1.28l7.47-7.13v-.21l-.65-.64z"/><path class="cls-1" d="M76.71 65.1l-.07-.08v-6.34l.07-.08h.93l.07.08v6.34l-.07.08h-.93z"/><path class="cls-3" d="M77.64 58.68V65h-.93v-6.32h.93m0-.15h-.93l-.15.15V65l.15.15h.93l.15-.15v-6.32l-.15-.15z"/><path class="cls-1" d="M76.71 98.44l-.07-.08v-6.34l.07-.08h.93l.07.08v6.34l-.07.08h-.93z"/><path class="cls-3" d="M77.64 92v6.34h-.93V92h.93m0-.15h-.93l-.15.15v6.34l.15.15h.93l.15-.15V92l-.15-.15z"/><path class="cls-1" d="M87.59 79.06l-.07-.08v-.92l.07-.08h9.71l.07.08v.92l-.07.08h-9.71z"/><path class="cls-3" d="M97.3 78.06V79h-9.7v-.92h9.7m0-.15h-9.7l-.15.15V79l.15.15h9.7l.15-.15v-.92l-.15-.15z"/><path class="cls-1" d="M57.05 79.06l-.08-.08v-.92l.08-.08h9.7l.08.08v.92l-.08.08h-9.7z"/><path class="cls-3" d="M66.75 78.06V79h-9.7v-.92h9.7m0-.15h-9.7l-.15.15V79l.15.15h9.7l.15-.15v-.92l-.15-.15z"/><path class="cls-1" d="M153.39 18.53v79.58H97.76V18.53h55.63m.25-.25H97.51v80.08h56.13V18.28z"/><rect x="100.06" y="23.86" width="51.02" height="1.42" rx=".71" stroke-miterlimit="1.41" stroke-width=".49" fill="none" stroke="#222221"/><rect class="cls-5" x="104.85" y="91.3" width="4.25" height="1.42" rx=".71"/><rect class="cls-5" x="114.15" y="91.3" width="4.25" height="1.42" rx=".71"/><rect class="cls-5" x="123.45" y="91.3" width="4.25" height="1.42" rx=".71"/><rect class="cls-5" x="132.75" y="91.3" width="4.25" height="1.42" rx=".71"/><rect class="cls-5" x="142.04" y="91.3" width="4.25" height="1.42" rx=".71"/><circle class="cls-5" cx="125.57" cy="58.29" r="17.72"/><circle class="cls-5" cx="125.57" cy="58.29" r=".71"/><circle class="cls-5" cx="125.57" cy="58.29" r="16.72"/><circle class="cls-5" cx="125.57" cy="58.29" r="5.95"/><circle class="cls-5" cx="125.57" cy="58.29" r="8.15"/><circle class="cls-5" cx="125.57" cy="58.29" r="10.63"/><circle class="cls-5" cx="125.57" cy="58.29" r="13.11"/><circle class="cls-5" cx="125.57" cy="58.29" r="15.59"/></g></svg>