<svg xmlns="http://www.w3.org/2000/svg" viewBox="0 0 170.08 113.39"><defs><style>.cls-1,.cls-3{fill:#222221}.cls-4{fill:none;stroke:#222221}.cls-3{stroke:#fff;stroke-miterlimit:10;stroke-width:.15px}.cls-4{stroke-miterlimit:3.86;stroke-width:.5px}</style></defs><g id="Piano"><path class="cls-1" d="M155.41 7.59v95.35a3.6 3.6 0 01-3.74 2.86H18.41a3.6 3.6 0 01-3.74-2.86V7.59h140.74m.5-.5H14.17v95.85c0 1.29 1.57 3.36 4.24 3.36h133.26c2.66 0 4.24-2.07 4.24-3.36V7.09z"/><path stroke-linejoin="round" stroke-width=".25" fill="none" stroke="#222221" d="M14.17 9.21h141.74"/></g><g id="Bruciatori_e_griglie" data-name="Bruciatori e griglie"><circle class="cls-1" cx="40.25" cy="38.13" r="6.38"/><path class="cls-3" d="M54.78 18.1H16.94v40.05h46.63v-40zM58.73 37s-.11.23-.3.26l-1.43.17c-.19 0-3.19.07-3.19.07a.36.36 0 00-.29.33v.59a.37.37 0 00.29.34s3 0 3.19.06 1.26.12 1.45.15.3.25.3.25v15.2h-3.97v-2.05a2.16 2.16 0 00-.67-1.52L45 42.37a.53.53 0 00-.77 0 .54.54 0 000 .77l8.9 8.32a1.22 1.22 0 01.38.88v2.05H41.34a.49.49 0 01-.25-.3c0-.19-.12-1.26-.15-1.45s-.06-.81-.06-.81a.38.38 0 00-.33-.3H40a.38.38 0 00-.34.3s0 .63-.06.81-.12 1.26-.15 1.45-.25.3-.25.3H26.94v-2.02a1.26 1.26 0 01.38-.88l8.9-8.32a.55.55 0 000-.77.54.54 0 00-.78 0l-9.08 8.48a2.24 2.24 0 00-.67 1.52v2.05h-3.91V39.22s.1-.23.29-.25l1.45-.15c.19-.02 3.19-.06 3.19-.06a.38.38 0 00.3-.34v-.59a.36.36 0 00-.3-.33s-3 0-3.19-.07l-1.45-.14c-.19 0-.29-.26-.29-.26V21.84h3.94v2.05a2.24 2.24 0 00.67 1.51l9.08 8.48a.55.55 0 00.78 0 .56.56 0 000-.78l-8.9-8.31a1.3 1.3 0 01-.38-.88v-2.07h12.19s.23.1.25.29l.15 1.45c.02.19.06.82.06.82a.37.37 0 00.34.29h.59a.37.37 0 00.33-.29s0-.63.06-.82.13-1.26.15-1.45a.46.46 0 01.25-.29h12.22v2.05a1.26 1.26 0 01-.38.88l-8.9 8.31a.55.55 0 000 .78.54.54 0 00.77 0l9.08-8.48a2.15 2.15 0 00.67-1.51v-2.03h3.95z"/><circle class="cls-1" cx="129.97" cy="38.13" r="6.38"/><path class="cls-3" d="M144.5 18.1h-37.85v40.05h46.63v-40zm3.94 18.9s-.1.23-.29.26l-1.45.14c-.19 0-3.19.07-3.19.07a.35.35 0 00-.29.33v.59a.36.36 0 00.29.34s3 0 3.19.06 1.26.12 1.45.15.29.25.29.25v15.2h-3.94v-2.02a2.24 2.24 0 00-.67-1.52l-9.08-8.48a.54.54 0 00-.78 0 .55.55 0 000 .77l8.9 8.32a1.26 1.26 0 01.38.88v2.05h-12.19s-.23-.11-.25-.3l-.15-1.45c-.02-.19-.06-.81-.06-.81a.38.38 0 00-.34-.3h-.59a.38.38 0 00-.33.3s0 .63-.06.81-.12 1.26-.15 1.45a.49.49 0 01-.25.3h-12.22v-2.02a1.22 1.22 0 01.38-.88l8.9-8.32a.54.54 0 000-.77.53.53 0 00-.77 0l-9.08 8.48a2.16 2.16 0 00-.67 1.52v2.05h-4V39.22s.11-.23.3-.25l1.45-.15c.19-.02 3.19-.06 3.19-.06a.37.37 0 00.29-.34v-.59a.36.36 0 00-.29-.33s-3 0-3.19-.07l-1.45-.14c-.19 0-.3-.26-.3-.26V21.84h4v2.05a2.15 2.15 0 00.67 1.51l9.08 8.48a.54.54 0 00.77 0 .55.55 0 000-.78L117 24.77a1.26 1.26 0 01-.38-.88v-2.05h12.22a.46.46 0 01.25.29c0 .19.12 1.26.15 1.45s.06.82.06.82a.37.37 0 00.33.29h.59a.37.37 0 00.34-.29s0-.63.06-.82.12-1.26.15-1.45.25-.29.25-.29h12.22v2.05a1.3 1.3 0 01-.38.88L134 33.08a.56.56 0 000 .78.55.55 0 00.78 0l9.08-8.48a2.24 2.24 0 00.67-1.51v-2.03h3.94z"/><path class="cls-1" d="M40.25 70a8.51 8.51 0 108.51 8.51A8.51 8.51 0 0040.25 70zm0 13.18a4.68 4.68 0 114.68-4.67 4.68 4.68 0 01-4.68 4.68zm0-1.48a3.19 3.19 0 113.19-3.19 3.19 3.19 0 01-3.19 3.2z"/><path class="cls-3" d="M54.78 58.49H16.94v40.06h46.63V58.49zm3.95 18.94a.49.49 0 01-.3.25l-1.43.14c-.19 0-3.19.07-3.19.07a.37.37 0 00-.29.33v.59a.37.37 0 00.29.34s3 0 3.19.06 1.26.12 1.45.15.3.25.3.25v15.2h-3.97v-2a2.16 2.16 0 00-.67-1.52L45 82.76a.55.55 0 00-.75.8l8.9 8.32a1.24 1.24 0 01.38.88v2H41.34a.49.49 0 01-.25-.3c0-.18-.12-1.26-.15-1.44s-.06-.82-.06-.82a.38.38 0 00-.33-.3H40a.38.38 0 00-.34.3s0 .63-.06.82-.12 1.26-.15 1.44-.25.3-.25.3H26.94v-2a1.28 1.28 0 01.38-.88l8.9-8.32a.55.55 0 10-.75-.8l-9.08 8.48a2.24 2.24 0 00-.67 1.52v2h-3.94V79.61s.1-.23.29-.25l1.45-.15c.19-.02 3.19-.06 3.19-.06a.38.38 0 00.3-.34v-.59a.38.38 0 00-.3-.33s-3 0-3.19-.07l-1.45-.14a.46.46 0 01-.29-.25v-15.2h3.94v2.05a2.24 2.24 0 00.67 1.51l9.08 8.48a.55.55 0 00.78 0 .56.56 0 000-.78l-8.9-8.31a1.28 1.28 0 01-.38-.88v-2.07h12.19s.23.1.25.29l.15 1.45c.02.19.06.82.06.82a.37.37 0 00.34.29h.59a.37.37 0 00.33-.29s0-.63.06-.82.13-1.26.15-1.45a.46.46 0 01.25-.29h12.22v2.05a1.24 1.24 0 01-.38.88l-8.9 8.31a.55.55 0 000 .78.54.54 0 00.77 0l9.08-8.48a2.15 2.15 0 00.67-1.51v-2.03h3.95z"/><circle class="cls-1" cx="129.97" cy="78.52" r="4.25"/><path class="cls-3" d="M144.5 58.49h-37.85v40.06h46.63V58.49zm3.94 18.94a.46.46 0 01-.29.25c-.19 0-1.26.12-1.45.15s-3.19.06-3.19.06a.36.36 0 00-.29.33v.59a.36.36 0 00.29.34s3 0 3.19.06 1.26.12 1.45.15.29.25.29.25v15.2h-3.94v-2a2.26 2.26 0 00-.67-1.52l-9.08-8.48a.55.55 0 10-.75.8l8.9 8.32a1.28 1.28 0 01.38.88v2h-12.22s-.23-.11-.25-.3l-.15-1.44c-.02-.19-.06-.82-.06-.82a.38.38 0 00-.34-.3h-.59a.38.38 0 00-.33.3s0 .63-.06.82-.12 1.26-.15 1.44a.49.49 0 01-.25.3h-12.22v-2a1.24 1.24 0 01.38-.88l8.9-8.32a.55.55 0 00-.75-.8l-9.08 8.48a2.17 2.17 0 00-.67 1.52v2h-4v-15.2s.11-.23.3-.25l1.45-.15c.19-.02 3.19-.06 3.19-.06a.37.37 0 00.29-.34v-.59a.37.37 0 00-.29-.33s-3 0-3.19-.06-1.26-.13-1.45-.15a.49.49 0 01-.3-.25v-15.2h4v2.05a2.13 2.13 0 00.67 1.51l9.08 8.49a.55.55 0 00.75-.81L117 65.16a1.24 1.24 0 01-.38-.88v-2.05h12.22a.46.46 0 01.25.29c0 .19.12 1.26.15 1.45s.06.82.06.82a.37.37 0 00.33.29h.59a.37.37 0 00.34-.29s0-.63.06-.82.12-1.26.15-1.45.25-.29.25-.29h12.22v2.05a1.28 1.28 0 01-.38.88L134 73.47a.55.55 0 00.75.81l9.08-8.49a2.22 2.22 0 00.67-1.51v-2.05h3.94z"/><path class="cls-4" d="M63.85 88.36h42.38m-42.38 9.22h42.38"/><path class="cls-1" d="M105.73 18.78v79.08H64.35V18.78h41.38m.5-.5H63.85v80.08h42.38V18.28z"/><path class="cls-4" d="M63.85 19.13h42.38"/></g></svg>