<svg xmlns="http://www.w3.org/2000/svg" viewBox="0 0 147.4 177.7"><defs><style>.cls-7{fill:none}.cls-2,.cls-6,.cls-7{stroke:#000}.cls-2,.cls-3,.cls-6{fill:#fff}.cls-2,.cls-6,.cls-7{stroke-miterlimit:1.41}.cls-2{stroke-width:.3px}.cls-6,.cls-7{stroke-width:.25px}.cls-8{font-size:7px;font-family:Fakt-Normal,Fakt}</style></defs><g id="Ranges"><path d="M24.08 31.18h94.66v104.88H24.08zm94.98 0H19.84V17.01h2.13v8.5h97.09v5.67z" stroke-width=".5" stroke-miterlimit="3.86" stroke="#000" fill="none"/><path class="cls-2" d="M122.08 40.58a2 2 0 00-1 .24 2.13 2.13 0 00-.49.36v3a2.47 2.47 0 00.49.36 2.12 2.12 0 001 .24 2.09 2.09 0 100-4.18z"/><path class="cls-2" d="M118.74 46.28l1.87-1.68v-4l-1.87-1.54v7.22zm5.43 16.15a4.4 4.4 0 01-1 2c-1 1-3.12 1.5-4.39 1.63v-1.12a7.22 7.22 0 002.56-.52 2.81 2.81 0 001.63-1.83"/><path class="cls-3" d="M123.38 62.7a2.38 2.38 0 112.38-2.38 2.39 2.39 0 01-2.38 2.38z"/><path d="M123.38 58.09a2.23 2.23 0 11-2.23 2.23 2.23 2.23 0 012.23-2.23m0-.3a2.53 2.53 0 102.53 2.53 2.53 2.53 0 00-2.53-2.53z"/><path class="cls-3" d="M123.38 62.07a1.75 1.75 0 111.75-1.75 1.76 1.76 0 01-1.75 1.75z"/><path d="M123.38 58.72a1.6 1.6 0 11-1.6 1.6 1.6 1.6 0 011.6-1.6m0-.3a1.9 1.9 0 101.9 1.9 1.9 1.9 0 00-1.9-1.9zm-10.34-32.94v-3.5H95.07l5.55 1.32h8.44v2.18h3.98zm-21.13-3.55h1.08v3.5h-1.08zm-20.28 3.59v-3.54h17.88L84 23.32h-8.37v2.2h-4zm0-.04v-3.5H53.65l5.55 1.32h8.44v2.18h3.99zM50.5 21.93h1.08v3.5H50.5zm-20.29 3.59v-3.54h17.88l-5.5 1.34h-8.38v2.2h-4z"/><path d="M24.08 136.06v19.85h11.86v-6.21c0-2.87 3.23-3.48 5.07-4.18 3.73-1.43 9.11-2.7 13.37-3.81 4-1 3.77-5.65 3.77-5.65zm94.66 0v19.85h-11.86s.05-3.34.05-6.21-3.23-3.48-5.07-4.18c-3.73-1.43-9.11-2.7-13.37-3.81-4-1-3.76-5.65-3.76-5.65z" stroke-miterlimit="1.41" stroke-width=".5" stroke="#000" fill="none"/><path stroke-miterlimit="10" stroke-width=".5" stroke="#000" fill="none" d="M20.74 39.75h3.34v74.67h-3.34z"/><path d="M24.07 94.12v23.45h-.92v-11.12h-.76v-8.07a10 10 0 011.68-4.26z"/></g><g id="Dimensions"><path class="cls-6" d="M19.84 17.01h-8.5m107.72 14.17h8.5m-8.5 104.88h8.5M11.34 25.51h8.5m-8.5 5.67h8.5m-8.5 104.88h8.5"/><path class="cls-7" d="M24.08 155.91v5.66"/><text class="cls-8" transform="rotate(-90 18.29 6.95)">60</text><text class="cls-8" transform="rotate(-90 50.46 39.12)">740</text><text class="cls-8" transform="rotate(90 55.825 71.725)">40</text><text class="cls-8" transform="rotate(90 -6.235 133.785)">140</text><path class="cls-7" d="M14.17 25.24v-7.96"/><path d="M15.2 24.41l-.19-.17-.84.9-.84-.9-.18.17 1.02 1.1 1.03-1.1zm0-6.3l-.19.17-.84-.9-.84.9-.18-.17 1.02-1.1 1.03 1.1z"/><path class="cls-7" d="M14.17 135.79V31.43"/><path d="M15.2 134.96l-.19-.17-.84.91-.84-.91-.18.17 1.02 1.1 1.03-1.1zm0-102.7l-.19.17-.84-.9-.84.9-.18-.17 1.02-1.1 1.03 1.1z"/><path class="cls-7" d="M124.72 25.51v5.67m0 105.15v19.3"/><path d="M123.7 137.16l.19.17.83-.9.84.9.19-.17-1.03-1.1-1.02 1.1zm0 17.65l.19-.18.83.91.84-.91.19.18-1.03 1.1-1.02-1.1z"/><path class="cls-6" d="M118.74 155.91h18.74m-18.42-130.4h18.42"/><text class="cls-8" transform="rotate(90 27.075 111.815)">920</text><path class="cls-7" d="M134.65 25.78v129.85"/><path d="M133.62 26.61l.19.17.84-.9.84.9.18-.17-1.02-1.1-1.03 1.1zm0 128.2l.19-.18.84.91.84-.91.18.18-1.02 1.1-1.03-1.1z"/><path class="cls-7" d="M24.35 158.74h5.4"/><path d="M25.18 159.76l.17-.18-.9-.84.9-.84-.17-.18-1.1 1.02 1.1 1.02z"/><text class="cls-8" transform="translate(7.36 157.32)">30</text><path class="cls-7" d="M11.37 158.74h8.23"/><path d="M18.77 159.76l-.17-.18.9-.84-.9-.84.17-.18 1.1 1.02-1.1 1.02z"/><path class="cls-7" d="M18.62 158.74h6.37m99.73-133.47v-5.4"/><path d="M125.75 24.44l-.19-.17-.84.91-.83-.91-.19.17 1.02 1.1 1.03-1.1z"/><text class="cls-8" transform="translate(7.36 9.92)">15</text><path class="cls-7" d="M11.37 11.34h8.23"/><path d="M18.77 12.36l-.17-.18.9-.84-.9-.84.17-.18 1.1 1.02-1.1 1.02z"/><path class="cls-6" d="M21.97 17.01V8.5m-2.13 8.51V8.5m99.22 17.01V8.5"/><path class="cls-7" d="M118.78 11.34H22.26"/><path d="M117.96 10.32l-.18.18.91.84-.91.84.18.18 1.1-1.02-1.1-1.02zm-94.87 0l.17.18-.9.84.9.84-.17.18-1.1-1.02 1.1-1.02z"/><path class="cls-6" d="M118.74 167.24v-11.33"/><path class="cls-7" d="M118.47 164.41H20.11"/><path d="M117.64 163.39l-.17.18.9.84-.9.84.17.18 1.1-1.02-1.1-1.02zm-96.7 0l.17.18-.9.84.9.84-.17.18-1.1-1.02 1.1-1.02z"/><text class="cls-8" transform="translate(64.56 7.09)">685</text><text class="cls-8" transform="translate(64.56 171.36)">700</text><path class="cls-7" d="M21.99 11.34h-2.15m0 19.84v136.06"/></g></svg>