<svg xmlns="http://www.w3.org/2000/svg" viewBox="0 0 150.24 153.07"><defs><style>.cls-12,.cls-2,.cls-3,.cls-4,.cls-5,.cls-6,.cls-7,.cls-8,.cls-9{fill:none}.cls-2,.cls-3,.cls-4,.cls-5,.cls-6,.cls-7,.cls-8,.cls-9{stroke:#222221}.cls-12,.cls-2,.cls-7,.cls-9{stroke-miterlimit:1.41}.cls-2{stroke-width:.51px}.cls-3,.cls-8{stroke-miterlimit:1.4}.cls-3{stroke-width:.3px}.cls-4,.cls-5,.cls-6{stroke-miterlimit:10}.cls-4{stroke-width:.5px}.cls-5{stroke-width:.51px}.cls-6{stroke-width:.4px}.cls-7{stroke-width:.3px}.cls-12,.cls-8,.cls-9{stroke-width:.25px}.cls-10{fill:#222221}.cls-12{stroke:#20201f}.cls-13,.cls-14{fill:#20201f}.cls-14{font-size:7px;font-family:Fakt-Normal,Fakt}</style></defs><path fill="#fff" d="M19.84 17.01v116.22h4.11v13.05h.41v1.12h6.1v-1.12h.4v-13.05h105.52v13.05h.4v1.12h6.11v-1.12h.4v-13.05h4.11V17.01H19.84z" id="Riempimento"/><g id="Ranges"><path class="cls-2" d="M36.9 64.18h50.93a1.37 1.37 0 011.46 1.25v26.4a1.37 1.37 0 01-1.46 1.26H36.9a1.38 1.38 0 01-1.47-1.26v-26.4a1.37 1.37 0 011.47-1.25z"/><path class="cls-3" d="M22.68 54.43h79.37v4.54H22.68z"/><path class="cls-2" d="M116.36 64.18h19.57c.31 0 .56.56.56 1.25v26.4c0 .7-.25 1.26-.56 1.26h-19.57c-.31 0-.56-.56-.56-1.26v-26.4c0-.69.25-1.25.56-1.25z"/><path class="cls-3" d="M108.77 54.43h34.75v4.54h-34.75z"/><path class="cls-4" d="M136.79 146.28h6.1v1.12h-6.1zm-.41-13.05h6.91v13.05h-6.91zM24.36 146.28h6.1v1.12h-6.1zm-.41-13.05h6.91v13.05h-6.91zM19.84 17.01H147.4v116.22H19.84z"/><path class="cls-5" d="M19.84 25.51H147.4M19.84 31.18H147.4"/><path class="cls-6" d="M40.94 38.2A3.06 3.06 0 1144 41.26a3.06 3.06 0 01-3.06-3.06z"/><path class="cls-3" d="M44 35.35v.94"/><path class="cls-7" d="M43.07 41.12v-5.83m1.86 5.83v-5.83"/><path class="cls-6" d="M51.59 38.2a3.06 3.06 0 113.06 3.06 3.06 3.06 0 01-3.06-3.06z"/><path class="cls-3" d="M54.65 35.35v.94"/><path class="cls-7" d="M53.72 41.12v-5.83m1.86 5.83v-5.83"/><path class="cls-6" d="M62.24 38.2a3.06 3.06 0 113.06 3.06 3.06 3.06 0 01-3.06-3.06z"/><path class="cls-3" d="M65.3 35.35v.94"/><path class="cls-7" d="M64.37 41.12v-5.83m1.86 5.83v-5.83"/><path class="cls-6" d="M72.9 38.2a3.06 3.06 0 113 3.06 3.06 3.06 0 01-3-3.06z"/><path class="cls-3" d="M75.95 35.35v.94"/><path class="cls-7" d="M75.02 41.12v-5.83m1.86 5.83v-5.83"/><path class="cls-6" d="M83.55 38.2a3.06 3.06 0 113 3.06 3.06 3.06 0 01-3-3.06z"/><path class="cls-3" d="M86.6 35.35v.94"/><path class="cls-7" d="M85.67 41.12v-5.83m1.86 5.83v-5.83"/><path class="cls-6" d="M94.2 38.2a3.06 3.06 0 113.06 3.06 3.06 3.06 0 01-3.06-3.06z"/><path class="cls-3" d="M97.25 35.35v.94"/><path class="cls-7" d="M96.33 41.12v-5.83m1.86 5.83v-5.83"/><path class="cls-6" d="M104.85 38.2a3.06 3.06 0 113.06 3.06 3.06 3.06 0 01-3.06-3.06z"/><path class="cls-3" d="M107.91 35.35v.94"/><path class="cls-7" d="M106.98 41.12v-5.83m1.86 5.83v-5.83"/><path class="cls-6" d="M115.5 38.2a3.06 3.06 0 113.06 3.06 3.06 3.06 0 01-3.06-3.06z"/><path class="cls-3" d="M118.56 35.35v.94"/><path class="cls-7" d="M117.63 41.12v-5.83m1.86 5.83v-5.83"/><path class="cls-6" d="M126.15 38.2a3.06 3.06 0 113.06 3.06 3.06 3.06 0 01-3.06-3.06z"/><path class="cls-3" d="M129.21 35.35v.94"/><path class="cls-7" d="M128.28 41.12v-5.83m1.86 5.83v-5.83"/><path class="cls-6" d="M136.8 38.2a3.06 3.06 0 113.06 3.06 3.06 3.06 0 01-3.06-3.06z"/><path class="cls-3" d="M139.86 35.35v.94"/><path class="cls-7" d="M138.93 41.12v-5.83m1.86 5.83v-5.83"/><rect class="cls-6" x="25.51" y="34.56" width="10.94" height="7.3" rx="1.82"/><path class="cls-8" d="M27 40.15a.49.49 0 01.49-.48.49.49 0 010 1 .49.49 0 01-.49-.52zm1.78 0a.49.49 0 11.48.49.49.49 0 01-.48-.49zm1.78 0a.49.49 0 11.49.49.49.49 0 01-.49-.49z"/><path class="cls-9" d="M32.35 40.15a.49.49 0 11.49.49.49.49 0 01-.49-.49zm1.79 0a.49.49 0 11.49.49.49.49 0 01-.49-.49z"/><rect class="cls-8" x="27.91" y="36.2" width="5.96" height="1.84" rx=".61"/><path class="cls-10" d="M63.04 21.53H22.96v3.98h1.31v-2.59h2.35v2.59h1.3v-2.59h14.57v2.59h1.02v-2.59h13.3v2.59h1.3v-2.59h3.63v2.59h1.3v-3.98zm40.62 0H63.58v3.98h1.31v-2.59h2.35v2.59h1.3v-2.59h14.57v2.59h1.02v-2.59h13.3v2.59h1.3v-2.59h3.63v2.59h1.3v-3.98zm40.62 0H104.2v3.98h1.31v-2.59h2.35v2.59h1.3v-2.59h14.57v2.59h1.02v-2.59h13.3v2.59h1.3v-2.59h3.63v2.59h1.3v-3.98z"/><path class="cls-5" d="M19.84 46.64H147.4M19.84 111.97H147.4M19.84 48.76H147.4"/><rect class="cls-4" x="19.84" y="52.16" width="85.04" height="57.81" rx=".29"/><rect class="cls-4" x="104.88" y="52.16" width="42.48" height="57.81" rx=".29"/></g><g id="Dimensions"><path d="M24.29 147.4H11.34m8.5-14.17h-8.5m8.5-116.22h-8.5m8.5 8.5h-8.5" stroke="#20201f" stroke-width=".25" stroke-miterlimit="1.41" fill="#fff"/><path class="cls-12" d="M14.17 25.78v107.18"/><path class="cls-13" d="M13.15 26.61l.18.17.84-.9.84.9.19-.17-1.03-1.1-1.02 1.1zm0 105.52l.18-.17.84.9.84-.9.19.17-1.03 1.1-1.02-1.1z"/><text class="cls-14" transform="rotate(-90 47.625 37.705)">760</text><text class="cls-14" transform="rotate(-90 11.2 1.28)">60</text><path class="cls-12" d="M14.17 8.5v8.24"/><path class="cls-13" d="M13.15 15.91l.18-.17.84.9.84-.9.19.17-1.03 1.1-1.02-1.1z"/><path class="cls-12" d="M14.17 25.51v-8.5"/><path d="M19.84 17.01V8.5m127.56 8.51V8.5" stroke-width=".25" stroke-miterlimit="1.41" stroke="#222221" fill="#fff"/><path class="cls-9" d="M147.13 11.34H20.11"/><path class="cls-10" d="M146.3 10.32l-.17.18.91.84-.91.84.17.18 1.1-1.02-1.1-1.02zm-125.36 0l.17.18-.9.84.9.84-.17.18-1.1-1.02 1.1-1.02z"/><text transform="translate(77.66 7.06)" font-size="7" font-family="Fakt-Normal,Fakt" fill="#222221">900</text><path class="cls-12" d="M14.17 133.23v14.17"/><text class="cls-14" transform="rotate(-90 81.495 71.575)">100รท160</text><path class="cls-9" d="M14.17 147.67v5.4"/><path class="cls-10" d="M13.15 148.5l.18.17.84-.9.84.9.19-.17-1.03-1.1-1.02 1.1z"/></g></svg>