<svg id="Piano" xmlns="http://www.w3.org/2000/svg" viewBox="0 0 113.28 99.21"><defs><style>.cls-4{stroke-linejoin:bevel}.cls-3,.cls-4{fill:#222221}.cls-4{stroke:#fff;stroke-width:.15px}</style></defs><path stroke-linejoin="bevel" fill="none" stroke="#222221" stroke-linecap="round" stroke-width=".25" d="M7.34 7.37h99.21v85.04H7.34z"/><path d="M9.56 10.31h94.9v79.94H9.56zm-2.22-.72h99.21m-96.99.78l-.57-.78m95.48.78l.57-.78M7.34 92.41l2.22-2.23m96.99 2.23l-2.08-2.23" stroke-linejoin="round" fill="none" stroke="#222221" stroke-linecap="round" stroke-width=".25"/><circle class="cls-3" cx="80.47" cy="70.12" r="4.25"/><path class="cls-4" d="M95 50.28H57.16V90h46.63V50.28zM98.94 69a.46.46 0 01-.29.25l-1.45.14c-.19 0-3.19.06-3.19.06a.37.37 0 00-.29.34v.58a.37.37 0 00.29.33s3 0 3.19.06 1.26.12 1.45.15a.46.46 0 01.29.25v15.1H95v-2a2.13 2.13 0 00-.67-1.51l-9.08-8.4a.55.55 0 00-.77 0 .54.54 0 000 .77l8.9 8.23a1.24 1.24 0 01.38.88v2h-12.2s-.22-.11-.25-.29-.13-1.25-.15-1.44-.06-.81-.06-.81a.37.37 0 00-.33-.29h-.59a.37.37 0 00-.34.29s0 .62-.06.81-.12 1.25-.15 1.44-.25.29-.25.29H67.16v-2a1.28 1.28 0 01.38-.88c.26-.23 8.9-8.23 8.9-8.23a.55.55 0 000-.77.56.56 0 00-.78 0l-9.08 8.4a2.22 2.22 0 00-.67 1.51v2H62V71.2a.46.46 0 01.29-.25c.19 0 1.26-.12 1.45-.15s3.19-.06 3.19-.06a.36.36 0 00.29-.33v-.58a.36.36 0 00-.29-.34s-3 0-3.19-.06l-1.45-.14A.46.46 0 0162 69V54h3.94v2a2.22 2.22 0 00.67 1.5l9.08 8.4a.54.54 0 10.75-.79l-8.9-8.24a1.24 1.24 0 01-.38-.87v-2h12.22s.23.1.25.29l.15 1.44c.02.19.06.81.06.81a.37.37 0 00.34.29h.59a.37.37 0 00.33-.29s0-.63.06-.81.12-1.25.15-1.44a.46.46 0 01.25-.29h12.22v2a1.2 1.2 0 01-.38.87l-8.9 8.24a.54.54 0 00.75.79l9.08-8.4A2.13 2.13 0 0095 56v-2h3.94z"/><path class="cls-3" d="M33.49 61.61A8.51 8.51 0 1042 70.12a8.51 8.51 0 00-8.51-8.51zm0 13.19a4.68 4.68 0 114.67-4.68 4.68 4.68 0 01-4.67 4.68zm0-1.49a3.19 3.19 0 113.19-3.19 3.19 3.19 0 01-3.19 3.19z"/><path class="cls-4" d="M48 50.28H10.17V90H56.8V50.28zM52 69s-.11.22-.29.25l-1.45.14c-.19 0-3.19.06-3.19.06a.38.38 0 00-.3.34v.58a.38.38 0 00.3.33s3 0 3.19.06 1.26.12 1.45.15.29.25.29.25v15.1h-4v-2a2.16 2.16 0 00-.66-1.51l-9.08-8.4a.56.56 0 00-.78 0 .54.54 0 000 .77s8.64 8 8.9 8.23a1.33 1.33 0 01.38.88v2H34.58s-.23-.11-.25-.29-.13-1.25-.15-1.44-.06-.81-.06-.81a.37.37 0 00-.34-.29h-.59a.37.37 0 00-.33.29s0 .62-.07.81-.12 1.25-.14 1.44-.25.29-.25.29H20.18v-2a1.24 1.24 0 01.38-.88l8.9-8.23a.54.54 0 000-.77.55.55 0 00-.77 0l-9.08 8.4a2.13 2.13 0 00-.61 1.48v2h-4V71.2a.49.49 0 01.3-.25c.19 0 1.26-.12 1.45-.15s3.25-.06 3.25-.06a.37.37 0 00.29-.33v-.58a.37.37 0 00-.29-.34s-3 0-3.19-.06l-1.45-.14A.49.49 0 0115 69V54h4v2a2.13 2.13 0 00.67 1.5l9.08 8.4a.54.54 0 10.75-.79l-8.9-8.24a1.2 1.2 0 01-.38-.87v-2H32.4a.46.46 0 01.25.29c0 .19.12 1.25.14 1.44s.07.81.07.81a.37.37 0 00.33.29h.59a.37.37 0 00.34-.29s0-.63.06-.81.12-1.25.15-1.44.25-.29.25-.29H46.8v2a1.28 1.28 0 01-.38.87l-8.9 8.24a.54.54 0 000 .77.55.55 0 00.78 0l9.08-8.4A2.16 2.16 0 0048 56v-2h4z"/><ellipse class="cls-3" cx="33.49" cy="30.43" rx="6.38" ry="6.31"/><path class="cls-4" d="M48 10.59H10.17v39.69H56.8V10.59zm4 18.76s-.11.23-.29.25-1.26.13-1.45.15-3.19.06-3.19.06a.38.38 0 00-.3.33v.58a.38.38 0 00.3.34s3 0 3.19.06 1.26.12 1.45.15.29.24.29.24v15.06h-4v-2a2.16 2.16 0 00-.66-1.5l-9.08-8.4a.55.55 0 00-.78 0 .54.54 0 000 .77l8.9 8.24a1.32 1.32 0 01.38.87v2H34.58s-.23-.1-.25-.29-.13-1.25-.15-1.43-.06-.81-.06-.81a.38.38 0 00-.34-.3h-.59a.38.38 0 00-.33.3s0 .62-.07.81-.12 1.24-.14 1.43a.46.46 0 01-.25.29H20.18v-2a1.23 1.23 0 01.38-.87l8.9-8.24a.54.54 0 10-.75-.79L19.63 43a2.13 2.13 0 00-.67 1.5v2H15V31.51a.45.45 0 01.3-.24c.19 0 1.26-.13 1.45-.15s3.25-.06 3.25-.06a.37.37 0 00.29-.34v-.58a.37.37 0 00-.29-.33s-3 0-3.19-.06-1.26-.12-1.45-.15-.3-.25-.3-.25V14.29h4v2a2.13 2.13 0 00.67 1.5l9.08 8.4a.55.55 0 00.77 0 .54.54 0 000-.77l-8.9-8.23a1.23 1.23 0 01-.38-.87v-2h12.1a.49.49 0 01.25.3c0 .18.12 1.24.14 1.43s.07.81.07.81a.36.36 0 00.33.29h.59a.36.36 0 00.34-.29s0-.62.06-.81.12-1.25.15-1.43.25-.3.25-.3H46.8v2a1.32 1.32 0 01-.38.87l-8.9 8.23a.54.54 0 000 .77.56.56 0 00.78 0l9.08-8.4a2.16 2.16 0 00.66-1.5v-2h4z"/><ellipse class="cls-3" cx="80.47" cy="30.43" rx="6.38" ry="6.31"/><path class="cls-4" d="M95 10.59H57.16v39.69h46.63V10.59zm3.94 18.76s-.1.23-.29.25l-1.45.15c-.19.02-3.19.06-3.19.06a.37.37 0 00-.29.33v.58a.37.37 0 00.29.34s3 0 3.19.06 1.26.12 1.45.15.29.24.29.24v15.06H95v-2a2.13 2.13 0 00-.67-1.5l-9.08-8.4a.54.54 0 00-.75.79l8.9 8.24a1.23 1.23 0 01.38.87v2H81.56a.46.46 0 01-.25-.29c0-.19-.13-1.25-.15-1.43S81.1 44 81.1 44a.38.38 0 00-.33-.3h-.59a.38.38 0 00-.34.3s0 .62-.06.81-.12 1.24-.15 1.43-.25.29-.25.29H67.16v-2a1.28 1.28 0 01.38-.87l8.9-8.24a.54.54 0 10-.75-.79L66.61 43a2.22 2.22 0 00-.67 1.5v2H62V31.51s.1-.22.29-.24l1.45-.15c.19-.02 3.19-.06 3.19-.06a.36.36 0 00.29-.34v-.58a.36.36 0 00-.29-.33s-3 0-3.19-.06-1.26-.12-1.45-.15-.29-.25-.29-.25V14.29h3.94v2a2.22 2.22 0 00.67 1.5l9.08 8.4a.56.56 0 00.78 0 .55.55 0 000-.77l-8.9-8.23a1.28 1.28 0 01-.38-.87v-2h12.19s.23.11.25.3l.15 1.43c.02.19.06.81.06.81a.36.36 0 00.34.29h.59a.36.36 0 00.33-.29s0-.62.06-.81.12-1.25.15-1.43a.49.49 0 01.25-.3h12.22v2a1.23 1.23 0 01-.38.87l-8.9 8.23a.54.54 0 000 .77.55.55 0 00.77 0l9.08-8.4a2.13 2.13 0 00.67-1.5v-2h3.94z"/></svg>