<svg xmlns="http://www.w3.org/2000/svg" viewBox="0 0 184.25 99.21"><defs><style>.cls-2{fill:none;stroke:#222221;stroke-linecap:round;stroke-width:.25px;stroke-linejoin:round}.cls-3,.cls-5{fill:#222221}.cls-5{stroke:#fff;stroke-miterlimit:10;stroke-width:.15px}.cls-6{fill:#fff}</style></defs><g id="Piano"><path stroke-linejoin="bevel" stroke-linecap="round" stroke-width=".25" fill="none" stroke="#222221" d="M7.09 7.09h170.08v85.04H7.09z"/><path class="cls-2" d="M7.09 9.31h170.08m-167.86.78l-.58-.78m166.35.78l.58-.78M7.09 92.13l2.22-2.23m167.86 2.23l-2.09-2.23M9.31 10.03h165.77v79.94H9.31z"/></g><g id="Bruciatori"><path class="cls-3" d="M174.54 10.81v78.37h-55.13V10.81h55.13m.5-.5h-56.13v79.37H175V10.31z"/><rect x="121.46" y="15.53" width="51.02" height="1.42" rx=".71" stroke-miterlimit="1.41" stroke-width=".49" fill="none" stroke="#222221"/><rect class="cls-2" x="126.26" y="82.97" width="4.25" height="1.42" rx=".71"/><rect class="cls-2" x="135.55" y="82.97" width="4.25" height="1.42" rx=".71"/><rect class="cls-2" x="144.85" y="82.97" width="4.25" height="1.42" rx=".71"/><rect class="cls-2" x="154.15" y="82.97" width="4.25" height="1.42" rx=".71"/><rect class="cls-2" x="163.45" y="82.97" width="4.25" height="1.42" rx=".71"/><circle class="cls-2" cx="146.98" cy="49.96" r="17.72"/><circle class="cls-2" cx="146.98" cy="49.96" r=".71"/><circle class="cls-2" cx="146.98" cy="49.96" r="16.72"/><circle class="cls-2" cx="146.98" cy="49.96" r="5.95"/><circle class="cls-2" cx="146.98" cy="49.96" r="8.15"/><circle class="cls-2" cx="146.98" cy="49.96" r="10.63"/><circle class="cls-2" cx="146.98" cy="49.96" r="13.11"/><circle class="cls-2" cx="146.98" cy="49.96" r="15.59"/><rect class="cls-3" x="60.7" y="33.69" width="7.57" height="32.6" rx="3.78"/><path class="cls-5" d="M51.38 10.35v79.36H77.6V10.35zM74.2 86.2H54.78V13.65H74.2z"/><path class="cls-3" d="M51.38 50.53l-.08-.08v-.92l.08-.08h7.65l.08.08v.92l-.08.08h-7.65z"/><path class="cls-6" d="M59 49.53v.92h-7.62v-.92H59m0-.15h-7.62l-.15.15v.92l.15.15H59l.15-.15v-.92l-.15-.15z"/><path class="cls-3" d="M51.38 70.36l-.08-.08v-.92l.08-.08h7.65l.08.08v.92l-.08.08h-7.65z"/><path class="cls-6" d="M59 69.36v.92h-7.62v-.92H59m0-.15h-7.62l-.15.15v.92l.15.15H59l.15-.15v-.92l-.15-.15z"/><path class="cls-3" d="M69.94 50.53l-.07-.08v-.92l.07-.08h7.66l.07.08v.92l-.07.08h-7.66z"/><path class="cls-6" d="M77.6 49.53v.92h-7.66v-.92h7.66m0-.15h-7.66l-.15.15v.92l.15.15h7.66l.15-.15v-.92l-.15-.15z"/><path class="cls-3" d="M69.94 70.36l-.07-.08v-.92l.07-.08h7.66l.07.08v.92l-.07.08h-7.66z"/><path class="cls-6" d="M77.6 69.36v.92h-7.66v-.92h7.66m0-.15h-7.66l-.15.15v.92l.15.15h7.66l.15-.15v-.92l-.15-.15z"/><path class="cls-3" d="M51.38 30.7l-.08-.08v-.92l.08-.08h7.65l.08.08v.92l-.08.08h-7.65z"/><path class="cls-6" d="M59 29.7v.92h-7.62v-.92H59m0-.15h-7.62l-.15.15v.92l.15.15H59l.15-.15v-.92l-.15-.15z"/><path class="cls-3" d="M51.38 20.73l-.08-.08v-.92l.08-.07H77.6l.07.07v.92l-.07.08H51.38z"/><path class="cls-6" d="M77.6 19.73v.92H51.38v-.92H77.6m0-.15H51.38l-.15.15v.92l.15.15H77.6l.15-.15v-.92l-.15-.15z"/><path class="cls-3" d="M51.38 80.33l-.08-.08v-.92l.08-.08H77.6l.07.08v.92l-.07.08H51.38z"/><path class="cls-6" d="M77.6 79.33v.92H51.38v-.92H77.6m0-.15H51.38l-.15.15v.92l.15.15H77.6l.15-.15v-.92l-.15-.15z"/><path class="cls-3" d="M69.94 30.7l-.07-.08v-.92l.07-.08h7.66l.07.08v.92l-.07.08h-7.66z"/><path class="cls-6" d="M77.6 29.7v.92h-7.66v-.92h7.66m0-.15h-7.66l-.15.15v.92l.15.15h7.66l.15-.15v-.92l-.15-.15z"/><circle class="cls-3" cx="30.19" cy="30.15" r="6.38"/><path class="cls-5" d="M10.06 10.31V50h40.25V10.31zm36.73 36.16h-33.2V13.84h33.2z"/><path class="cls-3" d="M23.88 24.88c-.07-.06-7.14-6.85-7.59-7.27a3.43 3.43 0 01-.79-2v-5.3l.08-.07h.92l.08.07v5.34a2 2 0 00.56 1.35l7.47 7.12v.11l-.63.67z"/><path class="cls-6" d="M16.5 10.31v5.34a2.12 2.12 0 00.59 1.35l7.47 7.13-.63.67s-7.14-6.8-7.59-7.24a3.36 3.36 0 01-.76-1.91v-5.34h.92m0-.15h-.92l-.15.15v5.34a3.45 3.45 0 00.81 2c.44.41 7.51 7.2 7.58 7.27H24l.63-.67v-.21l-7.47-7.13a2 2 0 01-.54-1.28v-5.32l-.15-.15z"/><path class="cls-3" d="M36.4 24.88l-.63-.67v-.11l7.47-7.1a2.1 2.1 0 00.56-1.34v-5.35l.08-.07h.92l.08.07v5.34a3.51 3.51 0 01-.79 2c-.45.42-7.52 7.21-7.59 7.27z"/><path class="cls-6" d="M44.8 10.31v5.34a3.31 3.31 0 01-.8 1.91l-7.58 7.27-.63-.67 7.5-7.16a2.12 2.12 0 00.59-1.38v-5.31h.92m0-.15h-.92l-.15.15v5.34a2 2 0 01-.54 1.27l-7.47 7.13v.21l.63.67h.21c.07-.07 7.14-6.86 7.59-7.27a3.44 3.44 0 00.81-2v-5.35l-.15-.15z"/><path class="cls-3" d="M43.88 50.07L43.8 50v-5.34a2.09 2.09 0 00-.56-1.33l-7.47-7.13v-.1l.63-.68h.1c.07.07 7.14 6.86 7.59 7.27a3.53 3.53 0 01.79 2V50l-.08.07z"/><path class="cls-6" d="M36.45 35.48L44 42.75a3.25 3.25 0 01.77 1.91V50h-.92v-5.34a2.15 2.15 0 00-.59-1.39c-.26-.23-7.47-7.12-7.47-7.12l.63-.67m.1-.11h-.21l-.63.68v.21c.07.07 7.21 6.89 7.47 7.12a2 2 0 01.54 1.29V50l.15.15h.92L45 50v-5.34a3.45 3.45 0 00-.81-2c-.45-.41-7.52-7.2-7.59-7.27z"/><path class="cls-3" d="M15.58 50.07L15.5 50v-5.34a3.46 3.46 0 01.79-2c.45-.41 7.52-7.2 7.59-7.27H24l.63.68v.1l-7.47 7.13a2 2 0 00-.56 1.34V50l-.08.07z"/><path class="cls-6" d="M23.93 35.48l.63.67-7.47 7.12a2.15 2.15 0 00-.59 1.39V50h-.92v-5.34a3.31 3.31 0 01.76-1.91c.45-.42 7.59-7.27 7.59-7.27m-.11-.11c-.07.07-7.14 6.86-7.58 7.27a3.44 3.44 0 00-.81 2V50l.15.15h.92l.15-.15v-5.34a2 2 0 01.54-1.28l7.47-7.12v-.21l-.66-.68z"/><path class="cls-3" d="M29.73 16.73l-.08-.08v-6.34l.08-.07h.92l.08.07v6.34l-.08.08h-.92z"/><path class="cls-6" d="M30.65 10.31v6.34h-.92v-6.34h.92m0-.15h-.92l-.15.15v6.34l.15.15h.92l.15-.15v-6.34l-.15-.15z"/><path class="cls-3" d="M29.73 50.07l-.08-.07v-6.35l.08-.07h.92l.08.07V50l-.08.07h-.92z"/><path class="cls-6" d="M30.65 43.65V50h-.92v-6.35h.92m0-.15h-.92l-.15.15V50l.15.15h.92l.15-.15v-6.35l-.15-.15z"/><path class="cls-3" d="M40.61 30.69l-.07-.07v-.93l.07-.07h9.7l.08.07v.93l-.08.07h-9.7z"/><path class="cls-6" d="M50.32 29.69v.93h-9.71v-.93h9.71m0-.15h-9.71l-.15.15v.93l.15.15h9.71l.15-.15v-.93l-.15-.15z"/><path class="cls-3" d="M10.06 30.69l-.07-.07v-.93l.07-.07h9.71l.07.07v.93l-.07.07h-9.71z"/><path class="cls-6" d="M19.77 29.69v.93h-9.71v-.93h9.71m0-.15h-9.71l-.15.15v.93l.15.15h9.71l.15-.15v-.93l-.15-.15z"/><path class="cls-3" d="M30.19 61.33a8.51 8.51 0 108.5 8.51 8.5 8.5 0 00-8.5-8.51zm0 13.19a4.68 4.68 0 114.68-4.68 4.69 4.69 0 01-4.68 4.68zm0-1.49a3.19 3.19 0 113.19-3.19A3.19 3.19 0 0130.19 73z"/><path class="cls-5" d="M10.06 50v39.68h40.25V50zm36.73 36.15h-33.2V53.53h33.2z"/><path class="cls-3" d="M23.88 64.57c-.07-.07-7.14-6.86-7.59-7.27a3.43 3.43 0 01-.79-2v-5.38h1.08v5.41a2 2 0 00.56 1.33l7.47 7.13.05.05-.73.78z"/><path class="cls-6" d="M16.5 50v5.33a2.12 2.12 0 00.59 1.39l7.47 7.12-.63.68s-7.14-6.86-7.59-7.28a3.31 3.31 0 01-.76-1.91V50h.92m.15-.15h-1.22v5.48a3.45 3.45 0 00.81 2l7.58 7.27.11.11.11-.11.63-.67.1-.11-.11-.1c-.07-.07-7.21-6.9-7.47-7.13a2 2 0 01-.54-1.29v-5.45z"/><path class="cls-3" d="M35.71 63.84l.06-.05 7.47-7.13a2.09 2.09 0 00.56-1.33v-5.41h1.08v5.41a3.51 3.51 0 01-.79 2c-.45.41-7.52 7.2-7.59 7.27v.05z"/><path class="cls-6" d="M44.8 50v5.33a3.25 3.25 0 01-.8 1.91l-7.58 7.28-.63-.68 7.47-7.12a2.12 2.12 0 00.59-1.39V50h.92m.15-.15h-1.19v5.48a2 2 0 01-.54 1.28c-.26.23-7.4 7.06-7.47 7.13l-.11.1.1.11.63.67.1.11.11-.11c.07-.06 7.14-6.85 7.59-7.27a3.44 3.44 0 00.81-2v-5.5z"/><path class="cls-3" d="M43.8 89.76v-5.41a2.12 2.12 0 00-.56-1.35l-7.47-7.12h-.06l.74-.79v.06c.07.07 7.14 6.85 7.59 7.27a3.51 3.51 0 01.79 2v5.42z"/><path class="cls-6" d="M36.45 75.16L44 82.43a3.31 3.31 0 01.77 1.92v5.33h-.92v-5.33a2.12 2.12 0 00-.56-1.35l-7.47-7.13.63-.67m0-.21l-.1.11-.63.67-.1.11.11.1 7.47 7.13a2 2 0 01.54 1.29v5.47H45v-5.52a3.5 3.5 0 00-.81-2c-.45-.41-7.52-7.2-7.59-7.27l-.11-.1z"/><path class="cls-3" d="M15.5 89.76v-5.41a3.44 3.44 0 01.79-2c.45-.42 7.52-7.2 7.59-7.27l.05-.06.73.79h-.05L17.14 83a2.07 2.07 0 00-.56 1.34v5.41z"/><path class="cls-6" d="M23.93 75.16l.63.67L17.09 83a2.12 2.12 0 00-.59 1.39v5.33h-.92v-5.37a3.36 3.36 0 01.76-1.92c.45-.42 7.59-7.27 7.59-7.27m0-.21l-.11.1c-.07.07-7.14 6.86-7.58 7.27a3.5 3.5 0 00-.81 2v5.49h1.22v-5.46a2 2 0 01.54-1.28l7.47-7.13.11-.1-.1-.11-.67-.67-.07-.06z"/><path class="cls-3" d="M29.65 49.92h1.07v6.49h-1.07z"/><path class="cls-6" d="M30.65 50v6.34h-.92V50h.92m.15-.15h-1.22v6.64h1.22v-6.64z"/><path class="cls-3" d="M29.65 83.26h1.07v6.49h-1.07z"/><path class="cls-6" d="M30.65 83.34v6.34h-.92v-6.34h.92m.15-.15h-1.22v6.64h1.22v-6.64z"/><path class="cls-3" d="M40.54 69.3h9.85v1.07h-9.85z"/><path class="cls-6" d="M50.32 69.38v.92h-9.71v-.92h9.71m.15-.15h-10v1.22h10v-1.22z"/><path class="cls-3" d="M9.99 69.3h9.85v1.07H9.99z"/><path class="cls-6" d="M19.77 69.38v.92h-9.71v-.92h9.71m.15-.15h-10v1.22h10v-1.22z"/><circle class="cls-3" cx="98.79" cy="30.15" r="6.38"/><path class="cls-5" d="M78.66 10.31V50h40.25V10.31zm36.72 36.16H82.19V13.84h33.19z"/><path class="cls-3" d="M92.48 24.88c-.08-.06-7.15-6.85-7.59-7.27a3.43 3.43 0 01-.79-2v-5.3l.08-.07h.92l.07.07v5.34a2.09 2.09 0 00.57 1.35l7.47 7.12v.11l-.63.67z"/><path class="cls-6" d="M85.1 10.31v5.34a2.12 2.12 0 00.59 1.35l7.47 7.13-.63.67s-7.14-6.8-7.59-7.24a3.45 3.45 0 01-.77-1.91v-5.34h.93m0-.15h-.93l-.15.15v5.34a3.46 3.46 0 00.82 2c.44.41 7.51 7.2 7.58 7.27h.22l.63-.67v-.21l-7.47-7.13a2 2 0 01-.54-1.28v-5.32l-.15-.15z"/><path class="cls-3" d="M105 24.88l-.63-.67v-.11l7.47-7.1a2.1 2.1 0 00.56-1.34v-5.35l.08-.07h.92l.08.07v5.34a3.45 3.45 0 01-.8 2l-7.58 7.27z"/><path class="cls-6" d="M113.4 10.31v5.34a3.31 3.31 0 01-.77 1.91c-.45.42-7.58 7.27-7.58 7.27l-.63-.67 7.47-7.16a2.22 2.22 0 00.59-1.38v-5.31h.92m0-.15h-.92l-.15.15v5.34a2 2 0 01-.54 1.27l-7.48 7.13v.21l.63.67h.21c.07-.07 7.14-6.86 7.59-7.27a3.44 3.44 0 00.81-2v-5.35l-.15-.15z"/><path class="cls-3" d="M112.48 50.07l-.08-.07v-5.34a2.09 2.09 0 00-.56-1.33l-7.47-7.13v-.1l.63-.68h.11c.07.07 7.14 6.86 7.58 7.27a3.48 3.48 0 01.8 2V50l-.08.07z"/><path class="cls-6" d="M105.05 35.48s7.13 6.85 7.58 7.27a3.25 3.25 0 01.77 1.91V50h-.92v-5.34a2.25 2.25 0 00-.59-1.39c-.26-.23-7.47-7.12-7.47-7.12l.63-.67m.1-.11h-.21l-.63.68v.21c.08.07 7.22 6.89 7.48 7.12a2 2 0 01.54 1.29V50l.15.15h.92l.15-.15v-5.34a3.45 3.45 0 00-.81-2c-.45-.41-7.52-7.2-7.59-7.27z"/><path class="cls-3" d="M84.18 50.07L84.1 50v-5.34a3.46 3.46 0 01.79-2c.44-.41 7.51-7.2 7.59-7.27h.1l.63.68v.1l-7.47 7.13a2.1 2.1 0 00-.57 1.34V50l-.07.07z"/><path class="cls-6" d="M92.53 35.48l.63.67-7.47 7.12a2.15 2.15 0 00-.59 1.39V50h-.93v-5.34a3.39 3.39 0 01.77-1.91c.45-.42 7.59-7.27 7.59-7.27m-.11-.11c-.07.07-7.14 6.86-7.58 7.27a3.38 3.38 0 00-.81 2V50l.15.15h.93l.15-.15v-5.34a2 2 0 01.54-1.28l7.47-7.12v-.21l-.63-.68z"/><path class="cls-3" d="M98.33 16.73l-.08-.08v-6.34l.08-.07h.92l.08.07v6.34l-.08.08h-.92z"/><path class="cls-6" d="M99.25 10.31v6.34h-.92v-6.34h.92m0-.15h-.92l-.15.15v6.34l.15.15h.92l.15-.15v-6.34l-.15-.15z"/><path class="cls-3" d="M98.33 50.07l-.08-.07v-6.35l.08-.07h.92l.08.07V50l-.08.07h-.92z"/><path class="cls-6" d="M99.25 43.65V50h-.92v-6.35h.92m0-.15h-.92l-.15.15V50l.15.15h.92l.15-.15v-6.35l-.15-.15z"/><path class="cls-3" d="M109.21 30.69l-.08-.07v-.93l.08-.07h9.7l.08.07v.93l-.08.07h-9.7z"/><path class="cls-6" d="M118.91 29.69v.93h-9.7v-.93h9.7m0-.15h-9.7l-.15.15v.93l.15.15h9.7l.15-.15v-.93l-.15-.15z"/><path class="cls-3" d="M78.66 30.69l-.07-.07v-.93l.07-.07h9.7l.08.07v.93l-.08.07h-9.7z"/><path class="cls-6" d="M88.37 29.69v.93h-9.71v-.93h9.71m0-.15h-9.71l-.15.15v.93l.15.15h9.71l.15-.15v-.93l-.15-.15z"/><circle class="cls-3" cx="98.79" cy="69.84" r="4.25"/><path class="cls-5" d="M78.66 50v39.68h40.25V50zm36.72 36.15H82.19V53.53h33.19z"/><path class="cls-3" d="M92.48 64.57c-.08-.07-7.15-6.86-7.59-7.27a3.43 3.43 0 01-.79-2V50l.08-.08h.92l.07.08v5.33a2.09 2.09 0 00.57 1.33l7.47 7.13v.11l-.63.67z"/><path class="cls-6" d="M85.1 50v5.33a2.12 2.12 0 00.59 1.39l7.47 7.12-.63.68s-7.14-6.86-7.59-7.28a3.39 3.39 0 01-.77-1.91V50h.93m0-.15h-.93L84 50v5.33a3.46 3.46 0 00.82 2l7.58 7.27h.22l.63-.67v-.21l-7.47-7.13a2 2 0 01-.54-1.29V50l-.15-.15z"/><path class="cls-3" d="M105 64.57l-.63-.67v-.11l7.47-7.13a2.09 2.09 0 00.56-1.33V50l.08-.08h.92l.08.08v5.33a3.45 3.45 0 01-.8 2c-.44.41-7.51 7.2-7.58 7.27z"/><path class="cls-6" d="M113.4 50v5.33a3.25 3.25 0 01-.77 1.91c-.45.42-7.58 7.28-7.58 7.28l-.63-.68 7.47-7.12a2.23 2.23 0 00.59-1.39V50h.92m0-.15h-.92l-.15.15v5.33a2 2 0 01-.54 1.28c-.26.23-7.4 7.06-7.48 7.13V64l.63.67h.21c.07-.06 7.14-6.85 7.59-7.27a3.44 3.44 0 00.81-2V50l-.15-.15z"/><path class="cls-3" d="M112.48 89.76l-.08-.08v-5.33a2.12 2.12 0 00-.56-1.34l-7.47-7.12v-.11l.63-.67h.11l7.58 7.27a3.45 3.45 0 01.8 2v5.34l-.08.08z"/><path class="cls-6" d="M105.05 75.16s7.13 6.85 7.58 7.27a3.31 3.31 0 01.77 1.92v5.33h-.92v-5.33a2.23 2.23 0 00-.59-1.39l-7.47-7.13.63-.67m.1-.11h-.21l-.63.67v.21l7.48 7.13a2 2 0 01.54 1.29v5.32l.15.15h.92l.15-.15v-5.32a3.5 3.5 0 00-.81-2c-.45-.41-7.52-7.2-7.59-7.27z"/><path class="cls-3" d="M84.18 89.76l-.08-.08v-5.33a3.44 3.44 0 01.79-2l7.59-7.27h.1l.63.67v.11L85.74 83a2.12 2.12 0 00-.57 1.34v5.33l-.07.08z"/><path class="cls-6" d="M92.53 75.16l.63.67L85.69 83a2.12 2.12 0 00-.59 1.39v5.33h-.93v-5.37a3.45 3.45 0 01.77-1.92c.45-.42 7.59-7.27 7.59-7.27m-.11-.11c-.07.07-7.14 6.86-7.58 7.27a3.43 3.43 0 00-.81 2v5.34l.15.15h.93l.15-.15v-5.31a2 2 0 01.54-1.28l7.47-7.13v-.21l-.63-.67z"/><path class="cls-3" d="M98.33 56.41l-.08-.07V50l.08-.08h.92l.08.08v6.34l-.08.07h-.92z"/><path class="cls-6" d="M99.25 50v6.34h-.92V50h.92m0-.15h-.92l-.15.15v6.34l.15.15h.92l.15-.15V50l-.15-.15z"/><path class="cls-3" d="M98.33 89.76l-.08-.08v-6.34l.08-.08h.92l.08.08v6.34l-.08.08h-.92z"/><path class="cls-6" d="M99.25 83.34v6.34h-.92v-6.34h.92m0-.15h-.92l-.15.15v6.34l.15.15h.92l.15-.15v-6.34l-.15-.15z"/><path class="cls-3" d="M109.21 70.38l-.08-.08v-.92l.08-.08h9.7l.08.08v.92l-.08.08h-9.7z"/><path class="cls-6" d="M118.91 69.38v.92h-9.7v-.92h9.7m0-.15h-9.7l-.15.15v.92l.15.15h9.7l.15-.15v-.92l-.15-.15z"/><path class="cls-3" d="M78.66 70.38l-.07-.08v-.92l.07-.08h9.7l.08.08v.92l-.08.08h-9.7z"/><path class="cls-6" d="M88.37 69.38v.92h-9.71v-.92h9.71m0-.15h-9.71l-.15.15v.92l.15.15h9.71l.15-.15v-.92l-.15-.15z"/></g></svg>