<svg xmlns="http://www.w3.org/2000/svg" viewBox="0 0 184.25 99.21"><defs><style>.cls-2,.cls-4{fill:none;stroke:#222221}.cls-2{stroke-linecap:round}.cls-2,.cls-4{stroke-width:.25px}.cls-2{stroke-linejoin:round}.cls-3,.cls-6{fill:#222221}.cls-4{stroke-miterlimit:3.86}.cls-6{stroke:#fff;stroke-miterlimit:10;stroke-width:.15px}.cls-7{fill:#fff}</style></defs><g id="Piano"><path stroke-width=".25" stroke-linejoin="bevel" stroke-linecap="round" fill="none" stroke="#222221" d="M7.09 7.09h170.08v85.04H7.09z"/><path class="cls-2" d="M7.09 9.31h170.08m-167.86.78l-.58-.78m166.35.78l.58-.78M7.09 92.13l2.22-2.23m167.86 2.23l-2.09-2.23M9.31 10.03h165.77v79.94H9.31z"/></g><g id="Bruciatori"><path class="cls-3" d="M174.37 10.81v78.37h-41.24V10.81h41.24m.5-.5h-42.24v79.37h42.24V10.31z"/><circle class="cls-2" cx="153.75" cy="27.32" r="15.59"/><circle class="cls-2" cx="153.75" cy="57.65" r="12.76"/><path class="cls-4" d="M132.63 80.9h42.24m-42.24-7.94h42.24"/><rect class="cls-4" x="150.2" y="83.73" width="7.1" height="2.69" rx=".44"/><path class="cls-3" d="M173.56 10.56v61H134v-61h39.61m.25-.25H133.7v61.51h40.11V10.31z"/><path stroke-width=".5" stroke-miterlimit="3.86" fill="none" stroke="#222221" d="M49.91 80.11h41.81"/><path class="cls-3" d="M91.22 10.81v78.37H50.41V10.81h40.81m.5-.5H49.91v79.37h41.81V10.31z"/><circle class="cls-3" cx="29.73" cy="30.15" r="6.38"/><path class="cls-6" d="M9.6 10.31V50h40.25V10.31zm36.72 36.16H13.13V13.84h33.19z"/><path class="cls-3" d="M23.41 24.88l-7.58-7.27a3.43 3.43 0 01-.79-2v-5.3l.07-.07H16l.07.07v5.34a2 2 0 00.61 1.35l7.47 7.12v.11l-.63.67z"/><path class="cls-7" d="M16 10.31v5.34a2.12 2.12 0 00.63 1.35l7.47 7.13-.63.67s-7.14-6.8-7.59-7.24a3.45 3.45 0 01-.77-1.91v-5.34H16m0-.15h-.93l-.15.15v5.34a3.46 3.46 0 00.82 2c.44.41 7.51 7.2 7.58 7.27h.22l.63-.67v-.21l-7.47-7.13a2 2 0 01-.54-1.28v-5.32l-.16-.15z"/><path class="cls-3" d="M35.93 24.88l-.63-.67v-.11l7.48-7.1a2.1 2.1 0 00.56-1.34v-5.35l.08-.07h.92l.07.07v5.34a3.37 3.37 0 01-.79 2L36 24.88z"/><path class="cls-7" d="M44.34 10.31v5.34a3.31 3.31 0 01-.77 1.91C43.12 18 36 24.83 36 24.83l-.63-.67L42.83 17a2.22 2.22 0 00.59-1.38v-5.31h.92m0-.15h-.92l-.15.15v5.34a2 2 0 01-.55 1.27l-7.47 7.13v.21l.63.67h.21c.07-.07 7.14-6.86 7.58-7.27a3.39 3.39 0 00.82-2v-5.35l-.15-.15z"/><path class="cls-3" d="M43.42 50.07l-.08-.07v-5.34a2.09 2.09 0 00-.56-1.33l-7.47-7.13v-.1l.63-.68H36c.07.07 7.14 6.86 7.58 7.27a3.4 3.4 0 01.79 2V50l-.07.07z"/><path class="cls-7" d="M36 35.48s7.13 6.85 7.58 7.27a3.25 3.25 0 01.77 1.91V50h-.92v-5.34a2.25 2.25 0 00-.59-1.39c-.26-.23-7.47-7.12-7.47-7.12l.63-.67m.1-.11h-.21l-.63.68v.21l7.47 7.12a2 2 0 01.55 1.29V50l.15.15h.92l.15-.15v-5.34a3.4 3.4 0 00-.82-2c-.44-.41-7.51-7.2-7.58-7.27z"/><path class="cls-3" d="M15.11 50.07L15 50v-5.34a3.46 3.46 0 01.79-2c.44-.41 7.51-7.2 7.58-7.27h.11l.63.68v.1l-7.47 7.13a2 2 0 00-.57 1.34V50l-.07.07z"/><path class="cls-7" d="M23.47 35.48l.63.67-7.47 7.12a2.15 2.15 0 00-.63 1.39V50h-.93v-5.34a3.39 3.39 0 01.77-1.91c.45-.42 7.59-7.27 7.59-7.27m-.11-.11c-.07.07-7.14 6.86-7.58 7.27a3.46 3.46 0 00-.82 2V50l.15.15H16l.15-.15v-5.34a2 2 0 01.54-1.28l7.47-7.12v-.21l-.63-.68z"/><path class="cls-3" d="M29.27 16.73l-.08-.08v-6.34l.08-.07h.92l.07.07v6.34l-.07.08h-.92z"/><path class="cls-7" d="M30.19 10.31v6.34h-.93v-6.34h.93m0-.15h-.93l-.15.15v6.34l.15.15h.93l.15-.15v-6.34l-.15-.15z"/><path class="cls-3" d="M29.27 50.07l-.08-.07v-6.35l.08-.07h.92l.07.07V50l-.07.07h-.92z"/><path class="cls-7" d="M30.19 43.65V50h-.93v-6.35h.93m0-.15h-.93l-.15.15V50l.15.15h.93l.15-.15v-6.35l-.15-.15z"/><path class="cls-3" d="M40.15 30.69l-.08-.07v-.93l.08-.07h9.7l.08.07v.93l-.08.07h-9.7z"/><path class="cls-7" d="M49.85 29.69v.93h-9.7v-.93h9.7m0-.15h-9.7l-.15.15v.93l.15.15h9.7l.15-.15v-.93l-.15-.15z"/><path class="cls-3" d="M9.6 30.69l-.07-.07v-.93l.07-.07h9.7l.08.07v.93l-.08.07H9.6z"/><path class="cls-7" d="M19.3 29.69v.93H9.6v-.93h9.7m0-.15H9.6l-.15.15v.93l.15.15h9.7l.15-.15v-.93l-.15-.15z"/><path class="cls-3" d="M29.73 61.33a8.51 8.51 0 108.5 8.51 8.51 8.51 0 00-8.5-8.51zm0 13.19a4.68 4.68 0 114.67-4.68 4.68 4.68 0 01-4.67 4.68zm0-1.49a3.19 3.19 0 113.19-3.19A3.19 3.19 0 0129.73 73z"/><path class="cls-6" d="M9.6 50v39.68h40.25V50zm36.72 36.15H13.13V53.53h33.19z"/><path class="cls-3" d="M23.41 64.57c-.07-.07-7.14-6.86-7.58-7.27a3.43 3.43 0 01-.79-2v-5.38h1.07v5.41a2 2 0 00.57 1.33l7.47 7.13.05.05-.73.78z"/><path class="cls-7" d="M16 50v5.33a2.12 2.12 0 00.59 1.39l7.47 7.12-.63.68s-7.14-6.86-7.59-7.28a3.39 3.39 0 01-.77-1.91V50H16m.15-.15H15v5.48a3.46 3.46 0 00.82 2l7.58 7.27.11.11.11-.11.63-.67.1-.11-.11-.1-7.47-7.13a2 2 0 01-.54-1.29v-5.45z"/><path class="cls-3" d="M35.25 63.84l.06-.05 7.47-7.13a2.09 2.09 0 00.56-1.33v-5.41h1.07v5.41a3.37 3.37 0 01-.79 2c-.44.41-7.51 7.2-7.58 7.27l-.06.05z"/><path class="cls-7" d="M44.34 50v5.33a3.25 3.25 0 01-.77 1.91c-.45.42-7.58 7.28-7.58 7.28l-.63-.68 7.47-7.12a2.23 2.23 0 00.59-1.39V50h.92m.15-.15h-1.22v5.48a2 2 0 01-.55 1.28l-7.47 7.13-.1.1.1.11.63.67.1.11.11-.11 7.58-7.27a3.39 3.39 0 00.82-2v-5.5z"/><path class="cls-3" d="M43.34 89.76v-5.41a2.07 2.07 0 00-.56-1.35l-7.47-7.13h-.06l.73-.78h.06l7.58 7.27a3.37 3.37 0 01.79 2v5.42z"/><path class="cls-7" d="M36 75.16s7.13 6.85 7.58 7.27a3.31 3.31 0 01.77 1.92v5.33h-.92v-5.33a2.23 2.23 0 00-.6-1.35l-7.47-7.13.63-.67M36 75l-.1.11-.63.67-.1.11.1.1 7.47 7.13a2 2 0 01.55 1.29v5.47h1.22v-5.53a3.45 3.45 0 00-.82-2c-.44-.41-7.51-7.2-7.58-7.27L36 75z"/><path class="cls-3" d="M15 89.76v-5.41a3.44 3.44 0 01.79-2l7.58-7.27h.06l.73.78h-.05s-7.18 6.91-7.43 7.14a2 2 0 00-.57 1.33v5.41z"/><path class="cls-7" d="M23.47 75.16l.63.67L16.63 83a2.12 2.12 0 00-.63 1.35v5.33h-.93v-5.33a3.45 3.45 0 01.77-1.92c.45-.42 7.59-7.27 7.59-7.27m0-.21l-.11.1c-.07.07-7.14 6.86-7.58 7.27a3.51 3.51 0 00-.82 2v5.49h1.23v-5.46a2 2 0 01.54-1.28l7.47-7.13.11-.1-.1-.11-.63-.67-.07-.06z"/><path class="cls-3" d="M29.19 49.92h1.07v6.49h-1.07z"/><path class="cls-7" d="M30.19 50v6.34h-.93V50h.93m.15-.15h-1.23v6.64h1.23v-6.64z"/><path class="cls-3" d="M29.19 83.26h1.07v6.49h-1.07z"/><path class="cls-7" d="M30.19 83.34v6.34h-.93v-6.34h.93m.15-.15h-1.23v6.64h1.23v-6.64z"/><path class="cls-3" d="M40.07 69.3h9.85v1.07h-9.85z"/><path class="cls-7" d="M49.85 69.38v.92h-9.7v-.92h9.7m.15-.15H40v1.22h10v-1.22z"/><path class="cls-3" d="M9.53 69.3h9.85v1.07H9.53z"/><path class="cls-7" d="M19.3 69.38v.92H9.6v-.92h9.7m.15-.15h-10v1.22h10v-1.22z"/><circle class="cls-3" cx="111.9" cy="30.15" r="6.38"/><path class="cls-6" d="M91.77 10.31V50H132V10.31zm36.72 36.16H95.3V13.84h33.19z"/><path class="cls-3" d="M105.59 24.88c-.08-.06-7.15-6.85-7.59-7.27a3.43 3.43 0 01-.79-2v-5.3l.07-.07h.93l.07.07v5.34a2.09 2.09 0 00.57 1.35l7.47 7.12v.11l-.63.67z"/><path class="cls-7" d="M98.21 10.31v5.34A2.12 2.12 0 0098.8 17l7.47 7.13-.63.67s-7.14-6.8-7.59-7.24a3.36 3.36 0 01-.76-1.91v-5.34h.92m0-.15h-.92l-.16.15v5.34a3.46 3.46 0 00.82 2c.44.41 7.51 7.2 7.58 7.27h.22l.63-.67v-.21l-7.48-7.12a2 2 0 01-.54-1.28v-5.33l-.15-.15z"/><path class="cls-3" d="M118.1 24.88l-.63-.67v-.11L125 17a2.1 2.1 0 00.56-1.34v-5.35l.08-.07h.92l.08.07v5.34a3.45 3.45 0 01-.8 2l-7.58 7.27z"/><path class="cls-7" d="M126.51 10.31v5.34a3.31 3.31 0 01-.77 1.91c-.45.42-7.58 7.27-7.58 7.27l-.63-.67L125 17a2.22 2.22 0 00.59-1.38v-5.31h.92m0-.15h-.92l-.15.15v5.34a2 2 0 01-.54 1.27l-7.48 7.13v.21l.63.67h.21c.07-.07 7.14-6.86 7.59-7.27a3.44 3.44 0 00.81-2v-5.35l-.15-.15z"/><path class="cls-3" d="M125.59 50.07l-.08-.07v-5.34a2.09 2.09 0 00-.56-1.33l-7.47-7.13v-.1l.63-.68h.11c.07.07 7.14 6.86 7.58 7.27a3.48 3.48 0 01.8 2V50l-.08.07z"/><path class="cls-7" d="M118.16 35.48s7.13 6.85 7.58 7.27a3.25 3.25 0 01.77 1.91V50h-.92v-5.34a2.25 2.25 0 00-.59-1.39c-.26-.23-7.47-7.12-7.47-7.12l.63-.67m.1-.11h-.21l-.63.68v.21c.08.07 7.22 6.89 7.48 7.12a2 2 0 01.54 1.29V50l.15.15h.92l.15-.15v-5.34a3.45 3.45 0 00-.81-2c-.45-.41-7.52-7.2-7.59-7.27z"/><path class="cls-3" d="M97.28 50.07l-.07-.07v-5.34a3.46 3.46 0 01.79-2c.44-.41 7.51-7.2 7.59-7.27h.1l.63.68v.1l-7.47 7.13a2.1 2.1 0 00-.57 1.34V50l-.07.07z"/><path class="cls-7" d="M105.64 35.48l.63.67-7.47 7.12a2.15 2.15 0 00-.59 1.39V50h-.92v-5.34a3.31 3.31 0 01.76-1.91c.45-.42 7.59-7.27 7.59-7.27m-.11-.11c-.07.07-7.14 6.86-7.58 7.27a3.38 3.38 0 00-.81 2V50l.16.15h.92l.15-.15v-5.34a2 2 0 01.54-1.28l7.47-7.12v-.21l-.63-.68z"/><path class="cls-3" d="M111.44 16.73l-.08-.08v-6.34l.08-.07h.92l.08.07v6.34l-.08.08h-.92z"/><path class="cls-7" d="M112.36 10.31v6.34h-.92v-6.34h.92m0-.15h-.92l-.15.15v6.34l.15.15h.92l.15-.15v-6.34l-.15-.15z"/><path class="cls-3" d="M111.44 50.07l-.08-.07v-6.35l.08-.07h.92l.08.07V50l-.08.07h-.92z"/><path class="cls-7" d="M112.36 43.65V50h-.92v-6.35h.92m0-.15h-.92l-.15.15V50l.15.15h.92l.15-.15v-6.35l-.15-.15z"/><path class="cls-3" d="M122.32 30.69l-.07-.07v-.93l.07-.07h9.7l.08.07v.93l-.08.07h-9.7z"/><path class="cls-7" d="M132 29.69v.93h-9.7v-.93h9.7m0-.15h-9.7l-.15.15v.93l.15.15h9.7l.15-.15v-.93l-.15-.15z"/><path class="cls-3" d="M91.77 30.69l-.07-.07v-.93l.07-.07h9.7l.08.07v.93l-.08.07h-9.7z"/><path class="cls-7" d="M101.48 29.69v.93h-9.71v-.93h9.71m0-.15h-9.71l-.15.15v.93l.15.15h9.71l.15-.15v-.93l-.15-.15z"/><circle class="cls-3" cx="111.9" cy="69.84" r="4.25"/><path class="cls-6" d="M91.77 50v39.68H132V50zm36.72 36.15H95.3V53.53h33.19z"/><path class="cls-3" d="M105.59 64.57c-.08-.07-7.15-6.86-7.59-7.27a3.43 3.43 0 01-.79-2V50l.07-.08h.93l.07.08v5.33a2.09 2.09 0 00.57 1.33l7.47 7.13v.11l-.63.67z"/><path class="cls-7" d="M98.21 50v5.33a2.12 2.12 0 00.59 1.39l7.47 7.12-.63.68s-7.14-6.86-7.59-7.28a3.31 3.31 0 01-.76-1.91V50h.92m0-.15h-.92l-.16.15v5.33a3.46 3.46 0 00.82 2l7.58 7.27h.22l.63-.67v-.21l-7.48-7.11a2 2 0 01-.54-1.29V50l-.15-.15z"/><path class="cls-3" d="M118.1 64.57l-.63-.67v-.11l7.53-7.13a2.09 2.09 0 00.56-1.33V50l.08-.08h.92l.08.08v5.33a3.48 3.48 0 01-.8 2c-.44.41-7.51 7.2-7.58 7.27z"/><path class="cls-7" d="M126.51 50v5.33a3.25 3.25 0 01-.77 1.91c-.45.42-7.58 7.28-7.58 7.28l-.63-.68 7.47-7.12a2.23 2.23 0 00.59-1.39V50h.92m0-.15h-.92l-.15.15v5.33a2 2 0 01-.54 1.28c-.26.23-7.4 7.06-7.48 7.13V64l.63.67h.21c.07-.06 7.14-6.85 7.59-7.27a3.44 3.44 0 00.81-2V50l-.15-.15z"/><path class="cls-3" d="M125.59 89.76l-.08-.08v-5.33A2.07 2.07 0 00125 83l-7.47-7.13v-.11l.63-.67h.11l7.58 7.27a3.45 3.45 0 01.8 2v5.34l-.08.08z"/><path class="cls-7" d="M118.16 75.16s7.13 6.85 7.58 7.27a3.31 3.31 0 01.77 1.92v5.33h-.92v-5.33A2.23 2.23 0 00125 83l-7.47-7.13.63-.67m.1-.11h-.21l-.63.67v.21l7.48 7.13a2 2 0 01.54 1.29v5.32l.15.15h.92l.15-.15v-5.36a3.5 3.5 0 00-.81-2c-.45-.41-7.52-7.2-7.59-7.27z"/><path class="cls-3" d="M97.28 89.76l-.07-.08v-5.33a3.44 3.44 0 01.79-2l7.59-7.27h.1l.63.67v.11S99.1 82.77 98.85 83a2 2 0 00-.57 1.33v5.33l-.07.08z"/><path class="cls-7" d="M105.64 75.16l.63.67L98.8 83a2.12 2.12 0 00-.59 1.39v5.33h-.92v-5.37a3.36 3.36 0 01.76-1.92c.45-.42 7.59-7.27 7.59-7.27m-.11-.11c-.07.07-7.14 6.86-7.58 7.27a3.43 3.43 0 00-.81 2v5.34l.16.15h.92l.15-.15v-5.31a2 2 0 01.54-1.28l7.47-7.13v-.21l-.63-.67z"/><path class="cls-3" d="M111.44 56.41l-.08-.07V50l.08-.08h.92l.08.08v6.34l-.08.07h-.92z"/><path class="cls-7" d="M112.36 50v6.34h-.92V50h.92m0-.15h-.92l-.15.15v6.34l.15.15h.92l.15-.15V50l-.15-.15z"/><path class="cls-3" d="M111.44 89.76l-.08-.08v-6.34l.08-.08h.92l.08.08v6.34l-.08.08h-.92z"/><path class="cls-7" d="M112.36 83.34v6.34h-.92v-6.34h.92m0-.15h-.92l-.15.15v6.34l.15.15h.92l.15-.15v-6.34l-.15-.15z"/><path class="cls-3" d="M122.32 70.38l-.07-.08v-.92l.07-.08h9.7l.08.08v.92l-.08.08h-9.7z"/><path class="cls-7" d="M132 69.38v.92h-9.7v-.92h9.7m0-.15h-9.7l-.15.15v.92l.15.15h9.7l.15-.15v-.92l-.15-.15z"/><path class="cls-3" d="M91.77 70.38l-.07-.08v-.92l.07-.08h9.7l.08.08v.92l-.08.08h-9.7z"/><path class="cls-7" d="M101.48 69.38v.92h-9.71v-.92h9.71m0-.15h-9.71l-.15.15v.92l.15.15h9.71l.15-.15v-.92l-.15-.15z"/></g></svg>