<svg xmlns="http://www.w3.org/2000/svg" viewBox="0 0 192.76 153.07"><defs><style>.cls-1,.cls-10,.cls-2,.cls-3,.cls-4,.cls-8{fill:none}.cls-1,.cls-2,.cls-3,.cls-4,.cls-7,.cls-8{stroke:#222221}.cls-1,.cls-3{stroke-miterlimit:1.4}.cls-1{stroke-width:.3px}.cls-2{stroke-miterlimit:10}.cls-2,.cls-8{stroke-width:.5px}.cls-10,.cls-3,.cls-4{stroke-width:.25px}.cls-10,.cls-4,.cls-7,.cls-8{stroke-miterlimit:1.41}.cls-14,.cls-7{fill:#222221}.cls-7{stroke-width:.2px}.cls-10{stroke:#20201f}.cls-11,.cls-12{fill:#20201f}.cls-12{font-size:7px;font-family:Fakt-Normal,Fakt}</style></defs><g id="Ranges"><path class="cls-1" d="M33.76 55.21h2.88v3.44h-2.88zm98.26 0h2.88v3.44h-2.88zm15.2 0h2.88v3.44h-2.88zm25.85 0h2.88v3.44h-2.88z"/><path class="cls-2" d="M179.08 146.28h6.1v1.12h-6.1zm-.41-13.05h6.91v13.05h-6.91zM24.59 146.28h6.1v1.12h-6.1zm-.41-13.05h6.91v13.05h-6.91zM19.84 17.01h170.08v116.22H19.84zm0 8.5h170.08M19.84 31.18h170.08"/><path class="cls-2" d="M55.19 38.89A3.06 3.06 0 1158.25 42a3.05 3.05 0 01-3.06-3.11zm10.65 0A3.06 3.06 0 1168.9 42a3.05 3.05 0 01-3.06-3.11zm10.65 0A3.06 3.06 0 1179.55 42a3.05 3.05 0 01-3.06-3.11zm10.65 0A3.06 3.06 0 1190.2 42a3.05 3.05 0 01-3.06-3.11zm10.65 0a3.06 3.06 0 113.06 3.11 3.05 3.05 0 01-3.06-3.11zm10.65 0A3.06 3.06 0 11111.5 42a3.05 3.05 0 01-3.06-3.11zm10.66 0a3.06 3.06 0 113.05 3.11 3 3 0 01-3.05-3.11zm26.71 0a3.06 3.06 0 113.05 3.11 3 3 0 01-3.05-3.11zm10.65 0a3.06 3.06 0 113.06 3.11 3.05 3.05 0 01-3.06-3.11zm10.65 0a3.06 3.06 0 113.06 3.11 3.05 3.05 0 01-3.06-3.11z"/><rect class="cls-2" x="33.76" y="35.24" width="10.94" height="7.3" rx="1.82"/><path class="cls-3" d="M35.23 40.84a.49.49 0 11.49.49.49.49 0 01-.49-.49zm1.77 0a.49.49 0 11.49.49.49.49 0 01-.49-.49zm1.81 0a.49.49 0 11.49.49.49.49 0 01-.49-.49z"/><path class="cls-4" d="M40.6 40.84a.49.49 0 11.49.49.49.49 0 01-.49-.49zm1.79 0a.49.49 0 01.49-.49.49.49 0 010 1 .49.49 0 01-.49-.51z"/><rect class="cls-3" x="36.16" y="36.89" width="5.96" height="1.84" rx=".61"/><path class="cls-2" d="M141.02 111.97v-61.8"/><path d="M27.64 133.23V31.18m154.49 102.05V31.18" stroke-width=".5" stroke-miterlimit="1.4" stroke="#222221" fill="none"/><path d="M30.76 53.97h107.15v3.54H30.76zm113.44 0h34.75v3.54H144.2z" fill="#fff" stroke-width=".3" stroke-miterlimit="1.4" stroke="#222221"/><path class="cls-7" d="M67.04 25.44v-2.95h15.14l-4.66 1.12h-7.09v1.83h-3.39zm0 .03v-2.98H51.67l4.63 1.13h7.04v1.85h3.7zm38.46-.05v-2.95h15.14l-4.66 1.12h-7.09v1.83h-3.39zm0 .03v-2.98H90.13l4.63 1.14h7.04v1.84h3.7zm-77.58.06v-2.98h15.03l-4.62 1.13h-7.04v1.85h-3.37zm19.22-3.02h.91v2.98h-.91zm38.73 0h.91v2.98h-.91zm37.82 0h.91v2.98h-.91zm19.45 2.94v-2.97h-15.36l4.62 1.13h7.04v1.84h3.7zm38.99-.03v-2.94h-15.49l4.66 1.11h7.1v1.83h3.73zm-20.03-2.94h.91v2.94h-.91zm-18.96 2.94v-2.94h15.14l-4.66 1.11h-7.09v1.83h-3.39z"/><path class="cls-7" d="M152.08 22.46h21.95v1.12h-21.95z"/><rect class="cls-8" x="45.07" y="65.85" width="78.52" height="28.91" rx="1.23"/><rect class="cls-8" x="151.23" y="65.85" width="20.69" height="28.91" rx="1.26"/><path class="cls-2" d="M27.64 111.97h154.49m-154.49 4.25h154.49m-154.49 2.14h154.49"/><path class="cls-1" d="M27.73 46.64h154.3m-154.3 2.12h154.3"/><path class="cls-2" d="M27.73 50.17h154.3"/></g><g id="Dimensions"><path d="M24.29 147.4H11.34m8.5-14.17h-8.5m8.5-116.22h-8.5m8.5 8.5h-8.5" stroke="#20201f" fill="#fff" stroke-miterlimit="1.41" stroke-width=".25"/><path class="cls-10" d="M14.17 25.78v107.18"/><path class="cls-11" d="M13.15 26.61l.18.17.84-.9.84.9.19-.17-1.03-1.1-1.02 1.1zm0 105.52l.18-.17.84.9.84-.9.19.17-1.03 1.1-1.02-1.1z"/><text class="cls-12" transform="rotate(-90 47.625 37.705)">760</text><text class="cls-12" transform="rotate(-90 11.2 1.28)">60</text><path class="cls-10" d="M14.17 8.5v8.24"/><path class="cls-11" d="M13.15 15.91l.18-.17.84.9.84-.9.19.17-1.03 1.1-1.02-1.1z"/><path class="cls-10" d="M14.17 25.51v-8.5"/><path d="M19.84 17.01V8.5m170.08 8.51V8.5" fill="#fff" stroke-miterlimit="1.41" stroke-width=".25" stroke="#222221"/><path class="cls-4" d="M189.65 11.34H20.11"/><path class="cls-14" d="M188.82 10.32l-.17.18.91.84-.91.84.17.18 1.1-1.02-1.1-1.02zm-167.88 0l.17.18-.9.84.9.84-.17.18-1.1-1.02 1.1-1.02z"/><text transform="translate(96.93 7.06)" font-size="7" font-family="Fakt-Normal,Fakt" fill="#222221">1200</text><path class="cls-10" d="M14.17 133.23v14.17"/><text class="cls-12" transform="rotate(-90 81.495 71.575)">100รท160</text><path class="cls-4" d="M14.17 147.67v5.4"/><path class="cls-14" d="M13.15 148.5l.18.17.84-.9.84.9.19-.17-1.03-1.1-1.02 1.1z"/></g></svg>