<svg id="Black" xmlns="http://www.w3.org/2000/svg" viewBox="0 0 184.25 184.25">
  <defs>
    <style>
      .cls-1 {
        fill: none;
        stroke: #222221;
        stroke-miterlimit: 10;
        stroke-width: 2px;
      }
    </style>
  </defs>
  <circle class="cls-1" cx="92.13" cy="92.13" r="89.29" transform="translate(-38.16 92.13) rotate(-45)"/>
  <g>
    <g>
      <line class="cls-1" x1="60.75" y1="46.35" x2="60.75" y2="95.91"/>
      <line class="cls-1" x1="84.86" y1="71.1" x2="36.24" y2="71.1"/>
      <line class="cls-1" x1="77.94" y1="53.61" x2="43.56" y2="88.65"/>
      <line class="cls-1" x1="77.94" y1="88.65" x2="43.56" y2="53.61"/>
      <line class="cls-1" x1="60.75" y1="52.5" x2="57.4" y2="49.09"/>
      <line class="cls-1" x1="60.75" y1="52.5" x2="64.09" y2="49.09"/>
      <line class="cls-1" x1="60.75" y1="60.22" x2="56.15" y2="55.53"/>
      <line class="cls-1" x1="60.75" y1="60.22" x2="65.35" y2="55.53"/>
      <line class="cls-1" x1="60.75" y1="89.76" x2="64.09" y2="93.17"/>
      <line class="cls-1" x1="60.75" y1="89.76" x2="57.4" y2="93.17"/>
      <line class="cls-1" x1="60.75" y1="82.04" x2="65.35" y2="86.73"/>
      <line class="cls-1" x1="60.75" y1="82.04" x2="56.15" y2="86.73"/>
      <line class="cls-1" x1="74.3" y1="57.32" x2="74.3" y2="52.5"/>
      <line class="cls-1" x1="74.3" y1="57.32" x2="79.03" y2="57.32"/>
      <line class="cls-1" x1="68.94" y1="62.78" x2="68.94" y2="56.15"/>
      <line class="cls-1" x1="68.94" y1="62.78" x2="75.45" y2="62.78"/>
      <line class="cls-1" x1="47.11" y1="85.05" x2="47.11" y2="89.87"/>
      <line class="cls-1" x1="47.11" y1="85.05" x2="42.38" y2="85.05"/>
      <line class="cls-1" x1="52.47" y1="79.59" x2="52.47" y2="86.22"/>
      <line class="cls-1" x1="52.47" y1="79.59" x2="45.97" y2="79.59"/>
      <line class="cls-1" x1="74.1" y1="84.72" x2="78.83" y2="84.72"/>
      <line class="cls-1" x1="74.1" y1="84.72" x2="74.1" y2="89.54"/>
      <line class="cls-1" x1="68.74" y1="79.25" x2="75.25" y2="79.25"/>
      <line class="cls-1" x1="68.74" y1="79.25" x2="68.74" y2="85.89"/>
      <line class="cls-1" x1="47.11" y1="57.21" x2="42.38" y2="57.21"/>
      <line class="cls-1" x1="47.11" y1="57.21" x2="47.11" y2="52.38"/>
      <line class="cls-1" x1="52.47" y1="62.67" x2="45.97" y2="62.67"/>
      <line class="cls-1" x1="52.47" y1="62.67" x2="52.47" y2="56.04"/>
      <line class="cls-1" x1="79.85" y1="71.13" x2="83.2" y2="67.72"/>
      <line class="cls-1" x1="79.85" y1="71.13" x2="83.2" y2="74.54"/>
      <line class="cls-1" x1="72.28" y1="71.13" x2="76.88" y2="66.44"/>
      <line class="cls-1" x1="72.28" y1="71.13" x2="76.88" y2="75.82"/>
      <line class="cls-1" x1="41.25" y1="71.13" x2="37.9" y2="74.54"/>
      <line class="cls-1" x1="41.25" y1="71.13" x2="37.9" y2="67.72"/>
      <line class="cls-1" x1="48.82" y1="71.13" x2="44.22" y2="75.82"/>
      <line class="cls-1" x1="48.82" y1="71.13" x2="44.22" y2="66.44"/>
    </g>
    <g>
      <line class="cls-1" x1="123.9" y1="46.35" x2="123.9" y2="95.91"/>
      <line class="cls-1" x1="148.01" y1="71.1" x2="99.4" y2="71.1"/>
      <line class="cls-1" x1="141.09" y1="53.61" x2="106.71" y2="88.65"/>
      <line class="cls-1" x1="141.09" y1="88.65" x2="106.71" y2="53.61"/>
      <line class="cls-1" x1="123.9" y1="52.5" x2="120.56" y2="49.09"/>
      <line class="cls-1" x1="123.9" y1="52.5" x2="127.24" y2="49.09"/>
      <line class="cls-1" x1="123.9" y1="60.22" x2="119.3" y2="55.53"/>
      <line class="cls-1" x1="123.9" y1="60.22" x2="128.5" y2="55.53"/>
      <line class="cls-1" x1="123.9" y1="89.76" x2="127.24" y2="93.17"/>
      <line class="cls-1" x1="123.9" y1="89.76" x2="120.56" y2="93.17"/>
      <line class="cls-1" x1="123.9" y1="82.04" x2="128.5" y2="86.73"/>
      <line class="cls-1" x1="123.9" y1="82.04" x2="119.3" y2="86.73"/>
      <line class="cls-1" x1="137.45" y1="57.32" x2="137.45" y2="52.5"/>
      <line class="cls-1" x1="137.45" y1="57.32" x2="142.18" y2="57.32"/>
      <line class="cls-1" x1="132.09" y1="62.78" x2="132.09" y2="56.15"/>
      <line class="cls-1" x1="132.09" y1="62.78" x2="138.6" y2="62.78"/>
      <line class="cls-1" x1="110.26" y1="85.05" x2="110.26" y2="89.87"/>
      <line class="cls-1" x1="110.26" y1="85.05" x2="105.54" y2="85.05"/>
      <line class="cls-1" x1="115.62" y1="79.59" x2="115.62" y2="86.22"/>
      <line class="cls-1" x1="115.62" y1="79.59" x2="109.12" y2="79.59"/>
      <line class="cls-1" x1="137.25" y1="84.72" x2="141.98" y2="84.72"/>
      <line class="cls-1" x1="137.25" y1="84.72" x2="137.25" y2="89.54"/>
      <line class="cls-1" x1="131.89" y1="79.25" x2="138.4" y2="79.25"/>
      <line class="cls-1" x1="131.89" y1="79.25" x2="131.89" y2="85.89"/>
      <line class="cls-1" x1="110.26" y1="57.21" x2="105.54" y2="57.21"/>
      <line class="cls-1" x1="110.26" y1="57.21" x2="110.26" y2="52.38"/>
      <line class="cls-1" x1="115.62" y1="62.67" x2="109.12" y2="62.67"/>
      <line class="cls-1" x1="115.62" y1="62.67" x2="115.62" y2="56.04"/>
      <line class="cls-1" x1="143" y1="71.13" x2="146.35" y2="67.72"/>
      <line class="cls-1" x1="143" y1="71.13" x2="146.35" y2="74.54"/>
      <line class="cls-1" x1="135.43" y1="71.13" x2="140.03" y2="66.44"/>
      <line class="cls-1" x1="135.43" y1="71.13" x2="140.03" y2="75.82"/>
      <line class="cls-1" x1="104.4" y1="71.13" x2="101.05" y2="74.54"/>
      <line class="cls-1" x1="104.4" y1="71.13" x2="101.05" y2="67.72"/>
      <line class="cls-1" x1="111.97" y1="71.13" x2="107.38" y2="75.82"/>
      <line class="cls-1" x1="111.97" y1="71.13" x2="107.38" y2="66.44"/>
    </g>
    <g>
      <line class="cls-1" x1="92.81" y1="97.88" x2="92.81" y2="147.44"/>
      <line class="cls-1" x1="116.92" y1="122.64" x2="68.31" y2="122.64"/>
      <line class="cls-1" x1="110" y1="105.14" x2="75.62" y2="140.18"/>
      <line class="cls-1" x1="110" y1="140.18" x2="75.62" y2="105.14"/>
      <line class="cls-1" x1="92.81" y1="104.03" x2="89.47" y2="100.62"/>
      <line class="cls-1" x1="92.81" y1="104.03" x2="96.16" y2="100.62"/>
      <line class="cls-1" x1="92.81" y1="111.75" x2="88.21" y2="107.06"/>
      <line class="cls-1" x1="92.81" y1="111.75" x2="97.41" y2="107.06"/>
      <line class="cls-1" x1="92.81" y1="141.29" x2="96.16" y2="144.7"/>
      <line class="cls-1" x1="92.81" y1="141.29" x2="89.47" y2="144.7"/>
      <line class="cls-1" x1="92.81" y1="133.57" x2="97.41" y2="138.26"/>
      <line class="cls-1" x1="92.81" y1="133.57" x2="88.21" y2="138.26"/>
      <line class="cls-1" x1="106.36" y1="108.85" x2="106.36" y2="104.03"/>
      <line class="cls-1" x1="106.36" y1="108.85" x2="111.09" y2="108.85"/>
      <line class="cls-1" x1="101" y1="114.31" x2="101" y2="107.68"/>
      <line class="cls-1" x1="101" y1="114.31" x2="107.51" y2="114.31"/>
      <line class="cls-1" x1="79.18" y1="136.58" x2="79.18" y2="141.4"/>
      <line class="cls-1" x1="79.18" y1="136.58" x2="74.45" y2="136.58"/>
      <line class="cls-1" x1="84.53" y1="131.12" x2="84.53" y2="137.75"/>
      <line class="cls-1" x1="84.53" y1="131.12" x2="78.03" y2="131.12"/>
      <line class="cls-1" x1="106.16" y1="136.25" x2="110.89" y2="136.25"/>
      <line class="cls-1" x1="106.16" y1="136.25" x2="106.16" y2="141.07"/>
      <line class="cls-1" x1="100.8" y1="130.79" x2="107.31" y2="130.79"/>
      <line class="cls-1" x1="100.8" y1="130.79" x2="100.8" y2="137.42"/>
      <line class="cls-1" x1="79.18" y1="108.74" x2="74.45" y2="108.74"/>
      <line class="cls-1" x1="79.18" y1="108.74" x2="79.18" y2="103.92"/>
      <line class="cls-1" x1="84.53" y1="114.2" x2="78.03" y2="114.2"/>
      <line class="cls-1" x1="84.53" y1="114.2" x2="84.53" y2="107.57"/>
      <line class="cls-1" x1="111.92" y1="122.66" x2="115.26" y2="119.25"/>
      <line class="cls-1" x1="111.92" y1="122.66" x2="115.26" y2="126.07"/>
      <line class="cls-1" x1="104.34" y1="122.66" x2="108.94" y2="117.97"/>
      <line class="cls-1" x1="104.34" y1="122.66" x2="108.94" y2="127.35"/>
      <line class="cls-1" x1="73.31" y1="122.66" x2="69.97" y2="126.07"/>
      <line class="cls-1" x1="73.31" y1="122.66" x2="69.97" y2="119.25"/>
      <line class="cls-1" x1="80.89" y1="122.66" x2="76.29" y2="127.35"/>
      <line class="cls-1" x1="80.89" y1="122.66" x2="76.29" y2="117.97"/>
    </g>
  </g>
</svg>
