<svg xmlns="http://www.w3.org/2000/svg" viewBox="0 0 226.77 113.39"><defs><style>.cls-1{fill:#222221}.cls-4{fill:none;stroke:#222221}.cls-3{fill:#fff}.cls-4{stroke-miterlimit:3.86;stroke-width:.5px}</style></defs><g id="Piano"><path class="cls-1" d="M220 7.59v95.35c0 1-1.33 2.86-3.77 2.86H10.58c-2.44 0-3.77-1.89-3.77-2.86V7.59H220m.5-.5H6.31v95.85c0 1.29 1.58 3.36 4.27 3.36h205.61c2.69 0 4.27-2.07 4.27-3.36V7.09z"/><path stroke-linejoin="round" stroke-width=".25" fill="none" stroke="#222221" d="M6.31 9.21h214.15"/></g><g id="Bruciatori_e_griglie" data-name="Bruciatori e griglie"><circle class="cls-1" cx="33.59" cy="38.13" r="6.38"/><path class="cls-1" d="M9.42 58V18.21h48.34V58zm43.31-3.68V21.89H14.45v32.47z"/><path class="cls-3" d="M57.69 18.28V58H9.5V18.28h48.19M14.37 54.44h38.44V21.81H14.37v32.63m43.47-36.31H9.35v40h48.49v-40zM14.52 22h38.14v32.29H14.52V22z"/><path class="cls-1" d="M46.76 38.66l-.07-.07v-.93l.07-.07h10.93l.07.07v.93l-.07.07H46.76z"/><path class="cls-3" d="M57.69 37.66v.93H46.76v-.93h10.93m0-.15H46.76l-.15.15v.93l.15.15h10.93l.15-.15v-.93l-.15-.15z"/><path class="cls-1" d="M9.5 38.66l-.08-.07v-.93l.08-.07h10.92l.07.07v.93l-.07.07H9.5z"/><path class="cls-3" d="M20.42 37.66v.93H9.5v-.93h10.92m0-.15H9.5l-.15.15v.93l.15.15h10.92l.15-.15v-.93l-.15-.15z"/><path class="cls-1" d="M27.28 32.86c-.07-.07-7.14-6.86-7.59-7.27a3.53 3.53 0 01-.79-2v-5.31l.08-.07h.92l.08.07v5.34a2.09 2.09 0 00.56 1.38L28 32.08v.1l-.63.67z"/><path class="cls-3" d="M19.9 18.28v5.34a2.09 2.09 0 00.59 1.38L28 32.13l-.63.67-7.58-7.27a3.25 3.25 0 01-.79-1.91v-5.34h.92m0-.15H19l-.15.15v5.34a3.45 3.45 0 00.81 2c.45.41 7.51 7.2 7.59 7.27h.21l.63-.68V32l-7.47-7.13a2 2 0 01-.54-1.28v-5.31l-.15-.15z"/><path class="cls-1" d="M39.8 32.85l-.63-.67v-.1L46.64 25a2.1 2.1 0 00.56-1.34v-5.38l.08-.07h.92l.08.07v5.34a3.46 3.46 0 01-.79 2C47 26 40 32.79 39.9 32.86z"/><path class="cls-3" d="M48.2 18.28v5.34a3.31 3.31 0 01-.76 1.91c-.44.47-7.59 7.27-7.59 7.27l-.63-.67L46.69 25a2.09 2.09 0 00.59-1.38v-5.34h.92m0-.15h-.92l-.15.15v5.34a2 2 0 01-.54 1.27L39.12 32v.21l.63.68H40c.08-.07 7.14-6.86 7.59-7.27a3.44 3.44 0 00.81-2v-5.34l-.15-.15z"/><path class="cls-1" d="M47.28 58h-.08v-5.37a2.09 2.09 0 00-.56-1.33l-7.47-7.13v-.1l.63-.67h.1c.07.07 7.14 6.86 7.59 7.28a3.43 3.43 0 01.79 2V58h-.08z"/><path class="cls-3" d="M39.85 43.45s7.15 6.85 7.59 7.27a3.33 3.33 0 01.76 1.91V58h-.92v-5.37a2.12 2.12 0 00-.59-1.38l-7.47-7.13.63-.67m.1-.11h-.21l-.63.67v.21l7.47 7.13a2 2 0 01.54 1.28V58l.15.15h.92l.15-.15v-5.37a3.45 3.45 0 00-.81-2c-.45-.41-7.51-7.2-7.59-7.27z"/><path class="cls-1" d="M19 58h-.1v-5.37a3.51 3.51 0 01.79-2c.45-.42 7.52-7.21 7.59-7.28h.1l.63.67v.1l-7.47 7.18a2.1 2.1 0 00-.54 1.34V58h-.1z"/><path class="cls-3" d="M27.33 43.45l.63.67-7.47 7.13a2.12 2.12 0 00-.59 1.38V58H19v-5.37a3.28 3.28 0 01.77-1.91l7.58-7.27m-.1-.11c-.08.07-7.14 6.86-7.59 7.27a3.44 3.44 0 00-.81 2V58l.15.15h.92l.15-.15v-5.37a2 2 0 01.54-1.27l7.47-7.13V44l-.63-.67z"/><path class="cls-1" d="M33.13 24.7l-.08-.07v-6.35l.08-.07h.92l.08.07v6.35l-.08.07h-.92z"/><path class="cls-3" d="M34.05 18.28v6.35h-.92v-6.35h.92m0-.15h-.92l-.15.15v6.35l.15.15h.92l.15-.15v-6.35l-.15-.15z"/><path class="cls-1" d="M33.13 58.04l-.08-.07v-6.34l.08-.08h.92l.08.08v6.34l-.08.07h-.92z"/><path class="cls-3" d="M34.05 51.63V58h-.92v-6.37h.92m0-.15h-.92l-.15.15V58l.15.15h.92l.15-.15v-6.37l-.15-.15z"/><circle class="cls-1" cx="110.13" cy="38.13" r="6.38"/><path class="cls-1" d="M86 58V18.21h48.3V58zm43.31-3.68V21.89H91v32.47z"/><path class="cls-3" d="M134.22 18.28V58H86V18.28h48.19M90.91 54.44h38.43V21.81H90.91v32.63m43.46-36.31H85.88v40h48.49v-40zM91.06 22h38.13v32.29H91.06V22z"/><path class="cls-1" d="M123.3 38.66l-.08-.07v-.93l.08-.07h10.92l.08.07v.93l-.08.07H123.3z"/><path class="cls-3" d="M134.22 37.66v.93H123.3v-.93h10.92m0-.15H123.3l-.15.15v.93l.15.15h10.92l.15-.15v-.93l-.15-.15z"/><path class="cls-1" d="M86.03 38.66l-.07-.07v-.93l.07-.07h10.92l.08.07v.93l-.08.07H86.03z"/><path class="cls-3" d="M97 37.66v.93H86v-.93h11m0-.15H86l-.15.15v.93l.15.15h11l.15-.15v-.93l-.15-.15z"/><path class="cls-1" d="M103.81 32.86c-.07-.07-7.14-6.86-7.58-7.27a3.4 3.4 0 01-.79-2v-5.31l.07-.07h.93l.07.07v5.34a2 2 0 00.57 1.38l7.47 7.13v.1l-.63.67z"/><path class="cls-3" d="M96.44 18.28v5.34A2.09 2.09 0 0097 25l7.47 7.13-.63.67s-7.11-6.8-7.56-7.27a3.39 3.39 0 01-.77-1.91v-5.34h.93m0-.15h-.93l-.15.15v5.34a3.46 3.46 0 00.82 2c.44.41 7.51 7.2 7.58 7.27h.24l.64-.68V32l-7.47-7.13a1.94 1.94 0 01-.54-1.28v-5.31l-.15-.15z"/><path class="cls-1" d="M116.33 32.85l-.63-.67v-.1l7.48-7.08a2.1 2.1 0 00.56-1.34v-5.38l.07-.07h.93l.07.07v5.34a3.4 3.4 0 01-.79 2c-.44.41-7.51 7.2-7.58 7.27z"/><path class="cls-3" d="M124.74 18.28v5.34a3.25 3.25 0 01-.77 1.91c-.45.42-7.58 7.27-7.58 7.27l-.63-.67 7.47-7.13a2.14 2.14 0 00.58-1.38v-5.34h.93m0-.15h-.93l-.15.15v5.34a1.93 1.93 0 01-.54 1.27L115.65 32v.21l.63.68h.21c.07-.07 7.14-6.86 7.58-7.27a3.46 3.46 0 00.82-2v-5.34l-.15-.15z"/><path class="cls-1" d="M123.81 58l-.07-.07v-5.3a2.09 2.09 0 00-.56-1.33l-7.48-7.13v-.1l.63-.67h.11l7.56 7.27a3.37 3.37 0 01.79 2V58l-.07.07z"/><path class="cls-3" d="M116.39 43.45s7.13 6.85 7.58 7.27a3.28 3.28 0 01.77 1.91V58h-.93v-5.37a2.17 2.17 0 00-.58-1.38l-7.47-7.13.63-.67m.1-.11h-.21l-.63.67v.21l7.47 7.13a2 2 0 01.54 1.28V58l.15.15h.93l.15-.15v-5.37a3.46 3.46 0 00-.82-2c-.44-.41-7.51-7.2-7.58-7.27z"/><path class="cls-1" d="M95.51 58h-.07v-5.37a3.37 3.37 0 01.79-2l7.58-7.28h.11l.63.67v.1l-7.47 7.18a2 2 0 00-.57 1.34V58l-.07.07z"/><path class="cls-3" d="M103.87 43.45l.63.67-7.5 7.13a2.12 2.12 0 00-.59 1.38V58h-.93v-5.37a3.42 3.42 0 01.77-1.91c.45-.42 7.59-7.27 7.59-7.27m-.11-.11c-.07.07-7.14 6.86-7.58 7.27a3.46 3.46 0 00-.82 2V58l.15.15h.93l.15-.15v-5.37a2 2 0 01.54-1.27l7.47-7.13V44l-.64-.67z"/><path class="cls-1" d="M109.66 24.7l-.07-.07v-6.35l.07-.07h.93l.07.07v6.35l-.07.07h-.93z"/><path class="cls-3" d="M110.59 18.28v6.35h-.93v-6.35h.93m0-.15h-.93l-.15.15v6.35l.15.15h.93l.15-.15v-6.35l-.15-.15z"/><path class="cls-1" d="M109.66 58.04l-.07-.07v-6.34l.07-.08h.93l.07.08v6.34l-.07.07h-.93z"/><path class="cls-3" d="M110.59 51.63V58h-.93v-6.37h.93m0-.15h-.93l-.15.15V58l.15.15h.93l.15-.15v-6.37l-.15-.15z"/><circle class="cls-1" cx="110.13" cy="78.52" r="4.25"/><path class="cls-1" d="M86 98.44V58.6h48.3v39.84zm43.31-3.68V62.28H91v32.48z"/><path class="cls-3" d="M134.22 58.68v39.68H86V58.68h48.19M90.91 94.83h38.43V62.21H90.91v32.62m43.46-36.3H85.88v40h48.49v-40zm-43.31 3.83h38.13v32.32H91.06V62.36z"/><path class="cls-1" d="M123.3 79.06l-.08-.08v-.92l.08-.08h10.92l.08.08v.92l-.08.08H123.3z"/><path class="cls-3" d="M134.22 78.06V79H123.3v-.92h10.92m0-.15H123.3l-.15.15V79l.15.15h10.92l.15-.15v-.92l-.15-.15z"/><path class="cls-1" d="M86.03 79.06l-.07-.08v-.92l.07-.08h10.92l.08.08v.92l-.08.08H86.03z"/><path class="cls-3" d="M97 78.06V79H86v-.92h11m0-.15H86l-.15.15V79l.15.15h11l.1-.15v-.92l-.1-.17z"/><path class="cls-1" d="M103.81 73.25c-.07-.07-7.14-6.86-7.58-7.27a3.37 3.37 0 01-.79-2v-5.3l.07-.08h.93l.07.08V64a2 2 0 00.57 1.33l7.47 7.13v.11l-.63.67z"/><path class="cls-3" d="M96.44 58.68V64a2.12 2.12 0 00.56 1.4l7.47 7.13-.63.67s-7.14-6.86-7.59-7.28a3.39 3.39 0 01-.74-1.92v-5.32h.93m0-.15h-.93l-.15.15V64a3.46 3.46 0 00.82 2l7.58 7.28h.24l.64-.67v-.21l-7.47-7.13a2 2 0 01-.58-1.27v-5.32l-.15-.15z"/><path class="cls-1" d="M116.33 73.25l-.63-.67v-.11l7.48-7.13a2.09 2.09 0 00.56-1.33v-5.33l.07-.08h.93l.07.08V64a3.37 3.37 0 01-.79 2c-.44.41-7.51 7.2-7.58 7.27z"/><path class="cls-3" d="M124.74 58.68V64a3.25 3.25 0 01-.77 1.91c-.45.42-7.58 7.28-7.58 7.28l-.63-.67 7.47-7.13a2.17 2.17 0 00.58-1.39v-5.32h.93m0-.15h-.93l-.15.15V64a2 2 0 01-.54 1.28l-7.47 7.13v.21l.63.67h.21l7.58-7.29a3.46 3.46 0 00.82-2v-5.32l-.15-.15z"/><path class="cls-1" d="M123.81 98.44l-.07-.08V93a2 2 0 00-.57-1.33l-7.47-7.13v-.11l.63-.67h.11c.07.07 7.14 6.86 7.58 7.27a3.37 3.37 0 01.79 2v5.34l-.07.08z"/><path class="cls-3" d="M116.39 83.84s7.13 6.86 7.58 7.28a3.25 3.25 0 01.77 1.91v5.33h-.93V93a2.17 2.17 0 00-.58-1.39l-7.47-7.13.63-.67m.1-.11h-.21l-.63.67v.21l7.47 7.13a2 2 0 01.54 1.29v5.32l.15.15h.93l.15-.15V93a3.46 3.46 0 00-.82-2l-7.58-7.28z"/><path class="cls-1" d="M95.51 98.44l-.07-.08V93a3.37 3.37 0 01.79-2c.44-.41 7.51-7.2 7.58-7.27h.11l.63.67v.11l-7.47 7.19a2 2 0 00-.57 1.3v5.33l-.07.08z"/><path class="cls-3" d="M103.87 83.84l.63.67-7.5 7.13a2.12 2.12 0 00-.56 1.36v5.33h-.93V93a3.39 3.39 0 01.77-1.91c.45-.42 7.59-7.28 7.59-7.28m-.11-.11L96.18 91a3.46 3.46 0 00-.82 2v5.34l.15.15h.93l.15-.15V93a2 2 0 01.54-1.28l7.47-7.13v-.21l-.64-.67z"/><path class="cls-1" d="M109.66 65.1l-.07-.08v-6.34l.07-.08h.93l.07.08v6.34l-.07.08h-.93z"/><path class="cls-3" d="M110.59 58.68V65h-.93v-6.32h.93m0-.15h-.93l-.15.15V65l.15.15h.93l.15-.15v-6.32l-.15-.15z"/><path class="cls-1" d="M109.66 98.44l-.07-.08v-6.34l.07-.08h.93l.07.08v6.34l-.07.08h-.93z"/><path class="cls-3" d="M110.59 92v6.34h-.93V92h.93m0-.15h-.93l-.15.15v6.34l.15.15h.93l.15-.15V92l-.15-.15z"/><path class="cls-1" d="M33.59 70a8.5 8.5 0 108.5 8.5 8.49 8.49 0 00-8.5-8.5zm0 13.18a4.68 4.68 0 114.68-4.68 4.69 4.69 0 01-4.68 4.7zm0-1.49a3.19 3.19 0 113.19-3.19 3.19 3.19 0 01-3.19 3.21z"/><path class="cls-1" d="M9.42 98.44V58.6h48.34v39.84zm43.31-3.68V62.28H14.45v32.48z"/><path class="cls-3" d="M57.69 58.68v39.68H9.5V58.68h48.19M14.37 94.83h38.44V62.21H14.37v32.62m43.47-36.3H9.35v40h48.49v-40zm-43.32 3.83h38.14v32.32H14.52V62.36z"/><path class="cls-1" d="M46.76 79.06l-.07-.08v-.92l.07-.08h10.93l.07.08v.92l-.07.08H46.76z"/><path class="cls-3" d="M57.69 78.06V79H46.76v-.92h10.93m0-.15H46.76l-.15.15V79l.15.15h10.93l.15-.15v-.92l-.15-.15z"/><path class="cls-1" d="M9.5 79.06l-.08-.08v-.92l.08-.08h10.92l.07.08v.92l-.07.08H9.5z"/><path class="cls-3" d="M20.42 78.06V79H9.5v-.92h10.92m0-.15H9.5l-.15.15V79l.15.15h10.92l.15-.15v-.92l-.15-.15z"/><path class="cls-1" d="M27.28 73.25c-.07-.07-7.14-6.86-7.59-7.27a3.51 3.51 0 01-.79-2v-5.3l.1-.08h.92l.08.08V64a2.09 2.09 0 00.56 1.33L28 72.47v.11l-.63.67z"/><path class="cls-3" d="M19.9 58.68V64a2.12 2.12 0 00.59 1.39L28 72.53l-.63.67-7.58-7.28A3.25 3.25 0 0119 64v-5.32h.92m0-.15H19l-.15.15V64a3.45 3.45 0 00.81 2c.45.42 7.51 7.21 7.59 7.28h.21l.63-.67v-.21l-7.47-7.13a2 2 0 01-.57-1.27v-5.32l-.15-.15z"/><path class="cls-1" d="M39.8 73.25l-.63-.67v-.11l7.47-7.13A2.09 2.09 0 0047.2 64v-5.32l.08-.08h.92l.08.08V64a3.44 3.44 0 01-.79 2c-.45.41-7.52 7.2-7.59 7.27z"/><path class="cls-3" d="M48.2 58.68V64a3.31 3.31 0 01-.76 1.91c-.45.42-7.59 7.28-7.59 7.28l-.63-.67 7.47-7.13a2.12 2.12 0 00.59-1.39v-5.32h.92m0-.15h-.92l-.15.15V64a2 2 0 01-.54 1.28l-7.47 7.13v.21l.63.67H40c.08-.07 7.14-6.86 7.59-7.28a3.44 3.44 0 00.81-2v-5.33l-.15-.15z"/><path class="cls-1" d="M47.28 98.44l-.08-.08V93a2.09 2.09 0 00-.56-1.33l-7.47-7.13v-.11l.63-.67h.1c.07.07 7.14 6.86 7.59 7.27a3.43 3.43 0 01.79 2v5.34l-.08.08z"/><path class="cls-3" d="M39.85 83.84s7.15 6.86 7.59 7.28A3.31 3.31 0 0148.2 93v5.33h-.92V93a2.12 2.12 0 00-.59-1.39l-7.47-7.13.63-.67m.1-.11h-.21l-.63.67v.21l7.47 7.13a2 2 0 01.55 1.29v5.32l.15.15h.92l.15-.15V93a3.45 3.45 0 00-.81-2c-.45-.41-7.54-7.2-7.54-7.27z"/><path class="cls-1" d="M19 98.44l-.08-.08V93a3.51 3.51 0 01.79-2c.45-.41 7.52-7.2 7.59-7.27h.1l.63.67v.11l-7.49 7.19A2.09 2.09 0 0020 93v5.33l-.08.08z"/><path class="cls-3" d="M27.33 83.84l.63.67-7.47 7.13A2.12 2.12 0 0019.9 93v5.33H19V93a3.25 3.25 0 01.77-1.91l7.58-7.28m-.1-.11c-.08.07-7.14 6.86-7.59 7.28a3.44 3.44 0 00-.81 2v5.34l.15.15h.92l.15-.15V93a2 2 0 01.54-1.28l7.47-7.13v-.21l-.63-.67z"/><path class="cls-1" d="M33.13 65.1l-.08-.08v-6.34l.08-.08h.92l.08.08v6.34l-.08.08h-.92z"/><path class="cls-3" d="M34.05 58.68V65h-.92v-6.32h.92m0-.15h-.92l-.15.15V65l.15.15h.92l.15-.15v-6.32l-.15-.15z"/><path class="cls-1" d="M33.13 98.44l-.08-.08v-6.34l.08-.08h.92l.08.08v6.34l-.08.08h-.92z"/><path class="cls-3" d="M34.05 92v6.34h-.92V92h.92m0-.15h-.92L33 92v6.34l.15.15h.92l.15-.15V92l-.15-.15z"/><circle class="cls-1" cx="196.72" cy="38.13" r="6.38"/><path class="cls-1" d="M176.52 58V18.21h40.41V58zm36.73-3.68V21.89H180.2v32.47z"/><path class="cls-3" d="M216.85 18.28V58H176.6V18.28h40.25m-36.72 36.16h33.19V21.81h-33.19v32.63M217 18.13h-40.55v40H217v-40zM180.28 22h32.89v32.29h-32.89V22z"/><path class="cls-1" d="M190.41 32.86c-.07-.07-7.14-6.86-7.58-7.27a3.4 3.4 0 01-.79-2v-5.31l.07-.07h.89l.07.07v5.34a2 2 0 00.57 1.33l7.47 7.13v.1l-.63.67z"/><path class="cls-3" d="M183 18.28v5.34a2.14 2.14 0 00.58 1.38l7.47 7.13-.63.67s-7.13-6.85-7.58-7.27a3.32 3.32 0 01-.77-1.91v-5.34h.93m0-.15h-.93l-.15.15v5.34a3.46 3.46 0 00.82 2c.44.41 7.51 7.2 7.58 7.27h.21l.63-.68V32l-7.47-7.13a1.94 1.94 0 01-.54-1.28v-5.31l-.15-.15z"/><path class="cls-1" d="M202.93 32.85l-.63-.67v-.1l7.47-7.08a2 2 0 00.57-1.34v-5.38l.07-.07h.93l.07.07v5.34a3.4 3.4 0 01-.79 2c-.44.41-7.51 7.2-7.58 7.27z"/><path class="cls-3" d="M211.34 18.28v5.34a3.39 3.39 0 01-.77 1.91c-.45.47-7.57 7.27-7.57 7.27l-.63-.67 7.45-7.13a2.09 2.09 0 00.59-1.38v-5.34h.93m0-.15h-.93l-.15.15v5.34a2 2 0 01-.54 1.28l-7.47 7.1v.21l.63.68h.21c.07-.07 7.14-6.86 7.58-7.27a3.46 3.46 0 00.82-2v-5.34l-.15-.15z"/><path class="cls-1" d="M210.41 58l-.07-.07v-5.3a2 2 0 00-.57-1.33l-7.47-7.13v-.1l.63-.67h.07l7.58 7.28a3.37 3.37 0 01.79 2V58l-.07.07z"/><path class="cls-3" d="M203 43.45s7.14 6.85 7.59 7.27a3.42 3.42 0 01.77 1.91V58h-.93v-5.37a2.12 2.12 0 00-.59-1.38l-7.47-7.13.63-.67m.11-.11h-.21l-.63.67v.21l7.47 7.13a2 2 0 01.54 1.28V58l.15.15h.93l.15-.15v-5.37a3.46 3.46 0 00-.82-2c-.44-.41-7.51-7.2-7.58-7.27z"/><path class="cls-1" d="M182.11 58H182v-5.37a3.37 3.37 0 01.79-2l7.58-7.28h.11l.63.67v.1l-7.48 7.13a2.1 2.1 0 00-.56 1.34V58H183z"/><path class="cls-3" d="M190.46 43.45l.63.67-7.47 7.13a2.17 2.17 0 00-.58 1.38V58h-.93v-5.37a3.35 3.35 0 01.77-1.91c.45-.42 7.58-7.27 7.58-7.27m-.1-.11c-.07.07-7.14 6.86-7.58 7.27a3.46 3.46 0 00-.82 2V58l.15.15h.89l.15-.15v-5.37a2 2 0 01.54-1.27l7.47-7.13V44l-.63-.67z"/><path class="cls-1" d="M196.26 24.7l-.07-.07v-6.35l.07-.07h.93l.07.07v6.35l-.07.07h-.93z"/><path class="cls-3" d="M197.19 18.28v6.35h-.93v-6.35h.93m0-.15h-.93l-.15.15v6.35l.15.15h.93l.15-.15v-6.35l-.15-.15z"/><path class="cls-1" d="M196.26 58.04l-.07-.07v-6.34l.07-.08h.93l.07.08v6.34l-.07.07h-.93z"/><path class="cls-3" d="M197.19 51.63V58h-.93v-6.37h.93m0-.15h-.93l-.15.15V58l.15.15h.93l.15-.15v-6.37l-.15-.15z"/><path class="cls-1" d="M207.15 38.66l-.08-.07v-.93l.08-.07h9.7l.08.07v.93l-.08.07h-9.7z"/><path class="cls-3" d="M216.85 37.66v.93h-9.7v-.93h9.7m0-.15h-9.7l-.15.15v.93l.15.15h9.7l.15-.15v-.93l-.15-.15z"/><path class="cls-1" d="M176.6 38.66l-.08-.07v-.93l.08-.07h9.7l.08.07v.93l-.08.07h-9.7z"/><path class="cls-3" d="M186.3 37.66v.93h-9.7v-.93h9.7m0-.15h-9.7l-.15.15v.93l.15.15h9.7l.15-.15v-.93l-.15-.15z"/><path class="cls-1" d="M196.72 70a8.5 8.5 0 108.51 8.5 8.5 8.5 0 00-8.51-8.5zm0 13.18a4.68 4.68 0 114.68-4.68 4.68 4.68 0 01-4.68 4.7zm0-1.49a3.19 3.19 0 113.19-3.19 3.18 3.18 0 01-3.19 3.21z"/><path class="cls-1" d="M176.52 98.44V58.6h40.41v39.84zm36.73-3.68V62.28H180.2v32.48z"/><path class="cls-3" d="M216.85 58.68v39.68H176.6V58.68h40.25m-36.72 36.15h33.19V62.21h-33.19v32.62M217 58.53h-40.55v40H217v-40zm-36.72 3.83h32.89v32.32h-32.89V62.36z"/><path class="cls-1" d="M190.41 73.25c-.07-.07-7.14-6.86-7.58-7.27a3.37 3.37 0 01-.79-2v-5.3l.07-.08h.89l.07.08V64a2.09 2.09 0 00.56 1.33l7.48 7.13v.11l-.63.67z"/><path class="cls-3" d="M183 58.68V64a2.17 2.17 0 00.58 1.39l7.47 7.13-.63.67s-7.13-6.86-7.58-7.28a3.32 3.32 0 01-.77-1.91v-5.32h.93m0-.15h-.93l-.15.15V64a3.46 3.46 0 00.82 2l7.58 7.28h.21l.63-.67v-.21l-7.47-7.13a2 2 0 01-.54-1.29v-5.3l-.15-.15z"/><path class="cls-1" d="M202.93 73.25l-.63-.67v-.11l7.47-7.13a2 2 0 00.57-1.33v-5.33l.07-.08h.93l.07.08V64a3.37 3.37 0 01-.79 2c-.44.41-7.51 7.2-7.58 7.27z"/><path class="cls-3" d="M211.34 58.68V64a3.39 3.39 0 01-.77 1.91c-.45.42-7.59 7.28-7.59 7.28l-.63-.67 7.47-7.13a2.12 2.12 0 00.59-1.39v-5.32h.93m0-.15h-.93l-.15.15V64a2 2 0 01-.54 1.28l-7.47 7.13v.21l.63.67h.21l7.58-7.29a3.46 3.46 0 00.82-2v-5.32l-.15-.15z"/><path class="cls-1" d="M210.41 98.44l-.07-.08V93a2 2 0 00-.57-1.33l-7.47-7.13v-.11l.63-.67h.07c.07.07 7.14 6.86 7.58 7.27a3.37 3.37 0 01.79 2v5.34l-.07.08z"/><path class="cls-3" d="M203 83.84s7.14 6.86 7.59 7.28a3.39 3.39 0 01.77 1.91v5.33h-.93V93a2.12 2.12 0 00-.59-1.39l-7.47-7.13.63-.67m.11-.11h-.21l-.63.67v.21l7.47 7.13a2 2 0 01.54 1.29v5.32l.15.15h.93l.15-.15V93a3.46 3.46 0 00-.82-2l-7.58-7.28z"/><path class="cls-1" d="M182.11 98.44l-.07-.08V93a3.37 3.37 0 01.79-2c.44-.41 7.51-7.2 7.58-7.27h.11l.63.67v.11l-7.48 7.13a2.09 2.09 0 00-.56 1.33v5.33l-.07.08z"/><path class="cls-3" d="M190.46 83.84l.63.67-7.47 7.13A2.17 2.17 0 00183 93v5.33h-.93V93a3.32 3.32 0 01.77-1.91c.45-.42 7.58-7.28 7.58-7.28m-.1-.11l-7.54 7.3a3.46 3.46 0 00-.82 2v5.34l.15.15h.89l.15-.15V93a2 2 0 01.54-1.28l7.47-7.13v-.21l-.63-.67z"/><path class="cls-1" d="M196.26 65.1l-.07-.08v-6.34l.07-.08h.93l.07.08v6.34l-.07.08h-.93z"/><path class="cls-3" d="M197.19 58.68V65h-.93v-6.32h.93m0-.15h-.93l-.15.15V65l.15.15h.93l.15-.15v-6.32l-.15-.15z"/><path class="cls-1" d="M196.26 98.44l-.07-.08v-6.34l.07-.08h.93l.07.08v6.34l-.07.08h-.93z"/><path class="cls-3" d="M197.19 92v6.34h-.93V92h.93m0-.15h-.93l-.15.15v6.34l.15.15h.93l.15-.15V92l-.15-.15z"/><path class="cls-1" d="M207.15 79.06l-.08-.08v-.92l.08-.08h9.7l.08.08v.92l-.08.08h-9.7z"/><path class="cls-3" d="M216.85 78.06V79h-9.7v-.92h9.7m0-.15h-9.7l-.15.15V79l.15.15h9.7L217 79v-.92l-.15-.15z"/><path class="cls-1" d="M176.6 79.06l-.08-.08v-.92l.08-.08h9.7l.08.08v.92l-.08.08h-9.7z"/><path class="cls-3" d="M186.3 78.06V79h-9.7v-.92h9.7m0-.15h-9.7l-.15.15V79l.15.15h9.7l.15-.15v-.92l-.15-.15z"/><path class="cls-4" d="M134.22 88.36h42.38m-42.38 9.22h42.38"/><path class="cls-1" d="M176.1 18.78v79.08h-41.38V18.78h41.38m.5-.5h-42.38v80.08h42.38V18.28z"/><path class="cls-4" d="M134.22 19.13h42.38"/><rect class="cls-1" x="67.93" y="42.02" width="7.57" height="32.6" rx="3.78"/><path class="cls-1" d="M58.53 98.44V18.21H84.9v80.23zm22.82-3.68V21.89H62.08v72.87z"/><path class="cls-3" d="M84.83 18.28v80.08H58.61V18.28h26.22M62 94.83h19.42v-73H62v73m23-76.7H58.46v80.38H85V18.13zM62.16 22h19.11v72.68H62.16V22z"/><path class="cls-1" d="M58.61 58.86l-.08-.08v-.92l.08-.08h7.65l.07.08v.92l-.07.08h-7.65z"/><path class="cls-3" d="M66.26 57.86v.92h-7.65v-.92h7.65m0-.15h-7.65l-.15.15v.92l.15.15h7.65l.15-.15v-.92l-.15-.15z"/><path class="cls-1" d="M58.61 78.69l-.08-.07v-.93l.08-.07h7.65l.07.07v.93l-.07.07h-7.65z"/><path class="cls-3" d="M66.26 77.69v.93h-7.65v-.93h7.65m0-.15h-7.65l-.15.15v.93l.15.15h7.65l.15-.15v-.93l-.15-.15z"/><path class="cls-1" d="M77.17 58.86l-.07-.08v-.92l.07-.08h7.66l.07.08v.92l-.07.08h-7.66z"/><path class="cls-3" d="M84.83 57.86v.92h-7.66v-.92h7.66m0-.15h-7.66l-.15.15v.92l.15.15h7.66l.15-.15v-.92l-.15-.15z"/><path class="cls-1" d="M77.17 78.69l-.07-.07v-.93l.07-.07h7.66l.07.07v.93l-.07.07h-7.66z"/><path class="cls-3" d="M84.83 77.69v.93h-7.66v-.93h7.66m0-.15h-7.66l-.15.15v.93l.15.15h7.66l.15-.15v-.93l-.15-.15z"/><path class="cls-1" d="M58.61 39.03l-.08-.08v-.92l.08-.08h7.65l.07.08v.92l-.07.08h-7.65z"/><path class="cls-3" d="M66.26 38v1h-7.65v-1h7.65m0-.15h-7.65l-.15.15v1l.15.15h7.65l.15-.15v-1l-.15-.15z"/><path class="cls-1" d="M58.61 29.06l-.08-.07v-.93l.08-.07h26.22l.07.07v.93l-.07.07H58.61z"/><path class="cls-3" d="M84.83 28.06V29H58.61v-.93h26.22m0-.15H58.61l-.15.15V29l.15.15h26.22L85 29v-.93l-.15-.15z"/><path class="cls-1" d="M58.61 88.66l-.08-.08v-.92l.08-.08h26.22l.07.08v.92l-.07.08H58.61z"/><path class="cls-3" d="M84.83 87.66v.92H58.61v-.92h26.22m0-.15H58.61l-.15.15v.92l.15.15h26.22l.15-.15v-.92l-.15-.15z"/><path class="cls-1" d="M77.17 39.03l-.07-.08v-.92l.07-.08h7.66l.07.08v.92l-.07.08h-7.66z"/><path class="cls-3" d="M84.83 38v1h-7.66v-1h7.66m0-.15h-7.66L77 38v1l.15.15h7.66L85 39v-1l-.15-.15z"/></g></svg>