<svg xmlns="http://www.w3.org/2000/svg" viewBox="0 0 155.91 99.21"><defs><style>.cls-3{stroke:#fff;stroke-miterlimit:10;stroke-width:.15px}.cls-4{fill:#fff}</style></defs><g id="Piano" fill="none" stroke="#000" stroke-linecap="round" stroke-width=".25"><path stroke-linejoin="bevel" d="M7.09 7.09h141.73v85.04H7.09z"/><path d="M9.31 10.03h137.42v79.94H9.31zm-2.22-.72h141.73m-139.51.78l-.58-.78m138.01.78l.57-.78M7.09 92.13l2.22-2.23m139.51 2.23l-2.08-2.23" stroke-linejoin="round"/></g><g id="Bruciatori"><path d="M33.66 61.33a8.51 8.51 0 108.51 8.51 8.5 8.5 0 00-8.51-8.51zm0 13.19a4.68 4.68 0 114.68-4.68 4.69 4.69 0 01-4.68 4.68zm0-1.49a3.19 3.19 0 113.19-3.19A3.19 3.19 0 0133.66 73z"/><path class="cls-3" d="M9.57 50v39.68h48.19V50zm43.31 36.15H14.44V53.53h38.44z"/><path d="M27.35 64.57c-.07-.07-7.14-6.86-7.58-7.27a3.45 3.45 0 01-.8-2V50l.08-.08H20l.08.08v5.33a2.09 2.09 0 00.56 1.33l7.47 7.13v.11l-.63.67z"/><path class="cls-4" d="M20 50v5.33a2.12 2.12 0 00.59 1.39L28 63.84l-.63.68s-7.13-6.86-7.58-7.28a3.25 3.25 0 01-.77-1.91V50H20m0-.15h-.92l-.18.15v5.33a3.45 3.45 0 00.81 2c.45.42 7.52 7.21 7.59 7.27h.21l.63-.67v-.21c-.07-.07-7.21-6.9-7.47-7.13a2 2 0 01-.54-1.29V50l-.13-.15z"/><path d="M39.87 64.57l-.63-.67v-.11l7.47-7.13a2.15 2.15 0 00.57-1.33V50l.07-.08h.92l.08.08v5.33a3.46 3.46 0 01-.79 2c-.45.41-7.52 7.2-7.59 7.27z"/><path class="cls-4" d="M48.27 50v5.33a3.31 3.31 0 01-.76 1.91c-.45.42-7.59 7.28-7.59 7.28l-.63-.68 7.47-7.12a2.12 2.12 0 00.59-1.39V50h.92m0-.15h-.92l-.15.15v5.33a2 2 0 01-.54 1.28l-7.47 7.13V64l.63.67H40l7.58-7.27a3.44 3.44 0 00.81-2V50l-.15-.15z"/><path d="M33.2 56.41l-.08-.07V50l.08-.08h.92l.08.08v6.34l-.08.07h-.92z"/><path class="cls-4" d="M34.12 50v6.34h-.92V50h.92m0-.15h-.92l-.15.15v6.34l.15.15h.92l.15-.15V50l-.15-.15z"/><path d="M46.83 70.38l-.07-.08v-.92l.07-.08h10.93l.07.08v.92l-.07.08H46.83z"/><path class="cls-4" d="M57.76 69.38v.92H46.83v-.92h10.93m0-.15H46.83l-.15.15v.92l.15.15h10.93l.15-.15v-.92l-.15-.15z"/><path d="M9.57 70.38l-.08-.08v-.92l.08-.08h10.92l.07.08v.92l-.07.08H9.57z"/><path class="cls-4" d="M20.49 69.38v.92H9.57v-.92h10.92m0-.15H9.57l-.15.15v.92l.15.15h10.92l.15-.15v-.92l-.15-.15z"/><path d="M47.35 89.76l-.07-.08v-5.33a2.18 2.18 0 00-.57-1.35c-.26-.23-7.47-7.12-7.47-7.12v-.11l.63-.67H40c.07.07 7.14 6.85 7.59 7.27a3.43 3.43 0 01.79 2v5.34l-.08.08z"/><path class="cls-4" d="M39.92 75.16s7.14 6.85 7.59 7.27a3.36 3.36 0 01.76 1.92v5.33h-.92v-5.33a2.12 2.12 0 00-.59-1.35l-7.47-7.13.63-.67m.11-.11h-.22l-.63.67v.21l7.47 7.13a2 2 0 01.54 1.29v5.32l.15.15h.92l.15-.15v-5.36a3.5 3.5 0 00-.81-2c-.44-.41-7.51-7.2-7.58-7.27z"/><path d="M19.05 89.76l-.05-.08v-5.33a3.45 3.45 0 01.8-2l7.58-7.27h.11l.63.67v.11s-7.25 6.92-7.51 7.14a2.1 2.1 0 00-.56 1.34v5.33l-.08.08z"/><path class="cls-4" d="M27.4 75.16l.63.67L20.56 83a2.12 2.12 0 00-.56 1.35v5.33h-.92v-5.33a3.31 3.31 0 01.77-1.92c.45-.42 7.58-7.27 7.58-7.27m-.1-.11c-.07.07-7.14 6.86-7.59 7.27a3.5 3.5 0 00-.81 2v5.34l.15.15H20l.15-.15v-5.31a2 2 0 01.54-1.28l7.47-7.13v-.21l-.63-.67z"/><path d="M33.2 89.76l-.08-.08v-6.34l.08-.08h.92l.08.08v6.34l-.08.08h-.92z"/><path class="cls-4" d="M34.12 83.34v6.34h-.92v-6.34h.92m0-.15h-.92l-.15.15v6.34l.15.15h.92l.15-.15v-6.34l-.15-.15z"/><circle cx="33.66" cy="30.15" r="6.38"/><path class="cls-3" d="M9.57 10.31V50h48.19V10.31zm43.31 36.16H14.44V13.84h38.44z"/><path d="M27.35 24.88l-7.58-7.27a3.45 3.45 0 01-.8-2v-5.3l.08-.07H20l.08.07v5.34a2.09 2.09 0 00.53 1.35l7.47 7.12v.11l-.63.67z"/><path class="cls-4" d="M20 10.31v5.34a2.12 2.12 0 00.56 1.35L28 24.16l-.63.67s-7.1-6.83-7.55-7.27a3.31 3.31 0 01-.77-1.91v-5.34H20m0-.15h-.92l-.15.15v5.34a3.45 3.45 0 00.81 2c.45.41 7.52 7.2 7.59 7.27h.21l.63-.67v-.21l-7.47-7.13a2 2 0 01-.54-1.28v-5.32l-.16-.15z"/><path d="M39.87 24.88l-.63-.67v-.11l7.47-7.1a2.15 2.15 0 00.57-1.34v-5.35l.07-.07h.92l.08.07v5.34a3.43 3.43 0 01-.79 2C47.11 18 40 24.82 40 24.88z"/><path class="cls-4" d="M48.27 10.31v5.34a3.36 3.36 0 01-.76 1.91c-.45.42-7.59 7.27-7.59 7.27l-.63-.67L46.76 17a2.12 2.12 0 00.59-1.38v-5.31h.92m0-.15h-.92l-.15.15v5.34a2 2 0 01-.54 1.27l-7.47 7.13v.21l.63.67H40c.07-.07 7.14-6.86 7.58-7.27a3.44 3.44 0 00.81-2v-5.35l-.15-.15z"/><path d="M33.2 16.73l-.08-.08v-6.34l.08-.07h.92l.08.07v6.34l-.08.08h-.92z"/><path class="cls-4" d="M34.12 10.31v6.34h-.92v-6.34h.92m0-.15h-.92l-.15.15v6.34l.15.15h.92l.15-.15v-6.34l-.15-.15z"/><path d="M46.83 30.69l-.07-.08v-.92l.07-.07h10.93l.07.07v.92l-.07.08H46.83z"/><path class="cls-4" d="M57.76 29.69v.93H46.83v-.93h10.93m0-.15H46.83l-.15.15v.93l.15.15h10.93l.15-.15v-.93l-.15-.15z"/><path d="M9.57 30.69l-.08-.08v-.92l.08-.07h10.92l.07.07v.92l-.07.08H9.57z"/><path class="cls-4" d="M20.49 29.69v.93H9.57v-.93h10.92m0-.15H9.57l-.15.15v.93l.15.15h10.92l.15-.15v-.93l-.15-.15z"/><path d="M47.35 50.07l-.07-.07v-5.34a2.15 2.15 0 00-.57-1.33l-7.47-7.13v-.1l.63-.67H40c.07.07 7.14 6.86 7.59 7.27a3.46 3.46 0 01.79 2V50l-.08.07z"/><path class="cls-4" d="M39.92 35.48s7.14 6.85 7.59 7.27a3.31 3.31 0 01.76 1.91V50h-.92v-5.34a2.15 2.15 0 00-.59-1.39l-7.47-7.12.63-.67m.11-.11h-.22l-.63.68v.21l7.47 7.12a2 2 0 01.54 1.29V50l.15.15h.92l.15-.15v-5.34a3.45 3.45 0 00-.81-2c-.44-.41-7.51-7.2-7.58-7.27z"/><path d="M19.05 50.07L19 50v-5.34a3.48 3.48 0 01.8-2c.44-.41 7.51-7.2 7.58-7.27h.11l.63.67v.1l-7.47 7.13a2.1 2.1 0 00-.56 1.34V50l-.08.07z"/><path class="cls-4" d="M27.4 35.48l.63.67s-7.21 6.85-7.47 7.12a2.15 2.15 0 00-.56 1.39V50h-.92v-5.34a3.25 3.25 0 01.77-1.91c.45-.42 7.58-7.27 7.58-7.27m-.1-.11c-.07.07-7.14 6.86-7.59 7.27a3.44 3.44 0 00-.81 2V50l.15.15H20l.15-.15v-5.34a2 2 0 01.54-1.28c.26-.23 7.4-7.05 7.47-7.12v-.21l-.63-.68z"/><path d="M33.2 50.07l-.08-.07v-6.35l.08-.07h.92l.08.07V50l-.08.07h-.92z"/><path class="cls-4" d="M34.12 43.65V50h-.92v-6.35h.92m0-.15h-.92l-.15.15V50l.15.15h.92l.15-.15v-6.35l-.15-.15z"/><path d="M122.42 61.33a8.51 8.51 0 108.5 8.51 8.5 8.5 0 00-8.5-8.51zm0 13.19a4.68 4.68 0 114.68-4.68 4.69 4.69 0 01-4.68 4.68zm0-1.49a3.19 3.19 0 113.19-3.19 3.19 3.19 0 01-3.19 3.16z"/><path class="cls-3" d="M98.33 50v39.68h48.18V50zm43.31 36.16H103.2V53.52h38.44z"/><path d="M135.59 70.37l-.07-.07v-.93l.07-.07h10.92l.08.07v.93l-.08.07h-10.92z"/><path class="cls-4" d="M146.51 69.37v.93h-10.92v-.93h10.92m0-.15h-10.92l-.15.15v.93l.15.15h10.92l.15-.15v-.93l-.15-.15z"/><path d="M98.33 70.37l-.08-.07v-.93l.08-.07h10.92l.07.07v.93l-.07.07H98.33z"/><path class="cls-4" d="M109.25 69.37v.93H98.33v-.93h10.92m0-.15H98.33l-.15.15v.93l.15.15h10.92l.15-.15v-.93l-.15-.15z"/><path d="M116.11 64.57c-.07-.07-7.14-6.86-7.59-7.28a3.41 3.41 0 01-.79-2V50l.08-.07h.92l.08.07v5.34a2.09 2.09 0 00.56 1.33l7.47 7.13v.1l-.63.67z"/><path class="cls-4" d="M108.73 50v5.34a2.12 2.12 0 00.59 1.38l7.47 7.13-.63.67s-7.14-6.85-7.59-7.27a3.33 3.33 0 01-.76-1.91V50h.92m0-.15h-.92l-.15.15v5.34a3.45 3.45 0 00.81 2c.45.41 7.51 7.2 7.59 7.27h.21l.63-.67v-.21l-7.47-7.13a2 2 0 01-.54-1.28V50l-.15-.15z"/><path d="M128.63 64.56l-.63-.67v-.1l7.47-7.13a2.1 2.1 0 00.56-1.34V50l.08-.07h.89l.08.07v5.34a3.48 3.48 0 01-.79 2c-.45.42-7.52 7.21-7.59 7.28z"/><path class="cls-4" d="M137 50v5.34a3.33 3.33 0 01-.76 1.91c-.45.42-7.59 7.27-7.59 7.27l-.63-.67 7.47-7.13a2.12 2.12 0 00.59-1.38V50h.92m0-.15h-.92L136 50v5.34a2 2 0 01-.54 1.27L128 63.73v.21l.63.67h.21c.08-.07 7.14-6.86 7.59-7.27a3.44 3.44 0 00.81-2V50l-.15-.15z"/><path d="M136.11 89.75l-.08-.07v-5.34a2.09 2.09 0 00-.56-1.33L128 75.88v-.1l.63-.67h.1c.07.07 7.14 6.86 7.59 7.28a3.48 3.48 0 01.79 2v5.34l-.08.07z"/><path class="cls-4" d="M128.68 75.16s7.14 6.85 7.59 7.27a3.31 3.31 0 01.76 1.91v5.34h-.92v-5.34a2.12 2.12 0 00-.59-1.38l-7.47-7.13.63-.67m.1-.11h-.21l-.63.68v.21l7.47 7.13a2 2 0 01.54 1.28v5.33l.15.15h.9l.15-.15v-5.34a3.45 3.45 0 00-.81-2c-.45-.41-7.51-7.2-7.59-7.27z"/><path d="M107.81 89.75l-.08-.07v-5.34a3.41 3.41 0 01.79-2c.45-.42 7.52-7.21 7.59-7.28h.1l.63.67v.1L109.37 83a2.1 2.1 0 00-.56 1.34v5.33l-.08.07z"/><path class="cls-4" d="M116.16 75.16l.63.67-7.47 7.17a2.12 2.12 0 00-.59 1.38v5.34h-.92v-5.38a3.31 3.31 0 01.76-1.91c.45-.42 7.59-7.27 7.59-7.27m-.1-.11c-.08.07-7.14 6.86-7.59 7.27a3.44 3.44 0 00-.81 2v5.35l.15.15h.92l.15-.15v-5.33a2 2 0 01.54-1.27l7.47-7.13v-.21l-.63-.68z"/><path d="M121.96 56.41l-.08-.07v-6.35l.08-.07h.92l.08.07v6.35l-.08.07h-.92z"/><path class="cls-4" d="M122.88 50v6.35H122V50h.92m0-.15H122l-.15.15v6.35l.15.15h.92l.15-.15V50l-.15-.15z"/><path d="M121.96 89.75l-.08-.07v-6.35l.08-.07h.92l.08.07v6.35l-.08.07h-.92z"/><path class="cls-4" d="M122.88 83.33v6.35H122v-6.35h.92m0-.15H122l-.15.15v6.35l.15.15h.92l.15-.15v-6.35l-.15-.15z"/><circle cx="122.42" cy="30.16" r="6.38"/><path class="cls-3" d="M98.33 10.32V50h48.18V10.32zm43.31 36.15H103.2V13.84h38.44z"/><path d="M116.11 24.89c-.07-.07-7.14-6.86-7.59-7.27a3.46 3.46 0 01-.79-2v-5.3l.08-.08h.92l.08.08v5.33a2.09 2.09 0 00.56 1.33l7.47 7.13v.1l-.63.68z"/><path class="cls-4" d="M108.73 10.32v5.33a2.15 2.15 0 00.59 1.39l7.47 7.12-.63.68S109 18 108.57 17.56a3.31 3.31 0 01-.76-1.91v-5.33h.92m0-.15h-.92l-.15.15v5.33a3.45 3.45 0 00.81 2c.45.42 7.51 7.2 7.59 7.27h.21l.63-.67v-.22c-.07-.06-7.21-6.89-7.47-7.12a2 2 0 01-.54-1.29v-5.3l-.15-.15z"/><path d="M128.63 24.89l-.63-.68v-.1l7.47-7.11a2.09 2.09 0 00.56-1.33v-5.35l.08-.08h.89l.08.08v5.33a3.53 3.53 0 01-.79 2c-.45.41-7.52 7.2-7.59 7.27z"/><path class="cls-4" d="M137 10.32v5.33a3.31 3.31 0 01-.76 1.91c-.45.42-7.59 7.28-7.59 7.28l-.63-.68 7.5-7.16a2.15 2.15 0 00.59-1.39v-5.29h.89m0-.15h-.92l-.15.15v5.33a2 2 0 01-.54 1.28c-.26.23-7.4 7.06-7.47 7.12v.22l.63.67h.21c.08-.07 7.14-6.85 7.59-7.27a3.44 3.44 0 00.81-2v-5.35l-.15-.15z"/><path d="M121.96 16.73l-.08-.07v-6.35l.08-.07h.92l.08.07v6.35l-.08.07h-.92z"/><path class="cls-4" d="M122.88 10.32v6.34H122v-6.34h.92m0-.15H122l-.15.15v6.34l.15.15h.92l.15-.15v-6.34l-.15-.15z"/><path d="M135.59 30.7l-.07-.08v-.92l.07-.08h10.92l.08.08v.92l-.08.08h-10.92z"/><path class="cls-4" d="M146.51 29.7v.92h-10.92v-.92h10.92m0-.15h-10.92l-.15.15v.92l.15.15h10.92l.15-.15v-.92l-.15-.15z"/><path d="M98.33 30.7l-.08-.08v-.92l.08-.08h10.92l.07.08v.92l-.07.08H98.33z"/><path class="cls-4" d="M109.25 29.7v.92H98.33v-.92h10.92m0-.15H98.33l-.15.15v.92l.15.15h10.92l.15-.15v-.92l-.15-.15z"/><path d="M136.11 50.08L136 50v-5.33a2.1 2.1 0 00-.56-1.34L128 36.21v-.11l.63-.67h.1c.07.06 7.14 6.85 7.59 7.27a3.51 3.51 0 01.79 2V50l-.08.08z"/><path class="cls-4" d="M128.68 35.48s7.14 6.85 7.59 7.27a3.36 3.36 0 01.76 1.92V50h-.92v-5.33a2.12 2.12 0 00-.59-1.39l-7.47-7.13.63-.67m.1-.11h-.21l-.63.67v.21l7.47 7.13a2 2 0 01.54 1.28V50l.15.15h.9l.15-.15v-5.33a3.47 3.47 0 00-.81-2c-.45-.41-7.51-7.2-7.59-7.27z"/><path d="M107.81 50.08l-.08-.08v-5.33a3.44 3.44 0 01.79-2c.45-.42 7.52-7.21 7.59-7.27h.1l.63.67v.11l-7.47 7.12a2.1 2.1 0 00-.56 1.34V50l-.08.08z"/><path class="cls-4" d="M116.16 35.48l.63.67-7.47 7.13a2.12 2.12 0 00-.59 1.39V50h-.92v-5.33a3.36 3.36 0 01.76-1.92c.45-.42 7.59-7.27 7.59-7.27m-.1-.11c-.08.07-7.14 6.86-7.59 7.27a3.47 3.47 0 00-.81 2V50l.15.15h.92l.15-.15v-5.33a2 2 0 01.54-1.28l7.47-7.13v-.21l-.63-.67z"/><path d="M121.96 50.08l-.08-.08v-6.34l.08-.08h.92l.08.08V50l-.08.08h-.92z"/><path class="cls-4" d="M122.88 43.66V50H122v-6.34h.92m0-.15H122l-.15.15V50l.15.15h.92L123 50v-6.34l-.15-.15z"/><circle cx="78.02" cy="30.15" r="6.38"/><path class="cls-3" d="M57.9 10.31V50h40.25V10.31zm36.72 36.16H61.43V13.84h33.19z"/><path d="M71.71 24.88l-7.58-7.27a3.37 3.37 0 01-.79-2v-5.3l.07-.07h.93l.07.07v5.34A2.09 2.09 0 0065 17l7.47 7.12v.11l-.63.67z"/><path class="cls-4" d="M64.34 10.31v5.34a2.17 2.17 0 00.58 1.35l7.47 7.13-.63.67s-7.13-6.8-7.58-7.24a3.31 3.31 0 01-.77-1.91v-5.34h.93m0-.15h-.93l-.15.15v5.34a3.46 3.46 0 00.82 2c.44.41 7.51 7.2 7.58 7.27h.21l.63-.67v-.21L65 16.92a2 2 0 01-.55-1.28v-5.33l-.15-.15z"/><path d="M84.23 24.88l-.63-.67v-.11l7.47-7.1a2 2 0 00.57-1.34v-5.35l.07-.07h.93l.07.07v5.34a3.37 3.37 0 01-.79 2l-7.58 7.27z"/><path class="cls-4" d="M92.64 10.31v5.34a3.45 3.45 0 01-.77 1.91c-.45.42-7.59 7.27-7.59 7.27l-.63-.67L91.12 17a2.12 2.12 0 00.59-1.38v-5.31h.93m0-.15h-.93l-.15.15v5.34a2 2 0 01-.56 1.27l-7.47 7.13v.21l.63.67h.22c.07-.07 7.14-6.86 7.58-7.27a3.46 3.46 0 00.82-2v-5.35l-.15-.15z"/><path d="M91.71 50.07l-.07-.07v-5.34a2 2 0 00-.57-1.33L83.6 36.2v-.1l.63-.67h.11c.07.07 7.14 6.86 7.58 7.27a3.4 3.4 0 01.79 2V50l-.07.07z"/><path class="cls-4" d="M84.28 35.48s7.14 6.85 7.59 7.27a3.39 3.39 0 01.77 1.91V50h-.93v-5.34a2.15 2.15 0 00-.59-1.39l-7.47-7.12.63-.67m.11-.11h-.22l-.63.68v.21L91 43.38a2 2 0 01.54 1.29V50l.15.15h.93l.15-.15v-5.34a3.46 3.46 0 00-.82-2c-.44-.41-7.51-7.2-7.58-7.27z"/><path d="M63.41 50.07l-.07-.07v-5.34a3.4 3.4 0 01.79-2c.44-.41 7.51-7.2 7.58-7.27h.11l.63.67v.1L65 43.33a2 2 0 00-.57 1.34V50l-.07.07z"/><path class="cls-4" d="M71.76 35.48l.63.67s-7.21 6.85-7.47 7.12a2.2 2.2 0 00-.58 1.39V50h-.93v-5.34a3.25 3.25 0 01.77-1.91c.45-.42 7.58-7.27 7.58-7.27m-.1-.11c-.07.07-7.14 6.86-7.58 7.27a3.46 3.46 0 00-.82 2V50l.15.15h.93l.15-.15v-5.34a1.94 1.94 0 01.51-1.28l7.47-7.12v-.21l-.63-.68z"/><path d="M77.56 16.73l-.07-.08v-6.34l.07-.07h.93l.07.07v6.34l-.07.08h-.93z"/><path class="cls-4" d="M78.49 10.31v6.34h-.93v-6.34h.93m0-.15h-.93l-.15.15v6.34l.15.15h.93l.15-.15v-6.34l-.15-.15z"/><path d="M77.56 50.07l-.07-.07v-6.35l.07-.07h.93l.07.07V50l-.07.07h-.93z"/><path class="cls-4" d="M78.49 43.65V50h-.93v-6.35h.93m0-.15h-.93l-.15.15V50l.15.15h.93l.15-.15v-6.35l-.15-.15z"/><path d="M88.45 30.69l-.08-.08v-.92l.08-.07h9.7l.07.07v.92l-.07.08h-9.7z"/><path class="cls-4" d="M98.15 29.69v.93h-9.7v-.93h9.7m0-.15h-9.7l-.15.15v.93l.15.15h9.7l.15-.15v-.93l-.15-.15z"/><path d="M57.9 30.69l-.08-.08v-.92l.08-.07h9.7l.08.07v.92l-.08.08h-9.7z"/><path class="cls-4" d="M67.6 29.69v.93h-9.7v-.93h9.7m0-.15h-9.7l-.15.15v.93l.15.15h9.7l.15-.15v-.93l-.15-.15z"/><circle cx="78.02" cy="69.84" r="4.25"/><path class="cls-3" d="M57.9 50v39.68h40.25V50zm36.72 36.15H61.43V53.53h33.19z"/><path d="M71.71 64.57c-.07-.07-7.14-6.86-7.58-7.27a3.37 3.37 0 01-.79-2v-5.38h1.07v5.41a2.09 2.09 0 00.59 1.33l7.47 7.13.06.05-.73.78z"/><path class="cls-4" d="M64.34 50v5.33a2.17 2.17 0 00.58 1.39l7.47 7.12-.63.68s-7.13-6.86-7.58-7.28a3.25 3.25 0 01-.77-1.91V50h.93m.15-.15h-1.23v5.48a3.46 3.46 0 00.82 2l7.58 7.27.11.11.1-.11.63-.6.1-.11-.1-.1-7.5-7.18a2 2 0 01-.55-1.29v-5.47z"/><path d="M83.55 63.84v-.05l7.47-7.13a2 2 0 00.57-1.33v-5.41h1.07v5.41a3.4 3.4 0 01-.79 2c-.44.41-7.51 7.2-7.58 7.27l-.06.05z"/><path class="cls-4" d="M92.64 50v5.33a3.39 3.39 0 01-.77 1.91c-.45.42-7.59 7.28-7.59 7.28l-.63-.68 7.47-7.12a2.12 2.12 0 00.59-1.39V50h.93m.15-.15h-1.23v5.48a2 2 0 01-.56 1.28l-7.47 7.13-.11.1.1.11.63.67.11.11.11-.11L92 57.35a3.46 3.46 0 00.82-2v-5.5z"/><path d="M91.64 89.76v-5.41a2 2 0 00-.57-1.35l-7.47-7.11.73-.79.06.06 7.58 7.27a3.37 3.37 0 01.79 2v5.42z"/><path class="cls-4" d="M84.28 75.16s7.14 6.85 7.59 7.27a3.45 3.45 0 01.77 1.92v5.33h-.93v-5.33a2.12 2.12 0 00-.59-1.35l-7.47-7.13.63-.67m0-.21l-.11.11-.63.67-.1.11.11.1L91 83.07a2 2 0 01.54 1.29v5.47h1.23v-5.48a3.51 3.51 0 00-.82-2c-.44-.41-7.51-7.2-7.58-7.27l-.11-.1z"/><path d="M63.34 89.76v-5.41a3.37 3.37 0 01.79-2l7.58-7.27.06-.06.73.79h-.06L65 83a2 2 0 00-.57 1.34v5.41z"/><path class="cls-4" d="M71.76 75.16l.63.67L64.92 83a2.17 2.17 0 00-.58 1.39v5.33h-.93v-5.37a3.31 3.31 0 01.77-1.92c.45-.42 7.58-7.27 7.58-7.27m0-.21l-.11.1c-.07.07-7.14 6.86-7.58 7.27a3.51 3.51 0 00-.82 2v5.49h1.23v-5.46a1.91 1.91 0 01.52-1.28l7.47-7.13.1-.1-.1-.11-.63-.67-.1-.11z"/><path d="M77.49 49.92h1.08v6.49h-1.08z"/><path class="cls-4" d="M78.49 50v6.34h-.93V50h.93m.15-.15h-1.23v6.64h1.23v-6.64z"/><path d="M77.49 83.26h1.08v6.49h-1.08z"/><path class="cls-4" d="M78.49 83.34v6.34h-.93v-6.34h.93m.15-.15h-1.23v6.64h1.23v-6.64z"/><path d="M88.37 69.3h9.85v1.07h-9.85z"/><path class="cls-4" d="M98.15 69.38v.92h-9.7v-.92h9.7m.15-.15h-10v1.22h10v-1.22z"/><path d="M57.82 69.3h9.85v1.07h-9.85z"/><path class="cls-4" d="M67.6 69.38v.92h-9.7v-.92h9.7m.15-.15h-10v1.22h10v-1.22z"/></g></svg>