<svg xmlns="http://www.w3.org/2000/svg" viewBox="0 0 164.41 153.07"><defs><style>.cls-1,.cls-2,.cls-3,.cls-4,.cls-7,.cls-9{fill:none}.cls-1,.cls-2,.cls-3,.cls-4,.cls-7{stroke:#222221}.cls-1{stroke-miterlimit:10}.cls-1,.cls-7{stroke-width:.5px}.cls-2,.cls-4{stroke-miterlimit:1.4}.cls-2,.cls-3,.cls-9{stroke-width:.25px}.cls-3,.cls-7,.cls-9{stroke-miterlimit:1.41}.cls-4{stroke-width:.3px}.cls-13{fill:#222221}.cls-9{stroke:#20201f}.cls-10,.cls-11{fill:#20201f}.cls-11{font-size:7px;font-family:Fakt-Normal,Fakt}</style></defs><g id="Ranges"><path class="cls-1" d="M150.74 146.28h6.1v1.12h-6.1zm-.4-13.05h6.91v13.05h-6.91zM24.42 146.28h6.1v1.12h-6.1zm-.4-13.05h6.91v13.05h-6.91zM19.77 17.01H161.5v116.22H19.77zm0 8.5H161.5M19.77 31.18H161.5"/><path class="cls-1" d="M41 38.89A3.06 3.06 0 1144.09 42 3.05 3.05 0 0141 38.89zm10.68 0A3.06 3.06 0 1154.74 42a3.05 3.05 0 01-3.06-3.11zm10.66 0a3.06 3.06 0 113 3.06 3 3 0 01-3-3.06zm10.66 0A3.06 3.06 0 1176 42a3 3 0 01-3-3.11zm10.64 0A3.06 3.06 0 1186.7 42a3.05 3.05 0 01-3.06-3.11zm10.65 0A3.06 3.06 0 1197.35 42a3.05 3.05 0 01-3.06-3.11zm10.65 0A3.06 3.06 0 11108 42a3.05 3.05 0 01-3.06-3.11zm10.65 0a3.06 3.06 0 113.06 3.11 3.05 3.05 0 01-3.06-3.11zm18.41 0a3.06 3.06 0 113 3.11 3.05 3.05 0 01-3-3.11zm10.63 0a3.06 3.06 0 113.05 3.11 3 3 0 01-3.05-3.11z"/><rect class="cls-1" x="25.6" y="35.24" width="10.94" height="7.3" rx="1.82"/><path class="cls-2" d="M27.08 40.84a.49.49 0 01.49-.49.49.49 0 010 1 .49.49 0 01-.49-.51zm1.79 0a.49.49 0 01.49-.49.49.49 0 010 1 .49.49 0 01-.49-.51zm1.79 0a.49.49 0 11.48.49.49.49 0 01-.48-.49z"/><path class="cls-3" d="M32.45 40.84a.48.48 0 01.48-.49.49.49 0 010 1 .48.48 0 01-.48-.51zm1.78 0a.49.49 0 11.49.49.49.49 0 01-.49-.49z"/><rect class="cls-2" x="28" y="36.89" width="5.96" height="1.84" rx=".61"/><path class="cls-1" d="M104.81 111.97v-61.8"/><path class="cls-4" d="M25.6 55.21h2.88v3.44H25.6zm70.49 0h2.88v3.44h-2.88zm14.98 0h2.88v3.44h-2.88zm41.29 0h2.88v3.44h-2.88z"/><path d="M22.6 53.97h79.37v3.54H22.6zm85.47 0h50.17v3.54h-50.17z" fill="#fff" stroke-width=".3" stroke-miterlimit="1.4" stroke="#222221"/><path d="M69.75 25.38v-3.16h16.22l-4.99 1.2h-7.6v1.96h-3.63zm83.22.03v-3.15h-16.58l4.99 1.2h7.6v1.95h3.99zm-21.44-3.19h.98v3.15h-.98zm-61.78 3.19v-3.19H53.3l4.95 1.21h7.54v1.98h3.96zm-41.88.04v-3.19h16.09l-4.95 1.21h-7.54v1.98h-3.6zm20.58-3.23h.97v3.19h-.97zm62.77 3.16v-3.16h16.22l-4.99 1.2h-7.6v1.96h-3.63zm0 .03v-3.19H94.77l4.95 1.21h7.54v1.98h3.96zm-21.3-3.19h.97v3.19h-.97z" stroke-width=".2" fill="#222221" stroke-miterlimit="1.41" stroke="#222221"/><rect class="cls-7" x="35.36" y="65.85" width="53.86" height="28.9" rx="1.25"/><rect class="cls-7" x="117.72" y="65.85" width="27.61" height="28.9" rx="1.22"/><path class="cls-1" d="M19.73 111.97H161.5m-141.77 4.25H161.5m-141.77 2.14H161.5"/><path class="cls-4" d="M19.81 46.64h141.61M19.81 48.76h141.61"/><path class="cls-1" d="M19.81 50.17h141.61"/></g><g id="Dimensions"><path d="M24.29 147.4H11.34m8.5-14.17h-8.5m8.5-116.22h-8.5m8.5 8.5h-8.5" stroke="#20201f" fill="#fff" stroke-miterlimit="1.41" stroke-width=".25"/><path class="cls-9" d="M14.17 25.78v107.18"/><path class="cls-10" d="M13.15 26.61l.18.17.84-.9.84.9.19-.17-1.03-1.1-1.02 1.1zm0 105.52l.18-.17.84.9.84-.9.19.17-1.03 1.1-1.02-1.1z"/><path class="cls-9" d="M14.17 133.23v14.17"/><text class="cls-11" transform="rotate(-90 81.495 71.575)">100รท160</text><text class="cls-11" transform="rotate(-90 47.625 37.705)">760</text><text class="cls-11" transform="rotate(-90 11.2 1.28)">60</text><path class="cls-9" d="M14.17 8.5v8.24"/><path class="cls-10" d="M13.15 15.91l.18-.17.84.9.84-.9.19.17-1.03 1.1-1.02-1.1z"/><path class="cls-9" d="M14.17 25.51v-8.5"/><path d="M19.77 17.01V8.5m141.73 8.51V8.5" fill="#fff" stroke-miterlimit="1.41" stroke-width=".25" stroke="#222221"/><path class="cls-3" d="M161.19 11.34H20.04"/><path class="cls-13" d="M160.36 10.32l-.17.18.9.84-.9.84.17.18 1.1-1.02-1.1-1.02zm-139.49 0l.17.18-.9.84.9.84-.17.18-1.1-1.02 1.1-1.02z"/><path class="cls-3" d="M14.17 147.67v5.4"/><path class="cls-13" d="M13.15 148.5l.18.17.84-.9.84.9.19-.17-1.03-1.1-1.02 1.1z"/><text transform="translate(82.66 7.06)" font-size="7" font-family="Fakt-Normal,Fakt" fill="#222221">1000</text></g></svg>