<svg xmlns="http://www.w3.org/2000/svg" viewBox="0 0 198.43 99.21"><defs><style>.cls-3{fill:none;stroke:#222221;stroke-miterlimit:10}.cls-2{fill:#222221}.cls-3{stroke-width:1.5px}</style></defs><g id="Layer_1" data-name="Layer 1"><path d="M14.17 7.09h170.08v85.04H14.17zm0 2.32h170.08" stroke-width=".55" fill="none" stroke="#222221" stroke-miterlimit="10"/><circle class="cls-2" cx="78.96" cy="69.52" r="4.25"/><circle class="cls-2" cx="78.96" cy="29.69" r="4.96"/><path class="cls-2" d="M97 12.25v75H60.92v-75H97m1.29-2H59.63a.71.71 0 00-.71.71V88.5a.71.71 0 00.71.71h38.66a.71.71 0 00.71-.71V11a.71.71 0 00-.71-.71z"/><path class="cls-3" d="M78.96 11.21v78"/><path class="cls-2" d="M63.66 11.75V15h-3.24v-3.25h3.24m.79-1.5h-4.82a.71.71 0 00-.71.71v4.82a.71.71 0 00.71.71h4.82a.71.71 0 00.71-.71V11a.71.71 0 00-.71-.71zm33.05 1.5V15h-3.24v-3.25h3.24m.79-1.5h-4.82a.71.71 0 00-.71.71v4.82a.71.71 0 00.71.71h4.82a.71.71 0 00.71-.71V11a.71.71 0 00-.71-.71zM63.66 84.47v3.24h-3.24v-3.24h3.24m.79-1.5h-4.82a.71.71 0 00-.71.71v4.82a.71.71 0 00.71.71h4.82a.71.71 0 00.71-.71v-4.82a.71.71 0 00-.71-.71zm33.05 1.5v3.24h-3.24v-3.24h3.24m.79-1.5h-4.82a.71.71 0 00-.71.71v4.82a.71.71 0 00.71.71h4.82a.71.71 0 00.71-.71v-4.82a.71.71 0 00-.71-.71z"/><path class="cls-3" d="M58.92 29.69H99M58.92 69.52H99M58.92 49.61H99"/><path class="cls-2" d="M80.43 47.06h-2.94l-1.47 2.55 1.47 2.54h2.94l1.47-2.54-1.47-2.55z"/><circle class="cls-2" cx="38.34" cy="29.69" r="4.96"/><circle class="cls-2" cx="38.34" cy="69.52" r="3.19"/><path class="cls-2" d="M38.34 61a8.5 8.5 0 108.5 8.5 8.5 8.5 0 00-8.5-8.5zm0 13.11a4.61 4.61 0 114.6-4.61 4.61 4.61 0 01-4.6 4.63z"/><path class="cls-2" d="M56.38 12.25v75H20.3v-75h36.08m1.29-2H19a.7.7 0 00-.7.71V88.5a.7.7 0 00.7.71h38.67a.71.71 0 00.71-.71V11a.71.71 0 00-.71-.71z"/><path class="cls-3" d="M38.34 11.21v78"/><path class="cls-2" d="M23 11.75V15h-3.2v-3.25H23m.8-1.5H19a.7.7 0 00-.7.71v4.82a.7.7 0 00.7.71h4.83a.7.7 0 00.7-.71V11a.7.7 0 00-.7-.71zm33.08 1.5V15h-3.24v-3.25h3.24m.79-1.5h-4.82a.71.71 0 00-.71.71v4.82a.71.71 0 00.71.71h4.82a.71.71 0 00.71-.71V11a.71.71 0 00-.71-.71zM23 84.47v3.24h-3.2v-3.24H23m.8-1.5H19a.7.7 0 00-.7.71v4.82a.7.7 0 00.7.71h4.83a.7.7 0 00.7-.71v-4.82a.7.7 0 00-.7-.71zm33.08 1.5v3.24h-3.24v-3.24h3.24m.79-1.5h-4.82a.71.71 0 00-.71.71v4.82a.71.71 0 00.71.71h4.82a.71.71 0 00.71-.71v-4.82a.71.71 0 00-.71-.71z"/><path class="cls-3" d="M18.3 29.69h40.08M18.3 69.52h40.08M18.3 49.61h40.08"/><path class="cls-2" d="M39.81 47.06h-2.94l-1.47 2.55 1.47 2.54h2.94l1.47-2.54-1.47-2.55z"/><circle class="cls-2" cx="160.09" cy="29.69" r="4.96"/><circle class="cls-2" cx="160.09" cy="69.52" r="3.19"/><path class="cls-2" d="M160.09 61a8.5 8.5 0 108.5 8.5 8.5 8.5 0 00-8.5-8.5zm0 13.11a4.61 4.61 0 114.6-4.61 4.61 4.61 0 01-4.6 4.63z"/><path class="cls-2" d="M178.13 12.25v75h-36.08v-75h36.08m1.29-2h-38.67a.7.7 0 00-.7.71V88.5a.7.7 0 00.7.71h38.67a.71.71 0 00.71-.71V11a.71.71 0 00-.71-.71z"/><path class="cls-3" d="M160.09 11.21v78"/><path class="cls-2" d="M144.78 11.75V15h-3.23v-3.25h3.23m.8-1.5h-4.83a.7.7 0 00-.7.71v4.82a.7.7 0 00.7.71h4.83a.7.7 0 00.7-.71V11a.7.7 0 00-.7-.71zm33.05 1.5V15h-3.24v-3.25h3.24m.79-1.5h-4.82a.71.71 0 00-.71.71v4.82a.71.71 0 00.71.71h4.82a.71.71 0 00.71-.71V11a.71.71 0 00-.71-.71zm-34.64 74.22v3.24h-3.23v-3.24h3.23m.8-1.5h-4.83a.7.7 0 00-.7.71v4.82a.7.7 0 00.7.71h4.83a.7.7 0 00.7-.71v-4.82a.7.7 0 00-.7-.71zm33.05 1.5v3.24h-3.24v-3.24h3.24m.79-1.5h-4.82a.71.71 0 00-.71.71v4.82a.71.71 0 00.71.71h4.82a.71.71 0 00.71-.71v-4.82a.71.71 0 00-.71-.71z"/><path class="cls-3" d="M140.05 29.69h40.08m-40.08 39.83h40.08m-40.08-19.91h40.08"/><path class="cls-2" d="M161.56 47.06h-2.94l-1.47 2.55 1.47 2.54h2.94l1.47-2.54-1.47-2.55zm-24.65-35.81v77H102v-77h34.88m1-1H101v79h36.88v-79z"/><path stroke-miterlimit="3.86" stroke-width=".5" fill="none" stroke="#222221" d="M101.03 83.06h36.88"/></g></svg>