<svg xmlns="http://www.w3.org/2000/svg" viewBox="0 0 131.81 166.05"><defs><style>.cls-2,.cls-6{fill:none}.cls-2,.cls-5,.cls-6{stroke:#000}.cls-2{stroke-width:.5px;stroke-miterlimit:3.86}.cls-5{fill:#fff}.cls-5,.cls-6{stroke-miterlimit:1.41;stroke-width:.25px}.cls-7{font-size:7px;font-family:Fakt-Normal,Fakt}</style></defs><g id="Ranges"><path d="M26.97 146.28h6.1v1.12h-6.1zm-.4-13.05h6.91v13.05h-6.91zm63.4 13.05h6.1v1.12h-6.1zm-.4-13.05h6.91v13.05h-6.91z" stroke-miterlimit="10" stroke-width=".5" stroke="#000" fill="none"/><path class="cls-2" d="M24.29 31.18h75.14v102.05H24.29V31.18zm-4.45-14.17h2.15v8.5h82.88v5.67H19.83v-5.06l.01-9.11zm79.59 14.32h4.44v101.9h-4.44V31.33z"/><path stroke-width=".41" stroke-miterlimit="3.86" stroke="#000" fill="none" d="M103.83 37.68h2.2v5.39h-2.2z"/><path fill="#999" stroke-width=".31" stroke-miterlimit="3.86" stroke="#000" d="M103.87 54.32h2.58v4.62h-2.58z"/><path class="cls-2" d="M99.43 50.17h4.4"/><path d="M63.34 21.53H23.26v3.98h1.3v-2.59h2.35v2.59h1.3v-2.59h14.58v2.59h1.02v-2.59H57.1v2.59h1.3v-2.59h3.63v2.59h1.31v-3.98z"/><path d="M62.08 21.53h40.08v3.98h-1.31v-2.59H98.5v2.59h-1.3v-2.59H82.63v2.59h-1.02v-2.59h-13.3v2.59h-1.3v-2.59h-3.63v2.59h-1.3v-3.98z"/></g><g id="Dimensions"><path class="cls-5" d="M19.84 17.01h-8.5m0 8.5h8.5"/><path class="cls-6" d="M19.84 31.18l.03 127.73m4.42-25.68v19.84"/><text class="cls-7" transform="rotate(-90 17.58 7.66)">60</text><path class="cls-6" d="M14.17 25.24v-7.96"/><path d="M15.2 24.41l-.19-.17-.84.91-.84-.91-.18.17 1.02 1.1 1.03-1.1zm0-6.3l-.19.17-.84-.9-.84.9-.18-.17 1.02-1.1 1.03 1.1z"/><path class="cls-6" d="M24.56 150.24h5.4"/><path d="M25.39 151.26l.17-.18-.91-.84.91-.84-.17-.18-1.1 1.02 1.1 1.02z"/><text class="cls-7" transform="translate(7.36 148.82)">35</text><path class="cls-6" d="M11.37 150.24h8.23"/><path d="M18.77 151.26l-.17-.18.9-.84-.9-.84.17-.18 1.1 1.02-1.1 1.02z"/><path class="cls-6" d="M18.62 150.24h6.37m78.88-17.01v25.68m-7.8-11.51v5.67m-5.66-2.83h5.39"/><path d="M94.97 151.26l-.16-.18.9-.84-.9-.84.16-.18 1.11 1.02-1.11 1.02z"/><path class="cls-6" d="M96.07 150.24h7.8"/><text class="cls-7" transform="translate(120.73 148.82)">55</text><path class="cls-6" d="M124.73 150.24h-20.59"/><path d="M104.97 149.22l.17.18-.9.84.9.84-.17.18-1.1-1.02 1.1-1.02z"/><path class="cls-5" d="M21.99 17.01v-8.5m82.88 16.97V8.51"/><path class="cls-6" d="M104.59 11.34H22.26"/><path d="M103.77 10.32l-.17.18.9.84-.9.84.17.18 1.1-1.02-1.1-1.02zm-80.68 0l.17.18-.9.84.9.84-.17.18-1.1-1.02 1.1-1.02z"/><text class="cls-7" transform="translate(57.46 7.06)">585</text><path class="cls-5" d="M104.87 31.18h5.66"/><text class="cls-7" transform="rotate(90 48.735 64.635)">40</text><path class="cls-6" d="M110.53 25.51v5.67"/><path class="cls-5" d="M104.87 25.51h15.59"/><text transform="rotate(90 24.67 97.21)" fill="#1b1a19" font-size="7" font-family="Fakt-Normal,Fakt">860รท920</text><path class="cls-6" d="M117.62 25.78v121.35"/><path d="M116.6 26.61l.18.17.84-.9.84.9.18-.17-1.02-1.1-1.02 1.1zm0 119.69l.18-.17.84.91.84-.91.18.17-1.02 1.1-1.02-1.1z"/><path class="cls-6" d="M110.53 25.27v-5.4"/><path d="M111.56 24.44l-.19-.17-.84.91-.83-.91-.19.17 1.02 1.1 1.03-1.1z"/><path class="cls-6" d="M95.34 147.4h25.12m-16.88 8.67H20.13"/><path d="M102.76 155.05l-.18.18.91.84-.91.84.18.18 1.1-1.02-1.1-1.02zm-81.8 0l.17.18-.9.84.9.84-.17.18-1.1-1.02 1.1-1.02z"/><text class="cls-7" transform="translate(57.44 162.65)">600</text></g></svg>