<svg id="Black" xmlns="http://www.w3.org/2000/svg" viewBox="0 0 184.25 184.25">
  <defs>
    <style>
      .cls-1, .cls-2, .cls-3 {
        fill: none;
        stroke: #222221;
        stroke-width: 2px;
      }

      .cls-1, .cls-2 {
        stroke-miterlimit: 10;
      }

      .cls-2, .cls-3 {
        stroke-linecap: round;
      }

      .cls-3 {
        stroke-linejoin: round;
      }
    </style>
  </defs>
  <circle class="cls-1" cx="92.13" cy="92.13" r="89.29"/>
  <g>
    <polyline class="cls-2" points="28.52 143.04 43.73 140 46.77 124.78"/>
    <path class="cls-3" d="M43.73,140A69.45,69.45,0,0,1,126,29.86"/>
  </g>
  <g>
    <polyline class="cls-2" points="155.73 41.21 140.52 44.26 137.48 59.47"/>
    <path class="cls-3" d="M140.52,44.26A69.45,69.45,0,0,1,58.27,154.39"/>
  </g>
  <circle class="cls-1" cx="92.13" cy="92.13" r="46.99" transform="translate(-18.7 160.62) rotate(-76.72)"/>
  <path class="cls-1" d="M94.07,88A22.72,22.72,0,0,1,133,88a2.74,2.74,0,0,1-2.34,4.14h-34A4.56,4.56,0,0,0,94.07,88Z"/>
  <path class="cls-1" d="M96.24,94.07a22.72,22.72,0,0,1,0,38.93,2.73,2.73,0,0,1-4.13-2.34v-34A4.56,4.56,0,0,0,96.24,94.07Z"/>
  <path class="cls-1" d="M87.57,92.13a4.56,4.56,0,0,0,2.61,4.11,22.71,22.71,0,0,1-38.92,0,2.72,2.72,0,0,1,2.33-4.13Z"/>
  <path class="cls-1" d="M88,90.18a22.71,22.71,0,0,1,0-38.92,2.73,2.73,0,0,1,4.14,2.33v34A4.56,4.56,0,0,0,88,90.18Z"/>
</svg>
