<svg id="Black" xmlns="http://www.w3.org/2000/svg" viewBox="0 0 184.25 184.25">
  <defs>
    <style>
      .cls-1, .cls-2 {
        fill: none;
      }

      .cls-1, .cls-2, .cls-3 {
        stroke: #222221;
        stroke-miterlimit: 10;
      }

      .cls-1 {
        stroke-width: 2px;
      }

      .cls-2 {
        stroke-linecap: round;
      }

      .cls-2, .cls-3 {
        stroke-width: 4px;
      }

      .cls-3 {
        fill: #222221;
      }
    </style>
  </defs>
  <circle class="cls-1" cx="92.13" cy="92.23" r="89.29"/>
  <path class="cls-1" d="M99.34,110.91V47a7.21,7.21,0,0,0-7.21-7.22h0A7.22,7.22,0,0,0,84.91,47v64a17.69,17.69,0,1,0,14.43,0Z"/>
  <line class="cls-2" x1="92.13" y1="48.89" x2="92.13" y2="126.56"/>
  <circle class="cls-3" cx="92.13" cy="127.82" r="3.3"/>
  <g>
    <line class="cls-1" x1="146.41" y1="39.73" x2="122.69" y2="63.45"/>
    <line class="cls-1" x1="122.69" y1="111.13" x2="146.41" y2="134.84"/>
    <line class="cls-1" x1="156.23" y1="87.29" x2="122.69" y2="87.29"/>
  </g>
  <g>
    <line class="cls-1" x1="37.84" y1="134.84" x2="61.56" y2="111.13"/>
    <line class="cls-1" x1="61.56" y1="63.45" x2="37.84" y2="39.73"/>
    <line class="cls-1" x1="28.02" y1="87.29" x2="61.56" y2="87.29"/>
  </g>
</svg>
