<svg id="Black" xmlns="http://www.w3.org/2000/svg" viewBox="0 0 184.25 184.25">
  <defs>
    <style>
      .cls-1 {
        fill: none;
        stroke: #222221;
        stroke-miterlimit: 10;
        stroke-width: 2px;
      }
    </style>
  </defs>
  <circle class="cls-1" cx="92.13" cy="92.13" r="89.29"/>
  <g>
    <g>
      <rect class="cls-1" x="31" y="84.22" width="12.72" height="16.54" transform="translate(74.72 184.98) rotate(-180)"/>
      <rect class="cls-1" x="48.41" y="80.91" width="12.72" height="19.85" transform="translate(109.54 181.67) rotate(-180)"/>
      <rect class="cls-1" x="65.83" y="76.94" width="12.72" height="23.82" transform="translate(144.37 177.7) rotate(-180)"/>
      <rect class="cls-1" x="83.24" y="72.17" width="12.72" height="28.59" transform="translate(179.2 172.94) rotate(-180)"/>
      <rect class="cls-1" x="100.65" y="66.46" width="12.72" height="34.31" transform="translate(214.03 167.22) rotate(-180)"/>
      <rect class="cls-1" x="118.07" y="59.6" width="12.72" height="41.17" transform="translate(248.86 160.36) rotate(-180)"/>
      <rect class="cls-1" x="135.48" y="51.36" width="12.72" height="49.4" transform="translate(283.69 152.13) rotate(-180)"/>
    </g>
    <g>
      <polyline class="cls-1" points="132.9 109.47 148.21 124.78 132.9 140.09"/>
      <line class="cls-1" x1="108.77" y1="124.78" x2="148.21" y2="124.78"/>
    </g>
    <g>
      <polyline class="cls-1" points="46.31 140.09 31 124.78 46.31 109.47"/>
      <line class="cls-1" x1="70.43" y1="124.78" x2="31" y2="124.78"/>
    </g>
  </g>
</svg>
