<svg id="Black" xmlns="http://www.w3.org/2000/svg" viewBox="0 0 184.25 184.25">
  <defs>
    <style>
      .cls-1 {
        fill: none;
        stroke: #222221;
        stroke-miterlimit: 10;
        stroke-width: 2px;
      }
    </style>
  </defs>
  <g>
    <circle class="cls-1" cx="91.76" cy="92.13" r="39.45"/>
    <circle class="cls-1" cx="92.13" cy="92.13" r="89.29"/>
    <circle class="cls-1" cx="92.13" cy="92.13" r="63.48"/>
    <g>
      <g>
        <ellipse class="cls-1" cx="34.21" cy="92.13" rx="2.97" ry="4.95"/>
        <ellipse class="cls-1" cx="149.31" cy="92.13" rx="2.97" ry="4.95"/>
      </g>
      <g>
        <ellipse class="cls-1" cx="45.2" cy="58.3" rx="4.95" ry="2.97" transform="translate(-28.53 60.6) rotate(-54)"/>
        <ellipse class="cls-1" cx="138.32" cy="125.95" rx="4.95" ry="2.97" transform="translate(-44.88 163.82) rotate(-54)"/>
      </g>
      <g>
        <ellipse class="cls-1" cx="73.97" cy="37.39" rx="4.95" ry="2.97" transform="translate(-7.93 24.69) rotate(-18)"/>
        <ellipse class="cls-1" cx="109.54" cy="146.86" rx="4.95" ry="2.97" transform="translate(-40.02 41.04) rotate(-18)"/>
      </g>
      <g>
        <ellipse class="cls-1" cx="109.54" cy="37.39" rx="2.97" ry="4.95" transform="translate(40.13 130.02) rotate(-72)"/>
        <ellipse class="cls-1" cx="73.97" cy="146.86" rx="2.97" ry="4.95" transform="translate(-88.56 171.83) rotate(-72)"/>
      </g>
      <g>
        <ellipse class="cls-1" cx="138.32" cy="58.3" rx="2.97" ry="4.95" transform="translate(-7.85 92.43) rotate(-36)"/>
        <ellipse class="cls-1" cx="45.2" cy="125.95" rx="2.97" ry="4.95" transform="translate(-65.4 50.62) rotate(-36)"/>
      </g>
      <g>
        <ellipse class="cls-1" cx="146.49" cy="74.34" rx="2.97" ry="4.95" transform="translate(-15.8 48.91) rotate(-18)"/>
        <ellipse class="cls-1" cx="37.02" cy="109.91" rx="2.97" ry="4.95" transform="translate(-32.15 16.82) rotate(-18)"/>
      </g>
      <g>
        <ellipse class="cls-1" cx="146.49" cy="109.91" rx="4.95" ry="2.97" transform="translate(-3.31 215.27) rotate(-72)"/>
        <ellipse class="cls-1" cx="37.02" cy="74.34" rx="4.95" ry="2.97" transform="translate(-45.12 86.58) rotate(-72)"/>
      </g>
      <g>
        <ellipse class="cls-1" cx="125.58" cy="138.69" rx="4.95" ry="2.97" transform="translate(-57.53 100.3) rotate(-36)"/>
        <ellipse class="cls-1" cx="57.93" cy="45.57" rx="4.95" ry="2.97" transform="translate(-15.72 42.75) rotate(-36)"/>
      </g>
      <g>
        <ellipse class="cls-1" cx="91.76" cy="149.68" rx="4.95" ry="2.97"/>
        <ellipse class="cls-1" cx="91.76" cy="34.58" rx="4.95" ry="2.97"/>
      </g>
      <g>
        <ellipse class="cls-1" cx="57.93" cy="138.69" rx="2.97" ry="4.95" transform="translate(-88.32 104.03) rotate(-54)"/>
        <ellipse class="cls-1" cx="125.58" cy="45.57" rx="2.97" ry="4.95" transform="translate(14.9 120.38) rotate(-54)"/>
      </g>
    </g>
  </g>
</svg>
