<svg xmlns="http://www.w3.org/2000/svg" viewBox="0 0 150.24 153.07"><defs><style>.cls-10,.cls-5,.cls-9{fill:#fff}.cls-12,.cls-2,.cls-7,.cls-8{fill:none}.cls-10,.cls-2,.cls-3,.cls-5,.cls-7,.cls-8,.cls-9{stroke:#222221}.cls-10,.cls-2,.cls-9{stroke-miterlimit:10}.cls-2{stroke-width:.5px}.cls-16,.cls-3{fill:#222221}.cls-12,.cls-3,.cls-5,.cls-8{stroke-miterlimit:1.41}.cls-3{stroke-width:.2px}.cls-7{stroke-miterlimit:1.4}.cls-10,.cls-5{stroke-width:.3px}.cls-12,.cls-7,.cls-8{stroke-width:.25px}.cls-9{stroke-width:.4px}.cls-12{stroke:#20201f}.cls-13,.cls-14{fill:#20201f}.cls-14{font-size:7px;font-family:Fakt-Normal,Fakt}</style></defs><path fill="#fff" d="M19.84 17.01v116.22h4.11v13.05h.41v1.12h6.1v-1.12h.4v-13.05h105.52v13.05h.4v1.12h6.11v-1.12h.4v-13.05h4.11V17.01H19.84z" id="Riempimento"/><g id="Ranges"><path class="cls-2" d="M136.79 146.28h6.1v1.12h-6.1zm-.41-13.05h6.91v13.05h-6.91zM24.36 146.28h6.1v1.12h-6.1zm-.41-13.05h6.91v13.05h-6.91zM19.84 17.01H147.4v116.22H19.84zm0 8.5H147.4M19.84 31.18H147.4m-42.52 80.79v-61.8"/><path class="cls-3" d="M65.39 25.57v-2.79h14.33l-4.41 1.06h-6.72v1.73h-3.2zm73.57.04v-2.79H124.3l4.41 1.06h6.72v1.73h3.53zM120 22.78h.86v2.79H120z"/><path class="cls-3" d="M65.39 25.61v-2.83H50.84l4.38 1.08h6.66v1.75h3.51zm-37.04.03v-2.82h14.23l-4.38 1.07h-6.66v1.75h-3.19zm18.2-2.86h.86v2.82h-.86zm55.5 2.79v-2.79h14.33l-4.41 1.06h-6.71v1.73h-3.21zm0 .04v-2.83H87.5l4.38 1.08h6.66v1.75h3.51zm-18.84-2.83h.86v2.82h-.86z"/><path class="cls-2" d="M19.84 111.97H147.4m-127.56 4.25H147.4m-127.56 2.14H147.4"/><path d="M19.92 46.64h127.41M19.92 48.76h127.41" stroke-width=".3" stroke-miterlimit="1.4" stroke="#222221" fill="none"/><path class="cls-2" d="M19.92 50.17h127.41"/><path class="cls-5" d="M29.58 55.41h66.2v2.65h-66.2zm-4.76.78h3.15v.94h-3.15z"/><ellipse class="cls-5" cx="24.35" cy="56.61" rx="1.41" ry="1.45"/><path class="cls-5" d="M28.66 56.97h.91v3.04h-.91z"/><rect class="cls-5" x="26.67" y="55" width="3.82" height="3.4" rx=".24"/><path class="cls-5" d="M97.52 56.18h3.15v.94h-3.15z"/><ellipse class="cls-5" cx="101.01" cy="56.61" rx="1.41" ry="1.45"/><ellipse class="cls-5" cx="101.01" cy="56.61" rx="1.41" ry="1.45"/><path class="cls-5" d="M95.95 56.97h.91v3.04h-.91z"/><rect class="cls-5" x="94.88" y="54.99" width="3.82" height="3.4" rx=".24"/><path class="cls-5" d="M114.54 55.4h23.31v2.62h-23.31zm-3.73.78h3.11v.93h-3.11z"/><ellipse class="cls-5" cx="110.36" cy="56.6" rx="1.4" ry="1.43"/><path class="cls-5" d="M114.62 56.95h.9v3.01h-.9z"/><rect class="cls-5" x="112.65" y="55" width="3.78" height="3.37" rx=".24"/><path class="cls-5" d="M138.96 56.18h3.11v.93h-3.11z"/><ellipse class="cls-5" cx="142.41" cy="56.6" rx="1.4" ry="1.43"/><ellipse class="cls-5" cx="142.41" cy="56.6" rx="1.4" ry="1.43"/><path class="cls-5" d="M137.4 56.95h.9v3.01h-.9z"/><rect class="cls-5" x="136.34" y="55" width="3.78" height="3.37" rx=".24"/><path d="M35.75 95.8v-24C49 67.75 57.24 66.87 71 68.05a80 80 0 0118.32 3.47v24.24h-53.6zm80.38 0V70.15c5.08-3.12 8.26-3.79 13.56-2.89a17.94 17.94 0 017 2.67v25.84h-20.6z" stroke-miterlimit="3.86" stroke-width=".5" stroke="#222221" fill="none"/><rect class="cls-2" x="25.51" y="35.24" width="10.94" height="7.3" rx="1.82"/><path class="cls-7" d="M27 40.84a.49.49 0 01.49-.49.49.49 0 010 1 .49.49 0 01-.49-.51zm1.78 0a.49.49 0 11.48.49.49.49 0 01-.48-.49zm1.78 0a.49.49 0 11.49.49.49.49 0 01-.49-.49z"/><path class="cls-8" d="M32.35 40.84a.49.49 0 11.49.49.49.49 0 01-.49-.49zm1.79 0a.49.49 0 11.49.49.49.49 0 01-.49-.49z"/><rect class="cls-7" x="27.91" y="36.89" width="5.96" height="1.84" rx=".61"/><circle class="cls-9" cx="44.04" cy="38.89" r="3.09"/><rect class="cls-10" x="45.12" y="38.3" width="3.69" height="1.19" rx=".56"/><circle class="cls-10" cx="44.04" cy="38.89" r="1.79"/><circle class="cls-9" cx="54.69" cy="38.89" r="3.09"/><rect class="cls-10" x="55.77" y="38.3" width="3.69" height="1.19" rx=".56"/><circle class="cls-10" cx="54.69" cy="38.89" r="1.79"/><circle class="cls-9" cx="65.34" cy="38.89" r="3.09"/><rect class="cls-10" x="66.42" y="38.3" width="3.69" height="1.19" rx=".56"/><circle class="cls-10" cx="65.34" cy="38.89" r="1.79"/><circle class="cls-9" cx="75.99" cy="38.89" r="3.09"/><rect class="cls-10" x="77.07" y="38.3" width="3.69" height="1.19" rx=".56"/><circle class="cls-10" cx="75.99" cy="38.89" r="1.79"/><circle class="cls-9" cx="86.64" cy="38.89" r="3.09"/><rect class="cls-10" x="87.72" y="38.3" width="3.69" height="1.19" rx=".56"/><circle class="cls-10" cx="86.64" cy="38.89" r="1.79"/><circle class="cls-9" cx="97.29" cy="38.89" r="3.09"/><rect class="cls-10" x="98.37" y="38.3" width="3.69" height="1.19" rx=".56"/><circle class="cls-10" cx="97.29" cy="38.89" r="1.79"/><circle class="cls-9" cx="107.94" cy="38.89" r="3.09"/><rect class="cls-10" x="109.02" y="38.3" width="3.69" height="1.19" rx=".56"/><circle class="cls-10" cx="107.94" cy="38.89" r="1.79"/><circle class="cls-9" cx="118.59" cy="38.89" r="3.09"/><rect class="cls-10" x="119.67" y="38.3" width="3.69" height="1.19" rx=".56"/><circle class="cls-10" cx="118.59" cy="38.89" r="1.79"/><circle class="cls-9" cx="129.24" cy="38.89" r="3.09"/><rect class="cls-10" x="130.32" y="38.3" width="3.69" height="1.19" rx=".56"/><circle class="cls-10" cx="129.24" cy="38.89" r="1.79"/><circle class="cls-9" cx="139.89" cy="38.89" r="3.09"/><rect class="cls-10" x="140.97" y="38.3" width="3.69" height="1.19" rx=".56"/><circle class="cls-10" cx="139.89" cy="38.89" r="1.79"/></g><g id="Dimensions"><path d="M24.29 147.4H11.34m8.5-14.17h-8.5m8.5-116.22h-8.5m8.5 8.5h-8.5" stroke="#20201f" stroke-width=".25" stroke-miterlimit="1.41" fill="#fff"/><path class="cls-12" d="M14.17 25.78v107.18"/><path class="cls-13" d="M13.15 26.61l.18.17.84-.9.84.9.19-.17-1.03-1.1-1.02 1.1zm0 105.52l.18-.17.84.9.84-.9.19.17-1.03 1.1-1.02-1.1z"/><text class="cls-14" transform="rotate(-90 47.625 37.705)">760</text><text class="cls-14" transform="rotate(-90 11.2 1.28)">60</text><path class="cls-12" d="M14.17 8.5v8.24"/><path class="cls-13" d="M13.15 15.91l.18-.17.84.9.84-.9.19.17-1.03 1.1-1.02-1.1z"/><path class="cls-12" d="M14.17 25.51v-8.5"/><path d="M19.84 17.01V8.5m127.56 8.51V8.5" stroke-width=".25" stroke-miterlimit="1.41" stroke="#222221" fill="#fff"/><path class="cls-8" d="M147.13 11.34H20.11"/><path class="cls-16" d="M146.3 10.32l-.17.18.91.84-.91.84.17.18 1.1-1.02-1.1-1.02zm-125.36 0l.17.18-.9.84.9.84-.17.18-1.1-1.02 1.1-1.02z"/><text transform="translate(77.66 7.06)" font-size="7" font-family="Fakt-Normal,Fakt" fill="#222221">900</text><path class="cls-12" d="M14.17 133.23v14.17"/><text class="cls-14" transform="rotate(-90 81.495 71.575)">100รท160</text><path class="cls-8" d="M14.17 147.67v5.4"/><path class="cls-16" d="M13.15 148.5l.18.17.84-.9.84.9.19-.17-1.03-1.1-1.02 1.1z"/></g></svg>