<svg id="Black" xmlns="http://www.w3.org/2000/svg" viewBox="0 0 184.25 184.25">
  <defs>
    <style>
      .cls-1 {
        fill: none;
        stroke: #222221;
        stroke-miterlimit: 10;
        stroke-width: 2px;
      }
    </style>
  </defs>
  <circle class="cls-1" cx="92.13" cy="92.13" r="89.29" transform="translate(-38.16 92.13) rotate(-45)"/>
  <g>
    <polyline class="cls-1" points="34.3 137.56 53.58 156.84 72.85 137.56 92.13 156.84 111.4 137.56 130.68 156.84 149.95 137.56"/>
    <path class="cls-1" d="M25.54,107.43c20.54-15.09,52.73-15.08,73.27,0,16.52,12.11,43.39,12.11,59.9,0"/>
    <path class="cls-1" d="M143.81,80.83a20.93,20.93,0,0,0-29.6-29.61,20,20,0,0,0-1.86,2.27,20.94,20.94,0,1,0-40.45,0,21.07,21.07,0,0,0-1.85-2.27A20.94,20.94,0,0,0,40.44,80.83"/>
  </g>
</svg>
