<svg id="Black" xmlns="http://www.w3.org/2000/svg" viewBox="0 0 184.25 184.25">
  <defs>
    <style>
      .cls-1 {
        fill: none;
        stroke: #222221;
        stroke-miterlimit: 10;
        stroke-width: 2px;
      }
    </style>
  </defs>
  <g>
    <circle class="cls-1" cx="92.13" cy="92.13" r="89.29"/>
    <line class="cls-1" x1="47.08" y1="126.14" x2="76.87" y2="66.18"/>
    <line class="cls-1" x1="55.11" y1="133.29" x2="114.35" y2="105.23"/>
    <path class="cls-1" d="M123.45,109.06a21.64,21.64,0,0,0,13.15,5.48,17.3,17.3,0,0,0,2.73,3.1,17.56,17.56,0,1,0,23.39-26.21,17.94,17.94,0,0,0-3.39-2.36,21.72,21.72,0,0,0-15.9-17.26A33.1,33.1,0,0,0,105.68,35.6a21.69,21.69,0,0,0-17.37-9A17.56,17.56,0,1,0,61,47.72,17.43,17.43,0,0,0,66.51,51"/>
    <line class="cls-1" x1="109.77" y1="74" x2="66.92" y2="115.4"/>
    <ellipse class="cls-1" cx="36.77" cy="141.71" rx="2.97" ry="8.54" transform="translate(-89.43 67.51) rotate(-45)"/>
    <ellipse class="cls-1" cx="36.77" cy="141.71" rx="4.97" ry="14.28" transform="translate(-89.43 67.51) rotate(-45)"/>
  </g>
</svg>
