<?xml version="1.0" standalone="no"?>
<!DOCTYPE svg PUBLIC "-//W3C//DTD SVG 20010904//EN"
 "http://www.w3.org/TR/2001/REC-SVG-20010904/DTD/svg10.dtd">
<svg version="1.0" xmlns="http://www.w3.org/2000/svg"
 width="2084.000000pt" height="2084.000000pt" viewBox="0 0 2084.000000 2084.000000"
 preserveAspectRatio="xMidYMid meet">
<metadata>
Created by potrace 1.14, written by Peter Selinger 2001-2017
</metadata>
<g transform="translate(0.000000,2084.000000) scale(0.100000,-0.100000)"
fill="#000000" stroke="none">
<path d="M5724 15922 c-216 -29 -422 -148 -549 -316 -67 -90 -151 -286 -170
-396 -3 -19 -9 -44 -12 -55 -9 -30 -5 -199 6 -228 5 -14 8 -27 6 -29 -2 -2 8
-28 23 -58 45 -89 112 -122 237 -116 176 9 250 88 259 277 6 140 44 224 140
311 22 20 59 46 82 57 104 52 -101 49 3289 47 1971 -1 3155 -6 3155 -12 0 -5
-7 -18 -17 -29 -20 -24 -187 -218 -224 -260 -77 -88 -190 -218 -234 -269 -27
-33 -55 -64 -60 -70 -17 -18 -461 -532 -559 -646 -49 -58 -94 -109 -100 -115
-6 -5 -81 -91 -166 -190 -134 -156 -302 -351 -389 -450 -14 -16 -67 -77 -116
-135 -50 -58 -99 -114 -110 -126 -11 -12 -41 -46 -66 -75 -25 -30 -122 -142
-215 -249 -93 -108 -191 -222 -219 -255 -27 -32 -69 -79 -91 -104 -23 -25
-133 -152 -244 -281 -184 -213 -288 -333 -315 -364 -6 -6 -55 -63 -110 -126
-54 -63 -115 -133 -134 -156 -20 -22 -47 -53 -61 -70 -136 -158 -285 -330
-289 -334 -4 -3 -33 -36 -66 -75 -32 -38 -66 -77 -75 -86 -8 -8 -31 -35 -50
-59 -19 -24 -40 -48 -46 -54 -6 -6 -59 -67 -118 -136 -59 -69 -120 -138 -134
-155 -15 -16 -71 -82 -126 -145 -54 -63 -113 -131 -130 -150 -17 -19 -72 -82
-121 -140 -50 -57 -97 -111 -105 -120 -8 -9 -35 -40 -60 -69 -63 -74 -75 -89
-130 -151 -26 -30 -114 -131 -195 -225 -81 -93 -169 -195 -195 -225 -60 -68
-73 -83 -135 -156 -27 -32 -109 -126 -181 -209 -72 -82 -141 -163 -155 -179
-13 -15 -33 -38 -44 -50 -11 -12 -42 -48 -70 -81 -27 -32 -54 -63 -60 -69 -5
-6 -50 -58 -100 -116 -95 -111 -113 -132 -191 -221 -27 -30 -71 -82 -99 -114
-27 -33 -68 -80 -91 -105 -23 -25 -73 -82 -112 -128 -39 -45 -74 -84 -78 -85
-16 -5 -55 131 -78 273 -17 102 -56 164 -131 203 -31 16 -62 21 -132 23 -155
5 -229 -32 -257 -127 -19 -62 -19 -241 0 -344 57 -315 281 -582 564 -673 145
-46 138 -45 767 -47 372 0 606 -4 612 -10 5 -6 11 -40 15 -76 3 -36 11 -90 17
-120 6 -30 12 -63 13 -74 7 -47 41 -168 76 -277 187 -562 594 -961 1149 -1124
47 -14 97 -28 111 -30 14 -3 41 -9 60 -14 40 -11 62 -14 250 -36 94 -11 310
-5 400 11 14 3 41 7 60 10 19 3 62 13 95 21 33 9 67 17 75 19 41 9 195 71 273
111 344 175 660 493 815 819 36 76 40 85 68 159 49 134 88 339 94 491 1 33 3
71 4 85 l1 25 2038 0 c1257 0 2041 -4 2045 -9 3 -6 6 -26 7 -45 5 -85 18 -182
37 -270 11 -51 21 -101 23 -111 2 -10 20 -67 40 -126 149 -447 465 -808 887
-1012 102 -49 285 -116 348 -127 18 -3 36 -8 40 -10 27 -17 317 -49 440 -48
54 0 232 13 240 18 3 1 28 6 55 9 308 41 666 229 926 486 155 154 250 283 336
460 111 226 185 519 187 742 1 44 3 48 26 49 14 0 207 2 430 4 223 2 414 6
425 8 11 3 47 8 80 11 195 22 338 84 453 194 78 76 120 135 162 225 58 124 61
151 60 517 -2 762 -21 1910 -35 2130 -7 107 -38 264 -71 355 -34 93 -200 432
-956 1947 -655 1310 -690 1374 -790 1465 -96 86 -179 132 -300 167 -118 34
-164 37 -428 36 -499 -4 -2646 -5 -2662 -2 -14 3 -16 30 -17 250 -4 571 -13
745 -48 892 -74 303 -361 559 -693 616 -39 7 -8036 13 -8086 6z"/>
<path d="M2465 14033 c-81 -20 -152 -80 -176 -150 -20 -59 -16 -189 8 -243 28
-61 52 -86 107 -111 57 -25 121 -29 436 -29 337 1 380 4 447 38 118 61 172
210 120 335 -23 54 -82 112 -140 138 -51 24 -56 24 -417 25 -201 1 -374 -1
-385 -3z"/>
<path d="M4185 14026 c-61 -15 -125 -54 -158 -98 -27 -35 -53 -117 -51 -158 7
-140 75 -224 208 -255 39 -9 539 -12 2091 -11 l2040 2 56 22 c115 46 176 144
167 266 -9 103 -55 167 -156 214 l-57 27 -2045 1 c-1555 1 -2057 -1 -2095 -10z"/>
<path d="M2436 12475 c-93 -20 -147 -59 -186 -135 -76 -149 -11 -310 149 -371
l56 -21 2042 0 c1612 0 2052 2 2095 12 112 27 172 98 183 218 14 163 -57 271
-195 298 -61 12 -4086 10 -4144 -1z"/>
<path d="M1116 10975 c-67 -19 -122 -74 -143 -144 -35 -123 -15 -250 48 -303
31 -26 81 -47 154 -65 50 -12 1523 -13 1579 -1 112 24 199 87 236 172 54 121
-23 285 -157 336 -48 18 -85 19 -859 18 -640 0 -819 -3 -858 -13z"/>
<path d="M3595 10980 c-173 -42 -249 -192 -185 -364 15 -38 35 -67 65 -94 86
-75 -84 -70 2209 -68 l2051 1 55 23 c95 39 136 88 148 181 26 186 -38 292
-192 320 -69 13 -4101 14 -4151 1z"/>
<path d="M2248 9454 c-174 -35 -260 -184 -198 -346 34 -89 116 -152 225 -172
48 -10 3988 -10 4042 -1 146 25 246 89 276 179 42 124 -54 300 -186 337 -57
16 -4080 19 -4159 3z"/>
</g>
</svg>
