<svg id="Livello_1" data-name="Livello 1" xmlns="http://www.w3.org/2000/svg" viewBox="0 0 188.15 105.92"><defs><style>.cls-1{fill:#1a1b19}.cls-4,.cls-5{stroke:#010101;stroke-miterlimit:10}.cls-3{fill:#1e1e1c}.cls-4,.cls-5{fill:none}.cls-4{stroke-width:.25px}.cls-5{stroke-width:.1px}</style></defs><path class="cls-1" d="M118 67.71a4.28 4.28 0 11-4.28-4.25 4.27 4.27 0 014.28 4.25m2.12-39.06a6.43 6.43 0 11-6.42-6.39 6.41 6.41 0 016.42 6.39"/><path d="M94.58 9.55h38.39v77.34H94.58zm-.16 68.5h38.55" stroke="#010101" stroke-miterlimit="10" fill="#fff" stroke-width=".5"/><path class="cls-1" d="M35 59.26a8.51 8.51 0 108.57 8.51A8.54 8.54 0 0035 59.26m0 13.19a4.68 4.68 0 114.71-4.68A4.7 4.7 0 0135 72.45M35 71a3.19 3.19 0 113.21-3.19A3.2 3.2 0 0135 71m6.26-42.35a6.42 6.42 0 11-6.42-6.39 6.4 6.4 0 016.42 6.39"/><path class="cls-3" d="M15.41 9.29v38.84H54.5V9.29zM51.77 44a1.88 1.88 0 01-1.88 1.87H20A1.88 1.88 0 0118.14 44V13.42A1.88 1.88 0 0120 11.54h29.89a1.88 1.88 0 011.88 1.88z"/><path class="cls-3" d="M18.1 34.25h.62a1.42 1.42 0 001.21-.69l2.41-4.16a1.36 1.36 0 000-1.38l-2.41-4.15a1.39 1.39 0 00-1.21-.69h-.62m-.1 1.28a1.42 1.42 0 011.21.69L20.84 28a1.36 1.36 0 010 1.38l-1.66 2.87a1.38 1.38 0 01-1.21.67h.22M29.63 11.4l1.54 2.65a1.56 1.56 0 001.35.78h4.87a1.56 1.56 0 001.35-.78l1.54-2.65m-1.54 0L38 12.73a1.55 1.55 0 01-1.35.77h-3.36a1.55 1.55 0 01-1.35-.77l-.77-1.33m9.02 34.5l-1.45-2.5a1.56 1.56 0 00-1.35-.78h-4.87a1.56 1.56 0 00-1.35.78l-1.45 2.5m1.53 0l.69-1.18a1.55 1.55 0 011.35-.72h3.33a1.55 1.55 0 011.35.77l.69 1.18"/><path class="cls-3" transform="rotate(90 34.955 28.735)" d="M21.06 27.98h27.79v1.5H21.06z"/><path class="cls-3" d="M51.82 23.18h-.62a1.39 1.39 0 00-1.21.69L47.58 28a1.36 1.36 0 000 1.38L50 33.56a1.42 1.42 0 001.21.69h.62m.11-1.25a1.39 1.39 0 01-1.2-.69l-1.66-2.91a1.36 1.36 0 010-1.38l1.66-2.87a1.39 1.39 0 011.2-.67h-.21"/><path class="cls-3" d="M21.02 27.97h27.81v1.49H21.02zM54.5 87.13V48.28H15.41v38.85zM51.77 83a1.88 1.88 0 01-1.88 1.88H20A1.88 1.88 0 0118.14 83V52.41A1.88 1.88 0 0120 50.53h29.89a1.88 1.88 0 011.88 1.88z"/><path class="cls-3" d="M18.1 73.24h.62a1.39 1.39 0 001.21-.69l2.41-4.15a1.38 1.38 0 000-1.39l-2.41-4.15a1.39 1.39 0 00-1.21-.69h-.62m.09 1.31H18a1.38 1.38 0 011.21.67L20.84 67a1.38 1.38 0 010 1.39l-1.66 2.86A1.39 1.39 0 0118 72m22.28 13l-1.54-2.65a1.57 1.57 0 00-1.35-.77h-4.87a1.57 1.57 0 00-1.35.77L29.63 85m1.54 0l.77-1.32a1.56 1.56 0 011.35-.78h3.33a1.56 1.56 0 011.35.78l.77 1.32m-9.02-34.48L31.17 53a1.55 1.55 0 001.35.77h4.87a1.55 1.55 0 001.35-.77l1.45-2.5m-1.53 0L38 51.7a1.57 1.57 0 01-1.35.77h-3.36a1.57 1.57 0 01-1.35-.77l-.69-1.18"/><path class="cls-3" transform="rotate(-90 34.955 67.685)" d="M21.06 66.94h27.79v1.5H21.06z"/><path class="cls-3" d="M51.82 62.17h-.62a1.39 1.39 0 00-1.21.69L47.58 67a1.38 1.38 0 000 1.39L50 72.55a1.39 1.39 0 001.21.69h.62m-.09-1.3h.21a1.38 1.38 0 01-1.2-.68l-1.67-2.86a1.38 1.38 0 010-1.39l1.66-2.86a1.39 1.39 0 011.2-.69"/><path class="cls-3" d="M21.02 66.96h27.81v1.49H21.02z"/><path class="cls-1" d="M78.56 67.71a4.28 4.28 0 11-4.28-4.25 4.26 4.26 0 014.28 4.25m2.15-39.06a6.43 6.43 0 11-6.43-6.39 6.41 6.41 0 016.43 6.39"/><path class="cls-3" d="M54.83 9.29v38.84h39.08V9.29zM91.19 44a1.88 1.88 0 01-1.89 1.87H59.44A1.88 1.88 0 0157.55 44V13.42a1.89 1.89 0 011.89-1.88H89.3a1.89 1.89 0 011.89 1.88z"/><path class="cls-3" d="M57.51 34.25h.63a1.41 1.41 0 001.2-.69l2.41-4.16a1.36 1.36 0 000-1.38l-2.41-4.15a1.39 1.39 0 00-1.2-.69h-.63m-.12 1.28a1.4 1.4 0 011.2.69L60.26 28a1.36 1.36 0 010 1.38l-1.67 2.87a1.36 1.36 0 01-1.2.67h.21M69.05 11.4l1.53 2.65a1.57 1.57 0 001.35.78h4.87a1.56 1.56 0 001.35-.78l1.54-2.65m-1.54 0l-.77 1.33a1.55 1.55 0 01-1.38.77h-3.3a1.57 1.57 0 01-1.35-.77l-.77-1.33m9.03 34.5l-1.46-2.5a1.56 1.56 0 00-1.35-.78h-4.87a1.57 1.57 0 00-1.35.78l-1.45 2.5m1.54 0l.68-1.18A1.57 1.57 0 0172.7 44H76a1.55 1.55 0 011.35.77l.69 1.18"/><path class="cls-3" transform="rotate(90 74.37 28.73)" d="M60.47 27.98h27.79v1.5H60.47z"/><path class="cls-3" d="M91.24 23.18h-.63a1.38 1.38 0 00-1.2.69L87 28a1.41 1.41 0 000 1.38l2.42 4.16a1.4 1.4 0 001.2.69h.63m.11-1.23a1.39 1.39 0 01-1.21-.69l-1.66-2.91a1.36 1.36 0 010-1.38l1.66-2.87a1.4 1.4 0 011.21-.67h-.22"/><path class="cls-3" d="M60.44 27.97h27.81v1.49H60.44zm33.47 59.16V48.28H54.83v38.85zM91.19 83a1.89 1.89 0 01-1.89 1.88H59.44A1.89 1.89 0 0157.55 83V52.41a1.89 1.89 0 011.89-1.88H89.3a1.89 1.89 0 011.89 1.88z"/><path class="cls-3" d="M57.51 73.24h.63a1.39 1.39 0 001.2-.69l2.41-4.15a1.38 1.38 0 000-1.39l-2.41-4.15a1.39 1.39 0 00-1.2-.69h-.63m.09 1.31h-.21a1.36 1.36 0 011.2.67L60.26 67a1.38 1.38 0 010 1.39l-1.67 2.86a1.38 1.38 0 01-1.2.69M79.69 85l-1.54-2.65a1.57 1.57 0 00-1.35-.77h-4.87a1.59 1.59 0 00-1.35.77L69.05 85m1.53 0l.77-1.32a1.57 1.57 0 011.35-.78H76a1.56 1.56 0 011.35.78l.8 1.32m-9.02-34.48L70.58 53a1.57 1.57 0 001.35.77h4.87a1.55 1.55 0 001.35-.77l1.46-2.5m-1.54 0l-.69 1.18a1.57 1.57 0 01-1.35.77H72.7a1.59 1.59 0 01-1.35-.77l-.68-1.18"/><path class="cls-3" transform="rotate(-90 74.37 67.69)" d="M60.47 66.94h27.79v1.5H60.47z"/><path class="cls-3" d="M91.24 62.17h-.63a1.38 1.38 0 00-1.2.69L87 67a1.43 1.43 0 000 1.39l2.42 4.15a1.38 1.38 0 001.2.69h.63m-.1-1.3h.22a1.38 1.38 0 01-1.21-.68l-1.67-2.85a1.38 1.38 0 010-1.39l1.66-2.86a1.39 1.39 0 011.21-.69"/><path class="cls-3" d="M60.44 66.96h27.81v1.49H60.44z"/><path class="cls-1" d="M153.22 59.18a8.51 8.51 0 108.56 8.51 8.53 8.53 0 00-8.56-8.51m0 13.19a4.68 4.68 0 114.71-4.68 4.7 4.7 0 01-4.71 4.68m0-1.49a3.19 3.19 0 113.21-3.19 3.2 3.2 0 01-3.21 3.19m6.31-42.23a6.42 6.42 0 11-6.42-6.39 6.4 6.4 0 016.42 6.39"/><path class="cls-3" d="M133.65 9.29v38.84h39.09V9.29zM170 44a1.88 1.88 0 01-1.88 1.87h-29.85a1.88 1.88 0 01-1.89-1.87V13.42a1.88 1.88 0 011.89-1.88h29.86a1.88 1.88 0 011.87 1.88z"/><path class="cls-3" d="M136.34 34.25h.66a1.42 1.42 0 001.21-.69l2.41-4.16a1.36 1.36 0 000-1.38l-2.41-4.15a1.39 1.39 0 00-1.21-.69h-.62m-.12 1.28a1.41 1.41 0 011.2.69l1.63 2.85a1.41 1.41 0 010 1.38l-1.67 2.87a1.37 1.37 0 01-1.2.67h.21m11.44-21.52l1.54 2.65a1.56 1.56 0 001.35.78h4.87a1.56 1.56 0 001.35-.78l1.54-2.65m-1.54 0l-.77 1.33a1.55 1.55 0 01-1.35.77h-3.33a1.55 1.55 0 01-1.35-.77l-.77-1.33m9.02 34.5L157 43.4a1.56 1.56 0 00-1.35-.78h-4.87a1.56 1.56 0 00-1.35.78L148 45.9m1.54 0l.68-1.18a1.55 1.55 0 011.35-.77h3.33a1.55 1.55 0 011.35.77l.69 1.18"/><path class="cls-3" transform="rotate(90 153.2 28.73)" d="M139.3 27.98h27.79v1.5H139.3z"/><path class="cls-3" d="M170.06 23.18h-.62a1.39 1.39 0 00-1.21.69L165.82 28a1.36 1.36 0 000 1.38l2.41 4.16a1.42 1.42 0 001.21.69h.62m.13-1.29a1.39 1.39 0 01-1.21-.69l-1.66-2.87a1.36 1.36 0 010-1.38l1.68-2.85a1.4 1.4 0 011.21-.67H170"/><path class="cls-3" d="M139.26 27.97h27.81v1.49h-27.81zm33.48 59.16V48.28h-39.09v38.85zM170 83a1.88 1.88 0 01-1.88 1.88h-29.85a1.88 1.88 0 01-1.89-1.88V52.41a1.88 1.88 0 011.89-1.88h29.86a1.88 1.88 0 011.87 1.88z"/><path class="cls-3" d="M136.34 73.24h.66a1.39 1.39 0 001.21-.69l2.41-4.15a1.38 1.38 0 000-1.39l-2.41-4.15a1.39 1.39 0 00-1.21-.69h-.62m.09 1.31h-.21a1.37 1.37 0 011.2.67l1.63 2.85a1.43 1.43 0 010 1.39l-1.67 2.86a1.39 1.39 0 01-1.2.69M158.52 85L157 82.36a1.57 1.57 0 00-1.35-.77h-4.87a1.57 1.57 0 00-1.35.77L147.87 85m1.54 0l.77-1.32a1.56 1.56 0 011.35-.78h3.33a1.56 1.56 0 011.35.78L157 85m-9-34.48l1.45 2.5a1.55 1.55 0 001.35.77h4.87A1.55 1.55 0 00157 53l1.45-2.5m-1.53 0l-.69 1.18a1.57 1.57 0 01-1.35.77h-3.33a1.57 1.57 0 01-1.35-.77l-.68-1.18"/><path class="cls-3" transform="rotate(-90 153.195 67.685)" d="M139.3 66.94h27.79v1.5H139.3z"/><path class="cls-3" d="M170.06 62.17h-.62a1.39 1.39 0 00-1.21.69L165.82 67a1.38 1.38 0 000 1.39l2.41 4.15a1.39 1.39 0 001.21.69h.62m-.09-1.3h.22a1.38 1.38 0 01-1.21-.68l-1.66-2.86a1.38 1.38 0 010-1.39l1.68-2.85a1.39 1.39 0 011.21-.69"/><path class="cls-3" d="M139.26 66.96h27.81v1.49h-27.81z"/><path class="cls-4" d="M11.01 5.79h166.13v81.75H11.01zM11 92.73c0 3.29 2.17 6 4.84 6m-4.83-11.19v5.19"/><path class="cls-5" d="M177.14 92.18a4.79 4.79 0 01-4.82 4.76h-3.09"/><path class="cls-4" d="M177.14 92.73v-5.19"/><path class="cls-5" d="M11 92.19a4.77 4.77 0 004.8 4.75h7.27"/><ellipse class="cls-5" cx="27.64" cy="97.38" rx="3.51" ry=".66"/><ellipse class="cls-5" cx="27.64" cy="97.24" rx="4.56" ry=".88"/><path class="cls-5" d="M23.08 97.24v-3.49c0-.45 2-.81 4.56-.81s4.55.36 4.55.81v.44c.42-.14.66-.31.66-.49 0-.55-2.32-1-5.18-1s-5.18.44-5.18 1c0 .17.21.33.59.47"/><ellipse class="cls-5" cx="43.33" cy="97.38" rx="3.51" ry=".66"/><ellipse class="cls-5" cx="43.33" cy="97.24" rx="4.56" ry=".88"/><path class="cls-5" d="M38.77 97.24v-3.49c0-.45 2-.81 4.56-.81s4.56.36 4.56.81v.44c.41-.14.65-.31.65-.49 0-.55-2.32-1-5.18-1s-5.18.44-5.18 1c0 .17.22.33.59.47"/><ellipse class="cls-5" cx="59.02" cy="97.38" rx="3.51" ry=".66"/><ellipse class="cls-5" cx="59.02" cy="97.24" rx="4.56" ry=".88"/><path class="cls-5" d="M54.47 97.24v-3.49c0-.45 2-.81 4.55-.81s4.56.36 4.56.81v.44c.42-.14.65-.31.65-.49 0-.55-2.32-1-5.18-1s-5.17.44-5.17 1c0 .17.21.33.59.47"/><ellipse class="cls-5" cx="74.72" cy="97.38" rx="3.51" ry=".66"/><ellipse class="cls-5" cx="74.72" cy="97.24" rx="4.56" ry=".88"/><path class="cls-5" d="M70.16 97.24v-3.49c0-.45 2-.81 4.56-.81s4.55.36 4.55.81v.44c.42-.14.66-.31.66-.49 0-.55-2.32-1-5.18-1s-5.18.44-5.18 1c0 .17.21.33.59.47"/><ellipse class="cls-5" cx="90.41" cy="97.38" rx="3.51" ry=".66"/><ellipse class="cls-5" cx="90.41" cy="97.24" rx="4.56" ry=".88"/><path class="cls-5" d="M85.85 97.24v-3.49c0-.45 2-.81 4.56-.81s4.56.36 4.56.81v.44c.41-.14.65-.31.65-.49 0-.55-2.32-1-5.18-1s-5.18.44-5.18 1c0 .17.22.33.59.47"/><ellipse class="cls-5" cx="106.1" cy="97.38" rx="3.51" ry=".66"/><ellipse class="cls-5" cx="106.1" cy="97.24" rx="4.56" ry=".88"/><path class="cls-5" d="M101.55 97.24v-3.49c0-.45 2-.81 4.55-.81s4.56.36 4.56.81v.44c.42-.14.65-.31.65-.49 0-.55-2.32-1-5.18-1s-5.17.44-5.17 1c0 .17.21.33.59.47"/><ellipse class="cls-5" cx="121.8" cy="97.38" rx="3.51" ry=".66"/><ellipse class="cls-5" cx="121.8" cy="97.24" rx="4.56" ry=".88"/><path class="cls-5" d="M117.24 97.24v-3.49c0-.45 2-.81 4.56-.81s4.55.36 4.55.81v.44c.42-.14.66-.31.66-.49 0-.55-2.32-1-5.18-1s-5.18.44-5.18 1c0 .17.21.33.59.47"/><ellipse class="cls-5" cx="137.49" cy="97.38" rx="3.51" ry=".66"/><ellipse class="cls-5" cx="137.49" cy="97.24" rx="4.56" ry=".88"/><path class="cls-5" d="M132.93 97.24v-3.49c0-.45 2-.81 4.56-.81s4.56.36 4.56.81v.44c.41-.14.65-.31.65-.49 0-.55-2.32-1-5.18-1s-5.18.44-5.18 1c0 .17.22.33.59.47"/><path class="cls-4" d="M177.14 92.73c0 3.29-2.17 6-4.84 6H15.77"/><path class="cls-5" d="M159.31 95.75h-6.01v-4.03h16.09v4.03h-5.97"/><ellipse class="cls-5" cx="161.37" cy="97.61" rx="1.6" ry=".42"/><ellipse class="cls-5" cx="161.37" cy="97.52" rx="2.08" ry=".57"/><path class="cls-5" d="M159.29 97.52v-2.23c0-.29.93-.52 2.08-.52s2.08.23 2.08.52v.28m5.78 1.37h-5.78m-4.16.01h-17.24m-9.13 0h-6.57m-9.11 0h-6.58m-9.11 0h-6.58m-9.12 0h-6.58m-9.11 0h-6.58m-9.11 0h-6.58m-9.12 0h-6.58"/></svg>